G75*
G70*
%OFA0B0*%
%FSLAX25Y25*%
%IPPOS*%
%LPD*%
%AMOC8*
5,1,8,0,0,1.08239X$1,22.5*
%
%ADD50C,0.00100*%
D50*
X0013000Y0013000D02*
X0021000Y0021000D01*
X0021000Y0013000D02*
X0013000Y0021000D01*
X0013000Y0017000D02*
X0021000Y0017000D01*
X0023000Y0013000D02*
X0031000Y0021000D01*
X0031000Y0013000D02*
X0023000Y0021000D01*
X0023000Y0017000D02*
X0031000Y0017000D01*
X0033000Y0013000D02*
X0041000Y0021000D01*
X0041000Y0013000D02*
X0033000Y0021000D01*
X0033000Y0017000D02*
X0041000Y0017000D01*
X0043000Y0013000D02*
X0051000Y0021000D01*
X0051000Y0013000D02*
X0043000Y0021000D01*
X0043000Y0017000D02*
X0051000Y0017000D01*
X0053000Y0013000D02*
X0061000Y0021000D01*
X0061000Y0013000D02*
X0053000Y0021000D01*
X0053000Y0017000D02*
X0061000Y0017000D01*
X0063000Y0013000D02*
X0071000Y0021000D01*
X0071000Y0013000D02*
X0063000Y0021000D01*
X0063000Y0017000D02*
X0071000Y0017000D01*
X0073000Y0013000D02*
X0081000Y0021000D01*
X0081000Y0013000D02*
X0073000Y0021000D01*
X0073000Y0017000D02*
X0081000Y0017000D01*
X0083000Y0013000D02*
X0091000Y0021000D01*
X0091000Y0013000D02*
X0083000Y0021000D01*
X0083000Y0017000D02*
X0091000Y0017000D01*
X0093000Y0013000D02*
X0101000Y0021000D01*
X0101000Y0013000D02*
X0093000Y0021000D01*
X0093000Y0017000D02*
X0101000Y0017000D01*
X0103000Y0013000D02*
X0111000Y0021000D01*
X0111000Y0013000D02*
X0103000Y0021000D01*
X0103000Y0017000D02*
X0111000Y0017000D01*
X0113000Y0013000D02*
X0121000Y0021000D01*
X0121000Y0013000D02*
X0113000Y0021000D01*
X0113000Y0017000D02*
X0121000Y0017000D01*
X0123000Y0013000D02*
X0131000Y0021000D01*
X0131000Y0013000D02*
X0123000Y0021000D01*
X0123000Y0017000D02*
X0131000Y0017000D01*
X0133000Y0013000D02*
X0141000Y0021000D01*
X0141000Y0013000D02*
X0133000Y0021000D01*
X0133000Y0017000D02*
X0141000Y0017000D01*
X0143000Y0013000D02*
X0151000Y0021000D01*
X0151000Y0013000D02*
X0143000Y0021000D01*
X0143000Y0017000D02*
X0151000Y0017000D01*
X0153000Y0013000D02*
X0161000Y0021000D01*
X0161000Y0013000D02*
X0153000Y0021000D01*
X0153000Y0017000D02*
X0161000Y0017000D01*
X0163000Y0013000D02*
X0171000Y0021000D01*
X0171000Y0013000D02*
X0163000Y0021000D01*
X0163000Y0017000D02*
X0171000Y0017000D01*
X0173000Y0013000D02*
X0181000Y0021000D01*
X0181000Y0013000D02*
X0173000Y0021000D01*
X0173000Y0017000D02*
X0181000Y0017000D01*
X0183000Y0013000D02*
X0191000Y0021000D01*
X0191000Y0013000D02*
X0183000Y0021000D01*
X0183000Y0017000D02*
X0191000Y0017000D01*
X0183000Y0073000D02*
X0191000Y0081000D01*
X0191000Y0073000D02*
X0183000Y0081000D01*
X0183000Y0077000D02*
X0191000Y0077000D01*
X0173000Y0073000D02*
X0181000Y0081000D01*
X0181000Y0073000D02*
X0173000Y0081000D01*
X0173000Y0077000D02*
X0181000Y0077000D01*
X0163000Y0073000D02*
X0171000Y0081000D01*
X0171000Y0073000D02*
X0163000Y0081000D01*
X0163000Y0077000D02*
X0171000Y0077000D01*
X0153000Y0073000D02*
X0161000Y0081000D01*
X0161000Y0073000D02*
X0153000Y0081000D01*
X0153000Y0077000D02*
X0161000Y0077000D01*
X0143000Y0073000D02*
X0151000Y0081000D01*
X0151000Y0073000D02*
X0143000Y0081000D01*
X0143000Y0077000D02*
X0151000Y0077000D01*
X0133000Y0073000D02*
X0141000Y0081000D01*
X0141000Y0073000D02*
X0133000Y0081000D01*
X0133000Y0077000D02*
X0141000Y0077000D01*
X0123000Y0073000D02*
X0131000Y0081000D01*
X0131000Y0073000D02*
X0123000Y0081000D01*
X0123000Y0077000D02*
X0131000Y0077000D01*
X0113000Y0073000D02*
X0121000Y0081000D01*
X0121000Y0073000D02*
X0113000Y0081000D01*
X0113000Y0077000D02*
X0121000Y0077000D01*
X0103000Y0073000D02*
X0111000Y0081000D01*
X0111000Y0073000D02*
X0103000Y0081000D01*
X0103000Y0077000D02*
X0111000Y0077000D01*
X0093000Y0073000D02*
X0101000Y0081000D01*
X0101000Y0073000D02*
X0093000Y0081000D01*
X0093000Y0077000D02*
X0101000Y0077000D01*
X0083000Y0073000D02*
X0091000Y0081000D01*
X0091000Y0073000D02*
X0083000Y0081000D01*
X0083000Y0077000D02*
X0091000Y0077000D01*
X0073000Y0073000D02*
X0081000Y0081000D01*
X0081000Y0073000D02*
X0073000Y0081000D01*
X0073000Y0077000D02*
X0081000Y0077000D01*
X0063000Y0073000D02*
X0071000Y0081000D01*
X0071000Y0073000D02*
X0063000Y0081000D01*
X0063000Y0077000D02*
X0071000Y0077000D01*
X0053000Y0073000D02*
X0061000Y0081000D01*
X0061000Y0073000D02*
X0053000Y0081000D01*
X0053000Y0077000D02*
X0061000Y0077000D01*
X0043000Y0073000D02*
X0051000Y0081000D01*
X0051000Y0073000D02*
X0043000Y0081000D01*
X0043000Y0077000D02*
X0051000Y0077000D01*
X0033000Y0073000D02*
X0041000Y0081000D01*
X0041000Y0073000D02*
X0033000Y0081000D01*
X0033000Y0077000D02*
X0041000Y0077000D01*
X0023000Y0073000D02*
X0031000Y0081000D01*
X0031000Y0073000D02*
X0023000Y0081000D01*
X0023000Y0077000D02*
X0031000Y0077000D01*
X0013000Y0073000D02*
X0021000Y0081000D01*
X0021000Y0073000D02*
X0013000Y0081000D01*
X0013000Y0077000D02*
X0021000Y0077000D01*
X0193000Y0073000D02*
X0201000Y0081000D01*
X0201000Y0073000D02*
X0193000Y0081000D01*
X0193000Y0077000D02*
X0201000Y0077000D01*
X0203000Y0073000D02*
X0211000Y0081000D01*
X0211000Y0073000D02*
X0203000Y0081000D01*
X0203000Y0077000D02*
X0211000Y0077000D01*
X0013000Y0087300D02*
X0021000Y0095300D01*
X0021000Y0087300D02*
X0013000Y0095300D01*
X0013000Y0091300D02*
X0021000Y0091300D01*
X0023000Y0087300D02*
X0031000Y0095300D01*
X0031000Y0087300D02*
X0023000Y0095300D01*
X0023000Y0091300D02*
X0031000Y0091300D01*
X0033000Y0087300D02*
X0041000Y0095300D01*
X0041000Y0087300D02*
X0033000Y0095300D01*
X0033000Y0091300D02*
X0041000Y0091300D01*
X0043000Y0087300D02*
X0051000Y0095300D01*
X0051000Y0087300D02*
X0043000Y0095300D01*
X0043000Y0091300D02*
X0051000Y0091300D01*
X0053000Y0087300D02*
X0061000Y0095300D01*
X0061000Y0087300D02*
X0053000Y0095300D01*
X0053000Y0091300D02*
X0061000Y0091300D01*
X0063000Y0087300D02*
X0071000Y0095300D01*
X0071000Y0087300D02*
X0063000Y0095300D01*
X0063000Y0091300D02*
X0071000Y0091300D01*
X0073000Y0087300D02*
X0081000Y0095300D01*
X0081000Y0087300D02*
X0073000Y0095300D01*
X0073000Y0091300D02*
X0081000Y0091300D01*
X0083000Y0087300D02*
X0091000Y0095300D01*
X0091000Y0087300D02*
X0083000Y0095300D01*
X0083000Y0091300D02*
X0091000Y0091300D01*
X0093000Y0087300D02*
X0101000Y0095300D01*
X0101000Y0087300D02*
X0093000Y0095300D01*
X0093000Y0091300D02*
X0101000Y0091300D01*
X0103000Y0087300D02*
X0111000Y0095300D01*
X0111000Y0087300D02*
X0103000Y0095300D01*
X0103000Y0091300D02*
X0111000Y0091300D01*
X0113000Y0087300D02*
X0121000Y0095300D01*
X0121000Y0087300D02*
X0113000Y0095300D01*
X0113000Y0091300D02*
X0121000Y0091300D01*
X0123000Y0087300D02*
X0131000Y0095300D01*
X0131000Y0087300D02*
X0123000Y0095300D01*
X0123000Y0091300D02*
X0131000Y0091300D01*
X0133000Y0087300D02*
X0141000Y0095300D01*
X0141000Y0087300D02*
X0133000Y0095300D01*
X0133000Y0091300D02*
X0141000Y0091300D01*
X0143000Y0087300D02*
X0151000Y0095300D01*
X0151000Y0087300D02*
X0143000Y0095300D01*
X0143000Y0091300D02*
X0151000Y0091300D01*
X0153000Y0087300D02*
X0161000Y0095300D01*
X0161000Y0087300D02*
X0153000Y0095300D01*
X0153000Y0091300D02*
X0161000Y0091300D01*
X0163000Y0087300D02*
X0171000Y0095300D01*
X0171000Y0087300D02*
X0163000Y0095300D01*
X0163000Y0091300D02*
X0171000Y0091300D01*
X0173000Y0087300D02*
X0181000Y0095300D01*
X0181000Y0087300D02*
X0173000Y0095300D01*
X0173000Y0091300D02*
X0181000Y0091300D01*
X0183000Y0087300D02*
X0191000Y0095300D01*
X0191000Y0087300D02*
X0183000Y0095300D01*
X0183000Y0091300D02*
X0191000Y0091300D01*
X0183000Y0147300D02*
X0191000Y0155300D01*
X0191000Y0147300D02*
X0183000Y0155300D01*
X0183000Y0151300D02*
X0191000Y0151300D01*
X0173000Y0147300D02*
X0181000Y0155300D01*
X0181000Y0147300D02*
X0173000Y0155300D01*
X0173000Y0151300D02*
X0181000Y0151300D01*
X0163000Y0147300D02*
X0171000Y0155300D01*
X0171000Y0147300D02*
X0163000Y0155300D01*
X0163000Y0151300D02*
X0171000Y0151300D01*
X0153000Y0147300D02*
X0161000Y0155300D01*
X0161000Y0147300D02*
X0153000Y0155300D01*
X0153000Y0151300D02*
X0161000Y0151300D01*
X0143000Y0147300D02*
X0151000Y0155300D01*
X0151000Y0147300D02*
X0143000Y0155300D01*
X0143000Y0151300D02*
X0151000Y0151300D01*
X0133000Y0147300D02*
X0141000Y0155300D01*
X0141000Y0147300D02*
X0133000Y0155300D01*
X0133000Y0151300D02*
X0141000Y0151300D01*
X0123000Y0147300D02*
X0131000Y0155300D01*
X0131000Y0147300D02*
X0123000Y0155300D01*
X0123000Y0151300D02*
X0131000Y0151300D01*
X0113000Y0147300D02*
X0121000Y0155300D01*
X0121000Y0147300D02*
X0113000Y0155300D01*
X0113000Y0151300D02*
X0121000Y0151300D01*
X0103000Y0147300D02*
X0111000Y0155300D01*
X0111000Y0147300D02*
X0103000Y0155300D01*
X0103000Y0151300D02*
X0111000Y0151300D01*
X0093000Y0147300D02*
X0101000Y0155300D01*
X0101000Y0147300D02*
X0093000Y0155300D01*
X0093000Y0151300D02*
X0101000Y0151300D01*
X0083000Y0147300D02*
X0091000Y0155300D01*
X0091000Y0147300D02*
X0083000Y0155300D01*
X0083000Y0151300D02*
X0091000Y0151300D01*
X0073000Y0147300D02*
X0081000Y0155300D01*
X0081000Y0147300D02*
X0073000Y0155300D01*
X0073000Y0151300D02*
X0081000Y0151300D01*
X0063000Y0147300D02*
X0071000Y0155300D01*
X0071000Y0147300D02*
X0063000Y0155300D01*
X0063000Y0151300D02*
X0071000Y0151300D01*
X0053000Y0147300D02*
X0061000Y0155300D01*
X0061000Y0147300D02*
X0053000Y0155300D01*
X0053000Y0151300D02*
X0061000Y0151300D01*
X0043000Y0147300D02*
X0051000Y0155300D01*
X0051000Y0147300D02*
X0043000Y0155300D01*
X0043000Y0151300D02*
X0051000Y0151300D01*
X0033000Y0147300D02*
X0041000Y0155300D01*
X0041000Y0147300D02*
X0033000Y0155300D01*
X0033000Y0151300D02*
X0041000Y0151300D01*
X0023000Y0147300D02*
X0031000Y0155300D01*
X0031000Y0147300D02*
X0023000Y0155300D01*
X0023000Y0151300D02*
X0031000Y0151300D01*
X0013000Y0147300D02*
X0021000Y0155300D01*
X0021000Y0147300D02*
X0013000Y0155300D01*
X0013000Y0151300D02*
X0021000Y0151300D01*
X0193000Y0147300D02*
X0201000Y0155300D01*
X0201000Y0147300D02*
X0193000Y0155300D01*
X0193000Y0151300D02*
X0201000Y0151300D01*
X0203000Y0147300D02*
X0211000Y0155300D01*
X0211000Y0147300D02*
X0203000Y0155300D01*
X0203000Y0151300D02*
X0211000Y0151300D01*
X0013000Y0161600D02*
X0021000Y0169600D01*
X0021000Y0161600D02*
X0013000Y0169600D01*
X0013000Y0165600D02*
X0021000Y0165600D01*
X0023000Y0161600D02*
X0031000Y0169600D01*
X0031000Y0161600D02*
X0023000Y0169600D01*
X0023000Y0165600D02*
X0031000Y0165600D01*
X0033000Y0161600D02*
X0041000Y0169600D01*
X0041000Y0161600D02*
X0033000Y0169600D01*
X0033000Y0165600D02*
X0041000Y0165600D01*
X0043000Y0161600D02*
X0051000Y0169600D01*
X0051000Y0161600D02*
X0043000Y0169600D01*
X0043000Y0165600D02*
X0051000Y0165600D01*
X0053000Y0161600D02*
X0061000Y0169600D01*
X0061000Y0161600D02*
X0053000Y0169600D01*
X0053000Y0165600D02*
X0061000Y0165600D01*
X0063000Y0161600D02*
X0071000Y0169600D01*
X0071000Y0161600D02*
X0063000Y0169600D01*
X0063000Y0165600D02*
X0071000Y0165600D01*
X0073000Y0161600D02*
X0081000Y0169600D01*
X0081000Y0161600D02*
X0073000Y0169600D01*
X0073000Y0165600D02*
X0081000Y0165600D01*
X0083000Y0161600D02*
X0091000Y0169600D01*
X0091000Y0161600D02*
X0083000Y0169600D01*
X0083000Y0165600D02*
X0091000Y0165600D01*
X0093000Y0161600D02*
X0101000Y0169600D01*
X0101000Y0161600D02*
X0093000Y0169600D01*
X0093000Y0165600D02*
X0101000Y0165600D01*
X0103000Y0161600D02*
X0111000Y0169600D01*
X0111000Y0161600D02*
X0103000Y0169600D01*
X0103000Y0165600D02*
X0111000Y0165600D01*
X0113000Y0161600D02*
X0121000Y0169600D01*
X0121000Y0161600D02*
X0113000Y0169600D01*
X0113000Y0165600D02*
X0121000Y0165600D01*
X0123000Y0161600D02*
X0131000Y0169600D01*
X0131000Y0161600D02*
X0123000Y0169600D01*
X0123000Y0165600D02*
X0131000Y0165600D01*
X0133000Y0161600D02*
X0141000Y0169600D01*
X0141000Y0161600D02*
X0133000Y0169600D01*
X0133000Y0165600D02*
X0141000Y0165600D01*
X0143000Y0161600D02*
X0151000Y0169600D01*
X0151000Y0161600D02*
X0143000Y0169600D01*
X0143000Y0165600D02*
X0151000Y0165600D01*
X0153000Y0161600D02*
X0161000Y0169600D01*
X0161000Y0161600D02*
X0153000Y0169600D01*
X0153000Y0165600D02*
X0161000Y0165600D01*
X0163000Y0161600D02*
X0171000Y0169600D01*
X0171000Y0161600D02*
X0163000Y0169600D01*
X0163000Y0165600D02*
X0171000Y0165600D01*
X0173000Y0161600D02*
X0181000Y0169600D01*
X0181000Y0161600D02*
X0173000Y0169600D01*
X0173000Y0165600D02*
X0181000Y0165600D01*
X0183000Y0161600D02*
X0191000Y0169600D01*
X0191000Y0161600D02*
X0183000Y0169600D01*
X0183000Y0165600D02*
X0191000Y0165600D01*
X0183000Y0221600D02*
X0191000Y0229600D01*
X0191000Y0221600D02*
X0183000Y0229600D01*
X0183000Y0225600D02*
X0191000Y0225600D01*
X0173000Y0221600D02*
X0181000Y0229600D01*
X0181000Y0221600D02*
X0173000Y0229600D01*
X0173000Y0225600D02*
X0181000Y0225600D01*
X0163000Y0221600D02*
X0171000Y0229600D01*
X0171000Y0221600D02*
X0163000Y0229600D01*
X0163000Y0225600D02*
X0171000Y0225600D01*
X0153000Y0221600D02*
X0161000Y0229600D01*
X0161000Y0221600D02*
X0153000Y0229600D01*
X0153000Y0225600D02*
X0161000Y0225600D01*
X0143000Y0221600D02*
X0151000Y0229600D01*
X0151000Y0221600D02*
X0143000Y0229600D01*
X0143000Y0225600D02*
X0151000Y0225600D01*
X0133000Y0221600D02*
X0141000Y0229600D01*
X0141000Y0221600D02*
X0133000Y0229600D01*
X0133000Y0225600D02*
X0141000Y0225600D01*
X0123000Y0221600D02*
X0131000Y0229600D01*
X0131000Y0221600D02*
X0123000Y0229600D01*
X0123000Y0225600D02*
X0131000Y0225600D01*
X0113000Y0221600D02*
X0121000Y0229600D01*
X0121000Y0221600D02*
X0113000Y0229600D01*
X0113000Y0225600D02*
X0121000Y0225600D01*
X0103000Y0221600D02*
X0111000Y0229600D01*
X0111000Y0221600D02*
X0103000Y0229600D01*
X0103000Y0225600D02*
X0111000Y0225600D01*
X0093000Y0221600D02*
X0101000Y0229600D01*
X0101000Y0221600D02*
X0093000Y0229600D01*
X0093000Y0225600D02*
X0101000Y0225600D01*
X0083000Y0221600D02*
X0091000Y0229600D01*
X0091000Y0221600D02*
X0083000Y0229600D01*
X0083000Y0225600D02*
X0091000Y0225600D01*
X0073000Y0221600D02*
X0081000Y0229600D01*
X0081000Y0221600D02*
X0073000Y0229600D01*
X0073000Y0225600D02*
X0081000Y0225600D01*
X0063000Y0221600D02*
X0071000Y0229600D01*
X0071000Y0221600D02*
X0063000Y0229600D01*
X0063000Y0225600D02*
X0071000Y0225600D01*
X0053000Y0221600D02*
X0061000Y0229600D01*
X0061000Y0221600D02*
X0053000Y0229600D01*
X0053000Y0225600D02*
X0061000Y0225600D01*
X0043000Y0221600D02*
X0051000Y0229600D01*
X0051000Y0221600D02*
X0043000Y0229600D01*
X0043000Y0225600D02*
X0051000Y0225600D01*
X0033000Y0221600D02*
X0041000Y0229600D01*
X0041000Y0221600D02*
X0033000Y0229600D01*
X0033000Y0225600D02*
X0041000Y0225600D01*
X0023000Y0221600D02*
X0031000Y0229600D01*
X0031000Y0221600D02*
X0023000Y0229600D01*
X0023000Y0225600D02*
X0031000Y0225600D01*
X0013000Y0221600D02*
X0021000Y0229600D01*
X0021000Y0221600D02*
X0013000Y0229600D01*
X0013000Y0225600D02*
X0021000Y0225600D01*
X0193000Y0221600D02*
X0201000Y0229600D01*
X0201000Y0221600D02*
X0193000Y0229600D01*
X0193000Y0225600D02*
X0201000Y0225600D01*
X0203000Y0221600D02*
X0211000Y0229600D01*
X0211000Y0221600D02*
X0203000Y0229600D01*
X0203000Y0225600D02*
X0211000Y0225600D01*
X0013000Y0235900D02*
X0021000Y0243900D01*
X0021000Y0235900D02*
X0013000Y0243900D01*
X0013000Y0239900D02*
X0021000Y0239900D01*
X0023000Y0235900D02*
X0031000Y0243900D01*
X0031000Y0235900D02*
X0023000Y0243900D01*
X0023000Y0239900D02*
X0031000Y0239900D01*
X0033000Y0235900D02*
X0041000Y0243900D01*
X0041000Y0235900D02*
X0033000Y0243900D01*
X0033000Y0239900D02*
X0041000Y0239900D01*
X0043000Y0235900D02*
X0051000Y0243900D01*
X0051000Y0235900D02*
X0043000Y0243900D01*
X0043000Y0239900D02*
X0051000Y0239900D01*
X0053000Y0235900D02*
X0061000Y0243900D01*
X0061000Y0235900D02*
X0053000Y0243900D01*
X0053000Y0239900D02*
X0061000Y0239900D01*
X0063000Y0235900D02*
X0071000Y0243900D01*
X0071000Y0235900D02*
X0063000Y0243900D01*
X0063000Y0239900D02*
X0071000Y0239900D01*
X0073000Y0235900D02*
X0081000Y0243900D01*
X0081000Y0235900D02*
X0073000Y0243900D01*
X0073000Y0239900D02*
X0081000Y0239900D01*
X0083000Y0235900D02*
X0091000Y0243900D01*
X0091000Y0235900D02*
X0083000Y0243900D01*
X0083000Y0239900D02*
X0091000Y0239900D01*
X0093000Y0235900D02*
X0101000Y0243900D01*
X0101000Y0235900D02*
X0093000Y0243900D01*
X0093000Y0239900D02*
X0101000Y0239900D01*
X0103000Y0235900D02*
X0111000Y0243900D01*
X0111000Y0235900D02*
X0103000Y0243900D01*
X0103000Y0239900D02*
X0111000Y0239900D01*
X0113000Y0235900D02*
X0121000Y0243900D01*
X0121000Y0235900D02*
X0113000Y0243900D01*
X0113000Y0239900D02*
X0121000Y0239900D01*
X0123000Y0235900D02*
X0131000Y0243900D01*
X0131000Y0235900D02*
X0123000Y0243900D01*
X0123000Y0239900D02*
X0131000Y0239900D01*
X0133000Y0235900D02*
X0141000Y0243900D01*
X0141000Y0235900D02*
X0133000Y0243900D01*
X0133000Y0239900D02*
X0141000Y0239900D01*
X0143000Y0235900D02*
X0151000Y0243900D01*
X0151000Y0235900D02*
X0143000Y0243900D01*
X0143000Y0239900D02*
X0151000Y0239900D01*
X0153000Y0235900D02*
X0161000Y0243900D01*
X0161000Y0235900D02*
X0153000Y0243900D01*
X0153000Y0239900D02*
X0161000Y0239900D01*
X0163000Y0235900D02*
X0171000Y0243900D01*
X0171000Y0235900D02*
X0163000Y0243900D01*
X0163000Y0239900D02*
X0171000Y0239900D01*
X0173000Y0235900D02*
X0181000Y0243900D01*
X0181000Y0235900D02*
X0173000Y0243900D01*
X0173000Y0239900D02*
X0181000Y0239900D01*
X0183000Y0235900D02*
X0191000Y0243900D01*
X0191000Y0235900D02*
X0183000Y0243900D01*
X0183000Y0239900D02*
X0191000Y0239900D01*
X0183000Y0295900D02*
X0191000Y0303900D01*
X0191000Y0295900D02*
X0183000Y0303900D01*
X0183000Y0299900D02*
X0191000Y0299900D01*
X0173000Y0295900D02*
X0181000Y0303900D01*
X0181000Y0295900D02*
X0173000Y0303900D01*
X0173000Y0299900D02*
X0181000Y0299900D01*
X0163000Y0295900D02*
X0171000Y0303900D01*
X0171000Y0295900D02*
X0163000Y0303900D01*
X0163000Y0299900D02*
X0171000Y0299900D01*
X0153000Y0295900D02*
X0161000Y0303900D01*
X0161000Y0295900D02*
X0153000Y0303900D01*
X0153000Y0299900D02*
X0161000Y0299900D01*
X0143000Y0295900D02*
X0151000Y0303900D01*
X0151000Y0295900D02*
X0143000Y0303900D01*
X0143000Y0299900D02*
X0151000Y0299900D01*
X0133000Y0295900D02*
X0141000Y0303900D01*
X0141000Y0295900D02*
X0133000Y0303900D01*
X0133000Y0299900D02*
X0141000Y0299900D01*
X0123000Y0295900D02*
X0131000Y0303900D01*
X0131000Y0295900D02*
X0123000Y0303900D01*
X0123000Y0299900D02*
X0131000Y0299900D01*
X0113000Y0295900D02*
X0121000Y0303900D01*
X0121000Y0295900D02*
X0113000Y0303900D01*
X0113000Y0299900D02*
X0121000Y0299900D01*
X0103000Y0295900D02*
X0111000Y0303900D01*
X0111000Y0295900D02*
X0103000Y0303900D01*
X0103000Y0299900D02*
X0111000Y0299900D01*
X0093000Y0295900D02*
X0101000Y0303900D01*
X0101000Y0295900D02*
X0093000Y0303900D01*
X0093000Y0299900D02*
X0101000Y0299900D01*
X0083000Y0295900D02*
X0091000Y0303900D01*
X0091000Y0295900D02*
X0083000Y0303900D01*
X0083000Y0299900D02*
X0091000Y0299900D01*
X0073000Y0295900D02*
X0081000Y0303900D01*
X0081000Y0295900D02*
X0073000Y0303900D01*
X0073000Y0299900D02*
X0081000Y0299900D01*
X0063000Y0295900D02*
X0071000Y0303900D01*
X0071000Y0295900D02*
X0063000Y0303900D01*
X0063000Y0299900D02*
X0071000Y0299900D01*
X0053000Y0295900D02*
X0061000Y0303900D01*
X0061000Y0295900D02*
X0053000Y0303900D01*
X0053000Y0299900D02*
X0061000Y0299900D01*
X0043000Y0295900D02*
X0051000Y0303900D01*
X0051000Y0295900D02*
X0043000Y0303900D01*
X0043000Y0299900D02*
X0051000Y0299900D01*
X0033000Y0295900D02*
X0041000Y0303900D01*
X0041000Y0295900D02*
X0033000Y0303900D01*
X0033000Y0299900D02*
X0041000Y0299900D01*
X0023000Y0295900D02*
X0031000Y0303900D01*
X0031000Y0295900D02*
X0023000Y0303900D01*
X0023000Y0299900D02*
X0031000Y0299900D01*
X0013000Y0295900D02*
X0021000Y0303900D01*
X0021000Y0295900D02*
X0013000Y0303900D01*
X0013000Y0299900D02*
X0021000Y0299900D01*
X0193000Y0295900D02*
X0201000Y0303900D01*
X0201000Y0295900D02*
X0193000Y0303900D01*
X0193000Y0299900D02*
X0201000Y0299900D01*
X0203000Y0295900D02*
X0211000Y0303900D01*
X0211000Y0295900D02*
X0203000Y0303900D01*
X0203000Y0299900D02*
X0211000Y0299900D01*
X0194200Y0038340D02*
X0190200Y0038340D01*
X0194200Y0038340D02*
X0198200Y0042340D01*
X0198200Y0034340D01*
X0194200Y0038340D01*
X0194200Y0055660D02*
X0190200Y0055660D01*
X0194200Y0055660D02*
X0198200Y0059660D01*
X0198200Y0051660D01*
X0194200Y0055660D01*
X0194200Y0112640D02*
X0190200Y0112640D01*
X0194200Y0112640D02*
X0198200Y0116640D01*
X0198200Y0108640D01*
X0194200Y0112640D01*
X0194200Y0129960D02*
X0190200Y0129960D01*
X0194200Y0129960D02*
X0198200Y0133960D01*
X0198200Y0125960D01*
X0194200Y0129960D01*
X0194200Y0186940D02*
X0190200Y0186940D01*
X0194200Y0186940D02*
X0198200Y0190940D01*
X0198200Y0182940D01*
X0194200Y0186940D01*
X0194200Y0204260D02*
X0190200Y0204260D01*
X0194200Y0204260D02*
X0198200Y0208260D01*
X0198200Y0200260D01*
X0194200Y0204260D01*
X0194200Y0261240D02*
X0190200Y0261240D01*
X0194200Y0261240D02*
X0198200Y0265240D01*
X0198200Y0257240D01*
X0194200Y0261240D01*
X0194200Y0278560D02*
X0190200Y0278560D01*
X0194200Y0278560D02*
X0198200Y0282560D01*
X0198200Y0274560D01*
X0194200Y0278560D01*
X0036600Y0038900D02*
X0040600Y0038900D01*
X0036600Y0038900D02*
X0032600Y0042900D01*
X0032600Y0034900D01*
X0036600Y0038900D01*
X0028200Y0039100D02*
X0032200Y0039100D01*
X0028200Y0039100D02*
X0024200Y0043100D01*
X0024200Y0035100D01*
X0028200Y0039100D01*
X0016000Y0048800D02*
X0020000Y0048800D01*
X0016000Y0048800D02*
X0012000Y0052800D01*
X0012000Y0044800D01*
X0016000Y0048800D01*
X0057000Y0038500D02*
X0061000Y0038500D01*
X0057000Y0038500D02*
X0053000Y0042500D01*
X0053000Y0034500D01*
X0057000Y0038500D01*
X0069300Y0038500D02*
X0073300Y0038500D01*
X0069300Y0038500D02*
X0065300Y0042500D01*
X0065300Y0034500D01*
X0069300Y0038500D01*
X0074200Y0038500D02*
X0078200Y0038500D01*
X0074200Y0038500D02*
X0070200Y0042500D01*
X0070200Y0034500D01*
X0074200Y0038500D01*
X0093000Y0035600D02*
X0097000Y0035600D01*
X0093000Y0035600D02*
X0089000Y0039600D01*
X0089000Y0031600D01*
X0093000Y0035600D01*
X0101000Y0036400D02*
X0105000Y0036400D01*
X0101000Y0036400D02*
X0097000Y0040400D01*
X0097000Y0032400D01*
X0101000Y0036400D01*
X0105420Y0041650D02*
X0109420Y0041650D01*
X0105420Y0041650D02*
X0101420Y0045650D01*
X0101420Y0037650D01*
X0105420Y0041650D01*
X0105420Y0046570D02*
X0109420Y0046570D01*
X0105420Y0046570D02*
X0101420Y0050570D01*
X0101420Y0042570D01*
X0105420Y0046570D01*
X0095400Y0050200D02*
X0099400Y0050200D01*
X0095400Y0050200D02*
X0091400Y0054200D01*
X0091400Y0046200D01*
X0095400Y0050200D01*
X0091800Y0052700D02*
X0095800Y0052700D01*
X0091800Y0052700D02*
X0087800Y0056700D01*
X0087800Y0048700D01*
X0091800Y0052700D01*
X0088600Y0049700D02*
X0092600Y0049700D01*
X0088600Y0049700D02*
X0084600Y0053700D01*
X0084600Y0045700D01*
X0088600Y0049700D01*
X0100600Y0054100D02*
X0104600Y0054100D01*
X0100600Y0054100D02*
X0096600Y0058100D01*
X0096600Y0050100D01*
X0100600Y0054100D01*
X0104830Y0054050D02*
X0108830Y0054050D01*
X0104830Y0054050D02*
X0100830Y0058050D01*
X0100830Y0050050D01*
X0104830Y0054050D01*
X0121660Y0062810D02*
X0125660Y0062810D01*
X0121660Y0062810D02*
X0117660Y0066810D01*
X0117660Y0058810D01*
X0121660Y0062810D01*
X0116500Y0069800D02*
X0120500Y0069800D01*
X0116500Y0069800D02*
X0112500Y0073800D01*
X0112500Y0065800D01*
X0116500Y0069800D01*
X0136400Y0055200D02*
X0140400Y0055200D01*
X0136400Y0055200D02*
X0132400Y0059200D01*
X0132400Y0051200D01*
X0136400Y0055200D01*
X0141200Y0055200D02*
X0145200Y0055200D01*
X0141200Y0055200D02*
X0137200Y0059200D01*
X0137200Y0051200D01*
X0141200Y0055200D01*
X0130420Y0051290D02*
X0134420Y0051290D01*
X0130420Y0051290D02*
X0126420Y0055290D01*
X0126420Y0047290D01*
X0130420Y0051290D01*
X0125500Y0051290D02*
X0129500Y0051290D01*
X0125500Y0051290D02*
X0121500Y0055290D01*
X0121500Y0047290D01*
X0125500Y0051290D01*
X0130500Y0040100D02*
X0134500Y0040100D01*
X0130500Y0040100D02*
X0126500Y0044100D01*
X0126500Y0036100D01*
X0130500Y0040100D01*
X0149200Y0037100D02*
X0153200Y0037100D01*
X0149200Y0037100D02*
X0145200Y0041100D01*
X0145200Y0033100D01*
X0149200Y0037100D01*
X0157100Y0045500D02*
X0161100Y0045500D01*
X0157100Y0045500D02*
X0153100Y0049500D01*
X0153100Y0041500D01*
X0157100Y0045500D01*
X0171400Y0040200D02*
X0175400Y0040200D01*
X0171400Y0040200D02*
X0167400Y0044200D01*
X0167400Y0036200D01*
X0171400Y0040200D01*
X0173300Y0053100D02*
X0177300Y0053100D01*
X0173300Y0053100D02*
X0169300Y0057100D01*
X0169300Y0049100D01*
X0173300Y0053100D01*
X0155600Y0056100D02*
X0159600Y0056100D01*
X0155600Y0056100D02*
X0151600Y0060100D01*
X0151600Y0052100D01*
X0155600Y0056100D01*
X0174710Y0064280D02*
X0178710Y0064280D01*
X0174710Y0064280D02*
X0170710Y0068280D01*
X0170710Y0060280D01*
X0174710Y0064280D01*
X0195400Y0065900D02*
X0199400Y0065900D01*
X0195400Y0065900D02*
X0191400Y0069900D01*
X0191400Y0061900D01*
X0195400Y0065900D01*
X0170100Y0027000D02*
X0174100Y0027000D01*
X0170100Y0027000D02*
X0166100Y0031000D01*
X0166100Y0023000D01*
X0170100Y0027000D01*
X0161500Y0027100D02*
X0165500Y0027100D01*
X0161500Y0027100D02*
X0157500Y0031100D01*
X0157500Y0023100D01*
X0161500Y0027100D01*
X0132000Y0022000D02*
X0136000Y0022000D01*
X0132000Y0022000D02*
X0128000Y0026000D01*
X0128000Y0018000D01*
X0132000Y0022000D01*
X0098500Y0024500D02*
X0102500Y0024500D01*
X0098500Y0024500D02*
X0094500Y0028500D01*
X0094500Y0020500D01*
X0098500Y0024500D01*
X0206200Y0018500D02*
X0210200Y0018500D01*
X0206200Y0018500D02*
X0202200Y0022500D01*
X0202200Y0014500D01*
X0206200Y0018500D01*
X0209100Y0022300D02*
X0213100Y0022300D01*
X0209100Y0022300D02*
X0205100Y0026300D01*
X0205100Y0018300D01*
X0209100Y0022300D01*
X0036600Y0113200D02*
X0040600Y0113200D01*
X0036600Y0113200D02*
X0032600Y0117200D01*
X0032600Y0109200D01*
X0036600Y0113200D01*
X0028200Y0113400D02*
X0032200Y0113400D01*
X0028200Y0113400D02*
X0024200Y0117400D01*
X0024200Y0109400D01*
X0028200Y0113400D01*
X0016000Y0123100D02*
X0020000Y0123100D01*
X0016000Y0123100D02*
X0012000Y0127100D01*
X0012000Y0119100D01*
X0016000Y0123100D01*
X0057000Y0112800D02*
X0061000Y0112800D01*
X0057000Y0112800D02*
X0053000Y0116800D01*
X0053000Y0108800D01*
X0057000Y0112800D01*
X0069300Y0112800D02*
X0073300Y0112800D01*
X0069300Y0112800D02*
X0065300Y0116800D01*
X0065300Y0108800D01*
X0069300Y0112800D01*
X0074200Y0112800D02*
X0078200Y0112800D01*
X0074200Y0112800D02*
X0070200Y0116800D01*
X0070200Y0108800D01*
X0074200Y0112800D01*
X0093000Y0109900D02*
X0097000Y0109900D01*
X0093000Y0109900D02*
X0089000Y0113900D01*
X0089000Y0105900D01*
X0093000Y0109900D01*
X0101000Y0110700D02*
X0105000Y0110700D01*
X0101000Y0110700D02*
X0097000Y0114700D01*
X0097000Y0106700D01*
X0101000Y0110700D01*
X0105420Y0115950D02*
X0109420Y0115950D01*
X0105420Y0115950D02*
X0101420Y0119950D01*
X0101420Y0111950D01*
X0105420Y0115950D01*
X0105420Y0120870D02*
X0109420Y0120870D01*
X0105420Y0120870D02*
X0101420Y0124870D01*
X0101420Y0116870D01*
X0105420Y0120870D01*
X0095400Y0124500D02*
X0099400Y0124500D01*
X0095400Y0124500D02*
X0091400Y0128500D01*
X0091400Y0120500D01*
X0095400Y0124500D01*
X0091800Y0127000D02*
X0095800Y0127000D01*
X0091800Y0127000D02*
X0087800Y0131000D01*
X0087800Y0123000D01*
X0091800Y0127000D01*
X0088600Y0124000D02*
X0092600Y0124000D01*
X0088600Y0124000D02*
X0084600Y0128000D01*
X0084600Y0120000D01*
X0088600Y0124000D01*
X0100600Y0128400D02*
X0104600Y0128400D01*
X0100600Y0128400D02*
X0096600Y0132400D01*
X0096600Y0124400D01*
X0100600Y0128400D01*
X0104830Y0128350D02*
X0108830Y0128350D01*
X0104830Y0128350D02*
X0100830Y0132350D01*
X0100830Y0124350D01*
X0104830Y0128350D01*
X0121660Y0137110D02*
X0125660Y0137110D01*
X0121660Y0137110D02*
X0117660Y0141110D01*
X0117660Y0133110D01*
X0121660Y0137110D01*
X0116500Y0144100D02*
X0120500Y0144100D01*
X0116500Y0144100D02*
X0112500Y0148100D01*
X0112500Y0140100D01*
X0116500Y0144100D01*
X0136400Y0129500D02*
X0140400Y0129500D01*
X0136400Y0129500D02*
X0132400Y0133500D01*
X0132400Y0125500D01*
X0136400Y0129500D01*
X0141200Y0129500D02*
X0145200Y0129500D01*
X0141200Y0129500D02*
X0137200Y0133500D01*
X0137200Y0125500D01*
X0141200Y0129500D01*
X0130420Y0125590D02*
X0134420Y0125590D01*
X0130420Y0125590D02*
X0126420Y0129590D01*
X0126420Y0121590D01*
X0130420Y0125590D01*
X0125500Y0125590D02*
X0129500Y0125590D01*
X0125500Y0125590D02*
X0121500Y0129590D01*
X0121500Y0121590D01*
X0125500Y0125590D01*
X0130500Y0114400D02*
X0134500Y0114400D01*
X0130500Y0114400D02*
X0126500Y0118400D01*
X0126500Y0110400D01*
X0130500Y0114400D01*
X0149200Y0111400D02*
X0153200Y0111400D01*
X0149200Y0111400D02*
X0145200Y0115400D01*
X0145200Y0107400D01*
X0149200Y0111400D01*
X0157100Y0119800D02*
X0161100Y0119800D01*
X0157100Y0119800D02*
X0153100Y0123800D01*
X0153100Y0115800D01*
X0157100Y0119800D01*
X0171400Y0114500D02*
X0175400Y0114500D01*
X0171400Y0114500D02*
X0167400Y0118500D01*
X0167400Y0110500D01*
X0171400Y0114500D01*
X0173300Y0127400D02*
X0177300Y0127400D01*
X0173300Y0127400D02*
X0169300Y0131400D01*
X0169300Y0123400D01*
X0173300Y0127400D01*
X0155600Y0130400D02*
X0159600Y0130400D01*
X0155600Y0130400D02*
X0151600Y0134400D01*
X0151600Y0126400D01*
X0155600Y0130400D01*
X0174710Y0138580D02*
X0178710Y0138580D01*
X0174710Y0138580D02*
X0170710Y0142580D01*
X0170710Y0134580D01*
X0174710Y0138580D01*
X0195400Y0140200D02*
X0199400Y0140200D01*
X0195400Y0140200D02*
X0191400Y0144200D01*
X0191400Y0136200D01*
X0195400Y0140200D01*
X0170100Y0101300D02*
X0174100Y0101300D01*
X0170100Y0101300D02*
X0166100Y0105300D01*
X0166100Y0097300D01*
X0170100Y0101300D01*
X0161500Y0101400D02*
X0165500Y0101400D01*
X0161500Y0101400D02*
X0157500Y0105400D01*
X0157500Y0097400D01*
X0161500Y0101400D01*
X0132000Y0096300D02*
X0136000Y0096300D01*
X0132000Y0096300D02*
X0128000Y0100300D01*
X0128000Y0092300D01*
X0132000Y0096300D01*
X0098500Y0098800D02*
X0102500Y0098800D01*
X0098500Y0098800D02*
X0094500Y0102800D01*
X0094500Y0094800D01*
X0098500Y0098800D01*
X0206200Y0092800D02*
X0210200Y0092800D01*
X0206200Y0092800D02*
X0202200Y0096800D01*
X0202200Y0088800D01*
X0206200Y0092800D01*
X0209100Y0096600D02*
X0213100Y0096600D01*
X0209100Y0096600D02*
X0205100Y0100600D01*
X0205100Y0092600D01*
X0209100Y0096600D01*
X0036600Y0187500D02*
X0040600Y0187500D01*
X0036600Y0187500D02*
X0032600Y0191500D01*
X0032600Y0183500D01*
X0036600Y0187500D01*
X0028200Y0187700D02*
X0032200Y0187700D01*
X0028200Y0187700D02*
X0024200Y0191700D01*
X0024200Y0183700D01*
X0028200Y0187700D01*
X0016000Y0197400D02*
X0020000Y0197400D01*
X0016000Y0197400D02*
X0012000Y0201400D01*
X0012000Y0193400D01*
X0016000Y0197400D01*
X0057000Y0187100D02*
X0061000Y0187100D01*
X0057000Y0187100D02*
X0053000Y0191100D01*
X0053000Y0183100D01*
X0057000Y0187100D01*
X0069300Y0187100D02*
X0073300Y0187100D01*
X0069300Y0187100D02*
X0065300Y0191100D01*
X0065300Y0183100D01*
X0069300Y0187100D01*
X0074200Y0187100D02*
X0078200Y0187100D01*
X0074200Y0187100D02*
X0070200Y0191100D01*
X0070200Y0183100D01*
X0074200Y0187100D01*
X0093000Y0184200D02*
X0097000Y0184200D01*
X0093000Y0184200D02*
X0089000Y0188200D01*
X0089000Y0180200D01*
X0093000Y0184200D01*
X0101000Y0185000D02*
X0105000Y0185000D01*
X0101000Y0185000D02*
X0097000Y0189000D01*
X0097000Y0181000D01*
X0101000Y0185000D01*
X0105420Y0190250D02*
X0109420Y0190250D01*
X0105420Y0190250D02*
X0101420Y0194250D01*
X0101420Y0186250D01*
X0105420Y0190250D01*
X0105420Y0195170D02*
X0109420Y0195170D01*
X0105420Y0195170D02*
X0101420Y0199170D01*
X0101420Y0191170D01*
X0105420Y0195170D01*
X0095400Y0198800D02*
X0099400Y0198800D01*
X0095400Y0198800D02*
X0091400Y0202800D01*
X0091400Y0194800D01*
X0095400Y0198800D01*
X0091800Y0201300D02*
X0095800Y0201300D01*
X0091800Y0201300D02*
X0087800Y0205300D01*
X0087800Y0197300D01*
X0091800Y0201300D01*
X0088600Y0198300D02*
X0092600Y0198300D01*
X0088600Y0198300D02*
X0084600Y0202300D01*
X0084600Y0194300D01*
X0088600Y0198300D01*
X0100600Y0202700D02*
X0104600Y0202700D01*
X0100600Y0202700D02*
X0096600Y0206700D01*
X0096600Y0198700D01*
X0100600Y0202700D01*
X0104830Y0202650D02*
X0108830Y0202650D01*
X0104830Y0202650D02*
X0100830Y0206650D01*
X0100830Y0198650D01*
X0104830Y0202650D01*
X0121660Y0211410D02*
X0125660Y0211410D01*
X0121660Y0211410D02*
X0117660Y0215410D01*
X0117660Y0207410D01*
X0121660Y0211410D01*
X0116500Y0218400D02*
X0120500Y0218400D01*
X0116500Y0218400D02*
X0112500Y0222400D01*
X0112500Y0214400D01*
X0116500Y0218400D01*
X0136400Y0203800D02*
X0140400Y0203800D01*
X0136400Y0203800D02*
X0132400Y0207800D01*
X0132400Y0199800D01*
X0136400Y0203800D01*
X0141200Y0203800D02*
X0145200Y0203800D01*
X0141200Y0203800D02*
X0137200Y0207800D01*
X0137200Y0199800D01*
X0141200Y0203800D01*
X0130420Y0199890D02*
X0134420Y0199890D01*
X0130420Y0199890D02*
X0126420Y0203890D01*
X0126420Y0195890D01*
X0130420Y0199890D01*
X0125500Y0199890D02*
X0129500Y0199890D01*
X0125500Y0199890D02*
X0121500Y0203890D01*
X0121500Y0195890D01*
X0125500Y0199890D01*
X0130500Y0188700D02*
X0134500Y0188700D01*
X0130500Y0188700D02*
X0126500Y0192700D01*
X0126500Y0184700D01*
X0130500Y0188700D01*
X0149200Y0185700D02*
X0153200Y0185700D01*
X0149200Y0185700D02*
X0145200Y0189700D01*
X0145200Y0181700D01*
X0149200Y0185700D01*
X0157100Y0194100D02*
X0161100Y0194100D01*
X0157100Y0194100D02*
X0153100Y0198100D01*
X0153100Y0190100D01*
X0157100Y0194100D01*
X0171400Y0188800D02*
X0175400Y0188800D01*
X0171400Y0188800D02*
X0167400Y0192800D01*
X0167400Y0184800D01*
X0171400Y0188800D01*
X0173300Y0201700D02*
X0177300Y0201700D01*
X0173300Y0201700D02*
X0169300Y0205700D01*
X0169300Y0197700D01*
X0173300Y0201700D01*
X0155600Y0204700D02*
X0159600Y0204700D01*
X0155600Y0204700D02*
X0151600Y0208700D01*
X0151600Y0200700D01*
X0155600Y0204700D01*
X0174710Y0212880D02*
X0178710Y0212880D01*
X0174710Y0212880D02*
X0170710Y0216880D01*
X0170710Y0208880D01*
X0174710Y0212880D01*
X0195400Y0214500D02*
X0199400Y0214500D01*
X0195400Y0214500D02*
X0191400Y0218500D01*
X0191400Y0210500D01*
X0195400Y0214500D01*
X0170100Y0175600D02*
X0174100Y0175600D01*
X0170100Y0175600D02*
X0166100Y0179600D01*
X0166100Y0171600D01*
X0170100Y0175600D01*
X0161500Y0175700D02*
X0165500Y0175700D01*
X0161500Y0175700D02*
X0157500Y0179700D01*
X0157500Y0171700D01*
X0161500Y0175700D01*
X0132000Y0170600D02*
X0136000Y0170600D01*
X0132000Y0170600D02*
X0128000Y0174600D01*
X0128000Y0166600D01*
X0132000Y0170600D01*
X0098500Y0173100D02*
X0102500Y0173100D01*
X0098500Y0173100D02*
X0094500Y0177100D01*
X0094500Y0169100D01*
X0098500Y0173100D01*
X0206200Y0167100D02*
X0210200Y0167100D01*
X0206200Y0167100D02*
X0202200Y0171100D01*
X0202200Y0163100D01*
X0206200Y0167100D01*
X0209100Y0170900D02*
X0213100Y0170900D01*
X0209100Y0170900D02*
X0205100Y0174900D01*
X0205100Y0166900D01*
X0209100Y0170900D01*
X0036600Y0261800D02*
X0040600Y0261800D01*
X0036600Y0261800D02*
X0032600Y0265800D01*
X0032600Y0257800D01*
X0036600Y0261800D01*
X0028200Y0262000D02*
X0032200Y0262000D01*
X0028200Y0262000D02*
X0024200Y0266000D01*
X0024200Y0258000D01*
X0028200Y0262000D01*
X0016000Y0271700D02*
X0020000Y0271700D01*
X0016000Y0271700D02*
X0012000Y0275700D01*
X0012000Y0267700D01*
X0016000Y0271700D01*
X0057000Y0261400D02*
X0061000Y0261400D01*
X0057000Y0261400D02*
X0053000Y0265400D01*
X0053000Y0257400D01*
X0057000Y0261400D01*
X0069300Y0261400D02*
X0073300Y0261400D01*
X0069300Y0261400D02*
X0065300Y0265400D01*
X0065300Y0257400D01*
X0069300Y0261400D01*
X0074200Y0261400D02*
X0078200Y0261400D01*
X0074200Y0261400D02*
X0070200Y0265400D01*
X0070200Y0257400D01*
X0074200Y0261400D01*
X0093000Y0258500D02*
X0097000Y0258500D01*
X0093000Y0258500D02*
X0089000Y0262500D01*
X0089000Y0254500D01*
X0093000Y0258500D01*
X0101000Y0259300D02*
X0105000Y0259300D01*
X0101000Y0259300D02*
X0097000Y0263300D01*
X0097000Y0255300D01*
X0101000Y0259300D01*
X0105420Y0264550D02*
X0109420Y0264550D01*
X0105420Y0264550D02*
X0101420Y0268550D01*
X0101420Y0260550D01*
X0105420Y0264550D01*
X0105420Y0269470D02*
X0109420Y0269470D01*
X0105420Y0269470D02*
X0101420Y0273470D01*
X0101420Y0265470D01*
X0105420Y0269470D01*
X0095400Y0273100D02*
X0099400Y0273100D01*
X0095400Y0273100D02*
X0091400Y0277100D01*
X0091400Y0269100D01*
X0095400Y0273100D01*
X0091800Y0275600D02*
X0095800Y0275600D01*
X0091800Y0275600D02*
X0087800Y0279600D01*
X0087800Y0271600D01*
X0091800Y0275600D01*
X0088600Y0272600D02*
X0092600Y0272600D01*
X0088600Y0272600D02*
X0084600Y0276600D01*
X0084600Y0268600D01*
X0088600Y0272600D01*
X0100600Y0277000D02*
X0104600Y0277000D01*
X0100600Y0277000D02*
X0096600Y0281000D01*
X0096600Y0273000D01*
X0100600Y0277000D01*
X0104830Y0276950D02*
X0108830Y0276950D01*
X0104830Y0276950D02*
X0100830Y0280950D01*
X0100830Y0272950D01*
X0104830Y0276950D01*
X0121660Y0285710D02*
X0125660Y0285710D01*
X0121660Y0285710D02*
X0117660Y0289710D01*
X0117660Y0281710D01*
X0121660Y0285710D01*
X0116500Y0292700D02*
X0120500Y0292700D01*
X0116500Y0292700D02*
X0112500Y0296700D01*
X0112500Y0288700D01*
X0116500Y0292700D01*
X0136400Y0278100D02*
X0140400Y0278100D01*
X0136400Y0278100D02*
X0132400Y0282100D01*
X0132400Y0274100D01*
X0136400Y0278100D01*
X0141200Y0278100D02*
X0145200Y0278100D01*
X0141200Y0278100D02*
X0137200Y0282100D01*
X0137200Y0274100D01*
X0141200Y0278100D01*
X0130420Y0274190D02*
X0134420Y0274190D01*
X0130420Y0274190D02*
X0126420Y0278190D01*
X0126420Y0270190D01*
X0130420Y0274190D01*
X0125500Y0274190D02*
X0129500Y0274190D01*
X0125500Y0274190D02*
X0121500Y0278190D01*
X0121500Y0270190D01*
X0125500Y0274190D01*
X0130500Y0263000D02*
X0134500Y0263000D01*
X0130500Y0263000D02*
X0126500Y0267000D01*
X0126500Y0259000D01*
X0130500Y0263000D01*
X0149200Y0260000D02*
X0153200Y0260000D01*
X0149200Y0260000D02*
X0145200Y0264000D01*
X0145200Y0256000D01*
X0149200Y0260000D01*
X0157100Y0268400D02*
X0161100Y0268400D01*
X0157100Y0268400D02*
X0153100Y0272400D01*
X0153100Y0264400D01*
X0157100Y0268400D01*
X0171400Y0263100D02*
X0175400Y0263100D01*
X0171400Y0263100D02*
X0167400Y0267100D01*
X0167400Y0259100D01*
X0171400Y0263100D01*
X0173300Y0276000D02*
X0177300Y0276000D01*
X0173300Y0276000D02*
X0169300Y0280000D01*
X0169300Y0272000D01*
X0173300Y0276000D01*
X0155600Y0279000D02*
X0159600Y0279000D01*
X0155600Y0279000D02*
X0151600Y0283000D01*
X0151600Y0275000D01*
X0155600Y0279000D01*
X0174710Y0287180D02*
X0178710Y0287180D01*
X0174710Y0287180D02*
X0170710Y0291180D01*
X0170710Y0283180D01*
X0174710Y0287180D01*
X0195400Y0288800D02*
X0199400Y0288800D01*
X0195400Y0288800D02*
X0191400Y0292800D01*
X0191400Y0284800D01*
X0195400Y0288800D01*
X0170100Y0249900D02*
X0174100Y0249900D01*
X0170100Y0249900D02*
X0166100Y0253900D01*
X0166100Y0245900D01*
X0170100Y0249900D01*
X0161500Y0250000D02*
X0165500Y0250000D01*
X0161500Y0250000D02*
X0157500Y0254000D01*
X0157500Y0246000D01*
X0161500Y0250000D01*
X0132000Y0244900D02*
X0136000Y0244900D01*
X0132000Y0244900D02*
X0128000Y0248900D01*
X0128000Y0240900D01*
X0132000Y0244900D01*
X0098500Y0247400D02*
X0102500Y0247400D01*
X0098500Y0247400D02*
X0094500Y0251400D01*
X0094500Y0243400D01*
X0098500Y0247400D01*
X0206200Y0241400D02*
X0210200Y0241400D01*
X0206200Y0241400D02*
X0202200Y0245400D01*
X0202200Y0237400D01*
X0206200Y0241400D01*
X0209100Y0245200D02*
X0213100Y0245200D01*
X0209100Y0245200D02*
X0205100Y0249200D01*
X0205100Y0241200D01*
X0209100Y0245200D01*
X0010000Y0010000D02*
X0214000Y0010000D01*
X0214000Y0306900D01*
X0010000Y0306900D01*
X0010000Y0010000D01*
X0260000Y0009500D02*
X0268000Y0017500D01*
X0268000Y0009500D02*
X0260000Y0017500D01*
X0260000Y0013500D02*
X0268000Y0013500D01*
X0275500Y0010000D02*
X0274500Y0011000D01*
X0278500Y0015000D01*
X0278500Y0011000D01*
X0277500Y0010000D01*
X0275500Y0010000D01*
X0274500Y0011000D02*
X0274500Y0015000D01*
X0275500Y0016000D01*
X0277500Y0016000D01*
X0278500Y0015000D01*
X0282000Y0011000D02*
X0283000Y0011000D01*
X0283000Y0010000D01*
X0282000Y0010000D01*
X0282000Y0011000D01*
X0287500Y0010000D02*
X0286500Y0011000D01*
X0290500Y0015000D01*
X0290500Y0011000D01*
X0289500Y0010000D01*
X0287500Y0010000D01*
X0286500Y0011000D02*
X0286500Y0015000D01*
X0287500Y0016000D01*
X0289500Y0016000D01*
X0290500Y0015000D01*
X0292500Y0013000D02*
X0296500Y0013000D01*
X0295500Y0010000D02*
X0295500Y0016000D01*
X0292500Y0013000D01*
X0299500Y0010000D02*
X0298500Y0011000D01*
X0302500Y0015000D01*
X0302500Y0011000D01*
X0301500Y0010000D01*
X0299500Y0010000D01*
X0298500Y0011000D02*
X0298500Y0015000D01*
X0299500Y0016000D01*
X0301500Y0016000D01*
X0302500Y0015000D01*
X0308000Y0015000D02*
X0307000Y0014000D01*
X0308000Y0015000D02*
X0308000Y0017000D01*
X0306000Y0017000D02*
X0306000Y0015000D01*
X0305000Y0014000D01*
X0264000Y0024000D02*
X0260000Y0024000D01*
X0264000Y0024000D02*
X0268000Y0028000D01*
X0268000Y0020000D01*
X0264000Y0024000D01*
X0275500Y0020500D02*
X0274500Y0021500D01*
X0278500Y0025500D01*
X0278500Y0021500D01*
X0277500Y0020500D01*
X0275500Y0020500D01*
X0274500Y0021500D02*
X0274500Y0025500D01*
X0275500Y0026500D01*
X0277500Y0026500D01*
X0278500Y0025500D01*
X0282000Y0021500D02*
X0283000Y0021500D01*
X0283000Y0020500D01*
X0282000Y0020500D01*
X0282000Y0021500D01*
X0287500Y0020500D02*
X0286500Y0021500D01*
X0290500Y0025500D01*
X0290500Y0021500D01*
X0289500Y0020500D01*
X0287500Y0020500D01*
X0286500Y0021500D02*
X0286500Y0025500D01*
X0287500Y0026500D01*
X0289500Y0026500D01*
X0290500Y0025500D01*
X0292500Y0021500D02*
X0293500Y0020500D01*
X0295500Y0020500D01*
X0296500Y0021500D01*
X0296500Y0022500D01*
X0295500Y0023500D01*
X0294500Y0023500D01*
X0295500Y0023500D02*
X0296500Y0024500D01*
X0296500Y0025500D01*
X0295500Y0026500D01*
X0293500Y0026500D01*
X0292500Y0025500D01*
X0298500Y0023500D02*
X0300500Y0024500D01*
X0301500Y0024500D01*
X0302500Y0023500D01*
X0302500Y0021500D01*
X0301500Y0020500D01*
X0299500Y0020500D01*
X0298500Y0021500D01*
X0298500Y0023500D02*
X0298500Y0026500D01*
X0302500Y0026500D01*
X0308000Y0025500D02*
X0307000Y0024500D01*
X0308000Y0025500D02*
X0308000Y0027500D01*
X0306000Y0027500D02*
X0306000Y0025500D01*
X0305000Y0024500D01*
X0264000Y0034500D02*
X0268000Y0034500D01*
X0264000Y0034500D02*
X0260000Y0038500D01*
X0260000Y0030500D01*
X0264000Y0034500D01*
X0275500Y0031000D02*
X0274500Y0032000D01*
X0278500Y0036000D01*
X0278500Y0032000D01*
X0277500Y0031000D01*
X0275500Y0031000D01*
X0274500Y0032000D02*
X0274500Y0036000D01*
X0275500Y0037000D01*
X0277500Y0037000D01*
X0278500Y0036000D01*
X0282000Y0032000D02*
X0283000Y0032000D01*
X0283000Y0031000D01*
X0282000Y0031000D01*
X0282000Y0032000D01*
X0287500Y0031000D02*
X0286500Y0032000D01*
X0290500Y0036000D01*
X0290500Y0032000D01*
X0289500Y0031000D01*
X0287500Y0031000D01*
X0286500Y0032000D02*
X0286500Y0036000D01*
X0287500Y0037000D01*
X0289500Y0037000D01*
X0290500Y0036000D01*
X0293500Y0036000D02*
X0294500Y0037000D01*
X0294500Y0031000D01*
X0293500Y0031000D02*
X0295500Y0031000D01*
X0298500Y0031000D02*
X0302500Y0035000D01*
X0302500Y0036000D01*
X0301500Y0037000D01*
X0299500Y0037000D01*
X0298500Y0036000D01*
X0298500Y0031000D02*
X0302500Y0031000D01*
X0308000Y0036000D02*
X0307000Y0035000D01*
X0308000Y0036000D02*
X0308000Y0038000D01*
X0306000Y0038000D02*
X0306000Y0036000D01*
X0305000Y0035000D01*
X0010000Y0319400D02*
X0010000Y0334400D01*
X0017500Y0330650D02*
X0010000Y0326900D01*
X0017500Y0323150D01*
X0010000Y0326900D02*
X0022500Y0326900D01*
X0214000Y0334400D02*
X0214000Y0319400D01*
X0206500Y0323150D02*
X0214000Y0326900D01*
X0206500Y0330650D01*
X0214000Y0326900D02*
X0201500Y0326900D01*
X0226500Y0306900D02*
X0241500Y0306900D01*
X0237750Y0299400D02*
X0234000Y0306900D01*
X0230250Y0299400D01*
X0234000Y0306900D02*
X0234000Y0294400D01*
X0241500Y0010000D02*
X0226500Y0010000D01*
X0230250Y0017500D02*
X0234000Y0010000D01*
X0237750Y0017500D01*
X0234000Y0010000D02*
X0234000Y0022500D01*
X0105000Y0323400D02*
X0109000Y0327400D01*
X0109000Y0328400D01*
X0108000Y0329400D01*
X0106000Y0329400D01*
X0105000Y0328400D01*
X0105000Y0323400D02*
X0109000Y0323400D01*
X0112500Y0324400D02*
X0113500Y0324400D01*
X0113500Y0323400D01*
X0112500Y0323400D01*
X0112500Y0324400D01*
X0118000Y0323400D02*
X0117000Y0324400D01*
X0121000Y0328400D01*
X0121000Y0324400D01*
X0120000Y0323400D01*
X0118000Y0323400D01*
X0117000Y0324400D02*
X0117000Y0328400D01*
X0118000Y0329400D01*
X0120000Y0329400D01*
X0121000Y0328400D01*
X0123000Y0326400D02*
X0127000Y0326400D01*
X0126000Y0323400D02*
X0126000Y0329400D01*
X0123000Y0326400D01*
X0130000Y0323400D02*
X0129000Y0324400D01*
X0133000Y0328400D01*
X0133000Y0324400D01*
X0132000Y0323400D01*
X0130000Y0323400D01*
X0129000Y0324400D02*
X0129000Y0328400D01*
X0130000Y0329400D01*
X0132000Y0329400D01*
X0133000Y0328400D01*
X0138500Y0328400D02*
X0137500Y0327400D01*
X0138500Y0328400D02*
X0138500Y0330400D01*
X0136500Y0330400D02*
X0136500Y0328400D01*
X0135500Y0327400D01*
X0010000Y0326900D02*
X0094500Y0326900D01*
X0149500Y0326900D02*
X0214000Y0326900D01*
X0230500Y0185450D02*
X0234500Y0181450D01*
X0235500Y0181450D01*
X0236500Y0182450D01*
X0236500Y0184450D01*
X0235500Y0185450D01*
X0230500Y0185450D02*
X0230500Y0181450D01*
X0231500Y0177950D02*
X0231500Y0176950D01*
X0230500Y0176950D01*
X0230500Y0177950D01*
X0231500Y0177950D01*
X0234500Y0173450D02*
X0233500Y0172450D01*
X0233500Y0169450D01*
X0231500Y0169450D02*
X0235500Y0169450D01*
X0236500Y0170450D01*
X0236500Y0172450D01*
X0235500Y0173450D01*
X0234500Y0173450D01*
X0231500Y0173450D02*
X0230500Y0172450D01*
X0230500Y0170450D01*
X0231500Y0169450D01*
X0233500Y0167450D02*
X0231500Y0167450D01*
X0230500Y0166450D01*
X0230500Y0164450D01*
X0231500Y0163450D01*
X0232500Y0163450D01*
X0233500Y0164450D01*
X0233500Y0167450D01*
X0235500Y0165450D01*
X0236500Y0163450D01*
X0234500Y0161450D02*
X0233500Y0160450D01*
X0233500Y0157450D01*
X0231500Y0157450D02*
X0235500Y0157450D01*
X0236500Y0158450D01*
X0236500Y0160450D01*
X0235500Y0161450D01*
X0234500Y0161450D01*
X0231500Y0161450D02*
X0230500Y0160450D01*
X0230500Y0158450D01*
X0231500Y0157450D01*
X0235500Y0151950D02*
X0234500Y0152950D01*
X0235500Y0151950D02*
X0237500Y0151950D01*
X0237500Y0153950D02*
X0235500Y0153950D01*
X0234500Y0154950D01*
X0234000Y0306900D02*
X0234000Y0195950D01*
X0234000Y0140950D02*
X0234000Y0010000D01*
X0333500Y0013000D02*
X0329500Y0013000D01*
X0329500Y0015000D02*
X0333500Y0011000D01*
X0331500Y0011000D02*
X0331500Y0015000D01*
X0333500Y0015000D02*
X0329500Y0011000D01*
X0345500Y0016000D02*
X0345500Y0011000D01*
X0344500Y0010000D01*
X0342500Y0010000D01*
X0341500Y0011000D01*
X0341500Y0016000D01*
X0351500Y0014000D02*
X0348500Y0014000D01*
X0347500Y0013000D01*
X0348500Y0012000D01*
X0350500Y0012000D01*
X0351500Y0011000D01*
X0350500Y0010000D01*
X0347500Y0010000D01*
X0357500Y0013000D02*
X0357500Y0012000D01*
X0353500Y0012000D01*
X0353500Y0013000D02*
X0354500Y0014000D01*
X0356500Y0014000D01*
X0357500Y0013000D01*
X0356500Y0010000D02*
X0354500Y0010000D01*
X0353500Y0011000D01*
X0353500Y0013000D01*
X0365500Y0008000D02*
X0365500Y0014000D01*
X0368500Y0014000D01*
X0369500Y0013000D01*
X0369500Y0011000D01*
X0368500Y0010000D01*
X0365500Y0010000D01*
X0371500Y0013000D02*
X0375500Y0013000D01*
X0377500Y0014000D02*
X0381500Y0010000D01*
X0377500Y0010000D02*
X0381500Y0014000D01*
X0387500Y0010000D02*
X0387500Y0013000D01*
X0386500Y0014000D01*
X0385500Y0013000D01*
X0385500Y0010000D01*
X0385500Y0013000D02*
X0384500Y0014000D01*
X0383500Y0014000D01*
X0383500Y0010000D01*
X0393500Y0013000D02*
X0393500Y0012000D01*
X0389500Y0012000D01*
X0389500Y0013000D02*
X0390500Y0014000D01*
X0392500Y0014000D01*
X0393500Y0013000D01*
X0392500Y0010000D02*
X0390500Y0010000D01*
X0389500Y0011000D01*
X0389500Y0013000D01*
X0399500Y0010000D02*
X0396500Y0010000D01*
X0395500Y0011000D01*
X0395500Y0013000D01*
X0396500Y0014000D01*
X0399500Y0014000D01*
X0399500Y0009000D01*
X0398500Y0008000D01*
X0397500Y0008000D01*
X0405500Y0012000D02*
X0402500Y0012000D01*
X0401500Y0011000D01*
X0402500Y0010000D01*
X0405500Y0010000D01*
X0405500Y0013000D01*
X0404500Y0014000D01*
X0402500Y0014000D01*
X0407500Y0011000D02*
X0408500Y0010000D01*
X0410500Y0010000D01*
X0411500Y0011000D01*
X0411500Y0012000D01*
X0410500Y0013000D01*
X0409500Y0013000D01*
X0410500Y0013000D02*
X0411500Y0014000D01*
X0411500Y0015000D01*
X0410500Y0016000D01*
X0408500Y0016000D01*
X0407500Y0015000D01*
X0413500Y0010000D02*
X0417500Y0014000D01*
X0417500Y0015000D01*
X0416500Y0016000D01*
X0414500Y0016000D01*
X0413500Y0015000D01*
X0413500Y0010000D02*
X0417500Y0010000D01*
X0419500Y0010000D02*
X0419500Y0014000D01*
X0421500Y0016000D01*
X0423500Y0014000D01*
X0423500Y0010000D01*
X0423500Y0013000D02*
X0419500Y0013000D01*
X0425500Y0013000D02*
X0429500Y0013000D01*
X0428500Y0010000D02*
X0428500Y0016000D01*
X0425500Y0013000D01*
X0435500Y0016000D02*
X0435500Y0011000D01*
X0434500Y0010000D01*
X0432500Y0010000D01*
X0431500Y0011000D01*
X0431500Y0016000D01*
X0439000Y0011000D02*
X0440000Y0011000D01*
X0440000Y0010000D01*
X0439000Y0010000D01*
X0439000Y0011000D01*
X0443500Y0008000D02*
X0443500Y0014000D01*
X0446500Y0014000D01*
X0447500Y0013000D01*
X0447500Y0011000D01*
X0446500Y0010000D01*
X0443500Y0010000D01*
X0453500Y0012000D02*
X0450500Y0012000D01*
X0449500Y0011000D01*
X0450500Y0010000D01*
X0453500Y0010000D01*
X0453500Y0013000D01*
X0452500Y0014000D01*
X0450500Y0014000D01*
X0459500Y0010000D02*
X0459500Y0013000D01*
X0458500Y0014000D01*
X0455500Y0014000D01*
X0455500Y0010000D01*
X0465500Y0013000D02*
X0465500Y0012000D01*
X0461500Y0012000D01*
X0461500Y0013000D02*
X0462500Y0014000D01*
X0464500Y0014000D01*
X0465500Y0013000D01*
X0464500Y0010000D02*
X0462500Y0010000D01*
X0461500Y0011000D01*
X0461500Y0013000D01*
X0470500Y0010000D02*
X0468500Y0010000D01*
X0469500Y0010000D02*
X0469500Y0016000D01*
X0468500Y0016000D01*
X0477500Y0009000D02*
X0473500Y0009000D01*
X0483500Y0011000D02*
X0483500Y0013000D01*
X0482500Y0014000D01*
X0480500Y0014000D01*
X0479500Y0013000D01*
X0479500Y0011000D01*
X0480500Y0010000D01*
X0482500Y0010000D01*
X0483500Y0011000D01*
X0486500Y0010000D02*
X0489500Y0010000D01*
X0489500Y0014000D01*
X0485500Y0014000D02*
X0485500Y0011000D01*
X0486500Y0010000D01*
X0493500Y0015000D02*
X0493500Y0011000D01*
X0494500Y0010000D01*
X0494500Y0014000D02*
X0492500Y0014000D01*
X0500500Y0010000D02*
X0498500Y0010000D01*
X0499500Y0010000D02*
X0499500Y0016000D01*
X0498500Y0016000D01*
X0506500Y0010000D02*
X0504500Y0010000D01*
X0505500Y0010000D02*
X0505500Y0014000D01*
X0504500Y0014000D01*
X0505500Y0016000D02*
X0505500Y0017000D01*
X0513500Y0010000D02*
X0513500Y0013000D01*
X0512500Y0014000D01*
X0509500Y0014000D01*
X0509500Y0010000D01*
X0519500Y0013000D02*
X0519500Y0012000D01*
X0515500Y0012000D01*
X0515500Y0013000D02*
X0516500Y0014000D01*
X0518500Y0014000D01*
X0519500Y0013000D01*
X0518500Y0010000D02*
X0516500Y0010000D01*
X0515500Y0011000D01*
X0515500Y0013000D01*
X0523000Y0011000D02*
X0524000Y0011000D01*
X0524000Y0010000D01*
X0523000Y0010000D01*
X0523000Y0011000D01*
X0531500Y0010000D02*
X0528500Y0010000D01*
X0527500Y0011000D01*
X0527500Y0013000D01*
X0528500Y0014000D01*
X0531500Y0014000D01*
X0531500Y0009000D01*
X0530500Y0008000D01*
X0529500Y0008000D01*
X0537500Y0013000D02*
X0537500Y0012000D01*
X0533500Y0012000D01*
X0533500Y0013000D02*
X0534500Y0014000D01*
X0536500Y0014000D01*
X0537500Y0013000D01*
X0536500Y0010000D02*
X0534500Y0010000D01*
X0533500Y0011000D01*
X0533500Y0013000D01*
X0543000Y0014000D02*
X0542000Y0014000D01*
X0540000Y0012000D01*
X0540000Y0010000D02*
X0540000Y0014000D01*
X0555500Y0012000D02*
X0552500Y0012000D01*
X0551500Y0011000D01*
X0552500Y0010000D01*
X0555500Y0010000D01*
X0555500Y0013000D01*
X0554500Y0014000D01*
X0552500Y0014000D01*
X0561500Y0014000D02*
X0558500Y0014000D01*
X0557500Y0013000D01*
X0558500Y0012000D01*
X0560500Y0012000D01*
X0561500Y0011000D01*
X0560500Y0010000D01*
X0557500Y0010000D01*
X0573500Y0011000D02*
X0573500Y0013000D01*
X0572500Y0014000D01*
X0569500Y0014000D01*
X0569500Y0016000D02*
X0569500Y0010000D01*
X0572500Y0010000D01*
X0573500Y0011000D01*
X0579500Y0011000D02*
X0579500Y0013000D01*
X0578500Y0014000D01*
X0576500Y0014000D01*
X0575500Y0013000D01*
X0575500Y0011000D01*
X0576500Y0010000D01*
X0578500Y0010000D01*
X0579500Y0011000D01*
X0585500Y0012000D02*
X0582500Y0012000D01*
X0581500Y0011000D01*
X0582500Y0010000D01*
X0585500Y0010000D01*
X0585500Y0013000D01*
X0584500Y0014000D01*
X0582500Y0014000D01*
X0591000Y0014000D02*
X0590000Y0014000D01*
X0588000Y0012000D01*
X0588000Y0010000D02*
X0588000Y0014000D01*
X0597500Y0014000D02*
X0594500Y0014000D01*
X0593500Y0013000D01*
X0593500Y0011000D01*
X0594500Y0010000D01*
X0597500Y0010000D01*
X0597500Y0016000D01*
X0609500Y0011000D02*
X0609500Y0013000D01*
X0608500Y0014000D01*
X0606500Y0014000D01*
X0605500Y0013000D01*
X0605500Y0011000D01*
X0606500Y0010000D01*
X0608500Y0010000D01*
X0609500Y0011000D01*
X0612500Y0010000D02*
X0615500Y0010000D01*
X0615500Y0014000D01*
X0611500Y0014000D02*
X0611500Y0011000D01*
X0612500Y0010000D01*
X0619500Y0015000D02*
X0619500Y0011000D01*
X0620500Y0010000D01*
X0620500Y0014000D02*
X0618500Y0014000D01*
X0626500Y0010000D02*
X0624500Y0010000D01*
X0625500Y0010000D02*
X0625500Y0016000D01*
X0624500Y0016000D01*
X0632500Y0010000D02*
X0630500Y0010000D01*
X0631500Y0010000D02*
X0631500Y0014000D01*
X0630500Y0014000D01*
X0631500Y0016000D02*
X0631500Y0017000D01*
X0639500Y0010000D02*
X0639500Y0013000D01*
X0638500Y0014000D01*
X0635500Y0014000D01*
X0635500Y0010000D01*
X0645500Y0013000D02*
X0645500Y0012000D01*
X0641500Y0012000D01*
X0641500Y0013000D02*
X0642500Y0014000D01*
X0644500Y0014000D01*
X0645500Y0013000D01*
X0644500Y0010000D02*
X0642500Y0010000D01*
X0641500Y0011000D01*
X0641500Y0013000D01*
X0649000Y0011000D02*
X0650000Y0011000D01*
X0650000Y0010000D01*
X0649000Y0010000D01*
X0649000Y0011000D01*
X0333500Y0023500D02*
X0329500Y0023500D01*
X0329500Y0025500D02*
X0333500Y0021500D01*
X0331500Y0021500D02*
X0331500Y0025500D01*
X0333500Y0025500D02*
X0329500Y0021500D01*
X0341500Y0023500D02*
X0344500Y0023500D01*
X0345500Y0022500D01*
X0345500Y0021500D01*
X0344500Y0020500D01*
X0341500Y0020500D01*
X0341500Y0026500D01*
X0344500Y0026500D01*
X0345500Y0025500D01*
X0345500Y0024500D01*
X0344500Y0023500D01*
X0351500Y0021500D02*
X0351500Y0023500D01*
X0350500Y0024500D01*
X0348500Y0024500D01*
X0347500Y0023500D01*
X0347500Y0021500D01*
X0348500Y0020500D01*
X0350500Y0020500D01*
X0351500Y0021500D01*
X0357500Y0022500D02*
X0354500Y0022500D01*
X0353500Y0021500D01*
X0354500Y0020500D01*
X0357500Y0020500D01*
X0357500Y0023500D01*
X0356500Y0024500D01*
X0354500Y0024500D01*
X0363000Y0024500D02*
X0362000Y0024500D01*
X0360000Y0022500D01*
X0360000Y0020500D02*
X0360000Y0024500D01*
X0369500Y0024500D02*
X0366500Y0024500D01*
X0365500Y0023500D01*
X0365500Y0021500D01*
X0366500Y0020500D01*
X0369500Y0020500D01*
X0369500Y0026500D01*
X0379500Y0025500D02*
X0379500Y0021500D01*
X0380500Y0020500D01*
X0380500Y0024500D02*
X0378500Y0024500D01*
X0387500Y0023500D02*
X0387500Y0020500D01*
X0387500Y0023500D02*
X0386500Y0024500D01*
X0384500Y0024500D01*
X0383500Y0023500D01*
X0383500Y0026500D02*
X0383500Y0020500D01*
X0392500Y0020500D02*
X0390500Y0020500D01*
X0391500Y0020500D02*
X0391500Y0024500D01*
X0390500Y0024500D01*
X0391500Y0026500D02*
X0391500Y0027500D01*
X0399500Y0024500D02*
X0396500Y0024500D01*
X0395500Y0023500D01*
X0395500Y0021500D01*
X0396500Y0020500D01*
X0399500Y0020500D01*
X0405000Y0024500D02*
X0402000Y0022500D01*
X0405000Y0020500D01*
X0402000Y0020500D02*
X0402000Y0026500D01*
X0411500Y0020500D02*
X0411500Y0023500D01*
X0410500Y0024500D01*
X0407500Y0024500D01*
X0407500Y0020500D01*
X0417500Y0023500D02*
X0417500Y0022500D01*
X0413500Y0022500D01*
X0413500Y0023500D02*
X0414500Y0024500D01*
X0416500Y0024500D01*
X0417500Y0023500D01*
X0416500Y0020500D02*
X0414500Y0020500D01*
X0413500Y0021500D01*
X0413500Y0023500D01*
X0423500Y0024500D02*
X0420500Y0024500D01*
X0419500Y0023500D01*
X0420500Y0022500D01*
X0422500Y0022500D01*
X0423500Y0021500D01*
X0422500Y0020500D01*
X0419500Y0020500D01*
X0429500Y0024500D02*
X0426500Y0024500D01*
X0425500Y0023500D01*
X0426500Y0022500D01*
X0428500Y0022500D01*
X0429500Y0021500D01*
X0428500Y0020500D01*
X0425500Y0020500D01*
X0438500Y0025500D02*
X0439500Y0026500D01*
X0439500Y0020500D01*
X0438500Y0020500D02*
X0440500Y0020500D01*
X0445000Y0021500D02*
X0446000Y0021500D01*
X0446000Y0020500D01*
X0445000Y0020500D01*
X0445000Y0021500D01*
X0449500Y0023500D02*
X0449500Y0021500D01*
X0450500Y0020500D01*
X0452500Y0020500D01*
X0453500Y0021500D01*
X0453500Y0022500D01*
X0452500Y0023500D01*
X0449500Y0023500D01*
X0451500Y0025500D01*
X0453500Y0026500D01*
X0459500Y0020500D02*
X0459500Y0023500D01*
X0458500Y0024500D01*
X0457500Y0023500D01*
X0457500Y0020500D01*
X0457500Y0023500D02*
X0456500Y0024500D01*
X0455500Y0024500D01*
X0455500Y0020500D01*
X0465500Y0020500D02*
X0465500Y0023500D01*
X0464500Y0024500D01*
X0463500Y0023500D01*
X0463500Y0020500D01*
X0463500Y0023500D02*
X0462500Y0024500D01*
X0461500Y0024500D01*
X0461500Y0020500D01*
X0333500Y0034000D02*
X0329500Y0034000D01*
X0329500Y0036000D02*
X0333500Y0032000D01*
X0331500Y0032000D02*
X0331500Y0036000D01*
X0333500Y0036000D02*
X0329500Y0032000D01*
X0341500Y0037000D02*
X0341500Y0031000D01*
X0344500Y0031000D01*
X0345500Y0032000D01*
X0345500Y0036000D01*
X0344500Y0037000D01*
X0341500Y0037000D01*
X0351000Y0035000D02*
X0350000Y0035000D01*
X0348000Y0033000D01*
X0348000Y0031000D02*
X0348000Y0035000D01*
X0356500Y0031000D02*
X0354500Y0031000D01*
X0355500Y0031000D02*
X0355500Y0035000D01*
X0354500Y0035000D01*
X0355500Y0037000D02*
X0355500Y0038000D01*
X0362500Y0031000D02*
X0360500Y0031000D01*
X0361500Y0031000D02*
X0361500Y0037000D01*
X0360500Y0037000D01*
X0368500Y0031000D02*
X0366500Y0031000D01*
X0367500Y0031000D02*
X0367500Y0037000D01*
X0366500Y0037000D01*
X0375500Y0035000D02*
X0372500Y0035000D01*
X0371500Y0034000D01*
X0372500Y0033000D01*
X0374500Y0033000D01*
X0375500Y0032000D01*
X0374500Y0031000D01*
X0371500Y0031000D01*
X0387500Y0035000D02*
X0384500Y0035000D01*
X0383500Y0034000D01*
X0384500Y0033000D01*
X0386500Y0033000D01*
X0387500Y0032000D01*
X0386500Y0031000D01*
X0383500Y0031000D01*
X0393500Y0034000D02*
X0393500Y0031000D01*
X0393500Y0034000D02*
X0392500Y0035000D01*
X0390500Y0035000D01*
X0389500Y0034000D01*
X0389500Y0037000D02*
X0389500Y0031000D01*
X0399500Y0032000D02*
X0399500Y0034000D01*
X0398500Y0035000D01*
X0396500Y0035000D01*
X0395500Y0034000D01*
X0395500Y0032000D01*
X0396500Y0031000D01*
X0398500Y0031000D01*
X0399500Y0032000D01*
X0401500Y0035000D02*
X0401500Y0032000D01*
X0402500Y0031000D01*
X0403500Y0032000D01*
X0404500Y0031000D01*
X0405500Y0032000D01*
X0405500Y0035000D01*
X0411500Y0031000D02*
X0411500Y0034000D01*
X0410500Y0035000D01*
X0407500Y0035000D01*
X0407500Y0031000D01*
X0423500Y0033000D02*
X0420500Y0033000D01*
X0419500Y0032000D01*
X0420500Y0031000D01*
X0423500Y0031000D01*
X0423500Y0034000D01*
X0422500Y0035000D01*
X0420500Y0035000D01*
X0429500Y0035000D02*
X0426500Y0035000D01*
X0425500Y0034000D01*
X0426500Y0033000D01*
X0428500Y0033000D01*
X0429500Y0032000D01*
X0428500Y0031000D01*
X0425500Y0031000D01*
X0440500Y0034000D02*
X0438500Y0034000D01*
X0439500Y0036000D02*
X0439500Y0031000D01*
X0439500Y0036000D02*
X0440500Y0037000D01*
X0446500Y0031000D02*
X0444500Y0031000D01*
X0445500Y0031000D02*
X0445500Y0035000D01*
X0444500Y0035000D01*
X0445500Y0037000D02*
X0445500Y0038000D01*
X0453500Y0031000D02*
X0453500Y0034000D01*
X0452500Y0035000D01*
X0449500Y0035000D01*
X0449500Y0031000D01*
X0458500Y0031000D02*
X0456500Y0031000D01*
X0457500Y0031000D02*
X0457500Y0035000D01*
X0456500Y0035000D01*
X0457500Y0037000D02*
X0457500Y0038000D01*
X0465500Y0035000D02*
X0462500Y0035000D01*
X0461500Y0034000D01*
X0462500Y0033000D01*
X0464500Y0033000D01*
X0465500Y0032000D01*
X0464500Y0031000D01*
X0461500Y0031000D01*
X0471500Y0034000D02*
X0471500Y0031000D01*
X0471500Y0034000D02*
X0470500Y0035000D01*
X0468500Y0035000D01*
X0467500Y0034000D01*
X0467500Y0037000D02*
X0467500Y0031000D01*
X0477500Y0034000D02*
X0477500Y0033000D01*
X0473500Y0033000D01*
X0473500Y0034000D02*
X0474500Y0035000D01*
X0476500Y0035000D01*
X0477500Y0034000D01*
X0476500Y0031000D02*
X0474500Y0031000D01*
X0473500Y0032000D01*
X0473500Y0034000D01*
X0483500Y0035000D02*
X0480500Y0035000D01*
X0479500Y0034000D01*
X0479500Y0032000D01*
X0480500Y0031000D01*
X0483500Y0031000D01*
X0483500Y0037000D01*
X0495500Y0035000D02*
X0492500Y0035000D01*
X0491500Y0034000D01*
X0492500Y0033000D01*
X0494500Y0033000D01*
X0495500Y0032000D01*
X0494500Y0031000D01*
X0491500Y0031000D01*
X0500500Y0031000D02*
X0498500Y0031000D01*
X0499500Y0031000D02*
X0499500Y0035000D01*
X0498500Y0035000D01*
X0499500Y0037000D02*
X0499500Y0038000D01*
X0503500Y0035000D02*
X0507500Y0035000D01*
X0503500Y0031000D01*
X0507500Y0031000D01*
X0513500Y0034000D02*
X0513500Y0033000D01*
X0509500Y0033000D01*
X0509500Y0034000D02*
X0510500Y0035000D01*
X0512500Y0035000D01*
X0513500Y0034000D01*
X0512500Y0031000D02*
X0510500Y0031000D01*
X0509500Y0032000D01*
X0509500Y0034000D01*
X0519500Y0035000D02*
X0516500Y0035000D01*
X0515500Y0034000D01*
X0516500Y0033000D01*
X0518500Y0033000D01*
X0519500Y0032000D01*
X0518500Y0031000D01*
X0515500Y0031000D01*
X0333500Y0044500D02*
X0329500Y0044500D01*
X0329500Y0046500D02*
X0333500Y0042500D01*
X0331500Y0042500D02*
X0331500Y0046500D01*
X0333500Y0046500D02*
X0329500Y0042500D01*
X0341500Y0041500D02*
X0341500Y0045500D01*
X0343500Y0047500D01*
X0345500Y0045500D01*
X0345500Y0041500D01*
X0345500Y0044500D02*
X0341500Y0044500D01*
X0350500Y0041500D02*
X0348500Y0041500D01*
X0349500Y0041500D02*
X0349500Y0047500D01*
X0348500Y0047500D01*
X0356500Y0041500D02*
X0354500Y0041500D01*
X0355500Y0041500D02*
X0355500Y0047500D01*
X0354500Y0047500D01*
X0369500Y0044500D02*
X0369500Y0041500D01*
X0369500Y0044500D02*
X0368500Y0045500D01*
X0366500Y0045500D01*
X0365500Y0044500D01*
X0365500Y0047500D02*
X0365500Y0041500D01*
X0375500Y0042500D02*
X0375500Y0044500D01*
X0374500Y0045500D01*
X0372500Y0045500D01*
X0371500Y0044500D01*
X0371500Y0042500D01*
X0372500Y0041500D01*
X0374500Y0041500D01*
X0375500Y0042500D01*
X0380500Y0041500D02*
X0378500Y0041500D01*
X0379500Y0041500D02*
X0379500Y0047500D01*
X0378500Y0047500D01*
X0387500Y0044500D02*
X0387500Y0043500D01*
X0383500Y0043500D01*
X0383500Y0044500D02*
X0384500Y0045500D01*
X0386500Y0045500D01*
X0387500Y0044500D01*
X0386500Y0041500D02*
X0384500Y0041500D01*
X0383500Y0042500D01*
X0383500Y0044500D01*
X0393500Y0045500D02*
X0390500Y0045500D01*
X0389500Y0044500D01*
X0390500Y0043500D01*
X0392500Y0043500D01*
X0393500Y0042500D01*
X0392500Y0041500D01*
X0389500Y0041500D01*
X0401500Y0039500D02*
X0401500Y0045500D01*
X0404500Y0045500D01*
X0405500Y0044500D01*
X0405500Y0042500D01*
X0404500Y0041500D01*
X0401500Y0041500D01*
X0410500Y0041500D02*
X0408500Y0041500D01*
X0409500Y0041500D02*
X0409500Y0047500D01*
X0408500Y0047500D01*
X0417500Y0043500D02*
X0414500Y0043500D01*
X0413500Y0042500D01*
X0414500Y0041500D01*
X0417500Y0041500D01*
X0417500Y0044500D01*
X0416500Y0045500D01*
X0414500Y0045500D01*
X0421500Y0046500D02*
X0421500Y0042500D01*
X0422500Y0041500D01*
X0422500Y0045500D02*
X0420500Y0045500D01*
X0429500Y0044500D02*
X0429500Y0043500D01*
X0425500Y0043500D01*
X0425500Y0044500D02*
X0426500Y0045500D01*
X0428500Y0045500D01*
X0429500Y0044500D01*
X0428500Y0041500D02*
X0426500Y0041500D01*
X0425500Y0042500D01*
X0425500Y0044500D01*
X0435500Y0045500D02*
X0432500Y0045500D01*
X0431500Y0044500D01*
X0431500Y0042500D01*
X0432500Y0041500D01*
X0435500Y0041500D01*
X0435500Y0047500D01*
X0445500Y0046500D02*
X0445500Y0042500D01*
X0446500Y0041500D01*
X0446500Y0045500D02*
X0444500Y0045500D01*
X0453500Y0044500D02*
X0453500Y0041500D01*
X0453500Y0044500D02*
X0452500Y0045500D01*
X0450500Y0045500D01*
X0449500Y0044500D01*
X0449500Y0047500D02*
X0449500Y0041500D01*
X0459000Y0045500D02*
X0458000Y0045500D01*
X0456000Y0043500D01*
X0456000Y0041500D02*
X0456000Y0045500D01*
X0465500Y0042500D02*
X0465500Y0044500D01*
X0464500Y0045500D01*
X0462500Y0045500D01*
X0461500Y0044500D01*
X0461500Y0042500D01*
X0462500Y0041500D01*
X0464500Y0041500D01*
X0465500Y0042500D01*
X0468500Y0041500D02*
X0471500Y0041500D01*
X0471500Y0045500D01*
X0467500Y0045500D02*
X0467500Y0042500D01*
X0468500Y0041500D01*
X0477500Y0041500D02*
X0474500Y0041500D01*
X0473500Y0042500D01*
X0473500Y0044500D01*
X0474500Y0045500D01*
X0477500Y0045500D01*
X0477500Y0040500D01*
X0476500Y0039500D01*
X0475500Y0039500D01*
X0483500Y0044500D02*
X0483500Y0041500D01*
X0483500Y0044500D02*
X0482500Y0045500D01*
X0480500Y0045500D01*
X0479500Y0044500D01*
X0479500Y0047500D02*
X0479500Y0041500D01*
X0333500Y0055000D02*
X0329500Y0055000D01*
X0329500Y0057000D02*
X0333500Y0053000D01*
X0331500Y0053000D02*
X0331500Y0057000D01*
X0333500Y0057000D02*
X0329500Y0053000D01*
X0341500Y0055000D02*
X0343500Y0055000D01*
X0341500Y0058000D02*
X0345500Y0058000D01*
X0341500Y0058000D02*
X0341500Y0052000D01*
X0351500Y0055000D02*
X0350500Y0054000D01*
X0347500Y0054000D01*
X0347500Y0052000D02*
X0347500Y0058000D01*
X0350500Y0058000D01*
X0351500Y0057000D01*
X0351500Y0055000D01*
X0349500Y0054000D02*
X0351500Y0052000D01*
X0353500Y0055000D02*
X0357500Y0055000D01*
X0356500Y0052000D02*
X0356500Y0058000D01*
X0353500Y0055000D01*
X0365500Y0052000D02*
X0365500Y0058000D01*
X0367500Y0056000D01*
X0369500Y0058000D01*
X0369500Y0052000D01*
X0375500Y0054000D02*
X0372500Y0054000D01*
X0371500Y0053000D01*
X0372500Y0052000D01*
X0375500Y0052000D01*
X0375500Y0055000D01*
X0374500Y0056000D01*
X0372500Y0056000D01*
X0379500Y0057000D02*
X0379500Y0053000D01*
X0380500Y0052000D01*
X0380500Y0056000D02*
X0378500Y0056000D01*
X0387500Y0055000D02*
X0387500Y0054000D01*
X0383500Y0054000D01*
X0383500Y0055000D02*
X0384500Y0056000D01*
X0386500Y0056000D01*
X0387500Y0055000D01*
X0386500Y0052000D02*
X0384500Y0052000D01*
X0383500Y0053000D01*
X0383500Y0055000D01*
X0393000Y0056000D02*
X0392000Y0056000D01*
X0390000Y0054000D01*
X0390000Y0052000D02*
X0390000Y0056000D01*
X0398500Y0052000D02*
X0396500Y0052000D01*
X0397500Y0052000D02*
X0397500Y0056000D01*
X0396500Y0056000D01*
X0397500Y0058000D02*
X0397500Y0059000D01*
X0405500Y0054000D02*
X0402500Y0054000D01*
X0401500Y0053000D01*
X0402500Y0052000D01*
X0405500Y0052000D01*
X0405500Y0055000D01*
X0404500Y0056000D01*
X0402500Y0056000D01*
X0410500Y0052000D02*
X0408500Y0052000D01*
X0409500Y0052000D02*
X0409500Y0058000D01*
X0408500Y0058000D01*
M02*
