G75*
G70*
%OFA0B0*%
%FSLAX25Y25*%
%IPPOS*%
%LPD*%
%AMOC8*
5,1,8,0,0,1.08239X$1,22.5*
%
%ADD25C,0.00000*%
X0010000Y0010000D02*
G75*
%LPD*%
D25*
X0010000Y0010000D02*
X0010000Y0084000D01*
X0214000Y0084000D01*
X0214000Y0010000D01*
X0010000Y0010000D01*
X0192430Y0038340D02*
X0192450Y0038600D01*
X0192510Y0038860D01*
X0192610Y0039110D01*
X0192740Y0039340D01*
X0192900Y0039540D01*
X0193100Y0039720D01*
X0193320Y0039870D01*
X0193550Y0039990D01*
X0193810Y0040070D01*
X0194070Y0040110D01*
X0194330Y0040110D01*
X0194590Y0040070D01*
X0194850Y0039990D01*
X0195090Y0039870D01*
X0195300Y0039720D01*
X0195500Y0039540D01*
X0195660Y0039340D01*
X0195790Y0039110D01*
X0195890Y0038860D01*
X0195950Y0038600D01*
X0195970Y0038340D01*
X0195950Y0038080D01*
X0195890Y0037820D01*
X0195790Y0037570D01*
X0195660Y0037340D01*
X0195500Y0037140D01*
X0195300Y0036960D01*
X0195080Y0036810D01*
X0194850Y0036690D01*
X0194590Y0036610D01*
X0194330Y0036570D01*
X0194070Y0036570D01*
X0193810Y0036610D01*
X0193550Y0036690D01*
X0193310Y0036810D01*
X0193100Y0036960D01*
X0192900Y0037140D01*
X0192740Y0037340D01*
X0192610Y0037570D01*
X0192510Y0037820D01*
X0192450Y0038080D01*
X0192430Y0038340D01*
X0192430Y0055660D02*
X0192450Y0055920D01*
X0192510Y0056180D01*
X0192610Y0056430D01*
X0192740Y0056660D01*
X0192900Y0056860D01*
X0193100Y0057040D01*
X0193320Y0057190D01*
X0193550Y0057310D01*
X0193810Y0057390D01*
X0194070Y0057430D01*
X0194330Y0057430D01*
X0194590Y0057390D01*
X0194850Y0057310D01*
X0195090Y0057190D01*
X0195300Y0057040D01*
X0195500Y0056860D01*
X0195660Y0056660D01*
X0195790Y0056430D01*
X0195890Y0056180D01*
X0195950Y0055920D01*
X0195970Y0055660D01*
X0195950Y0055400D01*
X0195890Y0055140D01*
X0195790Y0054890D01*
X0195660Y0054660D01*
X0195500Y0054460D01*
X0195300Y0054280D01*
X0195080Y0054130D01*
X0194850Y0054010D01*
X0194590Y0053930D01*
X0194330Y0053890D01*
X0194070Y0053890D01*
X0193810Y0053930D01*
X0193550Y0054010D01*
X0193310Y0054130D01*
X0193100Y0054280D01*
X0192900Y0054460D01*
X0192740Y0054660D01*
X0192610Y0054890D01*
X0192510Y0055140D01*
X0192450Y0055400D01*
X0192430Y0055660D01*
X0010000Y0084300D02*
G75*
%LPD*%
D25*
X0010000Y0084300D02*
X0010000Y0158300D01*
X0214000Y0158300D01*
X0214000Y0084300D01*
X0010000Y0084300D01*
X0192430Y0112640D02*
X0192450Y0112900D01*
X0192510Y0113160D01*
X0192610Y0113410D01*
X0192740Y0113640D01*
X0192900Y0113840D01*
X0193100Y0114020D01*
X0193320Y0114170D01*
X0193550Y0114290D01*
X0193810Y0114370D01*
X0194070Y0114410D01*
X0194330Y0114410D01*
X0194590Y0114370D01*
X0194850Y0114290D01*
X0195090Y0114170D01*
X0195300Y0114020D01*
X0195500Y0113840D01*
X0195660Y0113640D01*
X0195790Y0113410D01*
X0195890Y0113160D01*
X0195950Y0112900D01*
X0195970Y0112640D01*
X0195950Y0112380D01*
X0195890Y0112120D01*
X0195790Y0111870D01*
X0195660Y0111640D01*
X0195500Y0111440D01*
X0195300Y0111260D01*
X0195080Y0111110D01*
X0194850Y0110990D01*
X0194590Y0110910D01*
X0194330Y0110870D01*
X0194070Y0110870D01*
X0193810Y0110910D01*
X0193550Y0110990D01*
X0193310Y0111110D01*
X0193100Y0111260D01*
X0192900Y0111440D01*
X0192740Y0111640D01*
X0192610Y0111870D01*
X0192510Y0112120D01*
X0192450Y0112380D01*
X0192430Y0112640D01*
X0192430Y0129960D02*
X0192450Y0130220D01*
X0192510Y0130480D01*
X0192610Y0130730D01*
X0192740Y0130960D01*
X0192900Y0131160D01*
X0193100Y0131340D01*
X0193320Y0131490D01*
X0193550Y0131610D01*
X0193810Y0131690D01*
X0194070Y0131730D01*
X0194330Y0131730D01*
X0194590Y0131690D01*
X0194850Y0131610D01*
X0195090Y0131490D01*
X0195300Y0131340D01*
X0195500Y0131160D01*
X0195660Y0130960D01*
X0195790Y0130730D01*
X0195890Y0130480D01*
X0195950Y0130220D01*
X0195970Y0129960D01*
X0195950Y0129700D01*
X0195890Y0129440D01*
X0195790Y0129190D01*
X0195660Y0128960D01*
X0195500Y0128760D01*
X0195300Y0128580D01*
X0195080Y0128430D01*
X0194850Y0128310D01*
X0194590Y0128230D01*
X0194330Y0128190D01*
X0194070Y0128190D01*
X0193810Y0128230D01*
X0193550Y0128310D01*
X0193310Y0128430D01*
X0193100Y0128580D01*
X0192900Y0128760D01*
X0192740Y0128960D01*
X0192610Y0129190D01*
X0192510Y0129440D01*
X0192450Y0129700D01*
X0192430Y0129960D01*
X0010000Y0158600D02*
G75*
%LPD*%
D25*
X0010000Y0158600D02*
X0010000Y0232600D01*
X0214000Y0232600D01*
X0214000Y0158600D01*
X0010000Y0158600D01*
X0192430Y0186940D02*
X0192450Y0187200D01*
X0192510Y0187460D01*
X0192610Y0187710D01*
X0192740Y0187940D01*
X0192900Y0188140D01*
X0193100Y0188320D01*
X0193320Y0188470D01*
X0193550Y0188590D01*
X0193810Y0188670D01*
X0194070Y0188710D01*
X0194330Y0188710D01*
X0194590Y0188670D01*
X0194850Y0188590D01*
X0195090Y0188470D01*
X0195300Y0188320D01*
X0195500Y0188140D01*
X0195660Y0187940D01*
X0195790Y0187710D01*
X0195890Y0187460D01*
X0195950Y0187200D01*
X0195970Y0186940D01*
X0195950Y0186680D01*
X0195890Y0186420D01*
X0195790Y0186170D01*
X0195660Y0185940D01*
X0195500Y0185740D01*
X0195300Y0185560D01*
X0195080Y0185410D01*
X0194850Y0185290D01*
X0194590Y0185210D01*
X0194330Y0185170D01*
X0194070Y0185170D01*
X0193810Y0185210D01*
X0193550Y0185290D01*
X0193310Y0185410D01*
X0193100Y0185560D01*
X0192900Y0185740D01*
X0192740Y0185940D01*
X0192610Y0186170D01*
X0192510Y0186420D01*
X0192450Y0186680D01*
X0192430Y0186940D01*
X0192430Y0204260D02*
X0192450Y0204520D01*
X0192510Y0204780D01*
X0192610Y0205030D01*
X0192740Y0205260D01*
X0192900Y0205460D01*
X0193100Y0205640D01*
X0193320Y0205790D01*
X0193550Y0205910D01*
X0193810Y0205990D01*
X0194070Y0206030D01*
X0194330Y0206030D01*
X0194590Y0205990D01*
X0194850Y0205910D01*
X0195090Y0205790D01*
X0195300Y0205640D01*
X0195500Y0205460D01*
X0195660Y0205260D01*
X0195790Y0205030D01*
X0195890Y0204780D01*
X0195950Y0204520D01*
X0195970Y0204260D01*
X0195950Y0204000D01*
X0195890Y0203740D01*
X0195790Y0203490D01*
X0195660Y0203260D01*
X0195500Y0203060D01*
X0195300Y0202880D01*
X0195080Y0202730D01*
X0194850Y0202610D01*
X0194590Y0202530D01*
X0194330Y0202490D01*
X0194070Y0202490D01*
X0193810Y0202530D01*
X0193550Y0202610D01*
X0193310Y0202730D01*
X0193100Y0202880D01*
X0192900Y0203060D01*
X0192740Y0203260D01*
X0192610Y0203490D01*
X0192510Y0203740D01*
X0192450Y0204000D01*
X0192430Y0204260D01*
X0010000Y0232900D02*
G75*
%LPD*%
D25*
X0010000Y0232900D02*
X0010000Y0306900D01*
X0214000Y0306900D01*
X0214000Y0232900D01*
X0010000Y0232900D01*
X0192430Y0261240D02*
X0192450Y0261500D01*
X0192510Y0261760D01*
X0192610Y0262010D01*
X0192740Y0262240D01*
X0192900Y0262440D01*
X0193100Y0262620D01*
X0193320Y0262770D01*
X0193550Y0262890D01*
X0193810Y0262970D01*
X0194070Y0263010D01*
X0194330Y0263010D01*
X0194590Y0262970D01*
X0194850Y0262890D01*
X0195090Y0262770D01*
X0195300Y0262620D01*
X0195500Y0262440D01*
X0195660Y0262240D01*
X0195790Y0262010D01*
X0195890Y0261760D01*
X0195950Y0261500D01*
X0195970Y0261240D01*
X0195950Y0260980D01*
X0195890Y0260720D01*
X0195790Y0260470D01*
X0195660Y0260240D01*
X0195500Y0260040D01*
X0195300Y0259860D01*
X0195080Y0259710D01*
X0194850Y0259590D01*
X0194590Y0259510D01*
X0194330Y0259470D01*
X0194070Y0259470D01*
X0193810Y0259510D01*
X0193550Y0259590D01*
X0193310Y0259710D01*
X0193100Y0259860D01*
X0192900Y0260040D01*
X0192740Y0260240D01*
X0192610Y0260470D01*
X0192510Y0260720D01*
X0192450Y0260980D01*
X0192430Y0261240D01*
X0192430Y0278560D02*
X0192450Y0278820D01*
X0192510Y0279080D01*
X0192610Y0279330D01*
X0192740Y0279560D01*
X0192900Y0279760D01*
X0193100Y0279940D01*
X0193320Y0280090D01*
X0193550Y0280210D01*
X0193810Y0280290D01*
X0194070Y0280330D01*
X0194330Y0280330D01*
X0194590Y0280290D01*
X0194850Y0280210D01*
X0195090Y0280090D01*
X0195300Y0279940D01*
X0195500Y0279760D01*
X0195660Y0279560D01*
X0195790Y0279330D01*
X0195890Y0279080D01*
X0195950Y0278820D01*
X0195970Y0278560D01*
X0195950Y0278300D01*
X0195890Y0278040D01*
X0195790Y0277790D01*
X0195660Y0277560D01*
X0195500Y0277360D01*
X0195300Y0277180D01*
X0195080Y0277030D01*
X0194850Y0276910D01*
X0194590Y0276830D01*
X0194330Y0276790D01*
X0194070Y0276790D01*
X0193810Y0276830D01*
X0193550Y0276910D01*
X0193310Y0277030D01*
X0193100Y0277180D01*
X0192900Y0277360D01*
X0192740Y0277560D01*
X0192610Y0277790D01*
X0192510Y0278040D01*
X0192450Y0278300D01*
X0192430Y0278560D01*
M02*
