G75*
G70*
%OFA0B0*%
%FSLAX25Y25*%
%IPPOS*%
%LPD*%
%AMOC8*
5,1,8,0,0,1.08239X$1,22.5*
%
%ADD33C,0.00040*%
X0010000Y0010000D02*
G75*
%LPD*%
D33*
X0182390Y0031150D02*
X0182280Y0031480D01*
X0182240Y0031830D01*
X0182280Y0032180D01*
X0182390Y0032510D01*
X0182580Y0032810D01*
X0188590Y0032810D01*
X0188770Y0032510D01*
X0188890Y0032180D01*
X0188930Y0031830D01*
X0188890Y0031480D01*
X0188770Y0031150D01*
X0188590Y0030850D01*
X0188340Y0030600D01*
X0188040Y0030410D01*
X0187710Y0030290D01*
X0187360Y0030260D01*
X0183810Y0030260D01*
X0183460Y0030290D01*
X0183130Y0030410D01*
X0182830Y0030600D01*
X0182580Y0030850D01*
X0182390Y0031150D01*
X0188780Y0031150D01*
X0188760Y0031130D02*
X0182400Y0031130D01*
X0182420Y0031100D02*
X0188750Y0031100D01*
X0188730Y0031080D02*
X0182440Y0031080D01*
X0182450Y0031060D02*
X0188720Y0031060D01*
X0188700Y0031030D02*
X0182470Y0031030D01*
X0182480Y0031010D02*
X0188690Y0031010D01*
X0188670Y0030980D02*
X0182500Y0030980D01*
X0182510Y0030960D02*
X0188660Y0030960D01*
X0188640Y0030930D02*
X0182530Y0030930D01*
X0182540Y0030910D02*
X0188630Y0030910D01*
X0188610Y0030890D02*
X0182560Y0030890D01*
X0182570Y0030860D02*
X0188600Y0030860D01*
X0188580Y0030840D02*
X0182590Y0030840D01*
X0182620Y0030810D02*
X0188550Y0030810D01*
X0188530Y0030790D02*
X0182640Y0030790D01*
X0182670Y0030760D02*
X0188500Y0030760D01*
X0188480Y0030740D02*
X0182690Y0030740D01*
X0182710Y0030710D02*
X0188450Y0030710D01*
X0188430Y0030690D02*
X0182740Y0030690D01*
X0182760Y0030670D02*
X0188400Y0030670D01*
X0188380Y0030640D02*
X0182790Y0030640D01*
X0182810Y0030620D02*
X0188360Y0030620D01*
X0188330Y0030590D02*
X0182840Y0030590D01*
X0182880Y0030570D02*
X0188290Y0030570D01*
X0188250Y0030540D02*
X0182920Y0030540D01*
X0182960Y0030520D02*
X0188210Y0030520D01*
X0188170Y0030500D02*
X0183000Y0030500D01*
X0183030Y0030470D02*
X0188130Y0030470D01*
X0188100Y0030450D02*
X0183070Y0030450D01*
X0183110Y0030420D02*
X0188060Y0030420D01*
X0188000Y0030400D02*
X0183170Y0030400D01*
X0183240Y0030370D02*
X0187930Y0030370D01*
X0187860Y0030350D02*
X0183310Y0030350D01*
X0183380Y0030320D02*
X0187790Y0030320D01*
X0187720Y0030300D02*
X0183450Y0030300D01*
X0183630Y0030280D02*
X0187540Y0030280D01*
X0187360Y0030260D02*
X0183810Y0030260D01*
X0182380Y0031180D02*
X0188790Y0031180D01*
X0188790Y0031200D02*
X0182370Y0031200D01*
X0182370Y0031230D02*
X0188800Y0031230D01*
X0188810Y0031250D02*
X0182360Y0031250D01*
X0182350Y0031280D02*
X0188820Y0031280D01*
X0188830Y0031300D02*
X0182340Y0031300D01*
X0182330Y0031320D02*
X0188840Y0031320D01*
X0188850Y0031350D02*
X0182320Y0031350D01*
X0182310Y0031370D02*
X0188850Y0031370D01*
X0188860Y0031400D02*
X0182310Y0031400D01*
X0182300Y0031420D02*
X0188870Y0031420D01*
X0188880Y0031450D02*
X0182290Y0031450D01*
X0182280Y0031470D02*
X0188890Y0031470D01*
X0188890Y0031490D02*
X0182280Y0031490D01*
X0182270Y0031520D02*
X0188900Y0031520D01*
X0188900Y0031540D02*
X0182270Y0031540D01*
X0182270Y0031570D02*
X0188900Y0031570D01*
X0188900Y0031590D02*
X0182260Y0031590D01*
X0182260Y0031620D02*
X0188910Y0031620D01*
X0188910Y0031640D02*
X0182260Y0031640D01*
X0182260Y0031670D02*
X0188910Y0031670D01*
X0188910Y0031690D02*
X0182250Y0031690D01*
X0182250Y0031710D02*
X0188920Y0031710D01*
X0188920Y0031740D02*
X0182250Y0031740D01*
X0182250Y0031760D02*
X0188920Y0031760D01*
X0188930Y0031790D02*
X0182240Y0031790D01*
X0182240Y0031810D02*
X0188930Y0031810D01*
X0188930Y0031840D02*
X0182240Y0031840D01*
X0182240Y0031860D02*
X0188930Y0031860D01*
X0188920Y0031880D02*
X0182240Y0031880D01*
X0182250Y0031910D02*
X0188920Y0031910D01*
X0188920Y0031930D02*
X0182250Y0031930D01*
X0182250Y0031960D02*
X0188920Y0031960D01*
X0188910Y0031980D02*
X0182250Y0031980D01*
X0182260Y0032010D02*
X0188910Y0032010D01*
X0188910Y0032030D02*
X0182260Y0032030D01*
X0182260Y0032050D02*
X0188910Y0032050D01*
X0188900Y0032080D02*
X0182270Y0032080D01*
X0182270Y0032100D02*
X0188900Y0032100D01*
X0188900Y0032130D02*
X0182270Y0032130D01*
X0182270Y0032150D02*
X0188890Y0032150D01*
X0188890Y0032180D02*
X0182280Y0032180D01*
X0182280Y0032200D02*
X0188880Y0032200D01*
X0188880Y0032230D02*
X0182290Y0032230D01*
X0182300Y0032250D02*
X0188870Y0032250D01*
X0188860Y0032270D02*
X0182310Y0032270D01*
X0182320Y0032300D02*
X0188850Y0032300D01*
X0188840Y0032320D02*
X0182330Y0032320D01*
X0182340Y0032350D02*
X0188830Y0032350D01*
X0188820Y0032370D02*
X0182340Y0032370D01*
X0182350Y0032400D02*
X0188820Y0032400D01*
X0188810Y0032420D02*
X0182360Y0032420D01*
X0182370Y0032440D02*
X0188800Y0032440D01*
X0188790Y0032470D02*
X0182380Y0032470D01*
X0182390Y0032490D02*
X0188780Y0032490D01*
X0188770Y0032520D02*
X0182400Y0032520D01*
X0182410Y0032540D02*
X0188760Y0032540D01*
X0188740Y0032570D02*
X0182430Y0032570D01*
X0182440Y0032590D02*
X0188730Y0032590D01*
X0188710Y0032620D02*
X0182460Y0032620D01*
X0182470Y0032640D02*
X0188700Y0032640D01*
X0188680Y0032660D02*
X0182490Y0032660D01*
X0182500Y0032690D02*
X0188660Y0032690D01*
X0188650Y0032710D02*
X0182520Y0032710D01*
X0182530Y0032740D02*
X0188630Y0032740D01*
X0188620Y0032760D02*
X0182550Y0032760D01*
X0182570Y0032790D02*
X0188600Y0032790D01*
X0188590Y0032810D02*
X0188340Y0033060D01*
X0188040Y0033250D01*
X0187710Y0033370D01*
X0187360Y0033400D01*
X0183810Y0033400D01*
X0183460Y0033370D01*
X0183130Y0033250D01*
X0188040Y0033250D01*
X0188080Y0033220D02*
X0183090Y0033220D01*
X0183050Y0033200D02*
X0188120Y0033200D01*
X0188150Y0033180D02*
X0183010Y0033180D01*
X0182970Y0033150D02*
X0188190Y0033150D01*
X0188230Y0033130D02*
X0182940Y0033130D01*
X0182900Y0033100D02*
X0188270Y0033100D01*
X0188310Y0033080D02*
X0182860Y0033080D01*
X0182830Y0033060D02*
X0183130Y0033250D01*
X0183200Y0033270D02*
X0187970Y0033270D01*
X0187900Y0033300D02*
X0183270Y0033300D01*
X0183340Y0033320D02*
X0187830Y0033320D01*
X0187760Y0033350D02*
X0183410Y0033350D01*
X0183510Y0033370D02*
X0187650Y0033370D01*
X0187440Y0033400D02*
X0183730Y0033400D01*
X0183810Y0033400D02*
X0187360Y0033400D01*
X0188340Y0033050D02*
X0182820Y0033050D01*
X0182830Y0033060D02*
X0182580Y0032810D01*
X0182600Y0032830D02*
X0188560Y0032830D01*
X0188540Y0032860D02*
X0182630Y0032860D01*
X0182650Y0032880D02*
X0188520Y0032880D01*
X0188490Y0032910D02*
X0182680Y0032910D01*
X0182700Y0032930D02*
X0188470Y0032930D01*
X0188440Y0032960D02*
X0182730Y0032960D01*
X0182750Y0032980D02*
X0188420Y0032980D01*
X0188390Y0033010D02*
X0182780Y0033010D01*
X0182800Y0033030D02*
X0188370Y0033030D01*
X0203100Y0031830D02*
X0203140Y0032180D01*
X0203260Y0032510D01*
X0203450Y0032810D01*
X0203700Y0033060D01*
X0204000Y0033250D01*
X0208900Y0033250D01*
X0208910Y0033250D02*
X0209200Y0033060D01*
X0209450Y0032810D01*
X0209640Y0032510D01*
X0209760Y0032180D01*
X0209800Y0031830D01*
X0209760Y0031480D01*
X0209640Y0031150D01*
X0209450Y0030850D01*
X0209200Y0030600D01*
X0208910Y0030410D01*
X0208570Y0030290D01*
X0208220Y0030260D01*
X0204680Y0030260D01*
X0204330Y0030290D01*
X0204000Y0030410D01*
X0203700Y0030600D01*
X0203450Y0030850D01*
X0203260Y0031150D01*
X0203140Y0031480D01*
X0203100Y0031830D01*
X0203100Y0031840D02*
X0209800Y0031840D01*
X0209790Y0031860D02*
X0203110Y0031860D01*
X0203110Y0031880D02*
X0209790Y0031880D01*
X0209790Y0031910D02*
X0203110Y0031910D01*
X0203120Y0031930D02*
X0209790Y0031930D01*
X0209780Y0031960D02*
X0203120Y0031960D01*
X0203120Y0031980D02*
X0209780Y0031980D01*
X0209780Y0032010D02*
X0203120Y0032010D01*
X0203130Y0032030D02*
X0209770Y0032030D01*
X0209770Y0032050D02*
X0203130Y0032050D01*
X0203130Y0032080D02*
X0209770Y0032080D01*
X0209770Y0032100D02*
X0203130Y0032100D01*
X0203140Y0032130D02*
X0209760Y0032130D01*
X0209760Y0032150D02*
X0203140Y0032150D01*
X0203140Y0032180D02*
X0209760Y0032180D01*
X0209750Y0032200D02*
X0203150Y0032200D01*
X0203160Y0032230D02*
X0209740Y0032230D01*
X0209730Y0032250D02*
X0203170Y0032250D01*
X0203180Y0032270D02*
X0209720Y0032270D01*
X0209720Y0032300D02*
X0203180Y0032300D01*
X0203190Y0032320D02*
X0209710Y0032320D01*
X0209700Y0032350D02*
X0203200Y0032350D01*
X0203210Y0032370D02*
X0209690Y0032370D01*
X0209680Y0032400D02*
X0203220Y0032400D01*
X0203230Y0032420D02*
X0209670Y0032420D01*
X0209660Y0032440D02*
X0203240Y0032440D01*
X0203240Y0032470D02*
X0209660Y0032470D01*
X0209650Y0032490D02*
X0203250Y0032490D01*
X0203260Y0032520D02*
X0209640Y0032520D01*
X0209620Y0032540D02*
X0203280Y0032540D01*
X0203290Y0032570D02*
X0209610Y0032570D01*
X0209590Y0032590D02*
X0203310Y0032590D01*
X0203320Y0032620D02*
X0209580Y0032620D01*
X0209560Y0032640D02*
X0203340Y0032640D01*
X0203350Y0032660D02*
X0209550Y0032660D01*
X0209530Y0032690D02*
X0203370Y0032690D01*
X0203390Y0032710D02*
X0209520Y0032710D01*
X0209500Y0032740D02*
X0203400Y0032740D01*
X0203420Y0032760D02*
X0209480Y0032760D01*
X0209470Y0032790D02*
X0203430Y0032790D01*
X0203450Y0032810D02*
X0209450Y0032810D01*
X0209430Y0032830D02*
X0203470Y0032830D01*
X0203490Y0032860D02*
X0209410Y0032860D01*
X0209380Y0032880D02*
X0203520Y0032880D01*
X0203540Y0032910D02*
X0209360Y0032910D01*
X0209330Y0032930D02*
X0203570Y0032930D01*
X0203590Y0032960D02*
X0209310Y0032960D01*
X0209280Y0032980D02*
X0203620Y0032980D01*
X0203640Y0033010D02*
X0209260Y0033010D01*
X0209240Y0033030D02*
X0203670Y0033030D01*
X0203690Y0033050D02*
X0209210Y0033050D01*
X0209180Y0033080D02*
X0203720Y0033080D01*
X0203760Y0033100D02*
X0209140Y0033100D01*
X0209100Y0033130D02*
X0203800Y0033130D01*
X0203840Y0033150D02*
X0209060Y0033150D01*
X0209020Y0033180D02*
X0203880Y0033180D01*
X0203920Y0033200D02*
X0208980Y0033200D01*
X0208940Y0033220D02*
X0203960Y0033220D01*
X0204000Y0033250D02*
X0204330Y0033370D01*
X0204680Y0033400D01*
X0208220Y0033400D01*
X0208570Y0033370D01*
X0208910Y0033250D01*
X0208830Y0033270D02*
X0204070Y0033270D01*
X0204140Y0033300D02*
X0208760Y0033300D01*
X0208700Y0033320D02*
X0204210Y0033320D01*
X0204280Y0033350D02*
X0208630Y0033350D01*
X0208520Y0033370D02*
X0204380Y0033370D01*
X0204600Y0033400D02*
X0208300Y0033400D01*
X0208220Y0033400D02*
X0204680Y0033400D01*
X0203110Y0031810D02*
X0209790Y0031810D01*
X0209790Y0031790D02*
X0203110Y0031790D01*
X0203110Y0031760D02*
X0209790Y0031760D01*
X0209790Y0031740D02*
X0203110Y0031740D01*
X0203120Y0031710D02*
X0209780Y0031710D01*
X0209780Y0031690D02*
X0203120Y0031690D01*
X0203120Y0031670D02*
X0209780Y0031670D01*
X0209780Y0031640D02*
X0203130Y0031640D01*
X0203130Y0031620D02*
X0209770Y0031620D01*
X0209770Y0031590D02*
X0203130Y0031590D01*
X0203130Y0031570D02*
X0209770Y0031570D01*
X0209760Y0031540D02*
X0203140Y0031540D01*
X0203140Y0031520D02*
X0209760Y0031520D01*
X0209760Y0031490D02*
X0203140Y0031490D01*
X0203150Y0031470D02*
X0209750Y0031470D01*
X0209750Y0031450D02*
X0203160Y0031450D01*
X0203160Y0031420D02*
X0209740Y0031420D01*
X0209730Y0031400D02*
X0203170Y0031400D01*
X0203180Y0031370D02*
X0209720Y0031370D01*
X0209710Y0031350D02*
X0203190Y0031350D01*
X0203200Y0031320D02*
X0209700Y0031320D01*
X0209690Y0031300D02*
X0203210Y0031300D01*
X0203210Y0031280D02*
X0209690Y0031280D01*
X0209680Y0031250D02*
X0203220Y0031250D01*
X0203230Y0031230D02*
X0209670Y0031230D01*
X0209660Y0031200D02*
X0203240Y0031200D01*
X0203250Y0031180D02*
X0209650Y0031180D01*
X0209640Y0031150D02*
X0203260Y0031150D01*
X0203270Y0031130D02*
X0209630Y0031130D01*
X0209610Y0031100D02*
X0203290Y0031100D01*
X0203300Y0031080D02*
X0209600Y0031080D01*
X0209580Y0031060D02*
X0203320Y0031060D01*
X0203330Y0031030D02*
X0209570Y0031030D01*
X0209550Y0031010D02*
X0203350Y0031010D01*
X0203360Y0030980D02*
X0209540Y0030980D01*
X0209520Y0030960D02*
X0203380Y0030960D01*
X0203390Y0030930D02*
X0209510Y0030930D01*
X0209490Y0030910D02*
X0203410Y0030910D01*
X0203420Y0030890D02*
X0209480Y0030890D01*
X0209460Y0030860D02*
X0203440Y0030860D01*
X0203460Y0030840D02*
X0209440Y0030840D01*
X0209420Y0030810D02*
X0203480Y0030810D01*
X0203510Y0030790D02*
X0209390Y0030790D01*
X0209370Y0030760D02*
X0203530Y0030760D01*
X0203560Y0030740D02*
X0209340Y0030740D01*
X0209320Y0030710D02*
X0203580Y0030710D01*
X0203610Y0030690D02*
X0209300Y0030690D01*
X0209270Y0030670D02*
X0203630Y0030670D01*
X0203650Y0030640D02*
X0209250Y0030640D01*
X0209220Y0030620D02*
X0203680Y0030620D01*
X0203710Y0030590D02*
X0209190Y0030590D01*
X0209160Y0030570D02*
X0203750Y0030570D01*
X0203780Y0030540D02*
X0209120Y0030540D01*
X0209080Y0030520D02*
X0203820Y0030520D01*
X0203860Y0030500D02*
X0209040Y0030500D01*
X0209000Y0030470D02*
X0203900Y0030470D01*
X0203940Y0030450D02*
X0208960Y0030450D01*
X0208920Y0030420D02*
X0203980Y0030420D01*
X0204030Y0030400D02*
X0208870Y0030400D01*
X0208800Y0030370D02*
X0204100Y0030370D01*
X0204170Y0030350D02*
X0208730Y0030350D01*
X0208660Y0030320D02*
X0204240Y0030320D01*
X0204310Y0030300D02*
X0208590Y0030300D01*
X0208410Y0030280D02*
X0204500Y0030280D01*
X0204680Y0030260D02*
X0208220Y0030260D01*
X0208220Y0059000D02*
X0204680Y0059000D01*
X0204330Y0059030D01*
X0204000Y0059150D01*
X0203700Y0059340D01*
X0203450Y0059590D01*
X0203260Y0059890D01*
X0209640Y0059890D01*
X0209450Y0059590D01*
X0209200Y0059340D01*
X0208910Y0059150D01*
X0208570Y0059030D01*
X0208220Y0059000D01*
X0204680Y0059000D01*
X0204540Y0059010D02*
X0208360Y0059010D01*
X0208570Y0059040D02*
X0204330Y0059040D01*
X0204260Y0059060D02*
X0208640Y0059060D01*
X0208710Y0059080D02*
X0204190Y0059080D01*
X0204120Y0059110D02*
X0208780Y0059110D01*
X0208850Y0059130D02*
X0204050Y0059130D01*
X0203990Y0059160D02*
X0208910Y0059160D01*
X0208950Y0059180D02*
X0203950Y0059180D01*
X0203910Y0059210D02*
X0208990Y0059210D01*
X0209030Y0059230D02*
X0203870Y0059230D01*
X0203830Y0059250D02*
X0209070Y0059250D01*
X0209110Y0059280D02*
X0203790Y0059280D01*
X0203750Y0059300D02*
X0209150Y0059300D01*
X0209190Y0059330D02*
X0203710Y0059330D01*
X0203680Y0059350D02*
X0209220Y0059350D01*
X0209240Y0059380D02*
X0203660Y0059380D01*
X0203630Y0059400D02*
X0209270Y0059400D01*
X0209290Y0059430D02*
X0203610Y0059430D01*
X0203590Y0059450D02*
X0209310Y0059450D01*
X0209340Y0059470D02*
X0203560Y0059470D01*
X0203540Y0059500D02*
X0209360Y0059500D01*
X0209390Y0059520D02*
X0203510Y0059520D01*
X0203490Y0059550D02*
X0209410Y0059550D01*
X0209440Y0059570D02*
X0203460Y0059570D01*
X0203440Y0059600D02*
X0209460Y0059600D01*
X0209470Y0059620D02*
X0203430Y0059620D01*
X0203410Y0059640D02*
X0209490Y0059640D01*
X0209500Y0059670D02*
X0203400Y0059670D01*
X0203380Y0059690D02*
X0209520Y0059690D01*
X0209530Y0059720D02*
X0203370Y0059720D01*
X0203350Y0059740D02*
X0209550Y0059740D01*
X0209570Y0059770D02*
X0203340Y0059770D01*
X0203320Y0059790D02*
X0209580Y0059790D01*
X0209600Y0059820D02*
X0203300Y0059820D01*
X0203290Y0059840D02*
X0209610Y0059840D01*
X0209630Y0059860D02*
X0203270Y0059860D01*
X0203260Y0059890D02*
X0203140Y0060220D01*
X0203100Y0060570D01*
X0203140Y0060920D01*
X0203260Y0061250D01*
X0209640Y0061250D01*
X0209760Y0060920D01*
X0209800Y0060570D01*
X0209760Y0060220D01*
X0209640Y0059890D01*
X0209650Y0059910D02*
X0203250Y0059910D01*
X0203240Y0059940D02*
X0209660Y0059940D01*
X0209670Y0059960D02*
X0203230Y0059960D01*
X0203230Y0059990D02*
X0209680Y0059990D01*
X0209680Y0060010D02*
X0203220Y0060010D01*
X0203210Y0060030D02*
X0209690Y0060030D01*
X0209700Y0060060D02*
X0203200Y0060060D01*
X0203190Y0060080D02*
X0209710Y0060080D01*
X0209720Y0060110D02*
X0203180Y0060110D01*
X0203170Y0060130D02*
X0209730Y0060130D01*
X0209740Y0060160D02*
X0203170Y0060160D01*
X0203160Y0060180D02*
X0209740Y0060180D01*
X0209750Y0060210D02*
X0203150Y0060210D01*
X0203140Y0060230D02*
X0209760Y0060230D01*
X0209760Y0060250D02*
X0203140Y0060250D01*
X0203140Y0060280D02*
X0209760Y0060280D01*
X0209770Y0060300D02*
X0203130Y0060300D01*
X0203130Y0060330D02*
X0209770Y0060330D01*
X0209770Y0060350D02*
X0203130Y0060350D01*
X0203130Y0060380D02*
X0209770Y0060380D01*
X0209780Y0060400D02*
X0203120Y0060400D01*
X0203120Y0060420D02*
X0209780Y0060420D01*
X0209780Y0060450D02*
X0203120Y0060450D01*
X0203110Y0060470D02*
X0209790Y0060470D01*
X0209790Y0060500D02*
X0203110Y0060500D01*
X0203110Y0060520D02*
X0209790Y0060520D01*
X0209790Y0060550D02*
X0203110Y0060550D01*
X0203100Y0060570D02*
X0209800Y0060570D01*
X0209790Y0060600D02*
X0203110Y0060600D01*
X0203110Y0060620D02*
X0209790Y0060620D01*
X0209790Y0060640D02*
X0203110Y0060640D01*
X0203110Y0060670D02*
X0209790Y0060670D01*
X0209780Y0060690D02*
X0203120Y0060690D01*
X0203120Y0060720D02*
X0209780Y0060720D01*
X0209780Y0060740D02*
X0203120Y0060740D01*
X0203130Y0060770D02*
X0209770Y0060770D01*
X0209770Y0060790D02*
X0203130Y0060790D01*
X0203130Y0060810D02*
X0209770Y0060810D01*
X0209770Y0060840D02*
X0203130Y0060840D01*
X0203140Y0060860D02*
X0209760Y0060860D01*
X0209760Y0060890D02*
X0203140Y0060890D01*
X0203140Y0060910D02*
X0209760Y0060910D01*
X0209750Y0060940D02*
X0203150Y0060940D01*
X0203160Y0060960D02*
X0209740Y0060960D01*
X0209730Y0060990D02*
X0203170Y0060990D01*
X0203170Y0061010D02*
X0209730Y0061010D01*
X0209720Y0061030D02*
X0203180Y0061030D01*
X0203190Y0061060D02*
X0209710Y0061060D01*
X0209700Y0061080D02*
X0203200Y0061080D01*
X0203210Y0061110D02*
X0209690Y0061110D01*
X0209680Y0061130D02*
X0203220Y0061130D01*
X0203230Y0061160D02*
X0209680Y0061160D01*
X0209670Y0061180D02*
X0203230Y0061180D01*
X0203240Y0061200D02*
X0209660Y0061200D01*
X0209650Y0061230D02*
X0203250Y0061230D01*
X0203260Y0061250D02*
X0203450Y0061550D01*
X0203700Y0061800D01*
X0204000Y0061990D01*
X0204330Y0062110D01*
X0204680Y0062140D01*
X0208220Y0062140D01*
X0208570Y0062110D01*
X0208910Y0061990D01*
X0209200Y0061800D01*
X0209450Y0061550D01*
X0209640Y0061250D01*
X0209630Y0061280D02*
X0203280Y0061280D01*
X0203290Y0061300D02*
X0209610Y0061300D01*
X0209600Y0061330D02*
X0203310Y0061330D01*
X0203320Y0061350D02*
X0209580Y0061350D01*
X0209560Y0061380D02*
X0203340Y0061380D01*
X0203350Y0061400D02*
X0209550Y0061400D01*
X0209530Y0061420D02*
X0203370Y0061420D01*
X0203380Y0061450D02*
X0209520Y0061450D01*
X0209500Y0061470D02*
X0203400Y0061470D01*
X0203410Y0061500D02*
X0209490Y0061500D01*
X0209470Y0061520D02*
X0203430Y0061520D01*
X0203440Y0061550D02*
X0209460Y0061550D01*
X0209440Y0061570D02*
X0203470Y0061570D01*
X0203490Y0061590D02*
X0209410Y0061590D01*
X0209390Y0061620D02*
X0203510Y0061620D01*
X0203540Y0061640D02*
X0209360Y0061640D01*
X0209340Y0061670D02*
X0203560Y0061670D01*
X0203590Y0061690D02*
X0209310Y0061690D01*
X0209290Y0061720D02*
X0203610Y0061720D01*
X0203640Y0061740D02*
X0209260Y0061740D01*
X0209240Y0061770D02*
X0203660Y0061770D01*
X0203690Y0061790D02*
X0209220Y0061790D01*
X0209180Y0061810D02*
X0203720Y0061810D01*
X0203760Y0061840D02*
X0209150Y0061840D01*
X0209110Y0061860D02*
X0203790Y0061860D01*
X0203830Y0061890D02*
X0209070Y0061890D01*
X0209030Y0061910D02*
X0203870Y0061910D01*
X0203910Y0061940D02*
X0208990Y0061940D01*
X0208950Y0061960D02*
X0203950Y0061960D01*
X0203990Y0061980D02*
X0208910Y0061980D01*
X0208850Y0062010D02*
X0204050Y0062010D01*
X0204120Y0062030D02*
X0208780Y0062030D01*
X0208710Y0062060D02*
X0204190Y0062060D01*
X0204260Y0062080D02*
X0208640Y0062080D01*
X0208560Y0062110D02*
X0204340Y0062110D01*
X0204550Y0062130D02*
X0208350Y0062130D01*
X0208220Y0062140D02*
X0204680Y0062140D01*
X0188930Y0060570D02*
X0188890Y0060220D01*
X0188770Y0059890D01*
X0188780Y0059890D02*
X0182390Y0059890D01*
X0182280Y0060220D01*
X0182240Y0060570D01*
X0182280Y0060920D01*
X0182390Y0061250D01*
X0188770Y0061250D01*
X0188890Y0060920D01*
X0188930Y0060570D01*
X0182240Y0060570D01*
X0182240Y0060550D02*
X0188930Y0060550D01*
X0188930Y0060520D02*
X0182240Y0060520D01*
X0182250Y0060500D02*
X0188920Y0060500D01*
X0188920Y0060470D02*
X0182250Y0060470D01*
X0182250Y0060450D02*
X0188920Y0060450D01*
X0188910Y0060420D02*
X0182250Y0060420D01*
X0182260Y0060400D02*
X0188910Y0060400D01*
X0188910Y0060380D02*
X0182260Y0060380D01*
X0182260Y0060350D02*
X0188910Y0060350D01*
X0188900Y0060330D02*
X0182270Y0060330D01*
X0182270Y0060300D02*
X0188900Y0060300D01*
X0188900Y0060280D02*
X0182270Y0060280D01*
X0182270Y0060250D02*
X0188900Y0060250D01*
X0188890Y0060230D02*
X0182280Y0060230D01*
X0182280Y0060210D02*
X0188890Y0060210D01*
X0188880Y0060180D02*
X0182290Y0060180D01*
X0182300Y0060160D02*
X0188870Y0060160D01*
X0188860Y0060130D02*
X0182310Y0060130D01*
X0182320Y0060110D02*
X0188850Y0060110D01*
X0188840Y0060080D02*
X0182320Y0060080D01*
X0182330Y0060060D02*
X0188840Y0060060D01*
X0188830Y0060030D02*
X0182340Y0060030D01*
X0182350Y0060010D02*
X0188820Y0060010D01*
X0188810Y0059990D02*
X0182360Y0059990D01*
X0182370Y0059960D02*
X0188800Y0059960D01*
X0188790Y0059940D02*
X0182380Y0059940D01*
X0182380Y0059910D02*
X0188780Y0059910D01*
X0188770Y0059890D02*
X0188590Y0059590D01*
X0188340Y0059340D01*
X0188040Y0059150D01*
X0187710Y0059030D01*
X0187710Y0059040D02*
X0183460Y0059040D01*
X0183460Y0059030D02*
X0183130Y0059150D01*
X0182830Y0059340D01*
X0182580Y0059590D01*
X0182390Y0059890D01*
X0182410Y0059860D02*
X0188760Y0059860D01*
X0188750Y0059840D02*
X0182420Y0059840D01*
X0182440Y0059820D02*
X0188730Y0059820D01*
X0188710Y0059790D02*
X0182450Y0059790D01*
X0182470Y0059770D02*
X0188700Y0059770D01*
X0188680Y0059740D02*
X0182480Y0059740D01*
X0182500Y0059720D02*
X0188670Y0059720D01*
X0188650Y0059690D02*
X0182520Y0059690D01*
X0182530Y0059670D02*
X0188640Y0059670D01*
X0188620Y0059640D02*
X0182550Y0059640D01*
X0182560Y0059620D02*
X0188610Y0059620D01*
X0188590Y0059600D02*
X0182580Y0059600D01*
X0182600Y0059570D02*
X0188570Y0059570D01*
X0188550Y0059550D02*
X0182620Y0059550D01*
X0182650Y0059520D02*
X0188520Y0059520D01*
X0188500Y0059500D02*
X0182670Y0059500D01*
X0182700Y0059470D02*
X0188470Y0059470D01*
X0188450Y0059450D02*
X0182720Y0059450D01*
X0182740Y0059430D02*
X0188420Y0059430D01*
X0188400Y0059400D02*
X0182770Y0059400D01*
X0182790Y0059380D02*
X0188380Y0059380D01*
X0188350Y0059350D02*
X0182820Y0059350D01*
X0182850Y0059330D02*
X0188320Y0059330D01*
X0188280Y0059300D02*
X0182890Y0059300D01*
X0182930Y0059280D02*
X0188240Y0059280D01*
X0188200Y0059250D02*
X0182960Y0059250D01*
X0183000Y0059230D02*
X0188170Y0059230D01*
X0188130Y0059210D02*
X0183040Y0059210D01*
X0183080Y0059180D02*
X0188090Y0059180D01*
X0188050Y0059160D02*
X0183120Y0059160D01*
X0183180Y0059130D02*
X0187990Y0059130D01*
X0187920Y0059110D02*
X0183250Y0059110D01*
X0183320Y0059080D02*
X0187850Y0059080D01*
X0187780Y0059060D02*
X0183390Y0059060D01*
X0183460Y0059030D02*
X0183810Y0059000D01*
X0187360Y0059000D01*
X0187710Y0059030D01*
X0187500Y0059010D02*
X0183670Y0059010D01*
X0183810Y0059000D02*
X0187360Y0059000D01*
X0188930Y0060600D02*
X0182240Y0060600D01*
X0182240Y0060620D02*
X0188930Y0060620D01*
X0188920Y0060640D02*
X0182250Y0060640D01*
X0182250Y0060670D02*
X0188920Y0060670D01*
X0188920Y0060690D02*
X0182250Y0060690D01*
X0182250Y0060720D02*
X0188910Y0060720D01*
X0188910Y0060740D02*
X0182260Y0060740D01*
X0182260Y0060770D02*
X0188910Y0060770D01*
X0188910Y0060790D02*
X0182260Y0060790D01*
X0182270Y0060810D02*
X0188900Y0060810D01*
X0188900Y0060840D02*
X0182270Y0060840D01*
X0182270Y0060860D02*
X0188900Y0060860D01*
X0188890Y0060890D02*
X0182270Y0060890D01*
X0182280Y0060910D02*
X0188890Y0060910D01*
X0188890Y0060940D02*
X0182280Y0060940D01*
X0182290Y0060960D02*
X0188880Y0060960D01*
X0188870Y0060990D02*
X0182300Y0060990D01*
X0182310Y0061010D02*
X0188860Y0061010D01*
X0188850Y0061030D02*
X0182320Y0061030D01*
X0182330Y0061060D02*
X0188840Y0061060D01*
X0188830Y0061080D02*
X0182330Y0061080D01*
X0182340Y0061110D02*
X0188830Y0061110D01*
X0188820Y0061130D02*
X0182350Y0061130D01*
X0182360Y0061160D02*
X0188810Y0061160D01*
X0188800Y0061180D02*
X0182370Y0061180D01*
X0182380Y0061200D02*
X0188790Y0061200D01*
X0188780Y0061230D02*
X0182390Y0061230D01*
X0182390Y0061250D02*
X0182580Y0061550D01*
X0182830Y0061800D01*
X0183130Y0061990D01*
X0183460Y0062110D01*
X0183810Y0062140D01*
X0187360Y0062140D01*
X0187710Y0062110D01*
X0188040Y0061990D01*
X0188340Y0061800D01*
X0188590Y0061550D01*
X0188770Y0061250D01*
X0188760Y0061280D02*
X0182410Y0061280D01*
X0182420Y0061300D02*
X0188740Y0061300D01*
X0188730Y0061330D02*
X0182440Y0061330D01*
X0182450Y0061350D02*
X0188710Y0061350D01*
X0188700Y0061380D02*
X0182470Y0061380D01*
X0182490Y0061400D02*
X0188680Y0061400D01*
X0188670Y0061420D02*
X0182500Y0061420D01*
X0182520Y0061450D02*
X0188650Y0061450D01*
X0188640Y0061470D02*
X0182530Y0061470D01*
X0182550Y0061500D02*
X0188620Y0061500D01*
X0188610Y0061520D02*
X0182560Y0061520D01*
X0182580Y0061550D02*
X0188590Y0061550D01*
X0188570Y0061570D02*
X0182600Y0061570D01*
X0182620Y0061590D02*
X0188540Y0061590D01*
X0188520Y0061620D02*
X0182650Y0061620D01*
X0182670Y0061640D02*
X0188500Y0061640D01*
X0188470Y0061670D02*
X0182700Y0061670D01*
X0182720Y0061690D02*
X0188450Y0061690D01*
X0188420Y0061720D02*
X0182750Y0061720D01*
X0182770Y0061740D02*
X0188400Y0061740D01*
X0188370Y0061770D02*
X0182790Y0061770D01*
X0182820Y0061790D02*
X0188350Y0061790D01*
X0188320Y0061810D02*
X0182850Y0061810D01*
X0182890Y0061840D02*
X0188280Y0061840D01*
X0188240Y0061860D02*
X0182930Y0061860D01*
X0182970Y0061890D02*
X0188200Y0061890D01*
X0188160Y0061910D02*
X0183010Y0061910D01*
X0183040Y0061940D02*
X0188120Y0061940D01*
X0188090Y0061960D02*
X0183080Y0061960D01*
X0183120Y0061980D02*
X0188050Y0061980D01*
X0187980Y0062010D02*
X0183190Y0062010D01*
X0183260Y0062030D02*
X0187910Y0062030D01*
X0187840Y0062060D02*
X0183330Y0062060D01*
X0183400Y0062080D02*
X0187770Y0062080D01*
X0187700Y0062110D02*
X0183470Y0062110D01*
X0183690Y0062130D02*
X0187480Y0062130D01*
X0187360Y0062140D02*
X0183810Y0062140D01*
X0010000Y0084300D02*
G75*
%LPD*%
D33*
X0182390Y0105450D02*
X0182280Y0105780D01*
X0182240Y0106130D01*
X0182280Y0106480D01*
X0182390Y0106810D01*
X0182580Y0107110D01*
X0188590Y0107110D01*
X0188770Y0106810D01*
X0188890Y0106480D01*
X0188930Y0106130D01*
X0188890Y0105780D01*
X0188770Y0105450D01*
X0188590Y0105150D01*
X0188340Y0104900D01*
X0188040Y0104710D01*
X0187710Y0104590D01*
X0187360Y0104560D01*
X0183810Y0104560D01*
X0183460Y0104590D01*
X0183130Y0104710D01*
X0182830Y0104900D01*
X0182580Y0105150D01*
X0182390Y0105450D01*
X0188780Y0105450D01*
X0188760Y0105430D02*
X0182400Y0105430D01*
X0182420Y0105400D02*
X0188750Y0105400D01*
X0188730Y0105380D02*
X0182440Y0105380D01*
X0182450Y0105360D02*
X0188720Y0105360D01*
X0188700Y0105330D02*
X0182470Y0105330D01*
X0182480Y0105310D02*
X0188690Y0105310D01*
X0188670Y0105280D02*
X0182500Y0105280D01*
X0182510Y0105260D02*
X0188660Y0105260D01*
X0188640Y0105230D02*
X0182530Y0105230D01*
X0182540Y0105210D02*
X0188630Y0105210D01*
X0188610Y0105190D02*
X0182560Y0105190D01*
X0182570Y0105160D02*
X0188600Y0105160D01*
X0188580Y0105140D02*
X0182590Y0105140D01*
X0182620Y0105110D02*
X0188550Y0105110D01*
X0188530Y0105090D02*
X0182640Y0105090D01*
X0182670Y0105060D02*
X0188500Y0105060D01*
X0188480Y0105040D02*
X0182690Y0105040D01*
X0182710Y0105010D02*
X0188450Y0105010D01*
X0188430Y0104990D02*
X0182740Y0104990D01*
X0182760Y0104970D02*
X0188400Y0104970D01*
X0188380Y0104940D02*
X0182790Y0104940D01*
X0182810Y0104920D02*
X0188360Y0104920D01*
X0188330Y0104890D02*
X0182840Y0104890D01*
X0182880Y0104870D02*
X0188290Y0104870D01*
X0188250Y0104840D02*
X0182920Y0104840D01*
X0182960Y0104820D02*
X0188210Y0104820D01*
X0188170Y0104800D02*
X0183000Y0104800D01*
X0183030Y0104770D02*
X0188130Y0104770D01*
X0188100Y0104750D02*
X0183070Y0104750D01*
X0183110Y0104720D02*
X0188060Y0104720D01*
X0188000Y0104700D02*
X0183170Y0104700D01*
X0183240Y0104670D02*
X0187930Y0104670D01*
X0187860Y0104650D02*
X0183310Y0104650D01*
X0183380Y0104620D02*
X0187790Y0104620D01*
X0187720Y0104600D02*
X0183450Y0104600D01*
X0183630Y0104580D02*
X0187540Y0104580D01*
X0187360Y0104560D02*
X0183810Y0104560D01*
X0182380Y0105480D02*
X0188790Y0105480D01*
X0188790Y0105500D02*
X0182370Y0105500D01*
X0182370Y0105530D02*
X0188800Y0105530D01*
X0188810Y0105550D02*
X0182360Y0105550D01*
X0182350Y0105580D02*
X0188820Y0105580D01*
X0188830Y0105600D02*
X0182340Y0105600D01*
X0182330Y0105620D02*
X0188840Y0105620D01*
X0188850Y0105650D02*
X0182320Y0105650D01*
X0182310Y0105670D02*
X0188850Y0105670D01*
X0188860Y0105700D02*
X0182310Y0105700D01*
X0182300Y0105720D02*
X0188870Y0105720D01*
X0188880Y0105750D02*
X0182290Y0105750D01*
X0182280Y0105770D02*
X0188890Y0105770D01*
X0188890Y0105790D02*
X0182280Y0105790D01*
X0182270Y0105820D02*
X0188900Y0105820D01*
X0188900Y0105840D02*
X0182270Y0105840D01*
X0182270Y0105870D02*
X0188900Y0105870D01*
X0188900Y0105890D02*
X0182260Y0105890D01*
X0182260Y0105920D02*
X0188910Y0105920D01*
X0188910Y0105940D02*
X0182260Y0105940D01*
X0182260Y0105970D02*
X0188910Y0105970D01*
X0188910Y0105990D02*
X0182250Y0105990D01*
X0182250Y0106010D02*
X0188920Y0106010D01*
X0188920Y0106040D02*
X0182250Y0106040D01*
X0182250Y0106060D02*
X0188920Y0106060D01*
X0188930Y0106090D02*
X0182240Y0106090D01*
X0182240Y0106110D02*
X0188930Y0106110D01*
X0188930Y0106140D02*
X0182240Y0106140D01*
X0182240Y0106160D02*
X0188930Y0106160D01*
X0188920Y0106180D02*
X0182240Y0106180D01*
X0182250Y0106210D02*
X0188920Y0106210D01*
X0188920Y0106230D02*
X0182250Y0106230D01*
X0182250Y0106260D02*
X0188920Y0106260D01*
X0188910Y0106280D02*
X0182250Y0106280D01*
X0182260Y0106310D02*
X0188910Y0106310D01*
X0188910Y0106330D02*
X0182260Y0106330D01*
X0182260Y0106350D02*
X0188910Y0106350D01*
X0188900Y0106380D02*
X0182270Y0106380D01*
X0182270Y0106400D02*
X0188900Y0106400D01*
X0188900Y0106430D02*
X0182270Y0106430D01*
X0182270Y0106450D02*
X0188890Y0106450D01*
X0188890Y0106480D02*
X0182280Y0106480D01*
X0182280Y0106500D02*
X0188880Y0106500D01*
X0188880Y0106530D02*
X0182290Y0106530D01*
X0182300Y0106550D02*
X0188870Y0106550D01*
X0188860Y0106570D02*
X0182310Y0106570D01*
X0182320Y0106600D02*
X0188850Y0106600D01*
X0188840Y0106620D02*
X0182330Y0106620D01*
X0182340Y0106650D02*
X0188830Y0106650D01*
X0188820Y0106670D02*
X0182340Y0106670D01*
X0182350Y0106700D02*
X0188820Y0106700D01*
X0188810Y0106720D02*
X0182360Y0106720D01*
X0182370Y0106740D02*
X0188800Y0106740D01*
X0188790Y0106770D02*
X0182380Y0106770D01*
X0182390Y0106790D02*
X0188780Y0106790D01*
X0188770Y0106820D02*
X0182400Y0106820D01*
X0182410Y0106840D02*
X0188760Y0106840D01*
X0188740Y0106870D02*
X0182430Y0106870D01*
X0182440Y0106890D02*
X0188730Y0106890D01*
X0188710Y0106920D02*
X0182460Y0106920D01*
X0182470Y0106940D02*
X0188700Y0106940D01*
X0188680Y0106960D02*
X0182490Y0106960D01*
X0182500Y0106990D02*
X0188660Y0106990D01*
X0188650Y0107010D02*
X0182520Y0107010D01*
X0182530Y0107040D02*
X0188630Y0107040D01*
X0188620Y0107060D02*
X0182550Y0107060D01*
X0182570Y0107090D02*
X0188600Y0107090D01*
X0188590Y0107110D02*
X0188340Y0107360D01*
X0188040Y0107550D01*
X0187710Y0107670D01*
X0187360Y0107700D01*
X0183810Y0107700D01*
X0183460Y0107670D01*
X0183130Y0107550D01*
X0188040Y0107550D01*
X0188080Y0107520D02*
X0183090Y0107520D01*
X0183050Y0107500D02*
X0188120Y0107500D01*
X0188150Y0107480D02*
X0183010Y0107480D01*
X0182970Y0107450D02*
X0188190Y0107450D01*
X0188230Y0107430D02*
X0182940Y0107430D01*
X0182900Y0107400D02*
X0188270Y0107400D01*
X0188310Y0107380D02*
X0182860Y0107380D01*
X0182830Y0107360D02*
X0183130Y0107550D01*
X0183200Y0107570D02*
X0187970Y0107570D01*
X0187900Y0107600D02*
X0183270Y0107600D01*
X0183340Y0107620D02*
X0187830Y0107620D01*
X0187760Y0107650D02*
X0183410Y0107650D01*
X0183510Y0107670D02*
X0187650Y0107670D01*
X0187440Y0107700D02*
X0183730Y0107700D01*
X0183810Y0107700D02*
X0187360Y0107700D01*
X0188340Y0107350D02*
X0182820Y0107350D01*
X0182830Y0107360D02*
X0182580Y0107110D01*
X0182600Y0107130D02*
X0188560Y0107130D01*
X0188540Y0107160D02*
X0182630Y0107160D01*
X0182650Y0107180D02*
X0188520Y0107180D01*
X0188490Y0107210D02*
X0182680Y0107210D01*
X0182700Y0107230D02*
X0188470Y0107230D01*
X0188440Y0107260D02*
X0182730Y0107260D01*
X0182750Y0107280D02*
X0188420Y0107280D01*
X0188390Y0107310D02*
X0182780Y0107310D01*
X0182800Y0107330D02*
X0188370Y0107330D01*
X0203100Y0106130D02*
X0203140Y0106480D01*
X0203260Y0106810D01*
X0203450Y0107110D01*
X0203700Y0107360D01*
X0204000Y0107550D01*
X0208900Y0107550D01*
X0208910Y0107550D02*
X0209200Y0107360D01*
X0209450Y0107110D01*
X0209640Y0106810D01*
X0209760Y0106480D01*
X0209800Y0106130D01*
X0209760Y0105780D01*
X0209640Y0105450D01*
X0209450Y0105150D01*
X0209200Y0104900D01*
X0208910Y0104710D01*
X0208570Y0104590D01*
X0208220Y0104560D01*
X0204680Y0104560D01*
X0204330Y0104590D01*
X0204000Y0104710D01*
X0203700Y0104900D01*
X0203450Y0105150D01*
X0203260Y0105450D01*
X0203140Y0105780D01*
X0203100Y0106130D01*
X0203100Y0106140D02*
X0209800Y0106140D01*
X0209790Y0106160D02*
X0203110Y0106160D01*
X0203110Y0106180D02*
X0209790Y0106180D01*
X0209790Y0106210D02*
X0203110Y0106210D01*
X0203120Y0106230D02*
X0209790Y0106230D01*
X0209780Y0106260D02*
X0203120Y0106260D01*
X0203120Y0106280D02*
X0209780Y0106280D01*
X0209780Y0106310D02*
X0203120Y0106310D01*
X0203130Y0106330D02*
X0209770Y0106330D01*
X0209770Y0106350D02*
X0203130Y0106350D01*
X0203130Y0106380D02*
X0209770Y0106380D01*
X0209770Y0106400D02*
X0203130Y0106400D01*
X0203140Y0106430D02*
X0209760Y0106430D01*
X0209760Y0106450D02*
X0203140Y0106450D01*
X0203140Y0106480D02*
X0209760Y0106480D01*
X0209750Y0106500D02*
X0203150Y0106500D01*
X0203160Y0106530D02*
X0209740Y0106530D01*
X0209730Y0106550D02*
X0203170Y0106550D01*
X0203180Y0106570D02*
X0209720Y0106570D01*
X0209720Y0106600D02*
X0203180Y0106600D01*
X0203190Y0106620D02*
X0209710Y0106620D01*
X0209700Y0106650D02*
X0203200Y0106650D01*
X0203210Y0106670D02*
X0209690Y0106670D01*
X0209680Y0106700D02*
X0203220Y0106700D01*
X0203230Y0106720D02*
X0209670Y0106720D01*
X0209660Y0106740D02*
X0203240Y0106740D01*
X0203240Y0106770D02*
X0209660Y0106770D01*
X0209650Y0106790D02*
X0203250Y0106790D01*
X0203260Y0106820D02*
X0209640Y0106820D01*
X0209620Y0106840D02*
X0203280Y0106840D01*
X0203290Y0106870D02*
X0209610Y0106870D01*
X0209590Y0106890D02*
X0203310Y0106890D01*
X0203320Y0106920D02*
X0209580Y0106920D01*
X0209560Y0106940D02*
X0203340Y0106940D01*
X0203350Y0106960D02*
X0209550Y0106960D01*
X0209530Y0106990D02*
X0203370Y0106990D01*
X0203390Y0107010D02*
X0209520Y0107010D01*
X0209500Y0107040D02*
X0203400Y0107040D01*
X0203420Y0107060D02*
X0209480Y0107060D01*
X0209470Y0107090D02*
X0203430Y0107090D01*
X0203450Y0107110D02*
X0209450Y0107110D01*
X0209430Y0107130D02*
X0203470Y0107130D01*
X0203490Y0107160D02*
X0209410Y0107160D01*
X0209380Y0107180D02*
X0203520Y0107180D01*
X0203540Y0107210D02*
X0209360Y0107210D01*
X0209330Y0107230D02*
X0203570Y0107230D01*
X0203590Y0107260D02*
X0209310Y0107260D01*
X0209280Y0107280D02*
X0203620Y0107280D01*
X0203640Y0107310D02*
X0209260Y0107310D01*
X0209240Y0107330D02*
X0203670Y0107330D01*
X0203690Y0107350D02*
X0209210Y0107350D01*
X0209180Y0107380D02*
X0203720Y0107380D01*
X0203760Y0107400D02*
X0209140Y0107400D01*
X0209100Y0107430D02*
X0203800Y0107430D01*
X0203840Y0107450D02*
X0209060Y0107450D01*
X0209020Y0107480D02*
X0203880Y0107480D01*
X0203920Y0107500D02*
X0208980Y0107500D01*
X0208940Y0107520D02*
X0203960Y0107520D01*
X0204000Y0107550D02*
X0204330Y0107670D01*
X0204680Y0107700D01*
X0208220Y0107700D01*
X0208570Y0107670D01*
X0208910Y0107550D01*
X0208830Y0107570D02*
X0204070Y0107570D01*
X0204140Y0107600D02*
X0208760Y0107600D01*
X0208700Y0107620D02*
X0204210Y0107620D01*
X0204280Y0107650D02*
X0208630Y0107650D01*
X0208520Y0107670D02*
X0204380Y0107670D01*
X0204600Y0107700D02*
X0208300Y0107700D01*
X0208220Y0107700D02*
X0204680Y0107700D01*
X0203110Y0106110D02*
X0209790Y0106110D01*
X0209790Y0106090D02*
X0203110Y0106090D01*
X0203110Y0106060D02*
X0209790Y0106060D01*
X0209790Y0106040D02*
X0203110Y0106040D01*
X0203120Y0106010D02*
X0209780Y0106010D01*
X0209780Y0105990D02*
X0203120Y0105990D01*
X0203120Y0105970D02*
X0209780Y0105970D01*
X0209780Y0105940D02*
X0203130Y0105940D01*
X0203130Y0105920D02*
X0209770Y0105920D01*
X0209770Y0105890D02*
X0203130Y0105890D01*
X0203130Y0105870D02*
X0209770Y0105870D01*
X0209760Y0105840D02*
X0203140Y0105840D01*
X0203140Y0105820D02*
X0209760Y0105820D01*
X0209760Y0105790D02*
X0203140Y0105790D01*
X0203150Y0105770D02*
X0209750Y0105770D01*
X0209750Y0105750D02*
X0203160Y0105750D01*
X0203160Y0105720D02*
X0209740Y0105720D01*
X0209730Y0105700D02*
X0203170Y0105700D01*
X0203180Y0105670D02*
X0209720Y0105670D01*
X0209710Y0105650D02*
X0203190Y0105650D01*
X0203200Y0105620D02*
X0209700Y0105620D01*
X0209690Y0105600D02*
X0203210Y0105600D01*
X0203210Y0105580D02*
X0209690Y0105580D01*
X0209680Y0105550D02*
X0203220Y0105550D01*
X0203230Y0105530D02*
X0209670Y0105530D01*
X0209660Y0105500D02*
X0203240Y0105500D01*
X0203250Y0105480D02*
X0209650Y0105480D01*
X0209640Y0105450D02*
X0203260Y0105450D01*
X0203270Y0105430D02*
X0209630Y0105430D01*
X0209610Y0105400D02*
X0203290Y0105400D01*
X0203300Y0105380D02*
X0209600Y0105380D01*
X0209580Y0105360D02*
X0203320Y0105360D01*
X0203330Y0105330D02*
X0209570Y0105330D01*
X0209550Y0105310D02*
X0203350Y0105310D01*
X0203360Y0105280D02*
X0209540Y0105280D01*
X0209520Y0105260D02*
X0203380Y0105260D01*
X0203390Y0105230D02*
X0209510Y0105230D01*
X0209490Y0105210D02*
X0203410Y0105210D01*
X0203420Y0105190D02*
X0209480Y0105190D01*
X0209460Y0105160D02*
X0203440Y0105160D01*
X0203460Y0105140D02*
X0209440Y0105140D01*
X0209420Y0105110D02*
X0203480Y0105110D01*
X0203510Y0105090D02*
X0209390Y0105090D01*
X0209370Y0105060D02*
X0203530Y0105060D01*
X0203560Y0105040D02*
X0209340Y0105040D01*
X0209320Y0105010D02*
X0203580Y0105010D01*
X0203610Y0104990D02*
X0209300Y0104990D01*
X0209270Y0104970D02*
X0203630Y0104970D01*
X0203650Y0104940D02*
X0209250Y0104940D01*
X0209220Y0104920D02*
X0203680Y0104920D01*
X0203710Y0104890D02*
X0209190Y0104890D01*
X0209160Y0104870D02*
X0203750Y0104870D01*
X0203780Y0104840D02*
X0209120Y0104840D01*
X0209080Y0104820D02*
X0203820Y0104820D01*
X0203860Y0104800D02*
X0209040Y0104800D01*
X0209000Y0104770D02*
X0203900Y0104770D01*
X0203940Y0104750D02*
X0208960Y0104750D01*
X0208920Y0104720D02*
X0203980Y0104720D01*
X0204030Y0104700D02*
X0208870Y0104700D01*
X0208800Y0104670D02*
X0204100Y0104670D01*
X0204170Y0104650D02*
X0208730Y0104650D01*
X0208660Y0104620D02*
X0204240Y0104620D01*
X0204310Y0104600D02*
X0208590Y0104600D01*
X0208410Y0104580D02*
X0204500Y0104580D01*
X0204680Y0104560D02*
X0208220Y0104560D01*
X0208220Y0133300D02*
X0204680Y0133300D01*
X0204330Y0133330D01*
X0204000Y0133450D01*
X0203700Y0133640D01*
X0203450Y0133890D01*
X0203260Y0134190D01*
X0209640Y0134190D01*
X0209450Y0133890D01*
X0209200Y0133640D01*
X0208910Y0133450D01*
X0208570Y0133330D01*
X0208220Y0133300D01*
X0204680Y0133300D01*
X0204540Y0133310D02*
X0208360Y0133310D01*
X0208570Y0133340D02*
X0204330Y0133340D01*
X0204260Y0133360D02*
X0208640Y0133360D01*
X0208710Y0133380D02*
X0204190Y0133380D01*
X0204120Y0133410D02*
X0208780Y0133410D01*
X0208850Y0133430D02*
X0204050Y0133430D01*
X0203990Y0133460D02*
X0208910Y0133460D01*
X0208950Y0133480D02*
X0203950Y0133480D01*
X0203910Y0133510D02*
X0208990Y0133510D01*
X0209030Y0133530D02*
X0203870Y0133530D01*
X0203830Y0133550D02*
X0209070Y0133550D01*
X0209110Y0133580D02*
X0203790Y0133580D01*
X0203750Y0133600D02*
X0209150Y0133600D01*
X0209190Y0133630D02*
X0203710Y0133630D01*
X0203680Y0133650D02*
X0209220Y0133650D01*
X0209240Y0133680D02*
X0203660Y0133680D01*
X0203630Y0133700D02*
X0209270Y0133700D01*
X0209290Y0133730D02*
X0203610Y0133730D01*
X0203590Y0133750D02*
X0209310Y0133750D01*
X0209340Y0133770D02*
X0203560Y0133770D01*
X0203540Y0133800D02*
X0209360Y0133800D01*
X0209390Y0133820D02*
X0203510Y0133820D01*
X0203490Y0133850D02*
X0209410Y0133850D01*
X0209440Y0133870D02*
X0203460Y0133870D01*
X0203440Y0133900D02*
X0209460Y0133900D01*
X0209470Y0133920D02*
X0203430Y0133920D01*
X0203410Y0133940D02*
X0209490Y0133940D01*
X0209500Y0133970D02*
X0203400Y0133970D01*
X0203380Y0133990D02*
X0209520Y0133990D01*
X0209530Y0134020D02*
X0203370Y0134020D01*
X0203350Y0134040D02*
X0209550Y0134040D01*
X0209570Y0134070D02*
X0203340Y0134070D01*
X0203320Y0134090D02*
X0209580Y0134090D01*
X0209600Y0134120D02*
X0203300Y0134120D01*
X0203290Y0134140D02*
X0209610Y0134140D01*
X0209630Y0134160D02*
X0203270Y0134160D01*
X0203260Y0134190D02*
X0203140Y0134520D01*
X0203100Y0134870D01*
X0203140Y0135220D01*
X0203260Y0135550D01*
X0209640Y0135550D01*
X0209760Y0135220D01*
X0209800Y0134870D01*
X0209760Y0134520D01*
X0209640Y0134190D01*
X0209650Y0134210D02*
X0203250Y0134210D01*
X0203240Y0134240D02*
X0209660Y0134240D01*
X0209670Y0134260D02*
X0203230Y0134260D01*
X0203230Y0134290D02*
X0209680Y0134290D01*
X0209680Y0134310D02*
X0203220Y0134310D01*
X0203210Y0134330D02*
X0209690Y0134330D01*
X0209700Y0134360D02*
X0203200Y0134360D01*
X0203190Y0134380D02*
X0209710Y0134380D01*
X0209720Y0134410D02*
X0203180Y0134410D01*
X0203170Y0134430D02*
X0209730Y0134430D01*
X0209740Y0134460D02*
X0203170Y0134460D01*
X0203160Y0134480D02*
X0209740Y0134480D01*
X0209750Y0134510D02*
X0203150Y0134510D01*
X0203140Y0134530D02*
X0209760Y0134530D01*
X0209760Y0134550D02*
X0203140Y0134550D01*
X0203140Y0134580D02*
X0209760Y0134580D01*
X0209770Y0134600D02*
X0203130Y0134600D01*
X0203130Y0134630D02*
X0209770Y0134630D01*
X0209770Y0134650D02*
X0203130Y0134650D01*
X0203130Y0134680D02*
X0209770Y0134680D01*
X0209780Y0134700D02*
X0203120Y0134700D01*
X0203120Y0134720D02*
X0209780Y0134720D01*
X0209780Y0134750D02*
X0203120Y0134750D01*
X0203110Y0134770D02*
X0209790Y0134770D01*
X0209790Y0134800D02*
X0203110Y0134800D01*
X0203110Y0134820D02*
X0209790Y0134820D01*
X0209790Y0134850D02*
X0203110Y0134850D01*
X0203100Y0134870D02*
X0209800Y0134870D01*
X0209790Y0134900D02*
X0203110Y0134900D01*
X0203110Y0134920D02*
X0209790Y0134920D01*
X0209790Y0134940D02*
X0203110Y0134940D01*
X0203110Y0134970D02*
X0209790Y0134970D01*
X0209780Y0134990D02*
X0203120Y0134990D01*
X0203120Y0135020D02*
X0209780Y0135020D01*
X0209780Y0135040D02*
X0203120Y0135040D01*
X0203130Y0135070D02*
X0209770Y0135070D01*
X0209770Y0135090D02*
X0203130Y0135090D01*
X0203130Y0135110D02*
X0209770Y0135110D01*
X0209770Y0135140D02*
X0203130Y0135140D01*
X0203140Y0135160D02*
X0209760Y0135160D01*
X0209760Y0135190D02*
X0203140Y0135190D01*
X0203140Y0135210D02*
X0209760Y0135210D01*
X0209750Y0135240D02*
X0203150Y0135240D01*
X0203160Y0135260D02*
X0209740Y0135260D01*
X0209730Y0135290D02*
X0203170Y0135290D01*
X0203170Y0135310D02*
X0209730Y0135310D01*
X0209720Y0135330D02*
X0203180Y0135330D01*
X0203190Y0135360D02*
X0209710Y0135360D01*
X0209700Y0135380D02*
X0203200Y0135380D01*
X0203210Y0135410D02*
X0209690Y0135410D01*
X0209680Y0135430D02*
X0203220Y0135430D01*
X0203230Y0135460D02*
X0209680Y0135460D01*
X0209670Y0135480D02*
X0203230Y0135480D01*
X0203240Y0135500D02*
X0209660Y0135500D01*
X0209650Y0135530D02*
X0203250Y0135530D01*
X0203260Y0135550D02*
X0203450Y0135850D01*
X0203700Y0136100D01*
X0204000Y0136290D01*
X0204330Y0136410D01*
X0204680Y0136440D01*
X0208220Y0136440D01*
X0208570Y0136410D01*
X0208910Y0136290D01*
X0209200Y0136100D01*
X0209450Y0135850D01*
X0209640Y0135550D01*
X0209630Y0135580D02*
X0203280Y0135580D01*
X0203290Y0135600D02*
X0209610Y0135600D01*
X0209600Y0135630D02*
X0203310Y0135630D01*
X0203320Y0135650D02*
X0209580Y0135650D01*
X0209560Y0135680D02*
X0203340Y0135680D01*
X0203350Y0135700D02*
X0209550Y0135700D01*
X0209530Y0135720D02*
X0203370Y0135720D01*
X0203380Y0135750D02*
X0209520Y0135750D01*
X0209500Y0135770D02*
X0203400Y0135770D01*
X0203410Y0135800D02*
X0209490Y0135800D01*
X0209470Y0135820D02*
X0203430Y0135820D01*
X0203440Y0135850D02*
X0209460Y0135850D01*
X0209440Y0135870D02*
X0203470Y0135870D01*
X0203490Y0135890D02*
X0209410Y0135890D01*
X0209390Y0135920D02*
X0203510Y0135920D01*
X0203540Y0135940D02*
X0209360Y0135940D01*
X0209340Y0135970D02*
X0203560Y0135970D01*
X0203590Y0135990D02*
X0209310Y0135990D01*
X0209290Y0136020D02*
X0203610Y0136020D01*
X0203640Y0136040D02*
X0209260Y0136040D01*
X0209240Y0136070D02*
X0203660Y0136070D01*
X0203690Y0136090D02*
X0209220Y0136090D01*
X0209180Y0136110D02*
X0203720Y0136110D01*
X0203760Y0136140D02*
X0209150Y0136140D01*
X0209110Y0136160D02*
X0203790Y0136160D01*
X0203830Y0136190D02*
X0209070Y0136190D01*
X0209030Y0136210D02*
X0203870Y0136210D01*
X0203910Y0136240D02*
X0208990Y0136240D01*
X0208950Y0136260D02*
X0203950Y0136260D01*
X0203990Y0136280D02*
X0208910Y0136280D01*
X0208850Y0136310D02*
X0204050Y0136310D01*
X0204120Y0136330D02*
X0208780Y0136330D01*
X0208710Y0136360D02*
X0204190Y0136360D01*
X0204260Y0136380D02*
X0208640Y0136380D01*
X0208560Y0136410D02*
X0204340Y0136410D01*
X0204550Y0136430D02*
X0208350Y0136430D01*
X0208220Y0136440D02*
X0204680Y0136440D01*
X0188930Y0134870D02*
X0188890Y0134520D01*
X0188770Y0134190D01*
X0188780Y0134190D02*
X0182390Y0134190D01*
X0182280Y0134520D01*
X0182240Y0134870D01*
X0182280Y0135220D01*
X0182390Y0135550D01*
X0188770Y0135550D01*
X0188890Y0135220D01*
X0188930Y0134870D01*
X0182240Y0134870D01*
X0182240Y0134850D02*
X0188930Y0134850D01*
X0188930Y0134820D02*
X0182240Y0134820D01*
X0182250Y0134800D02*
X0188920Y0134800D01*
X0188920Y0134770D02*
X0182250Y0134770D01*
X0182250Y0134750D02*
X0188920Y0134750D01*
X0188910Y0134720D02*
X0182250Y0134720D01*
X0182260Y0134700D02*
X0188910Y0134700D01*
X0188910Y0134680D02*
X0182260Y0134680D01*
X0182260Y0134650D02*
X0188910Y0134650D01*
X0188900Y0134630D02*
X0182270Y0134630D01*
X0182270Y0134600D02*
X0188900Y0134600D01*
X0188900Y0134580D02*
X0182270Y0134580D01*
X0182270Y0134550D02*
X0188900Y0134550D01*
X0188890Y0134530D02*
X0182280Y0134530D01*
X0182280Y0134510D02*
X0188890Y0134510D01*
X0188880Y0134480D02*
X0182290Y0134480D01*
X0182300Y0134460D02*
X0188870Y0134460D01*
X0188860Y0134430D02*
X0182310Y0134430D01*
X0182320Y0134410D02*
X0188850Y0134410D01*
X0188840Y0134380D02*
X0182320Y0134380D01*
X0182330Y0134360D02*
X0188840Y0134360D01*
X0188830Y0134330D02*
X0182340Y0134330D01*
X0182350Y0134310D02*
X0188820Y0134310D01*
X0188810Y0134290D02*
X0182360Y0134290D01*
X0182370Y0134260D02*
X0188800Y0134260D01*
X0188790Y0134240D02*
X0182380Y0134240D01*
X0182380Y0134210D02*
X0188780Y0134210D01*
X0188770Y0134190D02*
X0188590Y0133890D01*
X0188340Y0133640D01*
X0188040Y0133450D01*
X0187710Y0133330D01*
X0187710Y0133340D02*
X0183460Y0133340D01*
X0183460Y0133330D02*
X0183130Y0133450D01*
X0182830Y0133640D01*
X0182580Y0133890D01*
X0182390Y0134190D01*
X0182410Y0134160D02*
X0188760Y0134160D01*
X0188750Y0134140D02*
X0182420Y0134140D01*
X0182440Y0134120D02*
X0188730Y0134120D01*
X0188710Y0134090D02*
X0182450Y0134090D01*
X0182470Y0134070D02*
X0188700Y0134070D01*
X0188680Y0134040D02*
X0182480Y0134040D01*
X0182500Y0134020D02*
X0188670Y0134020D01*
X0188650Y0133990D02*
X0182520Y0133990D01*
X0182530Y0133970D02*
X0188640Y0133970D01*
X0188620Y0133940D02*
X0182550Y0133940D01*
X0182560Y0133920D02*
X0188610Y0133920D01*
X0188590Y0133900D02*
X0182580Y0133900D01*
X0182600Y0133870D02*
X0188570Y0133870D01*
X0188550Y0133850D02*
X0182620Y0133850D01*
X0182650Y0133820D02*
X0188520Y0133820D01*
X0188500Y0133800D02*
X0182670Y0133800D01*
X0182700Y0133770D02*
X0188470Y0133770D01*
X0188450Y0133750D02*
X0182720Y0133750D01*
X0182740Y0133730D02*
X0188420Y0133730D01*
X0188400Y0133700D02*
X0182770Y0133700D01*
X0182790Y0133680D02*
X0188380Y0133680D01*
X0188350Y0133650D02*
X0182820Y0133650D01*
X0182850Y0133630D02*
X0188320Y0133630D01*
X0188280Y0133600D02*
X0182890Y0133600D01*
X0182930Y0133580D02*
X0188240Y0133580D01*
X0188200Y0133550D02*
X0182960Y0133550D01*
X0183000Y0133530D02*
X0188170Y0133530D01*
X0188130Y0133510D02*
X0183040Y0133510D01*
X0183080Y0133480D02*
X0188090Y0133480D01*
X0188050Y0133460D02*
X0183120Y0133460D01*
X0183180Y0133430D02*
X0187990Y0133430D01*
X0187920Y0133410D02*
X0183250Y0133410D01*
X0183320Y0133380D02*
X0187850Y0133380D01*
X0187780Y0133360D02*
X0183390Y0133360D01*
X0183460Y0133330D02*
X0183810Y0133300D01*
X0187360Y0133300D01*
X0187710Y0133330D01*
X0187500Y0133310D02*
X0183670Y0133310D01*
X0183810Y0133300D02*
X0187360Y0133300D01*
X0188930Y0134900D02*
X0182240Y0134900D01*
X0182240Y0134920D02*
X0188930Y0134920D01*
X0188920Y0134940D02*
X0182250Y0134940D01*
X0182250Y0134970D02*
X0188920Y0134970D01*
X0188920Y0134990D02*
X0182250Y0134990D01*
X0182250Y0135020D02*
X0188910Y0135020D01*
X0188910Y0135040D02*
X0182260Y0135040D01*
X0182260Y0135070D02*
X0188910Y0135070D01*
X0188910Y0135090D02*
X0182260Y0135090D01*
X0182270Y0135110D02*
X0188900Y0135110D01*
X0188900Y0135140D02*
X0182270Y0135140D01*
X0182270Y0135160D02*
X0188900Y0135160D01*
X0188890Y0135190D02*
X0182270Y0135190D01*
X0182280Y0135210D02*
X0188890Y0135210D01*
X0188890Y0135240D02*
X0182280Y0135240D01*
X0182290Y0135260D02*
X0188880Y0135260D01*
X0188870Y0135290D02*
X0182300Y0135290D01*
X0182310Y0135310D02*
X0188860Y0135310D01*
X0188850Y0135330D02*
X0182320Y0135330D01*
X0182330Y0135360D02*
X0188840Y0135360D01*
X0188830Y0135380D02*
X0182330Y0135380D01*
X0182340Y0135410D02*
X0188830Y0135410D01*
X0188820Y0135430D02*
X0182350Y0135430D01*
X0182360Y0135460D02*
X0188810Y0135460D01*
X0188800Y0135480D02*
X0182370Y0135480D01*
X0182380Y0135500D02*
X0188790Y0135500D01*
X0188780Y0135530D02*
X0182390Y0135530D01*
X0182390Y0135550D02*
X0182580Y0135850D01*
X0182830Y0136100D01*
X0183130Y0136290D01*
X0183460Y0136410D01*
X0183810Y0136440D01*
X0187360Y0136440D01*
X0187710Y0136410D01*
X0188040Y0136290D01*
X0188340Y0136100D01*
X0188590Y0135850D01*
X0188770Y0135550D01*
X0188760Y0135580D02*
X0182410Y0135580D01*
X0182420Y0135600D02*
X0188740Y0135600D01*
X0188730Y0135630D02*
X0182440Y0135630D01*
X0182450Y0135650D02*
X0188710Y0135650D01*
X0188700Y0135680D02*
X0182470Y0135680D01*
X0182490Y0135700D02*
X0188680Y0135700D01*
X0188670Y0135720D02*
X0182500Y0135720D01*
X0182520Y0135750D02*
X0188650Y0135750D01*
X0188640Y0135770D02*
X0182530Y0135770D01*
X0182550Y0135800D02*
X0188620Y0135800D01*
X0188610Y0135820D02*
X0182560Y0135820D01*
X0182580Y0135850D02*
X0188590Y0135850D01*
X0188570Y0135870D02*
X0182600Y0135870D01*
X0182620Y0135890D02*
X0188540Y0135890D01*
X0188520Y0135920D02*
X0182650Y0135920D01*
X0182670Y0135940D02*
X0188500Y0135940D01*
X0188470Y0135970D02*
X0182700Y0135970D01*
X0182720Y0135990D02*
X0188450Y0135990D01*
X0188420Y0136020D02*
X0182750Y0136020D01*
X0182770Y0136040D02*
X0188400Y0136040D01*
X0188370Y0136070D02*
X0182790Y0136070D01*
X0182820Y0136090D02*
X0188350Y0136090D01*
X0188320Y0136110D02*
X0182850Y0136110D01*
X0182890Y0136140D02*
X0188280Y0136140D01*
X0188240Y0136160D02*
X0182930Y0136160D01*
X0182970Y0136190D02*
X0188200Y0136190D01*
X0188160Y0136210D02*
X0183010Y0136210D01*
X0183040Y0136240D02*
X0188120Y0136240D01*
X0188090Y0136260D02*
X0183080Y0136260D01*
X0183120Y0136280D02*
X0188050Y0136280D01*
X0187980Y0136310D02*
X0183190Y0136310D01*
X0183260Y0136330D02*
X0187910Y0136330D01*
X0187840Y0136360D02*
X0183330Y0136360D01*
X0183400Y0136380D02*
X0187770Y0136380D01*
X0187700Y0136410D02*
X0183470Y0136410D01*
X0183690Y0136430D02*
X0187480Y0136430D01*
X0187360Y0136440D02*
X0183810Y0136440D01*
X0010000Y0158600D02*
G75*
%LPD*%
D33*
X0182390Y0179750D02*
X0182280Y0180080D01*
X0182240Y0180430D01*
X0182280Y0180780D01*
X0182390Y0181110D01*
X0182580Y0181410D01*
X0188590Y0181410D01*
X0188770Y0181110D01*
X0188890Y0180780D01*
X0188930Y0180430D01*
X0188890Y0180080D01*
X0188770Y0179750D01*
X0188590Y0179450D01*
X0188340Y0179200D01*
X0188040Y0179010D01*
X0187710Y0178890D01*
X0187360Y0178860D01*
X0183810Y0178860D01*
X0183460Y0178890D01*
X0183130Y0179010D01*
X0182830Y0179200D01*
X0182580Y0179450D01*
X0182390Y0179750D01*
X0188780Y0179750D01*
X0188760Y0179730D02*
X0182400Y0179730D01*
X0182420Y0179700D02*
X0188750Y0179700D01*
X0188730Y0179680D02*
X0182440Y0179680D01*
X0182450Y0179660D02*
X0188720Y0179660D01*
X0188700Y0179630D02*
X0182470Y0179630D01*
X0182480Y0179610D02*
X0188690Y0179610D01*
X0188670Y0179580D02*
X0182500Y0179580D01*
X0182510Y0179560D02*
X0188660Y0179560D01*
X0188640Y0179530D02*
X0182530Y0179530D01*
X0182540Y0179510D02*
X0188630Y0179510D01*
X0188610Y0179490D02*
X0182560Y0179490D01*
X0182570Y0179460D02*
X0188600Y0179460D01*
X0188580Y0179440D02*
X0182590Y0179440D01*
X0182620Y0179410D02*
X0188550Y0179410D01*
X0188530Y0179390D02*
X0182640Y0179390D01*
X0182670Y0179360D02*
X0188500Y0179360D01*
X0188480Y0179340D02*
X0182690Y0179340D01*
X0182710Y0179310D02*
X0188450Y0179310D01*
X0188430Y0179290D02*
X0182740Y0179290D01*
X0182760Y0179270D02*
X0188400Y0179270D01*
X0188380Y0179240D02*
X0182790Y0179240D01*
X0182810Y0179220D02*
X0188360Y0179220D01*
X0188330Y0179190D02*
X0182840Y0179190D01*
X0182880Y0179170D02*
X0188290Y0179170D01*
X0188250Y0179140D02*
X0182920Y0179140D01*
X0182960Y0179120D02*
X0188210Y0179120D01*
X0188170Y0179100D02*
X0183000Y0179100D01*
X0183030Y0179070D02*
X0188130Y0179070D01*
X0188100Y0179050D02*
X0183070Y0179050D01*
X0183110Y0179020D02*
X0188060Y0179020D01*
X0188000Y0179000D02*
X0183170Y0179000D01*
X0183240Y0178970D02*
X0187930Y0178970D01*
X0187860Y0178950D02*
X0183310Y0178950D01*
X0183380Y0178920D02*
X0187790Y0178920D01*
X0187720Y0178900D02*
X0183450Y0178900D01*
X0183630Y0178880D02*
X0187540Y0178880D01*
X0187360Y0178860D02*
X0183810Y0178860D01*
X0182380Y0179780D02*
X0188790Y0179780D01*
X0188790Y0179800D02*
X0182370Y0179800D01*
X0182370Y0179830D02*
X0188800Y0179830D01*
X0188810Y0179850D02*
X0182360Y0179850D01*
X0182350Y0179880D02*
X0188820Y0179880D01*
X0188830Y0179900D02*
X0182340Y0179900D01*
X0182330Y0179920D02*
X0188840Y0179920D01*
X0188850Y0179950D02*
X0182320Y0179950D01*
X0182310Y0179970D02*
X0188850Y0179970D01*
X0188860Y0180000D02*
X0182310Y0180000D01*
X0182300Y0180020D02*
X0188870Y0180020D01*
X0188880Y0180050D02*
X0182290Y0180050D01*
X0182280Y0180070D02*
X0188890Y0180070D01*
X0188890Y0180090D02*
X0182280Y0180090D01*
X0182270Y0180120D02*
X0188900Y0180120D01*
X0188900Y0180140D02*
X0182270Y0180140D01*
X0182270Y0180170D02*
X0188900Y0180170D01*
X0188900Y0180190D02*
X0182260Y0180190D01*
X0182260Y0180220D02*
X0188910Y0180220D01*
X0188910Y0180240D02*
X0182260Y0180240D01*
X0182260Y0180270D02*
X0188910Y0180270D01*
X0188910Y0180290D02*
X0182250Y0180290D01*
X0182250Y0180310D02*
X0188920Y0180310D01*
X0188920Y0180340D02*
X0182250Y0180340D01*
X0182250Y0180360D02*
X0188920Y0180360D01*
X0188930Y0180390D02*
X0182240Y0180390D01*
X0182240Y0180410D02*
X0188930Y0180410D01*
X0188930Y0180440D02*
X0182240Y0180440D01*
X0182240Y0180460D02*
X0188930Y0180460D01*
X0188920Y0180480D02*
X0182240Y0180480D01*
X0182250Y0180510D02*
X0188920Y0180510D01*
X0188920Y0180530D02*
X0182250Y0180530D01*
X0182250Y0180560D02*
X0188920Y0180560D01*
X0188910Y0180580D02*
X0182250Y0180580D01*
X0182260Y0180610D02*
X0188910Y0180610D01*
X0188910Y0180630D02*
X0182260Y0180630D01*
X0182260Y0180650D02*
X0188910Y0180650D01*
X0188900Y0180680D02*
X0182270Y0180680D01*
X0182270Y0180700D02*
X0188900Y0180700D01*
X0188900Y0180730D02*
X0182270Y0180730D01*
X0182270Y0180750D02*
X0188890Y0180750D01*
X0188890Y0180780D02*
X0182280Y0180780D01*
X0182280Y0180800D02*
X0188880Y0180800D01*
X0188880Y0180830D02*
X0182290Y0180830D01*
X0182300Y0180850D02*
X0188870Y0180850D01*
X0188860Y0180870D02*
X0182310Y0180870D01*
X0182320Y0180900D02*
X0188850Y0180900D01*
X0188840Y0180920D02*
X0182330Y0180920D01*
X0182340Y0180950D02*
X0188830Y0180950D01*
X0188820Y0180970D02*
X0182340Y0180970D01*
X0182350Y0181000D02*
X0188820Y0181000D01*
X0188810Y0181020D02*
X0182360Y0181020D01*
X0182370Y0181040D02*
X0188800Y0181040D01*
X0188790Y0181070D02*
X0182380Y0181070D01*
X0182390Y0181090D02*
X0188780Y0181090D01*
X0188770Y0181120D02*
X0182400Y0181120D01*
X0182410Y0181140D02*
X0188760Y0181140D01*
X0188740Y0181170D02*
X0182430Y0181170D01*
X0182440Y0181190D02*
X0188730Y0181190D01*
X0188710Y0181220D02*
X0182460Y0181220D01*
X0182470Y0181240D02*
X0188700Y0181240D01*
X0188680Y0181260D02*
X0182490Y0181260D01*
X0182500Y0181290D02*
X0188660Y0181290D01*
X0188650Y0181310D02*
X0182520Y0181310D01*
X0182530Y0181340D02*
X0188630Y0181340D01*
X0188620Y0181360D02*
X0182550Y0181360D01*
X0182570Y0181390D02*
X0188600Y0181390D01*
X0188590Y0181410D02*
X0188340Y0181660D01*
X0188040Y0181850D01*
X0187710Y0181970D01*
X0187360Y0182000D01*
X0183810Y0182000D01*
X0183460Y0181970D01*
X0183130Y0181850D01*
X0188040Y0181850D01*
X0188080Y0181820D02*
X0183090Y0181820D01*
X0183050Y0181800D02*
X0188120Y0181800D01*
X0188150Y0181780D02*
X0183010Y0181780D01*
X0182970Y0181750D02*
X0188190Y0181750D01*
X0188230Y0181730D02*
X0182940Y0181730D01*
X0182900Y0181700D02*
X0188270Y0181700D01*
X0188310Y0181680D02*
X0182860Y0181680D01*
X0182830Y0181660D02*
X0183130Y0181850D01*
X0183200Y0181870D02*
X0187970Y0181870D01*
X0187900Y0181900D02*
X0183270Y0181900D01*
X0183340Y0181920D02*
X0187830Y0181920D01*
X0187760Y0181950D02*
X0183410Y0181950D01*
X0183510Y0181970D02*
X0187650Y0181970D01*
X0187440Y0182000D02*
X0183730Y0182000D01*
X0183810Y0182000D02*
X0187360Y0182000D01*
X0188340Y0181650D02*
X0182820Y0181650D01*
X0182830Y0181660D02*
X0182580Y0181410D01*
X0182600Y0181430D02*
X0188560Y0181430D01*
X0188540Y0181460D02*
X0182630Y0181460D01*
X0182650Y0181480D02*
X0188520Y0181480D01*
X0188490Y0181510D02*
X0182680Y0181510D01*
X0182700Y0181530D02*
X0188470Y0181530D01*
X0188440Y0181560D02*
X0182730Y0181560D01*
X0182750Y0181580D02*
X0188420Y0181580D01*
X0188390Y0181610D02*
X0182780Y0181610D01*
X0182800Y0181630D02*
X0188370Y0181630D01*
X0203100Y0180430D02*
X0203140Y0180780D01*
X0203260Y0181110D01*
X0203450Y0181410D01*
X0203700Y0181660D01*
X0204000Y0181850D01*
X0208900Y0181850D01*
X0208910Y0181850D02*
X0209200Y0181660D01*
X0209450Y0181410D01*
X0209640Y0181110D01*
X0209760Y0180780D01*
X0209800Y0180430D01*
X0209760Y0180080D01*
X0209640Y0179750D01*
X0209450Y0179450D01*
X0209200Y0179200D01*
X0208910Y0179010D01*
X0208570Y0178890D01*
X0208220Y0178860D01*
X0204680Y0178860D01*
X0204330Y0178890D01*
X0204000Y0179010D01*
X0203700Y0179200D01*
X0203450Y0179450D01*
X0203260Y0179750D01*
X0203140Y0180080D01*
X0203100Y0180430D01*
X0203100Y0180440D02*
X0209800Y0180440D01*
X0209790Y0180460D02*
X0203110Y0180460D01*
X0203110Y0180480D02*
X0209790Y0180480D01*
X0209790Y0180510D02*
X0203110Y0180510D01*
X0203120Y0180530D02*
X0209790Y0180530D01*
X0209780Y0180560D02*
X0203120Y0180560D01*
X0203120Y0180580D02*
X0209780Y0180580D01*
X0209780Y0180610D02*
X0203120Y0180610D01*
X0203130Y0180630D02*
X0209770Y0180630D01*
X0209770Y0180650D02*
X0203130Y0180650D01*
X0203130Y0180680D02*
X0209770Y0180680D01*
X0209770Y0180700D02*
X0203130Y0180700D01*
X0203140Y0180730D02*
X0209760Y0180730D01*
X0209760Y0180750D02*
X0203140Y0180750D01*
X0203140Y0180780D02*
X0209760Y0180780D01*
X0209750Y0180800D02*
X0203150Y0180800D01*
X0203160Y0180830D02*
X0209740Y0180830D01*
X0209730Y0180850D02*
X0203170Y0180850D01*
X0203180Y0180870D02*
X0209720Y0180870D01*
X0209720Y0180900D02*
X0203180Y0180900D01*
X0203190Y0180920D02*
X0209710Y0180920D01*
X0209700Y0180950D02*
X0203200Y0180950D01*
X0203210Y0180970D02*
X0209690Y0180970D01*
X0209680Y0181000D02*
X0203220Y0181000D01*
X0203230Y0181020D02*
X0209670Y0181020D01*
X0209660Y0181040D02*
X0203240Y0181040D01*
X0203240Y0181070D02*
X0209660Y0181070D01*
X0209650Y0181090D02*
X0203250Y0181090D01*
X0203260Y0181120D02*
X0209640Y0181120D01*
X0209620Y0181140D02*
X0203280Y0181140D01*
X0203290Y0181170D02*
X0209610Y0181170D01*
X0209590Y0181190D02*
X0203310Y0181190D01*
X0203320Y0181220D02*
X0209580Y0181220D01*
X0209560Y0181240D02*
X0203340Y0181240D01*
X0203350Y0181260D02*
X0209550Y0181260D01*
X0209530Y0181290D02*
X0203370Y0181290D01*
X0203390Y0181310D02*
X0209520Y0181310D01*
X0209500Y0181340D02*
X0203400Y0181340D01*
X0203420Y0181360D02*
X0209480Y0181360D01*
X0209470Y0181390D02*
X0203430Y0181390D01*
X0203450Y0181410D02*
X0209450Y0181410D01*
X0209430Y0181430D02*
X0203470Y0181430D01*
X0203490Y0181460D02*
X0209410Y0181460D01*
X0209380Y0181480D02*
X0203520Y0181480D01*
X0203540Y0181510D02*
X0209360Y0181510D01*
X0209330Y0181530D02*
X0203570Y0181530D01*
X0203590Y0181560D02*
X0209310Y0181560D01*
X0209280Y0181580D02*
X0203620Y0181580D01*
X0203640Y0181610D02*
X0209260Y0181610D01*
X0209240Y0181630D02*
X0203670Y0181630D01*
X0203690Y0181650D02*
X0209210Y0181650D01*
X0209180Y0181680D02*
X0203720Y0181680D01*
X0203760Y0181700D02*
X0209140Y0181700D01*
X0209100Y0181730D02*
X0203800Y0181730D01*
X0203840Y0181750D02*
X0209060Y0181750D01*
X0209020Y0181780D02*
X0203880Y0181780D01*
X0203920Y0181800D02*
X0208980Y0181800D01*
X0208940Y0181820D02*
X0203960Y0181820D01*
X0204000Y0181850D02*
X0204330Y0181970D01*
X0204680Y0182000D01*
X0208220Y0182000D01*
X0208570Y0181970D01*
X0208910Y0181850D01*
X0208830Y0181870D02*
X0204070Y0181870D01*
X0204140Y0181900D02*
X0208760Y0181900D01*
X0208700Y0181920D02*
X0204210Y0181920D01*
X0204280Y0181950D02*
X0208630Y0181950D01*
X0208520Y0181970D02*
X0204380Y0181970D01*
X0204600Y0182000D02*
X0208300Y0182000D01*
X0208220Y0182000D02*
X0204680Y0182000D01*
X0203110Y0180410D02*
X0209790Y0180410D01*
X0209790Y0180390D02*
X0203110Y0180390D01*
X0203110Y0180360D02*
X0209790Y0180360D01*
X0209790Y0180340D02*
X0203110Y0180340D01*
X0203120Y0180310D02*
X0209780Y0180310D01*
X0209780Y0180290D02*
X0203120Y0180290D01*
X0203120Y0180270D02*
X0209780Y0180270D01*
X0209780Y0180240D02*
X0203130Y0180240D01*
X0203130Y0180220D02*
X0209770Y0180220D01*
X0209770Y0180190D02*
X0203130Y0180190D01*
X0203130Y0180170D02*
X0209770Y0180170D01*
X0209760Y0180140D02*
X0203140Y0180140D01*
X0203140Y0180120D02*
X0209760Y0180120D01*
X0209760Y0180090D02*
X0203140Y0180090D01*
X0203150Y0180070D02*
X0209750Y0180070D01*
X0209750Y0180050D02*
X0203160Y0180050D01*
X0203160Y0180020D02*
X0209740Y0180020D01*
X0209730Y0180000D02*
X0203170Y0180000D01*
X0203180Y0179970D02*
X0209720Y0179970D01*
X0209710Y0179950D02*
X0203190Y0179950D01*
X0203200Y0179920D02*
X0209700Y0179920D01*
X0209690Y0179900D02*
X0203210Y0179900D01*
X0203210Y0179880D02*
X0209690Y0179880D01*
X0209680Y0179850D02*
X0203220Y0179850D01*
X0203230Y0179830D02*
X0209670Y0179830D01*
X0209660Y0179800D02*
X0203240Y0179800D01*
X0203250Y0179780D02*
X0209650Y0179780D01*
X0209640Y0179750D02*
X0203260Y0179750D01*
X0203270Y0179730D02*
X0209630Y0179730D01*
X0209610Y0179700D02*
X0203290Y0179700D01*
X0203300Y0179680D02*
X0209600Y0179680D01*
X0209580Y0179660D02*
X0203320Y0179660D01*
X0203330Y0179630D02*
X0209570Y0179630D01*
X0209550Y0179610D02*
X0203350Y0179610D01*
X0203360Y0179580D02*
X0209540Y0179580D01*
X0209520Y0179560D02*
X0203380Y0179560D01*
X0203390Y0179530D02*
X0209510Y0179530D01*
X0209490Y0179510D02*
X0203410Y0179510D01*
X0203420Y0179490D02*
X0209480Y0179490D01*
X0209460Y0179460D02*
X0203440Y0179460D01*
X0203460Y0179440D02*
X0209440Y0179440D01*
X0209420Y0179410D02*
X0203480Y0179410D01*
X0203510Y0179390D02*
X0209390Y0179390D01*
X0209370Y0179360D02*
X0203530Y0179360D01*
X0203560Y0179340D02*
X0209340Y0179340D01*
X0209320Y0179310D02*
X0203580Y0179310D01*
X0203610Y0179290D02*
X0209300Y0179290D01*
X0209270Y0179270D02*
X0203630Y0179270D01*
X0203650Y0179240D02*
X0209250Y0179240D01*
X0209220Y0179220D02*
X0203680Y0179220D01*
X0203710Y0179190D02*
X0209190Y0179190D01*
X0209160Y0179170D02*
X0203750Y0179170D01*
X0203780Y0179140D02*
X0209120Y0179140D01*
X0209080Y0179120D02*
X0203820Y0179120D01*
X0203860Y0179100D02*
X0209040Y0179100D01*
X0209000Y0179070D02*
X0203900Y0179070D01*
X0203940Y0179050D02*
X0208960Y0179050D01*
X0208920Y0179020D02*
X0203980Y0179020D01*
X0204030Y0179000D02*
X0208870Y0179000D01*
X0208800Y0178970D02*
X0204100Y0178970D01*
X0204170Y0178950D02*
X0208730Y0178950D01*
X0208660Y0178920D02*
X0204240Y0178920D01*
X0204310Y0178900D02*
X0208590Y0178900D01*
X0208410Y0178880D02*
X0204500Y0178880D01*
X0204680Y0178860D02*
X0208220Y0178860D01*
X0208220Y0207600D02*
X0204680Y0207600D01*
X0204330Y0207630D01*
X0204000Y0207750D01*
X0203700Y0207940D01*
X0203450Y0208190D01*
X0203260Y0208490D01*
X0209640Y0208490D01*
X0209450Y0208190D01*
X0209200Y0207940D01*
X0208910Y0207750D01*
X0208570Y0207630D01*
X0208220Y0207600D01*
X0204680Y0207600D01*
X0204540Y0207610D02*
X0208360Y0207610D01*
X0208570Y0207640D02*
X0204330Y0207640D01*
X0204260Y0207660D02*
X0208640Y0207660D01*
X0208710Y0207680D02*
X0204190Y0207680D01*
X0204120Y0207710D02*
X0208780Y0207710D01*
X0208850Y0207730D02*
X0204050Y0207730D01*
X0203990Y0207760D02*
X0208910Y0207760D01*
X0208950Y0207780D02*
X0203950Y0207780D01*
X0203910Y0207810D02*
X0208990Y0207810D01*
X0209030Y0207830D02*
X0203870Y0207830D01*
X0203830Y0207850D02*
X0209070Y0207850D01*
X0209110Y0207880D02*
X0203790Y0207880D01*
X0203750Y0207900D02*
X0209150Y0207900D01*
X0209190Y0207930D02*
X0203710Y0207930D01*
X0203680Y0207950D02*
X0209220Y0207950D01*
X0209240Y0207980D02*
X0203660Y0207980D01*
X0203630Y0208000D02*
X0209270Y0208000D01*
X0209290Y0208030D02*
X0203610Y0208030D01*
X0203590Y0208050D02*
X0209310Y0208050D01*
X0209340Y0208070D02*
X0203560Y0208070D01*
X0203540Y0208100D02*
X0209360Y0208100D01*
X0209390Y0208120D02*
X0203510Y0208120D01*
X0203490Y0208150D02*
X0209410Y0208150D01*
X0209440Y0208170D02*
X0203460Y0208170D01*
X0203440Y0208200D02*
X0209460Y0208200D01*
X0209470Y0208220D02*
X0203430Y0208220D01*
X0203410Y0208240D02*
X0209490Y0208240D01*
X0209500Y0208270D02*
X0203400Y0208270D01*
X0203380Y0208290D02*
X0209520Y0208290D01*
X0209530Y0208320D02*
X0203370Y0208320D01*
X0203350Y0208340D02*
X0209550Y0208340D01*
X0209570Y0208370D02*
X0203340Y0208370D01*
X0203320Y0208390D02*
X0209580Y0208390D01*
X0209600Y0208420D02*
X0203300Y0208420D01*
X0203290Y0208440D02*
X0209610Y0208440D01*
X0209630Y0208460D02*
X0203270Y0208460D01*
X0203260Y0208490D02*
X0203140Y0208820D01*
X0203100Y0209170D01*
X0203140Y0209520D01*
X0203260Y0209850D01*
X0209640Y0209850D01*
X0209760Y0209520D01*
X0209800Y0209170D01*
X0209760Y0208820D01*
X0209640Y0208490D01*
X0209650Y0208510D02*
X0203250Y0208510D01*
X0203240Y0208540D02*
X0209660Y0208540D01*
X0209670Y0208560D02*
X0203230Y0208560D01*
X0203230Y0208590D02*
X0209680Y0208590D01*
X0209680Y0208610D02*
X0203220Y0208610D01*
X0203210Y0208630D02*
X0209690Y0208630D01*
X0209700Y0208660D02*
X0203200Y0208660D01*
X0203190Y0208680D02*
X0209710Y0208680D01*
X0209720Y0208710D02*
X0203180Y0208710D01*
X0203170Y0208730D02*
X0209730Y0208730D01*
X0209740Y0208760D02*
X0203170Y0208760D01*
X0203160Y0208780D02*
X0209740Y0208780D01*
X0209750Y0208810D02*
X0203150Y0208810D01*
X0203140Y0208830D02*
X0209760Y0208830D01*
X0209760Y0208850D02*
X0203140Y0208850D01*
X0203140Y0208880D02*
X0209760Y0208880D01*
X0209770Y0208900D02*
X0203130Y0208900D01*
X0203130Y0208930D02*
X0209770Y0208930D01*
X0209770Y0208950D02*
X0203130Y0208950D01*
X0203130Y0208980D02*
X0209770Y0208980D01*
X0209780Y0209000D02*
X0203120Y0209000D01*
X0203120Y0209020D02*
X0209780Y0209020D01*
X0209780Y0209050D02*
X0203120Y0209050D01*
X0203110Y0209070D02*
X0209790Y0209070D01*
X0209790Y0209100D02*
X0203110Y0209100D01*
X0203110Y0209120D02*
X0209790Y0209120D01*
X0209790Y0209150D02*
X0203110Y0209150D01*
X0203100Y0209170D02*
X0209800Y0209170D01*
X0209790Y0209200D02*
X0203110Y0209200D01*
X0203110Y0209220D02*
X0209790Y0209220D01*
X0209790Y0209240D02*
X0203110Y0209240D01*
X0203110Y0209270D02*
X0209790Y0209270D01*
X0209780Y0209290D02*
X0203120Y0209290D01*
X0203120Y0209320D02*
X0209780Y0209320D01*
X0209780Y0209340D02*
X0203120Y0209340D01*
X0203130Y0209370D02*
X0209770Y0209370D01*
X0209770Y0209390D02*
X0203130Y0209390D01*
X0203130Y0209410D02*
X0209770Y0209410D01*
X0209770Y0209440D02*
X0203130Y0209440D01*
X0203140Y0209460D02*
X0209760Y0209460D01*
X0209760Y0209490D02*
X0203140Y0209490D01*
X0203140Y0209510D02*
X0209760Y0209510D01*
X0209750Y0209540D02*
X0203150Y0209540D01*
X0203160Y0209560D02*
X0209740Y0209560D01*
X0209730Y0209590D02*
X0203170Y0209590D01*
X0203170Y0209610D02*
X0209730Y0209610D01*
X0209720Y0209630D02*
X0203180Y0209630D01*
X0203190Y0209660D02*
X0209710Y0209660D01*
X0209700Y0209680D02*
X0203200Y0209680D01*
X0203210Y0209710D02*
X0209690Y0209710D01*
X0209680Y0209730D02*
X0203220Y0209730D01*
X0203230Y0209760D02*
X0209680Y0209760D01*
X0209670Y0209780D02*
X0203230Y0209780D01*
X0203240Y0209800D02*
X0209660Y0209800D01*
X0209650Y0209830D02*
X0203250Y0209830D01*
X0203260Y0209850D02*
X0203450Y0210150D01*
X0203700Y0210400D01*
X0204000Y0210590D01*
X0204330Y0210710D01*
X0204680Y0210740D01*
X0208220Y0210740D01*
X0208570Y0210710D01*
X0208910Y0210590D01*
X0209200Y0210400D01*
X0209450Y0210150D01*
X0209640Y0209850D01*
X0209630Y0209880D02*
X0203280Y0209880D01*
X0203290Y0209900D02*
X0209610Y0209900D01*
X0209600Y0209930D02*
X0203310Y0209930D01*
X0203320Y0209950D02*
X0209580Y0209950D01*
X0209560Y0209980D02*
X0203340Y0209980D01*
X0203350Y0210000D02*
X0209550Y0210000D01*
X0209530Y0210020D02*
X0203370Y0210020D01*
X0203380Y0210050D02*
X0209520Y0210050D01*
X0209500Y0210070D02*
X0203400Y0210070D01*
X0203410Y0210100D02*
X0209490Y0210100D01*
X0209470Y0210120D02*
X0203430Y0210120D01*
X0203440Y0210150D02*
X0209460Y0210150D01*
X0209440Y0210170D02*
X0203470Y0210170D01*
X0203490Y0210190D02*
X0209410Y0210190D01*
X0209390Y0210220D02*
X0203510Y0210220D01*
X0203540Y0210240D02*
X0209360Y0210240D01*
X0209340Y0210270D02*
X0203560Y0210270D01*
X0203590Y0210290D02*
X0209310Y0210290D01*
X0209290Y0210320D02*
X0203610Y0210320D01*
X0203640Y0210340D02*
X0209260Y0210340D01*
X0209240Y0210370D02*
X0203660Y0210370D01*
X0203690Y0210390D02*
X0209220Y0210390D01*
X0209180Y0210410D02*
X0203720Y0210410D01*
X0203760Y0210440D02*
X0209150Y0210440D01*
X0209110Y0210460D02*
X0203790Y0210460D01*
X0203830Y0210490D02*
X0209070Y0210490D01*
X0209030Y0210510D02*
X0203870Y0210510D01*
X0203910Y0210540D02*
X0208990Y0210540D01*
X0208950Y0210560D02*
X0203950Y0210560D01*
X0203990Y0210580D02*
X0208910Y0210580D01*
X0208850Y0210610D02*
X0204050Y0210610D01*
X0204120Y0210630D02*
X0208780Y0210630D01*
X0208710Y0210660D02*
X0204190Y0210660D01*
X0204260Y0210680D02*
X0208640Y0210680D01*
X0208560Y0210710D02*
X0204340Y0210710D01*
X0204550Y0210730D02*
X0208350Y0210730D01*
X0208220Y0210740D02*
X0204680Y0210740D01*
X0188930Y0209170D02*
X0188890Y0208820D01*
X0188770Y0208490D01*
X0188780Y0208490D02*
X0182390Y0208490D01*
X0182280Y0208820D01*
X0182240Y0209170D01*
X0182280Y0209520D01*
X0182390Y0209850D01*
X0188770Y0209850D01*
X0188890Y0209520D01*
X0188930Y0209170D01*
X0182240Y0209170D01*
X0182240Y0209150D02*
X0188930Y0209150D01*
X0188930Y0209120D02*
X0182240Y0209120D01*
X0182250Y0209100D02*
X0188920Y0209100D01*
X0188920Y0209070D02*
X0182250Y0209070D01*
X0182250Y0209050D02*
X0188920Y0209050D01*
X0188910Y0209020D02*
X0182250Y0209020D01*
X0182260Y0209000D02*
X0188910Y0209000D01*
X0188910Y0208980D02*
X0182260Y0208980D01*
X0182260Y0208950D02*
X0188910Y0208950D01*
X0188900Y0208930D02*
X0182270Y0208930D01*
X0182270Y0208900D02*
X0188900Y0208900D01*
X0188900Y0208880D02*
X0182270Y0208880D01*
X0182270Y0208850D02*
X0188900Y0208850D01*
X0188890Y0208830D02*
X0182280Y0208830D01*
X0182280Y0208810D02*
X0188890Y0208810D01*
X0188880Y0208780D02*
X0182290Y0208780D01*
X0182300Y0208760D02*
X0188870Y0208760D01*
X0188860Y0208730D02*
X0182310Y0208730D01*
X0182320Y0208710D02*
X0188850Y0208710D01*
X0188840Y0208680D02*
X0182320Y0208680D01*
X0182330Y0208660D02*
X0188840Y0208660D01*
X0188830Y0208630D02*
X0182340Y0208630D01*
X0182350Y0208610D02*
X0188820Y0208610D01*
X0188810Y0208590D02*
X0182360Y0208590D01*
X0182370Y0208560D02*
X0188800Y0208560D01*
X0188790Y0208540D02*
X0182380Y0208540D01*
X0182380Y0208510D02*
X0188780Y0208510D01*
X0188770Y0208490D02*
X0188590Y0208190D01*
X0188340Y0207940D01*
X0188040Y0207750D01*
X0187710Y0207630D01*
X0187710Y0207640D02*
X0183460Y0207640D01*
X0183460Y0207630D02*
X0183130Y0207750D01*
X0182830Y0207940D01*
X0182580Y0208190D01*
X0182390Y0208490D01*
X0182410Y0208460D02*
X0188760Y0208460D01*
X0188750Y0208440D02*
X0182420Y0208440D01*
X0182440Y0208420D02*
X0188730Y0208420D01*
X0188710Y0208390D02*
X0182450Y0208390D01*
X0182470Y0208370D02*
X0188700Y0208370D01*
X0188680Y0208340D02*
X0182480Y0208340D01*
X0182500Y0208320D02*
X0188670Y0208320D01*
X0188650Y0208290D02*
X0182520Y0208290D01*
X0182530Y0208270D02*
X0188640Y0208270D01*
X0188620Y0208240D02*
X0182550Y0208240D01*
X0182560Y0208220D02*
X0188610Y0208220D01*
X0188590Y0208200D02*
X0182580Y0208200D01*
X0182600Y0208170D02*
X0188570Y0208170D01*
X0188550Y0208150D02*
X0182620Y0208150D01*
X0182650Y0208120D02*
X0188520Y0208120D01*
X0188500Y0208100D02*
X0182670Y0208100D01*
X0182700Y0208070D02*
X0188470Y0208070D01*
X0188450Y0208050D02*
X0182720Y0208050D01*
X0182740Y0208030D02*
X0188420Y0208030D01*
X0188400Y0208000D02*
X0182770Y0208000D01*
X0182790Y0207980D02*
X0188380Y0207980D01*
X0188350Y0207950D02*
X0182820Y0207950D01*
X0182850Y0207930D02*
X0188320Y0207930D01*
X0188280Y0207900D02*
X0182890Y0207900D01*
X0182930Y0207880D02*
X0188240Y0207880D01*
X0188200Y0207850D02*
X0182960Y0207850D01*
X0183000Y0207830D02*
X0188170Y0207830D01*
X0188130Y0207810D02*
X0183040Y0207810D01*
X0183080Y0207780D02*
X0188090Y0207780D01*
X0188050Y0207760D02*
X0183120Y0207760D01*
X0183180Y0207730D02*
X0187990Y0207730D01*
X0187920Y0207710D02*
X0183250Y0207710D01*
X0183320Y0207680D02*
X0187850Y0207680D01*
X0187780Y0207660D02*
X0183390Y0207660D01*
X0183460Y0207630D02*
X0183810Y0207600D01*
X0187360Y0207600D01*
X0187710Y0207630D01*
X0187500Y0207610D02*
X0183670Y0207610D01*
X0183810Y0207600D02*
X0187360Y0207600D01*
X0188930Y0209200D02*
X0182240Y0209200D01*
X0182240Y0209220D02*
X0188930Y0209220D01*
X0188920Y0209240D02*
X0182250Y0209240D01*
X0182250Y0209270D02*
X0188920Y0209270D01*
X0188920Y0209290D02*
X0182250Y0209290D01*
X0182250Y0209320D02*
X0188910Y0209320D01*
X0188910Y0209340D02*
X0182260Y0209340D01*
X0182260Y0209370D02*
X0188910Y0209370D01*
X0188910Y0209390D02*
X0182260Y0209390D01*
X0182270Y0209410D02*
X0188900Y0209410D01*
X0188900Y0209440D02*
X0182270Y0209440D01*
X0182270Y0209460D02*
X0188900Y0209460D01*
X0188890Y0209490D02*
X0182270Y0209490D01*
X0182280Y0209510D02*
X0188890Y0209510D01*
X0188890Y0209540D02*
X0182280Y0209540D01*
X0182290Y0209560D02*
X0188880Y0209560D01*
X0188870Y0209590D02*
X0182300Y0209590D01*
X0182310Y0209610D02*
X0188860Y0209610D01*
X0188850Y0209630D02*
X0182320Y0209630D01*
X0182330Y0209660D02*
X0188840Y0209660D01*
X0188830Y0209680D02*
X0182330Y0209680D01*
X0182340Y0209710D02*
X0188830Y0209710D01*
X0188820Y0209730D02*
X0182350Y0209730D01*
X0182360Y0209760D02*
X0188810Y0209760D01*
X0188800Y0209780D02*
X0182370Y0209780D01*
X0182380Y0209800D02*
X0188790Y0209800D01*
X0188780Y0209830D02*
X0182390Y0209830D01*
X0182390Y0209850D02*
X0182580Y0210150D01*
X0182830Y0210400D01*
X0183130Y0210590D01*
X0183460Y0210710D01*
X0183810Y0210740D01*
X0187360Y0210740D01*
X0187710Y0210710D01*
X0188040Y0210590D01*
X0188340Y0210400D01*
X0188590Y0210150D01*
X0188770Y0209850D01*
X0188760Y0209880D02*
X0182410Y0209880D01*
X0182420Y0209900D02*
X0188740Y0209900D01*
X0188730Y0209930D02*
X0182440Y0209930D01*
X0182450Y0209950D02*
X0188710Y0209950D01*
X0188700Y0209980D02*
X0182470Y0209980D01*
X0182490Y0210000D02*
X0188680Y0210000D01*
X0188670Y0210020D02*
X0182500Y0210020D01*
X0182520Y0210050D02*
X0188650Y0210050D01*
X0188640Y0210070D02*
X0182530Y0210070D01*
X0182550Y0210100D02*
X0188620Y0210100D01*
X0188610Y0210120D02*
X0182560Y0210120D01*
X0182580Y0210150D02*
X0188590Y0210150D01*
X0188570Y0210170D02*
X0182600Y0210170D01*
X0182620Y0210190D02*
X0188540Y0210190D01*
X0188520Y0210220D02*
X0182650Y0210220D01*
X0182670Y0210240D02*
X0188500Y0210240D01*
X0188470Y0210270D02*
X0182700Y0210270D01*
X0182720Y0210290D02*
X0188450Y0210290D01*
X0188420Y0210320D02*
X0182750Y0210320D01*
X0182770Y0210340D02*
X0188400Y0210340D01*
X0188370Y0210370D02*
X0182790Y0210370D01*
X0182820Y0210390D02*
X0188350Y0210390D01*
X0188320Y0210410D02*
X0182850Y0210410D01*
X0182890Y0210440D02*
X0188280Y0210440D01*
X0188240Y0210460D02*
X0182930Y0210460D01*
X0182970Y0210490D02*
X0188200Y0210490D01*
X0188160Y0210510D02*
X0183010Y0210510D01*
X0183040Y0210540D02*
X0188120Y0210540D01*
X0188090Y0210560D02*
X0183080Y0210560D01*
X0183120Y0210580D02*
X0188050Y0210580D01*
X0187980Y0210610D02*
X0183190Y0210610D01*
X0183260Y0210630D02*
X0187910Y0210630D01*
X0187840Y0210660D02*
X0183330Y0210660D01*
X0183400Y0210680D02*
X0187770Y0210680D01*
X0187700Y0210710D02*
X0183470Y0210710D01*
X0183690Y0210730D02*
X0187480Y0210730D01*
X0187360Y0210740D02*
X0183810Y0210740D01*
X0010000Y0232900D02*
G75*
%LPD*%
D33*
X0182390Y0254050D02*
X0182280Y0254380D01*
X0182240Y0254730D01*
X0182280Y0255080D01*
X0182390Y0255410D01*
X0182580Y0255710D01*
X0188590Y0255710D01*
X0188770Y0255410D01*
X0188890Y0255080D01*
X0188930Y0254730D01*
X0188890Y0254380D01*
X0188770Y0254050D01*
X0188590Y0253750D01*
X0188340Y0253500D01*
X0188040Y0253310D01*
X0187710Y0253190D01*
X0187360Y0253160D01*
X0183810Y0253160D01*
X0183460Y0253190D01*
X0183130Y0253310D01*
X0182830Y0253500D01*
X0182580Y0253750D01*
X0182390Y0254050D01*
X0188780Y0254050D01*
X0188760Y0254030D02*
X0182400Y0254030D01*
X0182420Y0254000D02*
X0188750Y0254000D01*
X0188730Y0253980D02*
X0182440Y0253980D01*
X0182450Y0253960D02*
X0188720Y0253960D01*
X0188700Y0253930D02*
X0182470Y0253930D01*
X0182480Y0253910D02*
X0188690Y0253910D01*
X0188670Y0253880D02*
X0182500Y0253880D01*
X0182510Y0253860D02*
X0188660Y0253860D01*
X0188640Y0253830D02*
X0182530Y0253830D01*
X0182540Y0253810D02*
X0188630Y0253810D01*
X0188610Y0253790D02*
X0182560Y0253790D01*
X0182570Y0253760D02*
X0188600Y0253760D01*
X0188580Y0253740D02*
X0182590Y0253740D01*
X0182620Y0253710D02*
X0188550Y0253710D01*
X0188530Y0253690D02*
X0182640Y0253690D01*
X0182670Y0253660D02*
X0188500Y0253660D01*
X0188480Y0253640D02*
X0182690Y0253640D01*
X0182710Y0253610D02*
X0188450Y0253610D01*
X0188430Y0253590D02*
X0182740Y0253590D01*
X0182760Y0253570D02*
X0188400Y0253570D01*
X0188380Y0253540D02*
X0182790Y0253540D01*
X0182810Y0253520D02*
X0188360Y0253520D01*
X0188330Y0253490D02*
X0182840Y0253490D01*
X0182880Y0253470D02*
X0188290Y0253470D01*
X0188250Y0253440D02*
X0182920Y0253440D01*
X0182960Y0253420D02*
X0188210Y0253420D01*
X0188170Y0253400D02*
X0183000Y0253400D01*
X0183030Y0253370D02*
X0188130Y0253370D01*
X0188100Y0253350D02*
X0183070Y0253350D01*
X0183110Y0253320D02*
X0188060Y0253320D01*
X0188000Y0253300D02*
X0183170Y0253300D01*
X0183240Y0253270D02*
X0187930Y0253270D01*
X0187860Y0253250D02*
X0183310Y0253250D01*
X0183380Y0253220D02*
X0187790Y0253220D01*
X0187720Y0253200D02*
X0183450Y0253200D01*
X0183630Y0253180D02*
X0187540Y0253180D01*
X0187360Y0253160D02*
X0183810Y0253160D01*
X0182380Y0254080D02*
X0188790Y0254080D01*
X0188790Y0254100D02*
X0182370Y0254100D01*
X0182370Y0254130D02*
X0188800Y0254130D01*
X0188810Y0254150D02*
X0182360Y0254150D01*
X0182350Y0254180D02*
X0188820Y0254180D01*
X0188830Y0254200D02*
X0182340Y0254200D01*
X0182330Y0254220D02*
X0188840Y0254220D01*
X0188850Y0254250D02*
X0182320Y0254250D01*
X0182310Y0254270D02*
X0188850Y0254270D01*
X0188860Y0254300D02*
X0182310Y0254300D01*
X0182300Y0254320D02*
X0188870Y0254320D01*
X0188880Y0254350D02*
X0182290Y0254350D01*
X0182280Y0254370D02*
X0188890Y0254370D01*
X0188890Y0254390D02*
X0182280Y0254390D01*
X0182270Y0254420D02*
X0188900Y0254420D01*
X0188900Y0254440D02*
X0182270Y0254440D01*
X0182270Y0254470D02*
X0188900Y0254470D01*
X0188900Y0254490D02*
X0182260Y0254490D01*
X0182260Y0254520D02*
X0188910Y0254520D01*
X0188910Y0254540D02*
X0182260Y0254540D01*
X0182260Y0254570D02*
X0188910Y0254570D01*
X0188910Y0254590D02*
X0182250Y0254590D01*
X0182250Y0254610D02*
X0188920Y0254610D01*
X0188920Y0254640D02*
X0182250Y0254640D01*
X0182250Y0254660D02*
X0188920Y0254660D01*
X0188930Y0254690D02*
X0182240Y0254690D01*
X0182240Y0254710D02*
X0188930Y0254710D01*
X0188930Y0254740D02*
X0182240Y0254740D01*
X0182240Y0254760D02*
X0188930Y0254760D01*
X0188920Y0254780D02*
X0182240Y0254780D01*
X0182250Y0254810D02*
X0188920Y0254810D01*
X0188920Y0254830D02*
X0182250Y0254830D01*
X0182250Y0254860D02*
X0188920Y0254860D01*
X0188910Y0254880D02*
X0182250Y0254880D01*
X0182260Y0254910D02*
X0188910Y0254910D01*
X0188910Y0254930D02*
X0182260Y0254930D01*
X0182260Y0254950D02*
X0188910Y0254950D01*
X0188900Y0254980D02*
X0182270Y0254980D01*
X0182270Y0255000D02*
X0188900Y0255000D01*
X0188900Y0255030D02*
X0182270Y0255030D01*
X0182270Y0255050D02*
X0188890Y0255050D01*
X0188890Y0255080D02*
X0182280Y0255080D01*
X0182280Y0255100D02*
X0188880Y0255100D01*
X0188880Y0255130D02*
X0182290Y0255130D01*
X0182300Y0255150D02*
X0188870Y0255150D01*
X0188860Y0255170D02*
X0182310Y0255170D01*
X0182320Y0255200D02*
X0188850Y0255200D01*
X0188840Y0255220D02*
X0182330Y0255220D01*
X0182340Y0255250D02*
X0188830Y0255250D01*
X0188820Y0255270D02*
X0182340Y0255270D01*
X0182350Y0255300D02*
X0188820Y0255300D01*
X0188810Y0255320D02*
X0182360Y0255320D01*
X0182370Y0255340D02*
X0188800Y0255340D01*
X0188790Y0255370D02*
X0182380Y0255370D01*
X0182390Y0255390D02*
X0188780Y0255390D01*
X0188770Y0255420D02*
X0182400Y0255420D01*
X0182410Y0255440D02*
X0188760Y0255440D01*
X0188740Y0255470D02*
X0182430Y0255470D01*
X0182440Y0255490D02*
X0188730Y0255490D01*
X0188710Y0255520D02*
X0182460Y0255520D01*
X0182470Y0255540D02*
X0188700Y0255540D01*
X0188680Y0255560D02*
X0182490Y0255560D01*
X0182500Y0255590D02*
X0188660Y0255590D01*
X0188650Y0255610D02*
X0182520Y0255610D01*
X0182530Y0255640D02*
X0188630Y0255640D01*
X0188620Y0255660D02*
X0182550Y0255660D01*
X0182570Y0255690D02*
X0188600Y0255690D01*
X0188590Y0255710D02*
X0188340Y0255960D01*
X0188040Y0256150D01*
X0187710Y0256270D01*
X0187360Y0256300D01*
X0183810Y0256300D01*
X0183460Y0256270D01*
X0183130Y0256150D01*
X0188040Y0256150D01*
X0188080Y0256120D02*
X0183090Y0256120D01*
X0183050Y0256100D02*
X0188120Y0256100D01*
X0188150Y0256080D02*
X0183010Y0256080D01*
X0182970Y0256050D02*
X0188190Y0256050D01*
X0188230Y0256030D02*
X0182940Y0256030D01*
X0182900Y0256000D02*
X0188270Y0256000D01*
X0188310Y0255980D02*
X0182860Y0255980D01*
X0182830Y0255960D02*
X0183130Y0256150D01*
X0183200Y0256170D02*
X0187970Y0256170D01*
X0187900Y0256200D02*
X0183270Y0256200D01*
X0183340Y0256220D02*
X0187830Y0256220D01*
X0187760Y0256250D02*
X0183410Y0256250D01*
X0183510Y0256270D02*
X0187650Y0256270D01*
X0187440Y0256300D02*
X0183730Y0256300D01*
X0183810Y0256300D02*
X0187360Y0256300D01*
X0188340Y0255950D02*
X0182820Y0255950D01*
X0182830Y0255960D02*
X0182580Y0255710D01*
X0182600Y0255730D02*
X0188560Y0255730D01*
X0188540Y0255760D02*
X0182630Y0255760D01*
X0182650Y0255780D02*
X0188520Y0255780D01*
X0188490Y0255810D02*
X0182680Y0255810D01*
X0182700Y0255830D02*
X0188470Y0255830D01*
X0188440Y0255860D02*
X0182730Y0255860D01*
X0182750Y0255880D02*
X0188420Y0255880D01*
X0188390Y0255910D02*
X0182780Y0255910D01*
X0182800Y0255930D02*
X0188370Y0255930D01*
X0203100Y0254730D02*
X0203140Y0255080D01*
X0203260Y0255410D01*
X0203450Y0255710D01*
X0203700Y0255960D01*
X0204000Y0256150D01*
X0208900Y0256150D01*
X0208910Y0256150D02*
X0209200Y0255960D01*
X0209450Y0255710D01*
X0209640Y0255410D01*
X0209760Y0255080D01*
X0209800Y0254730D01*
X0209760Y0254380D01*
X0209640Y0254050D01*
X0209450Y0253750D01*
X0209200Y0253500D01*
X0208910Y0253310D01*
X0208570Y0253190D01*
X0208220Y0253160D01*
X0204680Y0253160D01*
X0204330Y0253190D01*
X0204000Y0253310D01*
X0203700Y0253500D01*
X0203450Y0253750D01*
X0203260Y0254050D01*
X0203140Y0254380D01*
X0203100Y0254730D01*
X0203100Y0254740D02*
X0209800Y0254740D01*
X0209790Y0254760D02*
X0203110Y0254760D01*
X0203110Y0254780D02*
X0209790Y0254780D01*
X0209790Y0254810D02*
X0203110Y0254810D01*
X0203120Y0254830D02*
X0209790Y0254830D01*
X0209780Y0254860D02*
X0203120Y0254860D01*
X0203120Y0254880D02*
X0209780Y0254880D01*
X0209780Y0254910D02*
X0203120Y0254910D01*
X0203130Y0254930D02*
X0209770Y0254930D01*
X0209770Y0254950D02*
X0203130Y0254950D01*
X0203130Y0254980D02*
X0209770Y0254980D01*
X0209770Y0255000D02*
X0203130Y0255000D01*
X0203140Y0255030D02*
X0209760Y0255030D01*
X0209760Y0255050D02*
X0203140Y0255050D01*
X0203140Y0255080D02*
X0209760Y0255080D01*
X0209750Y0255100D02*
X0203150Y0255100D01*
X0203160Y0255130D02*
X0209740Y0255130D01*
X0209730Y0255150D02*
X0203170Y0255150D01*
X0203180Y0255170D02*
X0209720Y0255170D01*
X0209720Y0255200D02*
X0203180Y0255200D01*
X0203190Y0255220D02*
X0209710Y0255220D01*
X0209700Y0255250D02*
X0203200Y0255250D01*
X0203210Y0255270D02*
X0209690Y0255270D01*
X0209680Y0255300D02*
X0203220Y0255300D01*
X0203230Y0255320D02*
X0209670Y0255320D01*
X0209660Y0255340D02*
X0203240Y0255340D01*
X0203240Y0255370D02*
X0209660Y0255370D01*
X0209650Y0255390D02*
X0203250Y0255390D01*
X0203260Y0255420D02*
X0209640Y0255420D01*
X0209620Y0255440D02*
X0203280Y0255440D01*
X0203290Y0255470D02*
X0209610Y0255470D01*
X0209590Y0255490D02*
X0203310Y0255490D01*
X0203320Y0255520D02*
X0209580Y0255520D01*
X0209560Y0255540D02*
X0203340Y0255540D01*
X0203350Y0255560D02*
X0209550Y0255560D01*
X0209530Y0255590D02*
X0203370Y0255590D01*
X0203390Y0255610D02*
X0209520Y0255610D01*
X0209500Y0255640D02*
X0203400Y0255640D01*
X0203420Y0255660D02*
X0209480Y0255660D01*
X0209470Y0255690D02*
X0203430Y0255690D01*
X0203450Y0255710D02*
X0209450Y0255710D01*
X0209430Y0255730D02*
X0203470Y0255730D01*
X0203490Y0255760D02*
X0209410Y0255760D01*
X0209380Y0255780D02*
X0203520Y0255780D01*
X0203540Y0255810D02*
X0209360Y0255810D01*
X0209330Y0255830D02*
X0203570Y0255830D01*
X0203590Y0255860D02*
X0209310Y0255860D01*
X0209280Y0255880D02*
X0203620Y0255880D01*
X0203640Y0255910D02*
X0209260Y0255910D01*
X0209240Y0255930D02*
X0203670Y0255930D01*
X0203690Y0255950D02*
X0209210Y0255950D01*
X0209180Y0255980D02*
X0203720Y0255980D01*
X0203760Y0256000D02*
X0209140Y0256000D01*
X0209100Y0256030D02*
X0203800Y0256030D01*
X0203840Y0256050D02*
X0209060Y0256050D01*
X0209020Y0256080D02*
X0203880Y0256080D01*
X0203920Y0256100D02*
X0208980Y0256100D01*
X0208940Y0256120D02*
X0203960Y0256120D01*
X0204000Y0256150D02*
X0204330Y0256270D01*
X0204680Y0256300D01*
X0208220Y0256300D01*
X0208570Y0256270D01*
X0208910Y0256150D01*
X0208830Y0256170D02*
X0204070Y0256170D01*
X0204140Y0256200D02*
X0208760Y0256200D01*
X0208700Y0256220D02*
X0204210Y0256220D01*
X0204280Y0256250D02*
X0208630Y0256250D01*
X0208520Y0256270D02*
X0204380Y0256270D01*
X0204600Y0256300D02*
X0208300Y0256300D01*
X0208220Y0256300D02*
X0204680Y0256300D01*
X0203110Y0254710D02*
X0209790Y0254710D01*
X0209790Y0254690D02*
X0203110Y0254690D01*
X0203110Y0254660D02*
X0209790Y0254660D01*
X0209790Y0254640D02*
X0203110Y0254640D01*
X0203120Y0254610D02*
X0209780Y0254610D01*
X0209780Y0254590D02*
X0203120Y0254590D01*
X0203120Y0254570D02*
X0209780Y0254570D01*
X0209780Y0254540D02*
X0203130Y0254540D01*
X0203130Y0254520D02*
X0209770Y0254520D01*
X0209770Y0254490D02*
X0203130Y0254490D01*
X0203130Y0254470D02*
X0209770Y0254470D01*
X0209760Y0254440D02*
X0203140Y0254440D01*
X0203140Y0254420D02*
X0209760Y0254420D01*
X0209760Y0254390D02*
X0203140Y0254390D01*
X0203150Y0254370D02*
X0209750Y0254370D01*
X0209750Y0254350D02*
X0203160Y0254350D01*
X0203160Y0254320D02*
X0209740Y0254320D01*
X0209730Y0254300D02*
X0203170Y0254300D01*
X0203180Y0254270D02*
X0209720Y0254270D01*
X0209710Y0254250D02*
X0203190Y0254250D01*
X0203200Y0254220D02*
X0209700Y0254220D01*
X0209690Y0254200D02*
X0203210Y0254200D01*
X0203210Y0254180D02*
X0209690Y0254180D01*
X0209680Y0254150D02*
X0203220Y0254150D01*
X0203230Y0254130D02*
X0209670Y0254130D01*
X0209660Y0254100D02*
X0203240Y0254100D01*
X0203250Y0254080D02*
X0209650Y0254080D01*
X0209640Y0254050D02*
X0203260Y0254050D01*
X0203270Y0254030D02*
X0209630Y0254030D01*
X0209610Y0254000D02*
X0203290Y0254000D01*
X0203300Y0253980D02*
X0209600Y0253980D01*
X0209580Y0253960D02*
X0203320Y0253960D01*
X0203330Y0253930D02*
X0209570Y0253930D01*
X0209550Y0253910D02*
X0203350Y0253910D01*
X0203360Y0253880D02*
X0209540Y0253880D01*
X0209520Y0253860D02*
X0203380Y0253860D01*
X0203390Y0253830D02*
X0209510Y0253830D01*
X0209490Y0253810D02*
X0203410Y0253810D01*
X0203420Y0253790D02*
X0209480Y0253790D01*
X0209460Y0253760D02*
X0203440Y0253760D01*
X0203460Y0253740D02*
X0209440Y0253740D01*
X0209420Y0253710D02*
X0203480Y0253710D01*
X0203510Y0253690D02*
X0209390Y0253690D01*
X0209370Y0253660D02*
X0203530Y0253660D01*
X0203560Y0253640D02*
X0209340Y0253640D01*
X0209320Y0253610D02*
X0203580Y0253610D01*
X0203610Y0253590D02*
X0209300Y0253590D01*
X0209270Y0253570D02*
X0203630Y0253570D01*
X0203650Y0253540D02*
X0209250Y0253540D01*
X0209220Y0253520D02*
X0203680Y0253520D01*
X0203710Y0253490D02*
X0209190Y0253490D01*
X0209160Y0253470D02*
X0203750Y0253470D01*
X0203780Y0253440D02*
X0209120Y0253440D01*
X0209080Y0253420D02*
X0203820Y0253420D01*
X0203860Y0253400D02*
X0209040Y0253400D01*
X0209000Y0253370D02*
X0203900Y0253370D01*
X0203940Y0253350D02*
X0208960Y0253350D01*
X0208920Y0253320D02*
X0203980Y0253320D01*
X0204030Y0253300D02*
X0208870Y0253300D01*
X0208800Y0253270D02*
X0204100Y0253270D01*
X0204170Y0253250D02*
X0208730Y0253250D01*
X0208660Y0253220D02*
X0204240Y0253220D01*
X0204310Y0253200D02*
X0208590Y0253200D01*
X0208410Y0253180D02*
X0204500Y0253180D01*
X0204680Y0253160D02*
X0208220Y0253160D01*
X0208220Y0281900D02*
X0204680Y0281900D01*
X0204330Y0281930D01*
X0204000Y0282050D01*
X0203700Y0282240D01*
X0203450Y0282490D01*
X0203260Y0282790D01*
X0209640Y0282790D01*
X0209450Y0282490D01*
X0209200Y0282240D01*
X0208910Y0282050D01*
X0208570Y0281930D01*
X0208220Y0281900D01*
X0204680Y0281900D01*
X0204540Y0281910D02*
X0208360Y0281910D01*
X0208570Y0281940D02*
X0204330Y0281940D01*
X0204260Y0281960D02*
X0208640Y0281960D01*
X0208710Y0281980D02*
X0204190Y0281980D01*
X0204120Y0282010D02*
X0208780Y0282010D01*
X0208850Y0282030D02*
X0204050Y0282030D01*
X0203990Y0282060D02*
X0208910Y0282060D01*
X0208950Y0282080D02*
X0203950Y0282080D01*
X0203910Y0282110D02*
X0208990Y0282110D01*
X0209030Y0282130D02*
X0203870Y0282130D01*
X0203830Y0282150D02*
X0209070Y0282150D01*
X0209110Y0282180D02*
X0203790Y0282180D01*
X0203750Y0282200D02*
X0209150Y0282200D01*
X0209190Y0282230D02*
X0203710Y0282230D01*
X0203680Y0282250D02*
X0209220Y0282250D01*
X0209240Y0282280D02*
X0203660Y0282280D01*
X0203630Y0282300D02*
X0209270Y0282300D01*
X0209290Y0282330D02*
X0203610Y0282330D01*
X0203590Y0282350D02*
X0209310Y0282350D01*
X0209340Y0282370D02*
X0203560Y0282370D01*
X0203540Y0282400D02*
X0209360Y0282400D01*
X0209390Y0282420D02*
X0203510Y0282420D01*
X0203490Y0282450D02*
X0209410Y0282450D01*
X0209440Y0282470D02*
X0203460Y0282470D01*
X0203440Y0282500D02*
X0209460Y0282500D01*
X0209470Y0282520D02*
X0203430Y0282520D01*
X0203410Y0282540D02*
X0209490Y0282540D01*
X0209500Y0282570D02*
X0203400Y0282570D01*
X0203380Y0282590D02*
X0209520Y0282590D01*
X0209530Y0282620D02*
X0203370Y0282620D01*
X0203350Y0282640D02*
X0209550Y0282640D01*
X0209570Y0282670D02*
X0203340Y0282670D01*
X0203320Y0282690D02*
X0209580Y0282690D01*
X0209600Y0282720D02*
X0203300Y0282720D01*
X0203290Y0282740D02*
X0209610Y0282740D01*
X0209630Y0282760D02*
X0203270Y0282760D01*
X0203260Y0282790D02*
X0203140Y0283120D01*
X0203100Y0283470D01*
X0203140Y0283820D01*
X0203260Y0284150D01*
X0209640Y0284150D01*
X0209760Y0283820D01*
X0209800Y0283470D01*
X0209760Y0283120D01*
X0209640Y0282790D01*
X0209650Y0282810D02*
X0203250Y0282810D01*
X0203240Y0282840D02*
X0209660Y0282840D01*
X0209670Y0282860D02*
X0203230Y0282860D01*
X0203230Y0282890D02*
X0209680Y0282890D01*
X0209680Y0282910D02*
X0203220Y0282910D01*
X0203210Y0282930D02*
X0209690Y0282930D01*
X0209700Y0282960D02*
X0203200Y0282960D01*
X0203190Y0282980D02*
X0209710Y0282980D01*
X0209720Y0283010D02*
X0203180Y0283010D01*
X0203170Y0283030D02*
X0209730Y0283030D01*
X0209740Y0283060D02*
X0203170Y0283060D01*
X0203160Y0283080D02*
X0209740Y0283080D01*
X0209750Y0283110D02*
X0203150Y0283110D01*
X0203140Y0283130D02*
X0209760Y0283130D01*
X0209760Y0283150D02*
X0203140Y0283150D01*
X0203140Y0283180D02*
X0209760Y0283180D01*
X0209770Y0283200D02*
X0203130Y0283200D01*
X0203130Y0283230D02*
X0209770Y0283230D01*
X0209770Y0283250D02*
X0203130Y0283250D01*
X0203130Y0283280D02*
X0209770Y0283280D01*
X0209780Y0283300D02*
X0203120Y0283300D01*
X0203120Y0283320D02*
X0209780Y0283320D01*
X0209780Y0283350D02*
X0203120Y0283350D01*
X0203110Y0283370D02*
X0209790Y0283370D01*
X0209790Y0283400D02*
X0203110Y0283400D01*
X0203110Y0283420D02*
X0209790Y0283420D01*
X0209790Y0283450D02*
X0203110Y0283450D01*
X0203100Y0283470D02*
X0209800Y0283470D01*
X0209790Y0283500D02*
X0203110Y0283500D01*
X0203110Y0283520D02*
X0209790Y0283520D01*
X0209790Y0283540D02*
X0203110Y0283540D01*
X0203110Y0283570D02*
X0209790Y0283570D01*
X0209780Y0283590D02*
X0203120Y0283590D01*
X0203120Y0283620D02*
X0209780Y0283620D01*
X0209780Y0283640D02*
X0203120Y0283640D01*
X0203130Y0283670D02*
X0209770Y0283670D01*
X0209770Y0283690D02*
X0203130Y0283690D01*
X0203130Y0283710D02*
X0209770Y0283710D01*
X0209770Y0283740D02*
X0203130Y0283740D01*
X0203140Y0283760D02*
X0209760Y0283760D01*
X0209760Y0283790D02*
X0203140Y0283790D01*
X0203140Y0283810D02*
X0209760Y0283810D01*
X0209750Y0283840D02*
X0203150Y0283840D01*
X0203160Y0283860D02*
X0209740Y0283860D01*
X0209730Y0283890D02*
X0203170Y0283890D01*
X0203170Y0283910D02*
X0209730Y0283910D01*
X0209720Y0283930D02*
X0203180Y0283930D01*
X0203190Y0283960D02*
X0209710Y0283960D01*
X0209700Y0283980D02*
X0203200Y0283980D01*
X0203210Y0284010D02*
X0209690Y0284010D01*
X0209680Y0284030D02*
X0203220Y0284030D01*
X0203230Y0284060D02*
X0209680Y0284060D01*
X0209670Y0284080D02*
X0203230Y0284080D01*
X0203240Y0284100D02*
X0209660Y0284100D01*
X0209650Y0284130D02*
X0203250Y0284130D01*
X0203260Y0284150D02*
X0203450Y0284450D01*
X0203700Y0284700D01*
X0204000Y0284890D01*
X0204330Y0285010D01*
X0204680Y0285040D01*
X0208220Y0285040D01*
X0208570Y0285010D01*
X0208910Y0284890D01*
X0209200Y0284700D01*
X0209450Y0284450D01*
X0209640Y0284150D01*
X0209630Y0284180D02*
X0203280Y0284180D01*
X0203290Y0284200D02*
X0209610Y0284200D01*
X0209600Y0284230D02*
X0203310Y0284230D01*
X0203320Y0284250D02*
X0209580Y0284250D01*
X0209560Y0284280D02*
X0203340Y0284280D01*
X0203350Y0284300D02*
X0209550Y0284300D01*
X0209530Y0284320D02*
X0203370Y0284320D01*
X0203380Y0284350D02*
X0209520Y0284350D01*
X0209500Y0284370D02*
X0203400Y0284370D01*
X0203410Y0284400D02*
X0209490Y0284400D01*
X0209470Y0284420D02*
X0203430Y0284420D01*
X0203440Y0284450D02*
X0209460Y0284450D01*
X0209440Y0284470D02*
X0203470Y0284470D01*
X0203490Y0284490D02*
X0209410Y0284490D01*
X0209390Y0284520D02*
X0203510Y0284520D01*
X0203540Y0284540D02*
X0209360Y0284540D01*
X0209340Y0284570D02*
X0203560Y0284570D01*
X0203590Y0284590D02*
X0209310Y0284590D01*
X0209290Y0284620D02*
X0203610Y0284620D01*
X0203640Y0284640D02*
X0209260Y0284640D01*
X0209240Y0284670D02*
X0203660Y0284670D01*
X0203690Y0284690D02*
X0209220Y0284690D01*
X0209180Y0284710D02*
X0203720Y0284710D01*
X0203760Y0284740D02*
X0209150Y0284740D01*
X0209110Y0284760D02*
X0203790Y0284760D01*
X0203830Y0284790D02*
X0209070Y0284790D01*
X0209030Y0284810D02*
X0203870Y0284810D01*
X0203910Y0284840D02*
X0208990Y0284840D01*
X0208950Y0284860D02*
X0203950Y0284860D01*
X0203990Y0284880D02*
X0208910Y0284880D01*
X0208850Y0284910D02*
X0204050Y0284910D01*
X0204120Y0284930D02*
X0208780Y0284930D01*
X0208710Y0284960D02*
X0204190Y0284960D01*
X0204260Y0284980D02*
X0208640Y0284980D01*
X0208560Y0285010D02*
X0204340Y0285010D01*
X0204550Y0285030D02*
X0208350Y0285030D01*
X0208220Y0285040D02*
X0204680Y0285040D01*
X0188930Y0283470D02*
X0188890Y0283120D01*
X0188770Y0282790D01*
X0188780Y0282790D02*
X0182390Y0282790D01*
X0182280Y0283120D01*
X0182240Y0283470D01*
X0182280Y0283820D01*
X0182390Y0284150D01*
X0188770Y0284150D01*
X0188890Y0283820D01*
X0188930Y0283470D01*
X0182240Y0283470D01*
X0182240Y0283450D02*
X0188930Y0283450D01*
X0188930Y0283420D02*
X0182240Y0283420D01*
X0182250Y0283400D02*
X0188920Y0283400D01*
X0188920Y0283370D02*
X0182250Y0283370D01*
X0182250Y0283350D02*
X0188920Y0283350D01*
X0188910Y0283320D02*
X0182250Y0283320D01*
X0182260Y0283300D02*
X0188910Y0283300D01*
X0188910Y0283280D02*
X0182260Y0283280D01*
X0182260Y0283250D02*
X0188910Y0283250D01*
X0188900Y0283230D02*
X0182270Y0283230D01*
X0182270Y0283200D02*
X0188900Y0283200D01*
X0188900Y0283180D02*
X0182270Y0283180D01*
X0182270Y0283150D02*
X0188900Y0283150D01*
X0188890Y0283130D02*
X0182280Y0283130D01*
X0182280Y0283110D02*
X0188890Y0283110D01*
X0188880Y0283080D02*
X0182290Y0283080D01*
X0182300Y0283060D02*
X0188870Y0283060D01*
X0188860Y0283030D02*
X0182310Y0283030D01*
X0182320Y0283010D02*
X0188850Y0283010D01*
X0188840Y0282980D02*
X0182320Y0282980D01*
X0182330Y0282960D02*
X0188840Y0282960D01*
X0188830Y0282930D02*
X0182340Y0282930D01*
X0182350Y0282910D02*
X0188820Y0282910D01*
X0188810Y0282890D02*
X0182360Y0282890D01*
X0182370Y0282860D02*
X0188800Y0282860D01*
X0188790Y0282840D02*
X0182380Y0282840D01*
X0182380Y0282810D02*
X0188780Y0282810D01*
X0188770Y0282790D02*
X0188590Y0282490D01*
X0188340Y0282240D01*
X0188040Y0282050D01*
X0187710Y0281930D01*
X0187710Y0281940D02*
X0183460Y0281940D01*
X0183460Y0281930D02*
X0183130Y0282050D01*
X0182830Y0282240D01*
X0182580Y0282490D01*
X0182390Y0282790D01*
X0182410Y0282760D02*
X0188760Y0282760D01*
X0188750Y0282740D02*
X0182420Y0282740D01*
X0182440Y0282720D02*
X0188730Y0282720D01*
X0188710Y0282690D02*
X0182450Y0282690D01*
X0182470Y0282670D02*
X0188700Y0282670D01*
X0188680Y0282640D02*
X0182480Y0282640D01*
X0182500Y0282620D02*
X0188670Y0282620D01*
X0188650Y0282590D02*
X0182520Y0282590D01*
X0182530Y0282570D02*
X0188640Y0282570D01*
X0188620Y0282540D02*
X0182550Y0282540D01*
X0182560Y0282520D02*
X0188610Y0282520D01*
X0188590Y0282500D02*
X0182580Y0282500D01*
X0182600Y0282470D02*
X0188570Y0282470D01*
X0188550Y0282450D02*
X0182620Y0282450D01*
X0182650Y0282420D02*
X0188520Y0282420D01*
X0188500Y0282400D02*
X0182670Y0282400D01*
X0182700Y0282370D02*
X0188470Y0282370D01*
X0188450Y0282350D02*
X0182720Y0282350D01*
X0182740Y0282330D02*
X0188420Y0282330D01*
X0188400Y0282300D02*
X0182770Y0282300D01*
X0182790Y0282280D02*
X0188380Y0282280D01*
X0188350Y0282250D02*
X0182820Y0282250D01*
X0182850Y0282230D02*
X0188320Y0282230D01*
X0188280Y0282200D02*
X0182890Y0282200D01*
X0182930Y0282180D02*
X0188240Y0282180D01*
X0188200Y0282150D02*
X0182960Y0282150D01*
X0183000Y0282130D02*
X0188170Y0282130D01*
X0188130Y0282110D02*
X0183040Y0282110D01*
X0183080Y0282080D02*
X0188090Y0282080D01*
X0188050Y0282060D02*
X0183120Y0282060D01*
X0183180Y0282030D02*
X0187990Y0282030D01*
X0187920Y0282010D02*
X0183250Y0282010D01*
X0183320Y0281980D02*
X0187850Y0281980D01*
X0187780Y0281960D02*
X0183390Y0281960D01*
X0183460Y0281930D02*
X0183810Y0281900D01*
X0187360Y0281900D01*
X0187710Y0281930D01*
X0187500Y0281910D02*
X0183670Y0281910D01*
X0183810Y0281900D02*
X0187360Y0281900D01*
X0188930Y0283500D02*
X0182240Y0283500D01*
X0182240Y0283520D02*
X0188930Y0283520D01*
X0188920Y0283540D02*
X0182250Y0283540D01*
X0182250Y0283570D02*
X0188920Y0283570D01*
X0188920Y0283590D02*
X0182250Y0283590D01*
X0182250Y0283620D02*
X0188910Y0283620D01*
X0188910Y0283640D02*
X0182260Y0283640D01*
X0182260Y0283670D02*
X0188910Y0283670D01*
X0188910Y0283690D02*
X0182260Y0283690D01*
X0182270Y0283710D02*
X0188900Y0283710D01*
X0188900Y0283740D02*
X0182270Y0283740D01*
X0182270Y0283760D02*
X0188900Y0283760D01*
X0188890Y0283790D02*
X0182270Y0283790D01*
X0182280Y0283810D02*
X0188890Y0283810D01*
X0188890Y0283840D02*
X0182280Y0283840D01*
X0182290Y0283860D02*
X0188880Y0283860D01*
X0188870Y0283890D02*
X0182300Y0283890D01*
X0182310Y0283910D02*
X0188860Y0283910D01*
X0188850Y0283930D02*
X0182320Y0283930D01*
X0182330Y0283960D02*
X0188840Y0283960D01*
X0188830Y0283980D02*
X0182330Y0283980D01*
X0182340Y0284010D02*
X0188830Y0284010D01*
X0188820Y0284030D02*
X0182350Y0284030D01*
X0182360Y0284060D02*
X0188810Y0284060D01*
X0188800Y0284080D02*
X0182370Y0284080D01*
X0182380Y0284100D02*
X0188790Y0284100D01*
X0188780Y0284130D02*
X0182390Y0284130D01*
X0182390Y0284150D02*
X0182580Y0284450D01*
X0182830Y0284700D01*
X0183130Y0284890D01*
X0183460Y0285010D01*
X0183810Y0285040D01*
X0187360Y0285040D01*
X0187710Y0285010D01*
X0188040Y0284890D01*
X0188340Y0284700D01*
X0188590Y0284450D01*
X0188770Y0284150D01*
X0188760Y0284180D02*
X0182410Y0284180D01*
X0182420Y0284200D02*
X0188740Y0284200D01*
X0188730Y0284230D02*
X0182440Y0284230D01*
X0182450Y0284250D02*
X0188710Y0284250D01*
X0188700Y0284280D02*
X0182470Y0284280D01*
X0182490Y0284300D02*
X0188680Y0284300D01*
X0188670Y0284320D02*
X0182500Y0284320D01*
X0182520Y0284350D02*
X0188650Y0284350D01*
X0188640Y0284370D02*
X0182530Y0284370D01*
X0182550Y0284400D02*
X0188620Y0284400D01*
X0188610Y0284420D02*
X0182560Y0284420D01*
X0182580Y0284450D02*
X0188590Y0284450D01*
X0188570Y0284470D02*
X0182600Y0284470D01*
X0182620Y0284490D02*
X0188540Y0284490D01*
X0188520Y0284520D02*
X0182650Y0284520D01*
X0182670Y0284540D02*
X0188500Y0284540D01*
X0188470Y0284570D02*
X0182700Y0284570D01*
X0182720Y0284590D02*
X0188450Y0284590D01*
X0188420Y0284620D02*
X0182750Y0284620D01*
X0182770Y0284640D02*
X0188400Y0284640D01*
X0188370Y0284670D02*
X0182790Y0284670D01*
X0182820Y0284690D02*
X0188350Y0284690D01*
X0188320Y0284710D02*
X0182850Y0284710D01*
X0182890Y0284740D02*
X0188280Y0284740D01*
X0188240Y0284760D02*
X0182930Y0284760D01*
X0182970Y0284790D02*
X0188200Y0284790D01*
X0188160Y0284810D02*
X0183010Y0284810D01*
X0183040Y0284840D02*
X0188120Y0284840D01*
X0188090Y0284860D02*
X0183080Y0284860D01*
X0183120Y0284880D02*
X0188050Y0284880D01*
X0187980Y0284910D02*
X0183190Y0284910D01*
X0183260Y0284930D02*
X0187910Y0284930D01*
X0187840Y0284960D02*
X0183330Y0284960D01*
X0183400Y0284980D02*
X0187770Y0284980D01*
X0187700Y0285010D02*
X0183470Y0285010D01*
X0183690Y0285030D02*
X0187480Y0285030D01*
X0187360Y0285040D02*
X0183810Y0285040D01*
X0010000Y0307200D02*
G75*
%LPD*%
D33*
X0182390Y0328350D02*
X0182280Y0328680D01*
X0182240Y0329030D01*
X0182280Y0329380D01*
X0182390Y0329710D01*
X0182580Y0330010D01*
X0188590Y0330010D01*
X0188770Y0329710D01*
X0188890Y0329380D01*
X0188930Y0329030D01*
X0188890Y0328680D01*
X0188770Y0328350D01*
X0188590Y0328050D01*
X0188340Y0327800D01*
X0188040Y0327610D01*
X0187710Y0327490D01*
X0187360Y0327460D01*
X0183810Y0327460D01*
X0183460Y0327490D01*
X0183130Y0327610D01*
X0182830Y0327800D01*
X0182580Y0328050D01*
X0182390Y0328350D01*
X0188780Y0328350D01*
X0188760Y0328330D02*
X0182400Y0328330D01*
X0182420Y0328300D02*
X0188750Y0328300D01*
X0188730Y0328280D02*
X0182440Y0328280D01*
X0182450Y0328260D02*
X0188720Y0328260D01*
X0188700Y0328230D02*
X0182470Y0328230D01*
X0182480Y0328210D02*
X0188690Y0328210D01*
X0188670Y0328180D02*
X0182500Y0328180D01*
X0182510Y0328160D02*
X0188660Y0328160D01*
X0188640Y0328130D02*
X0182530Y0328130D01*
X0182540Y0328110D02*
X0188630Y0328110D01*
X0188610Y0328090D02*
X0182560Y0328090D01*
X0182570Y0328060D02*
X0188600Y0328060D01*
X0188580Y0328040D02*
X0182590Y0328040D01*
X0182620Y0328010D02*
X0188550Y0328010D01*
X0188530Y0327990D02*
X0182640Y0327990D01*
X0182670Y0327960D02*
X0188500Y0327960D01*
X0188480Y0327940D02*
X0182690Y0327940D01*
X0182710Y0327910D02*
X0188450Y0327910D01*
X0188430Y0327890D02*
X0182740Y0327890D01*
X0182760Y0327870D02*
X0188400Y0327870D01*
X0188380Y0327840D02*
X0182790Y0327840D01*
X0182810Y0327820D02*
X0188360Y0327820D01*
X0188330Y0327790D02*
X0182840Y0327790D01*
X0182880Y0327770D02*
X0188290Y0327770D01*
X0188250Y0327740D02*
X0182920Y0327740D01*
X0182960Y0327720D02*
X0188210Y0327720D01*
X0188170Y0327700D02*
X0183000Y0327700D01*
X0183030Y0327670D02*
X0188130Y0327670D01*
X0188100Y0327650D02*
X0183070Y0327650D01*
X0183110Y0327620D02*
X0188060Y0327620D01*
X0188000Y0327600D02*
X0183170Y0327600D01*
X0183240Y0327570D02*
X0187930Y0327570D01*
X0187860Y0327550D02*
X0183310Y0327550D01*
X0183380Y0327520D02*
X0187790Y0327520D01*
X0187720Y0327500D02*
X0183450Y0327500D01*
X0183630Y0327480D02*
X0187540Y0327480D01*
X0187360Y0327460D02*
X0183810Y0327460D01*
X0182380Y0328380D02*
X0188790Y0328380D01*
X0188790Y0328400D02*
X0182370Y0328400D01*
X0182370Y0328430D02*
X0188800Y0328430D01*
X0188810Y0328450D02*
X0182360Y0328450D01*
X0182350Y0328480D02*
X0188820Y0328480D01*
X0188830Y0328500D02*
X0182340Y0328500D01*
X0182330Y0328520D02*
X0188840Y0328520D01*
X0188850Y0328550D02*
X0182320Y0328550D01*
X0182310Y0328570D02*
X0188850Y0328570D01*
X0188860Y0328600D02*
X0182310Y0328600D01*
X0182300Y0328620D02*
X0188870Y0328620D01*
X0188880Y0328650D02*
X0182290Y0328650D01*
X0182280Y0328670D02*
X0188890Y0328670D01*
X0188890Y0328690D02*
X0182280Y0328690D01*
X0182270Y0328720D02*
X0188900Y0328720D01*
X0188900Y0328740D02*
X0182270Y0328740D01*
X0182270Y0328770D02*
X0188900Y0328770D01*
X0188900Y0328790D02*
X0182260Y0328790D01*
X0182260Y0328820D02*
X0188910Y0328820D01*
X0188910Y0328840D02*
X0182260Y0328840D01*
X0182260Y0328870D02*
X0188910Y0328870D01*
X0188910Y0328890D02*
X0182250Y0328890D01*
X0182250Y0328910D02*
X0188920Y0328910D01*
X0188920Y0328940D02*
X0182250Y0328940D01*
X0182250Y0328960D02*
X0188920Y0328960D01*
X0188930Y0328990D02*
X0182240Y0328990D01*
X0182240Y0329010D02*
X0188930Y0329010D01*
X0188930Y0329040D02*
X0182240Y0329040D01*
X0182240Y0329060D02*
X0188930Y0329060D01*
X0188920Y0329080D02*
X0182240Y0329080D01*
X0182250Y0329110D02*
X0188920Y0329110D01*
X0188920Y0329130D02*
X0182250Y0329130D01*
X0182250Y0329160D02*
X0188920Y0329160D01*
X0188910Y0329180D02*
X0182250Y0329180D01*
X0182260Y0329210D02*
X0188910Y0329210D01*
X0188910Y0329230D02*
X0182260Y0329230D01*
X0182260Y0329250D02*
X0188910Y0329250D01*
X0188900Y0329280D02*
X0182270Y0329280D01*
X0182270Y0329300D02*
X0188900Y0329300D01*
X0188900Y0329330D02*
X0182270Y0329330D01*
X0182270Y0329350D02*
X0188890Y0329350D01*
X0188890Y0329380D02*
X0182280Y0329380D01*
X0182280Y0329400D02*
X0188880Y0329400D01*
X0188880Y0329430D02*
X0182290Y0329430D01*
X0182300Y0329450D02*
X0188870Y0329450D01*
X0188860Y0329470D02*
X0182310Y0329470D01*
X0182320Y0329500D02*
X0188850Y0329500D01*
X0188840Y0329520D02*
X0182330Y0329520D01*
X0182340Y0329550D02*
X0188830Y0329550D01*
X0188820Y0329570D02*
X0182340Y0329570D01*
X0182350Y0329600D02*
X0188820Y0329600D01*
X0188810Y0329620D02*
X0182360Y0329620D01*
X0182370Y0329640D02*
X0188800Y0329640D01*
X0188790Y0329670D02*
X0182380Y0329670D01*
X0182390Y0329690D02*
X0188780Y0329690D01*
X0188770Y0329720D02*
X0182400Y0329720D01*
X0182410Y0329740D02*
X0188760Y0329740D01*
X0188740Y0329770D02*
X0182430Y0329770D01*
X0182440Y0329790D02*
X0188730Y0329790D01*
X0188710Y0329820D02*
X0182460Y0329820D01*
X0182470Y0329840D02*
X0188700Y0329840D01*
X0188680Y0329860D02*
X0182490Y0329860D01*
X0182500Y0329890D02*
X0188660Y0329890D01*
X0188650Y0329910D02*
X0182520Y0329910D01*
X0182530Y0329940D02*
X0188630Y0329940D01*
X0188620Y0329960D02*
X0182550Y0329960D01*
X0182570Y0329990D02*
X0188600Y0329990D01*
X0188590Y0330010D02*
X0188340Y0330260D01*
X0188040Y0330450D01*
X0187710Y0330570D01*
X0187360Y0330600D01*
X0183810Y0330600D01*
X0183460Y0330570D01*
X0183130Y0330450D01*
X0188040Y0330450D01*
X0188080Y0330420D02*
X0183090Y0330420D01*
X0183050Y0330400D02*
X0188120Y0330400D01*
X0188150Y0330380D02*
X0183010Y0330380D01*
X0182970Y0330350D02*
X0188190Y0330350D01*
X0188230Y0330330D02*
X0182940Y0330330D01*
X0182900Y0330300D02*
X0188270Y0330300D01*
X0188310Y0330280D02*
X0182860Y0330280D01*
X0182830Y0330260D02*
X0183130Y0330450D01*
X0183200Y0330470D02*
X0187970Y0330470D01*
X0187900Y0330500D02*
X0183270Y0330500D01*
X0183340Y0330520D02*
X0187830Y0330520D01*
X0187760Y0330550D02*
X0183410Y0330550D01*
X0183510Y0330570D02*
X0187650Y0330570D01*
X0187440Y0330600D02*
X0183730Y0330600D01*
X0183810Y0330600D02*
X0187360Y0330600D01*
X0188340Y0330250D02*
X0182820Y0330250D01*
X0182830Y0330260D02*
X0182580Y0330010D01*
X0182600Y0330030D02*
X0188560Y0330030D01*
X0188540Y0330060D02*
X0182630Y0330060D01*
X0182650Y0330080D02*
X0188520Y0330080D01*
X0188490Y0330110D02*
X0182680Y0330110D01*
X0182700Y0330130D02*
X0188470Y0330130D01*
X0188440Y0330160D02*
X0182730Y0330160D01*
X0182750Y0330180D02*
X0188420Y0330180D01*
X0188390Y0330210D02*
X0182780Y0330210D01*
X0182800Y0330230D02*
X0188370Y0330230D01*
X0203100Y0329030D02*
X0203140Y0329380D01*
X0203260Y0329710D01*
X0203450Y0330010D01*
X0203700Y0330260D01*
X0204000Y0330450D01*
X0208900Y0330450D01*
X0208910Y0330450D02*
X0209200Y0330260D01*
X0209450Y0330010D01*
X0209640Y0329710D01*
X0209760Y0329380D01*
X0209800Y0329030D01*
X0209760Y0328680D01*
X0209640Y0328350D01*
X0209450Y0328050D01*
X0209200Y0327800D01*
X0208910Y0327610D01*
X0208570Y0327490D01*
X0208220Y0327460D01*
X0204680Y0327460D01*
X0204330Y0327490D01*
X0204000Y0327610D01*
X0203700Y0327800D01*
X0203450Y0328050D01*
X0203260Y0328350D01*
X0203140Y0328680D01*
X0203100Y0329030D01*
X0203100Y0329040D02*
X0209800Y0329040D01*
X0209790Y0329060D02*
X0203110Y0329060D01*
X0203110Y0329080D02*
X0209790Y0329080D01*
X0209790Y0329110D02*
X0203110Y0329110D01*
X0203120Y0329130D02*
X0209790Y0329130D01*
X0209780Y0329160D02*
X0203120Y0329160D01*
X0203120Y0329180D02*
X0209780Y0329180D01*
X0209780Y0329210D02*
X0203120Y0329210D01*
X0203130Y0329230D02*
X0209770Y0329230D01*
X0209770Y0329250D02*
X0203130Y0329250D01*
X0203130Y0329280D02*
X0209770Y0329280D01*
X0209770Y0329300D02*
X0203130Y0329300D01*
X0203140Y0329330D02*
X0209760Y0329330D01*
X0209760Y0329350D02*
X0203140Y0329350D01*
X0203140Y0329380D02*
X0209760Y0329380D01*
X0209750Y0329400D02*
X0203150Y0329400D01*
X0203160Y0329430D02*
X0209740Y0329430D01*
X0209730Y0329450D02*
X0203170Y0329450D01*
X0203180Y0329470D02*
X0209720Y0329470D01*
X0209720Y0329500D02*
X0203180Y0329500D01*
X0203190Y0329520D02*
X0209710Y0329520D01*
X0209700Y0329550D02*
X0203200Y0329550D01*
X0203210Y0329570D02*
X0209690Y0329570D01*
X0209680Y0329600D02*
X0203220Y0329600D01*
X0203230Y0329620D02*
X0209670Y0329620D01*
X0209660Y0329640D02*
X0203240Y0329640D01*
X0203240Y0329670D02*
X0209660Y0329670D01*
X0209650Y0329690D02*
X0203250Y0329690D01*
X0203260Y0329720D02*
X0209640Y0329720D01*
X0209620Y0329740D02*
X0203280Y0329740D01*
X0203290Y0329770D02*
X0209610Y0329770D01*
X0209590Y0329790D02*
X0203310Y0329790D01*
X0203320Y0329820D02*
X0209580Y0329820D01*
X0209560Y0329840D02*
X0203340Y0329840D01*
X0203350Y0329860D02*
X0209550Y0329860D01*
X0209530Y0329890D02*
X0203370Y0329890D01*
X0203390Y0329910D02*
X0209520Y0329910D01*
X0209500Y0329940D02*
X0203400Y0329940D01*
X0203420Y0329960D02*
X0209480Y0329960D01*
X0209470Y0329990D02*
X0203430Y0329990D01*
X0203450Y0330010D02*
X0209450Y0330010D01*
X0209430Y0330030D02*
X0203470Y0330030D01*
X0203490Y0330060D02*
X0209410Y0330060D01*
X0209380Y0330080D02*
X0203520Y0330080D01*
X0203540Y0330110D02*
X0209360Y0330110D01*
X0209330Y0330130D02*
X0203570Y0330130D01*
X0203590Y0330160D02*
X0209310Y0330160D01*
X0209280Y0330180D02*
X0203620Y0330180D01*
X0203640Y0330210D02*
X0209260Y0330210D01*
X0209240Y0330230D02*
X0203670Y0330230D01*
X0203690Y0330250D02*
X0209210Y0330250D01*
X0209180Y0330280D02*
X0203720Y0330280D01*
X0203760Y0330300D02*
X0209140Y0330300D01*
X0209100Y0330330D02*
X0203800Y0330330D01*
X0203840Y0330350D02*
X0209060Y0330350D01*
X0209020Y0330380D02*
X0203880Y0330380D01*
X0203920Y0330400D02*
X0208980Y0330400D01*
X0208940Y0330420D02*
X0203960Y0330420D01*
X0204000Y0330450D02*
X0204330Y0330570D01*
X0204680Y0330600D01*
X0208220Y0330600D01*
X0208570Y0330570D01*
X0208910Y0330450D01*
X0208830Y0330470D02*
X0204070Y0330470D01*
X0204140Y0330500D02*
X0208760Y0330500D01*
X0208700Y0330520D02*
X0204210Y0330520D01*
X0204280Y0330550D02*
X0208630Y0330550D01*
X0208520Y0330570D02*
X0204380Y0330570D01*
X0204600Y0330600D02*
X0208300Y0330600D01*
X0208220Y0330600D02*
X0204680Y0330600D01*
X0203110Y0329010D02*
X0209790Y0329010D01*
X0209790Y0328990D02*
X0203110Y0328990D01*
X0203110Y0328960D02*
X0209790Y0328960D01*
X0209790Y0328940D02*
X0203110Y0328940D01*
X0203120Y0328910D02*
X0209780Y0328910D01*
X0209780Y0328890D02*
X0203120Y0328890D01*
X0203120Y0328870D02*
X0209780Y0328870D01*
X0209780Y0328840D02*
X0203130Y0328840D01*
X0203130Y0328820D02*
X0209770Y0328820D01*
X0209770Y0328790D02*
X0203130Y0328790D01*
X0203130Y0328770D02*
X0209770Y0328770D01*
X0209760Y0328740D02*
X0203140Y0328740D01*
X0203140Y0328720D02*
X0209760Y0328720D01*
X0209760Y0328690D02*
X0203140Y0328690D01*
X0203150Y0328670D02*
X0209750Y0328670D01*
X0209750Y0328650D02*
X0203160Y0328650D01*
X0203160Y0328620D02*
X0209740Y0328620D01*
X0209730Y0328600D02*
X0203170Y0328600D01*
X0203180Y0328570D02*
X0209720Y0328570D01*
X0209710Y0328550D02*
X0203190Y0328550D01*
X0203200Y0328520D02*
X0209700Y0328520D01*
X0209690Y0328500D02*
X0203210Y0328500D01*
X0203210Y0328480D02*
X0209690Y0328480D01*
X0209680Y0328450D02*
X0203220Y0328450D01*
X0203230Y0328430D02*
X0209670Y0328430D01*
X0209660Y0328400D02*
X0203240Y0328400D01*
X0203250Y0328380D02*
X0209650Y0328380D01*
X0209640Y0328350D02*
X0203260Y0328350D01*
X0203270Y0328330D02*
X0209630Y0328330D01*
X0209610Y0328300D02*
X0203290Y0328300D01*
X0203300Y0328280D02*
X0209600Y0328280D01*
X0209580Y0328260D02*
X0203320Y0328260D01*
X0203330Y0328230D02*
X0209570Y0328230D01*
X0209550Y0328210D02*
X0203350Y0328210D01*
X0203360Y0328180D02*
X0209540Y0328180D01*
X0209520Y0328160D02*
X0203380Y0328160D01*
X0203390Y0328130D02*
X0209510Y0328130D01*
X0209490Y0328110D02*
X0203410Y0328110D01*
X0203420Y0328090D02*
X0209480Y0328090D01*
X0209460Y0328060D02*
X0203440Y0328060D01*
X0203460Y0328040D02*
X0209440Y0328040D01*
X0209420Y0328010D02*
X0203480Y0328010D01*
X0203510Y0327990D02*
X0209390Y0327990D01*
X0209370Y0327960D02*
X0203530Y0327960D01*
X0203560Y0327940D02*
X0209340Y0327940D01*
X0209320Y0327910D02*
X0203580Y0327910D01*
X0203610Y0327890D02*
X0209300Y0327890D01*
X0209270Y0327870D02*
X0203630Y0327870D01*
X0203650Y0327840D02*
X0209250Y0327840D01*
X0209220Y0327820D02*
X0203680Y0327820D01*
X0203710Y0327790D02*
X0209190Y0327790D01*
X0209160Y0327770D02*
X0203750Y0327770D01*
X0203780Y0327740D02*
X0209120Y0327740D01*
X0209080Y0327720D02*
X0203820Y0327720D01*
X0203860Y0327700D02*
X0209040Y0327700D01*
X0209000Y0327670D02*
X0203900Y0327670D01*
X0203940Y0327650D02*
X0208960Y0327650D01*
X0208920Y0327620D02*
X0203980Y0327620D01*
X0204030Y0327600D02*
X0208870Y0327600D01*
X0208800Y0327570D02*
X0204100Y0327570D01*
X0204170Y0327550D02*
X0208730Y0327550D01*
X0208660Y0327520D02*
X0204240Y0327520D01*
X0204310Y0327500D02*
X0208590Y0327500D01*
X0208410Y0327480D02*
X0204500Y0327480D01*
X0204680Y0327460D02*
X0208220Y0327460D01*
X0208220Y0356200D02*
X0204680Y0356200D01*
X0204330Y0356230D01*
X0204000Y0356350D01*
X0203700Y0356540D01*
X0203450Y0356790D01*
X0203260Y0357090D01*
X0209640Y0357090D01*
X0209450Y0356790D01*
X0209200Y0356540D01*
X0208910Y0356350D01*
X0208570Y0356230D01*
X0208220Y0356200D01*
X0204680Y0356200D01*
X0204540Y0356210D02*
X0208360Y0356210D01*
X0208570Y0356240D02*
X0204330Y0356240D01*
X0204260Y0356260D02*
X0208640Y0356260D01*
X0208710Y0356280D02*
X0204190Y0356280D01*
X0204120Y0356310D02*
X0208780Y0356310D01*
X0208850Y0356330D02*
X0204050Y0356330D01*
X0203990Y0356360D02*
X0208910Y0356360D01*
X0208950Y0356380D02*
X0203950Y0356380D01*
X0203910Y0356410D02*
X0208990Y0356410D01*
X0209030Y0356430D02*
X0203870Y0356430D01*
X0203830Y0356450D02*
X0209070Y0356450D01*
X0209110Y0356480D02*
X0203790Y0356480D01*
X0203750Y0356500D02*
X0209150Y0356500D01*
X0209190Y0356530D02*
X0203710Y0356530D01*
X0203680Y0356550D02*
X0209220Y0356550D01*
X0209240Y0356580D02*
X0203660Y0356580D01*
X0203630Y0356600D02*
X0209270Y0356600D01*
X0209290Y0356630D02*
X0203610Y0356630D01*
X0203590Y0356650D02*
X0209310Y0356650D01*
X0209340Y0356670D02*
X0203560Y0356670D01*
X0203540Y0356700D02*
X0209360Y0356700D01*
X0209390Y0356720D02*
X0203510Y0356720D01*
X0203490Y0356750D02*
X0209410Y0356750D01*
X0209440Y0356770D02*
X0203460Y0356770D01*
X0203440Y0356800D02*
X0209460Y0356800D01*
X0209470Y0356820D02*
X0203430Y0356820D01*
X0203410Y0356840D02*
X0209490Y0356840D01*
X0209500Y0356870D02*
X0203400Y0356870D01*
X0203380Y0356890D02*
X0209520Y0356890D01*
X0209530Y0356920D02*
X0203370Y0356920D01*
X0203350Y0356940D02*
X0209550Y0356940D01*
X0209570Y0356970D02*
X0203340Y0356970D01*
X0203320Y0356990D02*
X0209580Y0356990D01*
X0209600Y0357020D02*
X0203300Y0357020D01*
X0203290Y0357040D02*
X0209610Y0357040D01*
X0209630Y0357060D02*
X0203270Y0357060D01*
X0203260Y0357090D02*
X0203140Y0357420D01*
X0203100Y0357770D01*
X0203140Y0358120D01*
X0203260Y0358450D01*
X0209640Y0358450D01*
X0209760Y0358120D01*
X0209800Y0357770D01*
X0209760Y0357420D01*
X0209640Y0357090D01*
X0209650Y0357110D02*
X0203250Y0357110D01*
X0203240Y0357140D02*
X0209660Y0357140D01*
X0209670Y0357160D02*
X0203230Y0357160D01*
X0203230Y0357190D02*
X0209680Y0357190D01*
X0209680Y0357210D02*
X0203220Y0357210D01*
X0203210Y0357230D02*
X0209690Y0357230D01*
X0209700Y0357260D02*
X0203200Y0357260D01*
X0203190Y0357280D02*
X0209710Y0357280D01*
X0209720Y0357310D02*
X0203180Y0357310D01*
X0203170Y0357330D02*
X0209730Y0357330D01*
X0209740Y0357360D02*
X0203170Y0357360D01*
X0203160Y0357380D02*
X0209740Y0357380D01*
X0209750Y0357410D02*
X0203150Y0357410D01*
X0203140Y0357430D02*
X0209760Y0357430D01*
X0209760Y0357450D02*
X0203140Y0357450D01*
X0203140Y0357480D02*
X0209760Y0357480D01*
X0209770Y0357500D02*
X0203130Y0357500D01*
X0203130Y0357530D02*
X0209770Y0357530D01*
X0209770Y0357550D02*
X0203130Y0357550D01*
X0203130Y0357580D02*
X0209770Y0357580D01*
X0209780Y0357600D02*
X0203120Y0357600D01*
X0203120Y0357620D02*
X0209780Y0357620D01*
X0209780Y0357650D02*
X0203120Y0357650D01*
X0203110Y0357670D02*
X0209790Y0357670D01*
X0209790Y0357700D02*
X0203110Y0357700D01*
X0203110Y0357720D02*
X0209790Y0357720D01*
X0209790Y0357750D02*
X0203110Y0357750D01*
X0203100Y0357770D02*
X0209800Y0357770D01*
X0209790Y0357800D02*
X0203110Y0357800D01*
X0203110Y0357820D02*
X0209790Y0357820D01*
X0209790Y0357840D02*
X0203110Y0357840D01*
X0203110Y0357870D02*
X0209790Y0357870D01*
X0209780Y0357890D02*
X0203120Y0357890D01*
X0203120Y0357920D02*
X0209780Y0357920D01*
X0209780Y0357940D02*
X0203120Y0357940D01*
X0203130Y0357970D02*
X0209770Y0357970D01*
X0209770Y0357990D02*
X0203130Y0357990D01*
X0203130Y0358010D02*
X0209770Y0358010D01*
X0209770Y0358040D02*
X0203130Y0358040D01*
X0203140Y0358060D02*
X0209760Y0358060D01*
X0209760Y0358090D02*
X0203140Y0358090D01*
X0203140Y0358110D02*
X0209760Y0358110D01*
X0209750Y0358140D02*
X0203150Y0358140D01*
X0203160Y0358160D02*
X0209740Y0358160D01*
X0209730Y0358190D02*
X0203170Y0358190D01*
X0203170Y0358210D02*
X0209730Y0358210D01*
X0209720Y0358230D02*
X0203180Y0358230D01*
X0203190Y0358260D02*
X0209710Y0358260D01*
X0209700Y0358280D02*
X0203200Y0358280D01*
X0203210Y0358310D02*
X0209690Y0358310D01*
X0209680Y0358330D02*
X0203220Y0358330D01*
X0203230Y0358360D02*
X0209680Y0358360D01*
X0209670Y0358380D02*
X0203230Y0358380D01*
X0203240Y0358400D02*
X0209660Y0358400D01*
X0209650Y0358430D02*
X0203250Y0358430D01*
X0203260Y0358450D02*
X0203450Y0358750D01*
X0203700Y0359000D01*
X0204000Y0359190D01*
X0204330Y0359310D01*
X0204680Y0359340D01*
X0208220Y0359340D01*
X0208570Y0359310D01*
X0208910Y0359190D01*
X0209200Y0359000D01*
X0209450Y0358750D01*
X0209640Y0358450D01*
X0209630Y0358480D02*
X0203280Y0358480D01*
X0203290Y0358500D02*
X0209610Y0358500D01*
X0209600Y0358530D02*
X0203310Y0358530D01*
X0203320Y0358550D02*
X0209580Y0358550D01*
X0209560Y0358580D02*
X0203340Y0358580D01*
X0203350Y0358600D02*
X0209550Y0358600D01*
X0209530Y0358620D02*
X0203370Y0358620D01*
X0203380Y0358650D02*
X0209520Y0358650D01*
X0209500Y0358670D02*
X0203400Y0358670D01*
X0203410Y0358700D02*
X0209490Y0358700D01*
X0209470Y0358720D02*
X0203430Y0358720D01*
X0203440Y0358750D02*
X0209460Y0358750D01*
X0209440Y0358770D02*
X0203470Y0358770D01*
X0203490Y0358790D02*
X0209410Y0358790D01*
X0209390Y0358820D02*
X0203510Y0358820D01*
X0203540Y0358840D02*
X0209360Y0358840D01*
X0209340Y0358870D02*
X0203560Y0358870D01*
X0203590Y0358890D02*
X0209310Y0358890D01*
X0209290Y0358920D02*
X0203610Y0358920D01*
X0203640Y0358940D02*
X0209260Y0358940D01*
X0209240Y0358970D02*
X0203660Y0358970D01*
X0203690Y0358990D02*
X0209220Y0358990D01*
X0209180Y0359010D02*
X0203720Y0359010D01*
X0203760Y0359040D02*
X0209150Y0359040D01*
X0209110Y0359060D02*
X0203790Y0359060D01*
X0203830Y0359090D02*
X0209070Y0359090D01*
X0209030Y0359110D02*
X0203870Y0359110D01*
X0203910Y0359140D02*
X0208990Y0359140D01*
X0208950Y0359160D02*
X0203950Y0359160D01*
X0203990Y0359180D02*
X0208910Y0359180D01*
X0208850Y0359210D02*
X0204050Y0359210D01*
X0204120Y0359230D02*
X0208780Y0359230D01*
X0208710Y0359260D02*
X0204190Y0359260D01*
X0204260Y0359280D02*
X0208640Y0359280D01*
X0208560Y0359310D02*
X0204340Y0359310D01*
X0204550Y0359330D02*
X0208350Y0359330D01*
X0208220Y0359340D02*
X0204680Y0359340D01*
X0188930Y0357770D02*
X0188890Y0357420D01*
X0188770Y0357090D01*
X0188780Y0357090D02*
X0182390Y0357090D01*
X0182280Y0357420D01*
X0182240Y0357770D01*
X0182280Y0358120D01*
X0182390Y0358450D01*
X0188770Y0358450D01*
X0188890Y0358120D01*
X0188930Y0357770D01*
X0182240Y0357770D01*
X0182240Y0357750D02*
X0188930Y0357750D01*
X0188930Y0357720D02*
X0182240Y0357720D01*
X0182250Y0357700D02*
X0188920Y0357700D01*
X0188920Y0357670D02*
X0182250Y0357670D01*
X0182250Y0357650D02*
X0188920Y0357650D01*
X0188910Y0357620D02*
X0182250Y0357620D01*
X0182260Y0357600D02*
X0188910Y0357600D01*
X0188910Y0357580D02*
X0182260Y0357580D01*
X0182260Y0357550D02*
X0188910Y0357550D01*
X0188900Y0357530D02*
X0182270Y0357530D01*
X0182270Y0357500D02*
X0188900Y0357500D01*
X0188900Y0357480D02*
X0182270Y0357480D01*
X0182270Y0357450D02*
X0188900Y0357450D01*
X0188890Y0357430D02*
X0182280Y0357430D01*
X0182280Y0357410D02*
X0188890Y0357410D01*
X0188880Y0357380D02*
X0182290Y0357380D01*
X0182300Y0357360D02*
X0188870Y0357360D01*
X0188860Y0357330D02*
X0182310Y0357330D01*
X0182320Y0357310D02*
X0188850Y0357310D01*
X0188840Y0357280D02*
X0182320Y0357280D01*
X0182330Y0357260D02*
X0188840Y0357260D01*
X0188830Y0357230D02*
X0182340Y0357230D01*
X0182350Y0357210D02*
X0188820Y0357210D01*
X0188810Y0357190D02*
X0182360Y0357190D01*
X0182370Y0357160D02*
X0188800Y0357160D01*
X0188790Y0357140D02*
X0182380Y0357140D01*
X0182380Y0357110D02*
X0188780Y0357110D01*
X0188770Y0357090D02*
X0188590Y0356790D01*
X0188340Y0356540D01*
X0188040Y0356350D01*
X0187710Y0356230D01*
X0187710Y0356240D02*
X0183460Y0356240D01*
X0183460Y0356230D02*
X0183130Y0356350D01*
X0182830Y0356540D01*
X0182580Y0356790D01*
X0182390Y0357090D01*
X0182410Y0357060D02*
X0188760Y0357060D01*
X0188750Y0357040D02*
X0182420Y0357040D01*
X0182440Y0357020D02*
X0188730Y0357020D01*
X0188710Y0356990D02*
X0182450Y0356990D01*
X0182470Y0356970D02*
X0188700Y0356970D01*
X0188680Y0356940D02*
X0182480Y0356940D01*
X0182500Y0356920D02*
X0188670Y0356920D01*
X0188650Y0356890D02*
X0182520Y0356890D01*
X0182530Y0356870D02*
X0188640Y0356870D01*
X0188620Y0356840D02*
X0182550Y0356840D01*
X0182560Y0356820D02*
X0188610Y0356820D01*
X0188590Y0356800D02*
X0182580Y0356800D01*
X0182600Y0356770D02*
X0188570Y0356770D01*
X0188550Y0356750D02*
X0182620Y0356750D01*
X0182650Y0356720D02*
X0188520Y0356720D01*
X0188500Y0356700D02*
X0182670Y0356700D01*
X0182700Y0356670D02*
X0188470Y0356670D01*
X0188450Y0356650D02*
X0182720Y0356650D01*
X0182740Y0356630D02*
X0188420Y0356630D01*
X0188400Y0356600D02*
X0182770Y0356600D01*
X0182790Y0356580D02*
X0188380Y0356580D01*
X0188350Y0356550D02*
X0182820Y0356550D01*
X0182850Y0356530D02*
X0188320Y0356530D01*
X0188280Y0356500D02*
X0182890Y0356500D01*
X0182930Y0356480D02*
X0188240Y0356480D01*
X0188200Y0356450D02*
X0182960Y0356450D01*
X0183000Y0356430D02*
X0188170Y0356430D01*
X0188130Y0356410D02*
X0183040Y0356410D01*
X0183080Y0356380D02*
X0188090Y0356380D01*
X0188050Y0356360D02*
X0183120Y0356360D01*
X0183180Y0356330D02*
X0187990Y0356330D01*
X0187920Y0356310D02*
X0183250Y0356310D01*
X0183320Y0356280D02*
X0187850Y0356280D01*
X0187780Y0356260D02*
X0183390Y0356260D01*
X0183460Y0356230D02*
X0183810Y0356200D01*
X0187360Y0356200D01*
X0187710Y0356230D01*
X0187500Y0356210D02*
X0183670Y0356210D01*
X0183810Y0356200D02*
X0187360Y0356200D01*
X0188930Y0357800D02*
X0182240Y0357800D01*
X0182240Y0357820D02*
X0188930Y0357820D01*
X0188920Y0357840D02*
X0182250Y0357840D01*
X0182250Y0357870D02*
X0188920Y0357870D01*
X0188920Y0357890D02*
X0182250Y0357890D01*
X0182250Y0357920D02*
X0188910Y0357920D01*
X0188910Y0357940D02*
X0182260Y0357940D01*
X0182260Y0357970D02*
X0188910Y0357970D01*
X0188910Y0357990D02*
X0182260Y0357990D01*
X0182270Y0358010D02*
X0188900Y0358010D01*
X0188900Y0358040D02*
X0182270Y0358040D01*
X0182270Y0358060D02*
X0188900Y0358060D01*
X0188890Y0358090D02*
X0182270Y0358090D01*
X0182280Y0358110D02*
X0188890Y0358110D01*
X0188890Y0358140D02*
X0182280Y0358140D01*
X0182290Y0358160D02*
X0188880Y0358160D01*
X0188870Y0358190D02*
X0182300Y0358190D01*
X0182310Y0358210D02*
X0188860Y0358210D01*
X0188850Y0358230D02*
X0182320Y0358230D01*
X0182330Y0358260D02*
X0188840Y0358260D01*
X0188830Y0358280D02*
X0182330Y0358280D01*
X0182340Y0358310D02*
X0188830Y0358310D01*
X0188820Y0358330D02*
X0182350Y0358330D01*
X0182360Y0358360D02*
X0188810Y0358360D01*
X0188800Y0358380D02*
X0182370Y0358380D01*
X0182380Y0358400D02*
X0188790Y0358400D01*
X0188780Y0358430D02*
X0182390Y0358430D01*
X0182390Y0358450D02*
X0182580Y0358750D01*
X0182830Y0359000D01*
X0183130Y0359190D01*
X0183460Y0359310D01*
X0183810Y0359340D01*
X0187360Y0359340D01*
X0187710Y0359310D01*
X0188040Y0359190D01*
X0188340Y0359000D01*
X0188590Y0358750D01*
X0188770Y0358450D01*
X0188760Y0358480D02*
X0182410Y0358480D01*
X0182420Y0358500D02*
X0188740Y0358500D01*
X0188730Y0358530D02*
X0182440Y0358530D01*
X0182450Y0358550D02*
X0188710Y0358550D01*
X0188700Y0358580D02*
X0182470Y0358580D01*
X0182490Y0358600D02*
X0188680Y0358600D01*
X0188670Y0358620D02*
X0182500Y0358620D01*
X0182520Y0358650D02*
X0188650Y0358650D01*
X0188640Y0358670D02*
X0182530Y0358670D01*
X0182550Y0358700D02*
X0188620Y0358700D01*
X0188610Y0358720D02*
X0182560Y0358720D01*
X0182580Y0358750D02*
X0188590Y0358750D01*
X0188570Y0358770D02*
X0182600Y0358770D01*
X0182620Y0358790D02*
X0188540Y0358790D01*
X0188520Y0358820D02*
X0182650Y0358820D01*
X0182670Y0358840D02*
X0188500Y0358840D01*
X0188470Y0358870D02*
X0182700Y0358870D01*
X0182720Y0358890D02*
X0188450Y0358890D01*
X0188420Y0358920D02*
X0182750Y0358920D01*
X0182770Y0358940D02*
X0188400Y0358940D01*
X0188370Y0358970D02*
X0182790Y0358970D01*
X0182820Y0358990D02*
X0188350Y0358990D01*
X0188320Y0359010D02*
X0182850Y0359010D01*
X0182890Y0359040D02*
X0188280Y0359040D01*
X0188240Y0359060D02*
X0182930Y0359060D01*
X0182970Y0359090D02*
X0188200Y0359090D01*
X0188160Y0359110D02*
X0183010Y0359110D01*
X0183040Y0359140D02*
X0188120Y0359140D01*
X0188090Y0359160D02*
X0183080Y0359160D01*
X0183120Y0359180D02*
X0188050Y0359180D01*
X0187980Y0359210D02*
X0183190Y0359210D01*
X0183260Y0359230D02*
X0187910Y0359230D01*
X0187840Y0359260D02*
X0183330Y0359260D01*
X0183400Y0359280D02*
X0187770Y0359280D01*
X0187700Y0359310D02*
X0183470Y0359310D01*
X0183690Y0359330D02*
X0187480Y0359330D01*
X0187360Y0359340D02*
X0183810Y0359340D01*
M02*
