G75*
G70*
%OFA0B0*%
%FSLAX24Y24*%
%IPPOS*%
%LPD*%
%AMOC8*
5,1,8,0,0,1.08239X$1,22.5*
%
%ADD10R,0.0425X0.0413*%
%ADD11R,0.0630X0.0551*%
%ADD12R,0.0366X0.0291*%
%ADD13R,0.0335X0.0276*%
%ADD14R,0.0217X0.0472*%
%ADD15R,0.0433X0.0394*%
%ADD16R,0.0740X0.0740*%
%ADD17C,0.0740*%
%ADD18R,0.0413X0.0425*%
%ADD19R,0.0315X0.0315*%
%ADD20C,0.0106*%
%ADD21R,0.0291X0.0366*%
%ADD22R,0.0787X0.0197*%
%ADD23C,0.0120*%
%ADD24C,0.0098*%
%ADD25R,0.0354X0.0276*%
%ADD26R,0.0402X0.0299*%
%ADD27R,0.0299X0.0402*%
%ADD28C,0.0125*%
%ADD29C,0.0240*%
%ADD30C,0.0080*%
%ADD31C,0.0100*%
D10*
X016049Y005540D03*
X016731Y005540D03*
D11*
X015890Y004591D03*
X015890Y003489D03*
D12*
X016740Y004503D03*
X016740Y004977D03*
X012113Y004398D03*
X012113Y003925D03*
X006250Y003307D03*
X006250Y002833D03*
D13*
X019594Y001590D03*
X020224Y001590D03*
D14*
X014964Y003528D03*
X014216Y003528D03*
X014216Y004552D03*
X014590Y004552D03*
X014964Y004552D03*
D15*
X002640Y004655D03*
X002640Y005325D03*
X002610Y003565D03*
X002610Y002895D03*
D16*
X001690Y001140D03*
D17*
X002690Y001140D03*
X003690Y001140D03*
X004690Y001140D03*
X005690Y001140D03*
X006690Y001140D03*
X007690Y001140D03*
X008690Y001140D03*
X009690Y001140D03*
X010690Y001140D03*
X011690Y001140D03*
X012690Y001140D03*
X013690Y001140D03*
X014690Y001140D03*
X015690Y001140D03*
X016690Y001140D03*
X017690Y001140D03*
X018690Y001140D03*
X018690Y007140D03*
X017690Y007140D03*
X016690Y007140D03*
X015690Y007140D03*
X014690Y007140D03*
X013690Y007140D03*
X012690Y007140D03*
X011690Y007140D03*
X010690Y007140D03*
X009690Y007140D03*
X008690Y007140D03*
X007690Y007140D03*
X006690Y007140D03*
X005690Y007140D03*
X004690Y007140D03*
X003690Y007140D03*
X002690Y007140D03*
X001690Y007140D03*
X019690Y007140D03*
D18*
X013631Y004357D03*
X013631Y003676D03*
D19*
X001940Y003525D03*
X001940Y002935D03*
X001940Y004695D03*
X001940Y005285D03*
D20*
X008217Y004874D02*
X008485Y004874D01*
X008485Y004677D02*
X008217Y004677D01*
X008217Y004481D02*
X008485Y004481D01*
X008485Y004284D02*
X008217Y004284D01*
X008217Y004087D02*
X008485Y004087D01*
X008485Y003890D02*
X008217Y003890D01*
X008217Y003693D02*
X008485Y003693D01*
X008485Y003496D02*
X008217Y003496D01*
X008217Y003299D02*
X008485Y003299D01*
X008485Y003103D02*
X008217Y003103D01*
X008217Y002906D02*
X008485Y002906D01*
X008706Y002685D02*
X008706Y002417D01*
X008903Y002417D02*
X008903Y002685D01*
X009099Y002685D02*
X009099Y002417D01*
X009296Y002417D02*
X009296Y002685D01*
X009493Y002685D02*
X009493Y002417D01*
X009690Y002417D02*
X009690Y002685D01*
X009887Y002685D02*
X009887Y002417D01*
X010084Y002417D02*
X010084Y002685D01*
X010281Y002685D02*
X010281Y002417D01*
X010477Y002417D02*
X010477Y002685D01*
X010674Y002685D02*
X010674Y002417D01*
X010895Y002906D02*
X011163Y002906D01*
X011163Y003103D02*
X010895Y003103D01*
X010895Y003299D02*
X011163Y003299D01*
X011163Y003496D02*
X010895Y003496D01*
X010895Y003693D02*
X011163Y003693D01*
X011163Y003890D02*
X010895Y003890D01*
X010895Y004087D02*
X011163Y004087D01*
X011163Y004284D02*
X010895Y004284D01*
X010895Y004481D02*
X011163Y004481D01*
X011163Y004677D02*
X010895Y004677D01*
X010895Y004874D02*
X011163Y004874D01*
X010674Y005095D02*
X010674Y005363D01*
X010477Y005363D02*
X010477Y005095D01*
X010281Y005095D02*
X010281Y005363D01*
X010084Y005363D02*
X010084Y005095D01*
X009887Y005095D02*
X009887Y005363D01*
X009690Y005363D02*
X009690Y005095D01*
X009493Y005095D02*
X009493Y005363D01*
X009296Y005363D02*
X009296Y005095D01*
X009099Y005095D02*
X009099Y005363D01*
X008903Y005363D02*
X008903Y005095D01*
X008706Y005095D02*
X008706Y005363D01*
D21*
X009695Y006077D03*
X010168Y006077D03*
X011333Y001920D03*
X011807Y001920D03*
D22*
X017790Y003430D03*
X017790Y003745D03*
X017790Y004060D03*
X017790Y004375D03*
X017790Y004690D03*
D23*
X017711Y005277D02*
X018066Y005277D01*
X018095Y005279D01*
X018123Y005284D01*
X018150Y005294D01*
X018176Y005306D01*
X018200Y005322D01*
X018222Y005341D01*
X018241Y005363D01*
X018257Y005387D01*
X018269Y005413D01*
X018279Y005440D01*
X018284Y005468D01*
X018286Y005497D01*
X018284Y005526D01*
X018279Y005554D01*
X018269Y005581D01*
X018257Y005607D01*
X018241Y005631D01*
X018222Y005653D01*
X018200Y005672D01*
X018176Y005688D01*
X018150Y005700D01*
X018123Y005710D01*
X018095Y005715D01*
X018066Y005717D01*
X017711Y005717D01*
X017682Y005715D01*
X017654Y005710D01*
X017627Y005700D01*
X017601Y005688D01*
X017577Y005672D01*
X017555Y005653D01*
X017536Y005631D01*
X017520Y005607D01*
X017508Y005581D01*
X017498Y005554D01*
X017493Y005526D01*
X017491Y005497D01*
X017493Y005468D01*
X017498Y005440D01*
X017508Y005413D01*
X017520Y005387D01*
X017536Y005363D01*
X017555Y005341D01*
X017577Y005322D01*
X017601Y005306D01*
X017627Y005294D01*
X017654Y005284D01*
X017682Y005279D01*
X017711Y005277D01*
X019798Y005277D02*
X020152Y005277D01*
X020181Y005279D01*
X020209Y005284D01*
X020236Y005294D01*
X020262Y005306D01*
X020286Y005322D01*
X020308Y005341D01*
X020327Y005363D01*
X020343Y005387D01*
X020355Y005413D01*
X020365Y005440D01*
X020370Y005468D01*
X020372Y005497D01*
X020370Y005526D01*
X020365Y005554D01*
X020355Y005581D01*
X020343Y005607D01*
X020327Y005631D01*
X020308Y005653D01*
X020286Y005672D01*
X020262Y005688D01*
X020236Y005700D01*
X020209Y005710D01*
X020181Y005715D01*
X020152Y005717D01*
X019798Y005717D01*
X019769Y005715D01*
X019741Y005710D01*
X019714Y005700D01*
X019688Y005688D01*
X019664Y005672D01*
X019642Y005653D01*
X019623Y005631D01*
X019607Y005607D01*
X019595Y005581D01*
X019585Y005554D01*
X019580Y005526D01*
X019578Y005497D01*
X019580Y005468D01*
X019585Y005440D01*
X019595Y005413D01*
X019607Y005387D01*
X019623Y005363D01*
X019642Y005341D01*
X019664Y005322D01*
X019688Y005306D01*
X019714Y005294D01*
X019741Y005284D01*
X019769Y005279D01*
X019798Y005277D01*
X019798Y002843D02*
X020152Y002843D01*
X020181Y002841D01*
X020209Y002836D01*
X020236Y002826D01*
X020262Y002814D01*
X020286Y002798D01*
X020308Y002779D01*
X020327Y002757D01*
X020343Y002733D01*
X020355Y002707D01*
X020365Y002680D01*
X020370Y002652D01*
X020372Y002623D01*
X020370Y002594D01*
X020365Y002566D01*
X020355Y002539D01*
X020343Y002513D01*
X020327Y002489D01*
X020308Y002467D01*
X020286Y002448D01*
X020262Y002432D01*
X020236Y002420D01*
X020209Y002410D01*
X020181Y002405D01*
X020152Y002403D01*
X019798Y002403D01*
X019769Y002405D01*
X019741Y002410D01*
X019714Y002420D01*
X019688Y002432D01*
X019664Y002448D01*
X019642Y002467D01*
X019623Y002489D01*
X019607Y002513D01*
X019595Y002539D01*
X019585Y002566D01*
X019580Y002594D01*
X019578Y002623D01*
X019580Y002652D01*
X019585Y002680D01*
X019595Y002707D01*
X019607Y002733D01*
X019623Y002757D01*
X019642Y002779D01*
X019664Y002798D01*
X019688Y002814D01*
X019714Y002826D01*
X019741Y002836D01*
X019769Y002841D01*
X019798Y002843D01*
X018066Y002843D02*
X017711Y002843D01*
X017682Y002841D01*
X017654Y002836D01*
X017627Y002826D01*
X017601Y002814D01*
X017577Y002798D01*
X017555Y002779D01*
X017536Y002757D01*
X017520Y002733D01*
X017508Y002707D01*
X017498Y002680D01*
X017493Y002652D01*
X017491Y002623D01*
X017493Y002594D01*
X017498Y002566D01*
X017508Y002539D01*
X017520Y002513D01*
X017536Y002489D01*
X017555Y002467D01*
X017577Y002448D01*
X017601Y002432D01*
X017627Y002420D01*
X017654Y002410D01*
X017682Y002405D01*
X017711Y002403D01*
X018066Y002403D01*
X018095Y002405D01*
X018123Y002410D01*
X018150Y002420D01*
X018176Y002432D01*
X018200Y002448D01*
X018222Y002467D01*
X018241Y002489D01*
X018257Y002513D01*
X018269Y002539D01*
X018279Y002566D01*
X018284Y002594D01*
X018286Y002623D01*
X018284Y002652D01*
X018279Y002680D01*
X018269Y002707D01*
X018257Y002733D01*
X018241Y002757D01*
X018222Y002779D01*
X018200Y002798D01*
X018176Y002814D01*
X018150Y002826D01*
X018123Y002836D01*
X018095Y002841D01*
X018066Y002843D01*
D24*
X017947Y002840D03*
X019916Y002840D03*
X019916Y005280D03*
X017947Y005280D03*
D25*
X016740Y003996D03*
X016740Y003484D03*
D26*
X015669Y002180D03*
X015071Y002180D03*
D27*
X012970Y002861D03*
X012970Y003459D03*
D28*
X005097Y003688D02*
X005097Y002982D01*
X005097Y003688D02*
X005223Y003688D01*
X005223Y002982D01*
X005097Y002982D01*
X005097Y003106D02*
X005223Y003106D01*
X005223Y003230D02*
X005097Y003230D01*
X005097Y003354D02*
X005223Y003354D01*
X005223Y003478D02*
X005097Y003478D01*
X005097Y003602D02*
X005223Y003602D01*
X004597Y003688D02*
X004597Y002982D01*
X004597Y003688D02*
X004723Y003688D01*
X004723Y002982D01*
X004597Y002982D01*
X004597Y003106D02*
X004723Y003106D01*
X004723Y003230D02*
X004597Y003230D01*
X004597Y003354D02*
X004723Y003354D01*
X004723Y003478D02*
X004597Y003478D01*
X004597Y003602D02*
X004723Y003602D01*
X004097Y003688D02*
X004097Y002982D01*
X004097Y003688D02*
X004223Y003688D01*
X004223Y002982D01*
X004097Y002982D01*
X004097Y003106D02*
X004223Y003106D01*
X004223Y003230D02*
X004097Y003230D01*
X004097Y003354D02*
X004223Y003354D01*
X004223Y003478D02*
X004097Y003478D01*
X004097Y003602D02*
X004223Y003602D01*
X004097Y004512D02*
X004097Y005218D01*
X004223Y005218D01*
X004223Y004512D01*
X004097Y004512D01*
X004097Y004636D02*
X004223Y004636D01*
X004223Y004760D02*
X004097Y004760D01*
X004097Y004884D02*
X004223Y004884D01*
X004223Y005008D02*
X004097Y005008D01*
X004097Y005132D02*
X004223Y005132D01*
X004597Y005218D02*
X004597Y004512D01*
X004597Y005218D02*
X004723Y005218D01*
X004723Y004512D01*
X004597Y004512D01*
X004597Y004636D02*
X004723Y004636D01*
X004723Y004760D02*
X004597Y004760D01*
X004597Y004884D02*
X004723Y004884D01*
X004723Y005008D02*
X004597Y005008D01*
X004597Y005132D02*
X004723Y005132D01*
X005097Y005218D02*
X005097Y004512D01*
X005097Y005218D02*
X005223Y005218D01*
X005223Y004512D01*
X005097Y004512D01*
X005097Y004636D02*
X005223Y004636D01*
X005223Y004760D02*
X005097Y004760D01*
X005097Y004884D02*
X005223Y004884D01*
X005223Y005008D02*
X005097Y005008D01*
X005097Y005132D02*
X005223Y005132D01*
D29*
X003640Y004570D03*
X002620Y004000D03*
X001390Y004000D03*
X005720Y004200D03*
X005690Y003290D03*
X006920Y003290D03*
X007410Y003290D03*
X009290Y003000D03*
X010090Y003080D03*
X010533Y003605D03*
X010533Y004097D03*
X009700Y004190D03*
X008790Y004720D03*
X009140Y004830D03*
X010473Y004845D03*
X011020Y005210D03*
X012157Y005721D03*
X011640Y006420D03*
X014230Y005140D03*
X013630Y004960D03*
X013033Y004569D03*
X012540Y004569D03*
X013040Y004020D03*
X014810Y003150D03*
X016830Y003010D03*
X016930Y002140D03*
X016340Y001950D03*
X015180Y001740D03*
X011470Y002490D03*
X011060Y002310D03*
X009840Y001890D03*
X015700Y004070D03*
X016060Y004070D03*
X017150Y004370D03*
X019100Y004060D03*
X019980Y004050D03*
X015410Y005190D03*
X002270Y005960D03*
X002160Y002140D03*
X001370Y002070D03*
D30*
X001130Y000580D02*
X001130Y007700D01*
X020500Y007700D01*
X020500Y005739D01*
X020497Y005746D01*
X020496Y005747D01*
X020496Y005748D01*
X020490Y005753D01*
X020460Y005805D01*
X020383Y005849D01*
X020365Y005865D01*
X020365Y005865D01*
X020364Y005866D01*
X020342Y005873D01*
X020265Y005917D01*
X020205Y005917D01*
X020197Y005920D01*
X020193Y005917D01*
X020133Y005917D01*
X020109Y005920D01*
X020105Y005917D01*
X019845Y005917D01*
X019842Y005920D01*
X019817Y005917D01*
X019757Y005917D01*
X019753Y005920D01*
X019745Y005917D01*
X019685Y005917D01*
X019608Y005873D01*
X019586Y005866D01*
X019586Y005865D01*
X019585Y005865D01*
X019567Y005849D01*
X019490Y005805D01*
X019490Y005805D01*
X019490Y005805D01*
X019460Y005753D01*
X019454Y005748D01*
X019454Y005747D01*
X019453Y005746D01*
X019443Y005723D01*
X019424Y005691D01*
X019410Y005671D01*
X019410Y005670D01*
X019409Y005669D01*
X019407Y005661D01*
X019378Y005610D01*
X019378Y005521D01*
X019373Y005498D01*
X019373Y005497D01*
X019373Y005496D01*
X019378Y005473D01*
X019378Y005384D01*
X019407Y005333D01*
X019409Y005325D01*
X019410Y005324D01*
X019410Y005323D01*
X019424Y005303D01*
X019443Y005271D01*
X019453Y005248D01*
X019454Y005247D01*
X019454Y005246D01*
X019460Y005241D01*
X019490Y005189D01*
X019490Y005189D01*
X019567Y005145D01*
X019585Y005129D01*
X019586Y005129D01*
X019586Y005128D01*
X019608Y005121D01*
X019685Y005077D01*
X019685Y005077D01*
X019745Y005077D01*
X019753Y005074D01*
X019757Y005077D01*
X019817Y005077D01*
X019842Y005074D01*
X019845Y005077D01*
X020105Y005077D01*
X020109Y005074D01*
X020133Y005077D01*
X020193Y005077D01*
X020197Y005074D01*
X020205Y005077D01*
X020265Y005077D01*
X020342Y005121D01*
X020364Y005128D01*
X020365Y005129D01*
X020383Y005145D01*
X020460Y005189D01*
X020460Y005189D01*
X020460Y005189D01*
X020490Y005241D01*
X020496Y005246D01*
X020496Y005247D01*
X020497Y005248D01*
X020500Y005255D01*
X020500Y002865D01*
X020497Y002872D01*
X020496Y002873D01*
X020496Y002874D01*
X020490Y002879D01*
X020460Y002931D01*
X020383Y002975D01*
X020365Y002991D01*
X020365Y002991D01*
X020364Y002992D01*
X020342Y002999D01*
X020265Y003043D01*
X020205Y003043D01*
X020197Y003046D01*
X020193Y003043D01*
X020133Y003043D01*
X020109Y003046D01*
X020105Y003043D01*
X019845Y003043D01*
X019842Y003046D01*
X019817Y003043D01*
X019757Y003043D01*
X019753Y003046D01*
X019745Y003043D01*
X019685Y003043D01*
X019608Y002999D01*
X019586Y002992D01*
X019586Y002991D01*
X019585Y002991D01*
X019567Y002975D01*
X019490Y002931D01*
X019490Y002931D01*
X019490Y002931D01*
X019460Y002879D01*
X019454Y002874D01*
X019454Y002873D01*
X019453Y002872D01*
X019443Y002849D01*
X019424Y002817D01*
X019410Y002797D01*
X019410Y002796D01*
X019409Y002795D01*
X019407Y002787D01*
X019378Y002736D01*
X019378Y002647D01*
X019373Y002624D01*
X019373Y002623D01*
X019373Y002622D01*
X019378Y002599D01*
X019378Y002510D01*
X019407Y002459D01*
X019409Y002451D01*
X019410Y002450D01*
X019410Y002449D01*
X019424Y002429D01*
X019443Y002397D01*
X019453Y002374D01*
X019454Y002373D01*
X019454Y002372D01*
X019460Y002367D01*
X019490Y002315D01*
X019567Y002271D01*
X019585Y002255D01*
X019586Y002255D01*
X019586Y002254D01*
X019608Y002247D01*
X019685Y002203D01*
X019745Y002203D01*
X019753Y002200D01*
X019757Y002203D01*
X019817Y002203D01*
X019842Y002200D01*
X019845Y002203D01*
X020105Y002203D01*
X020109Y002200D01*
X020133Y002203D01*
X020193Y002203D01*
X020197Y002200D01*
X020205Y002203D01*
X020265Y002203D01*
X020342Y002247D01*
X020364Y002254D01*
X020365Y002255D01*
X020383Y002271D01*
X020460Y002315D01*
X020460Y002315D01*
X020460Y002315D01*
X020490Y002367D01*
X020496Y002372D01*
X020496Y002373D01*
X020497Y002374D01*
X020500Y002381D01*
X020500Y001817D01*
X020450Y001868D01*
X020404Y001868D01*
X020404Y001880D01*
X020250Y002035D01*
X020145Y002140D01*
X019525Y002140D01*
X018609Y003055D01*
X018613Y003054D01*
X018739Y003054D01*
X018855Y003102D01*
X018945Y003191D01*
X018993Y003308D01*
X018993Y003434D01*
X018945Y003551D01*
X018855Y003640D01*
X018739Y003688D01*
X018625Y003688D01*
X018626Y003813D01*
X018524Y003917D01*
X018612Y004011D01*
X018608Y004160D01*
X018499Y004262D01*
X018324Y004257D01*
X018324Y004531D01*
X018315Y004540D01*
X018324Y004573D01*
X018324Y004681D01*
X017799Y004681D01*
X017799Y004699D01*
X018324Y004699D01*
X018324Y004807D01*
X018314Y004842D01*
X018296Y004874D01*
X018270Y004900D01*
X018238Y004919D01*
X018202Y004928D01*
X018047Y004928D01*
X018120Y005001D01*
X018120Y005077D01*
X018178Y005077D01*
X018255Y005121D01*
X018277Y005128D01*
X018278Y005129D01*
X018279Y005129D01*
X018296Y005145D01*
X018373Y005189D01*
X018373Y005189D01*
X018403Y005241D01*
X018409Y005246D01*
X018409Y005247D01*
X018410Y005248D01*
X018420Y005271D01*
X018439Y005303D01*
X018454Y005323D01*
X018454Y005324D01*
X018454Y005325D01*
X018456Y005333D01*
X018486Y005384D01*
X018486Y005473D01*
X018491Y005496D01*
X018490Y005497D01*
X018491Y005498D01*
X018486Y005521D01*
X018486Y005610D01*
X018456Y005661D01*
X018454Y005669D01*
X018454Y005670D01*
X018454Y005671D01*
X018439Y005691D01*
X018420Y005723D01*
X018410Y005746D01*
X018409Y005747D01*
X018409Y005748D01*
X018403Y005753D01*
X018373Y005805D01*
X018296Y005849D01*
X018279Y005865D01*
X018278Y005865D01*
X018277Y005866D01*
X018255Y005873D01*
X018178Y005917D01*
X018118Y005917D01*
X018111Y005920D01*
X018106Y005917D01*
X018047Y005917D01*
X018022Y005920D01*
X018019Y005917D01*
X017758Y005917D01*
X017755Y005920D01*
X017730Y005917D01*
X017671Y005917D01*
X017666Y005920D01*
X017658Y005917D01*
X017599Y005917D01*
X017522Y005873D01*
X017499Y005866D01*
X017499Y005865D01*
X017498Y005865D01*
X017481Y005849D01*
X017404Y005805D01*
X017404Y005805D01*
X017374Y005753D01*
X017368Y005748D01*
X017368Y005747D01*
X017367Y005746D01*
X017357Y005723D01*
X017338Y005691D01*
X017323Y005671D01*
X017323Y005670D01*
X017323Y005669D01*
X017321Y005661D01*
X017291Y005610D01*
X017291Y005521D01*
X017286Y005498D01*
X017287Y005497D01*
X017286Y005496D01*
X017291Y005473D01*
X017291Y005384D01*
X017321Y005333D01*
X017323Y005325D01*
X017323Y005324D01*
X017323Y005323D01*
X017338Y005303D01*
X017357Y005271D01*
X017366Y005250D01*
X017191Y005250D01*
X017063Y005122D01*
X017063Y005141D01*
X017054Y005176D01*
X017035Y005208D01*
X017025Y005219D01*
X017029Y005221D01*
X017055Y005247D01*
X017074Y005279D01*
X017083Y005315D01*
X017083Y005500D01*
X016771Y005500D01*
X016771Y005580D01*
X017083Y005580D01*
X017083Y005765D01*
X017074Y005801D01*
X017055Y005833D01*
X017029Y005859D01*
X016997Y005877D01*
X016962Y005887D01*
X016771Y005887D01*
X016771Y005580D01*
X016691Y005580D01*
X016691Y005847D01*
X016764Y005920D01*
X017505Y005920D01*
X017685Y006100D01*
X019185Y006100D01*
X019715Y006630D01*
X019791Y006630D01*
X019979Y006708D01*
X020122Y006851D01*
X020200Y007039D01*
X020200Y007241D01*
X020122Y007429D01*
X019979Y007572D01*
X019791Y007650D01*
X019589Y007650D01*
X019401Y007572D01*
X019258Y007429D01*
X019190Y007266D01*
X019122Y007429D01*
X018979Y007572D01*
X018791Y007650D01*
X018589Y007650D01*
X018401Y007572D01*
X018258Y007429D01*
X018190Y007266D01*
X018122Y007429D01*
X017979Y007572D01*
X017791Y007650D01*
X017589Y007650D01*
X017401Y007572D01*
X017258Y007429D01*
X017190Y007266D01*
X017122Y007429D01*
X016979Y007572D01*
X016791Y007650D01*
X016589Y007650D01*
X016401Y007572D01*
X016258Y007429D01*
X016190Y007266D01*
X016122Y007429D01*
X015979Y007572D01*
X015791Y007650D01*
X015589Y007650D01*
X015401Y007572D01*
X015258Y007429D01*
X015190Y007266D01*
X015122Y007429D01*
X014979Y007572D01*
X014791Y007650D01*
X014589Y007650D01*
X014401Y007572D01*
X014258Y007429D01*
X014190Y007266D01*
X014122Y007429D01*
X013979Y007572D01*
X013791Y007650D01*
X013589Y007650D01*
X013401Y007572D01*
X013258Y007429D01*
X013190Y007266D01*
X013122Y007429D01*
X012979Y007572D01*
X012791Y007650D01*
X012589Y007650D01*
X012401Y007572D01*
X012258Y007429D01*
X012190Y007266D01*
X012122Y007429D01*
X011979Y007572D01*
X011791Y007650D01*
X011589Y007650D01*
X011401Y007572D01*
X011258Y007429D01*
X011190Y007266D01*
X011122Y007429D01*
X010979Y007572D01*
X010791Y007650D01*
X010589Y007650D01*
X010401Y007572D01*
X010258Y007429D01*
X010190Y007266D01*
X010122Y007429D01*
X009979Y007572D01*
X009791Y007650D01*
X009589Y007650D01*
X009401Y007572D01*
X009258Y007429D01*
X009190Y007266D01*
X009122Y007429D01*
X008979Y007572D01*
X008791Y007650D01*
X008589Y007650D01*
X008401Y007572D01*
X008258Y007429D01*
X008190Y007266D01*
X008122Y007429D01*
X007979Y007572D01*
X007791Y007650D01*
X007589Y007650D01*
X007401Y007572D01*
X007258Y007429D01*
X007190Y007266D01*
X007122Y007429D01*
X006979Y007572D01*
X006791Y007650D01*
X006589Y007650D01*
X006401Y007572D01*
X006258Y007429D01*
X006190Y007266D01*
X006122Y007429D01*
X005979Y007572D01*
X005791Y007650D01*
X005589Y007650D01*
X005401Y007572D01*
X005258Y007429D01*
X005190Y007266D01*
X005122Y007429D01*
X004979Y007572D01*
X004791Y007650D01*
X004589Y007650D01*
X004401Y007572D01*
X004258Y007429D01*
X004190Y007266D01*
X004122Y007429D01*
X003979Y007572D01*
X003791Y007650D01*
X003589Y007650D01*
X003401Y007572D01*
X003258Y007429D01*
X003190Y007266D01*
X003122Y007429D01*
X002979Y007572D01*
X002791Y007650D01*
X002589Y007650D01*
X002401Y007572D01*
X002258Y007429D01*
X002190Y007266D01*
X002122Y007429D01*
X001979Y007572D01*
X001791Y007650D01*
X001589Y007650D01*
X001401Y007572D01*
X001258Y007429D01*
X001180Y007241D01*
X001180Y007039D01*
X001258Y006851D01*
X001401Y006708D01*
X001589Y006630D01*
X001791Y006630D01*
X001900Y006675D01*
X002505Y006070D01*
X004715Y006070D01*
X005075Y005710D01*
X006175Y005710D01*
X006330Y005555D01*
X006330Y004495D01*
X006435Y004390D01*
X007312Y003513D01*
X008024Y003513D01*
X008024Y003496D01*
X008024Y003479D01*
X007935Y003479D01*
X007425Y002970D01*
X006573Y002970D01*
X006573Y003037D01*
X006540Y003070D01*
X006545Y003075D01*
X006564Y003107D01*
X006573Y003143D01*
X006573Y003274D01*
X006283Y003274D01*
X006283Y003339D01*
X006573Y003339D01*
X006573Y003471D01*
X006564Y003506D01*
X006545Y003538D01*
X006519Y003564D01*
X006487Y003583D01*
X006452Y003592D01*
X006283Y003592D01*
X006283Y003339D01*
X006217Y003339D01*
X006217Y003274D01*
X005927Y003274D01*
X005927Y003143D01*
X005936Y003107D01*
X005955Y003075D01*
X005960Y003070D01*
X005927Y003037D01*
X005927Y003000D01*
X005605Y003000D01*
X005425Y003180D01*
X005425Y003771D01*
X005306Y003890D01*
X005096Y003890D01*
X005147Y003941D01*
X005190Y004044D01*
X005190Y004156D01*
X005147Y004259D01*
X005096Y004310D01*
X005306Y004310D01*
X005331Y004335D01*
X005460Y004205D01*
X005460Y004148D01*
X005500Y004053D01*
X005573Y003980D01*
X005668Y003940D01*
X005772Y003940D01*
X005867Y003980D01*
X005940Y004053D01*
X005980Y004148D01*
X005980Y004252D01*
X005940Y004347D01*
X005867Y004420D01*
X005772Y004460D01*
X005715Y004460D01*
X005425Y004750D01*
X005425Y005301D01*
X005306Y005420D01*
X005014Y005420D01*
X004910Y005316D01*
X004806Y005420D01*
X004514Y005420D01*
X004410Y005316D01*
X004306Y005420D01*
X004014Y005420D01*
X003895Y005301D01*
X003895Y004750D01*
X003828Y004750D01*
X003787Y004790D01*
X003692Y004830D01*
X003588Y004830D01*
X003493Y004790D01*
X003420Y004717D01*
X003380Y004622D01*
X003380Y004518D01*
X003420Y004423D01*
X003493Y004350D01*
X003588Y004310D01*
X003692Y004310D01*
X003787Y004350D01*
X003828Y004390D01*
X003934Y004390D01*
X004014Y004310D01*
X004224Y004310D01*
X004173Y004259D01*
X004130Y004156D01*
X004130Y004044D01*
X004173Y003941D01*
X004224Y003890D01*
X004183Y003890D01*
X004183Y003358D01*
X004137Y003358D01*
X004137Y003890D01*
X004071Y003890D01*
X004019Y003876D01*
X003973Y003850D01*
X003935Y003812D01*
X003909Y003766D01*
X003895Y003714D01*
X003895Y003358D01*
X004137Y003358D01*
X004137Y003312D01*
X003895Y003312D01*
X003895Y002956D01*
X003907Y002910D01*
X003885Y002910D01*
X003190Y003605D01*
X003190Y005145D01*
X002997Y005338D01*
X002997Y005579D01*
X002915Y005661D01*
X002365Y005661D01*
X002283Y005579D01*
X002283Y005070D01*
X002363Y004990D01*
X002283Y004910D01*
X002283Y004875D01*
X002237Y004875D01*
X002237Y004910D01*
X002155Y004992D01*
X002132Y004992D01*
X002152Y004997D01*
X002183Y005016D01*
X002210Y005042D01*
X002228Y005074D01*
X002237Y005109D01*
X002237Y005247D01*
X001979Y005247D01*
X001979Y005324D01*
X002237Y005324D01*
X002237Y005461D01*
X002228Y005497D01*
X002210Y005529D01*
X002183Y005555D01*
X002152Y005573D01*
X002116Y005583D01*
X001979Y005583D01*
X001979Y005324D01*
X001901Y005324D01*
X001901Y005247D01*
X001643Y005247D01*
X001643Y005109D01*
X001652Y005074D01*
X001670Y005042D01*
X001697Y005016D01*
X001728Y004997D01*
X001748Y004992D01*
X001725Y004992D01*
X001643Y004910D01*
X001643Y004479D01*
X001725Y004397D01*
X002155Y004397D01*
X002237Y004479D01*
X002237Y004515D01*
X002283Y004515D01*
X002283Y004401D01*
X002365Y004319D01*
X002830Y004319D01*
X002830Y004158D01*
X002767Y004220D01*
X002672Y004260D01*
X002568Y004260D01*
X002473Y004220D01*
X002400Y004147D01*
X002360Y004052D01*
X002360Y003948D01*
X002379Y003901D01*
X002335Y003901D01*
X002253Y003819D01*
X002253Y003310D01*
X002333Y003230D01*
X002253Y003150D01*
X002253Y003115D01*
X002237Y003115D01*
X002237Y003150D01*
X002155Y003232D01*
X002132Y003232D01*
X002152Y003237D01*
X002183Y003256D01*
X002210Y003282D01*
X002228Y003314D01*
X002237Y003349D01*
X002237Y003487D01*
X001979Y003487D01*
X001979Y003564D01*
X002237Y003564D01*
X002237Y003701D01*
X002228Y003737D01*
X002210Y003769D01*
X002183Y003795D01*
X002152Y003813D01*
X002116Y003823D01*
X001979Y003823D01*
X001979Y003564D01*
X001901Y003564D01*
X001901Y003487D01*
X001643Y003487D01*
X001643Y003349D01*
X001652Y003314D01*
X001670Y003282D01*
X001697Y003256D01*
X001728Y003237D01*
X001748Y003232D01*
X001725Y003232D01*
X001643Y003150D01*
X001643Y002719D01*
X001725Y002637D01*
X002155Y002637D01*
X002237Y002719D01*
X002237Y002755D01*
X002253Y002755D01*
X002253Y002641D01*
X002335Y002559D01*
X002885Y002559D01*
X002967Y002641D01*
X002967Y003150D01*
X002887Y003230D01*
X002967Y003310D01*
X002967Y003319D01*
X003735Y002550D01*
X005115Y002550D01*
X005220Y002655D01*
X005330Y002765D01*
X005350Y002745D01*
X005455Y002640D01*
X005927Y002640D01*
X005927Y002630D01*
X005977Y002580D01*
X005755Y002580D01*
X005585Y002410D01*
X004885Y002410D01*
X004675Y002200D01*
X002495Y002200D01*
X001945Y001650D01*
X001262Y001650D01*
X001180Y001568D01*
X001180Y000712D01*
X001262Y000630D01*
X002118Y000630D01*
X002200Y000712D01*
X002200Y000990D01*
X002258Y000851D01*
X002401Y000708D01*
X002589Y000630D01*
X002791Y000630D01*
X002979Y000708D01*
X003122Y000851D01*
X003190Y001014D01*
X003258Y000851D01*
X003401Y000708D01*
X003589Y000630D01*
X003791Y000630D01*
X003979Y000708D01*
X004122Y000851D01*
X004190Y001014D01*
X004258Y000851D01*
X004401Y000708D01*
X004589Y000630D01*
X004791Y000630D01*
X004979Y000708D01*
X005122Y000851D01*
X005190Y001014D01*
X005258Y000851D01*
X005401Y000708D01*
X005589Y000630D01*
X005791Y000630D01*
X005979Y000708D01*
X006122Y000851D01*
X006190Y001014D01*
X006258Y000851D01*
X006401Y000708D01*
X006589Y000630D01*
X006791Y000630D01*
X006979Y000708D01*
X007122Y000851D01*
X007190Y001014D01*
X007258Y000851D01*
X007401Y000708D01*
X007589Y000630D01*
X007791Y000630D01*
X007979Y000708D01*
X008122Y000851D01*
X008190Y001014D01*
X008258Y000851D01*
X008401Y000708D01*
X008589Y000630D01*
X008791Y000630D01*
X008979Y000708D01*
X009122Y000851D01*
X009190Y001014D01*
X009258Y000851D01*
X009401Y000708D01*
X009589Y000630D01*
X009791Y000630D01*
X009979Y000708D01*
X010122Y000851D01*
X010190Y001014D01*
X010258Y000851D01*
X010401Y000708D01*
X010589Y000630D01*
X010791Y000630D01*
X010979Y000708D01*
X011122Y000851D01*
X011190Y001014D01*
X011258Y000851D01*
X011401Y000708D01*
X011589Y000630D01*
X011791Y000630D01*
X011979Y000708D01*
X012122Y000851D01*
X012190Y001014D01*
X012258Y000851D01*
X012401Y000708D01*
X012589Y000630D01*
X012791Y000630D01*
X012979Y000708D01*
X013122Y000851D01*
X013190Y001014D01*
X013258Y000851D01*
X013401Y000708D01*
X013589Y000630D01*
X013791Y000630D01*
X013979Y000708D01*
X014122Y000851D01*
X014190Y001014D01*
X014258Y000851D01*
X014401Y000708D01*
X014589Y000630D01*
X014791Y000630D01*
X014979Y000708D01*
X015122Y000851D01*
X015190Y001014D01*
X015258Y000851D01*
X015401Y000708D01*
X015589Y000630D01*
X015791Y000630D01*
X015979Y000708D01*
X016122Y000851D01*
X016193Y001021D01*
X016193Y001021D01*
X016217Y000944D01*
X016254Y000873D01*
X016301Y000808D01*
X016358Y000751D01*
X016423Y000704D01*
X016494Y000667D01*
X016571Y000643D01*
X016650Y000630D01*
X016650Y001100D01*
X016730Y001100D01*
X016730Y000630D01*
X016730Y000630D01*
X016809Y000643D01*
X016886Y000667D01*
X016957Y000704D01*
X017022Y000751D01*
X017079Y000808D01*
X017126Y000873D01*
X017163Y000944D01*
X017187Y001021D01*
X017258Y000851D01*
X017401Y000708D01*
X017589Y000630D01*
X017791Y000630D01*
X017979Y000708D01*
X018122Y000851D01*
X018190Y001014D01*
X018258Y000851D01*
X018401Y000708D01*
X018589Y000630D01*
X018791Y000630D01*
X018979Y000708D01*
X019122Y000851D01*
X019200Y001039D01*
X019200Y001241D01*
X019155Y001350D01*
X019205Y001400D01*
X019215Y001410D01*
X019287Y001410D01*
X019287Y001394D01*
X019369Y001312D01*
X019820Y001312D01*
X019902Y001394D01*
X019902Y001780D01*
X019917Y001780D01*
X019917Y001394D01*
X019999Y001312D01*
X020450Y001312D01*
X020500Y001363D01*
X020500Y000580D01*
X001130Y000580D01*
X001130Y000611D02*
X020500Y000611D01*
X020500Y000690D02*
X018935Y000690D01*
X019039Y000768D02*
X020500Y000768D01*
X020500Y000847D02*
X019118Y000847D01*
X019153Y000925D02*
X020500Y000925D01*
X020500Y001004D02*
X019185Y001004D01*
X019200Y001082D02*
X020500Y001082D01*
X020500Y001161D02*
X019200Y001161D01*
X019200Y001239D02*
X020500Y001239D01*
X020500Y001318D02*
X020455Y001318D01*
X020224Y001590D02*
X020224Y001806D01*
X020070Y001960D01*
X019450Y001960D01*
X017980Y003430D01*
X017790Y003430D01*
X017964Y003192D02*
X017410Y003192D01*
X017410Y002934D01*
X017481Y002975D01*
X017498Y002991D01*
X017499Y002991D01*
X017499Y002992D01*
X017522Y002999D01*
X017599Y003043D01*
X017658Y003043D01*
X017666Y003046D01*
X017671Y003043D01*
X017730Y003043D01*
X017755Y003046D01*
X017758Y003043D01*
X018019Y003043D01*
X018022Y003046D01*
X018047Y003043D01*
X018106Y003043D01*
X018110Y003045D01*
X017964Y003192D01*
X018032Y003123D02*
X017410Y003123D01*
X017410Y003045D02*
X017662Y003045D01*
X017668Y003045D02*
X017741Y003045D01*
X017757Y003045D02*
X018020Y003045D01*
X018035Y003045D02*
X018108Y003045D01*
X018620Y003045D02*
X019749Y003045D01*
X019755Y003045D02*
X019828Y003045D01*
X019843Y003045D02*
X020107Y003045D01*
X020122Y003045D02*
X020195Y003045D01*
X020201Y003045D02*
X020500Y003045D01*
X020500Y003123D02*
X018876Y003123D01*
X018949Y003202D02*
X020500Y003202D01*
X020500Y003280D02*
X018981Y003280D01*
X018993Y003359D02*
X020500Y003359D01*
X020500Y003437D02*
X018992Y003437D01*
X018959Y003516D02*
X020500Y003516D01*
X020500Y003594D02*
X018901Y003594D01*
X018777Y003673D02*
X020500Y003673D01*
X020500Y003751D02*
X018625Y003751D01*
X018609Y003830D02*
X020500Y003830D01*
X020500Y003908D02*
X018532Y003908D01*
X018589Y003987D02*
X020500Y003987D01*
X020500Y004065D02*
X018611Y004065D01*
X018608Y004144D02*
X020500Y004144D01*
X020500Y004222D02*
X018542Y004222D01*
X018324Y004301D02*
X020500Y004301D01*
X020500Y004379D02*
X018324Y004379D01*
X018324Y004458D02*
X018551Y004458D01*
X018496Y004480D02*
X018407Y004569D01*
X018359Y004686D01*
X018359Y004812D01*
X018407Y004929D01*
X018496Y005018D01*
X018613Y005066D01*
X018739Y005066D01*
X018855Y005018D01*
X018945Y004929D01*
X018993Y004812D01*
X018993Y004686D01*
X018945Y004569D01*
X018855Y004480D01*
X018739Y004432D01*
X018613Y004432D01*
X018496Y004480D01*
X018440Y004536D02*
X018319Y004536D01*
X018324Y004615D02*
X018388Y004615D01*
X018359Y004693D02*
X017799Y004693D01*
X017781Y004693D02*
X017250Y004693D01*
X017256Y004699D02*
X017256Y004778D01*
X017250Y004771D01*
X017250Y004651D01*
X017063Y004464D01*
X017063Y004300D01*
X017006Y004243D01*
X017022Y004227D01*
X017035Y004240D01*
X017256Y004240D01*
X017256Y004531D01*
X017265Y004540D01*
X017256Y004573D01*
X017256Y004681D01*
X017781Y004681D01*
X017781Y004699D01*
X017256Y004699D01*
X017250Y004772D02*
X017256Y004772D01*
X017256Y004615D02*
X017213Y004615D01*
X017261Y004536D02*
X017135Y004536D01*
X017063Y004458D02*
X017256Y004458D01*
X017256Y004379D02*
X017063Y004379D01*
X017063Y004301D02*
X017256Y004301D01*
X017110Y004060D02*
X017070Y004020D01*
X017070Y002799D01*
X016970Y002699D01*
X017009Y002699D01*
X016970Y002699D02*
X012970Y002699D01*
X012970Y002861D01*
X013260Y002879D02*
X013260Y003120D01*
X013219Y003160D01*
X013232Y003172D01*
X013250Y003204D01*
X013260Y003240D01*
X013260Y003424D01*
X013005Y003424D01*
X013005Y003494D01*
X013260Y003494D01*
X013260Y003678D01*
X013250Y003714D01*
X013232Y003746D01*
X013206Y003772D01*
X013174Y003790D01*
X013138Y003800D01*
X013005Y003800D01*
X013005Y003494D01*
X012935Y003494D01*
X012935Y003424D01*
X012680Y003424D01*
X012680Y003240D01*
X012690Y003204D01*
X012708Y003172D01*
X012721Y003160D01*
X012680Y003120D01*
X012680Y003040D01*
X012080Y003640D01*
X012080Y003892D01*
X011790Y003892D01*
X011790Y003873D01*
X011356Y003873D01*
X011356Y003970D01*
X011337Y003988D01*
X011356Y004007D01*
X011356Y004167D01*
X011332Y004191D01*
X011342Y004209D01*
X011356Y004258D01*
X011356Y004284D01*
X011356Y004301D01*
X011790Y004301D01*
X011790Y004194D01*
X011823Y004161D01*
X011818Y004156D01*
X011800Y004124D01*
X011790Y004089D01*
X011790Y003957D01*
X012080Y003957D01*
X012080Y003892D01*
X012146Y003892D01*
X012146Y003957D01*
X012436Y003957D01*
X012436Y004089D01*
X012427Y004124D01*
X012408Y004156D01*
X012403Y004161D01*
X012436Y004194D01*
X012436Y004331D01*
X012489Y004309D01*
X012592Y004309D01*
X012688Y004349D01*
X012761Y004422D01*
X012786Y004484D01*
X012812Y004422D01*
X012885Y004349D01*
X012981Y004309D01*
X013084Y004309D01*
X013180Y004349D01*
X013253Y004422D01*
X013285Y004498D01*
X013285Y004397D01*
X013591Y004397D01*
X013591Y004317D01*
X013285Y004317D01*
X013285Y004126D01*
X013294Y004090D01*
X013313Y004059D01*
X013339Y004032D01*
X013359Y004021D01*
X013285Y003947D01*
X013285Y003405D01*
X013367Y003323D01*
X013896Y003323D01*
X013921Y003348D01*
X013968Y003348D01*
X013968Y003234D01*
X014050Y003152D01*
X014382Y003152D01*
X014464Y003234D01*
X014464Y003822D01*
X014382Y003904D01*
X014050Y003904D01*
X013978Y003833D01*
X013978Y003947D01*
X013904Y004021D01*
X013924Y004032D01*
X013950Y004059D01*
X013968Y004090D01*
X013978Y004126D01*
X013978Y004247D01*
X014020Y004205D01*
X014020Y004081D01*
X014080Y004021D01*
X014191Y003910D01*
X014989Y003910D01*
X015100Y004021D01*
X015100Y004021D01*
X015154Y004075D01*
X015154Y004199D01*
X015212Y004258D01*
X015212Y004724D01*
X015419Y004930D01*
X015450Y004930D01*
X015445Y004921D01*
X015435Y004885D01*
X015435Y004631D01*
X015850Y004631D01*
X015850Y004551D01*
X015930Y004551D01*
X015930Y004176D01*
X016223Y004176D01*
X016259Y004185D01*
X016291Y004204D01*
X016317Y004230D01*
X016335Y004262D01*
X016345Y004297D01*
X016345Y004551D01*
X015930Y004551D01*
X015930Y004631D01*
X016345Y004631D01*
X016345Y004885D01*
X016335Y004921D01*
X016317Y004953D01*
X016291Y004979D01*
X016259Y004997D01*
X016223Y005007D01*
X015930Y005007D01*
X015930Y004631D01*
X015850Y004631D01*
X015850Y005007D01*
X015594Y005007D01*
X015630Y005043D01*
X015670Y005138D01*
X015670Y005181D01*
X015730Y005242D01*
X015779Y005193D01*
X016320Y005193D01*
X016394Y005268D01*
X016406Y005247D01*
X016432Y005221D01*
X016448Y005212D01*
X016445Y005208D01*
X016426Y005176D01*
X016417Y005141D01*
X016417Y005009D01*
X016707Y005009D01*
X016707Y004944D01*
X016417Y004944D01*
X016417Y004813D01*
X016426Y004777D01*
X016445Y004745D01*
X016450Y004740D01*
X016417Y004707D01*
X016417Y004300D01*
X016474Y004243D01*
X016423Y004192D01*
X016423Y003800D01*
X016485Y003738D01*
X016477Y003734D01*
X016451Y003708D01*
X016432Y003676D01*
X016423Y003640D01*
X016423Y003513D01*
X016711Y003513D01*
X016711Y003455D01*
X016423Y003455D01*
X016423Y003328D01*
X016432Y003292D01*
X016451Y003260D01*
X016477Y003234D01*
X016509Y003216D01*
X016544Y003206D01*
X016659Y003206D01*
X016652Y003200D01*
X016345Y003200D01*
X016345Y003822D01*
X016263Y003904D01*
X015517Y003904D01*
X015435Y003822D01*
X015435Y003669D01*
X015218Y003669D01*
X015212Y003670D01*
X015212Y003822D01*
X015130Y003904D01*
X014798Y003904D01*
X014716Y003822D01*
X014716Y003392D01*
X014663Y003370D01*
X014590Y003297D01*
X014550Y003202D01*
X014550Y003098D01*
X014590Y003003D01*
X014663Y002930D01*
X014758Y002890D01*
X014862Y002890D01*
X014957Y002930D01*
X015030Y003003D01*
X015070Y003098D01*
X015070Y003152D01*
X015130Y003152D01*
X015212Y003234D01*
X015212Y003298D01*
X015218Y003304D01*
X015248Y003299D01*
X015261Y003309D01*
X015435Y003309D01*
X015435Y003155D01*
X015517Y003073D01*
X015700Y003073D01*
X015700Y002991D01*
X015811Y002880D01*
X015812Y002879D01*
X013260Y002879D01*
X013260Y002888D02*
X015804Y002888D01*
X015725Y002966D02*
X014994Y002966D01*
X015048Y003045D02*
X015700Y003045D01*
X015467Y003123D02*
X015070Y003123D01*
X015180Y003202D02*
X015435Y003202D01*
X015435Y003280D02*
X015212Y003280D01*
X015149Y003489D02*
X014810Y003150D01*
X014572Y003045D02*
X013260Y003045D01*
X013256Y003123D02*
X014550Y003123D01*
X014550Y003202D02*
X014432Y003202D01*
X014464Y003280D02*
X014582Y003280D01*
X014651Y003359D02*
X014464Y003359D01*
X014464Y003437D02*
X014716Y003437D01*
X014716Y003516D02*
X014464Y003516D01*
X014464Y003594D02*
X014716Y003594D01*
X014716Y003673D02*
X014464Y003673D01*
X014464Y003751D02*
X014716Y003751D01*
X014723Y003830D02*
X014457Y003830D01*
X014115Y003987D02*
X013938Y003987D01*
X013954Y004065D02*
X014036Y004065D01*
X014020Y004144D02*
X013978Y004144D01*
X013978Y004222D02*
X014003Y004222D01*
X013671Y004397D02*
X013591Y004397D01*
X013591Y004710D01*
X013406Y004710D01*
X013371Y004700D01*
X013339Y004682D01*
X013313Y004656D01*
X013294Y004624D01*
X013293Y004618D01*
X013293Y004621D01*
X013253Y004716D01*
X013213Y004757D01*
X013213Y004908D01*
X013501Y005196D01*
X013811Y005196D01*
X013985Y005370D01*
X014715Y005370D01*
X014895Y005550D01*
X015501Y005550D01*
X015401Y005450D01*
X015358Y005450D01*
X015263Y005410D01*
X015190Y005337D01*
X015150Y005242D01*
X015150Y005199D01*
X014879Y004928D01*
X014798Y004928D01*
X014775Y004905D01*
X014752Y004919D01*
X014717Y004928D01*
X014604Y004928D01*
X014604Y004566D01*
X014576Y004566D01*
X014576Y004928D01*
X014463Y004928D01*
X014428Y004919D01*
X014405Y004905D01*
X014382Y004928D01*
X014050Y004928D01*
X013968Y004846D01*
X013968Y004625D01*
X013950Y004656D01*
X013924Y004682D01*
X013892Y004700D01*
X013856Y004710D01*
X013671Y004710D01*
X013671Y004397D01*
X013671Y004458D02*
X013591Y004458D01*
X013591Y004536D02*
X013671Y004536D01*
X013671Y004615D02*
X013591Y004615D01*
X013591Y004693D02*
X013671Y004693D01*
X013904Y004693D02*
X013968Y004693D01*
X013968Y004772D02*
X013213Y004772D01*
X013213Y004850D02*
X013972Y004850D01*
X013390Y005086D02*
X015037Y005086D01*
X015115Y005164D02*
X013469Y005164D01*
X013426Y005376D02*
X013033Y004983D01*
X013033Y004569D01*
X013268Y004458D02*
X013285Y004458D01*
X013210Y004379D02*
X013591Y004379D01*
X013285Y004301D02*
X012436Y004301D01*
X012436Y004222D02*
X013285Y004222D01*
X013285Y004144D02*
X012416Y004144D01*
X012436Y004065D02*
X013309Y004065D01*
X013325Y003987D02*
X012436Y003987D01*
X012436Y003892D02*
X012146Y003892D01*
X012146Y003639D01*
X012315Y003639D01*
X012350Y003648D01*
X012382Y003667D01*
X012408Y003693D01*
X012427Y003725D01*
X012436Y003760D01*
X012436Y003892D01*
X012436Y003830D02*
X013285Y003830D01*
X013285Y003908D02*
X012146Y003908D01*
X012113Y003925D02*
X012088Y003880D01*
X011891Y003880D01*
X011487Y004284D01*
X011029Y004284D01*
X011356Y004284D01*
X011029Y004284D01*
X011029Y004284D01*
X011029Y004287D01*
X011029Y004287D01*
X011029Y004284D01*
X011029Y004284D01*
X011029Y004280D01*
X011029Y004280D01*
X011029Y004284D01*
X011029Y004284D01*
X010713Y004284D01*
X010713Y004284D01*
X011029Y004284D01*
X011029Y004284D01*
X011346Y004222D02*
X011790Y004222D01*
X011790Y004301D02*
X011356Y004301D01*
X011356Y004144D02*
X011811Y004144D01*
X011790Y004065D02*
X011356Y004065D01*
X011339Y003987D02*
X011790Y003987D01*
X012080Y003908D02*
X011356Y003908D01*
X011029Y003890D02*
X010739Y003890D01*
X010533Y003683D01*
X010533Y003605D01*
X010273Y003594D02*
X008659Y003594D01*
X008655Y003589D02*
X008678Y003613D01*
X008678Y003773D01*
X008660Y003792D01*
X008678Y003810D01*
X008678Y003970D01*
X008660Y003988D01*
X008678Y004007D01*
X008678Y004167D01*
X008660Y004185D01*
X008678Y004204D01*
X008678Y004364D01*
X008660Y004382D01*
X008678Y004401D01*
X008678Y004561D01*
X008660Y004579D01*
X008678Y004597D01*
X008678Y004757D01*
X008660Y004776D01*
X008678Y004794D01*
X008678Y004902D01*
X008786Y004902D01*
X008804Y004920D01*
X008823Y004902D01*
X008888Y004902D01*
X008880Y004882D01*
X008880Y004778D01*
X008920Y004683D01*
X008993Y004610D01*
X009088Y004570D01*
X009192Y004570D01*
X009287Y004610D01*
X009328Y004650D01*
X009515Y004650D01*
X009520Y004655D01*
X009520Y004378D01*
X009480Y004337D01*
X009440Y004242D01*
X009440Y004138D01*
X009480Y004043D01*
X009553Y003970D01*
X009648Y003930D01*
X009752Y003930D01*
X009847Y003970D01*
X009898Y004020D01*
X009995Y004020D01*
X010100Y004125D01*
X010100Y004125D01*
X010365Y004390D01*
X010635Y004390D01*
X010705Y004321D01*
X010702Y004309D01*
X010702Y004295D01*
X010680Y004317D01*
X010584Y004357D01*
X010481Y004357D01*
X010385Y004317D01*
X010312Y004244D01*
X010273Y004148D01*
X010273Y004045D01*
X010312Y003949D01*
X010385Y003876D01*
X010446Y003851D01*
X010444Y003849D01*
X010385Y003825D01*
X010312Y003752D01*
X010273Y003656D01*
X010273Y003553D01*
X010312Y003457D01*
X010385Y003384D01*
X010481Y003345D01*
X010584Y003345D01*
X010680Y003384D01*
X010707Y003411D01*
X010720Y003398D01*
X010702Y003379D01*
X010702Y003219D01*
X010720Y003201D01*
X010702Y003183D01*
X010702Y003023D01*
X010720Y003004D01*
X010702Y002986D01*
X010702Y002878D01*
X010594Y002878D01*
X010576Y002860D01*
X010557Y002878D01*
X010397Y002878D01*
X010379Y002860D01*
X010361Y002878D01*
X010270Y002878D01*
X010270Y002892D01*
X010310Y002933D01*
X010350Y003028D01*
X010350Y003132D01*
X010310Y003227D01*
X010237Y003300D01*
X010142Y003340D01*
X010038Y003340D01*
X009943Y003300D01*
X009912Y003270D01*
X009805Y003270D01*
X009535Y003540D01*
X009115Y003540D01*
X009055Y003479D01*
X008678Y003479D01*
X008678Y003496D01*
X008351Y003496D01*
X008024Y003496D01*
X008351Y003496D01*
X008351Y003496D01*
X008351Y003493D01*
X008351Y003493D01*
X008351Y003496D01*
X008351Y003496D01*
X007784Y003496D01*
X007780Y003500D01*
X008673Y003500D01*
X008676Y003496D01*
X008850Y003670D01*
X008678Y003673D02*
X010279Y003673D01*
X010312Y003751D02*
X008678Y003751D01*
X008678Y003830D02*
X010396Y003830D01*
X010354Y003908D02*
X008678Y003908D01*
X008662Y003987D02*
X009536Y003987D01*
X009470Y004065D02*
X008678Y004065D01*
X008678Y004144D02*
X009440Y004144D01*
X009440Y004222D02*
X008678Y004222D01*
X008678Y004301D02*
X009464Y004301D01*
X009520Y004379D02*
X008663Y004379D01*
X008678Y004458D02*
X009520Y004458D01*
X009520Y004536D02*
X008678Y004536D01*
X008678Y004615D02*
X008988Y004615D01*
X008915Y004693D02*
X008678Y004693D01*
X008664Y004772D02*
X008883Y004772D01*
X008880Y004850D02*
X008678Y004850D01*
X008513Y005067D02*
X008138Y005067D01*
X008124Y005054D01*
X007870Y005054D01*
X007870Y005055D01*
X007870Y006663D01*
X007979Y006708D01*
X008122Y006851D01*
X008190Y007014D01*
X008258Y006851D01*
X008401Y006708D01*
X008526Y006656D01*
X008526Y005456D01*
X008513Y005442D01*
X008513Y005067D01*
X008513Y005086D02*
X007870Y005086D01*
X007870Y005164D02*
X008513Y005164D01*
X008513Y005243D02*
X007870Y005243D01*
X007870Y005321D02*
X008513Y005321D01*
X008513Y005400D02*
X007870Y005400D01*
X007870Y005478D02*
X008526Y005478D01*
X008526Y005557D02*
X007870Y005557D01*
X007870Y005635D02*
X008526Y005635D01*
X008526Y005714D02*
X007870Y005714D01*
X007870Y005792D02*
X008526Y005792D01*
X008526Y005871D02*
X007870Y005871D01*
X007870Y005949D02*
X008526Y005949D01*
X008526Y006028D02*
X007870Y006028D01*
X007870Y006106D02*
X008526Y006106D01*
X008526Y006185D02*
X007870Y006185D01*
X007870Y006263D02*
X008526Y006263D01*
X008526Y006342D02*
X007870Y006342D01*
X007870Y006420D02*
X008526Y006420D01*
X008526Y006499D02*
X007870Y006499D01*
X007870Y006577D02*
X008526Y006577D01*
X008526Y006656D02*
X007870Y006656D01*
X008005Y006734D02*
X008375Y006734D01*
X008296Y006813D02*
X008084Y006813D01*
X008139Y006891D02*
X008241Y006891D01*
X008209Y006970D02*
X008171Y006970D01*
X007690Y007140D02*
X007690Y004980D01*
X007796Y004874D01*
X008351Y004874D01*
X008351Y004677D02*
X007723Y004677D01*
X007470Y004930D01*
X007470Y006360D01*
X006690Y007140D01*
X007155Y006930D02*
X007190Y007014D01*
X007258Y006851D01*
X007401Y006708D01*
X007510Y006663D01*
X007510Y006575D01*
X007155Y006930D01*
X007171Y006970D02*
X007209Y006970D01*
X007194Y006891D02*
X007241Y006891D01*
X007272Y006813D02*
X007296Y006813D01*
X007351Y006734D02*
X007375Y006734D01*
X007429Y006656D02*
X007510Y006656D01*
X007508Y006577D02*
X007510Y006577D01*
X007270Y006310D02*
X006960Y006620D01*
X006210Y006620D01*
X005690Y007140D01*
X006155Y006930D02*
X006190Y007014D01*
X006258Y006851D01*
X006309Y006800D01*
X006285Y006800D01*
X006155Y006930D01*
X006171Y006970D02*
X006209Y006970D01*
X006194Y006891D02*
X006241Y006891D01*
X006272Y006813D02*
X006296Y006813D01*
X005965Y006610D02*
X005900Y006675D01*
X005791Y006630D01*
X005589Y006630D01*
X005401Y006708D01*
X005258Y006851D01*
X005190Y007014D01*
X005155Y006930D01*
X005475Y006610D01*
X005965Y006610D01*
X005920Y006656D02*
X005853Y006656D01*
X005527Y006656D02*
X005429Y006656D01*
X005375Y006734D02*
X005351Y006734D01*
X005296Y006813D02*
X005272Y006813D01*
X005241Y006891D02*
X005194Y006891D01*
X005209Y006970D02*
X005171Y006970D01*
X004690Y007140D02*
X005400Y006430D01*
X006890Y006430D01*
X007080Y006240D01*
X007080Y004790D01*
X007586Y004284D01*
X008351Y004284D01*
X008351Y004481D02*
X007649Y004481D01*
X007270Y004860D01*
X007270Y006310D01*
X006890Y006170D02*
X006810Y006250D01*
X005310Y006250D01*
X004950Y006610D01*
X004220Y006610D01*
X003690Y007140D01*
X004155Y006930D02*
X004190Y007014D01*
X004258Y006851D01*
X004319Y006790D01*
X004295Y006790D01*
X004155Y006930D01*
X004171Y006970D02*
X004209Y006970D01*
X004194Y006891D02*
X004241Y006891D01*
X004272Y006813D02*
X004296Y006813D01*
X003965Y006610D02*
X003900Y006675D01*
X003791Y006630D01*
X003589Y006630D01*
X003401Y006708D01*
X003258Y006851D01*
X003190Y007014D01*
X003155Y006930D01*
X003475Y006610D01*
X003965Y006610D01*
X003920Y006656D02*
X003853Y006656D01*
X003527Y006656D02*
X003429Y006656D01*
X003375Y006734D02*
X003351Y006734D01*
X003296Y006813D02*
X003272Y006813D01*
X003241Y006891D02*
X003194Y006891D01*
X003209Y006970D02*
X003171Y006970D01*
X002690Y007140D02*
X003400Y006430D01*
X004870Y006430D01*
X005230Y006070D01*
X006550Y006070D01*
X006700Y005920D01*
X006700Y004640D01*
X007450Y003890D01*
X008351Y003890D01*
X008351Y004087D02*
X007513Y004087D01*
X006890Y004710D01*
X006890Y006170D01*
X006510Y005630D02*
X006250Y005890D01*
X005150Y005890D01*
X004790Y006250D01*
X002580Y006250D01*
X001690Y007140D01*
X001180Y007127D02*
X001130Y007127D01*
X001130Y007205D02*
X001180Y007205D01*
X001197Y007284D02*
X001130Y007284D01*
X001130Y007362D02*
X001230Y007362D01*
X001269Y007441D02*
X001130Y007441D01*
X001130Y007519D02*
X001348Y007519D01*
X001462Y007598D02*
X001130Y007598D01*
X001130Y007676D02*
X020500Y007676D01*
X020500Y007598D02*
X019918Y007598D01*
X020032Y007519D02*
X020500Y007519D01*
X020500Y007441D02*
X020111Y007441D01*
X020150Y007362D02*
X020500Y007362D01*
X020500Y007284D02*
X020183Y007284D01*
X020200Y007205D02*
X020500Y007205D01*
X020500Y007127D02*
X020200Y007127D01*
X020200Y007048D02*
X020500Y007048D01*
X020500Y006970D02*
X020171Y006970D01*
X020139Y006891D02*
X020500Y006891D01*
X020500Y006813D02*
X020084Y006813D01*
X020005Y006734D02*
X020500Y006734D01*
X020500Y006656D02*
X019853Y006656D01*
X019662Y006577D02*
X020500Y006577D01*
X020500Y006499D02*
X019583Y006499D01*
X019505Y006420D02*
X020500Y006420D01*
X020500Y006342D02*
X019426Y006342D01*
X019348Y006263D02*
X020500Y006263D01*
X020500Y006185D02*
X019269Y006185D01*
X019191Y006106D02*
X020500Y006106D01*
X020500Y006028D02*
X017612Y006028D01*
X017534Y005949D02*
X020500Y005949D01*
X020500Y005871D02*
X020349Y005871D01*
X020460Y005805D02*
X020460Y005805D01*
X020460Y005805D01*
X020467Y005792D02*
X020500Y005792D01*
X019601Y005871D02*
X018262Y005871D01*
X018373Y005805D02*
X018373Y005805D01*
X018373Y005805D01*
X018381Y005792D02*
X019483Y005792D01*
X019438Y005714D02*
X018426Y005714D01*
X018471Y005635D02*
X019392Y005635D01*
X019378Y005557D02*
X018486Y005557D01*
X018487Y005478D02*
X019377Y005478D01*
X019378Y005400D02*
X018486Y005400D01*
X018452Y005321D02*
X019411Y005321D01*
X019459Y005243D02*
X018405Y005243D01*
X018373Y005189D02*
X018373Y005189D01*
X018329Y005164D02*
X019534Y005164D01*
X019670Y005086D02*
X018193Y005086D01*
X018120Y005007D02*
X018485Y005007D01*
X018407Y004929D02*
X018047Y004929D01*
X018310Y004850D02*
X018374Y004850D01*
X018359Y004772D02*
X018324Y004772D01*
X018866Y005007D02*
X020500Y005007D01*
X020500Y004929D02*
X018945Y004929D01*
X018977Y004850D02*
X020500Y004850D01*
X020500Y004772D02*
X018993Y004772D01*
X018993Y004693D02*
X020500Y004693D01*
X020500Y004615D02*
X018963Y004615D01*
X018911Y004536D02*
X020500Y004536D01*
X020500Y004458D02*
X018801Y004458D01*
X018430Y004080D02*
X017790Y004060D01*
X017110Y004060D01*
X016453Y004222D02*
X016309Y004222D01*
X016345Y004301D02*
X016417Y004301D01*
X016417Y004379D02*
X016345Y004379D01*
X016345Y004458D02*
X016417Y004458D01*
X016417Y004536D02*
X016345Y004536D01*
X016417Y004615D02*
X015930Y004615D01*
X015930Y004693D02*
X015850Y004693D01*
X015850Y004615D02*
X015212Y004615D01*
X015212Y004693D02*
X015435Y004693D01*
X015435Y004772D02*
X015260Y004772D01*
X015339Y004850D02*
X015435Y004850D01*
X015449Y004929D02*
X015417Y004929D01*
X015595Y005007D02*
X016707Y005007D01*
X016707Y005009D02*
X016707Y005262D01*
X016691Y005262D01*
X016691Y005500D01*
X016771Y005500D01*
X016771Y005193D01*
X016773Y005193D01*
X016773Y005009D01*
X016707Y005009D01*
X016707Y005086D02*
X016773Y005086D01*
X016773Y005164D02*
X016707Y005164D01*
X016707Y005243D02*
X016771Y005243D01*
X016771Y005321D02*
X016691Y005321D01*
X016691Y005400D02*
X016771Y005400D01*
X016771Y005478D02*
X016691Y005478D01*
X016771Y005557D02*
X017291Y005557D01*
X017290Y005478D02*
X017083Y005478D01*
X017083Y005400D02*
X017291Y005400D01*
X017325Y005321D02*
X017083Y005321D01*
X017050Y005243D02*
X017184Y005243D01*
X017105Y005164D02*
X017057Y005164D01*
X016423Y005164D02*
X015670Y005164D01*
X015648Y005086D02*
X016417Y005086D01*
X016411Y005243D02*
X016369Y005243D01*
X016331Y004929D02*
X016417Y004929D01*
X016417Y004850D02*
X016345Y004850D01*
X016345Y004772D02*
X016430Y004772D01*
X016417Y004693D02*
X016345Y004693D01*
X015930Y004772D02*
X015850Y004772D01*
X015850Y004850D02*
X015930Y004850D01*
X015930Y004929D02*
X015850Y004929D01*
X015150Y005243D02*
X013857Y005243D01*
X013936Y005321D02*
X015183Y005321D01*
X015252Y005400D02*
X014744Y005400D01*
X014823Y005478D02*
X015429Y005478D01*
X015570Y005730D02*
X014820Y005730D01*
X014640Y005550D01*
X013910Y005550D01*
X013736Y005376D01*
X013426Y005376D01*
X013347Y005553D02*
X013653Y005553D01*
X013830Y005730D01*
X014560Y005730D01*
X014740Y005910D01*
X015490Y005910D01*
X015670Y006090D01*
X016404Y006090D01*
X016596Y006282D01*
X017344Y006282D01*
X017602Y006540D01*
X018290Y006540D01*
X018690Y006940D01*
X018690Y007140D01*
X018209Y006970D02*
X018171Y006970D01*
X018190Y007014D02*
X018258Y006851D01*
X018302Y006807D01*
X018215Y006720D01*
X017991Y006720D01*
X018122Y006851D01*
X018190Y007014D01*
X018139Y006891D02*
X018241Y006891D01*
X018296Y006813D02*
X018084Y006813D01*
X018005Y006734D02*
X018229Y006734D01*
X018465Y006460D02*
X018635Y006630D01*
X018791Y006630D01*
X018979Y006708D01*
X019122Y006851D01*
X019190Y007014D01*
X019258Y006851D01*
X019342Y006767D01*
X019035Y006460D01*
X018465Y006460D01*
X018503Y006499D02*
X019074Y006499D01*
X019152Y006577D02*
X018582Y006577D01*
X018853Y006656D02*
X019231Y006656D01*
X019309Y006734D02*
X019005Y006734D01*
X019084Y006813D02*
X019296Y006813D01*
X019241Y006891D02*
X019139Y006891D01*
X019171Y006970D02*
X019209Y006970D01*
X019690Y006860D02*
X019690Y007140D01*
X019197Y007284D02*
X019183Y007284D01*
X019150Y007362D02*
X019230Y007362D01*
X019269Y007441D02*
X019111Y007441D01*
X019032Y007519D02*
X019348Y007519D01*
X019462Y007598D02*
X018918Y007598D01*
X018462Y007598D02*
X017918Y007598D01*
X018032Y007519D02*
X018348Y007519D01*
X018269Y007441D02*
X018111Y007441D01*
X018150Y007362D02*
X018230Y007362D01*
X018197Y007284D02*
X018183Y007284D01*
X017690Y007140D02*
X017690Y006884D01*
X017265Y006459D01*
X016517Y006459D01*
X016328Y006270D01*
X015590Y006270D01*
X015410Y006090D01*
X014660Y006090D01*
X014480Y005910D01*
X013750Y005910D01*
X013571Y005731D01*
X013269Y005731D01*
X012216Y004677D01*
X011029Y004677D01*
X011040Y004490D02*
X010790Y004490D01*
X010710Y004570D01*
X010290Y004570D01*
X009920Y004200D01*
X009710Y004200D01*
X009700Y004190D01*
X009700Y005239D01*
X009690Y005229D01*
X009690Y006063D01*
X009695Y006077D01*
X010040Y005930D02*
X010168Y006077D01*
X010217Y006077D01*
X010560Y006420D01*
X011640Y006420D01*
X011893Y006342D02*
X010446Y006342D01*
X010435Y006331D02*
X010565Y006460D01*
X011265Y006460D01*
X011370Y006565D01*
X011480Y006675D01*
X011589Y006630D01*
X011791Y006630D01*
X011979Y006708D01*
X012122Y006851D01*
X012190Y007014D01*
X012258Y006851D01*
X012330Y006779D01*
X012262Y006711D01*
X011816Y006265D01*
X010615Y006265D01*
X010510Y006159D01*
X010395Y006045D01*
X010201Y006045D01*
X010201Y006110D01*
X010454Y006110D01*
X010454Y006279D01*
X010444Y006315D01*
X010435Y006331D01*
X010454Y006263D02*
X010614Y006263D01*
X010535Y006185D02*
X010454Y006185D01*
X010510Y006159D02*
X010510Y006159D01*
X010457Y006106D02*
X010201Y006106D01*
X010040Y005930D02*
X010040Y005880D01*
X009887Y005727D01*
X009887Y005229D01*
X009887Y005229D01*
X009887Y005556D01*
X009904Y005556D01*
X009904Y005711D01*
X009961Y005768D01*
X009937Y005782D01*
X009932Y005787D01*
X009899Y005754D01*
X009870Y005754D01*
X009870Y005556D01*
X009887Y005556D01*
X009887Y005229D01*
X009891Y005229D01*
X009891Y005229D01*
X009887Y005229D01*
X009887Y005229D01*
X009883Y005229D01*
X009883Y005229D01*
X009887Y005229D01*
X009887Y005229D01*
X009887Y004902D01*
X009912Y004902D01*
X009961Y004915D01*
X009980Y004925D01*
X010004Y004902D01*
X010164Y004902D01*
X010182Y004920D01*
X010201Y004902D01*
X010216Y004902D01*
X010213Y004896D01*
X010213Y004793D01*
X010231Y004750D01*
X010215Y004750D01*
X010110Y004645D01*
X010110Y004645D01*
X009880Y004415D01*
X009880Y004902D01*
X009887Y004902D01*
X009887Y005229D01*
X009887Y005229D01*
X009887Y005243D02*
X009887Y005243D01*
X009887Y005321D02*
X009887Y005321D01*
X009887Y005400D02*
X009887Y005400D01*
X009887Y005478D02*
X009887Y005478D01*
X009870Y005557D02*
X009904Y005557D01*
X009904Y005635D02*
X009870Y005635D01*
X009870Y005714D02*
X009907Y005714D01*
X010084Y005636D02*
X010178Y005731D01*
X010336Y005731D01*
X010690Y006085D01*
X011891Y006085D01*
X012442Y006636D01*
X013186Y006636D01*
X013690Y007140D01*
X013225Y006930D02*
X013190Y007014D01*
X013122Y006851D01*
X013087Y006816D01*
X013112Y006816D01*
X013225Y006930D01*
X013209Y006970D02*
X013171Y006970D01*
X013186Y006891D02*
X013139Y006891D01*
X013446Y006636D02*
X014186Y006636D01*
X014690Y007140D01*
X015171Y006970D02*
X015209Y006970D01*
X015225Y006930D02*
X015190Y007014D01*
X015122Y006851D01*
X015087Y006816D01*
X015112Y006816D01*
X015225Y006930D01*
X015186Y006891D02*
X015139Y006891D01*
X015186Y006636D02*
X014430Y006636D01*
X014253Y006459D01*
X013525Y006459D01*
X013347Y006282D01*
X012599Y006282D01*
X012147Y005829D01*
X012157Y005721D01*
X012396Y005823D02*
X012417Y005772D01*
X012417Y005669D01*
X012377Y005573D01*
X012304Y005500D01*
X012208Y005461D01*
X012105Y005461D01*
X012009Y005500D01*
X011936Y005573D01*
X011897Y005669D01*
X011897Y005728D01*
X010843Y005728D01*
X010671Y005556D01*
X010754Y005556D01*
X010867Y005442D01*
X010867Y005425D01*
X010873Y005430D01*
X010968Y005470D01*
X011072Y005470D01*
X011167Y005430D01*
X011240Y005357D01*
X011280Y005262D01*
X011280Y005158D01*
X011242Y005067D01*
X011242Y005067D01*
X011256Y005054D01*
X012082Y005054D01*
X013010Y005982D01*
X013115Y006088D01*
X013413Y006088D01*
X013500Y006175D01*
X013604Y006279D01*
X013599Y006279D01*
X013422Y006102D01*
X012674Y006102D01*
X012396Y005823D01*
X012409Y005792D02*
X012820Y005792D01*
X012898Y005871D02*
X012443Y005871D01*
X012521Y005949D02*
X012977Y005949D01*
X013055Y006028D02*
X012600Y006028D01*
X012521Y006459D02*
X011970Y005908D01*
X010769Y005908D01*
X010281Y005420D01*
X010281Y005229D01*
X010477Y005229D02*
X010477Y004849D01*
X010473Y004845D01*
X010213Y004850D02*
X009880Y004850D01*
X009880Y004772D02*
X010222Y004772D01*
X010158Y004693D02*
X009880Y004693D01*
X009880Y004615D02*
X010080Y004615D01*
X010001Y004536D02*
X009880Y004536D01*
X009880Y004458D02*
X009923Y004458D01*
X010275Y004301D02*
X010369Y004301D01*
X010354Y004379D02*
X010646Y004379D01*
X010696Y004301D02*
X010702Y004301D01*
X011029Y004481D02*
X011040Y004490D01*
X011029Y004481D02*
X012000Y004481D01*
X012113Y004398D01*
X012540Y004569D02*
X012540Y004746D01*
X013347Y005553D01*
X012741Y005714D02*
X012417Y005714D01*
X012403Y005635D02*
X012663Y005635D01*
X012584Y005557D02*
X012360Y005557D01*
X012251Y005478D02*
X012506Y005478D01*
X012427Y005400D02*
X011198Y005400D01*
X011255Y005321D02*
X012349Y005321D01*
X012270Y005243D02*
X011280Y005243D01*
X011280Y005164D02*
X012192Y005164D01*
X012113Y005086D02*
X011250Y005086D01*
X011019Y005209D02*
X011020Y005210D01*
X011019Y005209D02*
X010674Y005229D01*
X010832Y005478D02*
X012063Y005478D01*
X011953Y005557D02*
X010672Y005557D01*
X010751Y005635D02*
X011911Y005635D01*
X011897Y005714D02*
X010829Y005714D01*
X010084Y005636D02*
X010084Y005229D01*
X009887Y005164D02*
X009887Y005164D01*
X009887Y005086D02*
X009887Y005086D01*
X009887Y005007D02*
X009887Y005007D01*
X009887Y004929D02*
X009887Y004929D01*
X009490Y004880D02*
X009440Y004830D01*
X009140Y004830D01*
X009292Y004615D02*
X009520Y004615D01*
X009490Y004880D02*
X009490Y005170D01*
X009493Y005173D01*
X009493Y005229D01*
X009493Y005173D02*
X009493Y005033D01*
X009296Y005229D02*
X009296Y006226D01*
X009550Y006480D01*
X010330Y006480D01*
X010490Y006640D01*
X011190Y006640D01*
X011690Y007140D01*
X012171Y006970D02*
X012209Y006970D01*
X012241Y006891D02*
X012139Y006891D01*
X012084Y006813D02*
X012296Y006813D01*
X012285Y006734D02*
X012005Y006734D01*
X011853Y006656D02*
X012207Y006656D01*
X012128Y006577D02*
X011382Y006577D01*
X011460Y006656D02*
X011527Y006656D01*
X011303Y006499D02*
X012050Y006499D01*
X011971Y006420D02*
X010525Y006420D01*
X010190Y006640D02*
X010690Y007140D01*
X010225Y006930D02*
X010190Y007014D01*
X010122Y006851D01*
X010091Y006820D01*
X010115Y006820D01*
X010225Y006930D01*
X010209Y006970D02*
X010171Y006970D01*
X010186Y006891D02*
X010139Y006891D01*
X010190Y006640D02*
X009450Y006640D01*
X009099Y006289D01*
X009099Y005229D01*
X008903Y005229D02*
X008903Y006403D01*
X009690Y007140D01*
X010183Y007284D02*
X010197Y007284D01*
X010230Y007362D02*
X010150Y007362D01*
X010111Y007441D02*
X010269Y007441D01*
X010348Y007519D02*
X010032Y007519D01*
X009918Y007598D02*
X010462Y007598D01*
X010918Y007598D02*
X011462Y007598D01*
X011348Y007519D02*
X011032Y007519D01*
X011111Y007441D02*
X011269Y007441D01*
X011230Y007362D02*
X011150Y007362D01*
X011183Y007284D02*
X011197Y007284D01*
X012032Y007519D02*
X012348Y007519D01*
X012269Y007441D02*
X012111Y007441D01*
X012150Y007362D02*
X012230Y007362D01*
X012197Y007284D02*
X012183Y007284D01*
X011918Y007598D02*
X012462Y007598D01*
X012918Y007598D02*
X013462Y007598D01*
X013348Y007519D02*
X013032Y007519D01*
X013111Y007441D02*
X013269Y007441D01*
X013230Y007362D02*
X013150Y007362D01*
X013183Y007284D02*
X013197Y007284D01*
X013918Y007598D02*
X014462Y007598D01*
X014348Y007519D02*
X014032Y007519D01*
X014111Y007441D02*
X014269Y007441D01*
X014230Y007362D02*
X014150Y007362D01*
X014183Y007284D02*
X014197Y007284D01*
X014190Y007014D02*
X014225Y006930D01*
X014112Y006816D01*
X014087Y006816D01*
X014122Y006851D01*
X014190Y007014D01*
X014171Y006970D02*
X014209Y006970D01*
X014186Y006891D02*
X014139Y006891D01*
X013446Y006636D02*
X013269Y006459D01*
X012521Y006459D01*
X013426Y006106D02*
X013431Y006106D01*
X013505Y006185D02*
X013510Y006185D01*
X013583Y006263D02*
X013588Y006263D01*
X013680Y006100D02*
X014410Y006100D01*
X014580Y006270D01*
X015330Y006270D01*
X015510Y006450D01*
X016272Y006450D01*
X016690Y006868D01*
X016690Y007140D01*
X017171Y006970D02*
X017209Y006970D01*
X017190Y007014D02*
X017258Y006851D01*
X017330Y006779D01*
X017190Y006639D01*
X016813Y006639D01*
X016979Y006708D01*
X017122Y006851D01*
X017190Y007014D01*
X017139Y006891D02*
X017241Y006891D01*
X017296Y006813D02*
X017084Y006813D01*
X017005Y006734D02*
X017285Y006734D01*
X017207Y006656D02*
X016853Y006656D01*
X016338Y006771D02*
X016197Y006630D01*
X015435Y006630D01*
X015330Y006525D01*
X015255Y006450D01*
X014505Y006450D01*
X014400Y006345D01*
X014335Y006280D01*
X014329Y006280D01*
X014505Y006456D01*
X015261Y006456D01*
X015480Y006675D01*
X015589Y006630D01*
X015791Y006630D01*
X015979Y006708D01*
X016122Y006851D01*
X016190Y007014D01*
X016258Y006851D01*
X016338Y006771D01*
X016301Y006734D02*
X016005Y006734D01*
X016084Y006813D02*
X016296Y006813D01*
X016241Y006891D02*
X016139Y006891D01*
X016171Y006970D02*
X016209Y006970D01*
X015690Y007140D02*
X015186Y006636D01*
X015382Y006577D02*
X015382Y006577D01*
X015304Y006499D02*
X015303Y006499D01*
X015460Y006656D02*
X015527Y006656D01*
X015853Y006656D02*
X016223Y006656D01*
X017430Y006100D02*
X017610Y006280D01*
X019110Y006280D01*
X019690Y006860D01*
X017462Y007598D02*
X016918Y007598D01*
X017032Y007519D02*
X017348Y007519D01*
X017269Y007441D02*
X017111Y007441D01*
X017150Y007362D02*
X017230Y007362D01*
X017197Y007284D02*
X017183Y007284D01*
X016462Y007598D02*
X015918Y007598D01*
X016032Y007519D02*
X016348Y007519D01*
X016269Y007441D02*
X016111Y007441D01*
X016150Y007362D02*
X016230Y007362D01*
X016197Y007284D02*
X016183Y007284D01*
X015462Y007598D02*
X014918Y007598D01*
X015032Y007519D02*
X015348Y007519D01*
X015269Y007441D02*
X015111Y007441D01*
X015150Y007362D02*
X015230Y007362D01*
X015197Y007284D02*
X015183Y007284D01*
X014475Y006420D02*
X014469Y006420D01*
X014397Y006342D02*
X014390Y006342D01*
X013680Y006100D02*
X013488Y005908D01*
X013190Y005908D01*
X012157Y004874D01*
X011029Y004874D01*
X010303Y004222D02*
X010197Y004222D01*
X010273Y004144D02*
X010118Y004144D01*
X010040Y004065D02*
X010273Y004065D01*
X010297Y003987D02*
X009864Y003987D01*
X010533Y004097D02*
X010542Y004087D01*
X011029Y004087D01*
X011029Y003693D02*
X011772Y003693D01*
X012767Y002699D01*
X012970Y002699D01*
X012658Y002502D02*
X011664Y003496D01*
X011029Y003496D01*
X010702Y003359D02*
X010618Y003359D01*
X010702Y003280D02*
X010258Y003280D01*
X010321Y003202D02*
X010720Y003202D01*
X010702Y003123D02*
X010350Y003123D01*
X010350Y003045D02*
X010702Y003045D01*
X010702Y002966D02*
X010324Y002966D01*
X010270Y002888D02*
X010702Y002888D01*
X010867Y002713D02*
X011242Y002713D01*
X011256Y002726D01*
X011350Y002726D01*
X011839Y002236D01*
X011839Y001953D01*
X011774Y001953D01*
X011774Y002243D01*
X011643Y002243D01*
X011607Y002234D01*
X011575Y002215D01*
X011570Y002210D01*
X011537Y002243D01*
X011381Y002243D01*
X011320Y002305D01*
X011320Y002362D01*
X011280Y002457D01*
X011207Y002530D01*
X011112Y002570D01*
X011008Y002570D01*
X010913Y002530D01*
X010867Y002485D01*
X010867Y002713D01*
X010867Y002652D02*
X011423Y002652D01*
X011502Y002574D02*
X010867Y002574D01*
X010867Y002495D02*
X010877Y002495D01*
X010674Y002551D02*
X010674Y002196D01*
X010880Y001990D01*
X010880Y001760D01*
X011220Y001420D01*
X011410Y001420D01*
X011690Y001140D01*
X012168Y001318D02*
X012212Y001318D01*
X012190Y001266D02*
X012122Y001429D01*
X011979Y001572D01*
X011920Y001597D01*
X011971Y001597D01*
X012006Y001606D01*
X012038Y001625D01*
X012064Y001651D01*
X012083Y001683D01*
X012092Y001718D01*
X012092Y001887D01*
X011839Y001887D01*
X011839Y001953D01*
X012092Y001953D01*
X012092Y001983D01*
X012260Y001815D01*
X012260Y001431D01*
X012258Y001429D01*
X012190Y001266D01*
X012136Y001396D02*
X012244Y001396D01*
X012260Y001475D02*
X012077Y001475D01*
X011998Y001553D02*
X012260Y001553D01*
X012260Y001632D02*
X012045Y001632D01*
X012090Y001710D02*
X012260Y001710D01*
X012260Y001789D02*
X012092Y001789D01*
X012092Y001867D02*
X012208Y001867D01*
X012130Y001946D02*
X011839Y001946D01*
X011839Y002024D02*
X011774Y002024D01*
X011774Y002103D02*
X011839Y002103D01*
X011839Y002181D02*
X011774Y002181D01*
X011816Y002260D02*
X011365Y002260D01*
X011320Y002338D02*
X011737Y002338D01*
X011659Y002417D02*
X011297Y002417D01*
X011243Y002495D02*
X011580Y002495D01*
X011314Y002056D02*
X011060Y002310D01*
X011314Y002056D02*
X011333Y001920D01*
X010690Y001920D02*
X010690Y001140D01*
X010212Y001318D02*
X010168Y001318D01*
X010155Y001350D02*
X010461Y001656D01*
X010461Y001805D01*
X010461Y001895D01*
X010510Y001845D01*
X010510Y001617D01*
X010401Y001572D01*
X010258Y001429D01*
X010190Y001266D01*
X010155Y001350D01*
X010201Y001396D02*
X010244Y001396D01*
X010279Y001475D02*
X010303Y001475D01*
X010358Y001553D02*
X010382Y001553D01*
X010436Y001632D02*
X010510Y001632D01*
X010510Y001710D02*
X010461Y001710D01*
X010461Y001789D02*
X010510Y001789D01*
X010488Y001867D02*
X010461Y001867D01*
X010690Y001920D02*
X010477Y002133D01*
X010477Y002551D01*
X010281Y002551D02*
X010281Y001731D01*
X009690Y001140D01*
X010185Y001004D02*
X010195Y001004D01*
X010227Y000925D02*
X010153Y000925D01*
X010118Y000847D02*
X010262Y000847D01*
X010341Y000768D02*
X010039Y000768D01*
X009935Y000690D02*
X010445Y000690D01*
X010935Y000690D02*
X011445Y000690D01*
X011341Y000768D02*
X011039Y000768D01*
X011118Y000847D02*
X011262Y000847D01*
X011227Y000925D02*
X011153Y000925D01*
X011185Y001004D02*
X011195Y001004D01*
X011935Y000690D02*
X012445Y000690D01*
X012341Y000768D02*
X012039Y000768D01*
X012118Y000847D02*
X012262Y000847D01*
X012227Y000925D02*
X012153Y000925D01*
X012185Y001004D02*
X012195Y001004D01*
X012440Y001390D02*
X012690Y001140D01*
X012440Y001390D02*
X012440Y001890D01*
X011424Y002906D01*
X011029Y002906D01*
X011029Y003103D02*
X011537Y003103D01*
X012500Y002140D01*
X013440Y002140D01*
X013700Y001880D01*
X013700Y001150D01*
X013690Y001140D01*
X014168Y001318D02*
X014212Y001318D01*
X014190Y001266D02*
X014122Y001429D01*
X013979Y001572D01*
X013880Y001613D01*
X013880Y001955D01*
X013775Y002060D01*
X013685Y002150D01*
X014085Y002150D01*
X014510Y001725D01*
X014510Y001617D01*
X014401Y001572D01*
X014258Y001429D01*
X014190Y001266D01*
X014136Y001396D02*
X014244Y001396D01*
X014303Y001475D02*
X014077Y001475D01*
X013998Y001553D02*
X014382Y001553D01*
X014510Y001632D02*
X013880Y001632D01*
X013880Y001710D02*
X014510Y001710D01*
X014447Y001789D02*
X013880Y001789D01*
X013880Y001867D02*
X014368Y001867D01*
X014290Y001946D02*
X013880Y001946D01*
X013811Y002024D02*
X014211Y002024D01*
X014133Y002103D02*
X013732Y002103D01*
X013520Y001805D02*
X013365Y001960D01*
X012620Y001960D01*
X012620Y001650D01*
X012791Y001650D01*
X012979Y001572D01*
X013122Y001429D01*
X013190Y001266D01*
X013258Y001429D01*
X013401Y001572D01*
X013520Y001622D01*
X013520Y001805D01*
X013520Y001789D02*
X012620Y001789D01*
X012620Y001867D02*
X013458Y001867D01*
X013380Y001946D02*
X012620Y001946D01*
X012620Y001710D02*
X013520Y001710D01*
X013520Y001632D02*
X012836Y001632D01*
X012998Y001553D02*
X013382Y001553D01*
X013303Y001475D02*
X013077Y001475D01*
X013136Y001396D02*
X013244Y001396D01*
X013212Y001318D02*
X013168Y001318D01*
X013185Y001004D02*
X013195Y001004D01*
X013227Y000925D02*
X013153Y000925D01*
X013118Y000847D02*
X013262Y000847D01*
X013341Y000768D02*
X013039Y000768D01*
X012935Y000690D02*
X013445Y000690D01*
X013935Y000690D02*
X014445Y000690D01*
X014341Y000768D02*
X014039Y000768D01*
X014118Y000847D02*
X014262Y000847D01*
X014227Y000925D02*
X014153Y000925D01*
X014185Y001004D02*
X014195Y001004D01*
X014690Y001140D02*
X014690Y001800D01*
X014160Y002330D01*
X012570Y002330D01*
X011601Y003299D01*
X011029Y003299D01*
X010447Y003359D02*
X009716Y003359D01*
X009638Y003437D02*
X010332Y003437D01*
X010288Y003516D02*
X009559Y003516D01*
X009460Y003360D02*
X009190Y003360D01*
X009129Y003299D01*
X008351Y003299D01*
X008009Y003299D01*
X007500Y002790D01*
X006374Y002790D01*
X006250Y002833D01*
X006244Y002820D01*
X005530Y002820D01*
X005160Y003190D01*
X005160Y003335D01*
X005160Y002850D01*
X005040Y002730D01*
X003810Y002730D01*
X003010Y003530D01*
X003010Y005070D01*
X002755Y005325D01*
X002640Y005325D01*
X002997Y005400D02*
X003993Y005400D01*
X003915Y005321D02*
X003014Y005321D01*
X003092Y005243D02*
X003895Y005243D01*
X003895Y005164D02*
X003171Y005164D01*
X003190Y005086D02*
X003895Y005086D01*
X003895Y005007D02*
X003190Y005007D01*
X003190Y004929D02*
X003895Y004929D01*
X003895Y004850D02*
X003190Y004850D01*
X003190Y004772D02*
X003474Y004772D01*
X003410Y004693D02*
X003190Y004693D01*
X003190Y004615D02*
X003380Y004615D01*
X003380Y004536D02*
X003190Y004536D01*
X003190Y004458D02*
X003405Y004458D01*
X003463Y004379D02*
X003190Y004379D01*
X003190Y004301D02*
X004215Y004301D01*
X004157Y004222D02*
X003190Y004222D01*
X003190Y004144D02*
X004130Y004144D01*
X004130Y004065D02*
X003190Y004065D01*
X003190Y003987D02*
X004154Y003987D01*
X004206Y003908D02*
X003190Y003908D01*
X003190Y003830D02*
X003953Y003830D01*
X003905Y003751D02*
X003190Y003751D01*
X003190Y003673D02*
X003895Y003673D01*
X003895Y003594D02*
X003201Y003594D01*
X003279Y003516D02*
X003895Y003516D01*
X003895Y003437D02*
X003358Y003437D01*
X003436Y003359D02*
X003895Y003359D01*
X003895Y003280D02*
X003515Y003280D01*
X003593Y003202D02*
X003895Y003202D01*
X003895Y003123D02*
X003672Y003123D01*
X003750Y003045D02*
X003895Y003045D01*
X003895Y002966D02*
X003829Y002966D01*
X003476Y002809D02*
X002967Y002809D01*
X002967Y002731D02*
X003555Y002731D01*
X003633Y002652D02*
X002967Y002652D01*
X002900Y002574D02*
X003712Y002574D01*
X003398Y002888D02*
X002967Y002888D01*
X002967Y002966D02*
X003319Y002966D01*
X003241Y003045D02*
X002967Y003045D01*
X002967Y003123D02*
X003162Y003123D01*
X003084Y003202D02*
X002915Y003202D01*
X002937Y003280D02*
X003005Y003280D01*
X002305Y003202D02*
X002186Y003202D01*
X002208Y003280D02*
X002283Y003280D01*
X002253Y003359D02*
X002237Y003359D01*
X002237Y003437D02*
X002253Y003437D01*
X002253Y003516D02*
X001979Y003516D01*
X001901Y003516D02*
X001130Y003516D01*
X001130Y003594D02*
X001643Y003594D01*
X001643Y003564D02*
X001901Y003564D01*
X001901Y003823D01*
X001764Y003823D01*
X001728Y003813D01*
X001697Y003795D01*
X001670Y003769D01*
X001652Y003737D01*
X001643Y003701D01*
X001643Y003564D01*
X001643Y003673D02*
X001130Y003673D01*
X001130Y003751D02*
X001660Y003751D01*
X001901Y003751D02*
X001979Y003751D01*
X001979Y003673D02*
X001901Y003673D01*
X001901Y003594D02*
X001979Y003594D01*
X002237Y003594D02*
X002253Y003594D01*
X002253Y003673D02*
X002237Y003673D01*
X002220Y003751D02*
X002253Y003751D01*
X002263Y003830D02*
X001130Y003830D01*
X001130Y003908D02*
X002377Y003908D01*
X002360Y003987D02*
X001130Y003987D01*
X001130Y004065D02*
X002366Y004065D01*
X002398Y004144D02*
X001130Y004144D01*
X001130Y004222D02*
X002477Y004222D01*
X002763Y004222D02*
X002830Y004222D01*
X002830Y004301D02*
X001130Y004301D01*
X001130Y004379D02*
X002305Y004379D01*
X002283Y004458D02*
X002216Y004458D01*
X002601Y004695D02*
X002640Y004655D01*
X002601Y004695D02*
X001940Y004695D01*
X001643Y004693D02*
X001130Y004693D01*
X001130Y004615D02*
X001643Y004615D01*
X001643Y004536D02*
X001130Y004536D01*
X001130Y004458D02*
X001664Y004458D01*
X001643Y004772D02*
X001130Y004772D01*
X001130Y004850D02*
X001643Y004850D01*
X001661Y004929D02*
X001130Y004929D01*
X001130Y005007D02*
X001712Y005007D01*
X001649Y005086D02*
X001130Y005086D01*
X001130Y005164D02*
X001643Y005164D01*
X001643Y005243D02*
X001130Y005243D01*
X001130Y005321D02*
X001901Y005321D01*
X001901Y005324D02*
X001643Y005324D01*
X001643Y005461D01*
X001652Y005497D01*
X001670Y005529D01*
X001697Y005555D01*
X001728Y005573D01*
X001764Y005583D01*
X001901Y005583D01*
X001901Y005324D01*
X001901Y005400D02*
X001979Y005400D01*
X001979Y005478D02*
X001901Y005478D01*
X001901Y005557D02*
X001979Y005557D01*
X002180Y005557D02*
X002283Y005557D01*
X002283Y005478D02*
X002233Y005478D01*
X002237Y005400D02*
X002283Y005400D01*
X002283Y005321D02*
X001979Y005321D01*
X002237Y005243D02*
X002283Y005243D01*
X002283Y005164D02*
X002237Y005164D01*
X002231Y005086D02*
X002283Y005086D01*
X002346Y005007D02*
X002168Y005007D01*
X002219Y004929D02*
X002302Y004929D01*
X001643Y005400D02*
X001130Y005400D01*
X001130Y005478D02*
X001647Y005478D01*
X001700Y005557D02*
X001130Y005557D01*
X001130Y005635D02*
X002339Y005635D01*
X002941Y005635D02*
X006250Y005635D01*
X006329Y005557D02*
X002997Y005557D01*
X002997Y005478D02*
X006330Y005478D01*
X006330Y005400D02*
X005327Y005400D01*
X005405Y005321D02*
X006330Y005321D01*
X006330Y005243D02*
X005425Y005243D01*
X005425Y005164D02*
X006330Y005164D01*
X006330Y005086D02*
X005425Y005086D01*
X005425Y005007D02*
X006330Y005007D01*
X006330Y004929D02*
X005425Y004929D01*
X005425Y004850D02*
X006330Y004850D01*
X006330Y004772D02*
X005425Y004772D01*
X005482Y004693D02*
X006330Y004693D01*
X006330Y004615D02*
X005560Y004615D01*
X005639Y004536D02*
X006330Y004536D01*
X006368Y004458D02*
X005778Y004458D01*
X005909Y004379D02*
X006446Y004379D01*
X006525Y004301D02*
X005960Y004301D01*
X005980Y004222D02*
X006603Y004222D01*
X006682Y004144D02*
X005978Y004144D01*
X005946Y004065D02*
X006760Y004065D01*
X006839Y003987D02*
X005874Y003987D01*
X005720Y004200D02*
X005160Y004760D01*
X005160Y004865D01*
X004160Y004865D02*
X004160Y004580D01*
X004150Y004570D01*
X003640Y004570D01*
X003817Y004379D02*
X003945Y004379D01*
X004376Y004380D02*
X004410Y004414D01*
X004444Y004380D01*
X004376Y004380D01*
X004596Y004310D02*
X004724Y004310D01*
X004673Y004259D01*
X004660Y004228D01*
X004647Y004259D01*
X004596Y004310D01*
X004605Y004301D02*
X004715Y004301D01*
X004876Y004380D02*
X004910Y004414D01*
X004944Y004380D01*
X004876Y004380D01*
X005105Y004301D02*
X005365Y004301D01*
X005443Y004222D02*
X005163Y004222D01*
X005190Y004144D02*
X005462Y004144D01*
X005494Y004065D02*
X005190Y004065D01*
X005166Y003987D02*
X005566Y003987D01*
X005367Y003830D02*
X006996Y003830D01*
X006917Y003908D02*
X005114Y003908D01*
X004944Y003820D02*
X004910Y003786D01*
X004876Y003820D01*
X004944Y003820D01*
X004724Y003890D02*
X004596Y003890D01*
X004647Y003941D01*
X004660Y003972D01*
X004673Y003941D01*
X004724Y003890D01*
X004706Y003908D02*
X004614Y003908D01*
X004444Y003820D02*
X004403Y003780D01*
X004385Y003812D01*
X004376Y003820D01*
X004444Y003820D01*
X004183Y003830D02*
X004137Y003830D01*
X004137Y003751D02*
X004183Y003751D01*
X004183Y003673D02*
X004137Y003673D01*
X004137Y003594D02*
X004183Y003594D01*
X004183Y003516D02*
X004137Y003516D01*
X004137Y003437D02*
X004183Y003437D01*
X004183Y003359D02*
X004137Y003359D01*
X005425Y003359D02*
X005927Y003359D01*
X005927Y003339D02*
X006217Y003339D01*
X006217Y003592D01*
X006048Y003592D01*
X006013Y003583D01*
X005981Y003564D01*
X005955Y003538D01*
X005936Y003506D01*
X005927Y003471D01*
X005927Y003339D01*
X005927Y003437D02*
X005425Y003437D01*
X005425Y003516D02*
X005942Y003516D01*
X006217Y003516D02*
X006283Y003516D01*
X006283Y003437D02*
X006217Y003437D01*
X006217Y003359D02*
X006283Y003359D01*
X006283Y003280D02*
X007735Y003280D01*
X007657Y003202D02*
X006573Y003202D01*
X006568Y003123D02*
X007578Y003123D01*
X007500Y003045D02*
X006566Y003045D01*
X006217Y003280D02*
X005425Y003280D01*
X005425Y003202D02*
X005927Y003202D01*
X005932Y003123D02*
X005482Y003123D01*
X005560Y003045D02*
X005934Y003045D01*
X005365Y002731D02*
X005295Y002731D01*
X005217Y002652D02*
X005443Y002652D01*
X005138Y002574D02*
X005749Y002574D01*
X005670Y002495D02*
X001130Y002495D01*
X001130Y002417D02*
X005592Y002417D01*
X005660Y002230D02*
X004960Y002230D01*
X004750Y002020D01*
X002570Y002020D01*
X001690Y001140D01*
X001180Y001161D02*
X001130Y001161D01*
X001130Y001239D02*
X001180Y001239D01*
X001180Y001318D02*
X001130Y001318D01*
X001130Y001396D02*
X001180Y001396D01*
X001180Y001475D02*
X001130Y001475D01*
X001130Y001553D02*
X001180Y001553D01*
X001130Y001632D02*
X001244Y001632D01*
X001130Y001710D02*
X002005Y001710D01*
X002084Y001789D02*
X001130Y001789D01*
X001130Y001867D02*
X002162Y001867D01*
X002241Y001946D02*
X001130Y001946D01*
X001130Y002024D02*
X002319Y002024D01*
X002398Y002103D02*
X001130Y002103D01*
X001130Y002181D02*
X002476Y002181D01*
X002645Y001840D02*
X003135Y001840D01*
X002900Y001605D01*
X002791Y001650D01*
X002589Y001650D01*
X002401Y001572D01*
X002258Y001429D01*
X002200Y001290D01*
X002200Y001395D01*
X002645Y001840D01*
X002593Y001789D02*
X003084Y001789D01*
X003005Y001710D02*
X002515Y001710D01*
X002544Y001632D02*
X002436Y001632D01*
X002382Y001553D02*
X002358Y001553D01*
X002303Y001475D02*
X002279Y001475D01*
X002244Y001396D02*
X002201Y001396D01*
X002200Y001318D02*
X002212Y001318D01*
X002690Y001140D02*
X003390Y001840D01*
X004830Y001840D01*
X005020Y002030D01*
X005740Y002030D01*
X005900Y002190D01*
X006670Y002190D01*
X006890Y002410D01*
X007670Y002410D01*
X008166Y002906D01*
X008351Y002906D01*
X008227Y002713D02*
X007905Y002390D01*
X008485Y002390D01*
X008513Y002417D01*
X008513Y002713D01*
X008227Y002713D01*
X008167Y002652D02*
X008513Y002652D01*
X008513Y002574D02*
X008088Y002574D01*
X008010Y002495D02*
X008513Y002495D01*
X008512Y002417D02*
X007931Y002417D01*
X007590Y002600D02*
X006790Y002600D01*
X006590Y002400D01*
X005830Y002400D01*
X005660Y002230D01*
X006030Y002010D02*
X005850Y001830D01*
X005110Y001830D01*
X004920Y001640D01*
X004190Y001640D01*
X003690Y001140D01*
X004155Y001350D02*
X004265Y001460D01*
X004289Y001460D01*
X004258Y001429D01*
X004190Y001266D01*
X004155Y001350D01*
X004168Y001318D02*
X004212Y001318D01*
X004201Y001396D02*
X004244Y001396D01*
X003955Y001660D02*
X003900Y001605D01*
X003791Y001650D01*
X003589Y001650D01*
X003401Y001572D01*
X003258Y001429D01*
X003190Y001266D01*
X003155Y001350D01*
X003465Y001660D01*
X003955Y001660D01*
X003927Y001632D02*
X003836Y001632D01*
X003544Y001632D02*
X003436Y001632D01*
X003382Y001553D02*
X003358Y001553D01*
X003303Y001475D02*
X003279Y001475D01*
X003244Y001396D02*
X003201Y001396D01*
X003212Y001318D02*
X003168Y001318D01*
X003185Y001004D02*
X003195Y001004D01*
X003227Y000925D02*
X003153Y000925D01*
X003118Y000847D02*
X003262Y000847D01*
X003341Y000768D02*
X003039Y000768D01*
X002935Y000690D02*
X003445Y000690D01*
X003935Y000690D02*
X004445Y000690D01*
X004341Y000768D02*
X004039Y000768D01*
X004118Y000847D02*
X004262Y000847D01*
X004227Y000925D02*
X004153Y000925D01*
X004185Y001004D02*
X004195Y001004D01*
X004690Y001140D02*
X005200Y001650D01*
X005930Y001650D01*
X006100Y001820D01*
X006850Y001820D01*
X007060Y002030D01*
X008630Y002030D01*
X008903Y002303D01*
X008903Y002551D01*
X009099Y002551D02*
X009099Y002239D01*
X008700Y001840D01*
X007140Y001840D01*
X006940Y001640D01*
X006190Y001640D01*
X005690Y001140D01*
X006155Y001350D02*
X006265Y001460D01*
X006289Y001460D01*
X006258Y001429D01*
X006190Y001266D01*
X006155Y001350D01*
X006168Y001318D02*
X006212Y001318D01*
X006201Y001396D02*
X006244Y001396D01*
X007053Y001498D02*
X007120Y001565D01*
X007215Y001660D01*
X007955Y001660D01*
X007900Y001605D01*
X007791Y001650D01*
X007589Y001650D01*
X007401Y001572D01*
X007258Y001429D01*
X007190Y001266D01*
X007122Y001429D01*
X007053Y001498D01*
X007077Y001475D02*
X007303Y001475D01*
X007244Y001396D02*
X007136Y001396D01*
X007168Y001318D02*
X007212Y001318D01*
X007690Y001140D02*
X008210Y001660D01*
X008800Y001660D01*
X009493Y002353D01*
X009493Y002551D01*
X009296Y002551D02*
X009296Y002994D01*
X009290Y003000D01*
X009550Y003015D02*
X009550Y002948D01*
X009521Y002878D01*
X009573Y002878D01*
X009592Y002860D01*
X009610Y002878D01*
X009770Y002878D01*
X009794Y002855D01*
X009812Y002865D01*
X009861Y002878D01*
X009887Y002878D01*
X009887Y002551D01*
X009887Y002224D01*
X009912Y002224D01*
X009961Y002238D01*
X009980Y002248D01*
X010004Y002224D01*
X010101Y002224D01*
X010101Y001805D01*
X009900Y001605D01*
X009791Y001650D01*
X009589Y001650D01*
X009401Y001572D01*
X009258Y001429D01*
X009190Y001266D01*
X009155Y001350D01*
X009360Y001555D01*
X009360Y001705D01*
X009870Y002215D01*
X009870Y002224D01*
X009887Y002224D01*
X009887Y002551D01*
X009887Y002551D01*
X009891Y002551D01*
X009891Y002551D01*
X009887Y002551D01*
X009887Y002551D01*
X009883Y002551D01*
X009883Y002551D01*
X009887Y002551D01*
X009887Y002551D01*
X009887Y002551D01*
X009887Y002878D01*
X009910Y002878D01*
X009910Y002892D01*
X009892Y002910D01*
X009655Y002910D01*
X009550Y003015D01*
X009550Y003015D01*
X009550Y002966D02*
X009599Y002966D01*
X009525Y002888D02*
X009910Y002888D01*
X009887Y002809D02*
X009887Y002809D01*
X009887Y002731D02*
X009887Y002731D01*
X009887Y002652D02*
X009887Y002652D01*
X009887Y002574D02*
X009887Y002574D01*
X009887Y002495D02*
X009887Y002495D01*
X009887Y002417D02*
X009887Y002417D01*
X009887Y002338D02*
X009887Y002338D01*
X009887Y002260D02*
X009887Y002260D01*
X009836Y002181D02*
X010101Y002181D01*
X010101Y002103D02*
X009757Y002103D01*
X009679Y002024D02*
X010101Y002024D01*
X010101Y001946D02*
X009600Y001946D01*
X009522Y001867D02*
X010101Y001867D01*
X010084Y001789D02*
X009443Y001789D01*
X009365Y001710D02*
X010005Y001710D01*
X009927Y001632D02*
X009836Y001632D01*
X009544Y001632D02*
X009360Y001632D01*
X009358Y001553D02*
X009382Y001553D01*
X009303Y001475D02*
X009279Y001475D01*
X009244Y001396D02*
X009201Y001396D01*
X009212Y001318D02*
X009168Y001318D01*
X009180Y001630D02*
X008690Y001140D01*
X008212Y001318D02*
X008168Y001318D01*
X008155Y001350D02*
X008285Y001480D01*
X008309Y001480D01*
X008258Y001429D01*
X008190Y001266D01*
X008155Y001350D01*
X008201Y001396D02*
X008244Y001396D01*
X008279Y001475D02*
X008303Y001475D01*
X007927Y001632D02*
X007836Y001632D01*
X007544Y001632D02*
X007186Y001632D01*
X007108Y001553D02*
X007382Y001553D01*
X006780Y002010D02*
X006030Y002010D01*
X006780Y002010D02*
X006980Y002210D01*
X008560Y002210D01*
X008706Y002356D01*
X008706Y002551D01*
X008804Y002860D02*
X008786Y002878D01*
X008678Y002878D01*
X008678Y002986D01*
X008660Y003004D01*
X008678Y003023D01*
X008678Y003119D01*
X009058Y003119D01*
X009030Y003052D01*
X009030Y002948D01*
X009059Y002878D01*
X009019Y002878D01*
X009001Y002860D01*
X008983Y002878D01*
X008823Y002878D01*
X008804Y002860D01*
X008678Y002888D02*
X009055Y002888D01*
X009030Y002966D02*
X008678Y002966D01*
X008678Y003045D02*
X009030Y003045D01*
X008351Y003103D02*
X008093Y003103D01*
X007590Y002600D01*
X007814Y003359D02*
X006573Y003359D01*
X006573Y003437D02*
X007892Y003437D01*
X008351Y003496D02*
X008351Y003500D01*
X008351Y003500D01*
X008351Y003496D01*
X008351Y003496D01*
X008351Y003496D01*
X008678Y003496D01*
X008678Y003522D01*
X008665Y003571D01*
X008655Y003589D01*
X008678Y003516D02*
X009091Y003516D01*
X009460Y003360D02*
X009730Y003090D01*
X010080Y003090D01*
X010090Y003080D01*
X010090Y002537D01*
X010084Y002551D01*
X009690Y002551D02*
X009690Y002290D01*
X009180Y001780D01*
X009180Y001630D01*
X009185Y001004D02*
X009195Y001004D01*
X009227Y000925D02*
X009153Y000925D01*
X009118Y000847D02*
X009262Y000847D01*
X009341Y000768D02*
X009039Y000768D01*
X008935Y000690D02*
X009445Y000690D01*
X008445Y000690D02*
X007935Y000690D01*
X008039Y000768D02*
X008341Y000768D01*
X008262Y000847D02*
X008118Y000847D01*
X008153Y000925D02*
X008227Y000925D01*
X008195Y001004D02*
X008185Y001004D01*
X007445Y000690D02*
X006935Y000690D01*
X007039Y000768D02*
X007341Y000768D01*
X007262Y000847D02*
X007118Y000847D01*
X007153Y000925D02*
X007227Y000925D01*
X007195Y001004D02*
X007185Y001004D01*
X006445Y000690D02*
X005935Y000690D01*
X006039Y000768D02*
X006341Y000768D01*
X006262Y000847D02*
X006118Y000847D01*
X006153Y000925D02*
X006227Y000925D01*
X006195Y001004D02*
X006185Y001004D01*
X005445Y000690D02*
X004935Y000690D01*
X005039Y000768D02*
X005341Y000768D01*
X005262Y000847D02*
X005118Y000847D01*
X005153Y000925D02*
X005227Y000925D01*
X005195Y001004D02*
X005185Y001004D01*
X005190Y001266D02*
X005155Y001350D01*
X005275Y001470D01*
X005299Y001470D01*
X005258Y001429D01*
X005190Y001266D01*
X005168Y001318D02*
X005212Y001318D01*
X005201Y001396D02*
X005244Y001396D01*
X004735Y002260D02*
X001130Y002260D01*
X001130Y002338D02*
X004813Y002338D01*
X002927Y001632D02*
X002836Y001632D01*
X001180Y001082D02*
X001130Y001082D01*
X001130Y001004D02*
X001180Y001004D01*
X001180Y000925D02*
X001130Y000925D01*
X001130Y000847D02*
X001180Y000847D01*
X001180Y000768D02*
X001130Y000768D01*
X001130Y000690D02*
X001203Y000690D01*
X002177Y000690D02*
X002445Y000690D01*
X002341Y000768D02*
X002200Y000768D01*
X002200Y000847D02*
X002262Y000847D01*
X002227Y000925D02*
X002200Y000925D01*
X002320Y002574D02*
X001130Y002574D01*
X001130Y002652D02*
X001710Y002652D01*
X001643Y002731D02*
X001130Y002731D01*
X001130Y002809D02*
X001643Y002809D01*
X001643Y002888D02*
X001130Y002888D01*
X001130Y002966D02*
X001643Y002966D01*
X001643Y003045D02*
X001130Y003045D01*
X001130Y003123D02*
X001643Y003123D01*
X001694Y003202D02*
X001130Y003202D01*
X001130Y003280D02*
X001672Y003280D01*
X001643Y003359D02*
X001130Y003359D01*
X001130Y003437D02*
X001643Y003437D01*
X002237Y003123D02*
X002253Y003123D01*
X001940Y002935D02*
X002571Y002935D01*
X002610Y002895D01*
X002253Y002731D02*
X002237Y002731D01*
X002253Y002652D02*
X002170Y002652D01*
X002610Y003565D02*
X002610Y003990D01*
X002620Y004000D01*
X003806Y004772D02*
X003895Y004772D01*
X004160Y004820D02*
X004160Y004865D01*
X004405Y005321D02*
X004415Y005321D01*
X004493Y005400D02*
X004327Y005400D01*
X004827Y005400D02*
X004993Y005400D01*
X004915Y005321D02*
X004905Y005321D01*
X005072Y005714D02*
X001130Y005714D01*
X001130Y005792D02*
X004993Y005792D01*
X004915Y005871D02*
X001130Y005871D01*
X001130Y005949D02*
X004836Y005949D01*
X004758Y006028D02*
X001130Y006028D01*
X001130Y006106D02*
X002469Y006106D01*
X002391Y006185D02*
X001130Y006185D01*
X001130Y006263D02*
X002312Y006263D01*
X002234Y006342D02*
X001130Y006342D01*
X001130Y006420D02*
X002155Y006420D01*
X002077Y006499D02*
X001130Y006499D01*
X001130Y006577D02*
X001998Y006577D01*
X001920Y006656D02*
X001853Y006656D01*
X001527Y006656D02*
X001130Y006656D01*
X001130Y006734D02*
X001375Y006734D01*
X001296Y006813D02*
X001130Y006813D01*
X001130Y006891D02*
X001241Y006891D01*
X001209Y006970D02*
X001130Y006970D01*
X001130Y007048D02*
X001180Y007048D01*
X002150Y007362D02*
X002230Y007362D01*
X002197Y007284D02*
X002183Y007284D01*
X002111Y007441D02*
X002269Y007441D01*
X002348Y007519D02*
X002032Y007519D01*
X001918Y007598D02*
X002462Y007598D01*
X002918Y007598D02*
X003462Y007598D01*
X003348Y007519D02*
X003032Y007519D01*
X003111Y007441D02*
X003269Y007441D01*
X003230Y007362D02*
X003150Y007362D01*
X003183Y007284D02*
X003197Y007284D01*
X003918Y007598D02*
X004462Y007598D01*
X004348Y007519D02*
X004032Y007519D01*
X004111Y007441D02*
X004269Y007441D01*
X004230Y007362D02*
X004150Y007362D01*
X004183Y007284D02*
X004197Y007284D01*
X004918Y007598D02*
X005462Y007598D01*
X005348Y007519D02*
X005032Y007519D01*
X005111Y007441D02*
X005269Y007441D01*
X005230Y007362D02*
X005150Y007362D01*
X005183Y007284D02*
X005197Y007284D01*
X005918Y007598D02*
X006462Y007598D01*
X006348Y007519D02*
X006032Y007519D01*
X006111Y007441D02*
X006269Y007441D01*
X006230Y007362D02*
X006150Y007362D01*
X006183Y007284D02*
X006197Y007284D01*
X006918Y007598D02*
X007462Y007598D01*
X007348Y007519D02*
X007032Y007519D01*
X007111Y007441D02*
X007269Y007441D01*
X007230Y007362D02*
X007150Y007362D01*
X007183Y007284D02*
X007197Y007284D01*
X007918Y007598D02*
X008462Y007598D01*
X008348Y007519D02*
X008032Y007519D01*
X008111Y007441D02*
X008269Y007441D01*
X008230Y007362D02*
X008150Y007362D01*
X008183Y007284D02*
X008197Y007284D01*
X008690Y007140D02*
X008706Y007074D01*
X008706Y005229D01*
X009476Y005556D02*
X009476Y005769D01*
X009491Y005754D01*
X009510Y005754D01*
X009510Y005556D01*
X009476Y005556D01*
X009476Y005557D02*
X009510Y005557D01*
X009510Y005635D02*
X009476Y005635D01*
X009476Y005714D02*
X009510Y005714D01*
X008886Y006633D02*
X008886Y006669D01*
X008954Y006697D01*
X008886Y006633D01*
X008886Y006656D02*
X008909Y006656D01*
X009125Y006857D02*
X009190Y007014D01*
X009219Y006945D01*
X009125Y006857D01*
X009139Y006891D02*
X009161Y006891D01*
X009171Y006970D02*
X009209Y006970D01*
X009197Y007284D02*
X009183Y007284D01*
X009150Y007362D02*
X009230Y007362D01*
X009269Y007441D02*
X009111Y007441D01*
X009032Y007519D02*
X009348Y007519D01*
X009462Y007598D02*
X008918Y007598D01*
X011091Y006820D02*
X011122Y006851D01*
X011190Y007014D01*
X011225Y006930D01*
X011115Y006820D01*
X011091Y006820D01*
X011139Y006891D02*
X011186Y006891D01*
X011171Y006970D02*
X011209Y006970D01*
X015570Y005730D02*
X015750Y005910D01*
X016499Y005910D01*
X016689Y006100D01*
X017430Y006100D01*
X017514Y005871D02*
X017009Y005871D01*
X017076Y005792D02*
X017396Y005792D01*
X017404Y005805D02*
X017404Y005805D01*
X017351Y005714D02*
X017083Y005714D01*
X017083Y005635D02*
X017306Y005635D01*
X016771Y005635D02*
X016691Y005635D01*
X016691Y005714D02*
X016771Y005714D01*
X016771Y005792D02*
X016691Y005792D01*
X016714Y005871D02*
X016771Y005871D01*
X016049Y005540D02*
X016040Y005540D01*
X014958Y005007D02*
X013312Y005007D01*
X013233Y004929D02*
X014880Y004929D01*
X014604Y004850D02*
X014576Y004850D01*
X014576Y004772D02*
X014604Y004772D01*
X014604Y004693D02*
X014576Y004693D01*
X014576Y004615D02*
X014604Y004615D01*
X015212Y004536D02*
X015435Y004536D01*
X015435Y004551D02*
X015435Y004297D01*
X015445Y004262D01*
X015463Y004230D01*
X015489Y004204D01*
X015521Y004185D01*
X015557Y004176D01*
X015850Y004176D01*
X015850Y004551D01*
X015435Y004551D01*
X015435Y004458D02*
X015212Y004458D01*
X015212Y004379D02*
X015435Y004379D01*
X015435Y004301D02*
X015212Y004301D01*
X015177Y004222D02*
X015471Y004222D01*
X015154Y004144D02*
X016423Y004144D01*
X016423Y004065D02*
X015144Y004065D01*
X015065Y003987D02*
X016423Y003987D01*
X016423Y003908D02*
X013978Y003908D01*
X013631Y003676D02*
X013785Y003528D01*
X014216Y003528D01*
X013968Y003280D02*
X013260Y003280D01*
X013260Y003359D02*
X013331Y003359D01*
X013285Y003437D02*
X013005Y003437D01*
X012935Y003437D02*
X012283Y003437D01*
X012205Y003516D02*
X012680Y003516D01*
X012680Y003494D02*
X012935Y003494D01*
X012935Y003800D01*
X012802Y003800D01*
X012766Y003790D01*
X012734Y003772D01*
X012708Y003746D01*
X012690Y003714D01*
X012680Y003678D01*
X012680Y003494D01*
X012680Y003594D02*
X012126Y003594D01*
X012146Y003673D02*
X012080Y003673D01*
X012080Y003751D02*
X012146Y003751D01*
X012146Y003830D02*
X012080Y003830D01*
X012434Y003751D02*
X012713Y003751D01*
X012680Y003673D02*
X012388Y003673D01*
X012935Y003673D02*
X013005Y003673D01*
X013005Y003751D02*
X012935Y003751D01*
X013227Y003751D02*
X013285Y003751D01*
X013285Y003673D02*
X013260Y003673D01*
X013260Y003594D02*
X013285Y003594D01*
X013285Y003516D02*
X013260Y003516D01*
X013005Y003516D02*
X012935Y003516D01*
X012935Y003594D02*
X013005Y003594D01*
X012680Y003359D02*
X012362Y003359D01*
X012440Y003280D02*
X012680Y003280D01*
X012692Y003202D02*
X012519Y003202D01*
X012597Y003123D02*
X012684Y003123D01*
X012676Y003045D02*
X012680Y003045D01*
X013260Y002966D02*
X014626Y002966D01*
X014000Y003202D02*
X013248Y003202D01*
X014964Y003528D02*
X015203Y003489D01*
X015149Y003489D01*
X015203Y003489D02*
X015890Y003489D01*
X016345Y003516D02*
X016423Y003516D01*
X016423Y003594D02*
X016345Y003594D01*
X016345Y003673D02*
X016431Y003673D01*
X016472Y003751D02*
X016345Y003751D01*
X016338Y003830D02*
X016423Y003830D01*
X017230Y003720D02*
X017230Y002542D01*
X017190Y002502D01*
X015070Y002502D01*
X015071Y002501D01*
X015071Y002180D01*
X014730Y002181D02*
X014564Y002181D01*
X014642Y002103D02*
X014730Y002103D01*
X014721Y002024D02*
X014730Y002024D01*
X014730Y002015D02*
X014730Y002322D01*
X014422Y002322D01*
X014730Y002015D01*
X014854Y001890D02*
X015330Y001890D01*
X015370Y001931D01*
X015382Y001918D01*
X015414Y001900D01*
X015450Y001890D01*
X015634Y001890D01*
X015634Y002145D01*
X015704Y002145D01*
X015704Y001890D01*
X015888Y001890D01*
X015924Y001900D01*
X015956Y001918D01*
X015982Y001944D01*
X016000Y001976D01*
X016010Y002012D01*
X016010Y002145D01*
X015704Y002145D01*
X015704Y002215D01*
X016010Y002215D01*
X016010Y002322D01*
X017265Y002322D01*
X017350Y002408D01*
X017357Y002397D01*
X017367Y002374D01*
X017368Y002373D01*
X017368Y002372D01*
X017374Y002367D01*
X017404Y002315D01*
X017481Y002271D01*
X017498Y002255D01*
X017499Y002255D01*
X017499Y002254D01*
X017522Y002247D01*
X017599Y002203D01*
X017658Y002203D01*
X017666Y002200D01*
X017671Y002203D01*
X017730Y002203D01*
X017755Y002200D01*
X017758Y002203D01*
X018019Y002203D01*
X018022Y002200D01*
X018047Y002203D01*
X018106Y002203D01*
X018111Y002200D01*
X018118Y002203D01*
X018178Y002203D01*
X018255Y002247D01*
X018277Y002254D01*
X018278Y002255D01*
X018279Y002255D01*
X018296Y002271D01*
X018373Y002315D01*
X018373Y002315D01*
X018403Y002367D01*
X018409Y002372D01*
X018409Y002373D01*
X018410Y002374D01*
X018420Y002397D01*
X018439Y002429D01*
X018454Y002449D01*
X018454Y002450D01*
X018454Y002451D01*
X018456Y002459D01*
X018486Y002510D01*
X018486Y002599D01*
X018491Y002622D01*
X018490Y002623D01*
X018491Y002624D01*
X018486Y002647D01*
X018486Y002670D01*
X019328Y001827D01*
X019287Y001786D01*
X019287Y001770D01*
X019205Y001770D01*
X019140Y001835D01*
X019035Y001940D01*
X016605Y001940D01*
X016600Y001945D01*
X016600Y002002D01*
X016560Y002097D01*
X016487Y002170D01*
X016392Y002210D01*
X016288Y002210D01*
X016193Y002170D01*
X016120Y002097D01*
X016080Y002002D01*
X016080Y001898D01*
X016120Y001803D01*
X016193Y001730D01*
X016288Y001690D01*
X016345Y001690D01*
X016447Y001589D01*
X016423Y001576D01*
X016358Y001529D01*
X016301Y001472D01*
X016254Y001407D01*
X016217Y001336D01*
X016193Y001259D01*
X016122Y001429D01*
X015979Y001572D01*
X015791Y001650D01*
X015589Y001650D01*
X015401Y001572D01*
X015258Y001429D01*
X015190Y001266D01*
X015122Y001429D01*
X014979Y001572D01*
X014870Y001617D01*
X014870Y001875D01*
X014854Y001890D01*
X014870Y001867D02*
X016093Y001867D01*
X016080Y001946D02*
X015983Y001946D01*
X016010Y002024D02*
X016089Y002024D01*
X016125Y002103D02*
X016010Y002103D01*
X016010Y002260D02*
X017493Y002260D01*
X017404Y002315D02*
X017404Y002315D01*
X017404Y002315D01*
X017390Y002338D02*
X017280Y002338D01*
X016591Y002024D02*
X019131Y002024D01*
X019053Y002103D02*
X016555Y002103D01*
X016462Y002181D02*
X018974Y002181D01*
X018896Y002260D02*
X018284Y002260D01*
X018386Y002338D02*
X018817Y002338D01*
X018739Y002417D02*
X018432Y002417D01*
X018477Y002495D02*
X018660Y002495D01*
X018582Y002574D02*
X018486Y002574D01*
X018486Y002652D02*
X018503Y002652D01*
X018856Y002809D02*
X019419Y002809D01*
X019378Y002731D02*
X018934Y002731D01*
X019013Y002652D02*
X019378Y002652D01*
X019378Y002574D02*
X019091Y002574D01*
X019170Y002495D02*
X019386Y002495D01*
X019432Y002417D02*
X019248Y002417D01*
X019327Y002338D02*
X019477Y002338D01*
X019490Y002315D02*
X019490Y002315D01*
X019490Y002315D01*
X019405Y002260D02*
X019580Y002260D01*
X019484Y002181D02*
X020500Y002181D01*
X020500Y002103D02*
X020182Y002103D01*
X020261Y002024D02*
X020500Y002024D01*
X020500Y001946D02*
X020339Y001946D01*
X020450Y001867D02*
X020500Y001867D01*
X019917Y001710D02*
X019902Y001710D01*
X019902Y001632D02*
X019917Y001632D01*
X019917Y001553D02*
X019902Y001553D01*
X019902Y001475D02*
X019917Y001475D01*
X019917Y001396D02*
X019902Y001396D01*
X019825Y001318D02*
X019994Y001318D01*
X019595Y001589D02*
X019594Y001590D01*
X019130Y001590D01*
X019130Y001580D01*
X018690Y001140D01*
X018212Y001318D02*
X018168Y001318D01*
X018190Y001266D02*
X018122Y001429D01*
X017979Y001572D01*
X017960Y001580D01*
X018420Y001580D01*
X018401Y001572D01*
X018258Y001429D01*
X018190Y001266D01*
X018136Y001396D02*
X018244Y001396D01*
X018303Y001475D02*
X018077Y001475D01*
X017998Y001553D02*
X018382Y001553D01*
X018960Y001760D02*
X019130Y001590D01*
X019201Y001396D02*
X019287Y001396D01*
X019364Y001318D02*
X019168Y001318D01*
X018960Y001760D02*
X016530Y001760D01*
X016340Y001950D01*
X016600Y001946D02*
X019210Y001946D01*
X019288Y001867D02*
X019108Y001867D01*
X019186Y001789D02*
X019290Y001789D01*
X020365Y002255D02*
X020365Y002255D01*
X020370Y002260D02*
X020500Y002260D01*
X020500Y002338D02*
X020473Y002338D01*
X020485Y002888D02*
X020500Y002888D01*
X020460Y002931D02*
X020460Y002931D01*
X020460Y002931D01*
X020500Y002966D02*
X020399Y002966D01*
X019551Y002966D02*
X018699Y002966D01*
X018777Y002888D02*
X019465Y002888D01*
X018360Y003304D02*
X018324Y003341D01*
X018324Y003561D01*
X018416Y003560D01*
X018407Y003551D01*
X018359Y003434D01*
X018359Y003308D01*
X018360Y003304D01*
X018359Y003359D02*
X018324Y003359D01*
X018324Y003437D02*
X018360Y003437D01*
X018392Y003516D02*
X018324Y003516D01*
X018445Y003740D02*
X017790Y003745D01*
X017255Y003745D01*
X017230Y003720D01*
X016423Y003437D02*
X016345Y003437D01*
X016345Y003359D02*
X016423Y003359D01*
X016439Y003280D02*
X016345Y003280D01*
X016345Y003202D02*
X016654Y003202D01*
X017410Y002966D02*
X017465Y002966D01*
X016218Y002181D02*
X015704Y002181D01*
X015704Y002103D02*
X015634Y002103D01*
X015634Y002024D02*
X015704Y002024D01*
X015704Y001946D02*
X015634Y001946D01*
X016134Y001789D02*
X014870Y001789D01*
X014870Y001710D02*
X016240Y001710D01*
X016404Y001632D02*
X015836Y001632D01*
X015998Y001553D02*
X016391Y001553D01*
X016303Y001475D02*
X016077Y001475D01*
X016136Y001396D02*
X016248Y001396D01*
X016211Y001318D02*
X016168Y001318D01*
X016193Y001259D02*
X016193Y001259D01*
X016650Y001082D02*
X016730Y001082D01*
X016730Y001004D02*
X016650Y001004D01*
X016650Y000925D02*
X016730Y000925D01*
X016730Y000847D02*
X016650Y000847D01*
X016650Y000768D02*
X016730Y000768D01*
X016730Y000690D02*
X016650Y000690D01*
X016650Y000630D02*
X016650Y000630D01*
X016451Y000690D02*
X015935Y000690D01*
X016039Y000768D02*
X016341Y000768D01*
X016273Y000847D02*
X016118Y000847D01*
X016153Y000925D02*
X016227Y000925D01*
X016198Y001004D02*
X016185Y001004D01*
X015445Y000690D02*
X014935Y000690D01*
X015039Y000768D02*
X015341Y000768D01*
X015262Y000847D02*
X015118Y000847D01*
X015153Y000925D02*
X015227Y000925D01*
X015195Y001004D02*
X015185Y001004D01*
X015168Y001318D02*
X015212Y001318D01*
X015244Y001396D02*
X015136Y001396D01*
X015077Y001475D02*
X015303Y001475D01*
X015382Y001553D02*
X014998Y001553D01*
X014870Y001632D02*
X015544Y001632D01*
X016950Y001580D02*
X017420Y001580D01*
X017401Y001572D01*
X017258Y001429D01*
X017187Y001259D01*
X017187Y001259D01*
X017163Y001336D01*
X017126Y001407D01*
X017079Y001472D01*
X017022Y001529D01*
X016957Y001576D01*
X016950Y001580D01*
X016989Y001553D02*
X017382Y001553D01*
X017303Y001475D02*
X017077Y001475D01*
X017132Y001396D02*
X017244Y001396D01*
X017212Y001318D02*
X017169Y001318D01*
X017187Y001021D02*
X017187Y001021D01*
X017182Y001004D02*
X017195Y001004D01*
X017227Y000925D02*
X017153Y000925D01*
X017107Y000847D02*
X017262Y000847D01*
X017341Y000768D02*
X017039Y000768D01*
X016929Y000690D02*
X017445Y000690D01*
X017935Y000690D02*
X018445Y000690D01*
X018341Y000768D02*
X018039Y000768D01*
X018118Y000847D02*
X018262Y000847D01*
X018227Y000925D02*
X018153Y000925D01*
X018185Y001004D02*
X018195Y001004D01*
X014730Y002260D02*
X014485Y002260D01*
X015070Y002502D02*
X012658Y002502D01*
X009922Y003280D02*
X009795Y003280D01*
X008351Y003693D02*
X007387Y003693D01*
X006510Y004570D01*
X006510Y005630D01*
X003145Y006430D02*
X002655Y006430D01*
X002155Y006930D01*
X002190Y007014D01*
X002258Y006851D01*
X002401Y006708D01*
X002589Y006630D01*
X002791Y006630D01*
X002900Y006675D01*
X003145Y006430D01*
X003077Y006499D02*
X002586Y006499D01*
X002508Y006577D02*
X002998Y006577D01*
X002920Y006656D02*
X002853Y006656D01*
X002527Y006656D02*
X002429Y006656D01*
X002375Y006734D02*
X002351Y006734D01*
X002296Y006813D02*
X002272Y006813D01*
X002241Y006891D02*
X002194Y006891D01*
X002209Y006970D02*
X002171Y006970D01*
X005425Y003751D02*
X007074Y003751D01*
X007153Y003673D02*
X005425Y003673D01*
X005425Y003594D02*
X007231Y003594D01*
X007310Y003516D02*
X006558Y003516D01*
X012718Y004379D02*
X012855Y004379D01*
X012797Y004458D02*
X012776Y004458D01*
X012786Y004654D02*
X012762Y004713D01*
X012853Y004804D01*
X012853Y004757D01*
X012812Y004716D01*
X012786Y004654D01*
X012771Y004693D02*
X012802Y004693D01*
X012820Y004772D02*
X012853Y004772D01*
X013263Y004693D02*
X013358Y004693D01*
X015205Y003830D02*
X015442Y003830D01*
X015435Y003751D02*
X015212Y003751D01*
X015212Y003673D02*
X015435Y003673D01*
X015850Y004222D02*
X015930Y004222D01*
X015930Y004301D02*
X015850Y004301D01*
X015850Y004379D02*
X015930Y004379D01*
X015930Y004458D02*
X015850Y004458D01*
X015850Y004536D02*
X015930Y004536D01*
X016740Y004503D02*
X016894Y004564D01*
X020280Y005086D02*
X020500Y005086D01*
X020500Y005164D02*
X020416Y005164D01*
X020365Y005129D02*
X020365Y005129D01*
X020491Y005243D02*
X020500Y005243D01*
D31*
X017947Y005280D02*
X017930Y005263D01*
X017930Y005080D01*
X017910Y005060D01*
X017270Y005060D01*
X017060Y004850D01*
X017060Y004730D01*
X016894Y004564D01*
X016740Y004503D02*
X016740Y003996D01*
X015890Y003489D02*
X015890Y003070D01*
X015950Y003010D01*
X016830Y003010D01*
X014964Y004154D02*
X014910Y004100D01*
X014270Y004100D01*
X014210Y004160D01*
X014210Y004546D01*
X014216Y004552D01*
X014964Y004552D02*
X014964Y004744D01*
X015410Y005190D01*
X015760Y005540D01*
X016049Y005540D01*
X014964Y004552D02*
X014964Y004154D01*
M02*
