G75*
G70*
%OFA0B0*%
%FSLAX24Y24*%
%IPPOS*%
%LPD*%
%AMOC8*
5,1,8,0,0,1.08239X$1,22.5*
%
%ADD10R,0.0433X0.0394*%
%ADD11R,0.0630X0.0551*%
%ADD12R,0.0354X0.0276*%
%ADD13R,0.0335X0.0276*%
%ADD14R,0.0217X0.0472*%
%ADD15R,0.0394X0.0433*%
%ADD16R,0.0740X0.0740*%
%ADD17C,0.0740*%
%ADD18R,0.0315X0.0315*%
%ADD19C,0.0053*%
%ADD20C,0.0055*%
%ADD21R,0.0276X0.0354*%
%ADD22R,0.0787X0.0197*%
%ADD23C,0.0120*%
%ADD24C,0.0098*%
%ADD25R,0.0402X0.0299*%
%ADD26R,0.0299X0.0402*%
%ADD27C,0.0125*%
%ADD28C,0.0240*%
%ADD29C,0.0080*%
D10*
X016095Y005540D03*
X016765Y005540D03*
D11*
X016190Y004591D03*
X016190Y003489D03*
D12*
X012113Y003905D03*
X012113Y004417D03*
X006250Y003326D03*
X006250Y002814D03*
D13*
X019594Y001590D03*
X020224Y001590D03*
D14*
X015164Y003528D03*
X014416Y003528D03*
X014416Y004552D03*
X014790Y004552D03*
X015164Y004552D03*
D15*
X013631Y004351D03*
X013631Y003682D03*
X002610Y003565D03*
X002610Y002895D03*
X002640Y004655D03*
X002640Y005325D03*
D16*
X001690Y007140D03*
X001690Y001140D03*
D17*
X002690Y001140D03*
X003690Y001140D03*
X004690Y001140D03*
X005690Y001140D03*
X006690Y001140D03*
X007690Y001140D03*
X008690Y001140D03*
X009690Y001140D03*
X010690Y001140D03*
X011690Y001140D03*
X012690Y001140D03*
X013690Y001140D03*
X014690Y001140D03*
X015690Y001140D03*
X016690Y001140D03*
X017690Y001140D03*
X018690Y001140D03*
X018690Y007140D03*
X019690Y007140D03*
X020690Y007140D03*
X017690Y007140D03*
X016690Y007140D03*
X015690Y007140D03*
X014690Y007140D03*
X013690Y007140D03*
X012690Y007140D03*
X011690Y007140D03*
X010690Y007140D03*
X009690Y007140D03*
X008690Y007140D03*
X007690Y007140D03*
X006690Y007140D03*
X005690Y007140D03*
X004690Y007140D03*
X003690Y007140D03*
X002690Y007140D03*
D18*
X001940Y005285D03*
X001940Y004695D03*
X001940Y003525D03*
X001940Y002935D03*
D19*
X008240Y002879D02*
X008502Y002879D01*
X008240Y002879D02*
X008240Y002933D01*
X008502Y002933D01*
X008502Y002879D01*
X008502Y002931D02*
X008240Y002931D01*
X008240Y003076D02*
X008502Y003076D01*
X008240Y003076D02*
X008240Y003130D01*
X008502Y003130D01*
X008502Y003076D01*
X008502Y003128D02*
X008240Y003128D01*
X008240Y003272D02*
X008502Y003272D01*
X008240Y003272D02*
X008240Y003326D01*
X008502Y003326D01*
X008502Y003272D01*
X008502Y003324D02*
X008240Y003324D01*
X008240Y003469D02*
X008502Y003469D01*
X008240Y003469D02*
X008240Y003523D01*
X008502Y003523D01*
X008502Y003469D01*
X008502Y003521D02*
X008240Y003521D01*
X008240Y003666D02*
X008502Y003666D01*
X008240Y003666D02*
X008240Y003720D01*
X008502Y003720D01*
X008502Y003666D01*
X008502Y003718D02*
X008240Y003718D01*
X008240Y003863D02*
X008502Y003863D01*
X008240Y003863D02*
X008240Y003917D01*
X008502Y003917D01*
X008502Y003863D01*
X008502Y003915D02*
X008240Y003915D01*
X008240Y004060D02*
X008502Y004060D01*
X008240Y004060D02*
X008240Y004114D01*
X008502Y004114D01*
X008502Y004060D01*
X008502Y004112D02*
X008240Y004112D01*
X008240Y004257D02*
X008502Y004257D01*
X008240Y004257D02*
X008240Y004311D01*
X008502Y004311D01*
X008502Y004257D01*
X008502Y004309D02*
X008240Y004309D01*
X008240Y004454D02*
X008502Y004454D01*
X008240Y004454D02*
X008240Y004508D01*
X008502Y004508D01*
X008502Y004454D01*
X008502Y004506D02*
X008240Y004506D01*
X008240Y004650D02*
X008502Y004650D01*
X008240Y004650D02*
X008240Y004704D01*
X008502Y004704D01*
X008502Y004650D01*
X008502Y004702D02*
X008240Y004702D01*
X008240Y004847D02*
X008502Y004847D01*
X008240Y004847D02*
X008240Y004901D01*
X008502Y004901D01*
X008502Y004847D01*
X008502Y004899D02*
X008240Y004899D01*
X010878Y004847D02*
X011140Y004847D01*
X010878Y004847D02*
X010878Y004901D01*
X011140Y004901D01*
X011140Y004847D01*
X011140Y004899D02*
X010878Y004899D01*
X010878Y004650D02*
X011140Y004650D01*
X010878Y004650D02*
X010878Y004704D01*
X011140Y004704D01*
X011140Y004650D01*
X011140Y004702D02*
X010878Y004702D01*
X010878Y004454D02*
X011140Y004454D01*
X010878Y004454D02*
X010878Y004508D01*
X011140Y004508D01*
X011140Y004454D01*
X011140Y004506D02*
X010878Y004506D01*
X010878Y004257D02*
X011140Y004257D01*
X010878Y004257D02*
X010878Y004311D01*
X011140Y004311D01*
X011140Y004257D01*
X011140Y004309D02*
X010878Y004309D01*
X010878Y004060D02*
X011140Y004060D01*
X010878Y004060D02*
X010878Y004114D01*
X011140Y004114D01*
X011140Y004060D01*
X011140Y004112D02*
X010878Y004112D01*
X010878Y003863D02*
X011140Y003863D01*
X010878Y003863D02*
X010878Y003917D01*
X011140Y003917D01*
X011140Y003863D01*
X011140Y003915D02*
X010878Y003915D01*
X010878Y003666D02*
X011140Y003666D01*
X010878Y003666D02*
X010878Y003720D01*
X011140Y003720D01*
X011140Y003666D01*
X011140Y003718D02*
X010878Y003718D01*
X010878Y003469D02*
X011140Y003469D01*
X010878Y003469D02*
X010878Y003523D01*
X011140Y003523D01*
X011140Y003469D01*
X011140Y003521D02*
X010878Y003521D01*
X010878Y003272D02*
X011140Y003272D01*
X010878Y003272D02*
X010878Y003326D01*
X011140Y003326D01*
X011140Y003272D01*
X011140Y003324D02*
X010878Y003324D01*
X010878Y003076D02*
X011140Y003076D01*
X010878Y003076D02*
X010878Y003130D01*
X011140Y003130D01*
X011140Y003076D01*
X011140Y003128D02*
X010878Y003128D01*
X010878Y002879D02*
X011140Y002879D01*
X010878Y002879D02*
X010878Y002933D01*
X011140Y002933D01*
X011140Y002879D01*
X011140Y002931D02*
X010878Y002931D01*
D20*
X010702Y002441D02*
X010646Y002441D01*
X010646Y002701D01*
X010702Y002701D01*
X010702Y002441D01*
X010702Y002495D02*
X010646Y002495D01*
X010646Y002549D02*
X010702Y002549D01*
X010702Y002603D02*
X010646Y002603D01*
X010646Y002657D02*
X010702Y002657D01*
X010505Y002441D02*
X010449Y002441D01*
X010449Y002701D01*
X010505Y002701D01*
X010505Y002441D01*
X010505Y002495D02*
X010449Y002495D01*
X010449Y002549D02*
X010505Y002549D01*
X010505Y002603D02*
X010449Y002603D01*
X010449Y002657D02*
X010505Y002657D01*
X010309Y002441D02*
X010253Y002441D01*
X010253Y002701D01*
X010309Y002701D01*
X010309Y002441D01*
X010309Y002495D02*
X010253Y002495D01*
X010253Y002549D02*
X010309Y002549D01*
X010309Y002603D02*
X010253Y002603D01*
X010253Y002657D02*
X010309Y002657D01*
X010112Y002441D02*
X010056Y002441D01*
X010056Y002701D01*
X010112Y002701D01*
X010112Y002441D01*
X010112Y002495D02*
X010056Y002495D01*
X010056Y002549D02*
X010112Y002549D01*
X010112Y002603D02*
X010056Y002603D01*
X010056Y002657D02*
X010112Y002657D01*
X009915Y002441D02*
X009859Y002441D01*
X009859Y002701D01*
X009915Y002701D01*
X009915Y002441D01*
X009915Y002495D02*
X009859Y002495D01*
X009859Y002549D02*
X009915Y002549D01*
X009915Y002603D02*
X009859Y002603D01*
X009859Y002657D02*
X009915Y002657D01*
X009718Y002441D02*
X009662Y002441D01*
X009662Y002701D01*
X009718Y002701D01*
X009718Y002441D01*
X009718Y002495D02*
X009662Y002495D01*
X009662Y002549D02*
X009718Y002549D01*
X009718Y002603D02*
X009662Y002603D01*
X009662Y002657D02*
X009718Y002657D01*
X009521Y002441D02*
X009465Y002441D01*
X009465Y002701D01*
X009521Y002701D01*
X009521Y002441D01*
X009521Y002495D02*
X009465Y002495D01*
X009465Y002549D02*
X009521Y002549D01*
X009521Y002603D02*
X009465Y002603D01*
X009465Y002657D02*
X009521Y002657D01*
X009324Y002441D02*
X009268Y002441D01*
X009268Y002701D01*
X009324Y002701D01*
X009324Y002441D01*
X009324Y002495D02*
X009268Y002495D01*
X009268Y002549D02*
X009324Y002549D01*
X009324Y002603D02*
X009268Y002603D01*
X009268Y002657D02*
X009324Y002657D01*
X009127Y002441D02*
X009071Y002441D01*
X009071Y002701D01*
X009127Y002701D01*
X009127Y002441D01*
X009127Y002495D02*
X009071Y002495D01*
X009071Y002549D02*
X009127Y002549D01*
X009127Y002603D02*
X009071Y002603D01*
X009071Y002657D02*
X009127Y002657D01*
X008931Y002441D02*
X008875Y002441D01*
X008875Y002701D01*
X008931Y002701D01*
X008931Y002441D01*
X008931Y002495D02*
X008875Y002495D01*
X008875Y002549D02*
X008931Y002549D01*
X008931Y002603D02*
X008875Y002603D01*
X008875Y002657D02*
X008931Y002657D01*
X008734Y002441D02*
X008678Y002441D01*
X008678Y002701D01*
X008734Y002701D01*
X008734Y002441D01*
X008734Y002495D02*
X008678Y002495D01*
X008678Y002549D02*
X008734Y002549D01*
X008734Y002603D02*
X008678Y002603D01*
X008678Y002657D02*
X008734Y002657D01*
X008734Y005079D02*
X008678Y005079D01*
X008678Y005339D01*
X008734Y005339D01*
X008734Y005079D01*
X008734Y005133D02*
X008678Y005133D01*
X008678Y005187D02*
X008734Y005187D01*
X008734Y005241D02*
X008678Y005241D01*
X008678Y005295D02*
X008734Y005295D01*
X008875Y005079D02*
X008931Y005079D01*
X008875Y005079D02*
X008875Y005339D01*
X008931Y005339D01*
X008931Y005079D01*
X008931Y005133D02*
X008875Y005133D01*
X008875Y005187D02*
X008931Y005187D01*
X008931Y005241D02*
X008875Y005241D01*
X008875Y005295D02*
X008931Y005295D01*
X009071Y005079D02*
X009127Y005079D01*
X009071Y005079D02*
X009071Y005339D01*
X009127Y005339D01*
X009127Y005079D01*
X009127Y005133D02*
X009071Y005133D01*
X009071Y005187D02*
X009127Y005187D01*
X009127Y005241D02*
X009071Y005241D01*
X009071Y005295D02*
X009127Y005295D01*
X009268Y005079D02*
X009324Y005079D01*
X009268Y005079D02*
X009268Y005339D01*
X009324Y005339D01*
X009324Y005079D01*
X009324Y005133D02*
X009268Y005133D01*
X009268Y005187D02*
X009324Y005187D01*
X009324Y005241D02*
X009268Y005241D01*
X009268Y005295D02*
X009324Y005295D01*
X009465Y005079D02*
X009521Y005079D01*
X009465Y005079D02*
X009465Y005339D01*
X009521Y005339D01*
X009521Y005079D01*
X009521Y005133D02*
X009465Y005133D01*
X009465Y005187D02*
X009521Y005187D01*
X009521Y005241D02*
X009465Y005241D01*
X009465Y005295D02*
X009521Y005295D01*
X009662Y005079D02*
X009718Y005079D01*
X009662Y005079D02*
X009662Y005339D01*
X009718Y005339D01*
X009718Y005079D01*
X009718Y005133D02*
X009662Y005133D01*
X009662Y005187D02*
X009718Y005187D01*
X009718Y005241D02*
X009662Y005241D01*
X009662Y005295D02*
X009718Y005295D01*
X009859Y005079D02*
X009915Y005079D01*
X009859Y005079D02*
X009859Y005339D01*
X009915Y005339D01*
X009915Y005079D01*
X009915Y005133D02*
X009859Y005133D01*
X009859Y005187D02*
X009915Y005187D01*
X009915Y005241D02*
X009859Y005241D01*
X009859Y005295D02*
X009915Y005295D01*
X010056Y005079D02*
X010112Y005079D01*
X010056Y005079D02*
X010056Y005339D01*
X010112Y005339D01*
X010112Y005079D01*
X010112Y005133D02*
X010056Y005133D01*
X010056Y005187D02*
X010112Y005187D01*
X010112Y005241D02*
X010056Y005241D01*
X010056Y005295D02*
X010112Y005295D01*
X010253Y005079D02*
X010309Y005079D01*
X010253Y005079D02*
X010253Y005339D01*
X010309Y005339D01*
X010309Y005079D01*
X010309Y005133D02*
X010253Y005133D01*
X010253Y005187D02*
X010309Y005187D01*
X010309Y005241D02*
X010253Y005241D01*
X010253Y005295D02*
X010309Y005295D01*
X010449Y005079D02*
X010505Y005079D01*
X010449Y005079D02*
X010449Y005339D01*
X010505Y005339D01*
X010505Y005079D01*
X010505Y005133D02*
X010449Y005133D01*
X010449Y005187D02*
X010505Y005187D01*
X010505Y005241D02*
X010449Y005241D01*
X010449Y005295D02*
X010505Y005295D01*
X010646Y005079D02*
X010702Y005079D01*
X010646Y005079D02*
X010646Y005339D01*
X010702Y005339D01*
X010702Y005079D01*
X010702Y005133D02*
X010646Y005133D01*
X010646Y005187D02*
X010702Y005187D01*
X010702Y005241D02*
X010646Y005241D01*
X010646Y005295D02*
X010702Y005295D01*
D21*
X010187Y006077D03*
X009676Y006077D03*
X017034Y004940D03*
X017546Y004940D03*
X017546Y004370D03*
X017034Y004370D03*
X011826Y001920D03*
X011314Y001920D03*
D22*
X018450Y003430D03*
X018450Y003745D03*
X018450Y004060D03*
X018450Y004375D03*
X018450Y004690D03*
D23*
X018371Y005277D02*
X018726Y005277D01*
X018755Y005279D01*
X018783Y005284D01*
X018810Y005294D01*
X018836Y005306D01*
X018860Y005322D01*
X018882Y005341D01*
X018901Y005363D01*
X018917Y005387D01*
X018929Y005413D01*
X018939Y005440D01*
X018944Y005468D01*
X018946Y005497D01*
X018944Y005526D01*
X018939Y005554D01*
X018929Y005581D01*
X018917Y005607D01*
X018901Y005631D01*
X018882Y005653D01*
X018860Y005672D01*
X018836Y005688D01*
X018810Y005700D01*
X018783Y005710D01*
X018755Y005715D01*
X018726Y005717D01*
X018371Y005717D01*
X018342Y005715D01*
X018314Y005710D01*
X018287Y005700D01*
X018261Y005688D01*
X018237Y005672D01*
X018215Y005653D01*
X018196Y005631D01*
X018180Y005607D01*
X018168Y005581D01*
X018158Y005554D01*
X018153Y005526D01*
X018151Y005497D01*
X018153Y005468D01*
X018158Y005440D01*
X018168Y005413D01*
X018180Y005387D01*
X018196Y005363D01*
X018215Y005341D01*
X018237Y005322D01*
X018261Y005306D01*
X018287Y005294D01*
X018314Y005284D01*
X018342Y005279D01*
X018371Y005277D01*
X020458Y005277D02*
X020812Y005277D01*
X020841Y005279D01*
X020869Y005284D01*
X020896Y005294D01*
X020922Y005306D01*
X020946Y005322D01*
X020968Y005341D01*
X020987Y005363D01*
X021003Y005387D01*
X021015Y005413D01*
X021025Y005440D01*
X021030Y005468D01*
X021032Y005497D01*
X021030Y005526D01*
X021025Y005554D01*
X021015Y005581D01*
X021003Y005607D01*
X020987Y005631D01*
X020968Y005653D01*
X020946Y005672D01*
X020922Y005688D01*
X020896Y005700D01*
X020869Y005710D01*
X020841Y005715D01*
X020812Y005717D01*
X020458Y005717D01*
X020429Y005715D01*
X020401Y005710D01*
X020374Y005700D01*
X020348Y005688D01*
X020324Y005672D01*
X020302Y005653D01*
X020283Y005631D01*
X020267Y005607D01*
X020255Y005581D01*
X020245Y005554D01*
X020240Y005526D01*
X020238Y005497D01*
X020240Y005468D01*
X020245Y005440D01*
X020255Y005413D01*
X020267Y005387D01*
X020283Y005363D01*
X020302Y005341D01*
X020324Y005322D01*
X020348Y005306D01*
X020374Y005294D01*
X020401Y005284D01*
X020429Y005279D01*
X020458Y005277D01*
X020458Y002843D02*
X020812Y002843D01*
X020841Y002841D01*
X020869Y002836D01*
X020896Y002826D01*
X020922Y002814D01*
X020946Y002798D01*
X020968Y002779D01*
X020987Y002757D01*
X021003Y002733D01*
X021015Y002707D01*
X021025Y002680D01*
X021030Y002652D01*
X021032Y002623D01*
X021030Y002594D01*
X021025Y002566D01*
X021015Y002539D01*
X021003Y002513D01*
X020987Y002489D01*
X020968Y002467D01*
X020946Y002448D01*
X020922Y002432D01*
X020896Y002420D01*
X020869Y002410D01*
X020841Y002405D01*
X020812Y002403D01*
X020458Y002403D01*
X020429Y002405D01*
X020401Y002410D01*
X020374Y002420D01*
X020348Y002432D01*
X020324Y002448D01*
X020302Y002467D01*
X020283Y002489D01*
X020267Y002513D01*
X020255Y002539D01*
X020245Y002566D01*
X020240Y002594D01*
X020238Y002623D01*
X020240Y002652D01*
X020245Y002680D01*
X020255Y002707D01*
X020267Y002733D01*
X020283Y002757D01*
X020302Y002779D01*
X020324Y002798D01*
X020348Y002814D01*
X020374Y002826D01*
X020401Y002836D01*
X020429Y002841D01*
X020458Y002843D01*
X018726Y002843D02*
X018371Y002843D01*
X018342Y002841D01*
X018314Y002836D01*
X018287Y002826D01*
X018261Y002814D01*
X018237Y002798D01*
X018215Y002779D01*
X018196Y002757D01*
X018180Y002733D01*
X018168Y002707D01*
X018158Y002680D01*
X018153Y002652D01*
X018151Y002623D01*
X018153Y002594D01*
X018158Y002566D01*
X018168Y002539D01*
X018180Y002513D01*
X018196Y002489D01*
X018215Y002467D01*
X018237Y002448D01*
X018261Y002432D01*
X018287Y002420D01*
X018314Y002410D01*
X018342Y002405D01*
X018371Y002403D01*
X018726Y002403D01*
X018755Y002405D01*
X018783Y002410D01*
X018810Y002420D01*
X018836Y002432D01*
X018860Y002448D01*
X018882Y002467D01*
X018901Y002489D01*
X018917Y002513D01*
X018929Y002539D01*
X018939Y002566D01*
X018944Y002594D01*
X018946Y002623D01*
X018944Y002652D01*
X018939Y002680D01*
X018929Y002707D01*
X018917Y002733D01*
X018901Y002757D01*
X018882Y002779D01*
X018860Y002798D01*
X018836Y002814D01*
X018810Y002826D01*
X018783Y002836D01*
X018755Y002841D01*
X018726Y002843D01*
D24*
X018607Y002840D03*
X020576Y002840D03*
X020576Y005280D03*
X018607Y005280D03*
D25*
X015669Y002180D03*
X015071Y002180D03*
D26*
X012970Y002861D03*
X012970Y003459D03*
D27*
X005097Y003688D02*
X005097Y002982D01*
X005097Y003688D02*
X005223Y003688D01*
X005223Y002982D01*
X005097Y002982D01*
X005097Y003106D02*
X005223Y003106D01*
X005223Y003230D02*
X005097Y003230D01*
X005097Y003354D02*
X005223Y003354D01*
X005223Y003478D02*
X005097Y003478D01*
X005097Y003602D02*
X005223Y003602D01*
X004597Y003688D02*
X004597Y002982D01*
X004597Y003688D02*
X004723Y003688D01*
X004723Y002982D01*
X004597Y002982D01*
X004597Y003106D02*
X004723Y003106D01*
X004723Y003230D02*
X004597Y003230D01*
X004597Y003354D02*
X004723Y003354D01*
X004723Y003478D02*
X004597Y003478D01*
X004597Y003602D02*
X004723Y003602D01*
X004097Y003688D02*
X004097Y002982D01*
X004097Y003688D02*
X004223Y003688D01*
X004223Y002982D01*
X004097Y002982D01*
X004097Y003106D02*
X004223Y003106D01*
X004223Y003230D02*
X004097Y003230D01*
X004097Y003354D02*
X004223Y003354D01*
X004223Y003478D02*
X004097Y003478D01*
X004097Y003602D02*
X004223Y003602D01*
X004097Y004512D02*
X004097Y005218D01*
X004223Y005218D01*
X004223Y004512D01*
X004097Y004512D01*
X004097Y004636D02*
X004223Y004636D01*
X004223Y004760D02*
X004097Y004760D01*
X004097Y004884D02*
X004223Y004884D01*
X004223Y005008D02*
X004097Y005008D01*
X004097Y005132D02*
X004223Y005132D01*
X004597Y005218D02*
X004597Y004512D01*
X004597Y005218D02*
X004723Y005218D01*
X004723Y004512D01*
X004597Y004512D01*
X004597Y004636D02*
X004723Y004636D01*
X004723Y004760D02*
X004597Y004760D01*
X004597Y004884D02*
X004723Y004884D01*
X004723Y005008D02*
X004597Y005008D01*
X004597Y005132D02*
X004723Y005132D01*
X005097Y005218D02*
X005097Y004512D01*
X005097Y005218D02*
X005223Y005218D01*
X005223Y004512D01*
X005097Y004512D01*
X005097Y004636D02*
X005223Y004636D01*
X005223Y004760D02*
X005097Y004760D01*
X005097Y004884D02*
X005223Y004884D01*
X005223Y005008D02*
X005097Y005008D01*
X005097Y005132D02*
X005223Y005132D01*
D28*
X003720Y004380D03*
X002620Y004000D03*
X003550Y003750D03*
X005690Y003290D03*
X006920Y003290D03*
X007410Y003290D03*
X009290Y003000D03*
X010090Y003080D03*
X010533Y003605D03*
X010533Y004097D03*
X009700Y004190D03*
X008790Y004720D03*
X009140Y004830D03*
X010473Y004845D03*
X011020Y005210D03*
X012157Y005721D03*
X011640Y006420D03*
X014230Y005140D03*
X013630Y004960D03*
X013033Y004569D03*
X012540Y004569D03*
X013040Y004020D03*
X014810Y003150D03*
X016810Y003040D03*
X016870Y003810D03*
X015580Y004030D03*
X015550Y005050D03*
X019980Y004050D03*
X017300Y002080D03*
X016340Y001950D03*
X015180Y001740D03*
X011470Y002490D03*
X011060Y002310D03*
X009840Y001890D03*
X005930Y003990D03*
X002160Y002140D03*
X001370Y002070D03*
X002270Y005960D03*
X020610Y001290D03*
D29*
X001130Y000580D02*
X001130Y007700D01*
X021250Y007700D01*
X021250Y000580D01*
X001130Y000580D01*
X001130Y000611D02*
X021250Y000611D01*
X021250Y000690D02*
X018935Y000690D01*
X018979Y000708D02*
X019122Y000851D01*
X019200Y001039D01*
X019200Y001241D01*
X019155Y001350D01*
X019215Y001410D01*
X019287Y001410D01*
X019287Y001394D01*
X019369Y001312D01*
X019820Y001312D01*
X019902Y001394D01*
X019902Y001658D01*
X019917Y001643D01*
X019917Y001394D01*
X019999Y001312D01*
X020248Y001312D01*
X020344Y001215D01*
X020370Y001190D01*
X020390Y001143D01*
X020463Y001070D01*
X020558Y001030D01*
X020662Y001030D01*
X020757Y001070D01*
X020830Y001143D01*
X020870Y001238D01*
X020870Y001342D01*
X020830Y001437D01*
X020757Y001510D01*
X020662Y001550D01*
X020558Y001550D01*
X020532Y001539D01*
X020532Y001786D01*
X020450Y001868D01*
X020201Y001868D01*
X019740Y002329D01*
X019740Y002465D01*
X018957Y003247D01*
X018984Y003274D01*
X018984Y003586D01*
X018983Y003588D01*
X018984Y003589D01*
X018984Y003901D01*
X018983Y003903D01*
X018984Y003904D01*
X018984Y004216D01*
X018983Y004217D01*
X018984Y004219D01*
X018984Y004531D01*
X018975Y004540D01*
X018984Y004573D01*
X018984Y004681D01*
X018459Y004681D01*
X018459Y004699D01*
X018984Y004699D01*
X018984Y004807D01*
X018974Y004842D01*
X018956Y004874D01*
X018930Y004900D01*
X018898Y004919D01*
X018862Y004928D01*
X018521Y004928D01*
X018546Y004954D01*
X018597Y005005D01*
X018597Y005008D01*
X018662Y005077D01*
X018679Y005077D01*
X018682Y005074D01*
X018707Y005077D01*
X018766Y005077D01*
X018771Y005074D01*
X018778Y005077D01*
X018838Y005077D01*
X018915Y005121D01*
X018937Y005128D01*
X018938Y005129D01*
X018939Y005129D01*
X018956Y005145D01*
X019033Y005189D01*
X019033Y005189D01*
X019063Y005241D01*
X019069Y005246D01*
X019069Y005247D01*
X019070Y005248D01*
X019080Y005271D01*
X019099Y005303D01*
X019114Y005323D01*
X019114Y005324D01*
X019114Y005325D01*
X019116Y005333D01*
X019146Y005384D01*
X019146Y005473D01*
X019151Y005496D01*
X019150Y005497D01*
X019151Y005498D01*
X019146Y005521D01*
X019146Y005610D01*
X019116Y005661D01*
X019114Y005669D01*
X019114Y005670D01*
X019114Y005671D01*
X019099Y005691D01*
X019080Y005723D01*
X019070Y005746D01*
X019069Y005747D01*
X019069Y005748D01*
X019063Y005753D01*
X019033Y005805D01*
X018956Y005849D01*
X018939Y005865D01*
X018938Y005865D01*
X018937Y005866D01*
X018915Y005873D01*
X018838Y005917D01*
X018778Y005917D01*
X018771Y005920D01*
X018766Y005917D01*
X018707Y005917D01*
X018682Y005920D01*
X018679Y005917D01*
X018418Y005917D01*
X018415Y005920D01*
X018390Y005917D01*
X018331Y005917D01*
X018326Y005920D01*
X018318Y005917D01*
X018259Y005917D01*
X018182Y005873D01*
X018159Y005866D01*
X018159Y005865D01*
X018158Y005865D01*
X018141Y005849D01*
X018064Y005805D01*
X018064Y005805D01*
X018034Y005753D01*
X018028Y005748D01*
X018028Y005747D01*
X018027Y005746D01*
X018017Y005723D01*
X017998Y005691D01*
X017983Y005671D01*
X017983Y005670D01*
X017983Y005669D01*
X017981Y005661D01*
X017951Y005610D01*
X017951Y005521D01*
X017946Y005498D01*
X017947Y005497D01*
X017946Y005496D01*
X017951Y005473D01*
X017951Y005384D01*
X017981Y005333D01*
X017983Y005325D01*
X017983Y005324D01*
X017983Y005323D01*
X017998Y005303D01*
X018017Y005271D01*
X018020Y005263D01*
X017996Y005264D01*
X017992Y005260D01*
X017985Y005260D01*
X017936Y005211D01*
X017891Y005171D01*
X017824Y005161D01*
X017824Y005175D01*
X017742Y005257D01*
X017350Y005257D01*
X017288Y005195D01*
X017284Y005203D01*
X017258Y005229D01*
X017226Y005248D01*
X017190Y005257D01*
X017093Y005257D01*
X017093Y005257D01*
X017112Y005289D01*
X017121Y005325D01*
X017121Y005500D01*
X016805Y005500D01*
X016805Y005580D01*
X017121Y005580D01*
X017121Y005755D01*
X017112Y005791D01*
X017093Y005823D01*
X017067Y005849D01*
X017035Y005867D01*
X017000Y005877D01*
X016805Y005877D01*
X016805Y005580D01*
X016725Y005580D01*
X016725Y005877D01*
X016721Y005877D01*
X016764Y005920D01*
X017505Y005920D01*
X017685Y006100D01*
X019185Y006100D01*
X019525Y006440D01*
X020325Y006440D01*
X020536Y006652D01*
X020589Y006630D01*
X020791Y006630D01*
X020979Y006708D01*
X021122Y006851D01*
X021200Y007039D01*
X021200Y007241D01*
X021122Y007429D01*
X020979Y007572D01*
X020791Y007650D01*
X020589Y007650D01*
X020401Y007572D01*
X020258Y007429D01*
X020190Y007266D01*
X020122Y007429D01*
X019979Y007572D01*
X019791Y007650D01*
X019589Y007650D01*
X019401Y007572D01*
X019258Y007429D01*
X019190Y007266D01*
X019122Y007429D01*
X018979Y007572D01*
X018791Y007650D01*
X018589Y007650D01*
X018401Y007572D01*
X018258Y007429D01*
X018190Y007266D01*
X018122Y007429D01*
X017979Y007572D01*
X017791Y007650D01*
X017589Y007650D01*
X017401Y007572D01*
X017258Y007429D01*
X017190Y007266D01*
X017122Y007429D01*
X016979Y007572D01*
X016791Y007650D01*
X016589Y007650D01*
X016401Y007572D01*
X016258Y007429D01*
X016190Y007266D01*
X016122Y007429D01*
X015979Y007572D01*
X015791Y007650D01*
X015589Y007650D01*
X015401Y007572D01*
X015258Y007429D01*
X015190Y007266D01*
X015122Y007429D01*
X014979Y007572D01*
X014791Y007650D01*
X014589Y007650D01*
X014401Y007572D01*
X014258Y007429D01*
X014190Y007266D01*
X014122Y007429D01*
X013979Y007572D01*
X013791Y007650D01*
X013589Y007650D01*
X013401Y007572D01*
X013258Y007429D01*
X013190Y007266D01*
X013122Y007429D01*
X012979Y007572D01*
X012791Y007650D01*
X012589Y007650D01*
X012401Y007572D01*
X012258Y007429D01*
X012190Y007266D01*
X012122Y007429D01*
X011979Y007572D01*
X011791Y007650D01*
X011589Y007650D01*
X011401Y007572D01*
X011258Y007429D01*
X011190Y007266D01*
X011122Y007429D01*
X010979Y007572D01*
X010791Y007650D01*
X010589Y007650D01*
X010401Y007572D01*
X010258Y007429D01*
X010190Y007266D01*
X010122Y007429D01*
X009979Y007572D01*
X009791Y007650D01*
X009589Y007650D01*
X009401Y007572D01*
X009258Y007429D01*
X009190Y007266D01*
X009122Y007429D01*
X008979Y007572D01*
X008791Y007650D01*
X008589Y007650D01*
X008401Y007572D01*
X008258Y007429D01*
X008190Y007266D01*
X008122Y007429D01*
X007979Y007572D01*
X007791Y007650D01*
X007589Y007650D01*
X007401Y007572D01*
X007258Y007429D01*
X007190Y007266D01*
X007122Y007429D01*
X006979Y007572D01*
X006791Y007650D01*
X006589Y007650D01*
X006401Y007572D01*
X006258Y007429D01*
X006190Y007266D01*
X006122Y007429D01*
X005979Y007572D01*
X005791Y007650D01*
X005589Y007650D01*
X005401Y007572D01*
X005258Y007429D01*
X005190Y007266D01*
X005122Y007429D01*
X004979Y007572D01*
X004791Y007650D01*
X004589Y007650D01*
X004401Y007572D01*
X004258Y007429D01*
X004190Y007266D01*
X004122Y007429D01*
X003979Y007572D01*
X003791Y007650D01*
X003589Y007650D01*
X003401Y007572D01*
X003258Y007429D01*
X003190Y007266D01*
X003122Y007429D01*
X002979Y007572D01*
X002791Y007650D01*
X002589Y007650D01*
X002401Y007572D01*
X002258Y007429D01*
X002200Y007290D01*
X002200Y007568D01*
X002118Y007650D01*
X001262Y007650D01*
X001180Y007568D01*
X001180Y006712D01*
X001262Y006630D01*
X001945Y006630D01*
X002505Y006070D01*
X004715Y006070D01*
X005075Y005710D01*
X006175Y005710D01*
X006330Y005555D01*
X006330Y004495D01*
X006435Y004390D01*
X007312Y003513D01*
X008074Y003513D01*
X008074Y003496D01*
X008074Y003479D01*
X007935Y003479D01*
X007425Y002970D01*
X006567Y002970D01*
X006567Y003010D01*
X006505Y003072D01*
X006513Y003076D01*
X006539Y003102D01*
X006558Y003134D01*
X006567Y003170D01*
X006567Y003297D01*
X006279Y003297D01*
X006279Y003355D01*
X006221Y003355D01*
X006221Y003604D01*
X006054Y003604D01*
X006019Y003594D01*
X005987Y003576D01*
X005961Y003550D01*
X005942Y003518D01*
X005933Y003482D01*
X005933Y003355D01*
X006221Y003355D01*
X006221Y003297D01*
X005933Y003297D01*
X005933Y003170D01*
X005942Y003134D01*
X005961Y003102D01*
X005987Y003076D01*
X005995Y003072D01*
X005933Y003010D01*
X005933Y003000D01*
X005605Y003000D01*
X005425Y003180D01*
X005425Y003771D01*
X005306Y003890D01*
X005096Y003890D01*
X005147Y003941D01*
X005190Y004044D01*
X005190Y004156D01*
X005147Y004259D01*
X005096Y004310D01*
X005306Y004310D01*
X005331Y004335D01*
X005670Y003995D01*
X005670Y003938D01*
X005710Y003843D01*
X005783Y003770D01*
X005878Y003730D01*
X005982Y003730D01*
X006077Y003770D01*
X006150Y003843D01*
X006190Y003938D01*
X006190Y004042D01*
X006150Y004137D01*
X006077Y004210D01*
X005982Y004250D01*
X005925Y004250D01*
X005425Y004750D01*
X005425Y005301D01*
X005306Y005420D01*
X005014Y005420D01*
X004910Y005316D01*
X004806Y005420D01*
X004514Y005420D01*
X004410Y005316D01*
X004306Y005420D01*
X004014Y005420D01*
X003895Y005301D01*
X003895Y004810D01*
X003725Y004640D01*
X003668Y004640D01*
X003573Y004600D01*
X003500Y004527D01*
X003460Y004432D01*
X003460Y004328D01*
X003500Y004233D01*
X003573Y004160D01*
X003668Y004120D01*
X003772Y004120D01*
X003867Y004160D01*
X003940Y004233D01*
X003980Y004328D01*
X003980Y004344D01*
X004014Y004310D01*
X004224Y004310D01*
X004173Y004259D01*
X004130Y004156D01*
X004130Y004044D01*
X004173Y003941D01*
X004224Y003890D01*
X004183Y003890D01*
X004183Y003358D01*
X004137Y003358D01*
X004137Y003890D01*
X004071Y003890D01*
X004019Y003876D01*
X003973Y003850D01*
X003935Y003812D01*
X003909Y003766D01*
X003895Y003714D01*
X003895Y003358D01*
X004137Y003358D01*
X004137Y003312D01*
X003895Y003312D01*
X003895Y002956D01*
X003907Y002910D01*
X003885Y002910D01*
X003190Y003605D01*
X003190Y005145D01*
X002977Y005358D01*
X002977Y005599D01*
X002895Y005681D01*
X002385Y005681D01*
X002303Y005599D01*
X002303Y005050D01*
X002363Y004990D01*
X002303Y004930D01*
X002303Y004875D01*
X002237Y004875D01*
X002237Y004910D01*
X002155Y004992D01*
X002132Y004992D01*
X002152Y004997D01*
X002183Y005016D01*
X002210Y005042D01*
X002228Y005074D01*
X002237Y005109D01*
X002237Y005247D01*
X001979Y005247D01*
X001979Y005324D01*
X002237Y005324D01*
X002237Y005461D01*
X002228Y005497D01*
X002210Y005529D01*
X002183Y005555D01*
X002152Y005573D01*
X002116Y005583D01*
X001979Y005583D01*
X001979Y005324D01*
X001901Y005324D01*
X001901Y005247D01*
X001643Y005247D01*
X001643Y005109D01*
X001652Y005074D01*
X001670Y005042D01*
X001697Y005016D01*
X001728Y004997D01*
X001748Y004992D01*
X001725Y004992D01*
X001643Y004910D01*
X001643Y004479D01*
X001725Y004397D01*
X002155Y004397D01*
X002237Y004479D01*
X002237Y004515D01*
X002303Y004515D01*
X002303Y004381D01*
X002385Y004299D01*
X002830Y004299D01*
X002830Y004158D01*
X002767Y004220D01*
X002672Y004260D01*
X002568Y004260D01*
X002473Y004220D01*
X002400Y004147D01*
X002360Y004052D01*
X002360Y003948D01*
X002371Y003921D01*
X002355Y003921D01*
X002273Y003839D01*
X002273Y003290D01*
X002333Y003230D01*
X002273Y003170D01*
X002273Y003115D01*
X002237Y003115D01*
X002237Y003150D01*
X002155Y003232D01*
X002132Y003232D01*
X002152Y003237D01*
X002183Y003256D01*
X002210Y003282D01*
X002228Y003314D01*
X002237Y003349D01*
X002237Y003487D01*
X001979Y003487D01*
X001979Y003564D01*
X002237Y003564D01*
X002237Y003701D01*
X002228Y003737D01*
X002210Y003769D01*
X002183Y003795D01*
X002152Y003813D01*
X002116Y003823D01*
X001979Y003823D01*
X001979Y003564D01*
X001901Y003564D01*
X001901Y003487D01*
X001643Y003487D01*
X001643Y003349D01*
X001652Y003314D01*
X001670Y003282D01*
X001697Y003256D01*
X001728Y003237D01*
X001748Y003232D01*
X001725Y003232D01*
X001643Y003150D01*
X001643Y002719D01*
X001725Y002637D01*
X002155Y002637D01*
X002237Y002719D01*
X002237Y002755D01*
X002273Y002755D01*
X002273Y002621D01*
X002355Y002539D01*
X002865Y002539D01*
X002947Y002621D01*
X002947Y003170D01*
X002887Y003230D01*
X002947Y003290D01*
X002947Y003339D01*
X003735Y002550D01*
X005115Y002550D01*
X005220Y002655D01*
X005330Y002765D01*
X005350Y002745D01*
X005455Y002640D01*
X005933Y002640D01*
X005933Y002618D01*
X005971Y002580D01*
X005755Y002580D01*
X005585Y002410D01*
X004885Y002410D01*
X004675Y002200D01*
X002495Y002200D01*
X001945Y001650D01*
X001262Y001650D01*
X001180Y001568D01*
X001180Y000712D01*
X001262Y000630D01*
X002118Y000630D01*
X002200Y000712D01*
X002200Y000990D01*
X002258Y000851D01*
X002401Y000708D01*
X002589Y000630D01*
X002791Y000630D01*
X002979Y000708D01*
X003122Y000851D01*
X003190Y001014D01*
X003258Y000851D01*
X003401Y000708D01*
X003589Y000630D01*
X003791Y000630D01*
X003979Y000708D01*
X004122Y000851D01*
X004190Y001014D01*
X004258Y000851D01*
X004401Y000708D01*
X004589Y000630D01*
X004791Y000630D01*
X004979Y000708D01*
X005122Y000851D01*
X005190Y001014D01*
X005258Y000851D01*
X005401Y000708D01*
X005589Y000630D01*
X005791Y000630D01*
X005979Y000708D01*
X006122Y000851D01*
X006190Y001014D01*
X006258Y000851D01*
X006401Y000708D01*
X006589Y000630D01*
X006791Y000630D01*
X006979Y000708D01*
X007122Y000851D01*
X007190Y001014D01*
X007258Y000851D01*
X007401Y000708D01*
X007589Y000630D01*
X007791Y000630D01*
X007979Y000708D01*
X008122Y000851D01*
X008190Y001014D01*
X008258Y000851D01*
X008401Y000708D01*
X008589Y000630D01*
X008791Y000630D01*
X008979Y000708D01*
X009122Y000851D01*
X009190Y001014D01*
X009258Y000851D01*
X009401Y000708D01*
X009589Y000630D01*
X009791Y000630D01*
X009979Y000708D01*
X010122Y000851D01*
X010190Y001014D01*
X010258Y000851D01*
X010401Y000708D01*
X010589Y000630D01*
X010791Y000630D01*
X010979Y000708D01*
X011122Y000851D01*
X011190Y001014D01*
X011258Y000851D01*
X011401Y000708D01*
X011589Y000630D01*
X011791Y000630D01*
X011979Y000708D01*
X012122Y000851D01*
X012190Y001014D01*
X012258Y000851D01*
X012401Y000708D01*
X012589Y000630D01*
X012791Y000630D01*
X012979Y000708D01*
X013122Y000851D01*
X013190Y001014D01*
X013258Y000851D01*
X013401Y000708D01*
X013589Y000630D01*
X013791Y000630D01*
X013979Y000708D01*
X014122Y000851D01*
X014190Y001014D01*
X014258Y000851D01*
X014401Y000708D01*
X014589Y000630D01*
X014791Y000630D01*
X014979Y000708D01*
X015122Y000851D01*
X015190Y001014D01*
X015258Y000851D01*
X015401Y000708D01*
X015589Y000630D01*
X015791Y000630D01*
X015979Y000708D01*
X016122Y000851D01*
X016193Y001021D01*
X016193Y001021D01*
X016217Y000944D01*
X016254Y000873D01*
X016301Y000808D01*
X016358Y000751D01*
X016423Y000704D01*
X016494Y000667D01*
X016571Y000643D01*
X016650Y000630D01*
X016650Y001100D01*
X016730Y001100D01*
X016730Y000630D01*
X016730Y000630D01*
X016809Y000643D01*
X016886Y000667D01*
X016957Y000704D01*
X017022Y000751D01*
X017079Y000808D01*
X017126Y000873D01*
X017163Y000944D01*
X017187Y001021D01*
X017258Y000851D01*
X017401Y000708D01*
X017589Y000630D01*
X017791Y000630D01*
X017979Y000708D01*
X018122Y000851D01*
X018190Y001014D01*
X018258Y000851D01*
X018401Y000708D01*
X018589Y000630D01*
X018791Y000630D01*
X018979Y000708D01*
X019039Y000768D02*
X021250Y000768D01*
X021250Y000847D02*
X019118Y000847D01*
X019153Y000925D02*
X021250Y000925D01*
X021250Y001004D02*
X019185Y001004D01*
X019200Y001082D02*
X020450Y001082D01*
X020382Y001161D02*
X019200Y001161D01*
X019200Y001239D02*
X020321Y001239D01*
X020524Y001290D02*
X020610Y001290D01*
X020524Y001290D02*
X020224Y001590D01*
X019560Y002254D01*
X019560Y002390D01*
X018730Y003220D01*
X018716Y003220D01*
X018450Y003430D01*
X018984Y003437D02*
X019020Y003437D01*
X019019Y003434D02*
X019019Y003308D01*
X019067Y003191D01*
X019156Y003102D01*
X019273Y003054D01*
X019399Y003054D01*
X019515Y003102D01*
X019605Y003191D01*
X019653Y003308D01*
X019653Y003434D01*
X019605Y003551D01*
X019515Y003640D01*
X019399Y003688D01*
X019273Y003688D01*
X019156Y003640D01*
X019067Y003551D01*
X019019Y003434D01*
X019019Y003359D02*
X018984Y003359D01*
X018984Y003280D02*
X019030Y003280D01*
X019003Y003202D02*
X019063Y003202D01*
X019082Y003123D02*
X019135Y003123D01*
X019160Y003045D02*
X020409Y003045D01*
X020413Y003046D02*
X020405Y003043D01*
X020375Y003043D01*
X020345Y003043D01*
X020268Y002999D01*
X020246Y002992D01*
X020246Y002991D01*
X020245Y002991D01*
X020227Y002975D01*
X020150Y002931D01*
X020150Y002931D01*
X020150Y002931D01*
X020120Y002879D01*
X020114Y002874D01*
X020114Y002873D01*
X020113Y002872D01*
X020103Y002849D01*
X020084Y002817D01*
X020070Y002797D01*
X020070Y002796D01*
X020069Y002795D01*
X020067Y002787D01*
X020038Y002736D01*
X020038Y002647D01*
X020033Y002624D01*
X020033Y002623D01*
X020033Y002622D01*
X020038Y002599D01*
X020038Y002510D01*
X020067Y002459D01*
X020069Y002451D01*
X020070Y002450D01*
X020070Y002449D01*
X020084Y002429D01*
X020103Y002397D01*
X020113Y002374D01*
X020114Y002373D01*
X020114Y002372D01*
X020120Y002367D01*
X020150Y002315D01*
X020227Y002271D01*
X020245Y002255D01*
X020246Y002255D01*
X020246Y002254D01*
X020268Y002247D01*
X020345Y002203D01*
X020405Y002203D01*
X020413Y002200D01*
X020417Y002203D01*
X020477Y002203D01*
X020502Y002200D01*
X020505Y002203D01*
X020765Y002203D01*
X020769Y002200D01*
X020793Y002203D01*
X020853Y002203D01*
X020857Y002200D01*
X020865Y002203D01*
X020925Y002203D01*
X021002Y002247D01*
X021024Y002254D01*
X021025Y002255D01*
X021043Y002271D01*
X021120Y002315D01*
X021120Y002315D01*
X021120Y002315D01*
X021150Y002367D01*
X021156Y002372D01*
X021156Y002373D01*
X021157Y002374D01*
X021167Y002397D01*
X021186Y002429D01*
X021200Y002449D01*
X021200Y002450D01*
X021201Y002451D01*
X021203Y002459D01*
X021233Y002510D01*
X021233Y002599D01*
X021237Y002622D01*
X021237Y002623D01*
X021237Y002624D01*
X021233Y002647D01*
X021233Y002736D01*
X021203Y002787D01*
X021201Y002795D01*
X021200Y002796D01*
X021200Y002797D01*
X021186Y002817D01*
X021167Y002849D01*
X021157Y002872D01*
X021156Y002873D01*
X021156Y002874D01*
X021150Y002879D01*
X021120Y002931D01*
X021043Y002975D01*
X021025Y002991D01*
X021025Y002991D01*
X021024Y002992D01*
X021002Y002999D01*
X020925Y003043D01*
X020865Y003043D01*
X020857Y003046D01*
X020853Y003043D01*
X020793Y003043D01*
X020769Y003046D01*
X020765Y003043D01*
X020505Y003043D01*
X020502Y003046D01*
X020477Y003043D01*
X020417Y003043D01*
X020413Y003046D01*
X020415Y003045D02*
X020488Y003045D01*
X020503Y003045D02*
X020767Y003045D01*
X020782Y003045D02*
X020855Y003045D01*
X020861Y003045D02*
X021250Y003045D01*
X021250Y003123D02*
X019536Y003123D01*
X019609Y003202D02*
X021250Y003202D01*
X021250Y003280D02*
X019641Y003280D01*
X019653Y003359D02*
X021250Y003359D01*
X021250Y003437D02*
X019652Y003437D01*
X019619Y003516D02*
X021250Y003516D01*
X021250Y003594D02*
X019561Y003594D01*
X019437Y003673D02*
X021250Y003673D01*
X021250Y003751D02*
X018984Y003751D01*
X018984Y003673D02*
X019235Y003673D01*
X019110Y003594D02*
X018984Y003594D01*
X018984Y003516D02*
X019052Y003516D01*
X018450Y003745D02*
X018445Y003740D01*
X017860Y003740D01*
X017610Y003490D01*
X017610Y002710D01*
X017403Y002502D01*
X015070Y002502D01*
X015071Y002501D01*
X015071Y002180D01*
X014730Y002181D02*
X014564Y002181D01*
X014642Y002103D02*
X014730Y002103D01*
X014721Y002024D02*
X014730Y002024D01*
X014730Y002015D02*
X014730Y002322D01*
X014422Y002322D01*
X014730Y002015D01*
X014854Y001890D02*
X015330Y001890D01*
X015370Y001931D01*
X015382Y001918D01*
X015414Y001900D01*
X015450Y001890D01*
X015634Y001890D01*
X015634Y002145D01*
X015704Y002145D01*
X015704Y001890D01*
X015888Y001890D01*
X015924Y001900D01*
X015956Y001918D01*
X015982Y001944D01*
X016000Y001976D01*
X016010Y002012D01*
X016010Y002145D01*
X015704Y002145D01*
X015704Y002215D01*
X016010Y002215D01*
X016010Y002322D01*
X017477Y002322D01*
X017685Y002530D01*
X017790Y002635D01*
X017790Y003415D01*
X017916Y003542D01*
X017916Y003274D01*
X017998Y003192D01*
X018461Y003192D01*
X018596Y003085D01*
X018638Y003043D01*
X018418Y003043D01*
X018415Y003046D01*
X018390Y003043D01*
X018331Y003043D01*
X018326Y003046D01*
X018318Y003043D01*
X018259Y003043D01*
X018182Y002999D01*
X018159Y002992D01*
X018159Y002991D01*
X018158Y002991D01*
X018141Y002975D01*
X018064Y002931D01*
X018064Y002931D01*
X018064Y002931D01*
X018034Y002879D01*
X018028Y002874D01*
X018028Y002873D01*
X018027Y002872D01*
X018017Y002849D01*
X017998Y002817D01*
X017983Y002797D01*
X017983Y002796D01*
X017983Y002795D01*
X017981Y002787D01*
X017951Y002736D01*
X017951Y002647D01*
X017946Y002624D01*
X017947Y002623D01*
X017946Y002622D01*
X017951Y002599D01*
X017951Y002510D01*
X017981Y002459D01*
X017983Y002451D01*
X017983Y002450D01*
X017983Y002449D01*
X017998Y002429D01*
X018017Y002397D01*
X018027Y002374D01*
X018028Y002373D01*
X018028Y002372D01*
X018034Y002367D01*
X018064Y002315D01*
X018141Y002271D01*
X018158Y002255D01*
X018159Y002255D01*
X018159Y002254D01*
X018182Y002247D01*
X018259Y002203D01*
X018318Y002203D01*
X018326Y002200D01*
X018331Y002203D01*
X018390Y002203D01*
X018415Y002200D01*
X018418Y002203D01*
X018679Y002203D01*
X018682Y002200D01*
X018707Y002203D01*
X018766Y002203D01*
X018771Y002200D01*
X018778Y002203D01*
X018838Y002203D01*
X018915Y002247D01*
X018937Y002254D01*
X018938Y002255D01*
X018939Y002255D01*
X018956Y002271D01*
X019033Y002315D01*
X019033Y002315D01*
X019063Y002367D01*
X019069Y002372D01*
X019069Y002373D01*
X019070Y002374D01*
X019080Y002397D01*
X019099Y002429D01*
X019114Y002449D01*
X019114Y002450D01*
X019114Y002451D01*
X019116Y002459D01*
X019146Y002510D01*
X019146Y002550D01*
X019380Y002315D01*
X019380Y002180D01*
X019485Y002074D01*
X019692Y001868D01*
X019369Y001868D01*
X019287Y001786D01*
X019287Y001770D01*
X019205Y001770D01*
X019140Y001835D01*
X019035Y001940D01*
X016605Y001940D01*
X016600Y001945D01*
X016600Y002002D01*
X016560Y002097D01*
X016487Y002170D01*
X016392Y002210D01*
X016288Y002210D01*
X016193Y002170D01*
X016120Y002097D01*
X016080Y002002D01*
X016080Y001898D01*
X016120Y001803D01*
X016193Y001730D01*
X016288Y001690D01*
X016345Y001690D01*
X016447Y001589D01*
X016423Y001576D01*
X016358Y001529D01*
X016301Y001472D01*
X016254Y001407D01*
X016217Y001336D01*
X016193Y001259D01*
X016122Y001429D01*
X015979Y001572D01*
X015791Y001650D01*
X015589Y001650D01*
X015401Y001572D01*
X015258Y001429D01*
X015190Y001266D01*
X015122Y001429D01*
X014979Y001572D01*
X014870Y001617D01*
X014870Y001875D01*
X014854Y001890D01*
X014870Y001867D02*
X016093Y001867D01*
X016080Y001946D02*
X015983Y001946D01*
X016010Y002024D02*
X016089Y002024D01*
X016125Y002103D02*
X016010Y002103D01*
X016010Y002260D02*
X018153Y002260D01*
X018064Y002315D02*
X018064Y002315D01*
X018064Y002315D01*
X018050Y002338D02*
X017493Y002338D01*
X017571Y002417D02*
X018005Y002417D01*
X017960Y002495D02*
X017650Y002495D01*
X017728Y002574D02*
X017951Y002574D01*
X017951Y002652D02*
X017790Y002652D01*
X017790Y002731D02*
X017951Y002731D01*
X017992Y002809D02*
X017790Y002809D01*
X017790Y002888D02*
X018039Y002888D01*
X018125Y002966D02*
X017790Y002966D01*
X017790Y003045D02*
X018322Y003045D01*
X018328Y003045D02*
X018401Y003045D01*
X018417Y003045D02*
X018637Y003045D01*
X018548Y003123D02*
X017790Y003123D01*
X017790Y003202D02*
X017988Y003202D01*
X017916Y003280D02*
X017790Y003280D01*
X017790Y003359D02*
X017916Y003359D01*
X017916Y003437D02*
X017812Y003437D01*
X017890Y003516D02*
X017916Y003516D01*
X017680Y003815D02*
X017430Y003565D01*
X017430Y003415D01*
X017430Y002784D01*
X017328Y002682D01*
X017247Y002682D01*
X017255Y002690D01*
X017360Y002796D01*
X017360Y003525D01*
X017715Y003880D01*
X017745Y003880D01*
X017680Y003815D01*
X017664Y003830D02*
X017695Y003830D01*
X017616Y003751D02*
X017586Y003751D01*
X017538Y003673D02*
X017507Y003673D01*
X017459Y003594D02*
X017429Y003594D01*
X017430Y003516D02*
X017360Y003516D01*
X017360Y003437D02*
X017430Y003437D01*
X017430Y003359D02*
X017360Y003359D01*
X017360Y003280D02*
X017430Y003280D01*
X017430Y003202D02*
X017360Y003202D01*
X017360Y003123D02*
X017430Y003123D01*
X017430Y003045D02*
X017360Y003045D01*
X017360Y002966D02*
X017430Y002966D01*
X017430Y002888D02*
X017360Y002888D01*
X017360Y002809D02*
X017430Y002809D01*
X017376Y002731D02*
X017295Y002731D01*
X017180Y002870D02*
X017180Y003600D01*
X017640Y004060D01*
X018450Y004060D01*
X018430Y004080D01*
X018984Y004065D02*
X021250Y004065D01*
X021250Y003987D02*
X018984Y003987D01*
X018984Y003908D02*
X021250Y003908D01*
X021250Y003830D02*
X018984Y003830D01*
X018984Y004144D02*
X021250Y004144D01*
X021250Y004222D02*
X018984Y004222D01*
X018984Y004301D02*
X021250Y004301D01*
X021250Y004379D02*
X018984Y004379D01*
X018984Y004458D02*
X019211Y004458D01*
X019156Y004480D02*
X019273Y004432D01*
X019399Y004432D01*
X019515Y004480D01*
X019605Y004569D01*
X019653Y004686D01*
X019653Y004812D01*
X019605Y004929D01*
X019515Y005018D01*
X019399Y005066D01*
X019273Y005066D01*
X019156Y005018D01*
X019067Y004929D01*
X019019Y004812D01*
X019019Y004686D01*
X019067Y004569D01*
X019156Y004480D01*
X019100Y004536D02*
X018979Y004536D01*
X018984Y004615D02*
X019048Y004615D01*
X019019Y004693D02*
X018459Y004693D01*
X018441Y004693D02*
X017812Y004693D01*
X017824Y004705D02*
X017824Y004798D01*
X017917Y004811D01*
X017916Y004807D01*
X017916Y004699D01*
X018441Y004699D01*
X018441Y004681D01*
X017916Y004681D01*
X017916Y004573D01*
X017925Y004540D01*
X017916Y004531D01*
X017916Y004240D01*
X017824Y004240D01*
X017824Y004605D01*
X017774Y004655D01*
X017824Y004705D01*
X017824Y004772D02*
X017916Y004772D01*
X017916Y004615D02*
X017814Y004615D01*
X017824Y004536D02*
X017921Y004536D01*
X017916Y004458D02*
X017824Y004458D01*
X017824Y004379D02*
X017916Y004379D01*
X017916Y004301D02*
X017824Y004301D01*
X017546Y004370D02*
X017546Y004940D01*
X017970Y005000D01*
X018060Y005080D01*
X018417Y005080D01*
X018607Y005280D01*
X018989Y005164D02*
X020194Y005164D01*
X020227Y005145D02*
X020245Y005129D01*
X020246Y005129D01*
X020246Y005128D01*
X020268Y005121D01*
X020345Y005077D01*
X020405Y005077D01*
X020413Y005074D01*
X020417Y005077D01*
X020477Y005077D01*
X020502Y005074D01*
X020505Y005077D01*
X020765Y005077D01*
X020769Y005074D01*
X020793Y005077D01*
X020853Y005077D01*
X020857Y005074D01*
X020865Y005077D01*
X020925Y005077D01*
X021002Y005121D01*
X021024Y005128D01*
X021025Y005129D01*
X021043Y005145D01*
X021120Y005189D01*
X021120Y005189D01*
X021120Y005189D01*
X021150Y005241D01*
X021156Y005246D01*
X021156Y005247D01*
X021157Y005248D01*
X021167Y005271D01*
X021186Y005303D01*
X021200Y005323D01*
X021200Y005324D01*
X021201Y005325D01*
X021203Y005333D01*
X021233Y005384D01*
X021233Y005473D01*
X021237Y005496D01*
X021237Y005497D01*
X021237Y005498D01*
X021233Y005521D01*
X021233Y005610D01*
X021203Y005661D01*
X021201Y005669D01*
X021200Y005670D01*
X021200Y005671D01*
X021186Y005691D01*
X021167Y005723D01*
X021157Y005746D01*
X021156Y005747D01*
X021156Y005748D01*
X021150Y005753D01*
X021120Y005805D01*
X021043Y005849D01*
X021025Y005865D01*
X021025Y005865D01*
X021024Y005866D01*
X021002Y005873D01*
X020925Y005917D01*
X020865Y005917D01*
X020857Y005920D01*
X020853Y005917D01*
X020793Y005917D01*
X020769Y005920D01*
X020765Y005917D01*
X020541Y005917D01*
X020505Y005917D01*
X020502Y005920D01*
X020477Y005917D01*
X020417Y005917D01*
X020413Y005920D01*
X020405Y005917D01*
X020345Y005917D01*
X020268Y005873D01*
X020246Y005866D01*
X020246Y005865D01*
X020245Y005865D01*
X020227Y005849D01*
X020150Y005805D01*
X020150Y005805D01*
X020150Y005805D01*
X020120Y005753D01*
X020114Y005748D01*
X020114Y005747D01*
X020113Y005746D01*
X020103Y005723D01*
X020084Y005691D01*
X020070Y005671D01*
X020070Y005670D01*
X020069Y005669D01*
X020067Y005661D01*
X020038Y005610D01*
X020038Y005521D01*
X020033Y005498D01*
X020033Y005497D01*
X020033Y005496D01*
X020038Y005473D01*
X020038Y005384D01*
X020067Y005333D01*
X020069Y005325D01*
X020070Y005324D01*
X020070Y005323D01*
X020084Y005303D01*
X020103Y005271D01*
X020113Y005248D01*
X020114Y005247D01*
X020114Y005246D01*
X020120Y005241D01*
X020150Y005189D01*
X020227Y005145D01*
X020150Y005189D02*
X020150Y005189D01*
X020119Y005243D02*
X019065Y005243D01*
X019033Y005189D02*
X019033Y005189D01*
X019112Y005321D02*
X020071Y005321D01*
X020038Y005384D02*
X020038Y005384D01*
X020038Y005400D02*
X019146Y005400D01*
X019147Y005478D02*
X020037Y005478D01*
X020038Y005557D02*
X019146Y005557D01*
X019131Y005635D02*
X020052Y005635D01*
X020098Y005714D02*
X019086Y005714D01*
X019041Y005792D02*
X020143Y005792D01*
X020261Y005871D02*
X018922Y005871D01*
X019033Y005805D02*
X019033Y005805D01*
X019033Y005805D01*
X018174Y005871D02*
X017023Y005871D01*
X017111Y005792D02*
X018056Y005792D01*
X018064Y005805D02*
X018064Y005805D01*
X018011Y005714D02*
X017121Y005714D01*
X017121Y005635D02*
X017966Y005635D01*
X017951Y005557D02*
X016805Y005557D01*
X016805Y005500D02*
X016805Y005223D01*
X016784Y005203D01*
X016766Y005171D01*
X016756Y005136D01*
X016756Y004969D01*
X017005Y004969D01*
X017005Y004911D01*
X016756Y004911D01*
X016756Y004744D01*
X016766Y004709D01*
X016784Y004677D01*
X016806Y004655D01*
X016784Y004633D01*
X016766Y004601D01*
X016756Y004566D01*
X016756Y004399D01*
X017005Y004399D01*
X017005Y004341D01*
X016756Y004341D01*
X016756Y004174D01*
X016766Y004139D01*
X016784Y004107D01*
X016810Y004081D01*
X016842Y004062D01*
X016878Y004053D01*
X017005Y004053D01*
X017005Y004341D01*
X017063Y004341D01*
X017063Y004053D01*
X017190Y004053D01*
X017226Y004062D01*
X017258Y004081D01*
X017284Y004107D01*
X017288Y004115D01*
X017350Y004053D01*
X017378Y004053D01*
X017000Y003675D01*
X017000Y003525D01*
X017000Y003218D01*
X016957Y003260D01*
X016862Y003300D01*
X016805Y003300D01*
X016645Y003460D01*
X016645Y003822D01*
X016563Y003904D01*
X015817Y003904D01*
X015735Y003822D01*
X015735Y003669D01*
X015412Y003669D01*
X015412Y003822D01*
X015330Y003904D01*
X014998Y003904D01*
X014916Y003822D01*
X014916Y003510D01*
X014815Y003410D01*
X014758Y003410D01*
X014664Y003371D01*
X014664Y003822D01*
X014582Y003904D01*
X014250Y003904D01*
X014168Y003822D01*
X014168Y003708D01*
X013968Y003708D01*
X013968Y003956D01*
X013906Y004018D01*
X013914Y004023D01*
X013940Y004049D01*
X013959Y004081D01*
X013968Y004116D01*
X013968Y004311D01*
X013671Y004311D01*
X013671Y004391D01*
X013591Y004391D01*
X013591Y004311D01*
X013294Y004311D01*
X013294Y004116D01*
X013304Y004081D01*
X013322Y004049D01*
X013348Y004023D01*
X013356Y004018D01*
X013294Y003956D01*
X013294Y003407D01*
X013376Y003325D01*
X013886Y003325D01*
X013909Y003348D01*
X014168Y003348D01*
X014168Y003234D01*
X014250Y003152D01*
X014550Y003152D01*
X014550Y003098D01*
X014590Y003003D01*
X014663Y002930D01*
X014758Y002890D01*
X014862Y002890D01*
X014957Y002930D01*
X015030Y003003D01*
X015070Y003098D01*
X015070Y003152D01*
X015330Y003152D01*
X015412Y003234D01*
X015412Y003309D01*
X015735Y003309D01*
X015735Y003155D01*
X015817Y003073D01*
X016522Y003073D01*
X016550Y003045D01*
X016550Y002988D01*
X016590Y002893D01*
X016603Y002879D01*
X013260Y002879D01*
X013260Y003120D01*
X013219Y003160D01*
X013232Y003172D01*
X013250Y003204D01*
X013260Y003240D01*
X013260Y003424D01*
X013005Y003424D01*
X013005Y003494D01*
X013260Y003494D01*
X013260Y003678D01*
X013250Y003714D01*
X013232Y003746D01*
X013206Y003772D01*
X013174Y003790D01*
X013138Y003800D01*
X013005Y003800D01*
X013005Y003494D01*
X012935Y003494D01*
X012935Y003424D01*
X012680Y003424D01*
X012680Y003240D01*
X012690Y003204D01*
X012708Y003172D01*
X012721Y003160D01*
X012680Y003120D01*
X012680Y003040D01*
X012084Y003636D01*
X012084Y003876D01*
X012142Y003876D01*
X012142Y003627D01*
X012309Y003627D01*
X012344Y003637D01*
X012376Y003655D01*
X012402Y003682D01*
X012421Y003713D01*
X012430Y003749D01*
X012430Y003876D01*
X012142Y003876D01*
X012142Y003934D01*
X012430Y003934D01*
X012430Y004062D01*
X012421Y004097D01*
X012402Y004129D01*
X012376Y004155D01*
X012369Y004160D01*
X012430Y004221D01*
X012430Y004333D01*
X012489Y004309D01*
X012592Y004309D01*
X012688Y004349D01*
X012761Y004422D01*
X012786Y004484D01*
X012812Y004422D01*
X012885Y004349D01*
X012981Y004309D01*
X013084Y004309D01*
X013180Y004349D01*
X013253Y004422D01*
X013293Y004517D01*
X013293Y004621D01*
X013253Y004716D01*
X013213Y004757D01*
X013213Y004908D01*
X013501Y005196D01*
X013811Y005196D01*
X013985Y005370D01*
X014715Y005370D01*
X014895Y005550D01*
X015645Y005550D01*
X015739Y005644D01*
X015739Y005493D01*
X015555Y005310D01*
X015498Y005310D01*
X015403Y005270D01*
X015362Y005230D01*
X015325Y005230D01*
X015175Y005080D01*
X015070Y004975D01*
X015070Y004928D01*
X014998Y004928D01*
X014975Y004905D01*
X014952Y004919D01*
X014917Y004928D01*
X014804Y004928D01*
X014804Y004566D01*
X014776Y004566D01*
X014776Y004928D01*
X014663Y004928D01*
X014628Y004919D01*
X014605Y004905D01*
X014582Y004928D01*
X014250Y004928D01*
X014168Y004846D01*
X014168Y004258D01*
X014250Y004176D01*
X014582Y004176D01*
X014605Y004198D01*
X014628Y004185D01*
X014663Y004176D01*
X014776Y004176D01*
X014776Y004538D01*
X014804Y004538D01*
X014804Y004176D01*
X014917Y004176D01*
X014952Y004185D01*
X014975Y004198D01*
X014998Y004176D01*
X015330Y004176D01*
X015412Y004258D01*
X015412Y004431D01*
X015415Y004444D01*
X015430Y004459D01*
X015430Y004515D01*
X015442Y004569D01*
X015430Y004587D01*
X015430Y004818D01*
X015498Y004790D01*
X015602Y004790D01*
X015697Y004830D01*
X015735Y004867D01*
X015735Y004631D01*
X016150Y004631D01*
X016150Y004551D01*
X016230Y004551D01*
X016230Y004176D01*
X016523Y004176D01*
X016559Y004185D01*
X016591Y004204D01*
X016617Y004230D01*
X016635Y004262D01*
X016645Y004297D01*
X016645Y004551D01*
X016230Y004551D01*
X016230Y004631D01*
X016645Y004631D01*
X016645Y004885D01*
X016635Y004921D01*
X016617Y004953D01*
X016591Y004979D01*
X016559Y004997D01*
X016523Y005007D01*
X016230Y005007D01*
X016230Y004631D01*
X016150Y004631D01*
X016150Y005007D01*
X015857Y005007D01*
X015821Y004997D01*
X015806Y004989D01*
X015810Y004998D01*
X015810Y005055D01*
X015958Y005203D01*
X016370Y005203D01*
X016432Y005265D01*
X016436Y005257D01*
X016462Y005231D01*
X016494Y005213D01*
X016530Y005203D01*
X016725Y005203D01*
X016725Y005500D01*
X016805Y005500D01*
X016805Y005478D02*
X016725Y005478D01*
X016725Y005400D02*
X016805Y005400D01*
X016805Y005321D02*
X016725Y005321D01*
X016725Y005243D02*
X016805Y005243D01*
X016764Y005164D02*
X015919Y005164D01*
X015840Y005086D02*
X016756Y005086D01*
X016756Y005007D02*
X015810Y005007D01*
X015735Y004850D02*
X015718Y004850D01*
X015735Y004772D02*
X015430Y004772D01*
X015430Y004693D02*
X015735Y004693D01*
X015430Y004615D02*
X016150Y004615D01*
X016150Y004551D02*
X015735Y004551D01*
X015735Y004297D01*
X015745Y004262D01*
X015763Y004230D01*
X015789Y004204D01*
X015821Y004185D01*
X015857Y004176D01*
X016150Y004176D01*
X016150Y004551D01*
X016150Y004536D02*
X016230Y004536D01*
X016230Y004458D02*
X016150Y004458D01*
X016150Y004379D02*
X016230Y004379D01*
X016230Y004301D02*
X016150Y004301D01*
X016150Y004222D02*
X016230Y004222D01*
X016609Y004222D02*
X016756Y004222D01*
X016756Y004301D02*
X016645Y004301D01*
X016645Y004379D02*
X017005Y004379D01*
X017005Y004399D02*
X017005Y004687D01*
X017005Y004911D01*
X017063Y004911D01*
X017063Y004399D01*
X017005Y004399D01*
X017005Y004458D02*
X017063Y004458D01*
X017063Y004536D02*
X017005Y004536D01*
X017005Y004615D02*
X017063Y004615D01*
X017063Y004693D02*
X017005Y004693D01*
X017005Y004772D02*
X017063Y004772D01*
X017063Y004850D02*
X017005Y004850D01*
X017005Y004929D02*
X016631Y004929D01*
X016645Y004850D02*
X016756Y004850D01*
X016756Y004772D02*
X016645Y004772D01*
X016645Y004693D02*
X016775Y004693D01*
X016774Y004615D02*
X016230Y004615D01*
X016230Y004693D02*
X016150Y004693D01*
X016150Y004772D02*
X016230Y004772D01*
X016230Y004850D02*
X016150Y004850D01*
X016150Y004929D02*
X016230Y004929D01*
X016409Y005243D02*
X016451Y005243D01*
X017120Y005321D02*
X017985Y005321D01*
X017968Y005243D02*
X017756Y005243D01*
X017824Y005164D02*
X017844Y005164D01*
X017335Y005243D02*
X017235Y005243D01*
X017121Y005400D02*
X017951Y005400D01*
X017950Y005478D02*
X017121Y005478D01*
X016805Y005635D02*
X016725Y005635D01*
X016725Y005714D02*
X016805Y005714D01*
X016805Y005792D02*
X016725Y005792D01*
X016725Y005871D02*
X016805Y005871D01*
X016689Y006100D02*
X016499Y005910D01*
X015750Y005910D01*
X015570Y005730D01*
X014820Y005730D01*
X014640Y005550D01*
X013910Y005550D01*
X013736Y005376D01*
X013426Y005376D01*
X013033Y004983D01*
X013033Y004569D01*
X013268Y004458D02*
X013294Y004458D01*
X013294Y004391D02*
X013591Y004391D01*
X013591Y004708D01*
X013416Y004708D01*
X013380Y004698D01*
X013348Y004680D01*
X013322Y004654D01*
X013304Y004622D01*
X013294Y004586D01*
X013294Y004391D01*
X013210Y004379D02*
X013591Y004379D01*
X013591Y004458D02*
X013671Y004458D01*
X013671Y004391D02*
X013671Y004708D01*
X013847Y004708D01*
X013882Y004698D01*
X013914Y004680D01*
X013940Y004654D01*
X013959Y004622D01*
X013968Y004586D01*
X013968Y004391D01*
X013671Y004391D01*
X013671Y004379D02*
X014168Y004379D01*
X014168Y004301D02*
X013968Y004301D01*
X013968Y004222D02*
X014203Y004222D01*
X013968Y004144D02*
X016765Y004144D01*
X016838Y004065D02*
X013950Y004065D01*
X013938Y003987D02*
X017312Y003987D01*
X017338Y004065D02*
X017230Y004065D01*
X017063Y004065D02*
X017005Y004065D01*
X017005Y004144D02*
X017063Y004144D01*
X017063Y004222D02*
X017005Y004222D01*
X017005Y004301D02*
X017063Y004301D01*
X016756Y004458D02*
X016645Y004458D01*
X016645Y004536D02*
X016756Y004536D01*
X017262Y004655D02*
X017284Y004677D01*
X017288Y004685D01*
X017318Y004655D01*
X017288Y004625D01*
X017284Y004633D01*
X017262Y004655D01*
X018521Y004929D02*
X019067Y004929D01*
X019034Y004850D02*
X018970Y004850D01*
X018984Y004772D02*
X019019Y004772D01*
X019145Y005007D02*
X018597Y005007D01*
X018853Y005086D02*
X020330Y005086D01*
X020940Y005086D02*
X021250Y005086D01*
X021250Y005164D02*
X021076Y005164D01*
X021025Y005129D02*
X021025Y005129D01*
X021151Y005243D02*
X021250Y005243D01*
X021250Y005321D02*
X021199Y005321D01*
X021233Y005400D02*
X021250Y005400D01*
X021250Y005478D02*
X021234Y005478D01*
X021233Y005557D02*
X021250Y005557D01*
X021250Y005635D02*
X021218Y005635D01*
X021250Y005714D02*
X021173Y005714D01*
X021127Y005792D02*
X021250Y005792D01*
X021250Y005871D02*
X021009Y005871D01*
X021120Y005805D02*
X021120Y005805D01*
X021120Y005805D01*
X021250Y005949D02*
X017534Y005949D01*
X017612Y006028D02*
X021250Y006028D01*
X021250Y006106D02*
X019191Y006106D01*
X019269Y006185D02*
X021250Y006185D01*
X021250Y006263D02*
X019348Y006263D01*
X019426Y006342D02*
X021250Y006342D01*
X021250Y006420D02*
X019505Y006420D01*
X019450Y006620D02*
X019110Y006280D01*
X017610Y006280D01*
X017430Y006100D01*
X016689Y006100D01*
X016596Y006282D02*
X016404Y006090D01*
X015670Y006090D01*
X015490Y005910D01*
X014740Y005910D01*
X014560Y005730D01*
X013830Y005730D01*
X013653Y005553D01*
X013347Y005553D01*
X012540Y004746D01*
X012540Y004569D01*
X012776Y004458D02*
X012797Y004458D01*
X012855Y004379D02*
X012718Y004379D01*
X012430Y004301D02*
X013294Y004301D01*
X013294Y004222D02*
X012430Y004222D01*
X012388Y004144D02*
X013294Y004144D01*
X013313Y004065D02*
X012429Y004065D01*
X012430Y003987D02*
X013325Y003987D01*
X013294Y003908D02*
X012142Y003908D01*
X012113Y003905D02*
X012088Y003880D01*
X011891Y003880D01*
X011487Y004284D01*
X011009Y004284D01*
X011009Y004287D01*
X011009Y004287D01*
X011009Y004284D01*
X011009Y004284D01*
X011306Y004284D01*
X011306Y004301D01*
X011796Y004301D01*
X011796Y004221D01*
X011858Y004160D01*
X011850Y004155D01*
X011824Y004129D01*
X011806Y004097D01*
X011796Y004062D01*
X011796Y003934D01*
X012084Y003934D01*
X012084Y003876D01*
X011796Y003876D01*
X011796Y003873D01*
X011306Y003873D01*
X011306Y003986D01*
X011304Y003988D01*
X011306Y003991D01*
X011306Y004182D01*
X011295Y004194D01*
X011306Y004235D01*
X011306Y004284D01*
X011009Y004284D01*
X011009Y004284D01*
X010713Y004284D01*
X010713Y004284D01*
X011009Y004284D01*
X011009Y004284D01*
X011009Y004280D01*
X011009Y004280D01*
X011009Y004284D01*
X011009Y004284D01*
X010711Y004285D02*
X010680Y004317D01*
X010584Y004357D01*
X010481Y004357D01*
X010385Y004317D01*
X010312Y004244D01*
X010273Y004148D01*
X010273Y004045D01*
X010312Y003949D01*
X010385Y003876D01*
X010446Y003851D01*
X010444Y003849D01*
X010385Y003825D01*
X010312Y003752D01*
X010273Y003656D01*
X010273Y003553D01*
X010312Y003457D01*
X010385Y003384D01*
X010481Y003345D01*
X010584Y003345D01*
X010680Y003384D01*
X010711Y003416D01*
X010711Y003401D01*
X010714Y003398D01*
X010711Y003395D01*
X010711Y003204D01*
X010714Y003201D01*
X010711Y003198D01*
X010711Y003007D01*
X010714Y003004D01*
X010711Y003001D01*
X010711Y002869D01*
X010577Y002869D01*
X010576Y002867D01*
X010574Y002869D01*
X010380Y002869D01*
X010379Y002867D01*
X010378Y002869D01*
X010270Y002869D01*
X010270Y002892D01*
X010310Y002933D01*
X010350Y003028D01*
X010350Y003132D01*
X010310Y003227D01*
X010237Y003300D01*
X010142Y003340D01*
X010038Y003340D01*
X009943Y003300D01*
X009912Y003270D01*
X009805Y003270D01*
X009535Y003540D01*
X009115Y003540D01*
X009055Y003479D01*
X008669Y003479D01*
X008669Y003496D01*
X008371Y003496D01*
X008371Y003493D01*
X008371Y003493D01*
X008371Y003496D01*
X008371Y003496D01*
X008074Y003496D01*
X008371Y003496D01*
X008371Y003496D01*
X008371Y003496D01*
X007784Y003496D01*
X007780Y003500D01*
X008673Y003500D01*
X008676Y003496D01*
X008850Y003670D01*
X008669Y003673D02*
X010279Y003673D01*
X010273Y003594D02*
X008665Y003594D01*
X008669Y003598D02*
X008669Y003789D01*
X008666Y003792D01*
X008669Y003794D01*
X008669Y003986D01*
X008666Y003988D01*
X008669Y003991D01*
X008669Y004182D01*
X008666Y004185D01*
X008669Y004188D01*
X008669Y004379D01*
X009520Y004379D01*
X009520Y004378D02*
X009480Y004337D01*
X009440Y004242D01*
X009440Y004138D01*
X009480Y004043D01*
X009553Y003970D01*
X009648Y003930D01*
X009752Y003930D01*
X009847Y003970D01*
X009898Y004020D01*
X009995Y004020D01*
X010100Y004125D01*
X010365Y004390D01*
X010635Y004390D01*
X010711Y004314D01*
X010711Y004285D01*
X010711Y004301D02*
X010696Y004301D01*
X010646Y004379D02*
X010354Y004379D01*
X010369Y004301D02*
X010275Y004301D01*
X010303Y004222D02*
X010197Y004222D01*
X010273Y004144D02*
X010118Y004144D01*
X010040Y004065D02*
X010273Y004065D01*
X010297Y003987D02*
X009864Y003987D01*
X009536Y003987D02*
X008668Y003987D01*
X008669Y004065D02*
X009470Y004065D01*
X009440Y004144D02*
X008669Y004144D01*
X008669Y004222D02*
X009440Y004222D01*
X009464Y004301D02*
X008669Y004301D01*
X008669Y004379D02*
X008666Y004382D01*
X008669Y004385D01*
X008669Y004576D01*
X008666Y004579D01*
X008669Y004582D01*
X008669Y004773D01*
X008666Y004776D01*
X008669Y004779D01*
X008669Y004911D01*
X008803Y004911D01*
X008804Y004913D01*
X008806Y004911D01*
X008892Y004911D01*
X008880Y004882D01*
X008880Y004778D01*
X008920Y004683D01*
X008993Y004610D01*
X009088Y004570D01*
X009192Y004570D01*
X009287Y004610D01*
X009328Y004650D01*
X009515Y004650D01*
X009520Y004655D01*
X009520Y004378D01*
X009520Y004458D02*
X008669Y004458D01*
X008669Y004536D02*
X009520Y004536D01*
X009520Y004615D02*
X009292Y004615D01*
X008988Y004615D02*
X008669Y004615D01*
X008669Y004693D02*
X008915Y004693D01*
X008883Y004772D02*
X008669Y004772D01*
X008669Y004850D02*
X008880Y004850D01*
X009140Y004830D02*
X009440Y004830D01*
X009490Y004880D01*
X009490Y005170D01*
X009493Y005173D01*
X009493Y005209D01*
X009493Y005173D02*
X009493Y005033D01*
X009296Y005209D02*
X009296Y006226D01*
X009550Y006480D01*
X010330Y006480D01*
X010490Y006640D01*
X011190Y006640D01*
X011690Y007140D01*
X011225Y006930D02*
X011190Y007014D01*
X011122Y006851D01*
X011091Y006820D01*
X011115Y006820D01*
X011225Y006930D01*
X011209Y006970D02*
X011171Y006970D01*
X011186Y006891D02*
X011139Y006891D01*
X011460Y006656D02*
X011527Y006656D01*
X011480Y006675D02*
X011589Y006630D01*
X011791Y006630D01*
X011979Y006708D01*
X012122Y006851D01*
X012190Y007014D01*
X012258Y006851D01*
X012330Y006779D01*
X012262Y006711D01*
X012262Y006711D01*
X011816Y006265D01*
X010615Y006265D01*
X010510Y006159D01*
X010465Y006115D01*
X010465Y006273D01*
X010456Y006309D01*
X010440Y006336D01*
X010565Y006460D01*
X011265Y006460D01*
X011370Y006565D01*
X011480Y006675D01*
X011382Y006577D02*
X012128Y006577D01*
X012050Y006499D02*
X011303Y006499D01*
X011640Y006420D02*
X010560Y006420D01*
X010217Y006077D01*
X010187Y006077D01*
X010040Y005930D01*
X010040Y005880D01*
X009887Y005727D01*
X009887Y005209D01*
X009889Y005209D01*
X009889Y005209D01*
X009887Y005209D01*
X009887Y005209D01*
X009887Y005231D01*
X009887Y005231D01*
X009887Y005209D01*
X009887Y005209D01*
X009887Y004911D01*
X009936Y004911D01*
X009976Y004922D01*
X009987Y004911D01*
X010181Y004911D01*
X010182Y004913D01*
X010184Y004911D01*
X010220Y004911D01*
X010213Y004896D01*
X010213Y004793D01*
X010231Y004750D01*
X010215Y004750D01*
X009880Y004415D01*
X009880Y004911D01*
X009887Y004911D01*
X009887Y005209D01*
X009887Y005209D01*
X009885Y005209D01*
X009885Y005209D01*
X009887Y005209D01*
X009887Y005209D01*
X009887Y005164D02*
X009887Y005164D01*
X009887Y005086D02*
X009887Y005086D01*
X009887Y005007D02*
X009887Y005007D01*
X009887Y004929D02*
X009887Y004929D01*
X009880Y004850D02*
X010213Y004850D01*
X010222Y004772D02*
X009880Y004772D01*
X009880Y004693D02*
X010158Y004693D01*
X010080Y004615D02*
X009880Y004615D01*
X009880Y004536D02*
X010001Y004536D01*
X009923Y004458D02*
X009880Y004458D01*
X009920Y004200D02*
X010290Y004570D01*
X010710Y004570D01*
X010790Y004490D01*
X011040Y004490D01*
X011009Y004481D01*
X012000Y004481D01*
X012113Y004417D01*
X011796Y004301D02*
X011306Y004301D01*
X011303Y004222D02*
X011796Y004222D01*
X011838Y004144D02*
X011306Y004144D01*
X011306Y004065D02*
X011797Y004065D01*
X011796Y003987D02*
X011305Y003987D01*
X011306Y003908D02*
X012084Y003908D01*
X012084Y003830D02*
X012142Y003830D01*
X012142Y003751D02*
X012084Y003751D01*
X012084Y003673D02*
X012142Y003673D01*
X012126Y003594D02*
X012680Y003594D01*
X012680Y003516D02*
X012205Y003516D01*
X012283Y003437D02*
X012935Y003437D01*
X012935Y003494D02*
X012680Y003494D01*
X012680Y003678D01*
X012690Y003714D01*
X012708Y003746D01*
X012734Y003772D01*
X012766Y003790D01*
X012802Y003800D01*
X012935Y003800D01*
X012935Y003494D01*
X012935Y003516D02*
X013005Y003516D01*
X013005Y003594D02*
X012935Y003594D01*
X012935Y003673D02*
X013005Y003673D01*
X013005Y003751D02*
X012935Y003751D01*
X012713Y003751D02*
X012430Y003751D01*
X012430Y003830D02*
X013294Y003830D01*
X013294Y003751D02*
X013227Y003751D01*
X013260Y003673D02*
X013294Y003673D01*
X013294Y003594D02*
X013260Y003594D01*
X013260Y003516D02*
X013294Y003516D01*
X013294Y003437D02*
X013005Y003437D01*
X013260Y003359D02*
X013343Y003359D01*
X013260Y003280D02*
X014168Y003280D01*
X014200Y003202D02*
X013248Y003202D01*
X013256Y003123D02*
X014550Y003123D01*
X014572Y003045D02*
X013260Y003045D01*
X013260Y002966D02*
X014626Y002966D01*
X014994Y002966D02*
X016559Y002966D01*
X016550Y003045D02*
X015048Y003045D01*
X015070Y003123D02*
X015767Y003123D01*
X015735Y003202D02*
X015380Y003202D01*
X015412Y003280D02*
X015735Y003280D01*
X016190Y003489D02*
X015203Y003489D01*
X015149Y003489D01*
X014810Y003150D01*
X014842Y003437D02*
X014664Y003437D01*
X014664Y003516D02*
X014916Y003516D01*
X014916Y003594D02*
X014664Y003594D01*
X014664Y003673D02*
X014916Y003673D01*
X014916Y003751D02*
X014664Y003751D01*
X014657Y003830D02*
X014923Y003830D01*
X015405Y003830D02*
X015742Y003830D01*
X015735Y003751D02*
X015412Y003751D01*
X015412Y003673D02*
X015735Y003673D01*
X016190Y003489D02*
X016292Y003505D01*
X016345Y003505D01*
X016810Y003040D01*
X016595Y002888D02*
X013260Y002888D01*
X012970Y002861D02*
X012970Y002699D01*
X017009Y002699D01*
X017180Y002870D01*
X017000Y003280D02*
X016910Y003280D01*
X017000Y003359D02*
X016746Y003359D01*
X016668Y003437D02*
X017000Y003437D01*
X017000Y003516D02*
X016645Y003516D01*
X016645Y003594D02*
X017000Y003594D01*
X017000Y003673D02*
X016645Y003673D01*
X016645Y003751D02*
X017076Y003751D01*
X017155Y003830D02*
X016638Y003830D01*
X017233Y003908D02*
X013968Y003908D01*
X013968Y003830D02*
X014175Y003830D01*
X014168Y003751D02*
X013968Y003751D01*
X013785Y003528D02*
X013631Y003682D01*
X013785Y003528D02*
X014416Y003528D01*
X015164Y003528D02*
X015203Y003489D01*
X015377Y004222D02*
X015771Y004222D01*
X015735Y004301D02*
X015412Y004301D01*
X015412Y004379D02*
X015735Y004379D01*
X015735Y004458D02*
X015428Y004458D01*
X015434Y004536D02*
X015735Y004536D01*
X015250Y004534D02*
X015164Y004552D01*
X015250Y004534D02*
X015250Y004900D01*
X015400Y005050D01*
X015550Y005050D01*
X016040Y005540D01*
X016095Y005540D01*
X015739Y005557D02*
X015651Y005557D01*
X015723Y005478D02*
X014823Y005478D01*
X014744Y005400D02*
X015645Y005400D01*
X015566Y005321D02*
X013936Y005321D01*
X013857Y005243D02*
X015375Y005243D01*
X015259Y005164D02*
X013469Y005164D01*
X013390Y005086D02*
X015181Y005086D01*
X015102Y005007D02*
X013312Y005007D01*
X013233Y004929D02*
X015070Y004929D01*
X014804Y004850D02*
X014776Y004850D01*
X014776Y004772D02*
X014804Y004772D01*
X014804Y004693D02*
X014776Y004693D01*
X014776Y004615D02*
X014804Y004615D01*
X014804Y004536D02*
X014776Y004536D01*
X014776Y004458D02*
X014804Y004458D01*
X014804Y004379D02*
X014776Y004379D01*
X014776Y004301D02*
X014804Y004301D01*
X014804Y004222D02*
X014776Y004222D01*
X014168Y004458D02*
X013968Y004458D01*
X013968Y004536D02*
X014168Y004536D01*
X014168Y004615D02*
X013961Y004615D01*
X013891Y004693D02*
X014168Y004693D01*
X014168Y004772D02*
X013213Y004772D01*
X013213Y004850D02*
X014172Y004850D01*
X013671Y004693D02*
X013591Y004693D01*
X013591Y004615D02*
X013671Y004615D01*
X013671Y004536D02*
X013591Y004536D01*
X013294Y004536D02*
X013293Y004536D01*
X013293Y004615D02*
X013302Y004615D01*
X013263Y004693D02*
X013371Y004693D01*
X012853Y004757D02*
X012812Y004716D01*
X012786Y004654D01*
X012762Y004713D01*
X012853Y004804D01*
X012853Y004757D01*
X012853Y004772D02*
X012820Y004772D01*
X012802Y004693D02*
X012771Y004693D01*
X012216Y004677D02*
X013269Y005731D01*
X013571Y005731D01*
X013750Y005910D01*
X014480Y005910D01*
X014660Y006090D01*
X015410Y006090D01*
X015590Y006270D01*
X016328Y006270D01*
X016517Y006459D01*
X017265Y006459D01*
X017442Y006636D01*
X018186Y006636D01*
X018690Y007140D01*
X018225Y006930D02*
X018190Y007014D01*
X018122Y006851D01*
X018087Y006816D01*
X018112Y006816D01*
X018225Y006930D01*
X018209Y006970D02*
X018171Y006970D01*
X018186Y006891D02*
X018139Y006891D01*
X018443Y006639D02*
X018480Y006675D01*
X018567Y006639D01*
X018443Y006639D01*
X018460Y006656D02*
X018527Y006656D01*
X018813Y006639D02*
X018934Y006639D01*
X019225Y006930D01*
X019190Y007014D01*
X019122Y006851D01*
X018979Y006708D01*
X018813Y006639D01*
X018853Y006656D02*
X018951Y006656D01*
X019005Y006734D02*
X019029Y006734D01*
X019084Y006813D02*
X019108Y006813D01*
X019139Y006891D02*
X019186Y006891D01*
X019171Y006970D02*
X019209Y006970D01*
X019690Y007140D02*
X019009Y006459D01*
X017521Y006459D01*
X017344Y006282D01*
X016596Y006282D01*
X016272Y006450D02*
X016458Y006636D01*
X017186Y006636D01*
X017690Y007140D01*
X017225Y006930D02*
X017190Y007014D01*
X017122Y006851D01*
X017087Y006816D01*
X017112Y006816D01*
X017225Y006930D01*
X017209Y006970D02*
X017171Y006970D01*
X017186Y006891D02*
X017139Y006891D01*
X016690Y007140D02*
X016186Y006636D01*
X015434Y006636D01*
X015257Y006459D01*
X014509Y006459D01*
X014332Y006282D01*
X013603Y006282D01*
X013426Y006105D01*
X012678Y006105D01*
X012452Y005879D01*
X012452Y005612D01*
X012290Y005450D01*
X011984Y005450D01*
X011880Y005553D01*
X010926Y005553D01*
X010674Y005301D01*
X010674Y005209D02*
X011019Y005209D01*
X011020Y005210D01*
X011255Y005321D02*
X011858Y005321D01*
X011909Y005270D02*
X012298Y005270D01*
X012082Y005054D01*
X011232Y005054D01*
X011240Y005063D01*
X011280Y005158D01*
X011280Y005262D01*
X011240Y005357D01*
X011224Y005373D01*
X011806Y005373D01*
X011909Y005270D01*
X012192Y005164D02*
X011280Y005164D01*
X011280Y005243D02*
X012270Y005243D01*
X012113Y005086D02*
X011250Y005086D01*
X011009Y004874D02*
X012157Y004874D01*
X013190Y005908D01*
X013488Y005908D01*
X013680Y006100D01*
X014410Y006100D01*
X014580Y006270D01*
X015330Y006270D01*
X015510Y006450D01*
X016272Y006450D01*
X016112Y006816D02*
X016087Y006816D01*
X016122Y006851D01*
X016190Y007014D01*
X016225Y006930D01*
X016112Y006816D01*
X016139Y006891D02*
X016186Y006891D01*
X016171Y006970D02*
X016209Y006970D01*
X015690Y007140D02*
X015186Y006636D01*
X014430Y006636D01*
X014253Y006459D01*
X013525Y006459D01*
X013347Y006282D01*
X012599Y006282D01*
X012147Y005829D01*
X012157Y005721D01*
X011970Y005908D02*
X012521Y006459D01*
X013269Y006459D01*
X013446Y006636D01*
X014186Y006636D01*
X014690Y007140D01*
X014225Y006930D02*
X014190Y007014D01*
X014122Y006851D01*
X014087Y006816D01*
X014112Y006816D01*
X014225Y006930D01*
X014209Y006970D02*
X014171Y006970D01*
X014186Y006891D02*
X014139Y006891D01*
X013690Y007140D02*
X013186Y006636D01*
X012442Y006636D01*
X011891Y006085D01*
X010690Y006085D01*
X010336Y005731D01*
X010178Y005731D01*
X010084Y005636D01*
X010084Y005209D01*
X010281Y005209D02*
X010281Y005420D01*
X010769Y005908D01*
X011970Y005908D01*
X012632Y005804D02*
X012753Y005925D01*
X012952Y005925D01*
X012632Y005605D01*
X012632Y005804D01*
X012632Y005792D02*
X012820Y005792D01*
X012898Y005871D02*
X012699Y005871D01*
X012741Y005714D02*
X012632Y005714D01*
X012632Y005635D02*
X012663Y005635D01*
X011893Y006342D02*
X010446Y006342D01*
X010465Y006263D02*
X010614Y006263D01*
X010535Y006185D02*
X010465Y006185D01*
X010457Y006106D02*
X010216Y006106D01*
X010457Y006106D01*
X010399Y006049D01*
X010216Y006049D01*
X010216Y006106D01*
X009933Y005822D02*
X009938Y005814D01*
X009964Y005788D01*
X009975Y005782D01*
X009904Y005711D01*
X009904Y005506D01*
X009887Y005506D01*
X009887Y005268D01*
X009887Y005268D01*
X009887Y005506D01*
X009870Y005506D01*
X009870Y005760D01*
X009871Y005760D01*
X009933Y005822D01*
X009960Y005792D02*
X009903Y005792D01*
X009907Y005714D02*
X009870Y005714D01*
X009870Y005635D02*
X009904Y005635D01*
X009904Y005557D02*
X009870Y005557D01*
X009887Y005478D02*
X009887Y005478D01*
X009887Y005400D02*
X009887Y005400D01*
X009887Y005321D02*
X009887Y005321D01*
X009700Y005239D02*
X009690Y005209D01*
X009690Y006063D01*
X009676Y006077D01*
X009450Y006640D02*
X009099Y006289D01*
X009099Y005209D01*
X008903Y005209D02*
X008903Y006403D01*
X009690Y007140D01*
X009219Y006945D02*
X009190Y007014D01*
X009125Y006857D01*
X009219Y006945D01*
X009209Y006970D02*
X009171Y006970D01*
X009161Y006891D02*
X009139Y006891D01*
X008706Y007074D02*
X008690Y007140D01*
X008706Y007074D02*
X008706Y005209D01*
X008511Y005243D02*
X007870Y005243D01*
X007870Y005321D02*
X008511Y005321D01*
X008511Y005400D02*
X007870Y005400D01*
X007870Y005478D02*
X008526Y005478D01*
X008526Y005423D02*
X008511Y005408D01*
X008511Y005067D01*
X008171Y005067D01*
X008158Y005054D01*
X007870Y005054D01*
X007870Y005055D01*
X007870Y006663D01*
X007979Y006708D01*
X008122Y006851D01*
X008190Y007014D01*
X008258Y006851D01*
X008401Y006708D01*
X008526Y006656D01*
X008526Y005423D01*
X008526Y005557D02*
X007870Y005557D01*
X007870Y005635D02*
X008526Y005635D01*
X008526Y005714D02*
X007870Y005714D01*
X007870Y005792D02*
X008526Y005792D01*
X008526Y005871D02*
X007870Y005871D01*
X007870Y005949D02*
X008526Y005949D01*
X008526Y006028D02*
X007870Y006028D01*
X007870Y006106D02*
X008526Y006106D01*
X008526Y006185D02*
X007870Y006185D01*
X007870Y006263D02*
X008526Y006263D01*
X008526Y006342D02*
X007870Y006342D01*
X007870Y006420D02*
X008526Y006420D01*
X008526Y006499D02*
X007870Y006499D01*
X007870Y006577D02*
X008526Y006577D01*
X008526Y006656D02*
X007870Y006656D01*
X008005Y006734D02*
X008375Y006734D01*
X008296Y006813D02*
X008084Y006813D01*
X008139Y006891D02*
X008241Y006891D01*
X008209Y006970D02*
X008171Y006970D01*
X007690Y007140D02*
X007690Y004980D01*
X007796Y004874D01*
X008371Y004874D01*
X008511Y005086D02*
X007870Y005086D01*
X007870Y005164D02*
X008511Y005164D01*
X007723Y004677D02*
X007470Y004930D01*
X007470Y006360D01*
X006690Y007140D01*
X007155Y006930D02*
X007190Y007014D01*
X007258Y006851D01*
X007401Y006708D01*
X007510Y006663D01*
X007510Y006575D01*
X007155Y006930D01*
X007171Y006970D02*
X007209Y006970D01*
X007194Y006891D02*
X007241Y006891D01*
X007272Y006813D02*
X007296Y006813D01*
X007351Y006734D02*
X007375Y006734D01*
X007429Y006656D02*
X007510Y006656D01*
X007508Y006577D02*
X007510Y006577D01*
X007270Y006310D02*
X006960Y006620D01*
X006210Y006620D01*
X005690Y007140D01*
X006155Y006930D02*
X006190Y007014D01*
X006258Y006851D01*
X006309Y006800D01*
X006285Y006800D01*
X006155Y006930D01*
X006171Y006970D02*
X006209Y006970D01*
X006194Y006891D02*
X006241Y006891D01*
X006272Y006813D02*
X006296Y006813D01*
X005965Y006610D02*
X005900Y006675D01*
X005791Y006630D01*
X005589Y006630D01*
X005401Y006708D01*
X005258Y006851D01*
X005190Y007014D01*
X005155Y006930D01*
X005475Y006610D01*
X005965Y006610D01*
X005920Y006656D02*
X005853Y006656D01*
X005527Y006656D02*
X005429Y006656D01*
X005375Y006734D02*
X005351Y006734D01*
X005296Y006813D02*
X005272Y006813D01*
X005241Y006891D02*
X005194Y006891D01*
X005209Y006970D02*
X005171Y006970D01*
X004690Y007140D02*
X005400Y006430D01*
X006890Y006430D01*
X007080Y006240D01*
X007080Y004790D01*
X007586Y004284D01*
X008371Y004284D01*
X008371Y004481D02*
X007649Y004481D01*
X007270Y004860D01*
X007270Y006310D01*
X006890Y006170D02*
X006810Y006250D01*
X005310Y006250D01*
X004950Y006610D01*
X004220Y006610D01*
X003690Y007140D01*
X004155Y006930D02*
X004190Y007014D01*
X004258Y006851D01*
X004319Y006790D01*
X004295Y006790D01*
X004155Y006930D01*
X004171Y006970D02*
X004209Y006970D01*
X004194Y006891D02*
X004241Y006891D01*
X004272Y006813D02*
X004296Y006813D01*
X003965Y006610D02*
X003900Y006675D01*
X003791Y006630D01*
X003589Y006630D01*
X003401Y006708D01*
X003258Y006851D01*
X003190Y007014D01*
X003155Y006930D01*
X003475Y006610D01*
X003965Y006610D01*
X003920Y006656D02*
X003853Y006656D01*
X003527Y006656D02*
X003429Y006656D01*
X003375Y006734D02*
X003351Y006734D01*
X003296Y006813D02*
X003272Y006813D01*
X003241Y006891D02*
X003194Y006891D01*
X003209Y006970D02*
X003171Y006970D01*
X002690Y007140D02*
X003400Y006430D01*
X004870Y006430D01*
X005230Y006070D01*
X006550Y006070D01*
X006700Y005920D01*
X006700Y004640D01*
X007450Y003890D01*
X008371Y003890D01*
X008371Y004087D02*
X007513Y004087D01*
X006890Y004710D01*
X006890Y006170D01*
X006510Y005630D02*
X006250Y005890D01*
X005150Y005890D01*
X004790Y006250D01*
X002580Y006250D01*
X001690Y007140D01*
X001180Y007127D02*
X001130Y007127D01*
X001130Y007205D02*
X001180Y007205D01*
X001180Y007284D02*
X001130Y007284D01*
X001130Y007362D02*
X001180Y007362D01*
X001180Y007441D02*
X001130Y007441D01*
X001130Y007519D02*
X001180Y007519D01*
X001210Y007598D02*
X001130Y007598D01*
X001130Y007676D02*
X021250Y007676D01*
X021250Y007598D02*
X020918Y007598D01*
X021032Y007519D02*
X021250Y007519D01*
X021250Y007441D02*
X021111Y007441D01*
X021150Y007362D02*
X021250Y007362D01*
X021250Y007284D02*
X021183Y007284D01*
X021200Y007205D02*
X021250Y007205D01*
X021250Y007127D02*
X021200Y007127D01*
X021200Y007048D02*
X021250Y007048D01*
X021250Y006970D02*
X021171Y006970D01*
X021139Y006891D02*
X021250Y006891D01*
X021250Y006813D02*
X021084Y006813D01*
X021005Y006734D02*
X021250Y006734D01*
X021250Y006656D02*
X020853Y006656D01*
X020462Y006577D02*
X021250Y006577D01*
X021250Y006499D02*
X020383Y006499D01*
X020250Y006620D02*
X020690Y007060D01*
X020690Y007140D01*
X020209Y006970D02*
X020171Y006970D01*
X020190Y007014D02*
X020249Y006873D01*
X020175Y006800D01*
X020071Y006800D01*
X020122Y006851D01*
X020190Y007014D01*
X020139Y006891D02*
X020241Y006891D01*
X020188Y006813D02*
X020084Y006813D01*
X020250Y006620D02*
X019450Y006620D01*
X019197Y007284D02*
X019183Y007284D01*
X019150Y007362D02*
X019230Y007362D01*
X019269Y007441D02*
X019111Y007441D01*
X019032Y007519D02*
X019348Y007519D01*
X019462Y007598D02*
X018918Y007598D01*
X018462Y007598D02*
X017918Y007598D01*
X018032Y007519D02*
X018348Y007519D01*
X018269Y007441D02*
X018111Y007441D01*
X018150Y007362D02*
X018230Y007362D01*
X018197Y007284D02*
X018183Y007284D01*
X017462Y007598D02*
X016918Y007598D01*
X017032Y007519D02*
X017348Y007519D01*
X017269Y007441D02*
X017111Y007441D01*
X017150Y007362D02*
X017230Y007362D01*
X017197Y007284D02*
X017183Y007284D01*
X016462Y007598D02*
X015918Y007598D01*
X016032Y007519D02*
X016348Y007519D01*
X016269Y007441D02*
X016111Y007441D01*
X016150Y007362D02*
X016230Y007362D01*
X016197Y007284D02*
X016183Y007284D01*
X015462Y007598D02*
X014918Y007598D01*
X015032Y007519D02*
X015348Y007519D01*
X015269Y007441D02*
X015111Y007441D01*
X015150Y007362D02*
X015230Y007362D01*
X015197Y007284D02*
X015183Y007284D01*
X015190Y007014D02*
X015225Y006930D01*
X015112Y006816D01*
X015087Y006816D01*
X015122Y006851D01*
X015190Y007014D01*
X015171Y006970D02*
X015209Y006970D01*
X015186Y006891D02*
X015139Y006891D01*
X014197Y007284D02*
X014183Y007284D01*
X014150Y007362D02*
X014230Y007362D01*
X014269Y007441D02*
X014111Y007441D01*
X014032Y007519D02*
X014348Y007519D01*
X014462Y007598D02*
X013918Y007598D01*
X013462Y007598D02*
X012918Y007598D01*
X013032Y007519D02*
X013348Y007519D01*
X013269Y007441D02*
X013111Y007441D01*
X013150Y007362D02*
X013230Y007362D01*
X013197Y007284D02*
X013183Y007284D01*
X013190Y007014D02*
X013225Y006930D01*
X013112Y006816D01*
X013087Y006816D01*
X013122Y006851D01*
X013190Y007014D01*
X013171Y006970D02*
X013209Y006970D01*
X013186Y006891D02*
X013139Y006891D01*
X012296Y006813D02*
X012084Y006813D01*
X012139Y006891D02*
X012241Y006891D01*
X012209Y006970D02*
X012171Y006970D01*
X012285Y006734D02*
X012005Y006734D01*
X011853Y006656D02*
X012207Y006656D01*
X011971Y006420D02*
X010525Y006420D01*
X010190Y006640D02*
X010690Y007140D01*
X010209Y006970D02*
X010171Y006970D01*
X010190Y007014D02*
X010225Y006930D01*
X010115Y006820D01*
X010091Y006820D01*
X010122Y006851D01*
X010190Y007014D01*
X010186Y006891D02*
X010139Y006891D01*
X010190Y006640D02*
X009450Y006640D01*
X008954Y006697D02*
X008886Y006669D01*
X008886Y006633D01*
X008954Y006697D01*
X008909Y006656D02*
X008886Y006656D01*
X009183Y007284D02*
X009197Y007284D01*
X009230Y007362D02*
X009150Y007362D01*
X009111Y007441D02*
X009269Y007441D01*
X009348Y007519D02*
X009032Y007519D01*
X008918Y007598D02*
X009462Y007598D01*
X009918Y007598D02*
X010462Y007598D01*
X010348Y007519D02*
X010032Y007519D01*
X010111Y007441D02*
X010269Y007441D01*
X010230Y007362D02*
X010150Y007362D01*
X010183Y007284D02*
X010197Y007284D01*
X011032Y007519D02*
X011348Y007519D01*
X011269Y007441D02*
X011111Y007441D01*
X011150Y007362D02*
X011230Y007362D01*
X011197Y007284D02*
X011183Y007284D01*
X010918Y007598D02*
X011462Y007598D01*
X011918Y007598D02*
X012462Y007598D01*
X012348Y007519D02*
X012032Y007519D01*
X012111Y007441D02*
X012269Y007441D01*
X012230Y007362D02*
X012150Y007362D01*
X012183Y007284D02*
X012197Y007284D01*
X008462Y007598D02*
X007918Y007598D01*
X008032Y007519D02*
X008348Y007519D01*
X008269Y007441D02*
X008111Y007441D01*
X008150Y007362D02*
X008230Y007362D01*
X008197Y007284D02*
X008183Y007284D01*
X007348Y007519D02*
X007032Y007519D01*
X007111Y007441D02*
X007269Y007441D01*
X007230Y007362D02*
X007150Y007362D01*
X007183Y007284D02*
X007197Y007284D01*
X007462Y007598D02*
X006918Y007598D01*
X006462Y007598D02*
X005918Y007598D01*
X006032Y007519D02*
X006348Y007519D01*
X006269Y007441D02*
X006111Y007441D01*
X006150Y007362D02*
X006230Y007362D01*
X006197Y007284D02*
X006183Y007284D01*
X005348Y007519D02*
X005032Y007519D01*
X005111Y007441D02*
X005269Y007441D01*
X005230Y007362D02*
X005150Y007362D01*
X005183Y007284D02*
X005197Y007284D01*
X005462Y007598D02*
X004918Y007598D01*
X004462Y007598D02*
X003918Y007598D01*
X004032Y007519D02*
X004348Y007519D01*
X004269Y007441D02*
X004111Y007441D01*
X004150Y007362D02*
X004230Y007362D01*
X004197Y007284D02*
X004183Y007284D01*
X003348Y007519D02*
X003032Y007519D01*
X003111Y007441D02*
X003269Y007441D01*
X003230Y007362D02*
X003150Y007362D01*
X003183Y007284D02*
X003197Y007284D01*
X003462Y007598D02*
X002918Y007598D01*
X002462Y007598D02*
X002170Y007598D01*
X002200Y007519D02*
X002348Y007519D01*
X002269Y007441D02*
X002200Y007441D01*
X002200Y007362D02*
X002230Y007362D01*
X002200Y006990D02*
X002200Y006885D01*
X002655Y006430D01*
X003145Y006430D01*
X002900Y006675D01*
X002791Y006630D01*
X002589Y006630D01*
X002401Y006708D01*
X002258Y006851D01*
X002200Y006990D01*
X002200Y006970D02*
X002209Y006970D01*
X002200Y006891D02*
X002241Y006891D01*
X002272Y006813D02*
X002296Y006813D01*
X002351Y006734D02*
X002375Y006734D01*
X002429Y006656D02*
X002527Y006656D01*
X002508Y006577D02*
X002998Y006577D01*
X002920Y006656D02*
X002853Y006656D01*
X003077Y006499D02*
X002586Y006499D01*
X002234Y006342D02*
X001130Y006342D01*
X001130Y006420D02*
X002155Y006420D01*
X002077Y006499D02*
X001130Y006499D01*
X001130Y006577D02*
X001998Y006577D01*
X002312Y006263D02*
X001130Y006263D01*
X001130Y006185D02*
X002391Y006185D01*
X002469Y006106D02*
X001130Y006106D01*
X001130Y006028D02*
X004758Y006028D01*
X004836Y005949D02*
X001130Y005949D01*
X001130Y005871D02*
X004915Y005871D01*
X004993Y005792D02*
X001130Y005792D01*
X001130Y005714D02*
X005072Y005714D01*
X004993Y005400D02*
X004827Y005400D01*
X004905Y005321D02*
X004915Y005321D01*
X005327Y005400D02*
X006330Y005400D01*
X006330Y005478D02*
X002977Y005478D01*
X002977Y005400D02*
X003993Y005400D01*
X003915Y005321D02*
X003014Y005321D01*
X003092Y005243D02*
X003895Y005243D01*
X003895Y005164D02*
X003171Y005164D01*
X003190Y005086D02*
X003895Y005086D01*
X003895Y005007D02*
X003190Y005007D01*
X003190Y004929D02*
X003895Y004929D01*
X003895Y004850D02*
X003190Y004850D01*
X003190Y004772D02*
X003857Y004772D01*
X003778Y004693D02*
X003190Y004693D01*
X003190Y004615D02*
X003607Y004615D01*
X003508Y004536D02*
X003190Y004536D01*
X003190Y004458D02*
X003471Y004458D01*
X003460Y004379D02*
X003190Y004379D01*
X003190Y004301D02*
X003472Y004301D01*
X003510Y004222D02*
X003190Y004222D01*
X003190Y004144D02*
X003612Y004144D01*
X003828Y004144D02*
X004130Y004144D01*
X004130Y004065D02*
X003190Y004065D01*
X003190Y003987D02*
X004154Y003987D01*
X004206Y003908D02*
X003190Y003908D01*
X003190Y003830D02*
X003953Y003830D01*
X003905Y003751D02*
X003190Y003751D01*
X003190Y003673D02*
X003895Y003673D01*
X003895Y003594D02*
X003201Y003594D01*
X003279Y003516D02*
X003895Y003516D01*
X003895Y003437D02*
X003358Y003437D01*
X003436Y003359D02*
X003895Y003359D01*
X003895Y003280D02*
X003515Y003280D01*
X003593Y003202D02*
X003895Y003202D01*
X003895Y003123D02*
X003672Y003123D01*
X003750Y003045D02*
X003895Y003045D01*
X003895Y002966D02*
X003829Y002966D01*
X003476Y002809D02*
X002947Y002809D01*
X002947Y002731D02*
X003555Y002731D01*
X003633Y002652D02*
X002947Y002652D01*
X002900Y002574D02*
X003712Y002574D01*
X003810Y002730D02*
X003010Y003530D01*
X003010Y005070D01*
X002755Y005325D01*
X002640Y005325D01*
X002303Y005321D02*
X001979Y005321D01*
X001901Y005321D02*
X001130Y005321D01*
X001130Y005243D02*
X001643Y005243D01*
X001643Y005164D02*
X001130Y005164D01*
X001130Y005086D02*
X001649Y005086D01*
X001712Y005007D02*
X001130Y005007D01*
X001130Y004929D02*
X001661Y004929D01*
X001643Y004850D02*
X001130Y004850D01*
X001130Y004772D02*
X001643Y004772D01*
X001643Y004693D02*
X001130Y004693D01*
X001130Y004615D02*
X001643Y004615D01*
X001643Y004536D02*
X001130Y004536D01*
X001130Y004458D02*
X001664Y004458D01*
X001130Y004379D02*
X002305Y004379D01*
X002303Y004458D02*
X002216Y004458D01*
X002383Y004301D02*
X001130Y004301D01*
X001130Y004222D02*
X002477Y004222D01*
X002398Y004144D02*
X001130Y004144D01*
X001130Y004065D02*
X002366Y004065D01*
X002360Y003987D02*
X001130Y003987D01*
X001130Y003908D02*
X002342Y003908D01*
X002273Y003830D02*
X001130Y003830D01*
X001130Y003751D02*
X001660Y003751D01*
X001652Y003737D02*
X001643Y003701D01*
X001643Y003564D01*
X001901Y003564D01*
X001901Y003823D01*
X001764Y003823D01*
X001728Y003813D01*
X001697Y003795D01*
X001670Y003769D01*
X001652Y003737D01*
X001643Y003673D02*
X001130Y003673D01*
X001130Y003594D02*
X001643Y003594D01*
X001901Y003594D02*
X001979Y003594D01*
X001979Y003516D02*
X002273Y003516D01*
X002273Y003594D02*
X002237Y003594D01*
X002237Y003673D02*
X002273Y003673D01*
X002273Y003751D02*
X002220Y003751D01*
X001979Y003751D02*
X001901Y003751D01*
X001901Y003673D02*
X001979Y003673D01*
X001901Y003516D02*
X001130Y003516D01*
X001130Y003437D02*
X001643Y003437D01*
X001643Y003359D02*
X001130Y003359D01*
X001130Y003280D02*
X001672Y003280D01*
X001694Y003202D02*
X001130Y003202D01*
X001130Y003123D02*
X001643Y003123D01*
X001643Y003045D02*
X001130Y003045D01*
X001130Y002966D02*
X001643Y002966D01*
X001643Y002888D02*
X001130Y002888D01*
X001130Y002809D02*
X001643Y002809D01*
X001643Y002731D02*
X001130Y002731D01*
X001130Y002652D02*
X001710Y002652D01*
X002170Y002652D02*
X002273Y002652D01*
X002273Y002731D02*
X002237Y002731D01*
X002320Y002574D02*
X001130Y002574D01*
X001130Y002495D02*
X005670Y002495D01*
X005592Y002417D02*
X001130Y002417D01*
X001130Y002338D02*
X004813Y002338D01*
X004735Y002260D02*
X001130Y002260D01*
X001130Y002181D02*
X002476Y002181D01*
X002398Y002103D02*
X001130Y002103D01*
X001130Y002024D02*
X002319Y002024D01*
X002241Y001946D02*
X001130Y001946D01*
X001130Y001867D02*
X002162Y001867D01*
X002084Y001789D02*
X001130Y001789D01*
X001130Y001710D02*
X002005Y001710D01*
X002436Y001632D02*
X002544Y001632D01*
X002589Y001650D02*
X002401Y001572D01*
X002258Y001429D01*
X002200Y001290D01*
X002200Y001395D01*
X002645Y001840D01*
X003135Y001840D01*
X002900Y001605D01*
X002791Y001650D01*
X002589Y001650D01*
X002515Y001710D02*
X003005Y001710D01*
X002927Y001632D02*
X002836Y001632D01*
X002593Y001789D02*
X003084Y001789D01*
X003390Y001840D02*
X002690Y001140D01*
X003155Y001350D02*
X003465Y001660D01*
X003955Y001660D01*
X003900Y001605D01*
X003791Y001650D01*
X003589Y001650D01*
X003401Y001572D01*
X003258Y001429D01*
X003190Y001266D01*
X003155Y001350D01*
X003168Y001318D02*
X003212Y001318D01*
X003201Y001396D02*
X003244Y001396D01*
X003279Y001475D02*
X003303Y001475D01*
X003358Y001553D02*
X003382Y001553D01*
X003436Y001632D02*
X003544Y001632D01*
X003390Y001840D02*
X004830Y001840D01*
X005020Y002030D01*
X005740Y002030D01*
X005900Y002190D01*
X006670Y002190D01*
X006890Y002410D01*
X007670Y002410D01*
X008166Y002906D01*
X008371Y002906D01*
X008511Y002713D02*
X008227Y002713D01*
X007905Y002390D01*
X008485Y002390D01*
X008511Y002415D01*
X008511Y002713D01*
X008511Y002652D02*
X008167Y002652D01*
X008088Y002574D02*
X008511Y002574D01*
X008511Y002495D02*
X008010Y002495D01*
X007931Y002417D02*
X008511Y002417D01*
X008706Y002356D02*
X008560Y002210D01*
X006980Y002210D01*
X006780Y002010D01*
X006030Y002010D01*
X005850Y001830D01*
X005110Y001830D01*
X004920Y001640D01*
X004190Y001640D01*
X003690Y001140D01*
X004155Y001350D02*
X004265Y001460D01*
X004289Y001460D01*
X004258Y001429D01*
X004190Y001266D01*
X004155Y001350D01*
X004168Y001318D02*
X004212Y001318D01*
X004201Y001396D02*
X004244Y001396D01*
X003927Y001632D02*
X003836Y001632D01*
X004750Y002020D02*
X002570Y002020D01*
X001690Y001140D01*
X001180Y001161D02*
X001130Y001161D01*
X001130Y001239D02*
X001180Y001239D01*
X001180Y001318D02*
X001130Y001318D01*
X001130Y001396D02*
X001180Y001396D01*
X001180Y001475D02*
X001130Y001475D01*
X001130Y001553D02*
X001180Y001553D01*
X001130Y001632D02*
X001244Y001632D01*
X002201Y001396D02*
X002244Y001396D01*
X002212Y001318D02*
X002200Y001318D01*
X002279Y001475D02*
X002303Y001475D01*
X002358Y001553D02*
X002382Y001553D01*
X001180Y001082D02*
X001130Y001082D01*
X001130Y001004D02*
X001180Y001004D01*
X001180Y000925D02*
X001130Y000925D01*
X001130Y000847D02*
X001180Y000847D01*
X001180Y000768D02*
X001130Y000768D01*
X001130Y000690D02*
X001203Y000690D01*
X002177Y000690D02*
X002445Y000690D01*
X002341Y000768D02*
X002200Y000768D01*
X002200Y000847D02*
X002262Y000847D01*
X002227Y000925D02*
X002200Y000925D01*
X002935Y000690D02*
X003445Y000690D01*
X003341Y000768D02*
X003039Y000768D01*
X003118Y000847D02*
X003262Y000847D01*
X003227Y000925D02*
X003153Y000925D01*
X003185Y001004D02*
X003195Y001004D01*
X003935Y000690D02*
X004445Y000690D01*
X004341Y000768D02*
X004039Y000768D01*
X004118Y000847D02*
X004262Y000847D01*
X004227Y000925D02*
X004153Y000925D01*
X004185Y001004D02*
X004195Y001004D01*
X004690Y001140D02*
X005200Y001650D01*
X005930Y001650D01*
X006100Y001820D01*
X006850Y001820D01*
X007060Y002030D01*
X008630Y002030D01*
X008903Y002303D01*
X008903Y002571D01*
X009099Y002571D02*
X009099Y002239D01*
X008700Y001840D01*
X007140Y001840D01*
X006940Y001640D01*
X006190Y001640D01*
X005690Y001140D01*
X006155Y001350D02*
X006265Y001460D01*
X006289Y001460D01*
X006258Y001429D01*
X006190Y001266D01*
X006155Y001350D01*
X006168Y001318D02*
X006212Y001318D01*
X006201Y001396D02*
X006244Y001396D01*
X007053Y001498D02*
X007120Y001565D01*
X007215Y001660D01*
X007955Y001660D01*
X007900Y001605D01*
X007791Y001650D01*
X007589Y001650D01*
X007401Y001572D01*
X007258Y001429D01*
X007190Y001266D01*
X007122Y001429D01*
X007053Y001498D01*
X007077Y001475D02*
X007303Y001475D01*
X007244Y001396D02*
X007136Y001396D01*
X007168Y001318D02*
X007212Y001318D01*
X007690Y001140D02*
X008210Y001660D01*
X008800Y001660D01*
X009493Y002353D01*
X009493Y002571D01*
X009296Y002571D02*
X009296Y002994D01*
X009290Y003000D01*
X009058Y003119D02*
X009030Y003052D01*
X009030Y002948D01*
X009063Y002869D01*
X009002Y002869D01*
X009001Y002867D01*
X009000Y002869D01*
X008806Y002869D01*
X008804Y002867D01*
X008803Y002869D01*
X008669Y002869D01*
X008669Y003001D01*
X008666Y003004D01*
X008669Y003007D01*
X008669Y003119D01*
X009058Y003119D01*
X009030Y003045D02*
X008669Y003045D01*
X008669Y002966D02*
X009030Y002966D01*
X009055Y002888D02*
X008669Y002888D01*
X008371Y003103D02*
X008093Y003103D01*
X007590Y002600D01*
X006790Y002600D01*
X006590Y002400D01*
X005830Y002400D01*
X005660Y002230D01*
X004960Y002230D01*
X004750Y002020D01*
X005138Y002574D02*
X005749Y002574D01*
X005443Y002652D02*
X005217Y002652D01*
X005295Y002731D02*
X005365Y002731D01*
X005530Y002820D02*
X006244Y002820D01*
X006250Y002814D01*
X006374Y002790D01*
X007500Y002790D01*
X008009Y003299D01*
X008371Y003299D01*
X009129Y003299D01*
X009190Y003360D01*
X009460Y003360D01*
X009730Y003090D01*
X010080Y003090D01*
X010090Y003080D01*
X010090Y002537D01*
X010084Y002571D01*
X009889Y002571D02*
X009887Y002571D01*
X009887Y002571D01*
X009887Y002274D01*
X009936Y002274D01*
X009976Y002284D01*
X009987Y002274D01*
X010101Y002274D01*
X010101Y001805D01*
X009900Y001605D01*
X009791Y001650D01*
X009589Y001650D01*
X009401Y001572D01*
X009258Y001429D01*
X009190Y001266D01*
X009155Y001350D01*
X009360Y001555D01*
X009360Y001705D01*
X009765Y002110D01*
X009870Y002215D01*
X009870Y002274D01*
X009887Y002274D01*
X009887Y002571D01*
X009887Y002571D01*
X009889Y002571D01*
X009889Y002571D01*
X009887Y002571D02*
X009887Y002571D01*
X009887Y002869D01*
X009910Y002869D01*
X009910Y002892D01*
X009892Y002910D01*
X009655Y002910D01*
X009550Y003015D01*
X009550Y003015D01*
X009550Y002948D01*
X009517Y002869D01*
X009590Y002869D01*
X009592Y002867D01*
X009593Y002869D01*
X009787Y002869D01*
X009798Y002858D01*
X009837Y002869D01*
X009887Y002869D01*
X009887Y002571D01*
X009885Y002571D01*
X009885Y002571D01*
X009887Y002571D01*
X009887Y002571D01*
X009887Y002574D02*
X009887Y002574D01*
X009887Y002652D02*
X009887Y002652D01*
X009887Y002731D02*
X009887Y002731D01*
X009887Y002809D02*
X009887Y002809D01*
X009910Y002888D02*
X009525Y002888D01*
X009550Y002966D02*
X009599Y002966D01*
X010270Y002888D02*
X010711Y002888D01*
X010711Y002966D02*
X010324Y002966D01*
X010350Y003045D02*
X010711Y003045D01*
X010711Y003123D02*
X010350Y003123D01*
X010321Y003202D02*
X010714Y003202D01*
X010711Y003280D02*
X010258Y003280D01*
X010447Y003359D02*
X009716Y003359D01*
X009638Y003437D02*
X010332Y003437D01*
X010288Y003516D02*
X009559Y003516D01*
X009091Y003516D02*
X008669Y003516D01*
X008669Y003496D02*
X008669Y003545D01*
X008657Y003586D01*
X008669Y003598D01*
X008669Y003496D02*
X008371Y003496D01*
X008371Y003500D01*
X008371Y003500D01*
X008371Y003496D01*
X008371Y003496D01*
X008371Y003693D02*
X007387Y003693D01*
X006510Y004570D01*
X006510Y005630D01*
X006329Y005557D02*
X002977Y005557D01*
X002941Y005635D02*
X006250Y005635D01*
X006330Y005321D02*
X005405Y005321D01*
X005425Y005243D02*
X006330Y005243D01*
X006330Y005164D02*
X005425Y005164D01*
X005425Y005086D02*
X006330Y005086D01*
X006330Y005007D02*
X005425Y005007D01*
X005425Y004929D02*
X006330Y004929D01*
X006330Y004850D02*
X005425Y004850D01*
X005425Y004772D02*
X006330Y004772D01*
X006330Y004693D02*
X005482Y004693D01*
X005560Y004615D02*
X006330Y004615D01*
X006330Y004536D02*
X005639Y004536D01*
X005717Y004458D02*
X006368Y004458D01*
X006446Y004379D02*
X005796Y004379D01*
X005874Y004301D02*
X006525Y004301D01*
X006603Y004222D02*
X006049Y004222D01*
X006144Y004144D02*
X006682Y004144D01*
X006760Y004065D02*
X006180Y004065D01*
X006190Y003987D02*
X006839Y003987D01*
X006917Y003908D02*
X006177Y003908D01*
X006137Y003830D02*
X006996Y003830D01*
X007074Y003751D02*
X006032Y003751D01*
X005828Y003751D02*
X005425Y003751D01*
X005425Y003673D02*
X007153Y003673D01*
X007231Y003594D02*
X006481Y003594D01*
X006446Y003604D01*
X006279Y003604D01*
X006279Y003355D01*
X006567Y003355D01*
X006567Y003482D01*
X006558Y003518D01*
X006539Y003550D01*
X006513Y003576D01*
X006481Y003594D01*
X006558Y003516D02*
X007310Y003516D01*
X007735Y003280D02*
X006567Y003280D01*
X006567Y003202D02*
X007657Y003202D01*
X007578Y003123D02*
X006551Y003123D01*
X006533Y003045D02*
X007500Y003045D01*
X007814Y003359D02*
X006567Y003359D01*
X006567Y003437D02*
X007892Y003437D01*
X008669Y003751D02*
X010312Y003751D01*
X010396Y003830D02*
X008669Y003830D01*
X008669Y003908D02*
X010354Y003908D01*
X010542Y004087D02*
X010533Y004097D01*
X010542Y004087D02*
X011009Y004087D01*
X011009Y003890D02*
X010739Y003890D01*
X010533Y003683D01*
X010533Y003605D01*
X011009Y003693D02*
X011772Y003693D01*
X012767Y002699D01*
X012970Y002699D01*
X012658Y002502D02*
X011664Y003496D01*
X011009Y003496D01*
X010711Y003359D02*
X010618Y003359D01*
X011009Y003299D02*
X011601Y003299D01*
X012570Y002330D01*
X014160Y002330D01*
X014690Y001800D01*
X014690Y001140D01*
X015168Y001318D02*
X015212Y001318D01*
X015244Y001396D02*
X015136Y001396D01*
X015077Y001475D02*
X015303Y001475D01*
X015382Y001553D02*
X014998Y001553D01*
X014870Y001632D02*
X015544Y001632D01*
X015836Y001632D02*
X016404Y001632D01*
X016391Y001553D02*
X015998Y001553D01*
X016077Y001475D02*
X016303Y001475D01*
X016248Y001396D02*
X016136Y001396D01*
X016168Y001318D02*
X016211Y001318D01*
X016193Y001259D02*
X016193Y001259D01*
X016650Y001082D02*
X016730Y001082D01*
X016730Y001004D02*
X016650Y001004D01*
X016650Y000925D02*
X016730Y000925D01*
X016730Y000847D02*
X016650Y000847D01*
X016650Y000768D02*
X016730Y000768D01*
X016730Y000690D02*
X016650Y000690D01*
X016650Y000630D02*
X016650Y000630D01*
X016451Y000690D02*
X015935Y000690D01*
X016039Y000768D02*
X016341Y000768D01*
X016273Y000847D02*
X016118Y000847D01*
X016153Y000925D02*
X016227Y000925D01*
X016198Y001004D02*
X016185Y001004D01*
X017039Y000768D02*
X017341Y000768D01*
X017262Y000847D02*
X017107Y000847D01*
X017153Y000925D02*
X017227Y000925D01*
X017195Y001004D02*
X017182Y001004D01*
X017187Y001021D02*
X017187Y001021D01*
X017187Y001259D02*
X017187Y001259D01*
X017258Y001429D01*
X017401Y001572D01*
X017420Y001580D01*
X016950Y001580D01*
X016957Y001576D01*
X017022Y001529D01*
X017079Y001472D01*
X017126Y001407D01*
X017163Y001336D01*
X017187Y001259D01*
X017169Y001318D02*
X017212Y001318D01*
X017244Y001396D02*
X017132Y001396D01*
X017077Y001475D02*
X017303Y001475D01*
X017382Y001553D02*
X016989Y001553D01*
X016530Y001760D02*
X016340Y001950D01*
X016600Y001946D02*
X019614Y001946D01*
X019536Y002024D02*
X016591Y002024D01*
X016555Y002103D02*
X019457Y002103D01*
X019380Y002181D02*
X016462Y002181D01*
X016218Y002181D02*
X015704Y002181D01*
X015704Y002103D02*
X015634Y002103D01*
X015634Y002024D02*
X015704Y002024D01*
X015704Y001946D02*
X015634Y001946D01*
X016134Y001789D02*
X014870Y001789D01*
X014870Y001710D02*
X016240Y001710D01*
X016530Y001760D02*
X018960Y001760D01*
X019130Y001590D01*
X019130Y001580D01*
X018690Y001140D01*
X019168Y001318D02*
X019364Y001318D01*
X019287Y001396D02*
X019201Y001396D01*
X019130Y001590D02*
X019594Y001590D01*
X019595Y001589D01*
X019902Y001553D02*
X019917Y001553D01*
X019917Y001475D02*
X019902Y001475D01*
X019902Y001396D02*
X019917Y001396D01*
X019994Y001318D02*
X019825Y001318D01*
X020532Y001553D02*
X021250Y001553D01*
X021250Y001475D02*
X020793Y001475D01*
X020848Y001396D02*
X021250Y001396D01*
X021250Y001318D02*
X020870Y001318D01*
X020870Y001239D02*
X021250Y001239D01*
X021250Y001161D02*
X020838Y001161D01*
X020770Y001082D02*
X021250Y001082D01*
X021250Y001632D02*
X020532Y001632D01*
X020532Y001710D02*
X021250Y001710D01*
X021250Y001789D02*
X020529Y001789D01*
X020450Y001867D02*
X021250Y001867D01*
X021250Y001946D02*
X020123Y001946D01*
X020045Y002024D02*
X021250Y002024D01*
X021250Y002103D02*
X019966Y002103D01*
X019888Y002181D02*
X021250Y002181D01*
X021250Y002260D02*
X021030Y002260D01*
X021025Y002255D02*
X021025Y002255D01*
X021133Y002338D02*
X021250Y002338D01*
X021250Y002417D02*
X021178Y002417D01*
X021224Y002495D02*
X021250Y002495D01*
X021250Y002574D02*
X021233Y002574D01*
X021233Y002652D02*
X021250Y002652D01*
X021250Y002731D02*
X021233Y002731D01*
X021250Y002809D02*
X021191Y002809D01*
X021145Y002888D02*
X021250Y002888D01*
X021250Y002966D02*
X021059Y002966D01*
X021120Y002931D02*
X021120Y002931D01*
X021120Y002931D01*
X020345Y003043D02*
X020345Y003043D01*
X020211Y002966D02*
X019239Y002966D01*
X019317Y002888D02*
X020125Y002888D01*
X020079Y002809D02*
X019396Y002809D01*
X019474Y002731D02*
X020038Y002731D01*
X020038Y002652D02*
X019553Y002652D01*
X019631Y002574D02*
X020038Y002574D01*
X020046Y002495D02*
X019710Y002495D01*
X019740Y002417D02*
X020092Y002417D01*
X020137Y002338D02*
X019740Y002338D01*
X019809Y002260D02*
X020240Y002260D01*
X020150Y002315D02*
X020150Y002315D01*
X020150Y002315D01*
X019380Y002260D02*
X018944Y002260D01*
X019046Y002338D02*
X019357Y002338D01*
X019279Y002417D02*
X019092Y002417D01*
X019137Y002495D02*
X019200Y002495D01*
X019108Y001867D02*
X019368Y001867D01*
X019290Y001789D02*
X019186Y001789D01*
X019902Y001632D02*
X019917Y001632D01*
X018420Y001580D02*
X018401Y001572D01*
X018258Y001429D01*
X018190Y001266D01*
X018122Y001429D01*
X017979Y001572D01*
X017960Y001580D01*
X018420Y001580D01*
X018382Y001553D02*
X017998Y001553D01*
X018077Y001475D02*
X018303Y001475D01*
X018244Y001396D02*
X018136Y001396D01*
X018168Y001318D02*
X018212Y001318D01*
X018195Y001004D02*
X018185Y001004D01*
X018153Y000925D02*
X018227Y000925D01*
X018262Y000847D02*
X018118Y000847D01*
X018039Y000768D02*
X018341Y000768D01*
X018445Y000690D02*
X017935Y000690D01*
X017445Y000690D02*
X016929Y000690D01*
X015445Y000690D02*
X014935Y000690D01*
X015039Y000768D02*
X015341Y000768D01*
X015262Y000847D02*
X015118Y000847D01*
X015153Y000925D02*
X015227Y000925D01*
X015195Y001004D02*
X015185Y001004D01*
X014445Y000690D02*
X013935Y000690D01*
X014039Y000768D02*
X014341Y000768D01*
X014262Y000847D02*
X014118Y000847D01*
X014153Y000925D02*
X014227Y000925D01*
X014195Y001004D02*
X014185Y001004D01*
X014190Y001266D02*
X014122Y001429D01*
X013979Y001572D01*
X013880Y001613D01*
X013880Y001955D01*
X013775Y002060D01*
X013685Y002150D01*
X014085Y002150D01*
X014510Y001725D01*
X014510Y001617D01*
X014401Y001572D01*
X014258Y001429D01*
X014190Y001266D01*
X014168Y001318D02*
X014212Y001318D01*
X014244Y001396D02*
X014136Y001396D01*
X014077Y001475D02*
X014303Y001475D01*
X014382Y001553D02*
X013998Y001553D01*
X013880Y001632D02*
X014510Y001632D01*
X014510Y001710D02*
X013880Y001710D01*
X013880Y001789D02*
X014447Y001789D01*
X014368Y001867D02*
X013880Y001867D01*
X013880Y001946D02*
X014290Y001946D01*
X014211Y002024D02*
X013811Y002024D01*
X013732Y002103D02*
X014133Y002103D01*
X014485Y002260D02*
X014730Y002260D01*
X015070Y002502D02*
X012658Y002502D01*
X012500Y002140D02*
X013440Y002140D01*
X013700Y001880D01*
X013700Y001150D01*
X013690Y001140D01*
X013212Y001318D02*
X013168Y001318D01*
X013190Y001266D02*
X013122Y001429D01*
X012979Y001572D01*
X012791Y001650D01*
X012620Y001650D01*
X012620Y001960D01*
X013365Y001960D01*
X013520Y001805D01*
X013520Y001622D01*
X013401Y001572D01*
X013258Y001429D01*
X013190Y001266D01*
X013136Y001396D02*
X013244Y001396D01*
X013303Y001475D02*
X013077Y001475D01*
X012998Y001553D02*
X013382Y001553D01*
X013520Y001632D02*
X012836Y001632D01*
X012620Y001710D02*
X013520Y001710D01*
X013520Y001789D02*
X012620Y001789D01*
X012620Y001867D02*
X013458Y001867D01*
X013380Y001946D02*
X012620Y001946D01*
X012440Y001890D02*
X012440Y001390D01*
X012690Y001140D01*
X012212Y001318D02*
X012168Y001318D01*
X012190Y001266D02*
X012122Y001429D01*
X011979Y001572D01*
X011905Y001603D01*
X011982Y001603D01*
X012018Y001612D01*
X012050Y001631D01*
X012076Y001657D01*
X012094Y001689D01*
X012104Y001724D01*
X012104Y001891D01*
X011855Y001891D01*
X011855Y001949D01*
X012104Y001949D01*
X012104Y001972D01*
X012260Y001815D01*
X012260Y001431D01*
X012258Y001429D01*
X012190Y001266D01*
X012136Y001396D02*
X012244Y001396D01*
X012260Y001475D02*
X012077Y001475D01*
X011998Y001553D02*
X012260Y001553D01*
X012260Y001632D02*
X012050Y001632D01*
X012100Y001710D02*
X012260Y001710D01*
X012260Y001789D02*
X012104Y001789D01*
X012104Y001867D02*
X012208Y001867D01*
X012130Y001946D02*
X011855Y001946D01*
X011855Y001949D02*
X011855Y002221D01*
X011350Y002726D01*
X011222Y002726D01*
X011209Y002713D01*
X010869Y002713D01*
X010869Y002487D01*
X010913Y002530D01*
X011008Y002570D01*
X011112Y002570D01*
X011207Y002530D01*
X011280Y002457D01*
X011320Y002362D01*
X011320Y002305D01*
X011387Y002237D01*
X011510Y002237D01*
X011572Y002175D01*
X011576Y002183D01*
X011602Y002209D01*
X011634Y002228D01*
X011670Y002237D01*
X011797Y002237D01*
X011797Y001949D01*
X011855Y001949D01*
X011855Y002024D02*
X011797Y002024D01*
X011797Y002103D02*
X011855Y002103D01*
X011855Y002181D02*
X011797Y002181D01*
X011816Y002260D02*
X011365Y002260D01*
X011320Y002338D02*
X011737Y002338D01*
X011659Y002417D02*
X011297Y002417D01*
X011243Y002495D02*
X011580Y002495D01*
X011502Y002574D02*
X010869Y002574D01*
X010869Y002652D02*
X011423Y002652D01*
X010877Y002495D02*
X010869Y002495D01*
X010674Y002571D02*
X010674Y002196D01*
X010880Y001990D01*
X010880Y001760D01*
X011220Y001420D01*
X011410Y001420D01*
X011690Y001140D01*
X011195Y001004D02*
X011185Y001004D01*
X011153Y000925D02*
X011227Y000925D01*
X011262Y000847D02*
X011118Y000847D01*
X011039Y000768D02*
X011341Y000768D01*
X011445Y000690D02*
X010935Y000690D01*
X010445Y000690D02*
X009935Y000690D01*
X010039Y000768D02*
X010341Y000768D01*
X010262Y000847D02*
X010118Y000847D01*
X010153Y000925D02*
X010227Y000925D01*
X010195Y001004D02*
X010185Y001004D01*
X009690Y001140D02*
X010281Y001731D01*
X010281Y002571D01*
X010477Y002571D02*
X010477Y002133D01*
X010690Y001920D01*
X010690Y001140D01*
X010212Y001318D02*
X010168Y001318D01*
X010155Y001350D02*
X010461Y001656D01*
X010461Y001805D01*
X010461Y001895D01*
X010510Y001845D01*
X010510Y001617D01*
X010401Y001572D01*
X010258Y001429D01*
X010190Y001266D01*
X010155Y001350D01*
X010201Y001396D02*
X010244Y001396D01*
X010279Y001475D02*
X010303Y001475D01*
X010358Y001553D02*
X010382Y001553D01*
X010436Y001632D02*
X010510Y001632D01*
X010510Y001710D02*
X010461Y001710D01*
X010461Y001789D02*
X010510Y001789D01*
X010488Y001867D02*
X010461Y001867D01*
X010101Y001867D02*
X009522Y001867D01*
X009600Y001946D02*
X010101Y001946D01*
X010101Y002024D02*
X009679Y002024D01*
X009757Y002103D02*
X010101Y002103D01*
X010101Y002181D02*
X009836Y002181D01*
X009870Y002260D02*
X010101Y002260D01*
X009887Y002338D02*
X009887Y002338D01*
X009887Y002417D02*
X009887Y002417D01*
X009887Y002495D02*
X009887Y002495D01*
X009690Y002571D02*
X009690Y002290D01*
X009180Y001780D01*
X009180Y001630D01*
X008690Y001140D01*
X009168Y001318D02*
X009212Y001318D01*
X009201Y001396D02*
X009244Y001396D01*
X009279Y001475D02*
X009303Y001475D01*
X009358Y001553D02*
X009382Y001553D01*
X009360Y001632D02*
X009544Y001632D01*
X009365Y001710D02*
X010005Y001710D01*
X009927Y001632D02*
X009836Y001632D01*
X010084Y001789D02*
X009443Y001789D01*
X009765Y002110D02*
X009765Y002110D01*
X008706Y002356D02*
X008706Y002571D01*
X009795Y003280D02*
X009922Y003280D01*
X011009Y003103D02*
X011537Y003103D01*
X012500Y002140D01*
X012440Y001890D02*
X011424Y002906D01*
X011009Y002906D01*
X012362Y003359D02*
X012680Y003359D01*
X012680Y003280D02*
X012440Y003280D01*
X012519Y003202D02*
X012692Y003202D01*
X012684Y003123D02*
X012597Y003123D01*
X012676Y003045D02*
X012680Y003045D01*
X012680Y003673D02*
X012393Y003673D01*
X009920Y004200D02*
X009710Y004200D01*
X009700Y004190D01*
X009700Y005239D01*
X009510Y005506D02*
X009476Y005506D01*
X009476Y005764D01*
X009480Y005760D01*
X009510Y005760D01*
X009510Y005506D01*
X009510Y005557D02*
X009476Y005557D01*
X009476Y005635D02*
X009510Y005635D01*
X009510Y005714D02*
X009476Y005714D01*
X010622Y005506D02*
X010625Y005506D01*
X010746Y005628D01*
X010846Y005728D01*
X010843Y005728D01*
X010622Y005506D01*
X010672Y005557D02*
X010675Y005557D01*
X010751Y005635D02*
X010753Y005635D01*
X010829Y005714D02*
X010832Y005714D01*
X010477Y005209D02*
X010477Y004849D01*
X010473Y004845D01*
X011009Y004677D02*
X012216Y004677D01*
X015730Y005635D02*
X015739Y005635D01*
X019461Y004458D02*
X021250Y004458D01*
X021250Y004536D02*
X019571Y004536D01*
X019623Y004615D02*
X021250Y004615D01*
X021250Y004693D02*
X019653Y004693D01*
X019653Y004772D02*
X021250Y004772D01*
X021250Y004850D02*
X019637Y004850D01*
X019605Y004929D02*
X021250Y004929D01*
X021250Y005007D02*
X019526Y005007D01*
X020183Y007284D02*
X020197Y007284D01*
X020230Y007362D02*
X020150Y007362D01*
X020111Y007441D02*
X020269Y007441D01*
X020348Y007519D02*
X020032Y007519D01*
X019918Y007598D02*
X020462Y007598D01*
X008371Y004677D02*
X007723Y004677D01*
X005930Y003990D02*
X005160Y004760D01*
X005160Y004865D01*
X004415Y005321D02*
X004405Y005321D01*
X004327Y005400D02*
X004493Y005400D01*
X004160Y004865D02*
X004160Y004820D01*
X003720Y004380D01*
X003968Y004301D02*
X004215Y004301D01*
X004157Y004222D02*
X003930Y004222D01*
X004376Y004380D02*
X004410Y004414D01*
X004444Y004380D01*
X004376Y004380D01*
X004596Y004310D02*
X004724Y004310D01*
X004673Y004259D01*
X004660Y004228D01*
X004647Y004259D01*
X004596Y004310D01*
X004605Y004301D02*
X004715Y004301D01*
X004876Y004380D02*
X004910Y004414D01*
X004944Y004380D01*
X004876Y004380D01*
X005105Y004301D02*
X005365Y004301D01*
X005443Y004222D02*
X005163Y004222D01*
X005190Y004144D02*
X005522Y004144D01*
X005600Y004065D02*
X005190Y004065D01*
X005166Y003987D02*
X005670Y003987D01*
X005683Y003908D02*
X005114Y003908D01*
X004944Y003820D02*
X004910Y003786D01*
X004876Y003820D01*
X004944Y003820D01*
X004724Y003890D02*
X004596Y003890D01*
X004647Y003941D01*
X004660Y003972D01*
X004673Y003941D01*
X004724Y003890D01*
X004706Y003908D02*
X004614Y003908D01*
X004444Y003820D02*
X004376Y003820D01*
X004385Y003812D01*
X004403Y003780D01*
X004444Y003820D01*
X004183Y003830D02*
X004137Y003830D01*
X004137Y003751D02*
X004183Y003751D01*
X004183Y003673D02*
X004137Y003673D01*
X004137Y003594D02*
X004183Y003594D01*
X004183Y003516D02*
X004137Y003516D01*
X004137Y003437D02*
X004183Y003437D01*
X004183Y003359D02*
X004137Y003359D01*
X003241Y003045D02*
X002947Y003045D01*
X002947Y003123D02*
X003162Y003123D01*
X003084Y003202D02*
X002915Y003202D01*
X002937Y003280D02*
X003005Y003280D01*
X002305Y003202D02*
X002186Y003202D01*
X002208Y003280D02*
X002283Y003280D01*
X002273Y003359D02*
X002237Y003359D01*
X002237Y003437D02*
X002273Y003437D01*
X002610Y003565D02*
X002610Y003990D01*
X002620Y004000D01*
X002763Y004222D02*
X002830Y004222D01*
X002640Y004655D02*
X002601Y004695D01*
X001940Y004695D01*
X002219Y004929D02*
X002303Y004929D01*
X002346Y005007D02*
X002168Y005007D01*
X002231Y005086D02*
X002303Y005086D01*
X002303Y005164D02*
X002237Y005164D01*
X002237Y005243D02*
X002303Y005243D01*
X002303Y005400D02*
X002237Y005400D01*
X002233Y005478D02*
X002303Y005478D01*
X002303Y005557D02*
X002180Y005557D01*
X002339Y005635D02*
X001130Y005635D01*
X001130Y005557D02*
X001700Y005557D01*
X001697Y005555D02*
X001670Y005529D01*
X001652Y005497D01*
X001643Y005461D01*
X001643Y005324D01*
X001901Y005324D01*
X001901Y005583D01*
X001764Y005583D01*
X001728Y005573D01*
X001697Y005555D01*
X001647Y005478D02*
X001130Y005478D01*
X001130Y005400D02*
X001643Y005400D01*
X001901Y005400D02*
X001979Y005400D01*
X001979Y005478D02*
X001901Y005478D01*
X001901Y005557D02*
X001979Y005557D01*
X001236Y006656D02*
X001130Y006656D01*
X001130Y006734D02*
X001180Y006734D01*
X001180Y006813D02*
X001130Y006813D01*
X001130Y006891D02*
X001180Y006891D01*
X001180Y006970D02*
X001130Y006970D01*
X001130Y007048D02*
X001180Y007048D01*
X005367Y003830D02*
X005723Y003830D01*
X006019Y003594D02*
X005425Y003594D01*
X005425Y003516D02*
X005942Y003516D01*
X005933Y003437D02*
X005425Y003437D01*
X005425Y003359D02*
X005933Y003359D01*
X005933Y003280D02*
X005425Y003280D01*
X005425Y003202D02*
X005933Y003202D01*
X005949Y003123D02*
X005482Y003123D01*
X005560Y003045D02*
X005967Y003045D01*
X005530Y002820D02*
X005160Y003190D01*
X005160Y003335D01*
X005160Y002850D01*
X005040Y002730D01*
X003810Y002730D01*
X003398Y002888D02*
X002947Y002888D01*
X002947Y002966D02*
X003319Y002966D01*
X002610Y002895D02*
X002571Y002935D01*
X001940Y002935D01*
X002237Y003123D02*
X002273Y003123D01*
X006221Y003359D02*
X006279Y003359D01*
X006279Y003437D02*
X006221Y003437D01*
X006221Y003516D02*
X006279Y003516D01*
X006279Y003594D02*
X006221Y003594D01*
X011060Y002310D02*
X011314Y002056D01*
X011314Y001920D01*
X011572Y001665D02*
X011576Y001657D01*
X011585Y001648D01*
X011535Y001628D01*
X011572Y001665D01*
X011544Y001632D02*
X011539Y001632D01*
X011475Y001603D02*
X011292Y001603D01*
X011295Y001600D01*
X011468Y001600D01*
X011475Y001603D01*
X011566Y002181D02*
X011575Y002181D01*
X012185Y001004D02*
X012195Y001004D01*
X012227Y000925D02*
X012153Y000925D01*
X012118Y000847D02*
X012262Y000847D01*
X012341Y000768D02*
X012039Y000768D01*
X011935Y000690D02*
X012445Y000690D01*
X012935Y000690D02*
X013445Y000690D01*
X013341Y000768D02*
X013039Y000768D01*
X013118Y000847D02*
X013262Y000847D01*
X013227Y000925D02*
X013153Y000925D01*
X013185Y001004D02*
X013195Y001004D01*
X009445Y000690D02*
X008935Y000690D01*
X009039Y000768D02*
X009341Y000768D01*
X009262Y000847D02*
X009118Y000847D01*
X009153Y000925D02*
X009227Y000925D01*
X009195Y001004D02*
X009185Y001004D01*
X008445Y000690D02*
X007935Y000690D01*
X008039Y000768D02*
X008341Y000768D01*
X008262Y000847D02*
X008118Y000847D01*
X008153Y000925D02*
X008227Y000925D01*
X008195Y001004D02*
X008185Y001004D01*
X008190Y001266D02*
X008155Y001350D01*
X008285Y001480D01*
X008309Y001480D01*
X008258Y001429D01*
X008190Y001266D01*
X008168Y001318D02*
X008212Y001318D01*
X008201Y001396D02*
X008244Y001396D01*
X008279Y001475D02*
X008303Y001475D01*
X007927Y001632D02*
X007836Y001632D01*
X007544Y001632D02*
X007186Y001632D01*
X007108Y001553D02*
X007382Y001553D01*
X007195Y001004D02*
X007185Y001004D01*
X007153Y000925D02*
X007227Y000925D01*
X007262Y000847D02*
X007118Y000847D01*
X007039Y000768D02*
X007341Y000768D01*
X007445Y000690D02*
X006935Y000690D01*
X006445Y000690D02*
X005935Y000690D01*
X006039Y000768D02*
X006341Y000768D01*
X006262Y000847D02*
X006118Y000847D01*
X006153Y000925D02*
X006227Y000925D01*
X006195Y001004D02*
X006185Y001004D01*
X005341Y000768D02*
X005039Y000768D01*
X005118Y000847D02*
X005262Y000847D01*
X005227Y000925D02*
X005153Y000925D01*
X005185Y001004D02*
X005195Y001004D01*
X005190Y001266D02*
X005155Y001350D01*
X005275Y001470D01*
X005299Y001470D01*
X005258Y001429D01*
X005190Y001266D01*
X005168Y001318D02*
X005212Y001318D01*
X005201Y001396D02*
X005244Y001396D01*
X005445Y000690D02*
X004935Y000690D01*
M02*
