G75*
G70*
%OFA0B0*%
%FSLAX24Y24*%
%IPPOS*%
%LPD*%
%AMOC8*
5,1,8,0,0,1.08239X$1,22.5*
%
%ADD10R,0.0433X0.0394*%
%ADD11R,0.0630X0.0551*%
%ADD12R,0.0354X0.0276*%
%ADD13R,0.0335X0.0276*%
%ADD14R,0.0217X0.0472*%
%ADD15R,0.0740X0.0740*%
%ADD16C,0.0740*%
%ADD17R,0.0394X0.0433*%
%ADD18R,0.0315X0.0315*%
%ADD19C,0.0053*%
%ADD20C,0.0055*%
%ADD21R,0.0276X0.0354*%
%ADD22R,0.0984X0.0197*%
%ADD23R,0.0984X0.0787*%
%ADD24C,0.0240*%
%ADD25C,0.0080*%
D10*
X004660Y003645D03*
X004660Y004315D03*
X018765Y005840D03*
X019434Y005840D03*
D11*
X018761Y004978D03*
X018761Y003875D03*
D12*
X014543Y004315D03*
X014543Y004827D03*
X008680Y003736D03*
X008680Y003224D03*
D13*
X022024Y002000D03*
X022654Y002000D03*
D14*
X017685Y003915D03*
X016937Y003915D03*
X016937Y004938D03*
X017311Y004938D03*
X017685Y004938D03*
D15*
X004120Y007550D03*
X004120Y001550D03*
D16*
X005120Y001550D03*
X006120Y001550D03*
X007120Y001550D03*
X008120Y001550D03*
X009120Y001550D03*
X010120Y001550D03*
X011120Y001550D03*
X012120Y001550D03*
X013120Y001550D03*
X014120Y001550D03*
X015120Y001550D03*
X016120Y001550D03*
X017120Y001550D03*
X018120Y001550D03*
X019120Y001550D03*
X020120Y001550D03*
X021120Y001550D03*
X021120Y007550D03*
X020120Y007550D03*
X019120Y007550D03*
X018120Y007550D03*
X017120Y007550D03*
X016120Y007550D03*
X015120Y007550D03*
X014120Y007550D03*
X013120Y007550D03*
X012120Y007550D03*
X011120Y007550D03*
X010120Y007550D03*
X009120Y007550D03*
X008120Y007550D03*
X007120Y007550D03*
X006120Y007550D03*
X005120Y007550D03*
X022120Y007550D03*
X023120Y007550D03*
D17*
X016061Y004761D03*
X016061Y004092D03*
D18*
X004020Y004255D03*
X004020Y003665D03*
D19*
X010670Y003682D02*
X010932Y003682D01*
X010670Y003682D02*
X010670Y003736D01*
X010932Y003736D01*
X010932Y003682D01*
X010932Y003734D02*
X010670Y003734D01*
X010670Y003879D02*
X010932Y003879D01*
X010670Y003879D02*
X010670Y003933D01*
X010932Y003933D01*
X010932Y003879D01*
X010932Y003931D02*
X010670Y003931D01*
X010670Y004076D02*
X010932Y004076D01*
X010670Y004076D02*
X010670Y004130D01*
X010932Y004130D01*
X010932Y004076D01*
X010932Y004128D02*
X010670Y004128D01*
X010670Y004273D02*
X010932Y004273D01*
X010670Y004273D02*
X010670Y004327D01*
X010932Y004327D01*
X010932Y004273D01*
X010932Y004325D02*
X010670Y004325D01*
X010670Y004470D02*
X010932Y004470D01*
X010670Y004470D02*
X010670Y004524D01*
X010932Y004524D01*
X010932Y004470D01*
X010932Y004522D02*
X010670Y004522D01*
X010670Y004667D02*
X010932Y004667D01*
X010670Y004667D02*
X010670Y004721D01*
X010932Y004721D01*
X010932Y004667D01*
X010932Y004719D02*
X010670Y004719D01*
X010670Y004864D02*
X010932Y004864D01*
X010670Y004864D02*
X010670Y004918D01*
X010932Y004918D01*
X010932Y004864D01*
X010932Y004916D02*
X010670Y004916D01*
X010670Y005060D02*
X010932Y005060D01*
X010670Y005060D02*
X010670Y005114D01*
X010932Y005114D01*
X010932Y005060D01*
X010932Y005112D02*
X010670Y005112D01*
X010670Y005257D02*
X010932Y005257D01*
X010670Y005257D02*
X010670Y005311D01*
X010932Y005311D01*
X010932Y005257D01*
X010932Y005309D02*
X010670Y005309D01*
X013307Y005257D02*
X013569Y005257D01*
X013307Y005257D02*
X013307Y005311D01*
X013569Y005311D01*
X013569Y005257D01*
X013569Y005309D02*
X013307Y005309D01*
X013307Y005060D02*
X013569Y005060D01*
X013307Y005060D02*
X013307Y005114D01*
X013569Y005114D01*
X013569Y005060D01*
X013569Y005112D02*
X013307Y005112D01*
X013307Y004864D02*
X013569Y004864D01*
X013307Y004864D02*
X013307Y004918D01*
X013569Y004918D01*
X013569Y004864D01*
X013569Y004916D02*
X013307Y004916D01*
X013307Y004667D02*
X013569Y004667D01*
X013307Y004667D02*
X013307Y004721D01*
X013569Y004721D01*
X013569Y004667D01*
X013569Y004719D02*
X013307Y004719D01*
X013307Y004470D02*
X013569Y004470D01*
X013307Y004470D02*
X013307Y004524D01*
X013569Y004524D01*
X013569Y004470D01*
X013569Y004522D02*
X013307Y004522D01*
X013307Y004273D02*
X013569Y004273D01*
X013307Y004273D02*
X013307Y004327D01*
X013569Y004327D01*
X013569Y004273D01*
X013569Y004325D02*
X013307Y004325D01*
X013307Y004076D02*
X013569Y004076D01*
X013307Y004076D02*
X013307Y004130D01*
X013569Y004130D01*
X013569Y004076D01*
X013569Y004128D02*
X013307Y004128D01*
X013307Y003879D02*
X013569Y003879D01*
X013307Y003879D02*
X013307Y003933D01*
X013569Y003933D01*
X013569Y003879D01*
X013569Y003931D02*
X013307Y003931D01*
X013307Y003682D02*
X013569Y003682D01*
X013307Y003682D02*
X013307Y003736D01*
X013569Y003736D01*
X013569Y003682D01*
X013569Y003734D02*
X013307Y003734D01*
X013307Y003486D02*
X013569Y003486D01*
X013307Y003486D02*
X013307Y003540D01*
X013569Y003540D01*
X013569Y003486D01*
X013569Y003538D02*
X013307Y003538D01*
X013307Y003289D02*
X013569Y003289D01*
X013307Y003289D02*
X013307Y003343D01*
X013569Y003343D01*
X013569Y003289D01*
X013569Y003341D02*
X013307Y003341D01*
X010932Y003289D02*
X010670Y003289D01*
X010670Y003343D01*
X010932Y003343D01*
X010932Y003289D01*
X010932Y003341D02*
X010670Y003341D01*
X010670Y003486D02*
X010932Y003486D01*
X010670Y003486D02*
X010670Y003540D01*
X010932Y003540D01*
X010932Y003486D01*
X010932Y003538D02*
X010670Y003538D01*
D20*
X011107Y002851D02*
X011163Y002851D01*
X011107Y002851D02*
X011107Y003111D01*
X011163Y003111D01*
X011163Y002851D01*
X011163Y002905D02*
X011107Y002905D01*
X011107Y002959D02*
X011163Y002959D01*
X011163Y003013D02*
X011107Y003013D01*
X011107Y003067D02*
X011163Y003067D01*
X011304Y002851D02*
X011360Y002851D01*
X011304Y002851D02*
X011304Y003111D01*
X011360Y003111D01*
X011360Y002851D01*
X011360Y002905D02*
X011304Y002905D01*
X011304Y002959D02*
X011360Y002959D01*
X011360Y003013D02*
X011304Y003013D01*
X011304Y003067D02*
X011360Y003067D01*
X011501Y002851D02*
X011557Y002851D01*
X011501Y002851D02*
X011501Y003111D01*
X011557Y003111D01*
X011557Y002851D01*
X011557Y002905D02*
X011501Y002905D01*
X011501Y002959D02*
X011557Y002959D01*
X011557Y003013D02*
X011501Y003013D01*
X011501Y003067D02*
X011557Y003067D01*
X011698Y002851D02*
X011754Y002851D01*
X011698Y002851D02*
X011698Y003111D01*
X011754Y003111D01*
X011754Y002851D01*
X011754Y002905D02*
X011698Y002905D01*
X011698Y002959D02*
X011754Y002959D01*
X011754Y003013D02*
X011698Y003013D01*
X011698Y003067D02*
X011754Y003067D01*
X011895Y002851D02*
X011951Y002851D01*
X011895Y002851D02*
X011895Y003111D01*
X011951Y003111D01*
X011951Y002851D01*
X011951Y002905D02*
X011895Y002905D01*
X011895Y002959D02*
X011951Y002959D01*
X011951Y003013D02*
X011895Y003013D01*
X011895Y003067D02*
X011951Y003067D01*
X012092Y002851D02*
X012148Y002851D01*
X012092Y002851D02*
X012092Y003111D01*
X012148Y003111D01*
X012148Y002851D01*
X012148Y002905D02*
X012092Y002905D01*
X012092Y002959D02*
X012148Y002959D01*
X012148Y003013D02*
X012092Y003013D01*
X012092Y003067D02*
X012148Y003067D01*
X012288Y002851D02*
X012344Y002851D01*
X012288Y002851D02*
X012288Y003111D01*
X012344Y003111D01*
X012344Y002851D01*
X012344Y002905D02*
X012288Y002905D01*
X012288Y002959D02*
X012344Y002959D01*
X012344Y003013D02*
X012288Y003013D01*
X012288Y003067D02*
X012344Y003067D01*
X012485Y002851D02*
X012541Y002851D01*
X012485Y002851D02*
X012485Y003111D01*
X012541Y003111D01*
X012541Y002851D01*
X012541Y002905D02*
X012485Y002905D01*
X012485Y002959D02*
X012541Y002959D01*
X012541Y003013D02*
X012485Y003013D01*
X012485Y003067D02*
X012541Y003067D01*
X012682Y002851D02*
X012738Y002851D01*
X012682Y002851D02*
X012682Y003111D01*
X012738Y003111D01*
X012738Y002851D01*
X012738Y002905D02*
X012682Y002905D01*
X012682Y002959D02*
X012738Y002959D01*
X012738Y003013D02*
X012682Y003013D01*
X012682Y003067D02*
X012738Y003067D01*
X012879Y002851D02*
X012935Y002851D01*
X012879Y002851D02*
X012879Y003111D01*
X012935Y003111D01*
X012935Y002851D01*
X012935Y002905D02*
X012879Y002905D01*
X012879Y002959D02*
X012935Y002959D01*
X012935Y003013D02*
X012879Y003013D01*
X012879Y003067D02*
X012935Y003067D01*
X013076Y002851D02*
X013132Y002851D01*
X013076Y002851D02*
X013076Y003111D01*
X013132Y003111D01*
X013132Y002851D01*
X013132Y002905D02*
X013076Y002905D01*
X013076Y002959D02*
X013132Y002959D01*
X013132Y003013D02*
X013076Y003013D01*
X013076Y003067D02*
X013132Y003067D01*
X013132Y005489D02*
X013076Y005489D01*
X013076Y005749D01*
X013132Y005749D01*
X013132Y005489D01*
X013132Y005543D02*
X013076Y005543D01*
X013076Y005597D02*
X013132Y005597D01*
X013132Y005651D02*
X013076Y005651D01*
X013076Y005705D02*
X013132Y005705D01*
X012935Y005489D02*
X012879Y005489D01*
X012879Y005749D01*
X012935Y005749D01*
X012935Y005489D01*
X012935Y005543D02*
X012879Y005543D01*
X012879Y005597D02*
X012935Y005597D01*
X012935Y005651D02*
X012879Y005651D01*
X012879Y005705D02*
X012935Y005705D01*
X012738Y005489D02*
X012682Y005489D01*
X012682Y005749D01*
X012738Y005749D01*
X012738Y005489D01*
X012738Y005543D02*
X012682Y005543D01*
X012682Y005597D02*
X012738Y005597D01*
X012738Y005651D02*
X012682Y005651D01*
X012682Y005705D02*
X012738Y005705D01*
X012541Y005489D02*
X012485Y005489D01*
X012485Y005749D01*
X012541Y005749D01*
X012541Y005489D01*
X012541Y005543D02*
X012485Y005543D01*
X012485Y005597D02*
X012541Y005597D01*
X012541Y005651D02*
X012485Y005651D01*
X012485Y005705D02*
X012541Y005705D01*
X012344Y005489D02*
X012288Y005489D01*
X012288Y005749D01*
X012344Y005749D01*
X012344Y005489D01*
X012344Y005543D02*
X012288Y005543D01*
X012288Y005597D02*
X012344Y005597D01*
X012344Y005651D02*
X012288Y005651D01*
X012288Y005705D02*
X012344Y005705D01*
X012148Y005489D02*
X012092Y005489D01*
X012092Y005749D01*
X012148Y005749D01*
X012148Y005489D01*
X012148Y005543D02*
X012092Y005543D01*
X012092Y005597D02*
X012148Y005597D01*
X012148Y005651D02*
X012092Y005651D01*
X012092Y005705D02*
X012148Y005705D01*
X011951Y005489D02*
X011895Y005489D01*
X011895Y005749D01*
X011951Y005749D01*
X011951Y005489D01*
X011951Y005543D02*
X011895Y005543D01*
X011895Y005597D02*
X011951Y005597D01*
X011951Y005651D02*
X011895Y005651D01*
X011895Y005705D02*
X011951Y005705D01*
X011754Y005489D02*
X011698Y005489D01*
X011698Y005749D01*
X011754Y005749D01*
X011754Y005489D01*
X011754Y005543D02*
X011698Y005543D01*
X011698Y005597D02*
X011754Y005597D01*
X011754Y005651D02*
X011698Y005651D01*
X011698Y005705D02*
X011754Y005705D01*
X011557Y005489D02*
X011501Y005489D01*
X011501Y005749D01*
X011557Y005749D01*
X011557Y005489D01*
X011557Y005543D02*
X011501Y005543D01*
X011501Y005597D02*
X011557Y005597D01*
X011557Y005651D02*
X011501Y005651D01*
X011501Y005705D02*
X011557Y005705D01*
X011360Y005489D02*
X011304Y005489D01*
X011304Y005749D01*
X011360Y005749D01*
X011360Y005489D01*
X011360Y005543D02*
X011304Y005543D01*
X011304Y005597D02*
X011360Y005597D01*
X011360Y005651D02*
X011304Y005651D01*
X011304Y005705D02*
X011360Y005705D01*
X011163Y005489D02*
X011107Y005489D01*
X011107Y005749D01*
X011163Y005749D01*
X011163Y005489D01*
X011163Y005543D02*
X011107Y005543D01*
X011107Y005597D02*
X011163Y005597D01*
X011163Y005651D02*
X011107Y005651D01*
X011107Y005705D02*
X011163Y005705D01*
D21*
X012105Y006487D03*
X012617Y006487D03*
D22*
X020855Y005180D03*
X020855Y004865D03*
X020855Y004550D03*
X020855Y004235D03*
X020855Y003920D03*
D23*
X020855Y002778D03*
X023021Y002778D03*
X023021Y006322D03*
X020855Y006322D03*
D24*
X019891Y006278D03*
X017980Y005460D03*
X016540Y005370D03*
X016060Y005370D03*
X015462Y004979D03*
X014970Y004979D03*
X012962Y004507D03*
X012962Y004015D03*
X012520Y003490D03*
X011720Y003410D03*
X009840Y003700D03*
X009350Y003700D03*
X008120Y003700D03*
X006080Y003740D03*
X005240Y003760D03*
X004020Y004730D03*
X011280Y004820D03*
X011600Y005120D03*
X011960Y004870D03*
X012480Y005260D03*
X012903Y005255D03*
X014586Y006131D03*
X014070Y006830D03*
X018130Y004400D03*
X019560Y003870D03*
X017340Y003560D03*
X015470Y003860D03*
X018570Y002560D03*
X019430Y002550D03*
X023040Y001700D03*
X023330Y002080D03*
X019750Y005160D03*
X021960Y006440D03*
X015620Y002050D03*
X012270Y002300D03*
D25*
X003560Y000990D02*
X003560Y008110D01*
X023680Y008110D01*
X023680Y000990D01*
X003560Y000990D01*
X003560Y001021D02*
X023680Y001021D01*
X023680Y001100D02*
X021365Y001100D01*
X021408Y001118D02*
X021221Y001040D01*
X021018Y001040D01*
X020831Y001118D01*
X020687Y001261D01*
X020620Y001424D01*
X020552Y001261D01*
X020408Y001118D01*
X020221Y001040D01*
X020018Y001040D01*
X019831Y001118D01*
X019687Y001261D01*
X019617Y001431D01*
X019617Y001431D01*
X019592Y001354D01*
X019556Y001283D01*
X019509Y001218D01*
X019452Y001161D01*
X019387Y001114D01*
X019315Y001077D01*
X019239Y001053D01*
X019160Y001040D01*
X019160Y001040D01*
X019160Y001510D01*
X019080Y001510D01*
X019080Y001040D01*
X019079Y001040D01*
X019000Y001053D01*
X018924Y001077D01*
X018852Y001114D01*
X018787Y001161D01*
X018731Y001218D01*
X018683Y001283D01*
X018647Y001354D01*
X018622Y001431D01*
X018622Y001431D01*
X018552Y001261D01*
X018408Y001118D01*
X018221Y001040D01*
X018018Y001040D01*
X017831Y001118D01*
X017687Y001261D01*
X017620Y001424D01*
X017552Y001261D01*
X017408Y001118D01*
X017221Y001040D01*
X017018Y001040D01*
X016831Y001118D01*
X016687Y001261D01*
X016620Y001424D01*
X016552Y001261D01*
X016408Y001118D01*
X016221Y001040D01*
X016018Y001040D01*
X015831Y001118D01*
X015687Y001261D01*
X015620Y001424D01*
X015552Y001261D01*
X015408Y001118D01*
X015221Y001040D01*
X015018Y001040D01*
X014831Y001118D01*
X014687Y001261D01*
X014620Y001424D01*
X014552Y001261D01*
X014408Y001118D01*
X014221Y001040D01*
X014018Y001040D01*
X013831Y001118D01*
X013687Y001261D01*
X013620Y001424D01*
X013552Y001261D01*
X013408Y001118D01*
X013221Y001040D01*
X013018Y001040D01*
X012831Y001118D01*
X012687Y001261D01*
X012620Y001424D01*
X012552Y001261D01*
X012408Y001118D01*
X012221Y001040D01*
X012018Y001040D01*
X011831Y001118D01*
X011687Y001261D01*
X011620Y001424D01*
X011552Y001261D01*
X011408Y001118D01*
X011221Y001040D01*
X011018Y001040D01*
X010831Y001118D01*
X010687Y001261D01*
X010620Y001424D01*
X010552Y001261D01*
X010408Y001118D01*
X010221Y001040D01*
X010018Y001040D01*
X009831Y001118D01*
X009687Y001261D01*
X009620Y001424D01*
X009552Y001261D01*
X009408Y001118D01*
X009221Y001040D01*
X009018Y001040D01*
X008831Y001118D01*
X008687Y001261D01*
X008620Y001424D01*
X008552Y001261D01*
X008408Y001118D01*
X008221Y001040D01*
X008018Y001040D01*
X007831Y001118D01*
X007687Y001261D01*
X007620Y001424D01*
X007552Y001261D01*
X007408Y001118D01*
X007221Y001040D01*
X007018Y001040D01*
X006831Y001118D01*
X006687Y001261D01*
X006620Y001424D01*
X006552Y001261D01*
X006408Y001118D01*
X006221Y001040D01*
X006018Y001040D01*
X005831Y001118D01*
X005687Y001261D01*
X005620Y001424D01*
X005552Y001261D01*
X005408Y001118D01*
X005221Y001040D01*
X005018Y001040D01*
X004831Y001118D01*
X004687Y001261D01*
X004630Y001400D01*
X004630Y001122D01*
X004548Y001040D01*
X003692Y001040D01*
X003610Y001122D01*
X003610Y001978D01*
X003692Y002060D01*
X004375Y002060D01*
X004925Y002610D01*
X007105Y002610D01*
X007315Y002820D01*
X008015Y002820D01*
X008185Y002990D01*
X008401Y002990D01*
X008362Y003028D01*
X008362Y003420D01*
X008424Y003482D01*
X008416Y003486D01*
X008390Y003512D01*
X008372Y003544D01*
X008362Y003580D01*
X008362Y003707D01*
X008651Y003707D01*
X008651Y003765D01*
X008362Y003765D01*
X008362Y003892D01*
X008371Y003923D01*
X007492Y003923D01*
X004375Y007040D01*
X003692Y007040D01*
X003610Y007122D01*
X003610Y007978D01*
X003692Y008060D01*
X004548Y008060D01*
X004630Y007978D01*
X004630Y007700D01*
X004687Y007839D01*
X004831Y007982D01*
X005018Y008060D01*
X005221Y008060D01*
X005408Y007982D01*
X005552Y007839D01*
X005620Y007676D01*
X005687Y007839D01*
X005831Y007982D01*
X006018Y008060D01*
X006221Y008060D01*
X006408Y007982D01*
X006552Y007839D01*
X006620Y007676D01*
X006687Y007839D01*
X006831Y007982D01*
X007018Y008060D01*
X007221Y008060D01*
X007408Y007982D01*
X007552Y007839D01*
X007620Y007676D01*
X007687Y007839D01*
X007831Y007982D01*
X008018Y008060D01*
X008221Y008060D01*
X008408Y007982D01*
X008552Y007839D01*
X008620Y007676D01*
X008687Y007839D01*
X008831Y007982D01*
X009018Y008060D01*
X009221Y008060D01*
X009408Y007982D01*
X009552Y007839D01*
X009620Y007676D01*
X009687Y007839D01*
X009831Y007982D01*
X010018Y008060D01*
X010221Y008060D01*
X010408Y007982D01*
X010552Y007839D01*
X010620Y007676D01*
X010687Y007839D01*
X010831Y007982D01*
X011018Y008060D01*
X011221Y008060D01*
X011408Y007982D01*
X011552Y007839D01*
X011620Y007676D01*
X011687Y007839D01*
X011831Y007982D01*
X012018Y008060D01*
X012221Y008060D01*
X012408Y007982D01*
X012552Y007839D01*
X012620Y007676D01*
X012687Y007839D01*
X012831Y007982D01*
X013018Y008060D01*
X013221Y008060D01*
X013408Y007982D01*
X013552Y007839D01*
X013620Y007676D01*
X013687Y007839D01*
X013831Y007982D01*
X014018Y008060D01*
X014221Y008060D01*
X014408Y007982D01*
X014552Y007839D01*
X014620Y007676D01*
X014687Y007839D01*
X014831Y007982D01*
X015018Y008060D01*
X015221Y008060D01*
X015408Y007982D01*
X015552Y007839D01*
X015620Y007676D01*
X015687Y007839D01*
X015831Y007982D01*
X016018Y008060D01*
X016221Y008060D01*
X016408Y007982D01*
X016552Y007839D01*
X016620Y007676D01*
X016687Y007839D01*
X016831Y007982D01*
X017018Y008060D01*
X017221Y008060D01*
X017408Y007982D01*
X017552Y007839D01*
X017620Y007676D01*
X017687Y007839D01*
X017831Y007982D01*
X018018Y008060D01*
X018221Y008060D01*
X018408Y007982D01*
X018552Y007839D01*
X018620Y007676D01*
X018687Y007839D01*
X018831Y007982D01*
X019018Y008060D01*
X019221Y008060D01*
X019408Y007982D01*
X019552Y007839D01*
X019620Y007676D01*
X019687Y007839D01*
X019831Y007982D01*
X020018Y008060D01*
X020221Y008060D01*
X020408Y007982D01*
X020552Y007839D01*
X020620Y007676D01*
X020687Y007839D01*
X020831Y007982D01*
X021018Y008060D01*
X021221Y008060D01*
X021408Y007982D01*
X021552Y007839D01*
X021620Y007676D01*
X021687Y007839D01*
X021831Y007982D01*
X022018Y008060D01*
X022221Y008060D01*
X022408Y007982D01*
X022552Y007839D01*
X022620Y007676D01*
X022687Y007839D01*
X022831Y007982D01*
X023018Y008060D01*
X023221Y008060D01*
X023408Y007982D01*
X023552Y007839D01*
X023630Y007651D01*
X023630Y007449D01*
X023552Y007261D01*
X023408Y007118D01*
X023221Y007040D01*
X023018Y007040D01*
X022831Y007118D01*
X022687Y007261D01*
X022620Y007424D01*
X022552Y007261D01*
X022408Y007118D01*
X022221Y007040D01*
X022018Y007040D01*
X021909Y007085D01*
X021513Y006689D01*
X021487Y006689D01*
X021487Y005870D01*
X021405Y005788D01*
X020305Y005788D01*
X020223Y005870D01*
X020223Y006689D01*
X020025Y006689D01*
X019953Y006617D01*
X019880Y006544D01*
X019886Y006538D01*
X019943Y006538D01*
X020038Y006499D01*
X020112Y006426D01*
X020151Y006330D01*
X020151Y006227D01*
X020112Y006131D01*
X020038Y006058D01*
X019943Y006018D01*
X019839Y006018D01*
X019791Y006039D01*
X019791Y005880D01*
X019474Y005880D01*
X019394Y005880D01*
X019394Y006177D01*
X019199Y006177D01*
X019164Y006167D01*
X019132Y006149D01*
X019106Y006123D01*
X019101Y006115D01*
X019040Y006176D01*
X019100Y006236D01*
X019631Y006236D01*
X019631Y006227D01*
X019652Y006177D01*
X019474Y006177D01*
X019474Y005880D01*
X019474Y005800D01*
X019474Y005503D01*
X019669Y005503D01*
X019705Y005513D01*
X019737Y005531D01*
X019763Y005557D01*
X019781Y005589D01*
X019791Y005625D01*
X019791Y005800D01*
X019474Y005800D01*
X019394Y005800D01*
X019394Y005503D01*
X019199Y005503D01*
X019164Y005513D01*
X019132Y005531D01*
X019106Y005557D01*
X019101Y005565D01*
X019039Y005503D01*
X018490Y005503D01*
X018408Y005585D01*
X018408Y005634D01*
X018240Y005465D01*
X018240Y005408D01*
X018200Y005313D01*
X018127Y005240D01*
X018031Y005200D01*
X017933Y005200D01*
X017933Y004644D01*
X017851Y004562D01*
X017519Y004562D01*
X017496Y004585D01*
X017473Y004572D01*
X017437Y004562D01*
X017325Y004562D01*
X017325Y004924D01*
X017297Y004924D01*
X017297Y004562D01*
X017184Y004562D01*
X017148Y004572D01*
X017126Y004585D01*
X017103Y004562D01*
X016770Y004562D01*
X016688Y004644D01*
X016688Y005233D01*
X016770Y005315D01*
X017103Y005315D01*
X017126Y005292D01*
X017148Y005305D01*
X017184Y005315D01*
X017297Y005315D01*
X017297Y004953D01*
X017325Y004953D01*
X017325Y005315D01*
X017437Y005315D01*
X017473Y005305D01*
X017496Y005292D01*
X017500Y005296D01*
X017500Y005385D01*
X017605Y005490D01*
X017755Y005640D01*
X017792Y005640D01*
X017832Y005680D01*
X017928Y005720D01*
X017985Y005720D01*
X018221Y005956D01*
X018271Y006008D01*
X018273Y006008D01*
X018275Y006010D01*
X018347Y006010D01*
X018408Y006011D01*
X018408Y006095D01*
X018453Y006140D01*
X018254Y006140D01*
X018074Y005960D01*
X017324Y005960D01*
X017144Y005780D01*
X016414Y005780D01*
X016240Y005606D01*
X015930Y005606D01*
X015642Y005318D01*
X015642Y005167D01*
X015682Y005126D01*
X015722Y005031D01*
X015722Y004927D01*
X015682Y004832D01*
X015609Y004759D01*
X015514Y004719D01*
X015410Y004719D01*
X015315Y004759D01*
X015242Y004832D01*
X015216Y004894D01*
X015190Y004832D01*
X015117Y004759D01*
X015022Y004719D01*
X014918Y004719D01*
X014860Y004743D01*
X014860Y004631D01*
X014798Y004570D01*
X014806Y004565D01*
X014832Y004539D01*
X014850Y004507D01*
X014860Y004472D01*
X014860Y004344D01*
X014572Y004344D01*
X014572Y004286D01*
X014860Y004286D01*
X014860Y004159D01*
X014850Y004123D01*
X014832Y004092D01*
X014806Y004065D01*
X014774Y004047D01*
X014738Y004037D01*
X014572Y004037D01*
X014572Y004286D01*
X014514Y004286D01*
X014514Y004046D01*
X015271Y003289D01*
X019364Y003289D01*
X019670Y003595D01*
X019670Y003634D01*
X019611Y003610D01*
X019508Y003610D01*
X019412Y003650D01*
X019372Y003690D01*
X019216Y003690D01*
X019216Y003542D01*
X019134Y003460D01*
X018388Y003460D01*
X018306Y003542D01*
X018306Y003735D01*
X017933Y003735D01*
X017933Y003620D01*
X017851Y003538D01*
X017600Y003538D01*
X017600Y003508D01*
X017560Y003413D01*
X017487Y003340D01*
X017391Y003300D01*
X017288Y003300D01*
X017192Y003340D01*
X017119Y003413D01*
X017080Y003508D01*
X017080Y003538D01*
X016770Y003538D01*
X016688Y003620D01*
X016688Y003908D01*
X016685Y003912D01*
X016398Y003912D01*
X016398Y003817D01*
X016316Y003735D01*
X015806Y003735D01*
X015724Y003817D01*
X015724Y004366D01*
X015786Y004428D01*
X015778Y004433D01*
X015752Y004459D01*
X015733Y004491D01*
X015724Y004526D01*
X015724Y004721D01*
X016021Y004721D01*
X016021Y004801D01*
X015724Y004801D01*
X015724Y004996D01*
X015733Y005032D01*
X015752Y005064D01*
X015778Y005090D01*
X015810Y005108D01*
X015845Y005118D01*
X016021Y005118D01*
X016021Y004801D01*
X016101Y004801D01*
X016398Y004801D01*
X016398Y004996D01*
X016388Y005032D01*
X016370Y005064D01*
X016344Y005090D01*
X016312Y005108D01*
X016276Y005118D01*
X016101Y005118D01*
X016101Y004801D01*
X016101Y004721D01*
X016398Y004721D01*
X016398Y004526D01*
X016388Y004491D01*
X016370Y004459D01*
X016344Y004433D01*
X016336Y004428D01*
X016398Y004366D01*
X016398Y004272D01*
X016751Y004272D01*
X016770Y004291D01*
X017103Y004291D01*
X017185Y004209D01*
X017185Y003773D01*
X017192Y003780D01*
X017288Y003820D01*
X017345Y003820D01*
X017437Y003912D01*
X017437Y004209D01*
X017519Y004291D01*
X017851Y004291D01*
X017933Y004209D01*
X017933Y004095D01*
X018306Y004095D01*
X018306Y004209D01*
X018388Y004291D01*
X019134Y004291D01*
X019216Y004209D01*
X019216Y004050D01*
X019372Y004050D01*
X019412Y004090D01*
X019508Y004130D01*
X019611Y004130D01*
X019670Y004106D01*
X019670Y004225D01*
X020070Y004625D01*
X020175Y004730D01*
X020223Y004730D01*
X020223Y005021D01*
X020232Y005030D01*
X020223Y005063D01*
X020223Y005171D01*
X020846Y005171D01*
X020846Y005189D01*
X020223Y005189D01*
X020223Y005297D01*
X020233Y005332D01*
X020251Y005364D01*
X020277Y005390D01*
X020309Y005409D01*
X020345Y005418D01*
X020846Y005418D01*
X020846Y005189D01*
X020864Y005189D01*
X020864Y005418D01*
X021366Y005418D01*
X021401Y005409D01*
X021433Y005390D01*
X021459Y005364D01*
X021478Y005332D01*
X021487Y005297D01*
X021487Y005189D01*
X020864Y005189D01*
X020864Y005171D01*
X021487Y005171D01*
X021487Y005063D01*
X021479Y005030D01*
X021487Y005021D01*
X021487Y004709D01*
X021486Y004707D01*
X021487Y004706D01*
X021487Y004394D01*
X021486Y004393D01*
X021487Y004391D01*
X021487Y004079D01*
X021486Y004078D01*
X021487Y004076D01*
X021487Y003764D01*
X021405Y003682D01*
X021362Y003682D01*
X022170Y002875D01*
X022170Y002739D01*
X022388Y002520D01*
X022388Y003230D01*
X022470Y003312D01*
X023571Y003312D01*
X023653Y003230D01*
X023653Y002327D01*
X023571Y002245D01*
X022912Y002245D01*
X022961Y002196D01*
X022961Y001949D01*
X022988Y001960D01*
X023091Y001960D01*
X023187Y001920D01*
X023260Y001847D01*
X023300Y001752D01*
X023300Y001648D01*
X023260Y001553D01*
X023187Y001480D01*
X023091Y001440D01*
X022988Y001440D01*
X022892Y001480D01*
X022819Y001553D01*
X022800Y001600D01*
X022774Y001625D01*
X022677Y001722D01*
X022429Y001722D01*
X022347Y001804D01*
X022347Y002053D01*
X022331Y002068D01*
X022331Y001804D01*
X022249Y001722D01*
X021799Y001722D01*
X021717Y001804D01*
X021717Y001820D01*
X021560Y001820D01*
X021630Y001651D01*
X021630Y001449D01*
X021552Y001261D01*
X021408Y001118D01*
X021469Y001178D02*
X023680Y001178D01*
X023680Y001257D02*
X021547Y001257D01*
X021582Y001335D02*
X023680Y001335D01*
X023680Y001414D02*
X021615Y001414D01*
X021630Y001492D02*
X022880Y001492D01*
X022812Y001571D02*
X021630Y001571D01*
X021630Y001649D02*
X022750Y001649D01*
X022954Y001700D02*
X023040Y001700D01*
X022954Y001700D02*
X022654Y002000D01*
X021990Y002664D01*
X021990Y002800D01*
X021160Y003630D01*
X021145Y003630D01*
X020855Y003920D01*
X020839Y003682D02*
X020305Y003682D01*
X020223Y003764D01*
X020223Y004009D01*
X020220Y004005D01*
X020220Y003045D01*
X020114Y002940D01*
X019907Y002732D01*
X018765Y002732D01*
X018790Y002707D01*
X018830Y002612D01*
X018830Y002555D01*
X019034Y002350D01*
X020223Y002350D01*
X020223Y003230D01*
X020305Y003312D01*
X021223Y003312D01*
X021085Y003450D01*
X021071Y003450D01*
X020839Y003682D01*
X020909Y003612D02*
X020220Y003612D01*
X020220Y003690D02*
X020297Y003690D01*
X020223Y003769D02*
X020220Y003769D01*
X020220Y003847D02*
X020223Y003847D01*
X020220Y003926D02*
X020223Y003926D01*
X020220Y004004D02*
X020223Y004004D01*
X020040Y004080D02*
X020195Y004235D01*
X020855Y004235D01*
X020855Y004550D02*
X020250Y004550D01*
X019850Y004150D01*
X019850Y003520D01*
X019438Y003109D01*
X015196Y003109D01*
X014202Y004103D01*
X013438Y004103D01*
X013438Y004300D02*
X013169Y004300D01*
X012962Y004093D01*
X012962Y004015D01*
X012702Y004004D02*
X011095Y004004D01*
X011098Y004008D02*
X011098Y004199D01*
X011095Y004202D01*
X011098Y004204D01*
X011098Y004396D01*
X011095Y004398D01*
X011098Y004401D01*
X011098Y004592D01*
X011095Y004595D01*
X011098Y004598D01*
X011098Y004789D01*
X011712Y004789D01*
X011700Y004818D02*
X011739Y004723D01*
X011812Y004650D01*
X011908Y004610D01*
X012011Y004610D01*
X012107Y004650D01*
X012137Y004680D01*
X012284Y004680D01*
X012390Y004785D01*
X012404Y004800D01*
X013125Y004800D01*
X013150Y004775D01*
X013141Y004742D01*
X013141Y004695D01*
X013109Y004727D01*
X013014Y004767D01*
X012910Y004767D01*
X012815Y004727D01*
X012742Y004654D01*
X012702Y004558D01*
X012702Y004455D01*
X012742Y004359D01*
X012815Y004286D01*
X012875Y004261D01*
X012873Y004259D01*
X012815Y004235D01*
X012742Y004162D01*
X012702Y004066D01*
X012702Y003963D01*
X012742Y003867D01*
X012815Y003794D01*
X012910Y003755D01*
X013014Y003755D01*
X013109Y003794D01*
X013141Y003826D01*
X013141Y003811D01*
X013144Y003808D01*
X013141Y003805D01*
X013141Y003614D01*
X013144Y003611D01*
X013141Y003608D01*
X013141Y003417D01*
X013144Y003414D01*
X013141Y003411D01*
X013141Y003279D01*
X013007Y003279D01*
X013005Y003277D01*
X013004Y003279D01*
X012810Y003279D01*
X012808Y003277D01*
X012807Y003279D01*
X012700Y003279D01*
X012700Y003302D01*
X012740Y003343D01*
X012780Y003438D01*
X012780Y003542D01*
X012740Y003637D01*
X012667Y003710D01*
X012571Y003750D01*
X012468Y003750D01*
X012372Y003710D01*
X012342Y003680D01*
X012234Y003680D01*
X011964Y003950D01*
X011545Y003950D01*
X011484Y003889D01*
X011098Y003889D01*
X011098Y003906D01*
X010801Y003906D01*
X010801Y003906D01*
X010801Y003903D01*
X010801Y003903D01*
X010801Y003906D01*
X010801Y003906D01*
X011098Y003906D01*
X011098Y003955D01*
X011087Y003996D01*
X011098Y004008D01*
X011098Y004083D02*
X012709Y004083D01*
X012741Y004161D02*
X011098Y004161D01*
X011098Y004240D02*
X012826Y004240D01*
X012783Y004318D02*
X011098Y004318D01*
X011097Y004397D02*
X012726Y004397D01*
X012702Y004475D02*
X011098Y004475D01*
X011098Y004554D02*
X012702Y004554D01*
X012733Y004632D02*
X012064Y004632D01*
X011855Y004632D02*
X011098Y004632D01*
X011098Y004711D02*
X011751Y004711D01*
X011700Y004818D02*
X011700Y004880D01*
X011651Y004860D01*
X011548Y004860D01*
X011452Y004900D01*
X011379Y004973D01*
X011340Y005068D01*
X011340Y005172D01*
X011379Y005267D01*
X011433Y005321D01*
X011432Y005321D01*
X011431Y005323D01*
X011429Y005321D01*
X011235Y005321D01*
X011234Y005323D01*
X011232Y005321D01*
X011098Y005321D01*
X011098Y005189D01*
X011095Y005186D01*
X011098Y005183D01*
X011098Y004992D01*
X011095Y004989D01*
X011098Y004986D01*
X011098Y004795D01*
X011095Y004792D01*
X011098Y004789D01*
X011098Y004868D02*
X011530Y004868D01*
X011669Y004868D02*
X011700Y004868D01*
X011960Y004870D02*
X012130Y005040D01*
X012130Y005649D01*
X012120Y005619D01*
X012120Y006473D01*
X012105Y006487D01*
X012363Y006232D02*
X012367Y006224D01*
X012393Y006198D01*
X012404Y006192D01*
X012333Y006121D01*
X012333Y005916D01*
X012316Y005916D01*
X012300Y005916D01*
X012300Y006170D01*
X012301Y006170D01*
X012363Y006232D01*
X012390Y006202D02*
X012333Y006202D01*
X012316Y006137D02*
X012470Y006290D01*
X012470Y006340D01*
X012617Y006487D01*
X012895Y006525D02*
X012895Y006683D01*
X012885Y006719D01*
X012870Y006746D01*
X012994Y006870D01*
X013694Y006870D01*
X013800Y006975D01*
X013909Y007085D01*
X014018Y007040D01*
X014221Y007040D01*
X014408Y007118D01*
X014552Y007261D01*
X014620Y007424D01*
X014687Y007261D01*
X014760Y007189D01*
X014691Y007121D01*
X014246Y006675D01*
X013045Y006675D01*
X012940Y006569D01*
X012895Y006525D01*
X012895Y006595D02*
X012965Y006595D01*
X012895Y006673D02*
X013043Y006673D01*
X012954Y006830D02*
X014401Y006830D01*
X014479Y006909D02*
X013733Y006909D01*
X013811Y006987D02*
X014558Y006987D01*
X014636Y007066D02*
X014283Y007066D01*
X014435Y007144D02*
X014715Y007144D01*
X014726Y007223D02*
X014513Y007223D01*
X014568Y007301D02*
X014671Y007301D01*
X014638Y007380D02*
X014601Y007380D01*
X014120Y007550D02*
X013620Y007050D01*
X012920Y007050D01*
X012760Y006890D01*
X011980Y006890D01*
X011726Y006636D01*
X011726Y005619D01*
X011923Y005619D02*
X011923Y005443D01*
X011600Y005120D01*
X011860Y005125D02*
X011950Y005215D01*
X011950Y005130D01*
X011908Y005130D01*
X011860Y005110D01*
X011860Y005125D01*
X011916Y005182D02*
X011950Y005182D01*
X012310Y005182D02*
X012652Y005182D01*
X012643Y005203D02*
X012661Y005160D01*
X012310Y005160D01*
X012310Y005321D01*
X012316Y005321D01*
X012316Y005619D01*
X012315Y005619D01*
X012315Y005619D01*
X012316Y005619D01*
X012316Y005619D01*
X012316Y005641D01*
X012316Y005619D01*
X012316Y005619D01*
X012316Y005619D01*
X012316Y006137D01*
X012300Y006124D02*
X012336Y006124D01*
X012333Y006045D02*
X012300Y006045D01*
X012300Y005967D02*
X012333Y005967D01*
X012316Y005916D02*
X012316Y005678D01*
X012316Y005916D01*
X012316Y005888D02*
X012316Y005888D01*
X012316Y005810D02*
X012316Y005810D01*
X012316Y005731D02*
X012316Y005731D01*
X012316Y005678D02*
X012316Y005678D01*
X012316Y005641D02*
X012316Y005641D01*
X012316Y005619D02*
X012318Y005619D01*
X012318Y005619D01*
X012316Y005619D01*
X012316Y005321D01*
X012366Y005321D01*
X012406Y005332D01*
X012416Y005321D01*
X012610Y005321D01*
X012612Y005323D01*
X012613Y005321D01*
X012649Y005321D01*
X012643Y005306D01*
X012643Y005203D01*
X012643Y005260D02*
X012310Y005260D01*
X012316Y005339D02*
X012316Y005339D01*
X012316Y005417D02*
X012316Y005417D01*
X012316Y005496D02*
X012316Y005496D01*
X012316Y005574D02*
X012316Y005574D01*
X012316Y005619D02*
X012316Y005619D01*
X012513Y005619D02*
X012513Y006046D01*
X012608Y006141D01*
X012765Y006141D01*
X013120Y006495D01*
X014320Y006495D01*
X014871Y007046D01*
X015616Y007046D01*
X016120Y007550D01*
X016601Y007380D02*
X016638Y007380D01*
X016655Y007340D02*
X016541Y007226D01*
X016517Y007226D01*
X016552Y007261D01*
X016620Y007424D01*
X016655Y007340D01*
X016616Y007301D02*
X016568Y007301D01*
X016616Y007046D02*
X017120Y007550D01*
X017601Y007380D02*
X017638Y007380D01*
X017655Y007340D02*
X017541Y007226D01*
X017517Y007226D01*
X017552Y007261D01*
X017620Y007424D01*
X017655Y007340D01*
X017616Y007301D02*
X017568Y007301D01*
X017616Y007046D02*
X018120Y007550D01*
X018601Y007380D02*
X018638Y007380D01*
X018655Y007340D02*
X018541Y007226D01*
X018517Y007226D01*
X018552Y007261D01*
X018620Y007424D01*
X018655Y007340D01*
X018616Y007301D02*
X018568Y007301D01*
X018616Y007046D02*
X019120Y007550D01*
X019601Y007380D02*
X019638Y007380D01*
X019655Y007340D02*
X019541Y007226D01*
X019517Y007226D01*
X019552Y007261D01*
X019620Y007424D01*
X019655Y007340D01*
X019616Y007301D02*
X019568Y007301D01*
X019616Y007046D02*
X020120Y007550D01*
X020601Y007380D02*
X020638Y007380D01*
X020655Y007340D02*
X020541Y007226D01*
X020517Y007226D01*
X020552Y007261D01*
X020620Y007424D01*
X020655Y007340D01*
X020616Y007301D02*
X020568Y007301D01*
X020616Y007046D02*
X021120Y007550D01*
X021601Y007380D02*
X021638Y007380D01*
X021655Y007340D02*
X021364Y007049D01*
X021242Y007049D01*
X021408Y007118D01*
X021552Y007261D01*
X021620Y007424D01*
X021655Y007340D01*
X021616Y007301D02*
X021568Y007301D01*
X021537Y007223D02*
X021513Y007223D01*
X021459Y007144D02*
X021435Y007144D01*
X021380Y007066D02*
X021283Y007066D01*
X020997Y007049D02*
X020873Y007049D01*
X020909Y007085D01*
X020997Y007049D01*
X020956Y007066D02*
X020890Y007066D01*
X020616Y007046D02*
X019871Y007046D01*
X019694Y006869D01*
X018946Y006869D01*
X018757Y006680D01*
X018020Y006680D01*
X017840Y006500D01*
X017090Y006500D01*
X016910Y006320D01*
X016180Y006320D01*
X016000Y006141D01*
X015698Y006141D01*
X014645Y005087D01*
X013438Y005087D01*
X013438Y005284D02*
X014586Y005284D01*
X015620Y006318D01*
X015917Y006318D01*
X016110Y006510D01*
X016840Y006510D01*
X017010Y006680D01*
X017760Y006680D01*
X017940Y006860D01*
X018701Y006860D01*
X018887Y007046D01*
X019616Y007046D01*
X019950Y006869D02*
X021438Y006869D01*
X022120Y007550D01*
X022601Y007380D02*
X022638Y007380D01*
X022671Y007301D02*
X022568Y007301D01*
X022513Y007223D02*
X022726Y007223D01*
X022804Y007144D02*
X022435Y007144D01*
X022283Y007066D02*
X022956Y007066D01*
X023283Y007066D02*
X023680Y007066D01*
X023680Y007144D02*
X023435Y007144D01*
X023513Y007223D02*
X023680Y007223D01*
X023680Y007301D02*
X023568Y007301D01*
X023601Y007380D02*
X023680Y007380D01*
X023680Y007458D02*
X023630Y007458D01*
X023630Y007537D02*
X023680Y007537D01*
X023680Y007615D02*
X023630Y007615D01*
X023612Y007694D02*
X023680Y007694D01*
X023680Y007772D02*
X023580Y007772D01*
X023540Y007851D02*
X023680Y007851D01*
X023680Y007929D02*
X023462Y007929D01*
X023348Y008008D02*
X023680Y008008D01*
X023680Y008086D02*
X003560Y008086D01*
X003560Y008008D02*
X003639Y008008D01*
X003610Y007929D02*
X003560Y007929D01*
X003560Y007851D02*
X003610Y007851D01*
X003610Y007772D02*
X003560Y007772D01*
X003560Y007694D02*
X003610Y007694D01*
X003610Y007615D02*
X003560Y007615D01*
X003560Y007537D02*
X003610Y007537D01*
X003610Y007458D02*
X003560Y007458D01*
X003560Y007380D02*
X003610Y007380D01*
X003610Y007301D02*
X003560Y007301D01*
X003560Y007223D02*
X003610Y007223D01*
X003610Y007144D02*
X003560Y007144D01*
X003560Y007066D02*
X003666Y007066D01*
X003560Y006987D02*
X004428Y006987D01*
X004506Y006909D02*
X003560Y006909D01*
X003560Y006830D02*
X004585Y006830D01*
X004663Y006752D02*
X003560Y006752D01*
X003560Y006673D02*
X004742Y006673D01*
X004820Y006595D02*
X003560Y006595D01*
X003560Y006516D02*
X004899Y006516D01*
X004977Y006438D02*
X003560Y006438D01*
X003560Y006359D02*
X005056Y006359D01*
X005134Y006281D02*
X003560Y006281D01*
X003560Y006202D02*
X005213Y006202D01*
X005291Y006124D02*
X003560Y006124D01*
X003560Y006045D02*
X005370Y006045D01*
X005448Y005967D02*
X003560Y005967D01*
X003560Y005888D02*
X005527Y005888D01*
X005605Y005810D02*
X003560Y005810D01*
X003560Y005731D02*
X005684Y005731D01*
X005762Y005653D02*
X003560Y005653D01*
X003560Y005574D02*
X005841Y005574D01*
X005919Y005496D02*
X003560Y005496D01*
X003560Y005417D02*
X005998Y005417D01*
X006076Y005339D02*
X003560Y005339D01*
X003560Y005260D02*
X006155Y005260D01*
X006233Y005182D02*
X003560Y005182D01*
X003560Y005103D02*
X006312Y005103D01*
X006390Y005025D02*
X003560Y005025D01*
X003560Y004946D02*
X006469Y004946D01*
X006547Y004868D02*
X003560Y004868D01*
X003560Y004789D02*
X006626Y004789D01*
X006704Y004711D02*
X003560Y004711D01*
X003560Y004632D02*
X004366Y004632D01*
X004385Y004651D02*
X004303Y004569D01*
X004303Y004475D01*
X004303Y004475D01*
X004289Y004499D01*
X004263Y004525D01*
X004231Y004543D01*
X004195Y004553D01*
X004058Y004553D01*
X004058Y004294D01*
X003981Y004294D01*
X003981Y004553D01*
X003844Y004553D01*
X003808Y004543D01*
X003776Y004525D01*
X003750Y004499D01*
X003732Y004467D01*
X003722Y004431D01*
X003722Y004294D01*
X003981Y004294D01*
X003981Y004217D01*
X003722Y004217D01*
X003722Y004079D01*
X003732Y004044D01*
X003750Y004012D01*
X003776Y003986D01*
X003808Y003967D01*
X003827Y003962D01*
X003804Y003962D01*
X003722Y003880D01*
X003722Y003449D01*
X003804Y003367D01*
X004235Y003367D01*
X004303Y003435D01*
X004303Y003391D01*
X004385Y003309D01*
X004934Y003309D01*
X005016Y003391D01*
X005016Y003620D01*
X005019Y003613D01*
X005092Y003540D01*
X005188Y003500D01*
X005291Y003500D01*
X005387Y003540D01*
X005460Y003613D01*
X005500Y003708D01*
X005500Y003812D01*
X005460Y003907D01*
X005387Y003980D01*
X005291Y004020D01*
X005188Y004020D01*
X005187Y004020D01*
X005016Y004143D01*
X005016Y004569D01*
X004934Y004651D01*
X004385Y004651D01*
X004303Y004554D02*
X003560Y004554D01*
X003560Y004475D02*
X003736Y004475D01*
X003722Y004397D02*
X003560Y004397D01*
X003560Y004318D02*
X003722Y004318D01*
X003560Y004240D02*
X003981Y004240D01*
X003981Y004318D02*
X004058Y004318D01*
X004058Y004397D02*
X003981Y004397D01*
X003981Y004475D02*
X004058Y004475D01*
X004464Y004320D02*
X004660Y004315D01*
X004464Y004320D02*
X005240Y003760D01*
X005500Y003769D02*
X008362Y003769D01*
X008362Y003847D02*
X005485Y003847D01*
X005442Y003926D02*
X007489Y003926D01*
X007411Y004004D02*
X005330Y004004D01*
X005100Y004083D02*
X007332Y004083D01*
X007254Y004161D02*
X005016Y004161D01*
X005016Y004240D02*
X007175Y004240D01*
X007097Y004318D02*
X005016Y004318D01*
X005016Y004397D02*
X007018Y004397D01*
X006940Y004475D02*
X005016Y004475D01*
X005016Y004554D02*
X006861Y004554D01*
X006783Y004632D02*
X004954Y004632D01*
X004359Y004004D02*
X004281Y004004D01*
X004289Y004012D02*
X004307Y004044D01*
X004310Y004053D01*
X004383Y003980D01*
X004303Y003900D01*
X004303Y003894D01*
X004235Y003962D01*
X004212Y003962D01*
X004231Y003967D01*
X004263Y003986D01*
X004289Y004012D01*
X004272Y003926D02*
X004328Y003926D01*
X004020Y003665D02*
X004640Y003665D01*
X004660Y003645D01*
X005016Y003612D02*
X005020Y003612D01*
X005016Y003533D02*
X005108Y003533D01*
X005016Y003455D02*
X008397Y003455D01*
X008378Y003533D02*
X005371Y003533D01*
X005459Y003612D02*
X008362Y003612D01*
X008362Y003690D02*
X005492Y003690D01*
X005002Y003376D02*
X008362Y003376D01*
X008362Y003298D02*
X003560Y003298D01*
X003560Y003376D02*
X003795Y003376D01*
X003722Y003455D02*
X003560Y003455D01*
X003560Y003533D02*
X003722Y003533D01*
X003722Y003612D02*
X003560Y003612D01*
X003560Y003690D02*
X003722Y003690D01*
X003722Y003769D02*
X003560Y003769D01*
X003560Y003847D02*
X003722Y003847D01*
X003767Y003926D02*
X003560Y003926D01*
X003560Y004004D02*
X003758Y004004D01*
X003722Y004083D02*
X003560Y004083D01*
X003560Y004161D02*
X003722Y004161D01*
X004244Y003376D02*
X004317Y003376D01*
X003560Y003219D02*
X008362Y003219D01*
X008362Y003141D02*
X003560Y003141D01*
X003560Y003062D02*
X008362Y003062D01*
X008178Y002984D02*
X003560Y002984D01*
X003560Y002905D02*
X008100Y002905D01*
X008021Y002827D02*
X003560Y002827D01*
X003560Y002748D02*
X007243Y002748D01*
X007164Y002670D02*
X003560Y002670D01*
X003560Y002591D02*
X004906Y002591D01*
X004827Y002513D02*
X003560Y002513D01*
X003560Y002434D02*
X004749Y002434D01*
X004670Y002356D02*
X003560Y002356D01*
X003560Y002277D02*
X004592Y002277D01*
X004513Y002199D02*
X003560Y002199D01*
X003560Y002120D02*
X004435Y002120D01*
X004709Y001885D02*
X004733Y001885D01*
X004687Y001839D02*
X004831Y001982D01*
X005018Y002060D01*
X005221Y002060D01*
X005330Y002015D01*
X005565Y002250D01*
X005074Y002250D01*
X004630Y001805D01*
X004630Y001700D01*
X004687Y001839D01*
X004674Y001806D02*
X004630Y001806D01*
X004630Y001728D02*
X004641Y001728D01*
X004787Y001963D02*
X004811Y001963D01*
X004866Y002042D02*
X004973Y002042D01*
X004944Y002120D02*
X005435Y002120D01*
X005513Y002199D02*
X005023Y002199D01*
X005266Y002042D02*
X005356Y002042D01*
X005709Y001885D02*
X005733Y001885D01*
X005687Y001839D02*
X005831Y001982D01*
X006018Y002060D01*
X006221Y002060D01*
X006330Y002015D01*
X006385Y002070D01*
X005894Y002070D01*
X005584Y001760D01*
X005620Y001676D01*
X005687Y001839D01*
X005674Y001806D02*
X005630Y001806D01*
X005641Y001728D02*
X005598Y001728D01*
X005787Y001963D02*
X005811Y001963D01*
X005866Y002042D02*
X005973Y002042D01*
X006266Y002042D02*
X006356Y002042D01*
X006620Y002050D02*
X006120Y001550D01*
X006584Y001760D02*
X006694Y001870D01*
X006718Y001870D01*
X006687Y001839D01*
X006620Y001676D01*
X006584Y001760D01*
X006598Y001728D02*
X006641Y001728D01*
X006630Y001806D02*
X006674Y001806D01*
X006620Y002050D02*
X007350Y002050D01*
X007540Y002240D01*
X008280Y002240D01*
X008460Y002420D01*
X009210Y002420D01*
X009410Y002620D01*
X010990Y002620D01*
X011135Y002766D01*
X011135Y002981D01*
X010940Y002984D02*
X010518Y002984D01*
X010596Y003062D02*
X010940Y003062D01*
X010940Y003123D02*
X010940Y002825D01*
X010915Y002800D01*
X010334Y002800D01*
X010657Y003123D01*
X010940Y003123D01*
X011098Y003279D02*
X011098Y003411D01*
X011095Y003414D01*
X011098Y003417D01*
X011098Y003529D01*
X011488Y003529D01*
X011460Y003462D01*
X011460Y003358D01*
X011493Y003279D01*
X011432Y003279D01*
X011431Y003277D01*
X011429Y003279D01*
X011235Y003279D01*
X011234Y003277D01*
X011232Y003279D01*
X011098Y003279D01*
X011098Y003298D02*
X011485Y003298D01*
X011460Y003376D02*
X011098Y003376D01*
X011098Y003455D02*
X011460Y003455D01*
X011720Y003410D02*
X011726Y003404D01*
X011726Y002981D01*
X011923Y002981D02*
X011923Y002763D01*
X011230Y002070D01*
X010640Y002070D01*
X010120Y001550D01*
X010584Y001760D02*
X010714Y001890D01*
X010738Y001890D01*
X010687Y001839D01*
X010620Y001676D01*
X010584Y001760D01*
X010598Y001728D02*
X010641Y001728D01*
X010630Y001806D02*
X010674Y001806D01*
X010709Y001885D02*
X010733Y001885D01*
X010385Y002070D02*
X010330Y002015D01*
X010221Y002060D01*
X010018Y002060D01*
X009831Y001982D01*
X009687Y001839D01*
X009620Y001676D01*
X009552Y001839D01*
X009482Y001908D01*
X009550Y001975D01*
X009550Y001975D01*
X009644Y002070D01*
X010385Y002070D01*
X010356Y002042D02*
X010266Y002042D01*
X009973Y002042D02*
X009616Y002042D01*
X009537Y001963D02*
X009811Y001963D01*
X009733Y001885D02*
X009506Y001885D01*
X009565Y001806D02*
X009674Y001806D01*
X009641Y001728D02*
X009598Y001728D01*
X009615Y001414D02*
X009624Y001414D01*
X009657Y001335D02*
X009582Y001335D01*
X009547Y001257D02*
X009692Y001257D01*
X009770Y001178D02*
X009469Y001178D01*
X009365Y001100D02*
X009874Y001100D01*
X010365Y001100D02*
X010874Y001100D01*
X010770Y001178D02*
X010469Y001178D01*
X010547Y001257D02*
X010692Y001257D01*
X010657Y001335D02*
X010582Y001335D01*
X010615Y001414D02*
X010624Y001414D01*
X011120Y001550D02*
X011610Y002040D01*
X011610Y002190D01*
X012120Y002700D01*
X012120Y002981D01*
X012315Y002981D02*
X012316Y002981D01*
X012316Y002981D01*
X012315Y002981D01*
X012315Y002981D01*
X012316Y002981D02*
X012316Y002981D01*
X012316Y002684D01*
X012300Y002684D01*
X012300Y002625D01*
X011790Y002115D01*
X011790Y001965D01*
X011584Y001760D01*
X011620Y001676D01*
X011687Y001839D01*
X011831Y001982D01*
X012018Y002060D01*
X012221Y002060D01*
X012330Y002015D01*
X012530Y002215D01*
X012530Y002684D01*
X012416Y002684D01*
X012406Y002694D01*
X012366Y002684D01*
X012316Y002684D01*
X012316Y002981D01*
X012316Y003279D01*
X012267Y003279D01*
X012227Y003268D01*
X012216Y003279D01*
X012023Y003279D01*
X012021Y003277D01*
X012020Y003279D01*
X011946Y003279D01*
X011980Y003358D01*
X011980Y003425D01*
X012085Y003320D01*
X012322Y003320D01*
X012340Y003302D01*
X012340Y003279D01*
X012316Y003279D01*
X012316Y002981D01*
X012316Y002981D01*
X012318Y002981D01*
X012318Y002981D01*
X012316Y002981D01*
X012316Y002981D01*
X012316Y002984D02*
X012316Y002984D01*
X012316Y003062D02*
X012316Y003062D01*
X012316Y003141D02*
X012316Y003141D01*
X012316Y003219D02*
X012316Y003219D01*
X012340Y003298D02*
X011954Y003298D01*
X011980Y003376D02*
X012029Y003376D01*
X011980Y003425D02*
X011980Y003425D01*
X012160Y003500D02*
X012510Y003500D01*
X012520Y003490D01*
X012520Y002947D01*
X012513Y002981D01*
X012710Y002981D02*
X012710Y002141D01*
X012120Y001550D01*
X012584Y001760D02*
X012890Y002066D01*
X012890Y002305D01*
X012940Y002255D01*
X012940Y002027D01*
X012831Y001982D01*
X012687Y001839D01*
X012620Y001676D01*
X012584Y001760D01*
X012598Y001728D02*
X012641Y001728D01*
X012630Y001806D02*
X012674Y001806D01*
X012709Y001885D02*
X012733Y001885D01*
X012787Y001963D02*
X012811Y001963D01*
X012866Y002042D02*
X012940Y002042D01*
X012940Y002120D02*
X012890Y002120D01*
X012890Y002199D02*
X012940Y002199D01*
X012918Y002277D02*
X012890Y002277D01*
X013120Y002330D02*
X013120Y001550D01*
X013598Y001728D02*
X013641Y001728D01*
X013620Y001676D02*
X013552Y001839D01*
X013408Y001982D01*
X013300Y002027D01*
X013300Y002405D01*
X013254Y002450D01*
X013895Y002450D01*
X013940Y002405D01*
X013940Y002027D01*
X013831Y001982D01*
X013687Y001839D01*
X013620Y001676D01*
X013674Y001806D02*
X013565Y001806D01*
X013506Y001885D02*
X013733Y001885D01*
X013811Y001963D02*
X013428Y001963D01*
X013300Y002042D02*
X013940Y002042D01*
X013940Y002120D02*
X013300Y002120D01*
X013300Y002199D02*
X013940Y002199D01*
X013940Y002277D02*
X013300Y002277D01*
X013300Y002356D02*
X013940Y002356D01*
X013911Y002434D02*
X013270Y002434D01*
X013120Y002330D02*
X012907Y002543D01*
X012907Y002981D01*
X013104Y002981D02*
X013104Y002796D01*
X013270Y002630D01*
X013970Y002630D01*
X014120Y002480D01*
X014120Y001550D01*
X014598Y001728D02*
X014641Y001728D01*
X014620Y001676D02*
X014552Y001839D01*
X014408Y001982D01*
X014300Y002027D01*
X014300Y002555D01*
X014194Y002660D01*
X014044Y002810D01*
X013344Y002810D01*
X013299Y002855D01*
X013299Y003123D01*
X013638Y003123D01*
X013651Y003136D01*
X013779Y003136D01*
X014690Y002225D01*
X014795Y002120D01*
X014940Y002120D01*
X014940Y002027D01*
X014831Y001982D01*
X014687Y001839D01*
X014620Y001676D01*
X014674Y001806D02*
X014565Y001806D01*
X014506Y001885D02*
X014733Y001885D01*
X014811Y001963D02*
X014428Y001963D01*
X014300Y002042D02*
X014940Y002042D01*
X014795Y002120D02*
X014300Y002120D01*
X014300Y002199D02*
X014716Y002199D01*
X014638Y002277D02*
X014300Y002277D01*
X014300Y002356D02*
X014559Y002356D01*
X014481Y002434D02*
X014300Y002434D01*
X014300Y002513D02*
X014402Y002513D01*
X014324Y002591D02*
X014263Y002591D01*
X014245Y002670D02*
X014185Y002670D01*
X014167Y002748D02*
X014106Y002748D01*
X014088Y002827D02*
X013328Y002827D01*
X013299Y002905D02*
X014010Y002905D01*
X013931Y002984D02*
X013299Y002984D01*
X013299Y003062D02*
X013853Y003062D01*
X013854Y003316D02*
X013438Y003316D01*
X013438Y003513D02*
X013967Y003513D01*
X014930Y002550D01*
X015870Y002550D01*
X016130Y002290D01*
X016130Y001560D01*
X016120Y001550D01*
X016598Y001728D02*
X016641Y001728D01*
X016620Y001676D02*
X016552Y001839D01*
X016408Y001982D01*
X016310Y002023D01*
X016310Y002365D01*
X016204Y002470D01*
X016114Y002560D01*
X016515Y002560D01*
X016940Y002135D01*
X016940Y002027D01*
X016831Y001982D01*
X016687Y001839D01*
X016620Y001676D01*
X016674Y001806D02*
X016565Y001806D01*
X016506Y001885D02*
X016733Y001885D01*
X016811Y001963D02*
X016428Y001963D01*
X016310Y002042D02*
X016940Y002042D01*
X016940Y002120D02*
X016310Y002120D01*
X016310Y002199D02*
X016876Y002199D01*
X016798Y002277D02*
X016310Y002277D01*
X016310Y002356D02*
X016719Y002356D01*
X016641Y002434D02*
X016240Y002434D01*
X016162Y002513D02*
X016562Y002513D01*
X016993Y002591D02*
X018310Y002591D01*
X018310Y002612D02*
X018310Y002508D01*
X018349Y002413D01*
X018422Y002340D01*
X018518Y002300D01*
X018575Y002300D01*
X018876Y001999D01*
X018852Y001986D01*
X018787Y001939D01*
X018731Y001882D01*
X018683Y001817D01*
X018647Y001746D01*
X018622Y001669D01*
X018552Y001839D01*
X018408Y001982D01*
X018221Y002060D01*
X018018Y002060D01*
X017831Y001982D01*
X017687Y001839D01*
X017620Y001676D01*
X017552Y001839D01*
X017408Y001982D01*
X017300Y002027D01*
X017300Y002285D01*
X017194Y002390D01*
X016852Y002732D01*
X018374Y002732D01*
X018349Y002707D01*
X018310Y002612D01*
X018333Y002670D02*
X016915Y002670D01*
X016590Y002740D02*
X017120Y002210D01*
X017120Y001550D01*
X017598Y001728D02*
X017641Y001728D01*
X017674Y001806D02*
X017565Y001806D01*
X017506Y001885D02*
X017733Y001885D01*
X017811Y001963D02*
X017428Y001963D01*
X017300Y002042D02*
X017973Y002042D01*
X018266Y002042D02*
X018833Y002042D01*
X018820Y001963D02*
X018428Y001963D01*
X018506Y001885D02*
X018733Y001885D01*
X018678Y001806D02*
X018565Y001806D01*
X018598Y001728D02*
X018641Y001728D01*
X018622Y001669D02*
X018622Y001669D01*
X019080Y001492D02*
X019160Y001492D01*
X019160Y001414D02*
X019080Y001414D01*
X019080Y001335D02*
X019160Y001335D01*
X019160Y001257D02*
X019080Y001257D01*
X019080Y001178D02*
X019160Y001178D01*
X019160Y001100D02*
X019080Y001100D01*
X018880Y001100D02*
X018365Y001100D01*
X018469Y001178D02*
X018770Y001178D01*
X018702Y001257D02*
X018547Y001257D01*
X018582Y001335D02*
X018657Y001335D01*
X018628Y001414D02*
X018615Y001414D01*
X017874Y001100D02*
X017365Y001100D01*
X017469Y001178D02*
X017770Y001178D01*
X017692Y001257D02*
X017547Y001257D01*
X017582Y001335D02*
X017657Y001335D01*
X017624Y001414D02*
X017615Y001414D01*
X016874Y001100D02*
X016365Y001100D01*
X016469Y001178D02*
X016770Y001178D01*
X016692Y001257D02*
X016547Y001257D01*
X016582Y001335D02*
X016657Y001335D01*
X016624Y001414D02*
X016615Y001414D01*
X015874Y001100D02*
X015365Y001100D01*
X015469Y001178D02*
X015770Y001178D01*
X015692Y001257D02*
X015547Y001257D01*
X015582Y001335D02*
X015657Y001335D01*
X015624Y001414D02*
X015615Y001414D01*
X015120Y001550D02*
X015120Y002300D01*
X014870Y002300D01*
X013854Y003316D01*
X014030Y003709D02*
X013438Y003709D01*
X013141Y003690D02*
X012687Y003690D01*
X012751Y003612D02*
X013143Y003612D01*
X013141Y003533D02*
X012780Y003533D01*
X012780Y003455D02*
X013141Y003455D01*
X013141Y003376D02*
X012754Y003376D01*
X012700Y003298D02*
X013141Y003298D01*
X012352Y003690D02*
X012224Y003690D01*
X012146Y003769D02*
X012877Y003769D01*
X012762Y003847D02*
X012067Y003847D01*
X011989Y003926D02*
X012717Y003926D01*
X013047Y003769D02*
X013141Y003769D01*
X013438Y003906D02*
X014093Y003906D01*
X015087Y002912D01*
X019832Y002912D01*
X020040Y003120D01*
X020040Y004080D01*
X019670Y004161D02*
X019216Y004161D01*
X019216Y004083D02*
X019404Y004083D01*
X019185Y004240D02*
X019684Y004240D01*
X019763Y004318D02*
X016398Y004318D01*
X016368Y004397D02*
X019841Y004397D01*
X019920Y004475D02*
X016379Y004475D01*
X016398Y004554D02*
X019998Y004554D01*
X020077Y004632D02*
X019197Y004632D01*
X019188Y004616D02*
X019206Y004648D01*
X019216Y004684D01*
X019216Y004938D01*
X018801Y004938D01*
X018801Y005018D01*
X018721Y005018D01*
X018721Y005393D01*
X018427Y005393D01*
X018392Y005384D01*
X018360Y005365D01*
X018334Y005339D01*
X018315Y005307D01*
X018306Y005272D01*
X018306Y005018D01*
X018721Y005018D01*
X018721Y004938D01*
X018306Y004938D01*
X018306Y004684D01*
X018315Y004648D01*
X018334Y004616D01*
X018360Y004590D01*
X018392Y004572D01*
X018427Y004562D01*
X018721Y004562D01*
X018721Y004938D01*
X018801Y004938D01*
X018801Y004562D01*
X019094Y004562D01*
X019130Y004572D01*
X019162Y004590D01*
X019188Y004616D01*
X019216Y004711D02*
X020155Y004711D01*
X020223Y004789D02*
X019216Y004789D01*
X019216Y004868D02*
X020223Y004868D01*
X020223Y004946D02*
X018801Y004946D01*
X018801Y005018D02*
X019216Y005018D01*
X019216Y005272D01*
X019206Y005307D01*
X019188Y005339D01*
X019162Y005365D01*
X019130Y005384D01*
X019094Y005393D01*
X018801Y005393D01*
X018801Y005018D01*
X018801Y005025D02*
X018721Y005025D01*
X018721Y005103D02*
X018801Y005103D01*
X018801Y005182D02*
X018721Y005182D01*
X018721Y005260D02*
X018801Y005260D01*
X018801Y005339D02*
X018721Y005339D01*
X019188Y005339D02*
X020236Y005339D01*
X020223Y005260D02*
X019216Y005260D01*
X019216Y005182D02*
X020846Y005182D01*
X020864Y005182D02*
X021626Y005182D01*
X021660Y005147D02*
X021571Y005236D01*
X021522Y005353D01*
X021522Y005479D01*
X021571Y005596D01*
X021660Y005685D01*
X021776Y005733D01*
X021903Y005733D01*
X022019Y005685D01*
X022108Y005596D01*
X022157Y005479D01*
X022157Y005353D01*
X022108Y005236D01*
X022019Y005147D01*
X021903Y005099D01*
X021776Y005099D01*
X021660Y005147D01*
X021767Y005103D02*
X021487Y005103D01*
X021484Y005025D02*
X023680Y005025D01*
X023680Y005103D02*
X021912Y005103D01*
X022053Y005182D02*
X023680Y005182D01*
X023680Y005260D02*
X022118Y005260D01*
X022151Y005339D02*
X023680Y005339D01*
X023680Y005417D02*
X022157Y005417D01*
X022150Y005496D02*
X023680Y005496D01*
X023680Y005574D02*
X022117Y005574D01*
X022052Y005653D02*
X023680Y005653D01*
X023680Y005731D02*
X021908Y005731D01*
X021771Y005731D02*
X019791Y005731D01*
X019791Y005653D02*
X021627Y005653D01*
X021562Y005574D02*
X019772Y005574D01*
X019474Y005574D02*
X019394Y005574D01*
X019394Y005653D02*
X019474Y005653D01*
X019474Y005731D02*
X019394Y005731D01*
X019474Y005810D02*
X020284Y005810D01*
X020223Y005888D02*
X019791Y005888D01*
X019791Y005967D02*
X020223Y005967D01*
X020223Y006045D02*
X020007Y006045D01*
X020104Y006124D02*
X020223Y006124D01*
X020223Y006202D02*
X020141Y006202D01*
X020151Y006281D02*
X020223Y006281D01*
X020223Y006359D02*
X020139Y006359D01*
X020100Y006438D02*
X020223Y006438D01*
X020223Y006516D02*
X019997Y006516D01*
X019930Y006595D02*
X020223Y006595D01*
X020223Y006673D02*
X020009Y006673D01*
X019950Y006869D02*
X019773Y006692D01*
X019025Y006692D01*
X018833Y006500D01*
X018100Y006500D01*
X017920Y006320D01*
X017170Y006320D01*
X016990Y006140D01*
X016260Y006140D01*
X016083Y005963D01*
X015777Y005963D01*
X014970Y005156D01*
X014970Y004979D01*
X015205Y004868D02*
X015227Y004868D01*
X015284Y004789D02*
X015147Y004789D01*
X014860Y004711D02*
X015724Y004711D01*
X015724Y004632D02*
X014860Y004632D01*
X014817Y004554D02*
X015724Y004554D01*
X015742Y004475D02*
X014859Y004475D01*
X014860Y004397D02*
X015754Y004397D01*
X015724Y004318D02*
X014572Y004318D01*
X014543Y004315D02*
X014518Y004290D01*
X014320Y004290D01*
X013917Y004694D01*
X013438Y004694D01*
X013143Y004694D01*
X013143Y004694D01*
X013438Y004694D01*
X013438Y004694D01*
X013438Y004697D01*
X013438Y004697D01*
X013438Y004694D01*
X013438Y004694D01*
X013438Y004694D01*
X013438Y004690D01*
X013438Y004690D01*
X013438Y004694D01*
X013736Y004694D01*
X013736Y004711D01*
X014225Y004711D01*
X014225Y004631D01*
X014287Y004570D01*
X014280Y004565D01*
X014253Y004539D01*
X014235Y004507D01*
X014225Y004472D01*
X014225Y004344D01*
X014514Y004344D01*
X014514Y004286D01*
X014225Y004286D01*
X014225Y004283D01*
X013736Y004283D01*
X013736Y004396D01*
X013733Y004398D01*
X013736Y004401D01*
X013736Y004592D01*
X013725Y004604D01*
X013736Y004645D01*
X013736Y004694D01*
X013438Y004694D01*
X013438Y004694D01*
X013141Y004711D02*
X013126Y004711D01*
X013136Y004789D02*
X012393Y004789D01*
X012315Y004711D02*
X012798Y004711D01*
X012962Y004507D02*
X012972Y004497D01*
X013438Y004497D01*
X013736Y004475D02*
X014226Y004475D01*
X014225Y004397D02*
X013735Y004397D01*
X013736Y004318D02*
X014514Y004318D01*
X014514Y004240D02*
X014572Y004240D01*
X014572Y004161D02*
X014514Y004161D01*
X014514Y004083D02*
X014572Y004083D01*
X014556Y004004D02*
X015724Y004004D01*
X015724Y003926D02*
X014634Y003926D01*
X014713Y003847D02*
X015724Y003847D01*
X015773Y003769D02*
X014791Y003769D01*
X014870Y003690D02*
X016688Y003690D01*
X016688Y003769D02*
X016349Y003769D01*
X016398Y003847D02*
X016688Y003847D01*
X016760Y004092D02*
X016937Y003915D01*
X017185Y003926D02*
X017437Y003926D01*
X017437Y004004D02*
X017185Y004004D01*
X017185Y004083D02*
X017437Y004083D01*
X017437Y004161D02*
X017185Y004161D01*
X017154Y004240D02*
X017467Y004240D01*
X017902Y004240D02*
X018336Y004240D01*
X018306Y004161D02*
X017933Y004161D01*
X017685Y003915D02*
X017685Y003905D01*
X017340Y003560D01*
X017577Y003455D02*
X019529Y003455D01*
X019608Y003533D02*
X019207Y003533D01*
X019216Y003612D02*
X019504Y003612D01*
X019615Y003612D02*
X019670Y003612D01*
X019451Y003376D02*
X017523Y003376D01*
X017600Y003533D02*
X018315Y003533D01*
X018306Y003612D02*
X017924Y003612D01*
X017933Y003690D02*
X018306Y003690D01*
X018721Y003915D02*
X018761Y003875D01*
X018766Y003870D01*
X019560Y003870D01*
X020220Y003533D02*
X020988Y003533D01*
X021066Y003455D02*
X020220Y003455D01*
X020220Y003376D02*
X021159Y003376D01*
X021571Y003504D02*
X021660Y003415D01*
X021776Y003367D01*
X021903Y003367D01*
X022019Y003415D01*
X022108Y003504D01*
X022157Y003621D01*
X022157Y003747D01*
X022108Y003864D01*
X022019Y003953D01*
X021903Y004001D01*
X021776Y004001D01*
X021660Y003953D01*
X021571Y003864D01*
X021522Y003747D01*
X021522Y003621D01*
X021571Y003504D01*
X021559Y003533D02*
X021511Y003533D01*
X021526Y003612D02*
X021433Y003612D01*
X021414Y003690D02*
X021522Y003690D01*
X021531Y003769D02*
X021487Y003769D01*
X021487Y003847D02*
X021564Y003847D01*
X021633Y003926D02*
X021487Y003926D01*
X021487Y004004D02*
X023680Y004004D01*
X023680Y003926D02*
X022046Y003926D01*
X022115Y003847D02*
X023680Y003847D01*
X023680Y003769D02*
X022148Y003769D01*
X022157Y003690D02*
X023680Y003690D01*
X023680Y003612D02*
X022153Y003612D01*
X022120Y003533D02*
X023680Y003533D01*
X023680Y003455D02*
X022059Y003455D01*
X021925Y003376D02*
X023680Y003376D01*
X023680Y003298D02*
X023585Y003298D01*
X023653Y003219D02*
X023680Y003219D01*
X023680Y003141D02*
X023653Y003141D01*
X023653Y003062D02*
X023680Y003062D01*
X023680Y002984D02*
X023653Y002984D01*
X023653Y002905D02*
X023680Y002905D01*
X023680Y002827D02*
X023653Y002827D01*
X023653Y002748D02*
X023680Y002748D01*
X023680Y002670D02*
X023653Y002670D01*
X023653Y002591D02*
X023680Y002591D01*
X023680Y002513D02*
X023653Y002513D01*
X023653Y002434D02*
X023680Y002434D01*
X023680Y002356D02*
X023653Y002356D01*
X023680Y002277D02*
X023603Y002277D01*
X023680Y002199D02*
X022958Y002199D01*
X022961Y002120D02*
X023680Y002120D01*
X023680Y002042D02*
X022961Y002042D01*
X022961Y001963D02*
X023680Y001963D01*
X023680Y001885D02*
X023223Y001885D01*
X023277Y001806D02*
X023680Y001806D01*
X023680Y001728D02*
X023300Y001728D01*
X023300Y001649D02*
X023680Y001649D01*
X023680Y001571D02*
X023267Y001571D01*
X023199Y001492D02*
X023680Y001492D01*
X022423Y001728D02*
X022255Y001728D01*
X022331Y001806D02*
X022347Y001806D01*
X022347Y001885D02*
X022331Y001885D01*
X022331Y001963D02*
X022347Y001963D01*
X022347Y002042D02*
X022331Y002042D01*
X022024Y002000D02*
X022025Y001999D01*
X022024Y002000D02*
X021560Y002000D01*
X021390Y002170D01*
X018960Y002170D01*
X018570Y002560D01*
X018806Y002670D02*
X020223Y002670D01*
X020223Y002748D02*
X019922Y002748D01*
X020001Y002827D02*
X020223Y002827D01*
X020223Y002905D02*
X020079Y002905D01*
X020158Y002984D02*
X020223Y002984D01*
X020220Y003062D02*
X020223Y003062D01*
X020220Y003141D02*
X020223Y003141D01*
X020220Y003219D02*
X020223Y003219D01*
X020220Y003298D02*
X020291Y003298D01*
X019860Y003276D02*
X019860Y003194D01*
X019758Y003092D01*
X019676Y003092D01*
X019860Y003276D01*
X019860Y003219D02*
X019803Y003219D01*
X019806Y003141D02*
X019724Y003141D01*
X019372Y003298D02*
X015262Y003298D01*
X015184Y003376D02*
X017156Y003376D01*
X017102Y003455D02*
X015105Y003455D01*
X015027Y003533D02*
X017080Y003533D01*
X017185Y003847D02*
X017372Y003847D01*
X017685Y003915D02*
X018721Y003915D01*
X018721Y004632D02*
X018801Y004632D01*
X018801Y004711D02*
X018721Y004711D01*
X018721Y004789D02*
X018801Y004789D01*
X018801Y004868D02*
X018721Y004868D01*
X018721Y004946D02*
X017933Y004946D01*
X017933Y004868D02*
X018306Y004868D01*
X018306Y004789D02*
X017933Y004789D01*
X017933Y004711D02*
X018306Y004711D01*
X018325Y004632D02*
X017921Y004632D01*
X017325Y004632D02*
X017297Y004632D01*
X017297Y004711D02*
X017325Y004711D01*
X017325Y004789D02*
X017297Y004789D01*
X017297Y004868D02*
X017325Y004868D01*
X017325Y005025D02*
X017297Y005025D01*
X017297Y005103D02*
X017325Y005103D01*
X017325Y005182D02*
X017297Y005182D01*
X017297Y005260D02*
X017325Y005260D01*
X017500Y005339D02*
X015663Y005339D01*
X015642Y005260D02*
X016716Y005260D01*
X016688Y005182D02*
X015642Y005182D01*
X015692Y005103D02*
X015801Y005103D01*
X015732Y005025D02*
X015722Y005025D01*
X015722Y004946D02*
X015724Y004946D01*
X015724Y004868D02*
X015697Y004868D01*
X015640Y004789D02*
X016021Y004789D01*
X016021Y004868D02*
X016101Y004868D01*
X016101Y004946D02*
X016021Y004946D01*
X016021Y005025D02*
X016101Y005025D01*
X016101Y005103D02*
X016021Y005103D01*
X016321Y005103D02*
X016688Y005103D01*
X016688Y005025D02*
X016390Y005025D01*
X016398Y004946D02*
X016688Y004946D01*
X016688Y004868D02*
X016398Y004868D01*
X016688Y004789D02*
X016101Y004789D01*
X016398Y004711D02*
X016688Y004711D01*
X016701Y004632D02*
X016398Y004632D01*
X015724Y004240D02*
X014860Y004240D01*
X014860Y004161D02*
X015724Y004161D01*
X015724Y004083D02*
X014823Y004083D01*
X014268Y004554D02*
X013736Y004554D01*
X013732Y004632D02*
X014225Y004632D01*
X014225Y004711D02*
X013736Y004711D01*
X013469Y004900D02*
X013280Y004900D01*
X013200Y004980D01*
X012330Y004980D01*
X012210Y004860D01*
X011970Y004860D01*
X011960Y004870D01*
X011406Y004946D02*
X011098Y004946D01*
X011098Y005025D02*
X011358Y005025D01*
X011340Y005103D02*
X011098Y005103D01*
X011098Y005182D02*
X011344Y005182D01*
X011376Y005260D02*
X011098Y005260D01*
X010801Y005284D02*
X010225Y005284D01*
X010120Y005390D01*
X010120Y007550D01*
X010601Y007380D02*
X010638Y007380D01*
X010620Y007424D02*
X010687Y007261D01*
X010831Y007118D01*
X010955Y007066D01*
X010955Y005833D01*
X010940Y005818D01*
X010940Y005477D01*
X010601Y005477D01*
X010588Y005464D01*
X010300Y005464D01*
X010300Y005465D01*
X010300Y007073D01*
X010408Y007118D01*
X010552Y007261D01*
X010620Y007424D01*
X010568Y007301D02*
X010671Y007301D01*
X010726Y007223D02*
X010513Y007223D01*
X010435Y007144D02*
X010804Y007144D01*
X010955Y007066D02*
X010300Y007066D01*
X010300Y006987D02*
X010955Y006987D01*
X010955Y006909D02*
X010300Y006909D01*
X010300Y006830D02*
X010955Y006830D01*
X010955Y006752D02*
X010300Y006752D01*
X010300Y006673D02*
X010955Y006673D01*
X010955Y006595D02*
X010300Y006595D01*
X010300Y006516D02*
X010955Y006516D01*
X010955Y006438D02*
X010300Y006438D01*
X010300Y006359D02*
X010955Y006359D01*
X010955Y006281D02*
X010300Y006281D01*
X010300Y006202D02*
X010955Y006202D01*
X010955Y006124D02*
X010300Y006124D01*
X010300Y006045D02*
X010955Y006045D01*
X010955Y005967D02*
X010300Y005967D01*
X010300Y005888D02*
X010955Y005888D01*
X010940Y005810D02*
X010300Y005810D01*
X010300Y005731D02*
X010940Y005731D01*
X010940Y005653D02*
X010300Y005653D01*
X010300Y005574D02*
X010940Y005574D01*
X010940Y005496D02*
X010300Y005496D01*
X009940Y005496D02*
X009300Y005496D01*
X009300Y005425D02*
X009300Y007073D01*
X009408Y007118D01*
X009552Y007261D01*
X009620Y007424D01*
X009687Y007261D01*
X009831Y007118D01*
X009940Y007073D01*
X009940Y005315D01*
X009988Y005267D01*
X009457Y005267D01*
X009300Y005425D01*
X009307Y005417D02*
X009940Y005417D01*
X009940Y005339D02*
X009386Y005339D01*
X009382Y005087D02*
X009120Y005350D01*
X009120Y007550D01*
X009601Y007380D02*
X009638Y007380D01*
X009671Y007301D02*
X009568Y007301D01*
X009513Y007223D02*
X009726Y007223D01*
X009804Y007144D02*
X009435Y007144D01*
X009300Y007066D02*
X009940Y007066D01*
X009940Y006987D02*
X009300Y006987D01*
X009300Y006909D02*
X009940Y006909D01*
X009940Y006830D02*
X009300Y006830D01*
X009300Y006752D02*
X009940Y006752D01*
X009940Y006673D02*
X009300Y006673D01*
X009300Y006595D02*
X009940Y006595D01*
X009940Y006516D02*
X009300Y006516D01*
X009300Y006438D02*
X009940Y006438D01*
X009940Y006359D02*
X009300Y006359D01*
X009300Y006281D02*
X009940Y006281D01*
X009940Y006202D02*
X009300Y006202D01*
X009300Y006124D02*
X009940Y006124D01*
X009940Y006045D02*
X009300Y006045D01*
X009300Y005967D02*
X009940Y005967D01*
X009940Y005888D02*
X009300Y005888D01*
X009300Y005810D02*
X009940Y005810D01*
X009940Y005731D02*
X009300Y005731D01*
X009300Y005653D02*
X009940Y005653D01*
X009940Y005574D02*
X009300Y005574D01*
X008940Y005574D02*
X008300Y005574D01*
X008300Y005496D02*
X008940Y005496D01*
X008940Y005417D02*
X008307Y005417D01*
X008300Y005425D02*
X008300Y007073D01*
X008408Y007118D01*
X008552Y007261D01*
X008620Y007424D01*
X008687Y007261D01*
X008831Y007118D01*
X008940Y007073D01*
X008940Y005275D01*
X009045Y005170D01*
X009144Y005071D01*
X008654Y005071D01*
X008300Y005425D01*
X008386Y005339D02*
X008940Y005339D01*
X008955Y005260D02*
X008464Y005260D01*
X008543Y005182D02*
X009033Y005182D01*
X009112Y005103D02*
X008621Y005103D01*
X008579Y004891D02*
X008120Y005350D01*
X008120Y007550D01*
X008601Y007380D02*
X008638Y007380D01*
X008671Y007301D02*
X008568Y007301D01*
X008513Y007223D02*
X008726Y007223D01*
X008804Y007144D02*
X008435Y007144D01*
X008300Y007066D02*
X008940Y007066D01*
X008940Y006987D02*
X008300Y006987D01*
X008300Y006909D02*
X008940Y006909D01*
X008940Y006830D02*
X008300Y006830D01*
X008300Y006752D02*
X008940Y006752D01*
X008940Y006673D02*
X008300Y006673D01*
X008300Y006595D02*
X008940Y006595D01*
X008940Y006516D02*
X008300Y006516D01*
X008300Y006438D02*
X008940Y006438D01*
X008940Y006359D02*
X008300Y006359D01*
X008300Y006281D02*
X008940Y006281D01*
X008940Y006202D02*
X008300Y006202D01*
X008300Y006124D02*
X008940Y006124D01*
X008940Y006045D02*
X008300Y006045D01*
X008300Y005967D02*
X008940Y005967D01*
X008940Y005888D02*
X008300Y005888D01*
X008300Y005810D02*
X008940Y005810D01*
X008940Y005731D02*
X008300Y005731D01*
X008300Y005653D02*
X008940Y005653D01*
X007940Y005653D02*
X007300Y005653D01*
X007300Y005731D02*
X007940Y005731D01*
X007940Y005810D02*
X007300Y005810D01*
X007300Y005888D02*
X007940Y005888D01*
X007940Y005967D02*
X007300Y005967D01*
X007300Y006045D02*
X007940Y006045D01*
X007940Y006124D02*
X007300Y006124D01*
X007300Y006202D02*
X007940Y006202D01*
X007940Y006281D02*
X007300Y006281D01*
X007300Y006359D02*
X007940Y006359D01*
X007940Y006438D02*
X007300Y006438D01*
X007300Y006516D02*
X007940Y006516D01*
X007940Y006595D02*
X007300Y006595D01*
X007300Y006673D02*
X007940Y006673D01*
X007940Y006752D02*
X007300Y006752D01*
X007300Y006830D02*
X007940Y006830D01*
X007940Y006909D02*
X007300Y006909D01*
X007300Y006987D02*
X007940Y006987D01*
X007940Y007066D02*
X007300Y007066D01*
X007300Y007073D02*
X007408Y007118D01*
X007552Y007261D01*
X007620Y007424D01*
X007687Y007261D01*
X007831Y007118D01*
X007940Y007073D01*
X007940Y005275D01*
X008045Y005170D01*
X008341Y004874D01*
X007850Y004874D01*
X007300Y005425D01*
X007300Y007073D01*
X007435Y007144D02*
X007804Y007144D01*
X007726Y007223D02*
X007513Y007223D01*
X007568Y007301D02*
X007671Y007301D01*
X007638Y007380D02*
X007601Y007380D01*
X007120Y007550D02*
X007120Y005350D01*
X007776Y004694D01*
X010801Y004694D01*
X010801Y004891D02*
X008579Y004891D01*
X008269Y004946D02*
X007778Y004946D01*
X007700Y005025D02*
X008190Y005025D01*
X008112Y005103D02*
X007621Y005103D01*
X007543Y005182D02*
X008033Y005182D01*
X007955Y005260D02*
X007464Y005260D01*
X007386Y005339D02*
X007940Y005339D01*
X007940Y005417D02*
X007307Y005417D01*
X007300Y005496D02*
X007940Y005496D01*
X007940Y005574D02*
X007300Y005574D01*
X006940Y005574D02*
X006890Y005574D01*
X006940Y005525D02*
X006300Y006165D01*
X006300Y007073D01*
X006408Y007118D01*
X006552Y007261D01*
X006620Y007424D01*
X006687Y007261D01*
X006831Y007118D01*
X006940Y007073D01*
X006940Y005525D01*
X006940Y005653D02*
X006812Y005653D01*
X006733Y005731D02*
X006940Y005731D01*
X006940Y005810D02*
X006655Y005810D01*
X006576Y005888D02*
X006940Y005888D01*
X006940Y005967D02*
X006498Y005967D01*
X006419Y006045D02*
X006940Y006045D01*
X006940Y006124D02*
X006341Y006124D01*
X006300Y006202D02*
X006940Y006202D01*
X006940Y006281D02*
X006300Y006281D01*
X006300Y006359D02*
X006940Y006359D01*
X006940Y006438D02*
X006300Y006438D01*
X006300Y006516D02*
X006940Y006516D01*
X006940Y006595D02*
X006300Y006595D01*
X006300Y006673D02*
X006940Y006673D01*
X006940Y006752D02*
X006300Y006752D01*
X006300Y006830D02*
X006940Y006830D01*
X006940Y006909D02*
X006300Y006909D01*
X006300Y006987D02*
X006940Y006987D01*
X006940Y007066D02*
X006300Y007066D01*
X006435Y007144D02*
X006804Y007144D01*
X006726Y007223D02*
X006513Y007223D01*
X006568Y007301D02*
X006671Y007301D01*
X006638Y007380D02*
X006601Y007380D01*
X006120Y007550D02*
X006120Y006090D01*
X007713Y004497D01*
X010801Y004497D01*
X010801Y004300D02*
X007630Y004300D01*
X005120Y006810D01*
X005120Y007550D01*
X005601Y007380D02*
X005638Y007380D01*
X005620Y007424D02*
X005552Y007261D01*
X005408Y007118D01*
X005300Y007073D01*
X005300Y006885D01*
X005940Y006245D01*
X005940Y007073D01*
X005831Y007118D01*
X005687Y007261D01*
X005620Y007424D01*
X005568Y007301D02*
X005671Y007301D01*
X005726Y007223D02*
X005513Y007223D01*
X005435Y007144D02*
X005804Y007144D01*
X005940Y007066D02*
X005300Y007066D01*
X005300Y006987D02*
X005940Y006987D01*
X005940Y006909D02*
X005300Y006909D01*
X005354Y006830D02*
X005940Y006830D01*
X005940Y006752D02*
X005433Y006752D01*
X005511Y006673D02*
X005940Y006673D01*
X005940Y006595D02*
X005590Y006595D01*
X005668Y006516D02*
X005940Y006516D01*
X005940Y006438D02*
X005747Y006438D01*
X005825Y006359D02*
X005940Y006359D01*
X005940Y006281D02*
X005904Y006281D01*
X004940Y006985D02*
X004630Y007295D01*
X004630Y007400D01*
X004687Y007261D01*
X004831Y007118D01*
X004940Y007073D01*
X004940Y006985D01*
X004940Y006987D02*
X004937Y006987D01*
X004940Y007066D02*
X004859Y007066D01*
X004804Y007144D02*
X004780Y007144D01*
X004726Y007223D02*
X004702Y007223D01*
X004671Y007301D02*
X004630Y007301D01*
X004630Y007380D02*
X004638Y007380D01*
X004120Y007550D02*
X007566Y004103D01*
X007616Y004103D01*
X010801Y004103D01*
X010801Y003910D02*
X010801Y003906D01*
X010213Y003906D01*
X010210Y003910D01*
X011102Y003910D01*
X011106Y003906D01*
X011280Y004080D01*
X011098Y003926D02*
X011520Y003926D01*
X011620Y003770D02*
X011890Y003770D01*
X012160Y003500D01*
X011620Y003770D02*
X011559Y003709D01*
X010801Y003709D01*
X010439Y003709D01*
X009930Y003200D01*
X008804Y003200D01*
X008680Y003224D01*
X008997Y003380D02*
X008997Y003420D01*
X008935Y003482D01*
X008943Y003486D01*
X008969Y003512D01*
X008987Y003544D01*
X008997Y003580D01*
X008997Y003707D01*
X008708Y003707D01*
X008708Y003765D01*
X008997Y003765D01*
X008997Y003892D01*
X008988Y003923D01*
X010503Y003923D01*
X010503Y003906D01*
X010503Y003889D01*
X010364Y003889D01*
X009855Y003380D01*
X008997Y003380D01*
X008962Y003455D02*
X009929Y003455D01*
X010008Y003533D02*
X008981Y003533D01*
X008997Y003612D02*
X010086Y003612D01*
X010165Y003690D02*
X008997Y003690D01*
X008997Y003769D02*
X010243Y003769D01*
X010322Y003847D02*
X008997Y003847D01*
X010020Y003010D02*
X010522Y003513D01*
X010801Y003513D01*
X010801Y003316D02*
X010595Y003316D01*
X010100Y002820D01*
X009320Y002820D01*
X009100Y002600D01*
X008330Y002600D01*
X008170Y002440D01*
X007450Y002440D01*
X007260Y002250D01*
X005820Y002250D01*
X005120Y001550D01*
X005582Y001335D02*
X005657Y001335D01*
X005624Y001414D02*
X005615Y001414D01*
X005547Y001257D02*
X005692Y001257D01*
X005770Y001178D02*
X005469Y001178D01*
X005365Y001100D02*
X005874Y001100D01*
X006365Y001100D02*
X006874Y001100D01*
X006770Y001178D02*
X006469Y001178D01*
X006547Y001257D02*
X006692Y001257D01*
X006657Y001335D02*
X006582Y001335D01*
X006615Y001414D02*
X006624Y001414D01*
X007120Y001550D02*
X007630Y002060D01*
X008360Y002060D01*
X008530Y002230D01*
X009280Y002230D01*
X009490Y002440D01*
X011060Y002440D01*
X011332Y002713D01*
X011332Y002981D01*
X011529Y002981D02*
X011529Y002649D01*
X011130Y002250D01*
X009570Y002250D01*
X009370Y002050D01*
X008620Y002050D01*
X008120Y001550D01*
X008584Y001760D02*
X008694Y001870D01*
X008718Y001870D01*
X008687Y001839D01*
X008620Y001676D01*
X008584Y001760D01*
X008598Y001728D02*
X008641Y001728D01*
X008630Y001806D02*
X008674Y001806D01*
X008624Y001414D02*
X008615Y001414D01*
X008582Y001335D02*
X008657Y001335D01*
X008692Y001257D02*
X008547Y001257D01*
X008469Y001178D02*
X008770Y001178D01*
X008874Y001100D02*
X008365Y001100D01*
X007874Y001100D02*
X007365Y001100D01*
X007469Y001178D02*
X007770Y001178D01*
X007692Y001257D02*
X007547Y001257D01*
X007582Y001335D02*
X007657Y001335D01*
X007624Y001414D02*
X007615Y001414D01*
X007620Y001676D02*
X007584Y001760D01*
X007704Y001880D01*
X007728Y001880D01*
X007687Y001839D01*
X007620Y001676D01*
X007598Y001728D02*
X007641Y001728D01*
X007630Y001806D02*
X007674Y001806D01*
X007180Y002430D02*
X005000Y002430D01*
X004120Y001550D01*
X003610Y001571D02*
X003560Y001571D01*
X003560Y001649D02*
X003610Y001649D01*
X003610Y001728D02*
X003560Y001728D01*
X003560Y001806D02*
X003610Y001806D01*
X003610Y001885D02*
X003560Y001885D01*
X003560Y001963D02*
X003610Y001963D01*
X003560Y002042D02*
X003673Y002042D01*
X003610Y001492D02*
X003560Y001492D01*
X003560Y001414D02*
X003610Y001414D01*
X003610Y001335D02*
X003560Y001335D01*
X003560Y001257D02*
X003610Y001257D01*
X003610Y001178D02*
X003560Y001178D01*
X003560Y001100D02*
X003632Y001100D01*
X004607Y001100D02*
X004874Y001100D01*
X004770Y001178D02*
X004630Y001178D01*
X004630Y001257D02*
X004692Y001257D01*
X004657Y001335D02*
X004630Y001335D01*
X007180Y002430D02*
X007390Y002640D01*
X008090Y002640D01*
X008260Y002810D01*
X009020Y002810D01*
X009220Y003010D01*
X010020Y003010D01*
X010439Y002905D02*
X010940Y002905D01*
X010940Y002827D02*
X010361Y002827D01*
X011794Y002120D02*
X012435Y002120D01*
X012513Y002199D02*
X011873Y002199D01*
X011951Y002277D02*
X012530Y002277D01*
X012530Y002356D02*
X012030Y002356D01*
X012108Y002434D02*
X012530Y002434D01*
X012530Y002513D02*
X012187Y002513D01*
X012265Y002591D02*
X012530Y002591D01*
X012530Y002670D02*
X012300Y002670D01*
X012316Y002748D02*
X012316Y002748D01*
X012316Y002827D02*
X012316Y002827D01*
X012316Y002905D02*
X012316Y002905D01*
X014030Y003709D02*
X015000Y002740D01*
X016590Y002740D01*
X017072Y002513D02*
X018310Y002513D01*
X018340Y002434D02*
X017150Y002434D01*
X017229Y002356D02*
X018406Y002356D01*
X018598Y002277D02*
X017300Y002277D01*
X017300Y002199D02*
X018676Y002199D01*
X018755Y002120D02*
X017300Y002120D01*
X015950Y002120D02*
X015300Y002120D01*
X015300Y002042D02*
X015950Y002042D01*
X015950Y002032D02*
X015831Y001982D01*
X015687Y001839D01*
X015620Y001676D01*
X015552Y001839D01*
X015408Y001982D01*
X015300Y002027D01*
X015300Y002370D01*
X015795Y002370D01*
X015950Y002215D01*
X015950Y002032D01*
X015811Y001963D02*
X015428Y001963D01*
X015506Y001885D02*
X015733Y001885D01*
X015674Y001806D02*
X015565Y001806D01*
X015598Y001728D02*
X015641Y001728D01*
X015950Y002199D02*
X015300Y002199D01*
X015300Y002277D02*
X015888Y002277D01*
X015809Y002356D02*
X015300Y002356D01*
X014624Y001414D02*
X014615Y001414D01*
X014582Y001335D02*
X014657Y001335D01*
X014692Y001257D02*
X014547Y001257D01*
X014469Y001178D02*
X014770Y001178D01*
X014874Y001100D02*
X014365Y001100D01*
X013874Y001100D02*
X013365Y001100D01*
X013469Y001178D02*
X013770Y001178D01*
X013692Y001257D02*
X013547Y001257D01*
X013582Y001335D02*
X013657Y001335D01*
X013624Y001414D02*
X013615Y001414D01*
X012874Y001100D02*
X012365Y001100D01*
X012469Y001178D02*
X012770Y001178D01*
X012692Y001257D02*
X012547Y001257D01*
X012582Y001335D02*
X012657Y001335D01*
X012624Y001414D02*
X012615Y001414D01*
X011874Y001100D02*
X011365Y001100D01*
X011469Y001178D02*
X011770Y001178D01*
X011692Y001257D02*
X011547Y001257D01*
X011582Y001335D02*
X011657Y001335D01*
X011624Y001414D02*
X011615Y001414D01*
X011598Y001728D02*
X011641Y001728D01*
X011630Y001806D02*
X011674Y001806D01*
X011709Y001885D02*
X011733Y001885D01*
X011787Y001963D02*
X011811Y001963D01*
X011790Y002042D02*
X011973Y002042D01*
X012266Y002042D02*
X012356Y002042D01*
X014948Y003612D02*
X016697Y003612D01*
X016760Y004092D02*
X016061Y004092D01*
X014543Y004827D02*
X014429Y004891D01*
X013438Y004891D01*
X013469Y004900D01*
X012907Y005259D02*
X012903Y005255D01*
X012907Y005259D02*
X012907Y005619D01*
X012710Y005619D02*
X012710Y005830D01*
X013198Y006318D01*
X014399Y006318D01*
X014950Y006869D01*
X015698Y006869D01*
X015875Y007046D01*
X016616Y007046D01*
X016683Y006869D02*
X016860Y007046D01*
X017616Y007046D01*
X017686Y006869D02*
X017864Y007046D01*
X018616Y007046D01*
X017686Y006869D02*
X016938Y006869D01*
X016761Y006692D01*
X016033Y006692D01*
X015856Y006515D01*
X015108Y006515D01*
X014882Y006289D01*
X014882Y006022D01*
X014720Y005860D01*
X014413Y005860D01*
X014310Y005963D01*
X013356Y005963D01*
X013104Y005711D01*
X013299Y005652D02*
X013430Y005783D01*
X014235Y005783D01*
X014338Y005680D01*
X014727Y005680D01*
X014511Y005464D01*
X013651Y005464D01*
X013638Y005477D01*
X013299Y005477D01*
X013299Y005652D01*
X013299Y005653D02*
X014700Y005653D01*
X014621Y005574D02*
X013299Y005574D01*
X013299Y005496D02*
X014543Y005496D01*
X014287Y005731D02*
X013378Y005731D01*
X013176Y006038D02*
X013054Y005916D01*
X013051Y005916D01*
X013273Y006138D01*
X013276Y006138D01*
X013176Y006038D01*
X013180Y006045D02*
X013183Y006045D01*
X013259Y006124D02*
X013261Y006124D01*
X013104Y005967D02*
X013102Y005967D01*
X011940Y005967D02*
X011906Y005967D01*
X011906Y005916D02*
X011906Y006174D01*
X011909Y006170D01*
X011940Y006170D01*
X011940Y005916D01*
X011906Y005916D01*
X011906Y006045D02*
X011940Y006045D01*
X011940Y006124D02*
X011906Y006124D01*
X011529Y005619D02*
X011529Y006699D01*
X011880Y007050D01*
X012620Y007050D01*
X013120Y007550D01*
X013601Y007380D02*
X013638Y007380D01*
X013655Y007340D02*
X013545Y007230D01*
X013521Y007230D01*
X013552Y007261D01*
X013620Y007424D01*
X013655Y007340D01*
X013616Y007301D02*
X013568Y007301D01*
X013890Y007066D02*
X013956Y007066D01*
X014322Y006752D02*
X012876Y006752D01*
X012545Y007230D02*
X012521Y007230D01*
X012552Y007261D01*
X012620Y007424D01*
X012655Y007340D01*
X012545Y007230D01*
X012568Y007301D02*
X012616Y007301D01*
X012601Y007380D02*
X012638Y007380D01*
X012627Y007694D02*
X012612Y007694D01*
X012580Y007772D02*
X012659Y007772D01*
X012699Y007851D02*
X012540Y007851D01*
X012462Y007929D02*
X012777Y007929D01*
X012891Y008008D02*
X012348Y008008D01*
X011891Y008008D02*
X011348Y008008D01*
X011462Y007929D02*
X011777Y007929D01*
X011699Y007851D02*
X011540Y007851D01*
X011580Y007772D02*
X011659Y007772D01*
X011627Y007694D02*
X011612Y007694D01*
X011620Y007424D02*
X011555Y007267D01*
X011648Y007355D01*
X011620Y007424D01*
X011601Y007380D02*
X011638Y007380D01*
X011590Y007301D02*
X011568Y007301D01*
X011383Y007107D02*
X011315Y007079D01*
X011315Y007043D01*
X011383Y007107D01*
X011339Y007066D02*
X011315Y007066D01*
X011332Y006813D02*
X012120Y007550D01*
X011135Y007484D02*
X011120Y007550D01*
X011135Y007484D02*
X011135Y005619D01*
X011332Y005619D02*
X011332Y006813D01*
X010627Y007694D02*
X010612Y007694D01*
X010580Y007772D02*
X010659Y007772D01*
X010699Y007851D02*
X010540Y007851D01*
X010462Y007929D02*
X010777Y007929D01*
X010891Y008008D02*
X010348Y008008D01*
X009891Y008008D02*
X009348Y008008D01*
X009462Y007929D02*
X009777Y007929D01*
X009699Y007851D02*
X009540Y007851D01*
X009580Y007772D02*
X009659Y007772D01*
X009627Y007694D02*
X009612Y007694D01*
X008891Y008008D02*
X008348Y008008D01*
X008462Y007929D02*
X008777Y007929D01*
X008699Y007851D02*
X008540Y007851D01*
X008580Y007772D02*
X008659Y007772D01*
X008627Y007694D02*
X008612Y007694D01*
X007891Y008008D02*
X007348Y008008D01*
X007462Y007929D02*
X007777Y007929D01*
X007699Y007851D02*
X007540Y007851D01*
X007580Y007772D02*
X007659Y007772D01*
X007627Y007694D02*
X007612Y007694D01*
X006891Y008008D02*
X006348Y008008D01*
X006462Y007929D02*
X006777Y007929D01*
X006699Y007851D02*
X006540Y007851D01*
X006580Y007772D02*
X006659Y007772D01*
X006627Y007694D02*
X006612Y007694D01*
X005891Y008008D02*
X005348Y008008D01*
X005462Y007929D02*
X005777Y007929D01*
X005699Y007851D02*
X005540Y007851D01*
X005580Y007772D02*
X005659Y007772D01*
X005627Y007694D02*
X005612Y007694D01*
X004891Y008008D02*
X004600Y008008D01*
X004630Y007929D02*
X004777Y007929D01*
X004699Y007851D02*
X004630Y007851D01*
X004630Y007772D02*
X004659Y007772D01*
X009382Y005087D02*
X010801Y005087D01*
X010801Y003910D02*
X010801Y003906D01*
X010801Y003906D01*
X010503Y003906D01*
X010801Y003906D01*
X010801Y003906D01*
X010801Y003910D02*
X010801Y003910D01*
X015192Y005123D02*
X015216Y005064D01*
X015242Y005126D01*
X015282Y005167D01*
X015282Y005214D01*
X015192Y005123D01*
X015200Y005103D02*
X015232Y005103D01*
X015250Y005182D02*
X015282Y005182D01*
X015462Y004979D02*
X015462Y005393D01*
X015856Y005786D01*
X016166Y005786D01*
X016340Y005960D01*
X017070Y005960D01*
X017250Y006140D01*
X018000Y006140D01*
X018180Y006320D01*
X018929Y006320D01*
X019025Y006416D01*
X019753Y006416D01*
X019891Y006278D01*
X019641Y006202D02*
X019065Y006202D01*
X019093Y006124D02*
X019106Y006124D01*
X019394Y006124D02*
X019474Y006124D01*
X019474Y006045D02*
X019394Y006045D01*
X019394Y005967D02*
X019474Y005967D01*
X019474Y005888D02*
X019394Y005888D01*
X018765Y005840D02*
X018350Y005830D01*
X017980Y005460D01*
X017830Y005460D01*
X017680Y005310D01*
X017680Y004944D01*
X017685Y004938D01*
X017933Y005025D02*
X018306Y005025D01*
X018306Y005103D02*
X017933Y005103D01*
X017933Y005182D02*
X018306Y005182D01*
X018306Y005260D02*
X018147Y005260D01*
X018211Y005339D02*
X018333Y005339D01*
X018240Y005417D02*
X020340Y005417D01*
X020846Y005417D02*
X020864Y005417D01*
X020864Y005339D02*
X020846Y005339D01*
X020846Y005260D02*
X020864Y005260D01*
X021371Y005417D02*
X021522Y005417D01*
X021528Y005339D02*
X021474Y005339D01*
X021487Y005260D02*
X021561Y005260D01*
X021529Y005496D02*
X018270Y005496D01*
X018348Y005574D02*
X018419Y005574D01*
X017996Y005731D02*
X016365Y005731D01*
X016287Y005653D02*
X017804Y005653D01*
X017689Y005574D02*
X015898Y005574D01*
X015820Y005496D02*
X017610Y005496D01*
X017532Y005417D02*
X015741Y005417D01*
X015092Y006045D02*
X015062Y006045D01*
X015062Y006015D02*
X015062Y006214D01*
X015182Y006335D01*
X015382Y006335D01*
X015062Y006015D01*
X015062Y006124D02*
X015171Y006124D01*
X015249Y006202D02*
X015062Y006202D01*
X015128Y006281D02*
X015328Y006281D01*
X014576Y006239D02*
X014586Y006131D01*
X014576Y006239D02*
X015029Y006692D01*
X015777Y006692D01*
X015954Y006869D01*
X016683Y006869D01*
X015655Y007340D02*
X015541Y007226D01*
X015517Y007226D01*
X015552Y007261D01*
X015620Y007424D01*
X015655Y007340D01*
X015638Y007380D02*
X015601Y007380D01*
X015616Y007301D02*
X015568Y007301D01*
X015612Y007694D02*
X015627Y007694D01*
X015659Y007772D02*
X015580Y007772D01*
X015540Y007851D02*
X015699Y007851D01*
X015777Y007929D02*
X015462Y007929D01*
X015348Y008008D02*
X015891Y008008D01*
X016348Y008008D02*
X016891Y008008D01*
X016777Y007929D02*
X016462Y007929D01*
X016540Y007851D02*
X016699Y007851D01*
X016659Y007772D02*
X016580Y007772D01*
X016612Y007694D02*
X016627Y007694D01*
X017348Y008008D02*
X017891Y008008D01*
X017777Y007929D02*
X017462Y007929D01*
X017540Y007851D02*
X017699Y007851D01*
X017659Y007772D02*
X017580Y007772D01*
X017612Y007694D02*
X017627Y007694D01*
X018348Y008008D02*
X018891Y008008D01*
X018777Y007929D02*
X018462Y007929D01*
X018540Y007851D02*
X018699Y007851D01*
X018659Y007772D02*
X018580Y007772D01*
X018612Y007694D02*
X018627Y007694D01*
X019348Y008008D02*
X019891Y008008D01*
X019777Y007929D02*
X019462Y007929D01*
X019540Y007851D02*
X019699Y007851D01*
X019659Y007772D02*
X019580Y007772D01*
X019612Y007694D02*
X019627Y007694D01*
X020348Y008008D02*
X020891Y008008D01*
X020777Y007929D02*
X020462Y007929D01*
X020540Y007851D02*
X020699Y007851D01*
X020659Y007772D02*
X020580Y007772D01*
X020612Y007694D02*
X020627Y007694D01*
X021348Y008008D02*
X021891Y008008D01*
X021777Y007929D02*
X021462Y007929D01*
X021540Y007851D02*
X021699Y007851D01*
X021659Y007772D02*
X021580Y007772D01*
X021612Y007694D02*
X021627Y007694D01*
X022348Y008008D02*
X022891Y008008D01*
X022777Y007929D02*
X022462Y007929D01*
X022540Y007851D02*
X022699Y007851D01*
X022659Y007772D02*
X022580Y007772D01*
X022612Y007694D02*
X022627Y007694D01*
X021956Y007066D02*
X021890Y007066D01*
X021811Y006987D02*
X023680Y006987D01*
X023680Y006909D02*
X021733Y006909D01*
X021654Y006830D02*
X022445Y006830D01*
X022470Y006855D02*
X022388Y006773D01*
X022388Y005870D01*
X022470Y005788D01*
X023571Y005788D01*
X023653Y005870D01*
X023653Y006773D01*
X023571Y006855D01*
X022470Y006855D01*
X022388Y006752D02*
X021576Y006752D01*
X021487Y006673D02*
X021843Y006673D01*
X021812Y006660D02*
X021739Y006587D01*
X021700Y006492D01*
X021700Y006388D01*
X021739Y006293D01*
X021812Y006220D01*
X021908Y006180D01*
X022011Y006180D01*
X022107Y006220D01*
X022180Y006293D01*
X022220Y006388D01*
X022220Y006492D01*
X022180Y006587D01*
X022107Y006660D01*
X022011Y006700D01*
X021908Y006700D01*
X021812Y006660D01*
X021746Y006595D02*
X021487Y006595D01*
X021487Y006516D02*
X021710Y006516D01*
X021700Y006438D02*
X021487Y006438D01*
X021487Y006359D02*
X021712Y006359D01*
X021751Y006281D02*
X021487Y006281D01*
X021487Y006202D02*
X021855Y006202D01*
X022064Y006202D02*
X022388Y006202D01*
X022388Y006124D02*
X021487Y006124D01*
X021487Y006045D02*
X022388Y006045D01*
X022388Y005967D02*
X021487Y005967D01*
X021487Y005888D02*
X022388Y005888D01*
X022449Y005810D02*
X021427Y005810D01*
X022168Y006281D02*
X022388Y006281D01*
X022388Y006359D02*
X022207Y006359D01*
X022220Y006438D02*
X022388Y006438D01*
X022388Y006516D02*
X022209Y006516D01*
X022173Y006595D02*
X022388Y006595D01*
X022388Y006673D02*
X022076Y006673D01*
X023596Y006830D02*
X023680Y006830D01*
X023680Y006752D02*
X023653Y006752D01*
X023653Y006673D02*
X023680Y006673D01*
X023680Y006595D02*
X023653Y006595D01*
X023653Y006516D02*
X023680Y006516D01*
X023680Y006438D02*
X023653Y006438D01*
X023653Y006359D02*
X023680Y006359D01*
X023680Y006281D02*
X023653Y006281D01*
X023653Y006202D02*
X023680Y006202D01*
X023680Y006124D02*
X023653Y006124D01*
X023653Y006045D02*
X023680Y006045D01*
X023680Y005967D02*
X023653Y005967D01*
X023653Y005888D02*
X023680Y005888D01*
X023680Y005810D02*
X023592Y005810D01*
X023680Y004946D02*
X021487Y004946D01*
X021487Y004868D02*
X023680Y004868D01*
X023680Y004789D02*
X021487Y004789D01*
X021487Y004711D02*
X023680Y004711D01*
X023680Y004632D02*
X021487Y004632D01*
X021487Y004554D02*
X023680Y004554D01*
X023680Y004475D02*
X021487Y004475D01*
X021487Y004397D02*
X023680Y004397D01*
X023680Y004318D02*
X021487Y004318D01*
X021487Y004240D02*
X023680Y004240D01*
X023680Y004161D02*
X021487Y004161D01*
X021487Y004083D02*
X023680Y004083D01*
X022456Y003298D02*
X021747Y003298D01*
X021754Y003376D02*
X021668Y003376D01*
X021620Y003455D02*
X021590Y003455D01*
X021825Y003219D02*
X022388Y003219D01*
X022388Y003141D02*
X021904Y003141D01*
X021982Y003062D02*
X022388Y003062D01*
X022388Y002984D02*
X022061Y002984D01*
X022139Y002905D02*
X022388Y002905D01*
X022388Y002827D02*
X022170Y002827D01*
X022170Y002748D02*
X022388Y002748D01*
X022388Y002670D02*
X022239Y002670D01*
X022317Y002591D02*
X022388Y002591D01*
X022121Y002278D02*
X021915Y002484D01*
X021915Y002484D01*
X021810Y002590D01*
X021810Y002725D01*
X021487Y003048D01*
X021487Y002327D01*
X021570Y002245D01*
X021634Y002180D01*
X021717Y002180D01*
X021717Y002196D01*
X021799Y002278D01*
X022121Y002278D01*
X022044Y002356D02*
X021487Y002356D01*
X021487Y002434D02*
X021965Y002434D01*
X021887Y002513D02*
X021487Y002513D01*
X021487Y002591D02*
X021810Y002591D01*
X021810Y002670D02*
X021487Y002670D01*
X021487Y002748D02*
X021787Y002748D01*
X021708Y002827D02*
X021487Y002827D01*
X021487Y002905D02*
X021630Y002905D01*
X021551Y002984D02*
X021487Y002984D01*
X020223Y002591D02*
X018830Y002591D01*
X018872Y002513D02*
X020223Y002513D01*
X020223Y002434D02*
X018950Y002434D01*
X019029Y002356D02*
X020223Y002356D01*
X020390Y001990D02*
X020849Y001990D01*
X020831Y001982D01*
X020687Y001839D01*
X020620Y001676D01*
X020552Y001839D01*
X020408Y001982D01*
X020390Y001990D01*
X020428Y001963D02*
X020811Y001963D01*
X020733Y001885D02*
X020506Y001885D01*
X020565Y001806D02*
X020674Y001806D01*
X020641Y001728D02*
X020598Y001728D01*
X020615Y001414D02*
X020624Y001414D01*
X020657Y001335D02*
X020582Y001335D01*
X020547Y001257D02*
X020692Y001257D01*
X020770Y001178D02*
X020469Y001178D01*
X020365Y001100D02*
X020874Y001100D01*
X019874Y001100D02*
X019359Y001100D01*
X019469Y001178D02*
X019770Y001178D01*
X019692Y001257D02*
X019537Y001257D01*
X019582Y001335D02*
X019657Y001335D01*
X019624Y001414D02*
X019611Y001414D01*
X019617Y001669D02*
X019617Y001669D01*
X019687Y001839D01*
X019831Y001982D01*
X019849Y001990D01*
X019379Y001990D01*
X019387Y001986D01*
X019452Y001939D01*
X019509Y001882D01*
X019556Y001817D01*
X019592Y001746D01*
X019617Y001669D01*
X019598Y001728D02*
X019641Y001728D01*
X019674Y001806D02*
X019561Y001806D01*
X019506Y001885D02*
X019733Y001885D01*
X019811Y001963D02*
X019419Y001963D01*
X021537Y002277D02*
X021798Y002277D01*
X021719Y002199D02*
X021616Y002199D01*
X021565Y001806D02*
X021717Y001806D01*
X021793Y001728D02*
X021598Y001728D01*
X020226Y005025D02*
X019216Y005025D01*
X019216Y005103D02*
X020223Y005103D01*
X018408Y006045D02*
X018159Y006045D01*
X018231Y005967D02*
X018081Y005967D01*
X018153Y005888D02*
X017252Y005888D01*
X017174Y005810D02*
X018074Y005810D01*
X018238Y006124D02*
X018437Y006124D01*
X014627Y007694D02*
X014612Y007694D01*
X014580Y007772D02*
X014659Y007772D01*
X014699Y007851D02*
X014540Y007851D01*
X014462Y007929D02*
X014777Y007929D01*
X014891Y008008D02*
X014348Y008008D01*
X013891Y008008D02*
X013348Y008008D01*
X013462Y007929D02*
X013777Y007929D01*
X013699Y007851D02*
X013540Y007851D01*
X013580Y007772D02*
X013659Y007772D01*
X013627Y007694D02*
X013612Y007694D01*
M02*
