G75*
G70*
%OFA0B0*%
%FSLAX24Y24*%
%IPPOS*%
%LPD*%
%AMOC8*
5,1,8,0,0,1.08239X$1,22.5*
%
%ADD10R,0.0473X0.0434*%
%ADD11R,0.0670X0.0591*%
%ADD12R,0.0394X0.0316*%
%ADD13R,0.0375X0.0316*%
%ADD14R,0.0257X0.0512*%
%ADD15R,0.0780X0.0780*%
%ADD16C,0.0780*%
%ADD17R,0.0434X0.0473*%
%ADD18R,0.0355X0.0355*%
%ADD19C,0.0075*%
%ADD20R,0.0316X0.0394*%
%ADD21R,0.1024X0.0237*%
%ADD22R,0.1024X0.0827*%
%ADD23C,0.0394*%
D10*
X002180Y003645D03*
X002180Y004315D03*
X016285Y005840D03*
X016955Y005840D03*
D11*
X016281Y004978D03*
X016281Y003875D03*
D12*
X012063Y004315D03*
X012063Y004827D03*
X006200Y003736D03*
X006200Y003224D03*
D13*
X019544Y002000D03*
X020174Y002000D03*
D14*
X015205Y003915D03*
X014457Y003915D03*
X014457Y004938D03*
X014831Y004938D03*
X015205Y004938D03*
D15*
X001640Y001550D03*
X001640Y007550D03*
D16*
X002640Y007550D03*
X003640Y007550D03*
X004640Y007550D03*
X005640Y007550D03*
X006640Y007550D03*
X007640Y007550D03*
X008640Y007550D03*
X009640Y007550D03*
X010640Y007550D03*
X011640Y007550D03*
X012640Y007550D03*
X013640Y007550D03*
X014640Y007550D03*
X015640Y007550D03*
X016640Y007550D03*
X017640Y007550D03*
X018640Y007550D03*
X019640Y007550D03*
X020640Y007550D03*
X018640Y001550D03*
X017640Y001550D03*
X016640Y001550D03*
X015640Y001550D03*
X014640Y001550D03*
X013640Y001550D03*
X012640Y001550D03*
X011640Y001550D03*
X010640Y001550D03*
X009640Y001550D03*
X008640Y001550D03*
X007640Y001550D03*
X006640Y001550D03*
X005640Y001550D03*
X004640Y001550D03*
X003640Y001550D03*
X002640Y001550D03*
D17*
X013581Y004092D03*
X013581Y004761D03*
D18*
X001540Y004255D03*
X001540Y003665D03*
D19*
X008141Y003671D02*
X008421Y003671D01*
X008141Y003671D02*
X008141Y003747D01*
X008421Y003747D01*
X008421Y003671D01*
X008421Y003745D02*
X008141Y003745D01*
X008141Y003868D02*
X008421Y003868D01*
X008141Y003868D02*
X008141Y003944D01*
X008421Y003944D01*
X008421Y003868D01*
X008421Y003942D02*
X008141Y003942D01*
X008150Y004062D02*
X008430Y004062D01*
X008150Y004062D02*
X008150Y004138D01*
X008430Y004138D01*
X008430Y004062D01*
X008430Y004136D02*
X008150Y004136D01*
X008150Y004262D02*
X008430Y004262D01*
X008150Y004262D02*
X008150Y004338D01*
X008430Y004338D01*
X008430Y004262D01*
X008430Y004336D02*
X008150Y004336D01*
X008150Y004462D02*
X008430Y004462D01*
X008150Y004462D02*
X008150Y004538D01*
X008430Y004538D01*
X008430Y004462D01*
X008430Y004536D02*
X008150Y004536D01*
X008150Y004662D02*
X008430Y004662D01*
X008150Y004662D02*
X008150Y004738D01*
X008430Y004738D01*
X008430Y004662D01*
X008430Y004736D02*
X008150Y004736D01*
X008150Y004862D02*
X008430Y004862D01*
X008150Y004862D02*
X008150Y004938D01*
X008430Y004938D01*
X008430Y004862D01*
X008430Y004936D02*
X008150Y004936D01*
X008150Y005062D02*
X008430Y005062D01*
X008150Y005062D02*
X008150Y005138D01*
X008430Y005138D01*
X008430Y005062D01*
X008430Y005136D02*
X008150Y005136D01*
X008150Y005262D02*
X008430Y005262D01*
X008150Y005262D02*
X008150Y005338D01*
X008430Y005338D01*
X008430Y005262D01*
X008430Y005336D02*
X008150Y005336D01*
X008618Y005519D02*
X008694Y005519D01*
X008618Y005519D02*
X008618Y005799D01*
X008694Y005799D01*
X008694Y005519D01*
X008694Y005593D02*
X008618Y005593D01*
X008618Y005667D02*
X008694Y005667D01*
X008694Y005741D02*
X008618Y005741D01*
X008815Y005519D02*
X008891Y005519D01*
X008815Y005519D02*
X008815Y005799D01*
X008891Y005799D01*
X008891Y005519D01*
X008891Y005593D02*
X008815Y005593D01*
X008815Y005667D02*
X008891Y005667D01*
X008891Y005741D02*
X008815Y005741D01*
X009011Y005519D02*
X009087Y005519D01*
X009011Y005519D02*
X009011Y005799D01*
X009087Y005799D01*
X009087Y005519D01*
X009087Y005593D02*
X009011Y005593D01*
X009011Y005667D02*
X009087Y005667D01*
X009087Y005741D02*
X009011Y005741D01*
X009208Y005519D02*
X009284Y005519D01*
X009208Y005519D02*
X009208Y005799D01*
X009284Y005799D01*
X009284Y005519D01*
X009284Y005593D02*
X009208Y005593D01*
X009208Y005667D02*
X009284Y005667D01*
X009284Y005741D02*
X009208Y005741D01*
X009405Y005519D02*
X009481Y005519D01*
X009405Y005519D02*
X009405Y005799D01*
X009481Y005799D01*
X009481Y005519D01*
X009481Y005593D02*
X009405Y005593D01*
X009405Y005667D02*
X009481Y005667D01*
X009481Y005741D02*
X009405Y005741D01*
X009602Y005519D02*
X009678Y005519D01*
X009602Y005519D02*
X009602Y005799D01*
X009678Y005799D01*
X009678Y005519D01*
X009678Y005593D02*
X009602Y005593D01*
X009602Y005667D02*
X009678Y005667D01*
X009678Y005741D02*
X009602Y005741D01*
X009799Y005519D02*
X009875Y005519D01*
X009799Y005519D02*
X009799Y005799D01*
X009875Y005799D01*
X009875Y005519D01*
X009875Y005593D02*
X009799Y005593D01*
X009799Y005667D02*
X009875Y005667D01*
X009875Y005741D02*
X009799Y005741D01*
X009996Y005519D02*
X010072Y005519D01*
X009996Y005519D02*
X009996Y005799D01*
X010072Y005799D01*
X010072Y005519D01*
X010072Y005593D02*
X009996Y005593D01*
X009996Y005667D02*
X010072Y005667D01*
X010072Y005741D02*
X009996Y005741D01*
X010193Y005519D02*
X010269Y005519D01*
X010193Y005519D02*
X010193Y005799D01*
X010269Y005799D01*
X010269Y005519D01*
X010269Y005593D02*
X010193Y005593D01*
X010193Y005667D02*
X010269Y005667D01*
X010269Y005741D02*
X010193Y005741D01*
X010389Y005519D02*
X010465Y005519D01*
X010389Y005519D02*
X010389Y005799D01*
X010465Y005799D01*
X010465Y005519D01*
X010465Y005593D02*
X010389Y005593D01*
X010389Y005667D02*
X010465Y005667D01*
X010465Y005741D02*
X010389Y005741D01*
X010586Y005519D02*
X010662Y005519D01*
X010586Y005519D02*
X010586Y005799D01*
X010662Y005799D01*
X010662Y005519D01*
X010662Y005593D02*
X010586Y005593D01*
X010586Y005667D02*
X010662Y005667D01*
X010662Y005741D02*
X010586Y005741D01*
X010859Y005246D02*
X011139Y005246D01*
X010859Y005246D02*
X010859Y005322D01*
X011139Y005322D01*
X011139Y005246D01*
X011139Y005320D02*
X010859Y005320D01*
X010859Y005049D02*
X011139Y005049D01*
X010859Y005049D02*
X010859Y005125D01*
X011139Y005125D01*
X011139Y005049D01*
X011139Y005123D02*
X010859Y005123D01*
X010859Y004853D02*
X011139Y004853D01*
X010859Y004853D02*
X010859Y004929D01*
X011139Y004929D01*
X011139Y004853D01*
X011139Y004927D02*
X010859Y004927D01*
X010859Y004656D02*
X011139Y004656D01*
X010859Y004656D02*
X010859Y004732D01*
X011139Y004732D01*
X011139Y004656D01*
X011139Y004730D02*
X010859Y004730D01*
X010859Y004459D02*
X011139Y004459D01*
X010859Y004459D02*
X010859Y004535D01*
X011139Y004535D01*
X011139Y004459D01*
X011139Y004533D02*
X010859Y004533D01*
X010859Y004262D02*
X011139Y004262D01*
X010859Y004262D02*
X010859Y004338D01*
X011139Y004338D01*
X011139Y004262D01*
X011139Y004336D02*
X010859Y004336D01*
X010859Y004065D02*
X011139Y004065D01*
X010859Y004065D02*
X010859Y004141D01*
X011139Y004141D01*
X011139Y004065D01*
X011139Y004139D02*
X010859Y004139D01*
X010859Y003868D02*
X011139Y003868D01*
X010859Y003868D02*
X010859Y003944D01*
X011139Y003944D01*
X011139Y003868D01*
X011139Y003942D02*
X010859Y003942D01*
X010859Y003671D02*
X011139Y003671D01*
X010859Y003671D02*
X010859Y003747D01*
X011139Y003747D01*
X011139Y003671D01*
X011139Y003745D02*
X010859Y003745D01*
X010859Y003475D02*
X011139Y003475D01*
X010859Y003475D02*
X010859Y003551D01*
X011139Y003551D01*
X011139Y003475D01*
X011139Y003549D02*
X010859Y003549D01*
X010859Y003278D02*
X011139Y003278D01*
X010859Y003278D02*
X010859Y003354D01*
X011139Y003354D01*
X011139Y003278D01*
X011139Y003352D02*
X010859Y003352D01*
X010662Y002801D02*
X010586Y002801D01*
X010586Y003081D01*
X010662Y003081D01*
X010662Y002801D01*
X010662Y002875D02*
X010586Y002875D01*
X010586Y002949D02*
X010662Y002949D01*
X010662Y003023D02*
X010586Y003023D01*
X010465Y002801D02*
X010389Y002801D01*
X010389Y003081D01*
X010465Y003081D01*
X010465Y002801D01*
X010465Y002875D02*
X010389Y002875D01*
X010389Y002949D02*
X010465Y002949D01*
X010465Y003023D02*
X010389Y003023D01*
X010269Y002801D02*
X010193Y002801D01*
X010193Y003081D01*
X010269Y003081D01*
X010269Y002801D01*
X010269Y002875D02*
X010193Y002875D01*
X010193Y002949D02*
X010269Y002949D01*
X010269Y003023D02*
X010193Y003023D01*
X010072Y002801D02*
X009996Y002801D01*
X009996Y003081D01*
X010072Y003081D01*
X010072Y002801D01*
X010072Y002875D02*
X009996Y002875D01*
X009996Y002949D02*
X010072Y002949D01*
X010072Y003023D02*
X009996Y003023D01*
X009875Y002801D02*
X009799Y002801D01*
X009799Y003081D01*
X009875Y003081D01*
X009875Y002801D01*
X009875Y002875D02*
X009799Y002875D01*
X009799Y002949D02*
X009875Y002949D01*
X009875Y003023D02*
X009799Y003023D01*
X009678Y002801D02*
X009602Y002801D01*
X009602Y003081D01*
X009678Y003081D01*
X009678Y002801D01*
X009678Y002875D02*
X009602Y002875D01*
X009602Y002949D02*
X009678Y002949D01*
X009678Y003023D02*
X009602Y003023D01*
X009481Y002801D02*
X009405Y002801D01*
X009405Y003081D01*
X009481Y003081D01*
X009481Y002801D01*
X009481Y002875D02*
X009405Y002875D01*
X009405Y002949D02*
X009481Y002949D01*
X009481Y003023D02*
X009405Y003023D01*
X009284Y002801D02*
X009208Y002801D01*
X009208Y003081D01*
X009284Y003081D01*
X009284Y002801D01*
X009284Y002875D02*
X009208Y002875D01*
X009208Y002949D02*
X009284Y002949D01*
X009284Y003023D02*
X009208Y003023D01*
X009087Y002801D02*
X009011Y002801D01*
X009011Y003081D01*
X009087Y003081D01*
X009087Y002801D01*
X009087Y002875D02*
X009011Y002875D01*
X009011Y002949D02*
X009087Y002949D01*
X009087Y003023D02*
X009011Y003023D01*
X008891Y002801D02*
X008815Y002801D01*
X008815Y003081D01*
X008891Y003081D01*
X008891Y002801D01*
X008891Y002875D02*
X008815Y002875D01*
X008815Y002949D02*
X008891Y002949D01*
X008891Y003023D02*
X008815Y003023D01*
X008694Y002801D02*
X008618Y002801D01*
X008618Y003081D01*
X008694Y003081D01*
X008694Y002801D01*
X008694Y002875D02*
X008618Y002875D01*
X008618Y002949D02*
X008694Y002949D01*
X008694Y003023D02*
X008618Y003023D01*
X008421Y003278D02*
X008141Y003278D01*
X008141Y003354D01*
X008421Y003354D01*
X008421Y003278D01*
X008421Y003352D02*
X008141Y003352D01*
X008141Y003475D02*
X008421Y003475D01*
X008141Y003475D02*
X008141Y003551D01*
X008421Y003551D01*
X008421Y003475D01*
X008421Y003549D02*
X008141Y003549D01*
D20*
X009626Y006487D03*
X010137Y006487D03*
D21*
X018376Y005180D03*
X018376Y004865D03*
X018376Y004550D03*
X018376Y004235D03*
X018376Y003920D03*
D22*
X018376Y002778D03*
X020541Y002778D03*
X020541Y006322D03*
X018376Y006322D03*
D23*
X019360Y005416D03*
X019360Y003684D03*
M02*
