%
M48
M72
T01C0.0120
T02C0.0280
T03C0.0354
T04C0.0400
%
T01
X1370Y2070
X2160Y2140
X5690Y3290
X6920Y3290
X7410Y3290
X9290Y3000
X10090Y3080
X10533Y3605
X10533Y4097
X9700Y4190
X8790Y4720
X9140Y4830
X10473Y4845
X11020Y5210
X12157Y5721
X11640Y6420
X14230Y5140
X13630Y4960
X13033Y4569
X12540Y4569
X13040Y4020
X14810Y3150
X16830Y3010
X16930Y2140
X16340Y1950
X15180Y1740
X11470Y2490
X11060Y2310
X9840Y1890
X15700Y4070
X16060Y4070
X17150Y4370
X19100Y4060
X19980Y4050
X15410Y5190
X5720Y4200
X3640Y4570
X2620Y4000
X1390Y4000
X2270Y5960
T02
X4410Y4100
X4910Y4100
T03
X18676Y4749
X18676Y3371
T04
X1690Y1140
X2690Y1140
X3690Y1140
X4690Y1140
X5690Y1140
X6690Y1140
X7690Y1140
X8690Y1140
X9690Y1140
X10690Y1140
X11690Y1140
X12690Y1140
X13690Y1140
X14690Y1140
X15690Y1140
X16690Y1140
X17690Y1140
X18690Y1140
X18690Y7140
X17690Y7140
X16690Y7140
X15690Y7140
X14690Y7140
X13690Y7140
X12690Y7140
X11690Y7140
X10690Y7140
X9690Y7140
X8690Y7140
X7690Y7140
X6690Y7140
X5690Y7140
X4690Y7140
X3690Y7140
X2690Y7140
X1690Y7140
X19690Y7140
M30
