G75*
G70*
%OFA0B0*%
%FSLAX24Y24*%
%IPPOS*%
%LPD*%
%AMOC8*
5,1,8,0,0,1.08239X$1,22.5*
%
%ADD10R,0.0473X0.0434*%
%ADD11R,0.0670X0.0591*%
%ADD12R,0.0394X0.0316*%
%ADD13R,0.0375X0.0316*%
%ADD14R,0.0257X0.0512*%
%ADD15R,0.0780X0.0780*%
%ADD16C,0.0780*%
%ADD17R,0.0434X0.0473*%
%ADD18R,0.0355X0.0355*%
%ADD19C,0.0073*%
%ADD20C,0.0075*%
%ADD21R,0.0316X0.0394*%
%ADD22R,0.1024X0.0237*%
%ADD23R,0.1024X0.0827*%
%ADD24C,0.0394*%
D10*
X004660Y003645D03*
X004660Y004315D03*
X018765Y005840D03*
X019434Y005840D03*
D11*
X018761Y004978D03*
X018761Y003875D03*
D12*
X014543Y004315D03*
X014543Y004827D03*
X008680Y003736D03*
X008680Y003224D03*
D13*
X022024Y002000D03*
X022654Y002000D03*
D14*
X017685Y003915D03*
X016937Y003915D03*
X016937Y004938D03*
X017311Y004938D03*
X017685Y004938D03*
D15*
X004120Y001550D03*
X004120Y007550D03*
D16*
X005120Y007550D03*
X006120Y007550D03*
X007120Y007550D03*
X008120Y007550D03*
X009120Y007550D03*
X010120Y007550D03*
X011120Y007550D03*
X012120Y007550D03*
X013120Y007550D03*
X014120Y007550D03*
X015120Y007550D03*
X016120Y007550D03*
X017120Y007550D03*
X018120Y007550D03*
X019120Y007550D03*
X020120Y007550D03*
X021120Y007550D03*
X022120Y007550D03*
X023120Y007550D03*
X021120Y001550D03*
X020120Y001550D03*
X019120Y001550D03*
X018120Y001550D03*
X017120Y001550D03*
X016120Y001550D03*
X015120Y001550D03*
X014120Y001550D03*
X013120Y001550D03*
X012120Y001550D03*
X011120Y001550D03*
X010120Y001550D03*
X009120Y001550D03*
X008120Y001550D03*
X007120Y001550D03*
X006120Y001550D03*
X005120Y001550D03*
D17*
X016061Y004092D03*
X016061Y004761D03*
D18*
X004020Y004255D03*
X004020Y003665D03*
D19*
X010660Y003672D02*
X010942Y003672D01*
X010660Y003672D02*
X010660Y003746D01*
X010942Y003746D01*
X010942Y003672D01*
X010942Y003744D02*
X010660Y003744D01*
X010660Y003869D02*
X010942Y003869D01*
X010660Y003869D02*
X010660Y003943D01*
X010942Y003943D01*
X010942Y003869D01*
X010942Y003941D02*
X010660Y003941D01*
X010660Y004066D02*
X010942Y004066D01*
X010660Y004066D02*
X010660Y004140D01*
X010942Y004140D01*
X010942Y004066D01*
X010942Y004138D02*
X010660Y004138D01*
X010660Y004263D02*
X010942Y004263D01*
X010660Y004263D02*
X010660Y004337D01*
X010942Y004337D01*
X010942Y004263D01*
X010942Y004335D02*
X010660Y004335D01*
X010660Y004460D02*
X010942Y004460D01*
X010660Y004460D02*
X010660Y004534D01*
X010942Y004534D01*
X010942Y004460D01*
X010942Y004532D02*
X010660Y004532D01*
X010660Y004657D02*
X010942Y004657D01*
X010660Y004657D02*
X010660Y004731D01*
X010942Y004731D01*
X010942Y004657D01*
X010942Y004729D02*
X010660Y004729D01*
X010660Y004854D02*
X010942Y004854D01*
X010660Y004854D02*
X010660Y004928D01*
X010942Y004928D01*
X010942Y004854D01*
X010942Y004926D02*
X010660Y004926D01*
X010660Y005050D02*
X010942Y005050D01*
X010660Y005050D02*
X010660Y005124D01*
X010942Y005124D01*
X010942Y005050D01*
X010942Y005122D02*
X010660Y005122D01*
X010660Y005247D02*
X010942Y005247D01*
X010660Y005247D02*
X010660Y005321D01*
X010942Y005321D01*
X010942Y005247D01*
X010942Y005319D02*
X010660Y005319D01*
X013297Y005247D02*
X013579Y005247D01*
X013297Y005247D02*
X013297Y005321D01*
X013579Y005321D01*
X013579Y005247D01*
X013579Y005319D02*
X013297Y005319D01*
X013297Y005050D02*
X013579Y005050D01*
X013297Y005050D02*
X013297Y005124D01*
X013579Y005124D01*
X013579Y005050D01*
X013579Y005122D02*
X013297Y005122D01*
X013297Y004854D02*
X013579Y004854D01*
X013297Y004854D02*
X013297Y004928D01*
X013579Y004928D01*
X013579Y004854D01*
X013579Y004926D02*
X013297Y004926D01*
X013297Y004657D02*
X013579Y004657D01*
X013297Y004657D02*
X013297Y004731D01*
X013579Y004731D01*
X013579Y004657D01*
X013579Y004729D02*
X013297Y004729D01*
X013297Y004460D02*
X013579Y004460D01*
X013297Y004460D02*
X013297Y004534D01*
X013579Y004534D01*
X013579Y004460D01*
X013579Y004532D02*
X013297Y004532D01*
X013297Y004263D02*
X013579Y004263D01*
X013297Y004263D02*
X013297Y004337D01*
X013579Y004337D01*
X013579Y004263D01*
X013579Y004335D02*
X013297Y004335D01*
X013297Y004066D02*
X013579Y004066D01*
X013297Y004066D02*
X013297Y004140D01*
X013579Y004140D01*
X013579Y004066D01*
X013579Y004138D02*
X013297Y004138D01*
X013297Y003869D02*
X013579Y003869D01*
X013297Y003869D02*
X013297Y003943D01*
X013579Y003943D01*
X013579Y003869D01*
X013579Y003941D02*
X013297Y003941D01*
X013297Y003672D02*
X013579Y003672D01*
X013297Y003672D02*
X013297Y003746D01*
X013579Y003746D01*
X013579Y003672D01*
X013579Y003744D02*
X013297Y003744D01*
X013297Y003476D02*
X013579Y003476D01*
X013297Y003476D02*
X013297Y003550D01*
X013579Y003550D01*
X013579Y003476D01*
X013579Y003548D02*
X013297Y003548D01*
X013297Y003279D02*
X013579Y003279D01*
X013297Y003279D02*
X013297Y003353D01*
X013579Y003353D01*
X013579Y003279D01*
X013579Y003351D02*
X013297Y003351D01*
X010942Y003279D02*
X010660Y003279D01*
X010660Y003353D01*
X010942Y003353D01*
X010942Y003279D01*
X010942Y003351D02*
X010660Y003351D01*
X010660Y003476D02*
X010942Y003476D01*
X010660Y003476D02*
X010660Y003550D01*
X010942Y003550D01*
X010942Y003476D01*
X010942Y003548D02*
X010660Y003548D01*
D20*
X011097Y002841D02*
X011173Y002841D01*
X011097Y002841D02*
X011097Y003121D01*
X011173Y003121D01*
X011173Y002841D01*
X011173Y002915D02*
X011097Y002915D01*
X011097Y002989D02*
X011173Y002989D01*
X011173Y003063D02*
X011097Y003063D01*
X011294Y002841D02*
X011370Y002841D01*
X011294Y002841D02*
X011294Y003121D01*
X011370Y003121D01*
X011370Y002841D01*
X011370Y002915D02*
X011294Y002915D01*
X011294Y002989D02*
X011370Y002989D01*
X011370Y003063D02*
X011294Y003063D01*
X011491Y002841D02*
X011567Y002841D01*
X011491Y002841D02*
X011491Y003121D01*
X011567Y003121D01*
X011567Y002841D01*
X011567Y002915D02*
X011491Y002915D01*
X011491Y002989D02*
X011567Y002989D01*
X011567Y003063D02*
X011491Y003063D01*
X011688Y002841D02*
X011764Y002841D01*
X011688Y002841D02*
X011688Y003121D01*
X011764Y003121D01*
X011764Y002841D01*
X011764Y002915D02*
X011688Y002915D01*
X011688Y002989D02*
X011764Y002989D01*
X011764Y003063D02*
X011688Y003063D01*
X011885Y002841D02*
X011961Y002841D01*
X011885Y002841D02*
X011885Y003121D01*
X011961Y003121D01*
X011961Y002841D01*
X011961Y002915D02*
X011885Y002915D01*
X011885Y002989D02*
X011961Y002989D01*
X011961Y003063D02*
X011885Y003063D01*
X012082Y002841D02*
X012158Y002841D01*
X012082Y002841D02*
X012082Y003121D01*
X012158Y003121D01*
X012158Y002841D01*
X012158Y002915D02*
X012082Y002915D01*
X012082Y002989D02*
X012158Y002989D01*
X012158Y003063D02*
X012082Y003063D01*
X012278Y002841D02*
X012354Y002841D01*
X012278Y002841D02*
X012278Y003121D01*
X012354Y003121D01*
X012354Y002841D01*
X012354Y002915D02*
X012278Y002915D01*
X012278Y002989D02*
X012354Y002989D01*
X012354Y003063D02*
X012278Y003063D01*
X012475Y002841D02*
X012551Y002841D01*
X012475Y002841D02*
X012475Y003121D01*
X012551Y003121D01*
X012551Y002841D01*
X012551Y002915D02*
X012475Y002915D01*
X012475Y002989D02*
X012551Y002989D01*
X012551Y003063D02*
X012475Y003063D01*
X012672Y002841D02*
X012748Y002841D01*
X012672Y002841D02*
X012672Y003121D01*
X012748Y003121D01*
X012748Y002841D01*
X012748Y002915D02*
X012672Y002915D01*
X012672Y002989D02*
X012748Y002989D01*
X012748Y003063D02*
X012672Y003063D01*
X012869Y002841D02*
X012945Y002841D01*
X012869Y002841D02*
X012869Y003121D01*
X012945Y003121D01*
X012945Y002841D01*
X012945Y002915D02*
X012869Y002915D01*
X012869Y002989D02*
X012945Y002989D01*
X012945Y003063D02*
X012869Y003063D01*
X013066Y002841D02*
X013142Y002841D01*
X013066Y002841D02*
X013066Y003121D01*
X013142Y003121D01*
X013142Y002841D01*
X013142Y002915D02*
X013066Y002915D01*
X013066Y002989D02*
X013142Y002989D01*
X013142Y003063D02*
X013066Y003063D01*
X013066Y005479D02*
X013142Y005479D01*
X013066Y005479D02*
X013066Y005759D01*
X013142Y005759D01*
X013142Y005479D01*
X013142Y005553D02*
X013066Y005553D01*
X013066Y005627D02*
X013142Y005627D01*
X013142Y005701D02*
X013066Y005701D01*
X012945Y005479D02*
X012869Y005479D01*
X012869Y005759D01*
X012945Y005759D01*
X012945Y005479D01*
X012945Y005553D02*
X012869Y005553D01*
X012869Y005627D02*
X012945Y005627D01*
X012945Y005701D02*
X012869Y005701D01*
X012748Y005479D02*
X012672Y005479D01*
X012672Y005759D01*
X012748Y005759D01*
X012748Y005479D01*
X012748Y005553D02*
X012672Y005553D01*
X012672Y005627D02*
X012748Y005627D01*
X012748Y005701D02*
X012672Y005701D01*
X012551Y005479D02*
X012475Y005479D01*
X012475Y005759D01*
X012551Y005759D01*
X012551Y005479D01*
X012551Y005553D02*
X012475Y005553D01*
X012475Y005627D02*
X012551Y005627D01*
X012551Y005701D02*
X012475Y005701D01*
X012354Y005479D02*
X012278Y005479D01*
X012278Y005759D01*
X012354Y005759D01*
X012354Y005479D01*
X012354Y005553D02*
X012278Y005553D01*
X012278Y005627D02*
X012354Y005627D01*
X012354Y005701D02*
X012278Y005701D01*
X012158Y005479D02*
X012082Y005479D01*
X012082Y005759D01*
X012158Y005759D01*
X012158Y005479D01*
X012158Y005553D02*
X012082Y005553D01*
X012082Y005627D02*
X012158Y005627D01*
X012158Y005701D02*
X012082Y005701D01*
X011961Y005479D02*
X011885Y005479D01*
X011885Y005759D01*
X011961Y005759D01*
X011961Y005479D01*
X011961Y005553D02*
X011885Y005553D01*
X011885Y005627D02*
X011961Y005627D01*
X011961Y005701D02*
X011885Y005701D01*
X011764Y005479D02*
X011688Y005479D01*
X011688Y005759D01*
X011764Y005759D01*
X011764Y005479D01*
X011764Y005553D02*
X011688Y005553D01*
X011688Y005627D02*
X011764Y005627D01*
X011764Y005701D02*
X011688Y005701D01*
X011567Y005479D02*
X011491Y005479D01*
X011491Y005759D01*
X011567Y005759D01*
X011567Y005479D01*
X011567Y005553D02*
X011491Y005553D01*
X011491Y005627D02*
X011567Y005627D01*
X011567Y005701D02*
X011491Y005701D01*
X011370Y005479D02*
X011294Y005479D01*
X011294Y005759D01*
X011370Y005759D01*
X011370Y005479D01*
X011370Y005553D02*
X011294Y005553D01*
X011294Y005627D02*
X011370Y005627D01*
X011370Y005701D02*
X011294Y005701D01*
X011173Y005479D02*
X011097Y005479D01*
X011097Y005759D01*
X011173Y005759D01*
X011173Y005479D01*
X011173Y005553D02*
X011097Y005553D01*
X011097Y005627D02*
X011173Y005627D01*
X011173Y005701D02*
X011097Y005701D01*
D21*
X012105Y006487D03*
X012617Y006487D03*
D22*
X020855Y005180D03*
X020855Y004865D03*
X020855Y004550D03*
X020855Y004235D03*
X020855Y003920D03*
D23*
X020855Y002778D03*
X023021Y002778D03*
X023021Y006322D03*
X020855Y006322D03*
D24*
X021840Y005416D03*
X021840Y003684D03*
M02*
