G75*
G70*
%OFA0B0*%
%FSLAX24Y24*%
%IPPOS*%
%LPD*%
%AMOC8*
5,1,8,0,0,1.08239X$1,22.5*
%
%ADD10C,0.0000*%
%ADD11C,0.0004*%
D10*
X000990Y000440D02*
X000990Y007840D01*
X020640Y007840D01*
X020640Y000440D01*
X000990Y000440D01*
X004270Y004100D02*
X004272Y004123D01*
X004278Y004145D01*
X004287Y004167D01*
X004300Y004186D01*
X004315Y004203D01*
X004333Y004217D01*
X004354Y004228D01*
X004376Y004236D01*
X004398Y004240D01*
X004422Y004240D01*
X004444Y004236D01*
X004466Y004228D01*
X004487Y004217D01*
X004505Y004203D01*
X004520Y004186D01*
X004533Y004167D01*
X004542Y004145D01*
X004548Y004123D01*
X004550Y004100D01*
X004548Y004077D01*
X004542Y004055D01*
X004533Y004033D01*
X004520Y004014D01*
X004505Y003997D01*
X004487Y003983D01*
X004466Y003972D01*
X004444Y003964D01*
X004422Y003960D01*
X004398Y003960D01*
X004376Y003964D01*
X004354Y003972D01*
X004333Y003983D01*
X004315Y003997D01*
X004300Y004014D01*
X004287Y004033D01*
X004278Y004055D01*
X004272Y004077D01*
X004270Y004100D01*
X004770Y004100D02*
X004772Y004123D01*
X004778Y004145D01*
X004787Y004167D01*
X004800Y004186D01*
X004815Y004203D01*
X004833Y004217D01*
X004854Y004228D01*
X004876Y004236D01*
X004898Y004240D01*
X004922Y004240D01*
X004944Y004236D01*
X004966Y004228D01*
X004987Y004217D01*
X005005Y004203D01*
X005020Y004186D01*
X005033Y004167D01*
X005042Y004145D01*
X005048Y004123D01*
X005050Y004100D01*
X005048Y004077D01*
X005042Y004055D01*
X005033Y004033D01*
X005020Y004014D01*
X005005Y003997D01*
X004987Y003983D01*
X004966Y003972D01*
X004944Y003964D01*
X004922Y003960D01*
X004898Y003960D01*
X004876Y003964D01*
X004854Y003972D01*
X004833Y003983D01*
X004815Y003997D01*
X004800Y004014D01*
X004787Y004033D01*
X004778Y004055D01*
X004772Y004077D01*
X004770Y004100D01*
X018499Y004749D02*
X018501Y004775D01*
X018507Y004801D01*
X018517Y004826D01*
X018530Y004849D01*
X018546Y004869D01*
X018566Y004887D01*
X018588Y004902D01*
X018611Y004914D01*
X018637Y004922D01*
X018663Y004926D01*
X018689Y004926D01*
X018715Y004922D01*
X018741Y004914D01*
X018765Y004902D01*
X018786Y004887D01*
X018806Y004869D01*
X018822Y004849D01*
X018835Y004826D01*
X018845Y004801D01*
X018851Y004775D01*
X018853Y004749D01*
X018851Y004723D01*
X018845Y004697D01*
X018835Y004672D01*
X018822Y004649D01*
X018806Y004629D01*
X018786Y004611D01*
X018764Y004596D01*
X018741Y004584D01*
X018715Y004576D01*
X018689Y004572D01*
X018663Y004572D01*
X018637Y004576D01*
X018611Y004584D01*
X018587Y004596D01*
X018566Y004611D01*
X018546Y004629D01*
X018530Y004649D01*
X018517Y004672D01*
X018507Y004697D01*
X018501Y004723D01*
X018499Y004749D01*
X018499Y003371D02*
X018501Y003397D01*
X018507Y003423D01*
X018517Y003448D01*
X018530Y003471D01*
X018546Y003491D01*
X018566Y003509D01*
X018588Y003524D01*
X018611Y003536D01*
X018637Y003544D01*
X018663Y003548D01*
X018689Y003548D01*
X018715Y003544D01*
X018741Y003536D01*
X018765Y003524D01*
X018786Y003509D01*
X018806Y003491D01*
X018822Y003471D01*
X018835Y003448D01*
X018845Y003423D01*
X018851Y003397D01*
X018853Y003371D01*
X018851Y003345D01*
X018845Y003319D01*
X018835Y003294D01*
X018822Y003271D01*
X018806Y003251D01*
X018786Y003233D01*
X018764Y003218D01*
X018741Y003206D01*
X018715Y003198D01*
X018689Y003194D01*
X018663Y003194D01*
X018637Y003198D01*
X018611Y003206D01*
X018587Y003218D01*
X018566Y003233D01*
X018546Y003251D01*
X018530Y003271D01*
X018517Y003294D01*
X018507Y003319D01*
X018501Y003345D01*
X018499Y003371D01*
D11*
X018134Y002765D02*
X018164Y002746D01*
X018189Y002721D01*
X017588Y002721D01*
X017613Y002746D01*
X017643Y002765D01*
X018134Y002765D01*
X018101Y002777D01*
X018066Y002780D01*
X017711Y002780D01*
X017676Y002777D01*
X017643Y002765D01*
X017639Y002762D02*
X018138Y002762D01*
X018142Y002760D02*
X017635Y002760D01*
X017631Y002758D02*
X018145Y002758D01*
X018149Y002755D02*
X017627Y002755D01*
X017624Y002753D02*
X018153Y002753D01*
X018157Y002750D02*
X017620Y002750D01*
X017616Y002748D02*
X018161Y002748D01*
X018164Y002745D02*
X017612Y002745D01*
X017610Y002743D02*
X018167Y002743D01*
X018169Y002741D02*
X017608Y002741D01*
X017605Y002738D02*
X018172Y002738D01*
X018174Y002736D02*
X017603Y002736D01*
X017600Y002733D02*
X018177Y002733D01*
X018179Y002731D02*
X017598Y002731D01*
X017595Y002728D02*
X018182Y002728D01*
X018184Y002726D02*
X017593Y002726D01*
X017590Y002723D02*
X018186Y002723D01*
X018189Y002721D02*
X018207Y002691D01*
X018219Y002658D01*
X018223Y002623D01*
X018219Y002588D01*
X018207Y002555D01*
X018189Y002525D01*
X018164Y002500D01*
X018134Y002481D01*
X018101Y002469D01*
X018066Y002466D01*
X017711Y002466D01*
X017676Y002469D01*
X017643Y002481D01*
X017613Y002500D01*
X017588Y002525D01*
X017569Y002555D01*
X018208Y002555D01*
X018206Y002553D02*
X017570Y002553D01*
X017569Y002555D02*
X017558Y002588D01*
X017554Y002623D01*
X017558Y002658D01*
X017569Y002691D01*
X017588Y002721D01*
X017587Y002719D02*
X018190Y002719D01*
X018192Y002716D02*
X017585Y002716D01*
X017583Y002714D02*
X018193Y002714D01*
X018195Y002711D02*
X017582Y002711D01*
X017580Y002709D02*
X018196Y002709D01*
X018198Y002706D02*
X017579Y002706D01*
X017577Y002704D02*
X018200Y002704D01*
X018201Y002702D02*
X017576Y002702D01*
X017574Y002699D02*
X018203Y002699D01*
X018204Y002697D02*
X017573Y002697D01*
X017571Y002694D02*
X018206Y002694D01*
X018207Y002692D02*
X017570Y002692D01*
X017569Y002689D02*
X018208Y002689D01*
X018209Y002687D02*
X017568Y002687D01*
X017567Y002684D02*
X018210Y002684D01*
X018211Y002682D02*
X017566Y002682D01*
X017565Y002680D02*
X018212Y002680D01*
X018212Y002677D02*
X017564Y002677D01*
X017564Y002675D02*
X018213Y002675D01*
X018214Y002672D02*
X017563Y002672D01*
X017562Y002670D02*
X018215Y002670D01*
X018216Y002667D02*
X017561Y002667D01*
X017560Y002665D02*
X018217Y002665D01*
X018218Y002663D02*
X017559Y002663D01*
X017558Y002660D02*
X018218Y002660D01*
X018219Y002658D02*
X017558Y002658D01*
X017557Y002655D02*
X018219Y002655D01*
X018220Y002653D02*
X017557Y002653D01*
X017557Y002650D02*
X018220Y002650D01*
X018220Y002648D02*
X017557Y002648D01*
X017556Y002645D02*
X018221Y002645D01*
X018221Y002643D02*
X017556Y002643D01*
X017556Y002641D02*
X018221Y002641D01*
X018221Y002638D02*
X017555Y002638D01*
X017555Y002636D02*
X018222Y002636D01*
X018222Y002633D02*
X017555Y002633D01*
X017555Y002631D02*
X018222Y002631D01*
X018222Y002628D02*
X017554Y002628D01*
X017554Y002626D02*
X018223Y002626D01*
X018223Y002624D02*
X017554Y002624D01*
X017554Y002621D02*
X018223Y002621D01*
X018223Y002619D02*
X017554Y002619D01*
X017555Y002616D02*
X018222Y002616D01*
X018222Y002614D02*
X017555Y002614D01*
X017555Y002611D02*
X018222Y002611D01*
X018221Y002609D02*
X017555Y002609D01*
X017556Y002607D02*
X018221Y002607D01*
X018221Y002604D02*
X017556Y002604D01*
X017556Y002602D02*
X018221Y002602D01*
X018220Y002599D02*
X017556Y002599D01*
X017557Y002597D02*
X018220Y002597D01*
X018220Y002594D02*
X017557Y002594D01*
X017557Y002592D02*
X018220Y002592D01*
X018219Y002589D02*
X017558Y002589D01*
X017558Y002587D02*
X018219Y002587D01*
X018218Y002585D02*
X017559Y002585D01*
X017560Y002582D02*
X018217Y002582D01*
X018216Y002580D02*
X017561Y002580D01*
X017561Y002577D02*
X018215Y002577D01*
X018215Y002575D02*
X017562Y002575D01*
X017563Y002572D02*
X018214Y002572D01*
X018213Y002570D02*
X017564Y002570D01*
X017565Y002568D02*
X018212Y002568D01*
X018211Y002565D02*
X017566Y002565D01*
X017567Y002563D02*
X018210Y002563D01*
X018209Y002560D02*
X017567Y002560D01*
X017568Y002558D02*
X018209Y002558D01*
X018205Y002550D02*
X017572Y002550D01*
X017574Y002548D02*
X018203Y002548D01*
X018202Y002546D02*
X017575Y002546D01*
X017577Y002543D02*
X018200Y002543D01*
X018199Y002541D02*
X017578Y002541D01*
X017580Y002538D02*
X018197Y002538D01*
X018196Y002536D02*
X017581Y002536D01*
X017583Y002533D02*
X018194Y002533D01*
X018193Y002531D02*
X017584Y002531D01*
X017586Y002529D02*
X018191Y002529D01*
X018190Y002526D02*
X017587Y002526D01*
X017589Y002524D02*
X018188Y002524D01*
X018185Y002521D02*
X017592Y002521D01*
X017594Y002519D02*
X018183Y002519D01*
X018180Y002516D02*
X017597Y002516D01*
X017599Y002514D02*
X018178Y002514D01*
X018175Y002511D02*
X017601Y002511D01*
X017604Y002509D02*
X018173Y002509D01*
X018170Y002507D02*
X017606Y002507D01*
X017609Y002504D02*
X018168Y002504D01*
X018166Y002502D02*
X017611Y002502D01*
X017614Y002499D02*
X018163Y002499D01*
X018159Y002497D02*
X017618Y002497D01*
X017622Y002494D02*
X018155Y002494D01*
X018151Y002492D02*
X017626Y002492D01*
X017630Y002490D02*
X018147Y002490D01*
X018143Y002487D02*
X017633Y002487D01*
X017637Y002485D02*
X018140Y002485D01*
X018136Y002482D02*
X017641Y002482D01*
X017647Y002480D02*
X018130Y002480D01*
X018123Y002477D02*
X017654Y002477D01*
X017661Y002475D02*
X018116Y002475D01*
X018109Y002472D02*
X017668Y002472D01*
X017675Y002470D02*
X018102Y002470D01*
X018084Y002468D02*
X017693Y002468D01*
X017711Y002466D02*
X018066Y002466D01*
X018127Y002767D02*
X017650Y002767D01*
X017657Y002770D02*
X018120Y002770D01*
X018113Y002772D02*
X017664Y002772D01*
X017671Y002775D02*
X018106Y002775D01*
X018095Y002777D02*
X017681Y002777D01*
X017703Y002780D02*
X018074Y002780D01*
X018066Y002780D02*
X017711Y002780D01*
X019640Y002623D02*
X019644Y002658D01*
X019656Y002691D01*
X019675Y002721D01*
X019700Y002746D01*
X019730Y002765D01*
X020220Y002765D01*
X020221Y002765D02*
X020250Y002746D01*
X020275Y002721D01*
X020294Y002691D01*
X020306Y002658D01*
X020310Y002623D01*
X020306Y002588D01*
X020294Y002555D01*
X020275Y002525D01*
X020250Y002500D01*
X020221Y002481D01*
X020187Y002469D01*
X020152Y002466D01*
X019798Y002466D01*
X019763Y002469D01*
X019730Y002481D01*
X019700Y002500D01*
X019675Y002525D01*
X019656Y002555D01*
X019644Y002588D01*
X019640Y002623D01*
X019640Y002624D02*
X020310Y002624D01*
X020309Y002626D02*
X019641Y002626D01*
X019641Y002628D02*
X020309Y002628D01*
X020309Y002631D02*
X019641Y002631D01*
X019642Y002633D02*
X020309Y002633D01*
X020308Y002636D02*
X019642Y002636D01*
X019642Y002638D02*
X020308Y002638D01*
X020308Y002641D02*
X019642Y002641D01*
X019643Y002643D02*
X020307Y002643D01*
X020307Y002645D02*
X019643Y002645D01*
X019643Y002648D02*
X020307Y002648D01*
X020307Y002650D02*
X019643Y002650D01*
X019644Y002653D02*
X020306Y002653D01*
X020306Y002655D02*
X019644Y002655D01*
X019644Y002658D02*
X020306Y002658D01*
X020305Y002660D02*
X019645Y002660D01*
X019646Y002663D02*
X020304Y002663D01*
X020303Y002665D02*
X019647Y002665D01*
X019648Y002667D02*
X020302Y002667D01*
X020302Y002670D02*
X019648Y002670D01*
X019649Y002672D02*
X020301Y002672D01*
X020300Y002675D02*
X019650Y002675D01*
X019651Y002677D02*
X020299Y002677D01*
X020298Y002680D02*
X019652Y002680D01*
X019653Y002682D02*
X020297Y002682D01*
X020296Y002684D02*
X019654Y002684D01*
X019654Y002687D02*
X020296Y002687D01*
X020295Y002689D02*
X019655Y002689D01*
X019656Y002692D02*
X020294Y002692D01*
X020292Y002694D02*
X019658Y002694D01*
X019659Y002697D02*
X020291Y002697D01*
X020289Y002699D02*
X019661Y002699D01*
X019662Y002702D02*
X020288Y002702D01*
X020286Y002704D02*
X019664Y002704D01*
X019665Y002706D02*
X020285Y002706D01*
X020283Y002709D02*
X019667Y002709D01*
X019669Y002711D02*
X020282Y002711D01*
X020280Y002714D02*
X019670Y002714D01*
X019672Y002716D02*
X020278Y002716D01*
X020277Y002719D02*
X019673Y002719D01*
X019675Y002721D02*
X020275Y002721D01*
X020273Y002723D02*
X019677Y002723D01*
X019679Y002726D02*
X020271Y002726D01*
X020268Y002728D02*
X019682Y002728D01*
X019684Y002731D02*
X020266Y002731D01*
X020263Y002733D02*
X019687Y002733D01*
X019689Y002736D02*
X020261Y002736D01*
X020258Y002738D02*
X019692Y002738D01*
X019694Y002741D02*
X020256Y002741D01*
X020254Y002743D02*
X019697Y002743D01*
X019699Y002745D02*
X020251Y002745D01*
X020248Y002748D02*
X019702Y002748D01*
X019706Y002750D02*
X020244Y002750D01*
X020240Y002753D02*
X019710Y002753D01*
X019714Y002755D02*
X020236Y002755D01*
X020232Y002758D02*
X019718Y002758D01*
X019722Y002760D02*
X020228Y002760D01*
X020224Y002762D02*
X019726Y002762D01*
X019730Y002765D02*
X019763Y002777D01*
X019798Y002780D01*
X020152Y002780D01*
X020187Y002777D01*
X020221Y002765D01*
X020213Y002767D02*
X019737Y002767D01*
X019744Y002770D02*
X020206Y002770D01*
X020200Y002772D02*
X019751Y002772D01*
X019758Y002775D02*
X020193Y002775D01*
X020182Y002777D02*
X019768Y002777D01*
X019790Y002780D02*
X020160Y002780D01*
X020152Y002780D02*
X019798Y002780D01*
X019641Y002621D02*
X020309Y002621D01*
X020309Y002619D02*
X019641Y002619D01*
X019641Y002616D02*
X020309Y002616D01*
X020309Y002614D02*
X019641Y002614D01*
X019642Y002611D02*
X020308Y002611D01*
X020308Y002609D02*
X019642Y002609D01*
X019642Y002607D02*
X020308Y002607D01*
X020308Y002604D02*
X019643Y002604D01*
X019643Y002602D02*
X020307Y002602D01*
X020307Y002599D02*
X019643Y002599D01*
X019643Y002597D02*
X020307Y002597D01*
X020306Y002594D02*
X019644Y002594D01*
X019644Y002592D02*
X020306Y002592D01*
X020306Y002589D02*
X019644Y002589D01*
X019645Y002587D02*
X020305Y002587D01*
X020305Y002585D02*
X019646Y002585D01*
X019646Y002582D02*
X020304Y002582D01*
X020303Y002580D02*
X019647Y002580D01*
X019648Y002577D02*
X020302Y002577D01*
X020301Y002575D02*
X019649Y002575D01*
X019650Y002572D02*
X020300Y002572D01*
X020299Y002570D02*
X019651Y002570D01*
X019651Y002568D02*
X020299Y002568D01*
X020298Y002565D02*
X019652Y002565D01*
X019653Y002563D02*
X020297Y002563D01*
X020296Y002560D02*
X019654Y002560D01*
X019655Y002558D02*
X020295Y002558D01*
X020294Y002555D02*
X019656Y002555D01*
X019657Y002553D02*
X020293Y002553D01*
X020291Y002550D02*
X019659Y002550D01*
X019660Y002548D02*
X020290Y002548D01*
X020288Y002546D02*
X019662Y002546D01*
X019663Y002543D02*
X020287Y002543D01*
X020285Y002541D02*
X019665Y002541D01*
X019666Y002538D02*
X020284Y002538D01*
X020282Y002536D02*
X019668Y002536D01*
X019669Y002533D02*
X020281Y002533D01*
X020279Y002531D02*
X019671Y002531D01*
X019672Y002529D02*
X020278Y002529D01*
X020276Y002526D02*
X019674Y002526D01*
X019676Y002524D02*
X020274Y002524D01*
X020272Y002521D02*
X019678Y002521D01*
X019681Y002519D02*
X020269Y002519D01*
X020267Y002516D02*
X019683Y002516D01*
X019686Y002514D02*
X020264Y002514D01*
X020262Y002511D02*
X019688Y002511D01*
X019691Y002509D02*
X020260Y002509D01*
X020257Y002507D02*
X019693Y002507D01*
X019695Y002504D02*
X020255Y002504D01*
X020252Y002502D02*
X019698Y002502D01*
X019701Y002499D02*
X020249Y002499D01*
X020246Y002497D02*
X019705Y002497D01*
X019708Y002494D02*
X020242Y002494D01*
X020238Y002492D02*
X019712Y002492D01*
X019716Y002490D02*
X020234Y002490D01*
X020230Y002487D02*
X019720Y002487D01*
X019724Y002485D02*
X020226Y002485D01*
X020222Y002482D02*
X019728Y002482D01*
X019733Y002480D02*
X020217Y002480D01*
X020210Y002477D02*
X019740Y002477D01*
X019747Y002475D02*
X020203Y002475D01*
X020196Y002472D02*
X019754Y002472D01*
X019761Y002470D02*
X020189Y002470D01*
X020171Y002468D02*
X019780Y002468D01*
X019798Y002466D02*
X020152Y002466D01*
X020152Y005340D02*
X019798Y005340D01*
X019763Y005343D01*
X019730Y005355D01*
X019700Y005374D01*
X019675Y005399D01*
X019656Y005429D01*
X020294Y005429D01*
X020275Y005399D01*
X020250Y005374D01*
X020221Y005355D01*
X020187Y005343D01*
X020152Y005340D01*
X019798Y005340D01*
X019784Y005341D02*
X020166Y005341D01*
X020187Y005344D02*
X019763Y005344D01*
X019756Y005346D02*
X020194Y005346D01*
X020201Y005348D02*
X019749Y005348D01*
X019742Y005351D02*
X020208Y005351D01*
X020215Y005353D02*
X019735Y005353D01*
X019729Y005356D02*
X020221Y005356D01*
X020225Y005358D02*
X019725Y005358D01*
X019721Y005361D02*
X020229Y005361D01*
X020233Y005363D02*
X019717Y005363D01*
X019713Y005365D02*
X020237Y005365D01*
X020241Y005368D02*
X019709Y005368D01*
X019705Y005370D02*
X020245Y005370D01*
X020249Y005373D02*
X019701Y005373D01*
X019698Y005375D02*
X020252Y005375D01*
X020254Y005378D02*
X019696Y005378D01*
X019693Y005380D02*
X020257Y005380D01*
X020259Y005383D02*
X019691Y005383D01*
X019689Y005385D02*
X020261Y005385D01*
X020264Y005387D02*
X019686Y005387D01*
X019684Y005390D02*
X020266Y005390D01*
X020269Y005392D02*
X019681Y005392D01*
X019679Y005395D02*
X020271Y005395D01*
X020274Y005397D02*
X019676Y005397D01*
X019674Y005400D02*
X020276Y005400D01*
X020277Y005402D02*
X019673Y005402D01*
X019671Y005404D02*
X020279Y005404D01*
X020280Y005407D02*
X019670Y005407D01*
X019668Y005409D02*
X020282Y005409D01*
X020283Y005412D02*
X019667Y005412D01*
X019665Y005414D02*
X020285Y005414D01*
X020287Y005417D02*
X019664Y005417D01*
X019662Y005419D02*
X020288Y005419D01*
X020290Y005422D02*
X019660Y005422D01*
X019659Y005424D02*
X020291Y005424D01*
X020293Y005426D02*
X019657Y005426D01*
X019656Y005429D02*
X019644Y005462D01*
X019640Y005497D01*
X019644Y005532D01*
X019656Y005565D01*
X020294Y005565D01*
X020306Y005532D01*
X020310Y005497D01*
X020306Y005462D01*
X020294Y005429D01*
X020295Y005431D02*
X019655Y005431D01*
X019654Y005434D02*
X020296Y005434D01*
X020297Y005436D02*
X019653Y005436D01*
X019653Y005439D02*
X020298Y005439D01*
X020298Y005441D02*
X019652Y005441D01*
X019651Y005443D02*
X020299Y005443D01*
X020300Y005446D02*
X019650Y005446D01*
X019649Y005448D02*
X020301Y005448D01*
X020302Y005451D02*
X019648Y005451D01*
X019647Y005453D02*
X020303Y005453D01*
X020304Y005456D02*
X019647Y005456D01*
X019646Y005458D02*
X020304Y005458D01*
X020305Y005461D02*
X019645Y005461D01*
X019644Y005463D02*
X020306Y005463D01*
X020306Y005465D02*
X019644Y005465D01*
X019644Y005468D02*
X020306Y005468D01*
X020307Y005470D02*
X019643Y005470D01*
X019643Y005473D02*
X020307Y005473D01*
X020307Y005475D02*
X019643Y005475D01*
X019643Y005478D02*
X020307Y005478D01*
X020308Y005480D02*
X019642Y005480D01*
X019642Y005482D02*
X020308Y005482D01*
X020308Y005485D02*
X019642Y005485D01*
X019641Y005487D02*
X020309Y005487D01*
X020309Y005490D02*
X019641Y005490D01*
X019641Y005492D02*
X020309Y005492D01*
X020309Y005495D02*
X019641Y005495D01*
X019640Y005497D02*
X020310Y005497D01*
X020309Y005500D02*
X019641Y005500D01*
X019641Y005502D02*
X020309Y005502D01*
X020309Y005504D02*
X019641Y005504D01*
X019641Y005507D02*
X020309Y005507D01*
X020308Y005509D02*
X019642Y005509D01*
X019642Y005512D02*
X020308Y005512D01*
X020308Y005514D02*
X019642Y005514D01*
X019643Y005517D02*
X020307Y005517D01*
X020307Y005519D02*
X019643Y005519D01*
X019643Y005521D02*
X020307Y005521D01*
X020307Y005524D02*
X019643Y005524D01*
X019644Y005526D02*
X020306Y005526D01*
X020306Y005529D02*
X019644Y005529D01*
X019644Y005531D02*
X020306Y005531D01*
X020305Y005534D02*
X019645Y005534D01*
X019646Y005536D02*
X020304Y005536D01*
X020303Y005539D02*
X019647Y005539D01*
X019647Y005541D02*
X020303Y005541D01*
X020302Y005543D02*
X019648Y005543D01*
X019649Y005546D02*
X020301Y005546D01*
X020300Y005548D02*
X019650Y005548D01*
X019651Y005551D02*
X020299Y005551D01*
X020298Y005553D02*
X019652Y005553D01*
X019653Y005556D02*
X020298Y005556D01*
X020297Y005558D02*
X019653Y005558D01*
X019654Y005560D02*
X020296Y005560D01*
X020295Y005563D02*
X019655Y005563D01*
X019656Y005565D02*
X019675Y005595D01*
X019700Y005620D01*
X019730Y005639D01*
X019763Y005651D01*
X019798Y005654D01*
X020152Y005654D01*
X020187Y005651D01*
X020221Y005639D01*
X020250Y005620D01*
X020275Y005595D01*
X020294Y005565D01*
X020293Y005568D02*
X019658Y005568D01*
X019659Y005570D02*
X020291Y005570D01*
X020290Y005573D02*
X019661Y005573D01*
X019662Y005575D02*
X020288Y005575D01*
X020286Y005578D02*
X019664Y005578D01*
X019665Y005580D02*
X020285Y005580D01*
X020283Y005582D02*
X019667Y005582D01*
X019668Y005585D02*
X020282Y005585D01*
X020280Y005587D02*
X019670Y005587D01*
X019671Y005590D02*
X020279Y005590D01*
X020277Y005592D02*
X019673Y005592D01*
X019674Y005595D02*
X020276Y005595D01*
X020274Y005597D02*
X019677Y005597D01*
X019679Y005599D02*
X020271Y005599D01*
X020269Y005602D02*
X019681Y005602D01*
X019684Y005604D02*
X020266Y005604D01*
X020264Y005607D02*
X019686Y005607D01*
X019689Y005609D02*
X020261Y005609D01*
X020259Y005612D02*
X019691Y005612D01*
X019694Y005614D02*
X020256Y005614D01*
X020254Y005617D02*
X019696Y005617D01*
X019699Y005619D02*
X020252Y005619D01*
X020248Y005621D02*
X019702Y005621D01*
X019706Y005624D02*
X020245Y005624D01*
X020241Y005626D02*
X019709Y005626D01*
X019713Y005629D02*
X020237Y005629D01*
X020233Y005631D02*
X019717Y005631D01*
X019721Y005634D02*
X020229Y005634D01*
X020225Y005636D02*
X019725Y005636D01*
X019729Y005638D02*
X020221Y005638D01*
X020215Y005641D02*
X019735Y005641D01*
X019742Y005643D02*
X020208Y005643D01*
X020201Y005646D02*
X019749Y005646D01*
X019756Y005648D02*
X020194Y005648D01*
X020186Y005651D02*
X019764Y005651D01*
X019785Y005653D02*
X020165Y005653D01*
X020152Y005654D02*
X019798Y005654D01*
X018223Y005497D02*
X018219Y005462D01*
X018207Y005429D01*
X018208Y005429D02*
X017569Y005429D01*
X017558Y005462D01*
X017554Y005497D01*
X017558Y005532D01*
X017569Y005565D01*
X018207Y005565D01*
X018219Y005532D01*
X018223Y005497D01*
X017554Y005497D01*
X017554Y005495D02*
X018223Y005495D01*
X018223Y005492D02*
X017554Y005492D01*
X017555Y005490D02*
X018222Y005490D01*
X018222Y005487D02*
X017555Y005487D01*
X017555Y005485D02*
X018222Y005485D01*
X018221Y005482D02*
X017555Y005482D01*
X017556Y005480D02*
X018221Y005480D01*
X018221Y005478D02*
X017556Y005478D01*
X017556Y005475D02*
X018221Y005475D01*
X018220Y005473D02*
X017557Y005473D01*
X017557Y005470D02*
X018220Y005470D01*
X018220Y005468D02*
X017557Y005468D01*
X017557Y005465D02*
X018220Y005465D01*
X018219Y005463D02*
X017558Y005463D01*
X017558Y005461D02*
X018219Y005461D01*
X018218Y005458D02*
X017559Y005458D01*
X017560Y005456D02*
X018217Y005456D01*
X018216Y005453D02*
X017561Y005453D01*
X017562Y005451D02*
X018215Y005451D01*
X018214Y005448D02*
X017562Y005448D01*
X017563Y005446D02*
X018214Y005446D01*
X018213Y005443D02*
X017564Y005443D01*
X017565Y005441D02*
X018212Y005441D01*
X018211Y005439D02*
X017566Y005439D01*
X017567Y005436D02*
X018210Y005436D01*
X018209Y005434D02*
X017568Y005434D01*
X017568Y005431D02*
X018208Y005431D01*
X018207Y005429D02*
X018189Y005399D01*
X018164Y005374D01*
X018134Y005355D01*
X018101Y005343D01*
X018101Y005344D02*
X017676Y005344D01*
X017676Y005343D02*
X017643Y005355D01*
X017613Y005374D01*
X017588Y005399D01*
X017569Y005429D01*
X017571Y005426D02*
X018206Y005426D01*
X018205Y005424D02*
X017572Y005424D01*
X017574Y005422D02*
X018203Y005422D01*
X018201Y005419D02*
X017575Y005419D01*
X017577Y005417D02*
X018200Y005417D01*
X018198Y005414D02*
X017578Y005414D01*
X017580Y005412D02*
X018197Y005412D01*
X018195Y005409D02*
X017582Y005409D01*
X017583Y005407D02*
X018194Y005407D01*
X018192Y005404D02*
X017585Y005404D01*
X017586Y005402D02*
X018191Y005402D01*
X018189Y005400D02*
X017588Y005400D01*
X017590Y005397D02*
X018187Y005397D01*
X018185Y005395D02*
X017592Y005395D01*
X017595Y005392D02*
X018182Y005392D01*
X018180Y005390D02*
X017597Y005390D01*
X017600Y005387D02*
X018177Y005387D01*
X018175Y005385D02*
X017602Y005385D01*
X017604Y005383D02*
X018172Y005383D01*
X018170Y005380D02*
X017607Y005380D01*
X017609Y005378D02*
X018168Y005378D01*
X018165Y005375D02*
X017612Y005375D01*
X017615Y005373D02*
X018162Y005373D01*
X018158Y005370D02*
X017619Y005370D01*
X017623Y005368D02*
X018154Y005368D01*
X018150Y005365D02*
X017626Y005365D01*
X017630Y005363D02*
X018147Y005363D01*
X018143Y005361D02*
X017634Y005361D01*
X017638Y005358D02*
X018139Y005358D01*
X018135Y005356D02*
X017642Y005356D01*
X017648Y005353D02*
X018129Y005353D01*
X018122Y005351D02*
X017655Y005351D01*
X017662Y005348D02*
X018115Y005348D01*
X018108Y005346D02*
X017669Y005346D01*
X017676Y005343D02*
X017711Y005340D01*
X018066Y005340D01*
X018101Y005343D01*
X018080Y005341D02*
X017697Y005341D01*
X017711Y005340D02*
X018066Y005340D01*
X018223Y005500D02*
X017554Y005500D01*
X017554Y005502D02*
X018223Y005502D01*
X018222Y005504D02*
X017555Y005504D01*
X017555Y005507D02*
X018222Y005507D01*
X018222Y005509D02*
X017555Y005509D01*
X017555Y005512D02*
X018221Y005512D01*
X018221Y005514D02*
X017556Y005514D01*
X017556Y005517D02*
X018221Y005517D01*
X018221Y005519D02*
X017556Y005519D01*
X017557Y005521D02*
X018220Y005521D01*
X018220Y005524D02*
X017557Y005524D01*
X017557Y005526D02*
X018220Y005526D01*
X018219Y005529D02*
X017557Y005529D01*
X017558Y005531D02*
X018219Y005531D01*
X018219Y005534D02*
X017558Y005534D01*
X017559Y005536D02*
X018218Y005536D01*
X018217Y005539D02*
X017560Y005539D01*
X017561Y005541D02*
X018216Y005541D01*
X018215Y005543D02*
X017562Y005543D01*
X017563Y005546D02*
X018214Y005546D01*
X018213Y005548D02*
X017563Y005548D01*
X017564Y005551D02*
X018213Y005551D01*
X018212Y005553D02*
X017565Y005553D01*
X017566Y005556D02*
X018211Y005556D01*
X018210Y005558D02*
X017567Y005558D01*
X017568Y005560D02*
X018209Y005560D01*
X018208Y005563D02*
X017569Y005563D01*
X017569Y005565D02*
X017588Y005595D01*
X017613Y005620D01*
X017643Y005639D01*
X017676Y005651D01*
X017711Y005654D01*
X018066Y005654D01*
X018101Y005651D01*
X018134Y005639D01*
X018164Y005620D01*
X018189Y005595D01*
X018207Y005565D01*
X018206Y005568D02*
X017571Y005568D01*
X017572Y005570D02*
X018204Y005570D01*
X018203Y005573D02*
X017574Y005573D01*
X017575Y005575D02*
X018201Y005575D01*
X018200Y005578D02*
X017577Y005578D01*
X017579Y005580D02*
X018198Y005580D01*
X018197Y005582D02*
X017580Y005582D01*
X017582Y005585D02*
X018195Y005585D01*
X018194Y005587D02*
X017583Y005587D01*
X017585Y005590D02*
X018192Y005590D01*
X018191Y005592D02*
X017586Y005592D01*
X017588Y005595D02*
X018189Y005595D01*
X018187Y005597D02*
X017590Y005597D01*
X017592Y005599D02*
X018184Y005599D01*
X018182Y005602D02*
X017595Y005602D01*
X017597Y005604D02*
X018180Y005604D01*
X018177Y005607D02*
X017600Y005607D01*
X017602Y005609D02*
X018175Y005609D01*
X018172Y005612D02*
X017605Y005612D01*
X017607Y005614D02*
X018170Y005614D01*
X018167Y005617D02*
X017609Y005617D01*
X017612Y005619D02*
X018165Y005619D01*
X018162Y005621D02*
X017615Y005621D01*
X017619Y005624D02*
X018158Y005624D01*
X018154Y005626D02*
X017623Y005626D01*
X017627Y005629D02*
X018150Y005629D01*
X018146Y005631D02*
X017631Y005631D01*
X017634Y005634D02*
X018142Y005634D01*
X018139Y005636D02*
X017638Y005636D01*
X017642Y005638D02*
X018135Y005638D01*
X018128Y005641D02*
X017649Y005641D01*
X017656Y005643D02*
X018121Y005643D01*
X018114Y005646D02*
X017663Y005646D01*
X017670Y005648D02*
X018107Y005648D01*
X018100Y005651D02*
X017677Y005651D01*
X017699Y005653D02*
X018078Y005653D01*
X018066Y005654D02*
X017711Y005654D01*
M02*
