G75*
G70*
%OFA0B0*%
%FSLAX24Y24*%
%IPPOS*%
%LPD*%
%AMOC8*
5,1,8,0,0,1.08239X$1,22.5*
%
%ADD10R,0.0740X0.0740*%
%ADD11C,0.0740*%
%ADD12C,0.0240*%
%ADD13C,0.0080*%
D10*
X001640Y001550D03*
X001640Y007550D03*
D11*
X002640Y007550D03*
X003640Y007550D03*
X004640Y007550D03*
X005640Y007550D03*
X006640Y007550D03*
X007640Y007550D03*
X008640Y007550D03*
X009640Y007550D03*
X010640Y007550D03*
X011640Y007550D03*
X012640Y007550D03*
X013640Y007550D03*
X014640Y007550D03*
X015640Y007550D03*
X016640Y007550D03*
X017640Y007550D03*
X018640Y007550D03*
X019640Y007550D03*
X020640Y007550D03*
X018640Y001550D03*
X017640Y001550D03*
X016640Y001550D03*
X015640Y001550D03*
X014640Y001550D03*
X013640Y001550D03*
X012640Y001550D03*
X011640Y001550D03*
X010640Y001550D03*
X009640Y001550D03*
X008640Y001550D03*
X007640Y001550D03*
X006640Y001550D03*
X005640Y001550D03*
X004640Y001550D03*
X003640Y001550D03*
X002640Y001550D03*
D12*
X005640Y003700D03*
X006870Y003700D03*
X007360Y003700D03*
X009240Y003410D03*
X010040Y003490D03*
X010483Y004015D03*
X010483Y004507D03*
X009480Y004870D03*
X009120Y005120D03*
X008800Y004820D03*
X010000Y005260D03*
X010423Y005255D03*
X012107Y006131D03*
X011590Y006830D03*
X013580Y005370D03*
X014060Y005370D03*
X012983Y004979D03*
X012490Y004979D03*
X012990Y003860D03*
X014860Y003560D03*
X015650Y004400D03*
X017080Y003870D03*
X016950Y002550D03*
X016090Y002560D03*
X013140Y002050D03*
X009790Y002300D03*
X003600Y003740D03*
X002760Y003760D03*
X001540Y004730D03*
X015500Y005460D03*
X017270Y005160D03*
X017412Y006278D03*
X019480Y006440D03*
X020850Y002080D03*
X020560Y001700D03*
D13*
X001180Y001072D02*
X001180Y000990D01*
X021100Y000990D01*
X021100Y007328D01*
X021072Y007261D01*
X020929Y007118D01*
X020741Y007040D01*
X020539Y007040D01*
X020430Y007085D01*
X020316Y006972D01*
X020211Y006866D01*
X019474Y006866D01*
X018707Y006098D01*
X017599Y006098D01*
X017559Y006058D01*
X017463Y006018D01*
X017360Y006018D01*
X017264Y006058D01*
X017191Y006131D01*
X017152Y006227D01*
X017152Y006330D01*
X017191Y006426D01*
X017264Y006499D01*
X017360Y006538D01*
X017463Y006538D01*
X017559Y006499D01*
X017599Y006458D01*
X018558Y006458D01*
X019220Y007121D01*
X019284Y007185D01*
X019208Y007261D01*
X019140Y007424D01*
X019072Y007261D01*
X018929Y007118D01*
X018741Y007040D01*
X018539Y007040D01*
X018351Y007118D01*
X018208Y007261D01*
X018140Y007424D01*
X018072Y007261D01*
X017929Y007118D01*
X017741Y007040D01*
X017539Y007040D01*
X017351Y007118D01*
X017208Y007261D01*
X017140Y007424D01*
X017072Y007261D01*
X016929Y007118D01*
X016741Y007040D01*
X016539Y007040D01*
X016351Y007118D01*
X016208Y007261D01*
X016140Y007424D01*
X016072Y007261D01*
X015929Y007118D01*
X015741Y007040D01*
X015539Y007040D01*
X015351Y007118D01*
X015208Y007261D01*
X015140Y007424D01*
X015072Y007261D01*
X014929Y007118D01*
X014741Y007040D01*
X014539Y007040D01*
X014351Y007118D01*
X014208Y007261D01*
X014140Y007424D01*
X014072Y007261D01*
X013929Y007118D01*
X013741Y007040D01*
X013539Y007040D01*
X013351Y007118D01*
X013208Y007261D01*
X013140Y007424D01*
X013072Y007261D01*
X012929Y007118D01*
X012781Y007056D01*
X012715Y006990D01*
X012115Y006391D01*
X012158Y006391D01*
X012254Y006351D01*
X012327Y006278D01*
X012367Y006182D01*
X012367Y006079D01*
X012327Y005983D01*
X012254Y005910D01*
X012158Y005871D01*
X012055Y005871D01*
X011959Y005910D01*
X011918Y005952D01*
X010871Y005960D01*
X010603Y005692D01*
X010603Y005442D01*
X010644Y005402D01*
X010683Y005306D01*
X010683Y005203D01*
X010644Y005107D01*
X010571Y005034D01*
X010475Y004995D01*
X010372Y004995D01*
X010276Y005034D01*
X010203Y005107D01*
X010163Y005203D01*
X010163Y005306D01*
X010203Y005402D01*
X010243Y005442D01*
X010243Y005719D01*
X009619Y005094D01*
X009627Y005090D01*
X009677Y005041D01*
X009694Y005040D01*
X009934Y005040D01*
X009941Y005046D01*
X010007Y005040D01*
X010075Y005040D01*
X010081Y005034D01*
X010089Y005033D01*
X010133Y004982D01*
X010180Y004935D01*
X010180Y004926D01*
X010243Y004852D01*
X010290Y004805D01*
X010290Y004796D01*
X010296Y004789D01*
X012046Y004789D01*
X012124Y004868D02*
X010229Y004868D01*
X010169Y004946D02*
X012203Y004946D01*
X012230Y004974D02*
X011943Y004687D01*
X010670Y004687D01*
X010630Y004727D01*
X010534Y004767D01*
X010431Y004767D01*
X010335Y004727D01*
X010290Y004682D01*
X010290Y004723D01*
X010296Y004789D01*
X010290Y004711D02*
X010319Y004711D01*
X010110Y004730D02*
X010000Y004860D01*
X009490Y004860D01*
X009480Y004870D01*
X009690Y004860D01*
X009686Y004680D02*
X009756Y004677D01*
X009760Y004680D01*
X009917Y004680D01*
X009930Y004664D01*
X009930Y003726D01*
X009893Y003710D01*
X009820Y003637D01*
X009780Y003542D01*
X009780Y003438D01*
X009820Y003343D01*
X009893Y003270D01*
X009988Y003230D01*
X010092Y003230D01*
X010187Y003270D01*
X010260Y003343D01*
X010276Y003380D01*
X014672Y003380D01*
X014713Y003340D01*
X014808Y003300D01*
X014912Y003300D01*
X015007Y003340D01*
X015080Y003413D01*
X015120Y003508D01*
X015120Y003612D01*
X015080Y003707D01*
X015007Y003780D01*
X014912Y003820D01*
X014808Y003820D01*
X014713Y003780D01*
X014672Y003740D01*
X010290Y003740D01*
X010290Y003839D01*
X010335Y003794D01*
X010431Y003755D01*
X010534Y003755D01*
X010630Y003794D01*
X010670Y003835D01*
X012093Y003835D01*
X012977Y004719D01*
X013034Y004719D01*
X013130Y004759D01*
X013203Y004832D01*
X013243Y004927D01*
X013243Y005031D01*
X013203Y005126D01*
X013130Y005200D01*
X013034Y005239D01*
X012931Y005239D01*
X012835Y005200D01*
X012762Y005126D01*
X012736Y005064D01*
X012711Y005126D01*
X012638Y005200D01*
X012542Y005239D01*
X012439Y005239D01*
X012343Y005200D01*
X012270Y005126D01*
X012230Y005031D01*
X012230Y004974D01*
X012230Y005025D02*
X010547Y005025D01*
X010639Y005103D02*
X012260Y005103D01*
X012325Y005182D02*
X010675Y005182D01*
X010683Y005260D02*
X015332Y005260D01*
X015353Y005240D02*
X015280Y005313D01*
X015240Y005408D01*
X015240Y005512D01*
X015280Y005607D01*
X015353Y005680D01*
X015448Y005720D01*
X015552Y005720D01*
X015647Y005680D01*
X015720Y005607D01*
X015760Y005512D01*
X015760Y005455D01*
X016270Y004945D01*
X016270Y002748D01*
X017460Y002748D01*
X017460Y002670D02*
X016326Y002670D01*
X016310Y002707D02*
X016270Y002748D01*
X016310Y002707D02*
X016350Y002612D01*
X016350Y002508D01*
X016310Y002413D01*
X016237Y002340D01*
X016142Y002300D01*
X016038Y002300D01*
X015943Y002340D01*
X015870Y002413D01*
X015830Y002508D01*
X015830Y002612D01*
X015870Y002707D01*
X015910Y002748D01*
X009420Y002748D01*
X009420Y002675D02*
X009420Y003222D01*
X009460Y003263D01*
X009500Y003358D01*
X009500Y003462D01*
X009460Y003557D01*
X009387Y003630D01*
X009292Y003670D01*
X009188Y003670D01*
X009093Y003630D01*
X009020Y003557D01*
X008980Y003462D01*
X008980Y003358D01*
X009020Y003263D01*
X009060Y003222D01*
X009060Y002825D01*
X008485Y002250D01*
X007085Y002250D01*
X006850Y002015D01*
X006741Y002060D01*
X006539Y002060D01*
X006351Y001982D01*
X006208Y001839D01*
X006140Y001676D01*
X006072Y001839D01*
X005929Y001982D01*
X005741Y002060D01*
X005539Y002060D01*
X005351Y001982D01*
X005208Y001839D01*
X005140Y001676D01*
X005072Y001839D01*
X004929Y001982D01*
X004741Y002060D01*
X004539Y002060D01*
X004351Y001982D01*
X004208Y001839D01*
X004140Y001676D01*
X004072Y001839D01*
X003929Y001982D01*
X003820Y002027D01*
X003820Y002955D01*
X003020Y003755D01*
X003020Y003812D01*
X002980Y003907D01*
X002907Y003980D01*
X002812Y004020D01*
X002708Y004020D01*
X002613Y003980D01*
X002540Y003907D01*
X002500Y003812D01*
X002500Y003708D01*
X002540Y003613D01*
X002613Y003540D01*
X002708Y003500D01*
X002765Y003500D01*
X003460Y002805D01*
X003460Y002027D01*
X003351Y001982D01*
X003208Y001839D01*
X003140Y001676D01*
X003072Y001839D01*
X002929Y001982D01*
X002741Y002060D01*
X002539Y002060D01*
X002351Y001982D01*
X002208Y001839D01*
X002150Y001700D01*
X002150Y001978D01*
X002068Y002060D01*
X001212Y002060D01*
X001180Y002028D01*
X001180Y007072D01*
X001212Y007040D01*
X002068Y007040D01*
X002150Y007122D01*
X002150Y007400D01*
X002208Y007261D01*
X002351Y007118D01*
X002539Y007040D01*
X002741Y007040D01*
X002929Y007118D01*
X003072Y007261D01*
X003140Y007424D01*
X003208Y007261D01*
X003351Y007118D01*
X003539Y007040D01*
X003741Y007040D01*
X003929Y007118D01*
X004072Y007261D01*
X004140Y007424D01*
X004208Y007261D01*
X004351Y007118D01*
X004539Y007040D01*
X004741Y007040D01*
X004929Y007118D01*
X005072Y007261D01*
X005140Y007424D01*
X005208Y007261D01*
X005351Y007118D01*
X005539Y007040D01*
X005741Y007040D01*
X005929Y007118D01*
X006072Y007261D01*
X006140Y007424D01*
X006208Y007261D01*
X006351Y007118D01*
X006539Y007040D01*
X006741Y007040D01*
X006929Y007118D01*
X007072Y007261D01*
X007140Y007424D01*
X007208Y007261D01*
X007351Y007118D01*
X007539Y007040D01*
X007741Y007040D01*
X007929Y007118D01*
X008072Y007261D01*
X008140Y007424D01*
X008208Y007261D01*
X008351Y007118D01*
X008539Y007040D01*
X008741Y007040D01*
X008929Y007118D01*
X009072Y007261D01*
X009140Y007424D01*
X009208Y007261D01*
X009351Y007118D01*
X009539Y007040D01*
X009741Y007040D01*
X009929Y007118D01*
X010072Y007261D01*
X010140Y007424D01*
X010208Y007261D01*
X010351Y007118D01*
X010539Y007040D01*
X010741Y007040D01*
X010929Y007118D01*
X011072Y007261D01*
X011140Y007424D01*
X011208Y007261D01*
X011351Y007118D01*
X011539Y007040D01*
X011741Y007040D01*
X011929Y007118D01*
X012072Y007261D01*
X012140Y007424D01*
X012208Y007261D01*
X012342Y007127D01*
X011805Y006590D01*
X010605Y006590D01*
X010500Y006485D01*
X009315Y005300D01*
X009308Y005300D01*
X009267Y005340D01*
X009172Y005380D01*
X009068Y005380D01*
X008973Y005340D01*
X008900Y005267D01*
X008860Y005172D01*
X008860Y005068D01*
X008900Y004973D01*
X008973Y004900D01*
X009068Y004860D01*
X009172Y004860D01*
X009220Y004880D01*
X009220Y004818D01*
X009260Y004723D01*
X009333Y004650D01*
X009428Y004610D01*
X009532Y004610D01*
X009627Y004650D01*
X009658Y004680D01*
X009686Y004680D01*
X009585Y004632D02*
X009930Y004632D01*
X009930Y004554D02*
X001180Y004554D01*
X001180Y004632D02*
X009375Y004632D01*
X009272Y004711D02*
X001180Y004711D01*
X001180Y004789D02*
X009232Y004789D01*
X009220Y004868D02*
X009190Y004868D01*
X009050Y004868D02*
X001180Y004868D01*
X001180Y004946D02*
X008926Y004946D01*
X008878Y005025D02*
X001180Y005025D01*
X001180Y005103D02*
X008860Y005103D01*
X008864Y005182D02*
X001180Y005182D01*
X001180Y005260D02*
X008897Y005260D01*
X008971Y005339D02*
X001180Y005339D01*
X001180Y005417D02*
X009432Y005417D01*
X009354Y005339D02*
X009269Y005339D01*
X009511Y005496D02*
X001180Y005496D01*
X001180Y005574D02*
X009589Y005574D01*
X009668Y005653D02*
X001180Y005653D01*
X001180Y005731D02*
X009746Y005731D01*
X009825Y005810D02*
X001180Y005810D01*
X001180Y005888D02*
X009903Y005888D01*
X009982Y005967D02*
X001180Y005967D01*
X001180Y006045D02*
X010060Y006045D01*
X010139Y006124D02*
X001180Y006124D01*
X001180Y006202D02*
X010217Y006202D01*
X010296Y006281D02*
X001180Y006281D01*
X001180Y006359D02*
X010374Y006359D01*
X010453Y006438D02*
X001180Y006438D01*
X001180Y006516D02*
X010531Y006516D01*
X010680Y006410D02*
X011880Y006410D01*
X012640Y007170D01*
X012640Y007550D01*
X012159Y007380D02*
X012121Y007380D01*
X012089Y007301D02*
X012191Y007301D01*
X012246Y007223D02*
X012034Y007223D01*
X011955Y007144D02*
X012325Y007144D01*
X012281Y007066D02*
X011803Y007066D01*
X012202Y006987D02*
X001180Y006987D01*
X001180Y006909D02*
X012124Y006909D01*
X012045Y006830D02*
X001180Y006830D01*
X001180Y006752D02*
X011967Y006752D01*
X011888Y006673D02*
X001180Y006673D01*
X001180Y006595D02*
X011810Y006595D01*
X012162Y006438D02*
X017203Y006438D01*
X017164Y006359D02*
X012235Y006359D01*
X012324Y006281D02*
X017152Y006281D01*
X017162Y006202D02*
X012359Y006202D01*
X012367Y006124D02*
X017199Y006124D01*
X017296Y006045D02*
X012353Y006045D01*
X012310Y005967D02*
X021100Y005967D01*
X021100Y006045D02*
X017528Y006045D01*
X017412Y006278D02*
X018632Y006278D01*
X019400Y007046D01*
X020136Y007046D01*
X020640Y007550D01*
X021089Y007301D02*
X021100Y007301D01*
X021100Y007223D02*
X021034Y007223D01*
X021100Y007144D02*
X020955Y007144D01*
X021100Y007066D02*
X020803Y007066D01*
X021100Y006987D02*
X020332Y006987D01*
X020410Y007066D02*
X020477Y007066D01*
X020253Y006909D02*
X021100Y006909D01*
X021100Y006830D02*
X019438Y006830D01*
X019360Y006752D02*
X021100Y006752D01*
X021100Y006673D02*
X019597Y006673D01*
X019627Y006660D02*
X019532Y006700D01*
X019428Y006700D01*
X019333Y006660D01*
X019260Y006587D01*
X019220Y006492D01*
X019220Y006388D01*
X019260Y006293D01*
X019333Y006220D01*
X019428Y006180D01*
X019532Y006180D01*
X019627Y006220D01*
X019700Y006293D01*
X019740Y006388D01*
X019740Y006492D01*
X019700Y006587D01*
X019627Y006660D01*
X019693Y006595D02*
X021100Y006595D01*
X021100Y006516D02*
X019730Y006516D01*
X019740Y006438D02*
X021100Y006438D01*
X021100Y006359D02*
X019728Y006359D01*
X019688Y006281D02*
X021100Y006281D01*
X021100Y006202D02*
X019585Y006202D01*
X019375Y006202D02*
X018810Y006202D01*
X018732Y006124D02*
X021100Y006124D01*
X021100Y005888D02*
X012201Y005888D01*
X012013Y005888D02*
X010800Y005888D01*
X010721Y005810D02*
X021100Y005810D01*
X021100Y005731D02*
X019429Y005731D01*
X019423Y005733D02*
X019297Y005733D01*
X019180Y005685D01*
X019091Y005596D01*
X019043Y005479D01*
X019043Y005353D01*
X019091Y005236D01*
X019180Y005147D01*
X019297Y005099D01*
X019423Y005099D01*
X019540Y005147D01*
X019629Y005236D01*
X019677Y005353D01*
X019677Y005479D01*
X019629Y005596D01*
X019540Y005685D01*
X019423Y005733D01*
X019291Y005731D02*
X010643Y005731D01*
X010603Y005653D02*
X015325Y005653D01*
X015266Y005574D02*
X010603Y005574D01*
X010603Y005496D02*
X015240Y005496D01*
X015240Y005417D02*
X010629Y005417D01*
X010670Y005339D02*
X015269Y005339D01*
X015353Y005240D02*
X015448Y005200D01*
X015505Y005200D01*
X015910Y004795D01*
X015910Y002748D01*
X015910Y002827D02*
X009420Y002827D01*
X009420Y002905D02*
X015910Y002905D01*
X015910Y002984D02*
X009420Y002984D01*
X009420Y003062D02*
X015910Y003062D01*
X015910Y003141D02*
X009420Y003141D01*
X009420Y003219D02*
X015910Y003219D01*
X015910Y003298D02*
X010215Y003298D01*
X010274Y003376D02*
X014676Y003376D01*
X015044Y003376D02*
X015910Y003376D01*
X015910Y003455D02*
X015098Y003455D01*
X015120Y003533D02*
X015910Y003533D01*
X015910Y003612D02*
X015120Y003612D01*
X015088Y003690D02*
X015910Y003690D01*
X015910Y003769D02*
X015019Y003769D01*
X014701Y003769D02*
X010568Y003769D01*
X010397Y003769D02*
X010290Y003769D01*
X010110Y003560D02*
X010110Y004730D01*
X010646Y004711D02*
X011967Y004711D01*
X012018Y004507D02*
X012490Y004979D01*
X012721Y005103D02*
X012752Y005103D01*
X012817Y005182D02*
X012656Y005182D01*
X012983Y004979D02*
X012018Y004015D01*
X010483Y004015D01*
X009930Y004004D02*
X002850Y004004D01*
X002962Y003926D02*
X009930Y003926D01*
X009930Y003847D02*
X003005Y003847D01*
X003020Y003769D02*
X009930Y003769D01*
X009872Y003690D02*
X003085Y003690D01*
X003163Y003612D02*
X009074Y003612D01*
X009010Y003533D02*
X003242Y003533D01*
X003320Y003455D02*
X008980Y003455D01*
X008980Y003376D02*
X003399Y003376D01*
X003477Y003298D02*
X009005Y003298D01*
X009060Y003219D02*
X003556Y003219D01*
X003634Y003141D02*
X009060Y003141D01*
X009060Y003062D02*
X003713Y003062D01*
X003791Y002984D02*
X009060Y002984D01*
X009060Y002905D02*
X003820Y002905D01*
X003820Y002827D02*
X009060Y002827D01*
X008983Y002748D02*
X003820Y002748D01*
X003820Y002670D02*
X008905Y002670D01*
X008826Y002591D02*
X003820Y002591D01*
X003820Y002513D02*
X008748Y002513D01*
X008669Y002434D02*
X003820Y002434D01*
X003820Y002356D02*
X008591Y002356D01*
X008512Y002277D02*
X003820Y002277D01*
X003820Y002199D02*
X007034Y002199D01*
X006955Y002120D02*
X003820Y002120D01*
X003820Y002042D02*
X004494Y002042D01*
X004332Y001963D02*
X003948Y001963D01*
X004027Y001885D02*
X004253Y001885D01*
X004194Y001806D02*
X004086Y001806D01*
X004118Y001728D02*
X004162Y001728D01*
X003640Y001550D02*
X003640Y002880D01*
X002760Y003760D01*
X002500Y003769D02*
X001180Y003769D01*
X001180Y003847D02*
X002515Y003847D01*
X002558Y003926D02*
X001180Y003926D01*
X001180Y004004D02*
X002670Y004004D01*
X002508Y003690D02*
X001180Y003690D01*
X001180Y003612D02*
X002541Y003612D01*
X002629Y003533D02*
X001180Y003533D01*
X001180Y003455D02*
X002811Y003455D01*
X002889Y003376D02*
X001180Y003376D01*
X001180Y003298D02*
X002968Y003298D01*
X003046Y003219D02*
X001180Y003219D01*
X001180Y003141D02*
X003125Y003141D01*
X003203Y003062D02*
X001180Y003062D01*
X001180Y002984D02*
X003282Y002984D01*
X003360Y002905D02*
X001180Y002905D01*
X001180Y002827D02*
X003439Y002827D01*
X003460Y002748D02*
X001180Y002748D01*
X001180Y002670D02*
X003460Y002670D01*
X003460Y002591D02*
X001180Y002591D01*
X001180Y002513D02*
X003460Y002513D01*
X003460Y002434D02*
X001180Y002434D01*
X001180Y002356D02*
X003460Y002356D01*
X003460Y002277D02*
X001180Y002277D01*
X001180Y002199D02*
X003460Y002199D01*
X003460Y002120D02*
X001180Y002120D01*
X001180Y002042D02*
X001194Y002042D01*
X002086Y002042D02*
X002494Y002042D01*
X002332Y001963D02*
X002150Y001963D01*
X002150Y001885D02*
X002253Y001885D01*
X002194Y001806D02*
X002150Y001806D01*
X002150Y001728D02*
X002162Y001728D01*
X002786Y002042D02*
X003460Y002042D01*
X003332Y001963D02*
X002948Y001963D01*
X003027Y001885D02*
X003253Y001885D01*
X003194Y001806D02*
X003086Y001806D01*
X003118Y001728D02*
X003162Y001728D01*
X003140Y001424D02*
X003208Y001261D01*
X003351Y001118D01*
X003539Y001040D01*
X003741Y001040D01*
X003929Y001118D01*
X004072Y001261D01*
X004140Y001424D01*
X004208Y001261D01*
X004351Y001118D01*
X004539Y001040D01*
X004741Y001040D01*
X004929Y001118D01*
X005072Y001261D01*
X005140Y001424D01*
X005208Y001261D01*
X005351Y001118D01*
X005539Y001040D01*
X005741Y001040D01*
X005929Y001118D01*
X006072Y001261D01*
X006140Y001424D01*
X006208Y001261D01*
X006351Y001118D01*
X006539Y001040D01*
X006741Y001040D01*
X006929Y001118D01*
X007072Y001261D01*
X007140Y001424D01*
X007208Y001261D01*
X007351Y001118D01*
X007539Y001040D01*
X007741Y001040D01*
X007929Y001118D01*
X008072Y001261D01*
X008140Y001424D01*
X008208Y001261D01*
X008351Y001118D01*
X008539Y001040D01*
X008741Y001040D01*
X008929Y001118D01*
X009072Y001261D01*
X009140Y001424D01*
X009208Y001261D01*
X009351Y001118D01*
X009539Y001040D01*
X009741Y001040D01*
X009929Y001118D01*
X010072Y001261D01*
X010140Y001424D01*
X010208Y001261D01*
X010351Y001118D01*
X010539Y001040D01*
X010741Y001040D01*
X010929Y001118D01*
X011072Y001261D01*
X011140Y001424D01*
X011208Y001261D01*
X011351Y001118D01*
X011539Y001040D01*
X011741Y001040D01*
X011929Y001118D01*
X012072Y001261D01*
X012140Y001424D01*
X012208Y001261D01*
X012351Y001118D01*
X012539Y001040D01*
X012741Y001040D01*
X012929Y001118D01*
X013072Y001261D01*
X013140Y001424D01*
X013208Y001261D01*
X013351Y001118D01*
X013539Y001040D01*
X013741Y001040D01*
X013929Y001118D01*
X014072Y001261D01*
X014140Y001424D01*
X014208Y001261D01*
X014351Y001118D01*
X014539Y001040D01*
X014741Y001040D01*
X014929Y001118D01*
X015072Y001261D01*
X015140Y001424D01*
X015208Y001261D01*
X015351Y001118D01*
X015539Y001040D01*
X015741Y001040D01*
X015929Y001118D01*
X016072Y001261D01*
X016143Y001431D01*
X016143Y001431D01*
X016167Y001354D01*
X016204Y001283D01*
X016251Y001218D01*
X016308Y001161D01*
X016373Y001114D01*
X016444Y001077D01*
X016521Y001053D01*
X016600Y001040D01*
X016600Y001510D01*
X016680Y001510D01*
X016680Y001040D01*
X016680Y001040D01*
X016759Y001053D01*
X016836Y001077D01*
X016907Y001114D01*
X016972Y001161D01*
X017029Y001218D01*
X017076Y001283D01*
X017113Y001354D01*
X017137Y001431D01*
X017208Y001261D01*
X017351Y001118D01*
X017539Y001040D01*
X017741Y001040D01*
X017929Y001118D01*
X018072Y001261D01*
X018140Y001424D01*
X018208Y001261D01*
X018351Y001118D01*
X018539Y001040D01*
X018741Y001040D01*
X018929Y001118D01*
X019072Y001261D01*
X019117Y001370D01*
X020505Y001370D01*
X020575Y001440D01*
X020612Y001440D01*
X020707Y001480D01*
X020780Y001553D01*
X020820Y001648D01*
X020820Y001752D01*
X020780Y001847D01*
X020707Y001920D01*
X020612Y001960D01*
X020508Y001960D01*
X020413Y001920D01*
X020340Y001847D01*
X020300Y001752D01*
X020300Y001730D01*
X019117Y001730D01*
X019072Y001839D01*
X018929Y001982D01*
X018741Y002060D01*
X018539Y002060D01*
X018351Y001982D01*
X018208Y001839D01*
X018140Y001676D01*
X018072Y001839D01*
X017929Y001982D01*
X017820Y002027D01*
X017820Y003385D01*
X017340Y003865D01*
X017340Y003922D01*
X017300Y004017D01*
X017227Y004090D01*
X017132Y004130D01*
X017028Y004130D01*
X016933Y004090D01*
X016860Y004017D01*
X016820Y003922D01*
X016820Y003818D01*
X016860Y003723D01*
X016933Y003650D01*
X017028Y003610D01*
X017085Y003610D01*
X017460Y003235D01*
X017460Y002027D01*
X017351Y001982D01*
X017208Y001839D01*
X017137Y001669D01*
X017137Y001669D01*
X017113Y001746D01*
X017076Y001817D01*
X017029Y001882D01*
X016972Y001939D01*
X016907Y001986D01*
X016836Y002023D01*
X016759Y002047D01*
X016680Y002060D01*
X016680Y001590D01*
X016600Y001590D01*
X016600Y002060D01*
X016600Y002060D01*
X016521Y002047D01*
X016444Y002023D01*
X016373Y001986D01*
X016308Y001939D01*
X016251Y001882D01*
X016204Y001817D01*
X016167Y001746D01*
X016143Y001669D01*
X016072Y001839D01*
X015929Y001982D01*
X015741Y002060D01*
X015539Y002060D01*
X015351Y001982D01*
X015208Y001839D01*
X015140Y001676D01*
X015072Y001839D01*
X014929Y001982D01*
X014741Y002060D01*
X014539Y002060D01*
X014351Y001982D01*
X014208Y001839D01*
X014140Y001676D01*
X014072Y001839D01*
X013929Y001982D01*
X013741Y002060D01*
X013539Y002060D01*
X013351Y001982D01*
X013208Y001839D01*
X013140Y001676D01*
X013072Y001839D01*
X012929Y001982D01*
X012741Y002060D01*
X012539Y002060D01*
X012351Y001982D01*
X012208Y001839D01*
X012140Y001676D01*
X012072Y001839D01*
X011929Y001982D01*
X011741Y002060D01*
X011539Y002060D01*
X011351Y001982D01*
X011208Y001839D01*
X011140Y001676D01*
X011072Y001839D01*
X010929Y001982D01*
X010741Y002060D01*
X010539Y002060D01*
X010351Y001982D01*
X010208Y001839D01*
X010140Y001676D01*
X010072Y001839D01*
X009929Y001982D01*
X009741Y002060D01*
X009539Y002060D01*
X009351Y001982D01*
X009208Y001839D01*
X009140Y001676D01*
X009072Y001839D01*
X008929Y001982D01*
X008786Y002042D01*
X009420Y002675D01*
X009414Y002670D02*
X015854Y002670D01*
X015830Y002591D02*
X009336Y002591D01*
X009257Y002513D02*
X015830Y002513D01*
X015861Y002434D02*
X009179Y002434D01*
X009100Y002356D02*
X015927Y002356D01*
X016090Y002560D02*
X016090Y004870D01*
X015500Y005460D01*
X015734Y005574D02*
X019082Y005574D01*
X019050Y005496D02*
X015760Y005496D01*
X015798Y005417D02*
X019043Y005417D01*
X019049Y005339D02*
X015876Y005339D01*
X015955Y005260D02*
X019081Y005260D01*
X019146Y005182D02*
X016033Y005182D01*
X016112Y005103D02*
X019287Y005103D01*
X019433Y005103D02*
X021100Y005103D01*
X021100Y005025D02*
X016190Y005025D01*
X016269Y004946D02*
X021100Y004946D01*
X021100Y004868D02*
X016270Y004868D01*
X016270Y004789D02*
X021100Y004789D01*
X021100Y004711D02*
X016270Y004711D01*
X016270Y004632D02*
X021100Y004632D01*
X021100Y004554D02*
X016270Y004554D01*
X016270Y004475D02*
X021100Y004475D01*
X021100Y004397D02*
X016270Y004397D01*
X016270Y004318D02*
X021100Y004318D01*
X021100Y004240D02*
X016270Y004240D01*
X016270Y004161D02*
X021100Y004161D01*
X021100Y004083D02*
X017235Y004083D01*
X017306Y004004D02*
X021100Y004004D01*
X021100Y003926D02*
X019567Y003926D01*
X019540Y003953D02*
X019423Y004001D01*
X019297Y004001D01*
X019180Y003953D01*
X019091Y003864D01*
X019043Y003747D01*
X019043Y003621D01*
X019091Y003504D01*
X019180Y003415D01*
X019297Y003367D01*
X019423Y003367D01*
X019540Y003415D01*
X019629Y003504D01*
X019677Y003621D01*
X019677Y003747D01*
X019629Y003864D01*
X019540Y003953D01*
X019636Y003847D02*
X021100Y003847D01*
X021100Y003769D02*
X019668Y003769D01*
X019677Y003690D02*
X021100Y003690D01*
X021100Y003612D02*
X019673Y003612D01*
X019641Y003533D02*
X021100Y003533D01*
X021100Y003455D02*
X019579Y003455D01*
X019446Y003376D02*
X021100Y003376D01*
X021100Y003298D02*
X017820Y003298D01*
X017820Y003376D02*
X019274Y003376D01*
X019141Y003455D02*
X017750Y003455D01*
X017672Y003533D02*
X019079Y003533D01*
X019047Y003612D02*
X017593Y003612D01*
X017515Y003690D02*
X019043Y003690D01*
X019052Y003769D02*
X017436Y003769D01*
X017358Y003847D02*
X019084Y003847D01*
X019153Y003926D02*
X017338Y003926D01*
X017080Y003870D02*
X017640Y003310D01*
X017640Y001550D01*
X017162Y001728D02*
X017119Y001728D01*
X017082Y001806D02*
X017194Y001806D01*
X017253Y001885D02*
X017027Y001885D01*
X016939Y001963D02*
X017332Y001963D01*
X017460Y002042D02*
X016778Y002042D01*
X016680Y002042D02*
X016600Y002042D01*
X016600Y001963D02*
X016680Y001963D01*
X016680Y001885D02*
X016600Y001885D01*
X016600Y001806D02*
X016680Y001806D01*
X016680Y001728D02*
X016600Y001728D01*
X016600Y001649D02*
X016680Y001649D01*
X016680Y001492D02*
X016600Y001492D01*
X016600Y001414D02*
X016680Y001414D01*
X016680Y001335D02*
X016600Y001335D01*
X016600Y001257D02*
X016680Y001257D01*
X016680Y001178D02*
X016600Y001178D01*
X016600Y001100D02*
X016680Y001100D01*
X016600Y001040D02*
X016600Y001040D01*
X016401Y001100D02*
X015885Y001100D01*
X015989Y001178D02*
X016291Y001178D01*
X016223Y001257D02*
X016068Y001257D01*
X016103Y001335D02*
X016177Y001335D01*
X016148Y001414D02*
X016135Y001414D01*
X016143Y001669D02*
X016143Y001669D01*
X016161Y001728D02*
X016118Y001728D01*
X016086Y001806D02*
X016198Y001806D01*
X016253Y001885D02*
X016027Y001885D01*
X015948Y001963D02*
X016341Y001963D01*
X016502Y002042D02*
X015786Y002042D01*
X015494Y002042D02*
X014786Y002042D01*
X014948Y001963D02*
X015332Y001963D01*
X015253Y001885D02*
X015027Y001885D01*
X015086Y001806D02*
X015194Y001806D01*
X015162Y001728D02*
X015118Y001728D01*
X014494Y002042D02*
X013786Y002042D01*
X013948Y001963D02*
X014332Y001963D01*
X014253Y001885D02*
X014027Y001885D01*
X014086Y001806D02*
X014194Y001806D01*
X014162Y001728D02*
X014118Y001728D01*
X013494Y002042D02*
X012786Y002042D01*
X012948Y001963D02*
X013332Y001963D01*
X013253Y001885D02*
X013027Y001885D01*
X013086Y001806D02*
X013194Y001806D01*
X013162Y001728D02*
X013118Y001728D01*
X012494Y002042D02*
X011786Y002042D01*
X011948Y001963D02*
X012332Y001963D01*
X012253Y001885D02*
X012027Y001885D01*
X012086Y001806D02*
X012194Y001806D01*
X012162Y001728D02*
X012118Y001728D01*
X011494Y002042D02*
X010786Y002042D01*
X010948Y001963D02*
X011332Y001963D01*
X011253Y001885D02*
X011027Y001885D01*
X011086Y001806D02*
X011194Y001806D01*
X011162Y001728D02*
X011118Y001728D01*
X010494Y002042D02*
X009786Y002042D01*
X009948Y001963D02*
X010332Y001963D01*
X010253Y001885D02*
X010027Y001885D01*
X010086Y001806D02*
X010194Y001806D01*
X010162Y001728D02*
X010118Y001728D01*
X009494Y002042D02*
X008786Y002042D01*
X008865Y002120D02*
X017460Y002120D01*
X017460Y002199D02*
X008943Y002199D01*
X009022Y002277D02*
X017460Y002277D01*
X017460Y002356D02*
X016253Y002356D01*
X016319Y002434D02*
X017460Y002434D01*
X017460Y002513D02*
X016350Y002513D01*
X016350Y002591D02*
X017460Y002591D01*
X017820Y002591D02*
X021100Y002591D01*
X021100Y002513D02*
X017820Y002513D01*
X017820Y002434D02*
X021100Y002434D01*
X021100Y002356D02*
X017820Y002356D01*
X017820Y002277D02*
X021100Y002277D01*
X021100Y002199D02*
X017820Y002199D01*
X017820Y002120D02*
X021100Y002120D01*
X021100Y002042D02*
X018786Y002042D01*
X018948Y001963D02*
X021100Y001963D01*
X021100Y001885D02*
X020743Y001885D01*
X020798Y001806D02*
X021100Y001806D01*
X021100Y001728D02*
X020820Y001728D01*
X020820Y001649D02*
X021100Y001649D01*
X021100Y001571D02*
X020788Y001571D01*
X020720Y001492D02*
X021100Y001492D01*
X021100Y001414D02*
X020548Y001414D01*
X020430Y001550D02*
X020560Y001680D01*
X020560Y001700D01*
X020430Y001550D02*
X018640Y001550D01*
X018162Y001728D02*
X018118Y001728D01*
X018086Y001806D02*
X018194Y001806D01*
X018253Y001885D02*
X018027Y001885D01*
X017948Y001963D02*
X018332Y001963D01*
X018494Y002042D02*
X017820Y002042D01*
X016680Y002060D02*
X016680Y002060D01*
X017137Y001431D02*
X017137Y001431D01*
X017132Y001414D02*
X017145Y001414D01*
X017177Y001335D02*
X017103Y001335D01*
X017057Y001257D02*
X017212Y001257D01*
X017291Y001178D02*
X016989Y001178D01*
X016879Y001100D02*
X017395Y001100D01*
X017885Y001100D02*
X018395Y001100D01*
X018291Y001178D02*
X017989Y001178D01*
X018068Y001257D02*
X018212Y001257D01*
X018177Y001335D02*
X018103Y001335D01*
X018135Y001414D02*
X018145Y001414D01*
X018885Y001100D02*
X021100Y001100D01*
X021100Y001178D02*
X018989Y001178D01*
X019068Y001257D02*
X021100Y001257D01*
X021100Y001335D02*
X019103Y001335D01*
X019086Y001806D02*
X020322Y001806D01*
X020377Y001885D02*
X019027Y001885D01*
X017820Y002670D02*
X021100Y002670D01*
X021100Y002748D02*
X017820Y002748D01*
X017820Y002827D02*
X021100Y002827D01*
X021100Y002905D02*
X017820Y002905D01*
X017820Y002984D02*
X021100Y002984D01*
X021100Y003062D02*
X017820Y003062D01*
X017820Y003141D02*
X021100Y003141D01*
X021100Y003219D02*
X017820Y003219D01*
X017460Y003219D02*
X016270Y003219D01*
X016270Y003141D02*
X017460Y003141D01*
X017460Y003062D02*
X016270Y003062D01*
X016270Y002984D02*
X017460Y002984D01*
X017460Y002905D02*
X016270Y002905D01*
X016270Y002827D02*
X017460Y002827D01*
X017398Y003298D02*
X016270Y003298D01*
X016270Y003376D02*
X017319Y003376D01*
X017241Y003455D02*
X016270Y003455D01*
X016270Y003533D02*
X017162Y003533D01*
X017025Y003612D02*
X016270Y003612D01*
X016270Y003690D02*
X016892Y003690D01*
X016841Y003769D02*
X016270Y003769D01*
X016270Y003847D02*
X016820Y003847D01*
X016822Y003926D02*
X016270Y003926D01*
X016270Y004004D02*
X016854Y004004D01*
X016925Y004083D02*
X016270Y004083D01*
X015910Y004083D02*
X012340Y004083D01*
X012419Y004161D02*
X015910Y004161D01*
X015910Y004240D02*
X012497Y004240D01*
X012576Y004318D02*
X015910Y004318D01*
X015910Y004397D02*
X012654Y004397D01*
X012733Y004475D02*
X015910Y004475D01*
X015910Y004554D02*
X012811Y004554D01*
X012890Y004632D02*
X015910Y004632D01*
X015910Y004711D02*
X012968Y004711D01*
X013160Y004789D02*
X015910Y004789D01*
X015838Y004868D02*
X013218Y004868D01*
X013243Y004946D02*
X015759Y004946D01*
X015681Y005025D02*
X013243Y005025D01*
X013213Y005103D02*
X015602Y005103D01*
X015524Y005182D02*
X013148Y005182D01*
X012018Y004507D02*
X010483Y004507D01*
X009930Y004475D02*
X001180Y004475D01*
X001180Y004397D02*
X009930Y004397D01*
X009930Y004318D02*
X001180Y004318D01*
X001180Y004240D02*
X009930Y004240D01*
X009930Y004161D02*
X001180Y004161D01*
X001180Y004083D02*
X009930Y004083D01*
X009809Y003612D02*
X009406Y003612D01*
X009470Y003533D02*
X009780Y003533D01*
X009780Y003455D02*
X009500Y003455D01*
X009500Y003376D02*
X009806Y003376D01*
X009865Y003298D02*
X009475Y003298D01*
X009240Y003410D02*
X009240Y002750D01*
X008560Y002070D01*
X007160Y002070D01*
X006640Y001550D01*
X006162Y001728D02*
X006118Y001728D01*
X006086Y001806D02*
X006194Y001806D01*
X006253Y001885D02*
X006027Y001885D01*
X005948Y001963D02*
X006332Y001963D01*
X006494Y002042D02*
X005786Y002042D01*
X005494Y002042D02*
X004786Y002042D01*
X004948Y001963D02*
X005332Y001963D01*
X005253Y001885D02*
X005027Y001885D01*
X005086Y001806D02*
X005194Y001806D01*
X005162Y001728D02*
X005118Y001728D01*
X005135Y001414D02*
X005145Y001414D01*
X005177Y001335D02*
X005103Y001335D01*
X005068Y001257D02*
X005212Y001257D01*
X005291Y001178D02*
X004989Y001178D01*
X004885Y001100D02*
X005395Y001100D01*
X005885Y001100D02*
X006395Y001100D01*
X006291Y001178D02*
X005989Y001178D01*
X006068Y001257D02*
X006212Y001257D01*
X006177Y001335D02*
X006103Y001335D01*
X006135Y001414D02*
X006145Y001414D01*
X006885Y001100D02*
X007395Y001100D01*
X007291Y001178D02*
X006989Y001178D01*
X007068Y001257D02*
X007212Y001257D01*
X007177Y001335D02*
X007103Y001335D01*
X007135Y001414D02*
X007145Y001414D01*
X007885Y001100D02*
X008395Y001100D01*
X008291Y001178D02*
X007989Y001178D01*
X008068Y001257D02*
X008212Y001257D01*
X008177Y001335D02*
X008103Y001335D01*
X008135Y001414D02*
X008145Y001414D01*
X008885Y001100D02*
X009395Y001100D01*
X009291Y001178D02*
X008989Y001178D01*
X009068Y001257D02*
X009212Y001257D01*
X009177Y001335D02*
X009103Y001335D01*
X009135Y001414D02*
X009145Y001414D01*
X009162Y001728D02*
X009118Y001728D01*
X009086Y001806D02*
X009194Y001806D01*
X009253Y001885D02*
X009027Y001885D01*
X008948Y001963D02*
X009332Y001963D01*
X010135Y001414D02*
X010145Y001414D01*
X010177Y001335D02*
X010103Y001335D01*
X010068Y001257D02*
X010212Y001257D01*
X010291Y001178D02*
X009989Y001178D01*
X009885Y001100D02*
X010395Y001100D01*
X010885Y001100D02*
X011395Y001100D01*
X011291Y001178D02*
X010989Y001178D01*
X011068Y001257D02*
X011212Y001257D01*
X011177Y001335D02*
X011103Y001335D01*
X011135Y001414D02*
X011145Y001414D01*
X011885Y001100D02*
X012395Y001100D01*
X012291Y001178D02*
X011989Y001178D01*
X012068Y001257D02*
X012212Y001257D01*
X012177Y001335D02*
X012103Y001335D01*
X012135Y001414D02*
X012145Y001414D01*
X012885Y001100D02*
X013395Y001100D01*
X013291Y001178D02*
X012989Y001178D01*
X013068Y001257D02*
X013212Y001257D01*
X013177Y001335D02*
X013103Y001335D01*
X013135Y001414D02*
X013145Y001414D01*
X013885Y001100D02*
X014395Y001100D01*
X014291Y001178D02*
X013989Y001178D01*
X014068Y001257D02*
X014212Y001257D01*
X014177Y001335D02*
X014103Y001335D01*
X014135Y001414D02*
X014145Y001414D01*
X014885Y001100D02*
X015395Y001100D01*
X015291Y001178D02*
X014989Y001178D01*
X015068Y001257D02*
X015212Y001257D01*
X015177Y001335D02*
X015103Y001335D01*
X015135Y001414D02*
X015145Y001414D01*
X010110Y003560D02*
X010040Y003490D01*
X010110Y003560D02*
X014860Y003560D01*
X015910Y003847D02*
X012105Y003847D01*
X012183Y003926D02*
X015910Y003926D01*
X015910Y004004D02*
X012262Y004004D01*
X010300Y005025D02*
X010097Y005025D01*
X010207Y005103D02*
X009628Y005103D01*
X009706Y005182D02*
X010172Y005182D01*
X010163Y005260D02*
X009785Y005260D01*
X009863Y005339D02*
X010177Y005339D01*
X010218Y005417D02*
X009942Y005417D01*
X010020Y005496D02*
X010243Y005496D01*
X010243Y005574D02*
X010099Y005574D01*
X010177Y005653D02*
X010243Y005653D01*
X010423Y005767D02*
X010797Y006141D01*
X012107Y006131D01*
X012241Y006516D02*
X017306Y006516D01*
X017517Y006516D02*
X018615Y006516D01*
X018694Y006595D02*
X012319Y006595D01*
X012398Y006673D02*
X018772Y006673D01*
X018851Y006752D02*
X012476Y006752D01*
X012555Y006830D02*
X018929Y006830D01*
X019008Y006909D02*
X012633Y006909D01*
X012712Y006987D02*
X019086Y006987D01*
X019165Y007066D02*
X018803Y007066D01*
X018955Y007144D02*
X019243Y007144D01*
X019246Y007223D02*
X019034Y007223D01*
X019089Y007301D02*
X019191Y007301D01*
X019159Y007380D02*
X019121Y007380D01*
X018477Y007066D02*
X017803Y007066D01*
X017955Y007144D02*
X018325Y007144D01*
X018246Y007223D02*
X018034Y007223D01*
X018089Y007301D02*
X018191Y007301D01*
X018159Y007380D02*
X018121Y007380D01*
X017477Y007066D02*
X016803Y007066D01*
X016955Y007144D02*
X017325Y007144D01*
X017246Y007223D02*
X017034Y007223D01*
X017089Y007301D02*
X017191Y007301D01*
X017159Y007380D02*
X017121Y007380D01*
X016477Y007066D02*
X015803Y007066D01*
X015955Y007144D02*
X016325Y007144D01*
X016246Y007223D02*
X016034Y007223D01*
X016089Y007301D02*
X016191Y007301D01*
X016159Y007380D02*
X016121Y007380D01*
X015477Y007066D02*
X014803Y007066D01*
X014955Y007144D02*
X015325Y007144D01*
X015246Y007223D02*
X015034Y007223D01*
X015089Y007301D02*
X015191Y007301D01*
X015159Y007380D02*
X015121Y007380D01*
X014477Y007066D02*
X013803Y007066D01*
X013955Y007144D02*
X014325Y007144D01*
X014246Y007223D02*
X014034Y007223D01*
X014089Y007301D02*
X014191Y007301D01*
X014159Y007380D02*
X014121Y007380D01*
X013477Y007066D02*
X012803Y007066D01*
X012955Y007144D02*
X013325Y007144D01*
X013246Y007223D02*
X013034Y007223D01*
X013089Y007301D02*
X013191Y007301D01*
X013159Y007380D02*
X013121Y007380D01*
X011477Y007066D02*
X010803Y007066D01*
X010955Y007144D02*
X011325Y007144D01*
X011246Y007223D02*
X011034Y007223D01*
X011089Y007301D02*
X011191Y007301D01*
X011159Y007380D02*
X011121Y007380D01*
X010477Y007066D02*
X009803Y007066D01*
X009955Y007144D02*
X010325Y007144D01*
X010246Y007223D02*
X010034Y007223D01*
X010089Y007301D02*
X010191Y007301D01*
X010159Y007380D02*
X010121Y007380D01*
X009477Y007066D02*
X008803Y007066D01*
X008955Y007144D02*
X009325Y007144D01*
X009246Y007223D02*
X009034Y007223D01*
X009089Y007301D02*
X009191Y007301D01*
X009159Y007380D02*
X009121Y007380D01*
X008477Y007066D02*
X007803Y007066D01*
X007955Y007144D02*
X008325Y007144D01*
X008246Y007223D02*
X008034Y007223D01*
X008089Y007301D02*
X008191Y007301D01*
X008159Y007380D02*
X008121Y007380D01*
X007477Y007066D02*
X006803Y007066D01*
X006955Y007144D02*
X007325Y007144D01*
X007246Y007223D02*
X007034Y007223D01*
X007089Y007301D02*
X007191Y007301D01*
X007159Y007380D02*
X007121Y007380D01*
X006477Y007066D02*
X005803Y007066D01*
X005955Y007144D02*
X006325Y007144D01*
X006246Y007223D02*
X006034Y007223D01*
X006089Y007301D02*
X006191Y007301D01*
X006159Y007380D02*
X006121Y007380D01*
X005477Y007066D02*
X004803Y007066D01*
X004955Y007144D02*
X005325Y007144D01*
X005246Y007223D02*
X005034Y007223D01*
X005089Y007301D02*
X005191Y007301D01*
X005159Y007380D02*
X005121Y007380D01*
X004477Y007066D02*
X003803Y007066D01*
X003955Y007144D02*
X004325Y007144D01*
X004246Y007223D02*
X004034Y007223D01*
X004089Y007301D02*
X004191Y007301D01*
X004159Y007380D02*
X004121Y007380D01*
X003477Y007066D02*
X002803Y007066D01*
X002955Y007144D02*
X003325Y007144D01*
X003246Y007223D02*
X003034Y007223D01*
X003089Y007301D02*
X003191Y007301D01*
X003159Y007380D02*
X003121Y007380D01*
X002477Y007066D02*
X002094Y007066D01*
X002150Y007144D02*
X002325Y007144D01*
X002246Y007223D02*
X002150Y007223D01*
X002150Y007301D02*
X002191Y007301D01*
X002159Y007380D02*
X002150Y007380D01*
X001186Y007066D02*
X001180Y007066D01*
X008800Y004820D02*
X008820Y004820D01*
X009120Y005120D02*
X009390Y005120D01*
X010680Y006410D01*
X010423Y005767D02*
X010423Y005255D01*
X015675Y005653D02*
X019148Y005653D01*
X019572Y005653D02*
X021100Y005653D01*
X021100Y005574D02*
X019638Y005574D01*
X019670Y005496D02*
X021100Y005496D01*
X021100Y005417D02*
X019677Y005417D01*
X019671Y005339D02*
X021100Y005339D01*
X021100Y005260D02*
X019639Y005260D01*
X019574Y005182D02*
X021100Y005182D01*
X019272Y006281D02*
X018889Y006281D01*
X018967Y006359D02*
X019232Y006359D01*
X019220Y006438D02*
X019046Y006438D01*
X019124Y006516D02*
X019230Y006516D01*
X019203Y006595D02*
X019267Y006595D01*
X019281Y006673D02*
X019363Y006673D01*
X006877Y002042D02*
X006786Y002042D01*
X004395Y001100D02*
X003885Y001100D01*
X003989Y001178D02*
X004291Y001178D01*
X004212Y001257D02*
X004068Y001257D01*
X004103Y001335D02*
X004177Y001335D01*
X004145Y001414D02*
X004135Y001414D01*
X003395Y001100D02*
X002885Y001100D01*
X002929Y001118D02*
X003072Y001261D01*
X003140Y001424D01*
X003135Y001414D02*
X003145Y001414D01*
X003177Y001335D02*
X003103Y001335D01*
X003068Y001257D02*
X003212Y001257D01*
X003291Y001178D02*
X002989Y001178D01*
X002929Y001118D02*
X002741Y001040D01*
X002539Y001040D01*
X002351Y001118D01*
X002208Y001261D01*
X002150Y001400D01*
X002150Y001122D01*
X002068Y001040D01*
X001212Y001040D01*
X001180Y001072D01*
X001180Y001021D02*
X021100Y001021D01*
X002395Y001100D02*
X002127Y001100D01*
X002150Y001178D02*
X002291Y001178D01*
X002212Y001257D02*
X002150Y001257D01*
X002150Y001335D02*
X002177Y001335D01*
M02*
