G75*
G70*
%OFA0B0*%
%FSLAX24Y24*%
%IPPOS*%
%LPD*%
%AMOC8*
5,1,8,0,0,1.08239X$1,22.5*
%
%ADD10C,0.0000*%
D10*
X003420Y000850D02*
X003420Y008250D01*
X023820Y008250D01*
X023820Y000850D01*
X003420Y000850D01*
X021663Y003684D02*
X021665Y003710D01*
X021671Y003736D01*
X021681Y003761D01*
X021694Y003784D01*
X021710Y003804D01*
X021730Y003822D01*
X021752Y003837D01*
X021775Y003849D01*
X021801Y003857D01*
X021827Y003861D01*
X021853Y003861D01*
X021879Y003857D01*
X021905Y003849D01*
X021929Y003837D01*
X021950Y003822D01*
X021970Y003804D01*
X021986Y003784D01*
X021999Y003761D01*
X022009Y003736D01*
X022015Y003710D01*
X022017Y003684D01*
X022015Y003658D01*
X022009Y003632D01*
X021999Y003607D01*
X021986Y003584D01*
X021970Y003564D01*
X021950Y003546D01*
X021928Y003531D01*
X021905Y003519D01*
X021879Y003511D01*
X021853Y003507D01*
X021827Y003507D01*
X021801Y003511D01*
X021775Y003519D01*
X021751Y003531D01*
X021730Y003546D01*
X021710Y003564D01*
X021694Y003584D01*
X021681Y003607D01*
X021671Y003632D01*
X021665Y003658D01*
X021663Y003684D01*
X021663Y005416D02*
X021665Y005442D01*
X021671Y005468D01*
X021681Y005493D01*
X021694Y005516D01*
X021710Y005536D01*
X021730Y005554D01*
X021752Y005569D01*
X021775Y005581D01*
X021801Y005589D01*
X021827Y005593D01*
X021853Y005593D01*
X021879Y005589D01*
X021905Y005581D01*
X021929Y005569D01*
X021950Y005554D01*
X021970Y005536D01*
X021986Y005516D01*
X021999Y005493D01*
X022009Y005468D01*
X022015Y005442D01*
X022017Y005416D01*
X022015Y005390D01*
X022009Y005364D01*
X021999Y005339D01*
X021986Y005316D01*
X021970Y005296D01*
X021950Y005278D01*
X021928Y005263D01*
X021905Y005251D01*
X021879Y005243D01*
X021853Y005239D01*
X021827Y005239D01*
X021801Y005243D01*
X021775Y005251D01*
X021751Y005263D01*
X021730Y005278D01*
X021710Y005296D01*
X021694Y005316D01*
X021681Y005339D01*
X021671Y005364D01*
X021665Y005390D01*
X021663Y005416D01*
M02*
