%
M48
M72
T01C0.0120
T02C0.0354
T03C0.0400
%
T01
X6080Y3740
X5240Y3760
X4020Y4730
X8120Y3700
X9350Y3700
X9840Y3700
X11720Y3410
X12520Y3490
X12962Y4015
X12962Y4507
X11960Y4870
X11600Y5120
X11280Y4820
X12480Y5260
X12903Y5255
X14586Y6131
X14070Y6830
X16060Y5370
X16540Y5370
X15462Y4979
X14970Y4979
X15470Y3860
X17340Y3560
X18130Y4400
X19560Y3870
X19750Y5160
X17980Y5460
X19891Y6278
X21960Y6440
X19430Y2550
X18570Y2560
X15620Y2050
X12270Y2300
X23040Y1700
X23330Y2080
T02
X21840Y3684
X21840Y5416
T03
X4120Y1550
X5120Y1550
X6120Y1550
X7120Y1550
X8120Y1550
X9120Y1550
X10120Y1550
X11120Y1550
X12120Y1550
X13120Y1550
X14120Y1550
X15120Y1550
X16120Y1550
X17120Y1550
X18120Y1550
X19120Y1550
X20120Y1550
X21120Y1550
X21120Y7550
X20120Y7550
X19120Y7550
X18120Y7550
X17120Y7550
X16120Y7550
X15120Y7550
X14120Y7550
X13120Y7550
X12120Y7550
X11120Y7550
X10120Y7550
X9120Y7550
X8120Y7550
X7120Y7550
X6120Y7550
X5120Y7550
X4120Y7550
X22120Y7550
X23120Y7550
M30
