G75*
G70*
%OFA0B0*%
%FSLAX24Y24*%
%IPPOS*%
%LPD*%
%AMOC8*
5,1,8,0,0,1.08239X$1,22.5*
%
%ADD10R,0.0433X0.0394*%
%ADD11R,0.0630X0.0551*%
%ADD12R,0.0354X0.0276*%
%ADD13R,0.0335X0.0276*%
%ADD14R,0.0217X0.0472*%
%ADD15R,0.0740X0.0740*%
%ADD16C,0.0740*%
%ADD17R,0.0394X0.0433*%
%ADD18R,0.0315X0.0315*%
%ADD19C,0.0055*%
%ADD20R,0.0276X0.0354*%
%ADD21R,0.0984X0.0197*%
%ADD22R,0.0984X0.0787*%
%ADD23C,0.0240*%
%ADD24C,0.0080*%
D10*
X002180Y003645D03*
X002180Y004315D03*
X016285Y005840D03*
X016955Y005840D03*
D11*
X016281Y004978D03*
X016281Y003875D03*
D12*
X012063Y004315D03*
X012063Y004827D03*
X006200Y003736D03*
X006200Y003224D03*
D13*
X019544Y002000D03*
X020174Y002000D03*
D14*
X015205Y003915D03*
X014457Y003915D03*
X014457Y004938D03*
X014831Y004938D03*
X015205Y004938D03*
D15*
X001640Y007550D03*
X001640Y001550D03*
D16*
X002640Y001550D03*
X003640Y001550D03*
X004640Y001550D03*
X005640Y001550D03*
X006640Y001550D03*
X007640Y001550D03*
X008640Y001550D03*
X009640Y001550D03*
X010640Y001550D03*
X011640Y001550D03*
X012640Y001550D03*
X013640Y001550D03*
X014640Y001550D03*
X015640Y001550D03*
X016640Y001550D03*
X017640Y001550D03*
X018640Y001550D03*
X018640Y007550D03*
X019640Y007550D03*
X020640Y007550D03*
X017640Y007550D03*
X016640Y007550D03*
X015640Y007550D03*
X014640Y007550D03*
X013640Y007550D03*
X012640Y007550D03*
X011640Y007550D03*
X010640Y007550D03*
X009640Y007550D03*
X008640Y007550D03*
X007640Y007550D03*
X006640Y007550D03*
X005640Y007550D03*
X004640Y007550D03*
X003640Y007550D03*
X002640Y007550D03*
D17*
X013581Y004761D03*
X013581Y004092D03*
D18*
X001540Y004255D03*
X001540Y003665D03*
D19*
X008151Y003681D02*
X008411Y003681D01*
X008151Y003681D02*
X008151Y003737D01*
X008411Y003737D01*
X008411Y003681D01*
X008411Y003735D02*
X008151Y003735D01*
X008151Y003878D02*
X008411Y003878D01*
X008151Y003878D02*
X008151Y003934D01*
X008411Y003934D01*
X008411Y003878D01*
X008411Y003932D02*
X008151Y003932D01*
X008160Y004072D02*
X008420Y004072D01*
X008160Y004072D02*
X008160Y004128D01*
X008420Y004128D01*
X008420Y004072D01*
X008420Y004126D02*
X008160Y004126D01*
X008160Y004272D02*
X008420Y004272D01*
X008160Y004272D02*
X008160Y004328D01*
X008420Y004328D01*
X008420Y004272D01*
X008420Y004326D02*
X008160Y004326D01*
X008160Y004472D02*
X008420Y004472D01*
X008160Y004472D02*
X008160Y004528D01*
X008420Y004528D01*
X008420Y004472D01*
X008420Y004526D02*
X008160Y004526D01*
X008160Y004672D02*
X008420Y004672D01*
X008160Y004672D02*
X008160Y004728D01*
X008420Y004728D01*
X008420Y004672D01*
X008420Y004726D02*
X008160Y004726D01*
X008160Y004872D02*
X008420Y004872D01*
X008160Y004872D02*
X008160Y004928D01*
X008420Y004928D01*
X008420Y004872D01*
X008420Y004926D02*
X008160Y004926D01*
X008160Y005072D02*
X008420Y005072D01*
X008160Y005072D02*
X008160Y005128D01*
X008420Y005128D01*
X008420Y005072D01*
X008420Y005126D02*
X008160Y005126D01*
X008160Y005272D02*
X008420Y005272D01*
X008160Y005272D02*
X008160Y005328D01*
X008420Y005328D01*
X008420Y005272D01*
X008420Y005326D02*
X008160Y005326D01*
X008628Y005529D02*
X008684Y005529D01*
X008628Y005529D02*
X008628Y005789D01*
X008684Y005789D01*
X008684Y005529D01*
X008684Y005583D02*
X008628Y005583D01*
X008628Y005637D02*
X008684Y005637D01*
X008684Y005691D02*
X008628Y005691D01*
X008628Y005745D02*
X008684Y005745D01*
X008825Y005529D02*
X008881Y005529D01*
X008825Y005529D02*
X008825Y005789D01*
X008881Y005789D01*
X008881Y005529D01*
X008881Y005583D02*
X008825Y005583D01*
X008825Y005637D02*
X008881Y005637D01*
X008881Y005691D02*
X008825Y005691D01*
X008825Y005745D02*
X008881Y005745D01*
X009021Y005529D02*
X009077Y005529D01*
X009021Y005529D02*
X009021Y005789D01*
X009077Y005789D01*
X009077Y005529D01*
X009077Y005583D02*
X009021Y005583D01*
X009021Y005637D02*
X009077Y005637D01*
X009077Y005691D02*
X009021Y005691D01*
X009021Y005745D02*
X009077Y005745D01*
X009218Y005529D02*
X009274Y005529D01*
X009218Y005529D02*
X009218Y005789D01*
X009274Y005789D01*
X009274Y005529D01*
X009274Y005583D02*
X009218Y005583D01*
X009218Y005637D02*
X009274Y005637D01*
X009274Y005691D02*
X009218Y005691D01*
X009218Y005745D02*
X009274Y005745D01*
X009415Y005529D02*
X009471Y005529D01*
X009415Y005529D02*
X009415Y005789D01*
X009471Y005789D01*
X009471Y005529D01*
X009471Y005583D02*
X009415Y005583D01*
X009415Y005637D02*
X009471Y005637D01*
X009471Y005691D02*
X009415Y005691D01*
X009415Y005745D02*
X009471Y005745D01*
X009612Y005529D02*
X009668Y005529D01*
X009612Y005529D02*
X009612Y005789D01*
X009668Y005789D01*
X009668Y005529D01*
X009668Y005583D02*
X009612Y005583D01*
X009612Y005637D02*
X009668Y005637D01*
X009668Y005691D02*
X009612Y005691D01*
X009612Y005745D02*
X009668Y005745D01*
X009809Y005529D02*
X009865Y005529D01*
X009809Y005529D02*
X009809Y005789D01*
X009865Y005789D01*
X009865Y005529D01*
X009865Y005583D02*
X009809Y005583D01*
X009809Y005637D02*
X009865Y005637D01*
X009865Y005691D02*
X009809Y005691D01*
X009809Y005745D02*
X009865Y005745D01*
X010006Y005529D02*
X010062Y005529D01*
X010006Y005529D02*
X010006Y005789D01*
X010062Y005789D01*
X010062Y005529D01*
X010062Y005583D02*
X010006Y005583D01*
X010006Y005637D02*
X010062Y005637D01*
X010062Y005691D02*
X010006Y005691D01*
X010006Y005745D02*
X010062Y005745D01*
X010203Y005529D02*
X010259Y005529D01*
X010203Y005529D02*
X010203Y005789D01*
X010259Y005789D01*
X010259Y005529D01*
X010259Y005583D02*
X010203Y005583D01*
X010203Y005637D02*
X010259Y005637D01*
X010259Y005691D02*
X010203Y005691D01*
X010203Y005745D02*
X010259Y005745D01*
X010399Y005529D02*
X010455Y005529D01*
X010399Y005529D02*
X010399Y005789D01*
X010455Y005789D01*
X010455Y005529D01*
X010455Y005583D02*
X010399Y005583D01*
X010399Y005637D02*
X010455Y005637D01*
X010455Y005691D02*
X010399Y005691D01*
X010399Y005745D02*
X010455Y005745D01*
X010596Y005529D02*
X010652Y005529D01*
X010596Y005529D02*
X010596Y005789D01*
X010652Y005789D01*
X010652Y005529D01*
X010652Y005583D02*
X010596Y005583D01*
X010596Y005637D02*
X010652Y005637D01*
X010652Y005691D02*
X010596Y005691D01*
X010596Y005745D02*
X010652Y005745D01*
X010869Y005256D02*
X011129Y005256D01*
X010869Y005256D02*
X010869Y005312D01*
X011129Y005312D01*
X011129Y005256D01*
X011129Y005310D02*
X010869Y005310D01*
X010869Y005059D02*
X011129Y005059D01*
X010869Y005059D02*
X010869Y005115D01*
X011129Y005115D01*
X011129Y005059D01*
X011129Y005113D02*
X010869Y005113D01*
X010869Y004863D02*
X011129Y004863D01*
X010869Y004863D02*
X010869Y004919D01*
X011129Y004919D01*
X011129Y004863D01*
X011129Y004917D02*
X010869Y004917D01*
X010869Y004666D02*
X011129Y004666D01*
X010869Y004666D02*
X010869Y004722D01*
X011129Y004722D01*
X011129Y004666D01*
X011129Y004720D02*
X010869Y004720D01*
X010869Y004469D02*
X011129Y004469D01*
X010869Y004469D02*
X010869Y004525D01*
X011129Y004525D01*
X011129Y004469D01*
X011129Y004523D02*
X010869Y004523D01*
X010869Y004272D02*
X011129Y004272D01*
X010869Y004272D02*
X010869Y004328D01*
X011129Y004328D01*
X011129Y004272D01*
X011129Y004326D02*
X010869Y004326D01*
X010869Y004075D02*
X011129Y004075D01*
X010869Y004075D02*
X010869Y004131D01*
X011129Y004131D01*
X011129Y004075D01*
X011129Y004129D02*
X010869Y004129D01*
X010869Y003878D02*
X011129Y003878D01*
X010869Y003878D02*
X010869Y003934D01*
X011129Y003934D01*
X011129Y003878D01*
X011129Y003932D02*
X010869Y003932D01*
X010869Y003681D02*
X011129Y003681D01*
X010869Y003681D02*
X010869Y003737D01*
X011129Y003737D01*
X011129Y003681D01*
X011129Y003735D02*
X010869Y003735D01*
X010869Y003485D02*
X011129Y003485D01*
X010869Y003485D02*
X010869Y003541D01*
X011129Y003541D01*
X011129Y003485D01*
X011129Y003539D02*
X010869Y003539D01*
X010869Y003288D02*
X011129Y003288D01*
X010869Y003288D02*
X010869Y003344D01*
X011129Y003344D01*
X011129Y003288D01*
X011129Y003342D02*
X010869Y003342D01*
X010652Y002811D02*
X010596Y002811D01*
X010596Y003071D01*
X010652Y003071D01*
X010652Y002811D01*
X010652Y002865D02*
X010596Y002865D01*
X010596Y002919D02*
X010652Y002919D01*
X010652Y002973D02*
X010596Y002973D01*
X010596Y003027D02*
X010652Y003027D01*
X010455Y002811D02*
X010399Y002811D01*
X010399Y003071D01*
X010455Y003071D01*
X010455Y002811D01*
X010455Y002865D02*
X010399Y002865D01*
X010399Y002919D02*
X010455Y002919D01*
X010455Y002973D02*
X010399Y002973D01*
X010399Y003027D02*
X010455Y003027D01*
X010259Y002811D02*
X010203Y002811D01*
X010203Y003071D01*
X010259Y003071D01*
X010259Y002811D01*
X010259Y002865D02*
X010203Y002865D01*
X010203Y002919D02*
X010259Y002919D01*
X010259Y002973D02*
X010203Y002973D01*
X010203Y003027D02*
X010259Y003027D01*
X010062Y002811D02*
X010006Y002811D01*
X010006Y003071D01*
X010062Y003071D01*
X010062Y002811D01*
X010062Y002865D02*
X010006Y002865D01*
X010006Y002919D02*
X010062Y002919D01*
X010062Y002973D02*
X010006Y002973D01*
X010006Y003027D02*
X010062Y003027D01*
X009865Y002811D02*
X009809Y002811D01*
X009809Y003071D01*
X009865Y003071D01*
X009865Y002811D01*
X009865Y002865D02*
X009809Y002865D01*
X009809Y002919D02*
X009865Y002919D01*
X009865Y002973D02*
X009809Y002973D01*
X009809Y003027D02*
X009865Y003027D01*
X009668Y002811D02*
X009612Y002811D01*
X009612Y003071D01*
X009668Y003071D01*
X009668Y002811D01*
X009668Y002865D02*
X009612Y002865D01*
X009612Y002919D02*
X009668Y002919D01*
X009668Y002973D02*
X009612Y002973D01*
X009612Y003027D02*
X009668Y003027D01*
X009471Y002811D02*
X009415Y002811D01*
X009415Y003071D01*
X009471Y003071D01*
X009471Y002811D01*
X009471Y002865D02*
X009415Y002865D01*
X009415Y002919D02*
X009471Y002919D01*
X009471Y002973D02*
X009415Y002973D01*
X009415Y003027D02*
X009471Y003027D01*
X009274Y002811D02*
X009218Y002811D01*
X009218Y003071D01*
X009274Y003071D01*
X009274Y002811D01*
X009274Y002865D02*
X009218Y002865D01*
X009218Y002919D02*
X009274Y002919D01*
X009274Y002973D02*
X009218Y002973D01*
X009218Y003027D02*
X009274Y003027D01*
X009077Y002811D02*
X009021Y002811D01*
X009021Y003071D01*
X009077Y003071D01*
X009077Y002811D01*
X009077Y002865D02*
X009021Y002865D01*
X009021Y002919D02*
X009077Y002919D01*
X009077Y002973D02*
X009021Y002973D01*
X009021Y003027D02*
X009077Y003027D01*
X008881Y002811D02*
X008825Y002811D01*
X008825Y003071D01*
X008881Y003071D01*
X008881Y002811D01*
X008881Y002865D02*
X008825Y002865D01*
X008825Y002919D02*
X008881Y002919D01*
X008881Y002973D02*
X008825Y002973D01*
X008825Y003027D02*
X008881Y003027D01*
X008684Y002811D02*
X008628Y002811D01*
X008628Y003071D01*
X008684Y003071D01*
X008684Y002811D01*
X008684Y002865D02*
X008628Y002865D01*
X008628Y002919D02*
X008684Y002919D01*
X008684Y002973D02*
X008628Y002973D01*
X008628Y003027D02*
X008684Y003027D01*
X008411Y003288D02*
X008151Y003288D01*
X008151Y003344D01*
X008411Y003344D01*
X008411Y003288D01*
X008411Y003342D02*
X008151Y003342D01*
X008151Y003485D02*
X008411Y003485D01*
X008151Y003485D02*
X008151Y003541D01*
X008411Y003541D01*
X008411Y003485D01*
X008411Y003539D02*
X008151Y003539D01*
D20*
X009626Y006487D03*
X010137Y006487D03*
D21*
X018376Y005180D03*
X018376Y004865D03*
X018376Y004550D03*
X018376Y004235D03*
X018376Y003920D03*
D22*
X018376Y002778D03*
X020541Y002778D03*
X020541Y006322D03*
X018376Y006322D03*
D23*
X017412Y006278D03*
X015500Y005460D03*
X014060Y005370D03*
X013580Y005370D03*
X012983Y004979D03*
X012490Y004979D03*
X010483Y004507D03*
X010483Y004015D03*
X010040Y003490D03*
X009240Y003410D03*
X007360Y003700D03*
X006870Y003700D03*
X005640Y003700D03*
X003600Y003740D03*
X002760Y003760D03*
X001540Y004730D03*
X008800Y004820D03*
X009120Y005120D03*
X009480Y004870D03*
X010000Y005260D03*
X010423Y005255D03*
X012107Y006131D03*
X011590Y006830D03*
X017270Y005160D03*
X015650Y004400D03*
X017080Y003870D03*
X014860Y003560D03*
X012990Y003860D03*
X016090Y002560D03*
X016950Y002550D03*
X020560Y001700D03*
X020850Y002080D03*
X013140Y002050D03*
X009790Y002300D03*
X019480Y006440D03*
D24*
X001180Y001072D02*
X001180Y000990D01*
X021100Y000990D01*
X021100Y002253D01*
X021091Y002245D01*
X020433Y002245D01*
X020482Y002196D01*
X020482Y001949D01*
X020508Y001960D01*
X020612Y001960D01*
X020707Y001920D01*
X020780Y001847D01*
X020820Y001752D01*
X020820Y001648D01*
X020780Y001553D01*
X020707Y001480D01*
X020612Y001440D01*
X020508Y001440D01*
X020413Y001480D01*
X020340Y001553D01*
X020320Y001600D01*
X020294Y001625D01*
X020198Y001722D01*
X019949Y001722D01*
X019867Y001804D01*
X019867Y002053D01*
X019852Y002068D01*
X019852Y001804D01*
X019770Y001722D01*
X019319Y001722D01*
X019237Y001804D01*
X019237Y001820D01*
X019080Y001820D01*
X019150Y001651D01*
X019150Y001449D01*
X019072Y001261D01*
X018929Y001118D01*
X018741Y001040D01*
X018539Y001040D01*
X018351Y001118D01*
X018208Y001261D01*
X018140Y001424D01*
X018072Y001261D01*
X017929Y001118D01*
X017741Y001040D01*
X017539Y001040D01*
X017351Y001118D01*
X017208Y001261D01*
X017137Y001431D01*
X017137Y001431D01*
X017113Y001354D01*
X017076Y001283D01*
X017029Y001218D01*
X016972Y001161D01*
X016907Y001114D01*
X016836Y001077D01*
X016759Y001053D01*
X016680Y001040D01*
X016680Y001040D01*
X016680Y001510D01*
X016600Y001510D01*
X016600Y001040D01*
X016600Y001040D01*
X016521Y001053D01*
X016444Y001077D01*
X016373Y001114D01*
X016308Y001161D01*
X016251Y001218D01*
X016204Y001283D01*
X016167Y001354D01*
X016143Y001431D01*
X016143Y001431D01*
X016072Y001261D01*
X015929Y001118D01*
X015741Y001040D01*
X015539Y001040D01*
X015351Y001118D01*
X015208Y001261D01*
X015140Y001424D01*
X015072Y001261D01*
X014929Y001118D01*
X014741Y001040D01*
X014539Y001040D01*
X014351Y001118D01*
X014208Y001261D01*
X014140Y001424D01*
X014072Y001261D01*
X013929Y001118D01*
X013741Y001040D01*
X013539Y001040D01*
X013351Y001118D01*
X013208Y001261D01*
X013140Y001424D01*
X013072Y001261D01*
X012929Y001118D01*
X012741Y001040D01*
X012539Y001040D01*
X012351Y001118D01*
X012208Y001261D01*
X012140Y001424D01*
X012072Y001261D01*
X011929Y001118D01*
X011741Y001040D01*
X011539Y001040D01*
X011351Y001118D01*
X011208Y001261D01*
X011140Y001424D01*
X011072Y001261D01*
X010929Y001118D01*
X010741Y001040D01*
X010539Y001040D01*
X010351Y001118D01*
X010208Y001261D01*
X010140Y001424D01*
X010072Y001261D01*
X009929Y001118D01*
X009741Y001040D01*
X009539Y001040D01*
X009351Y001118D01*
X009208Y001261D01*
X009140Y001424D01*
X009072Y001261D01*
X008929Y001118D01*
X008741Y001040D01*
X008539Y001040D01*
X008351Y001118D01*
X008208Y001261D01*
X008140Y001424D01*
X008072Y001261D01*
X007929Y001118D01*
X007741Y001040D01*
X007539Y001040D01*
X007351Y001118D01*
X007208Y001261D01*
X007140Y001424D01*
X007072Y001261D01*
X006929Y001118D01*
X006741Y001040D01*
X006539Y001040D01*
X006351Y001118D01*
X006208Y001261D01*
X006140Y001424D01*
X006072Y001261D01*
X005929Y001118D01*
X005741Y001040D01*
X005539Y001040D01*
X005351Y001118D01*
X005208Y001261D01*
X005140Y001424D01*
X005072Y001261D01*
X004929Y001118D01*
X004741Y001040D01*
X004539Y001040D01*
X004351Y001118D01*
X004208Y001261D01*
X004140Y001424D01*
X004072Y001261D01*
X003929Y001118D01*
X003741Y001040D01*
X003539Y001040D01*
X003351Y001118D01*
X003208Y001261D01*
X003140Y001424D01*
X003072Y001261D01*
X002929Y001118D01*
X002741Y001040D01*
X002539Y001040D01*
X002351Y001118D01*
X002208Y001261D01*
X002150Y001400D01*
X002150Y001122D01*
X002068Y001040D01*
X001212Y001040D01*
X001180Y001072D01*
X001180Y001021D02*
X021100Y001021D01*
X021100Y001100D02*
X018885Y001100D01*
X018989Y001178D02*
X021100Y001178D01*
X021100Y001257D02*
X019068Y001257D01*
X019103Y001335D02*
X021100Y001335D01*
X021100Y001414D02*
X019135Y001414D01*
X019150Y001492D02*
X020400Y001492D01*
X020332Y001571D02*
X019150Y001571D01*
X019150Y001649D02*
X020271Y001649D01*
X020474Y001700D02*
X020560Y001700D01*
X020474Y001700D02*
X020174Y002000D01*
X019510Y002664D01*
X019510Y002800D01*
X018680Y003630D01*
X018666Y003630D01*
X018376Y003920D01*
X018360Y003682D02*
X017826Y003682D01*
X017744Y003764D01*
X017744Y004009D01*
X017740Y004005D01*
X017740Y003045D01*
X017635Y002940D01*
X017427Y002732D01*
X016285Y002732D01*
X016310Y002707D01*
X016350Y002612D01*
X016350Y002555D01*
X016555Y002350D01*
X017744Y002350D01*
X017744Y003230D01*
X017826Y003312D01*
X018743Y003312D01*
X018605Y003450D01*
X018591Y003450D01*
X018360Y003682D01*
X018430Y003612D02*
X017740Y003612D01*
X017740Y003690D02*
X017817Y003690D01*
X017744Y003769D02*
X017740Y003769D01*
X017740Y003847D02*
X017744Y003847D01*
X017740Y003926D02*
X017744Y003926D01*
X017740Y004004D02*
X017744Y004004D01*
X017560Y004080D02*
X017715Y004235D01*
X018376Y004235D01*
X019008Y004240D02*
X021100Y004240D01*
X021100Y004318D02*
X019008Y004318D01*
X019008Y004391D02*
X019007Y004393D01*
X019008Y004394D01*
X019008Y004706D01*
X019007Y004707D01*
X019008Y004709D01*
X019008Y005021D01*
X018999Y005030D01*
X019008Y005063D01*
X019008Y005171D01*
X018385Y005171D01*
X018385Y005189D01*
X019008Y005189D01*
X019008Y005297D01*
X018998Y005332D01*
X018980Y005364D01*
X018954Y005390D01*
X018922Y005409D01*
X018886Y005418D01*
X018385Y005418D01*
X018385Y005189D01*
X018367Y005189D01*
X018367Y005418D01*
X017865Y005418D01*
X017830Y005409D01*
X017798Y005390D01*
X017772Y005364D01*
X017753Y005332D01*
X017744Y005297D01*
X017744Y005189D01*
X018367Y005189D01*
X018367Y005171D01*
X017744Y005171D01*
X017744Y005063D01*
X017752Y005030D01*
X017744Y005021D01*
X017744Y004730D01*
X017695Y004730D01*
X017590Y004625D01*
X017190Y004225D01*
X017190Y004106D01*
X017132Y004130D01*
X017028Y004130D01*
X016933Y004090D01*
X016892Y004050D01*
X016736Y004050D01*
X016736Y004209D01*
X016654Y004291D01*
X015908Y004291D01*
X015826Y004209D01*
X015826Y004095D01*
X015454Y004095D01*
X015454Y004209D01*
X015372Y004291D01*
X015039Y004291D01*
X014957Y004209D01*
X014957Y003912D01*
X014865Y003820D01*
X014808Y003820D01*
X014713Y003780D01*
X014706Y003773D01*
X014706Y004209D01*
X014624Y004291D01*
X014291Y004291D01*
X014272Y004272D01*
X013918Y004272D01*
X013918Y004366D01*
X013856Y004428D01*
X013864Y004433D01*
X013890Y004459D01*
X013909Y004491D01*
X013918Y004526D01*
X013918Y004721D01*
X013621Y004721D01*
X013621Y004801D01*
X013541Y004801D01*
X013541Y004721D01*
X013244Y004721D01*
X013244Y004526D01*
X013254Y004491D01*
X013272Y004459D01*
X013298Y004433D01*
X013306Y004428D01*
X013244Y004366D01*
X013244Y003817D01*
X013326Y003735D01*
X013836Y003735D01*
X013918Y003817D01*
X013918Y003912D01*
X014205Y003912D01*
X014209Y003908D01*
X014209Y003620D01*
X014291Y003538D01*
X014600Y003538D01*
X014600Y003508D01*
X014640Y003413D01*
X014713Y003340D01*
X014808Y003300D01*
X014912Y003300D01*
X015007Y003340D01*
X015080Y003413D01*
X015120Y003508D01*
X015120Y003538D01*
X015372Y003538D01*
X015454Y003620D01*
X015454Y003735D01*
X015826Y003735D01*
X015826Y003542D01*
X015908Y003460D01*
X016654Y003460D01*
X016736Y003542D01*
X016736Y003690D01*
X016892Y003690D01*
X016933Y003650D01*
X017028Y003610D01*
X017132Y003610D01*
X017190Y003634D01*
X017190Y003595D01*
X016884Y003289D01*
X012791Y003289D01*
X012034Y004046D01*
X012034Y004286D01*
X012092Y004286D01*
X012092Y004037D01*
X012259Y004037D01*
X012294Y004047D01*
X012326Y004065D01*
X012352Y004092D01*
X012371Y004123D01*
X012380Y004159D01*
X012380Y004286D01*
X012092Y004286D01*
X012092Y004344D01*
X012380Y004344D01*
X012380Y004472D01*
X012371Y004507D01*
X012352Y004539D01*
X012326Y004565D01*
X012319Y004570D01*
X012380Y004631D01*
X012380Y004743D01*
X012439Y004719D01*
X012542Y004719D01*
X012638Y004759D01*
X012711Y004832D01*
X012736Y004894D01*
X012762Y004832D01*
X012835Y004759D01*
X012931Y004719D01*
X013034Y004719D01*
X013130Y004759D01*
X013203Y004832D01*
X013243Y004927D01*
X013243Y005031D01*
X013203Y005126D01*
X013163Y005167D01*
X013163Y005318D01*
X013451Y005606D01*
X013761Y005606D01*
X013935Y005780D01*
X014665Y005780D01*
X014845Y005960D01*
X015595Y005960D01*
X015775Y006140D01*
X015974Y006140D01*
X015929Y006095D01*
X015929Y006011D01*
X015868Y006010D01*
X015795Y006010D01*
X015794Y006008D01*
X015791Y006008D01*
X015741Y005956D01*
X015505Y005720D01*
X015448Y005720D01*
X015353Y005680D01*
X015312Y005640D01*
X015275Y005640D01*
X015125Y005490D01*
X015020Y005385D01*
X015020Y005296D01*
X015016Y005292D01*
X014994Y005305D01*
X014958Y005315D01*
X014845Y005315D01*
X014845Y004953D01*
X014817Y004953D01*
X014817Y005315D01*
X014705Y005315D01*
X014669Y005305D01*
X014646Y005292D01*
X014624Y005315D01*
X014291Y005315D01*
X014209Y005233D01*
X014209Y004644D01*
X014291Y004562D01*
X014624Y004562D01*
X014646Y004585D01*
X014669Y004572D01*
X014705Y004562D01*
X014817Y004562D01*
X014817Y004924D01*
X014845Y004924D01*
X014845Y004562D01*
X014958Y004562D01*
X014994Y004572D01*
X015016Y004585D01*
X015039Y004562D01*
X015372Y004562D01*
X015454Y004644D01*
X015454Y005200D01*
X015552Y005200D01*
X015647Y005240D01*
X015720Y005313D01*
X015760Y005408D01*
X015760Y005465D01*
X015929Y005634D01*
X015929Y005585D01*
X016011Y005503D01*
X016560Y005503D01*
X016622Y005565D01*
X016626Y005557D01*
X016652Y005531D01*
X016684Y005513D01*
X016720Y005503D01*
X016915Y005503D01*
X016915Y005800D01*
X016995Y005800D01*
X016995Y005880D01*
X017311Y005880D01*
X017311Y006039D01*
X017360Y006018D01*
X017463Y006018D01*
X017559Y006058D01*
X017632Y006131D01*
X017672Y006227D01*
X017672Y006330D01*
X017632Y006426D01*
X017559Y006499D01*
X017463Y006538D01*
X017406Y006538D01*
X017400Y006544D01*
X017474Y006617D01*
X017545Y006689D01*
X017744Y006689D01*
X017744Y005870D01*
X017826Y005788D01*
X018926Y005788D01*
X019008Y005870D01*
X019008Y006689D01*
X019033Y006689D01*
X019430Y007085D01*
X019539Y007040D01*
X019741Y007040D01*
X019929Y007118D01*
X020072Y007261D01*
X020140Y007424D01*
X020208Y007261D01*
X020351Y007118D01*
X020539Y007040D01*
X020741Y007040D01*
X020929Y007118D01*
X021072Y007261D01*
X021100Y007328D01*
X021100Y006847D01*
X021091Y006855D01*
X019991Y006855D01*
X019909Y006773D01*
X019909Y005870D01*
X019991Y005788D01*
X021091Y005788D01*
X021100Y005797D01*
X021100Y003303D01*
X021091Y003312D01*
X019991Y003312D01*
X019909Y003230D01*
X019909Y002520D01*
X019690Y002739D01*
X019690Y002875D01*
X018883Y003682D01*
X018926Y003682D01*
X019008Y003764D01*
X019008Y004076D01*
X019007Y004078D01*
X019008Y004079D01*
X019008Y004391D01*
X019008Y004397D02*
X021100Y004397D01*
X021100Y004475D02*
X019008Y004475D01*
X019008Y004554D02*
X021100Y004554D01*
X021100Y004632D02*
X019008Y004632D01*
X019008Y004711D02*
X021100Y004711D01*
X021100Y004789D02*
X019008Y004789D01*
X019008Y004868D02*
X021100Y004868D01*
X021100Y004946D02*
X019008Y004946D01*
X019005Y005025D02*
X021100Y005025D01*
X021100Y005103D02*
X019433Y005103D01*
X019423Y005099D02*
X019540Y005147D01*
X019629Y005236D01*
X019677Y005353D01*
X019677Y005479D01*
X019629Y005596D01*
X019540Y005685D01*
X019423Y005733D01*
X019297Y005733D01*
X019180Y005685D01*
X019091Y005596D01*
X019043Y005479D01*
X019043Y005353D01*
X019091Y005236D01*
X019180Y005147D01*
X019297Y005099D01*
X019423Y005099D01*
X019287Y005103D02*
X019008Y005103D01*
X019146Y005182D02*
X018385Y005182D01*
X018367Y005182D02*
X016736Y005182D01*
X016736Y005260D02*
X017744Y005260D01*
X017757Y005339D02*
X016709Y005339D01*
X016708Y005339D02*
X016682Y005365D01*
X016650Y005384D01*
X016615Y005393D01*
X016321Y005393D01*
X016321Y005018D01*
X016241Y005018D01*
X016241Y005393D01*
X015948Y005393D01*
X015912Y005384D01*
X015880Y005365D01*
X015854Y005339D01*
X015836Y005307D01*
X015826Y005272D01*
X015826Y005018D01*
X016241Y005018D01*
X016241Y004938D01*
X015826Y004938D01*
X015826Y004684D01*
X015836Y004648D01*
X015854Y004616D01*
X015880Y004590D01*
X015912Y004572D01*
X015948Y004562D01*
X016241Y004562D01*
X016241Y004938D01*
X016321Y004938D01*
X016321Y005018D01*
X016736Y005018D01*
X016736Y005272D01*
X016727Y005307D01*
X016708Y005339D01*
X016995Y005503D02*
X017190Y005503D01*
X017225Y005513D01*
X017257Y005531D01*
X017283Y005557D01*
X017302Y005589D01*
X017311Y005625D01*
X017311Y005800D01*
X016995Y005800D01*
X016995Y005503D01*
X016995Y005574D02*
X016915Y005574D01*
X016915Y005653D02*
X016995Y005653D01*
X016995Y005731D02*
X016915Y005731D01*
X016995Y005810D02*
X017804Y005810D01*
X017744Y005888D02*
X017311Y005888D01*
X017311Y005967D02*
X017744Y005967D01*
X017744Y006045D02*
X017528Y006045D01*
X017625Y006124D02*
X017744Y006124D01*
X017744Y006202D02*
X017661Y006202D01*
X017672Y006281D02*
X017744Y006281D01*
X017744Y006359D02*
X017660Y006359D01*
X017620Y006438D02*
X017744Y006438D01*
X017744Y006516D02*
X017517Y006516D01*
X017451Y006595D02*
X017744Y006595D01*
X017744Y006673D02*
X017529Y006673D01*
X017471Y006869D02*
X017294Y006692D01*
X016546Y006692D01*
X016354Y006500D01*
X015620Y006500D01*
X015440Y006320D01*
X014690Y006320D01*
X014510Y006140D01*
X013780Y006140D01*
X013603Y005963D01*
X013297Y005963D01*
X012490Y005156D01*
X012490Y004979D01*
X012736Y005064D02*
X012712Y005123D01*
X012803Y005214D01*
X012803Y005167D01*
X012762Y005126D01*
X012736Y005064D01*
X012721Y005103D02*
X012752Y005103D01*
X012770Y005182D02*
X012803Y005182D01*
X012983Y004979D02*
X012983Y005393D01*
X013376Y005786D01*
X013686Y005786D01*
X013860Y005960D01*
X014590Y005960D01*
X014770Y006140D01*
X015520Y006140D01*
X015700Y006320D01*
X016449Y006320D01*
X016546Y006416D01*
X017274Y006416D01*
X017412Y006278D01*
X017172Y006177D02*
X016995Y006177D01*
X016995Y005880D01*
X016915Y005880D01*
X016915Y006177D01*
X016720Y006177D01*
X016684Y006167D01*
X016652Y006149D01*
X016626Y006123D01*
X016622Y006115D01*
X016560Y006176D01*
X016620Y006236D01*
X017152Y006236D01*
X017152Y006227D01*
X017172Y006177D01*
X017162Y006202D02*
X016586Y006202D01*
X016613Y006124D02*
X016627Y006124D01*
X016915Y006124D02*
X016995Y006124D01*
X016995Y006045D02*
X016915Y006045D01*
X016915Y005967D02*
X016995Y005967D01*
X016995Y005888D02*
X016915Y005888D01*
X017311Y005731D02*
X019291Y005731D01*
X019429Y005731D02*
X021100Y005731D01*
X021100Y005653D02*
X019572Y005653D01*
X019638Y005574D02*
X021100Y005574D01*
X021100Y005496D02*
X019670Y005496D01*
X019677Y005417D02*
X021100Y005417D01*
X021100Y005339D02*
X019671Y005339D01*
X019639Y005260D02*
X021100Y005260D01*
X021100Y005182D02*
X019574Y005182D01*
X019081Y005260D02*
X019008Y005260D01*
X018995Y005339D02*
X019049Y005339D01*
X019043Y005417D02*
X018891Y005417D01*
X019050Y005496D02*
X015790Y005496D01*
X015760Y005417D02*
X017860Y005417D01*
X017293Y005574D02*
X019082Y005574D01*
X019148Y005653D02*
X017311Y005653D01*
X016321Y005339D02*
X016241Y005339D01*
X016241Y005260D02*
X016321Y005260D01*
X016321Y005182D02*
X016241Y005182D01*
X016241Y005103D02*
X016321Y005103D01*
X016321Y005025D02*
X016241Y005025D01*
X016241Y004946D02*
X015454Y004946D01*
X015454Y004868D02*
X015826Y004868D01*
X015826Y004789D02*
X015454Y004789D01*
X015454Y004711D02*
X015826Y004711D01*
X015845Y004632D02*
X015441Y004632D01*
X014845Y004632D02*
X014817Y004632D01*
X014817Y004711D02*
X014845Y004711D01*
X014845Y004789D02*
X014817Y004789D01*
X014817Y004868D02*
X014845Y004868D01*
X015200Y004944D02*
X015205Y004938D01*
X015200Y004944D02*
X015200Y005310D01*
X015350Y005460D01*
X015500Y005460D01*
X015870Y005830D01*
X016285Y005840D01*
X015929Y006045D02*
X015680Y006045D01*
X015751Y005967D02*
X015601Y005967D01*
X015673Y005888D02*
X014773Y005888D01*
X014694Y005810D02*
X015595Y005810D01*
X015516Y005731D02*
X013886Y005731D01*
X013807Y005653D02*
X015325Y005653D01*
X015209Y005574D02*
X013419Y005574D01*
X013340Y005496D02*
X015131Y005496D01*
X015052Y005417D02*
X013262Y005417D01*
X013183Y005339D02*
X015020Y005339D01*
X014845Y005260D02*
X014817Y005260D01*
X014817Y005182D02*
X014845Y005182D01*
X014845Y005103D02*
X014817Y005103D01*
X014817Y005025D02*
X014845Y005025D01*
X015454Y005025D02*
X015826Y005025D01*
X015826Y005103D02*
X015454Y005103D01*
X015454Y005182D02*
X015826Y005182D01*
X015826Y005260D02*
X015668Y005260D01*
X015731Y005339D02*
X015854Y005339D01*
X015869Y005574D02*
X015940Y005574D01*
X016736Y005103D02*
X017744Y005103D01*
X017747Y005025D02*
X016736Y005025D01*
X016736Y004938D02*
X016321Y004938D01*
X016321Y004562D01*
X016615Y004562D01*
X016650Y004572D01*
X016682Y004590D01*
X016708Y004616D01*
X016727Y004648D01*
X016736Y004684D01*
X016736Y004938D01*
X016736Y004868D02*
X017744Y004868D01*
X017744Y004946D02*
X016321Y004946D01*
X016321Y004868D02*
X016241Y004868D01*
X016241Y004789D02*
X016321Y004789D01*
X016321Y004711D02*
X016241Y004711D01*
X016241Y004632D02*
X016321Y004632D01*
X016717Y004632D02*
X017597Y004632D01*
X017519Y004554D02*
X013918Y004554D01*
X013918Y004632D02*
X014221Y004632D01*
X014209Y004711D02*
X013918Y004711D01*
X013918Y004801D02*
X013621Y004801D01*
X013621Y005118D01*
X013797Y005118D01*
X013832Y005108D01*
X013864Y005090D01*
X013890Y005064D01*
X013909Y005032D01*
X013918Y004996D01*
X013918Y004801D01*
X013918Y004868D02*
X014209Y004868D01*
X014209Y004946D02*
X013918Y004946D01*
X013911Y005025D02*
X014209Y005025D01*
X014209Y005103D02*
X013841Y005103D01*
X013621Y005103D02*
X013541Y005103D01*
X013541Y005118D02*
X013366Y005118D01*
X013330Y005108D01*
X013298Y005090D01*
X013272Y005064D01*
X013254Y005032D01*
X013244Y004996D01*
X013244Y004801D01*
X013541Y004801D01*
X013541Y005118D01*
X013541Y005025D02*
X013621Y005025D01*
X013621Y004946D02*
X013541Y004946D01*
X013541Y004868D02*
X013621Y004868D01*
X013621Y004789D02*
X014209Y004789D01*
X013900Y004475D02*
X017440Y004475D01*
X017362Y004397D02*
X013888Y004397D01*
X013918Y004318D02*
X017283Y004318D01*
X017205Y004240D02*
X016706Y004240D01*
X016736Y004161D02*
X017190Y004161D01*
X017370Y004150D02*
X017770Y004550D01*
X018376Y004550D01*
X017744Y004789D02*
X016736Y004789D01*
X016736Y004711D02*
X017676Y004711D01*
X018367Y005260D02*
X018385Y005260D01*
X018385Y005339D02*
X018367Y005339D01*
X018367Y005417D02*
X018385Y005417D01*
X018947Y005810D02*
X019969Y005810D01*
X019909Y005888D02*
X019008Y005888D01*
X019008Y005967D02*
X019909Y005967D01*
X019909Y006045D02*
X019008Y006045D01*
X019008Y006124D02*
X019909Y006124D01*
X019909Y006202D02*
X019585Y006202D01*
X019627Y006220D02*
X019700Y006293D01*
X019740Y006388D01*
X019740Y006492D01*
X019700Y006587D01*
X019627Y006660D01*
X019532Y006700D01*
X019428Y006700D01*
X019333Y006660D01*
X019260Y006587D01*
X019220Y006492D01*
X019220Y006388D01*
X019260Y006293D01*
X019333Y006220D01*
X019428Y006180D01*
X019532Y006180D01*
X019627Y006220D01*
X019688Y006281D02*
X019909Y006281D01*
X019909Y006359D02*
X019728Y006359D01*
X019740Y006438D02*
X019909Y006438D01*
X019909Y006516D02*
X019730Y006516D01*
X019693Y006595D02*
X019909Y006595D01*
X019909Y006673D02*
X019597Y006673D01*
X019363Y006673D02*
X019008Y006673D01*
X019008Y006595D02*
X019267Y006595D01*
X019230Y006516D02*
X019008Y006516D01*
X019008Y006438D02*
X019220Y006438D01*
X019232Y006359D02*
X019008Y006359D01*
X019008Y006281D02*
X019272Y006281D01*
X019375Y006202D02*
X019008Y006202D01*
X019096Y006752D02*
X019909Y006752D01*
X019966Y006830D02*
X019175Y006830D01*
X019253Y006909D02*
X021100Y006909D01*
X021100Y006987D02*
X019332Y006987D01*
X019410Y007066D02*
X019477Y007066D01*
X019803Y007066D02*
X020477Y007066D01*
X020325Y007144D02*
X019955Y007144D01*
X020034Y007223D02*
X020246Y007223D01*
X020191Y007301D02*
X020089Y007301D01*
X020121Y007380D02*
X020159Y007380D01*
X020140Y007676D02*
X020072Y007839D01*
X019929Y007982D01*
X019741Y008060D01*
X019539Y008060D01*
X019351Y007982D01*
X019208Y007839D01*
X019140Y007676D01*
X019072Y007839D01*
X018929Y007982D01*
X018741Y008060D01*
X018539Y008060D01*
X018351Y007982D01*
X018208Y007839D01*
X018140Y007676D01*
X018072Y007839D01*
X017929Y007982D01*
X017741Y008060D01*
X017539Y008060D01*
X017351Y007982D01*
X017208Y007839D01*
X017140Y007676D01*
X017072Y007839D01*
X016929Y007982D01*
X016741Y008060D01*
X016539Y008060D01*
X016351Y007982D01*
X016208Y007839D01*
X016140Y007676D01*
X016072Y007839D01*
X015929Y007982D01*
X015741Y008060D01*
X015539Y008060D01*
X015351Y007982D01*
X015208Y007839D01*
X015140Y007676D01*
X015072Y007839D01*
X014929Y007982D01*
X014741Y008060D01*
X014539Y008060D01*
X014351Y007982D01*
X014208Y007839D01*
X014140Y007676D01*
X014072Y007839D01*
X013929Y007982D01*
X013741Y008060D01*
X013539Y008060D01*
X013351Y007982D01*
X013208Y007839D01*
X013140Y007676D01*
X013072Y007839D01*
X012929Y007982D01*
X012741Y008060D01*
X012539Y008060D01*
X012351Y007982D01*
X012208Y007839D01*
X012140Y007676D01*
X012072Y007839D01*
X011929Y007982D01*
X011741Y008060D01*
X011539Y008060D01*
X011351Y007982D01*
X011208Y007839D01*
X011140Y007676D01*
X011072Y007839D01*
X010929Y007982D01*
X010741Y008060D01*
X010539Y008060D01*
X010351Y007982D01*
X010208Y007839D01*
X010140Y007676D01*
X010072Y007839D01*
X009929Y007982D01*
X009741Y008060D01*
X009539Y008060D01*
X009351Y007982D01*
X009208Y007839D01*
X009140Y007676D01*
X009072Y007839D01*
X008929Y007982D01*
X008741Y008060D01*
X008539Y008060D01*
X008351Y007982D01*
X008208Y007839D01*
X008140Y007676D01*
X008072Y007839D01*
X007929Y007982D01*
X007741Y008060D01*
X007539Y008060D01*
X007351Y007982D01*
X007208Y007839D01*
X007140Y007676D01*
X007072Y007839D01*
X006929Y007982D01*
X006741Y008060D01*
X006539Y008060D01*
X006351Y007982D01*
X006208Y007839D01*
X006140Y007676D01*
X006072Y007839D01*
X005929Y007982D01*
X005741Y008060D01*
X005539Y008060D01*
X005351Y007982D01*
X005208Y007839D01*
X005140Y007676D01*
X005072Y007839D01*
X004929Y007982D01*
X004741Y008060D01*
X004539Y008060D01*
X004351Y007982D01*
X004208Y007839D01*
X004140Y007676D01*
X004072Y007839D01*
X003929Y007982D01*
X003741Y008060D01*
X003539Y008060D01*
X003351Y007982D01*
X003208Y007839D01*
X003140Y007676D01*
X003072Y007839D01*
X002929Y007982D01*
X002741Y008060D01*
X002539Y008060D01*
X002351Y007982D01*
X002208Y007839D01*
X002150Y007700D01*
X002150Y007978D01*
X002068Y008060D01*
X001212Y008060D01*
X001180Y008028D01*
X001180Y008110D01*
X021100Y008110D01*
X021100Y007772D01*
X021072Y007839D01*
X020929Y007982D01*
X020741Y008060D01*
X020539Y008060D01*
X020351Y007982D01*
X020208Y007839D01*
X020140Y007676D01*
X020133Y007694D02*
X020147Y007694D01*
X020180Y007772D02*
X020100Y007772D01*
X020061Y007851D02*
X020219Y007851D01*
X020298Y007929D02*
X019982Y007929D01*
X019868Y008008D02*
X020412Y008008D01*
X020868Y008008D02*
X021100Y008008D01*
X021100Y008086D02*
X001180Y008086D01*
X002120Y008008D02*
X002412Y008008D01*
X002298Y007929D02*
X002150Y007929D01*
X002150Y007851D02*
X002219Y007851D01*
X002180Y007772D02*
X002150Y007772D01*
X002640Y007550D02*
X002640Y006810D01*
X005150Y004300D01*
X008290Y004300D01*
X008290Y004100D02*
X005137Y004103D01*
X005087Y004103D01*
X001640Y007550D01*
X002150Y007400D02*
X002150Y007295D01*
X002460Y006985D01*
X002460Y007073D01*
X002351Y007118D01*
X002208Y007261D01*
X002150Y007400D01*
X002150Y007380D02*
X002159Y007380D01*
X002150Y007301D02*
X002191Y007301D01*
X002222Y007223D02*
X002246Y007223D01*
X002301Y007144D02*
X002325Y007144D01*
X002379Y007066D02*
X002460Y007066D01*
X002458Y006987D02*
X002460Y006987D01*
X002820Y006987D02*
X003460Y006987D01*
X003460Y006909D02*
X002820Y006909D01*
X002820Y006885D02*
X002820Y007073D01*
X002929Y007118D01*
X003072Y007261D01*
X003140Y007424D01*
X003208Y007261D01*
X003351Y007118D01*
X003460Y007073D01*
X003460Y006245D01*
X002820Y006885D01*
X002875Y006830D02*
X003460Y006830D01*
X003460Y006752D02*
X002953Y006752D01*
X003032Y006673D02*
X003460Y006673D01*
X003460Y006595D02*
X003110Y006595D01*
X003189Y006516D02*
X003460Y006516D01*
X003460Y006438D02*
X003267Y006438D01*
X003346Y006359D02*
X003460Y006359D01*
X003460Y006281D02*
X003424Y006281D01*
X003640Y006090D02*
X003640Y007550D01*
X004121Y007380D02*
X004159Y007380D01*
X004140Y007424D02*
X004072Y007261D01*
X003929Y007118D01*
X003820Y007073D01*
X003820Y006165D01*
X004460Y005525D01*
X004460Y007073D01*
X004351Y007118D01*
X004208Y007261D01*
X004140Y007424D01*
X004089Y007301D02*
X004191Y007301D01*
X004246Y007223D02*
X004034Y007223D01*
X003955Y007144D02*
X004325Y007144D01*
X004460Y007066D02*
X003820Y007066D01*
X003820Y006987D02*
X004460Y006987D01*
X004460Y006909D02*
X003820Y006909D01*
X003820Y006830D02*
X004460Y006830D01*
X004460Y006752D02*
X003820Y006752D01*
X003820Y006673D02*
X004460Y006673D01*
X004460Y006595D02*
X003820Y006595D01*
X003820Y006516D02*
X004460Y006516D01*
X004460Y006438D02*
X003820Y006438D01*
X003820Y006359D02*
X004460Y006359D01*
X004460Y006281D02*
X003820Y006281D01*
X003820Y006202D02*
X004460Y006202D01*
X004460Y006124D02*
X003861Y006124D01*
X003940Y006045D02*
X004460Y006045D01*
X004460Y005967D02*
X004018Y005967D01*
X004097Y005888D02*
X004460Y005888D01*
X004460Y005810D02*
X004175Y005810D01*
X004254Y005731D02*
X004460Y005731D01*
X004460Y005653D02*
X004332Y005653D01*
X004411Y005574D02*
X004460Y005574D01*
X004640Y005350D02*
X004640Y007550D01*
X005121Y007380D02*
X005159Y007380D01*
X005140Y007424D02*
X005208Y007261D01*
X005351Y007118D01*
X005460Y007073D01*
X005460Y005275D01*
X005565Y005170D01*
X005861Y004875D01*
X005371Y004874D01*
X004820Y005425D01*
X004820Y007073D01*
X004929Y007118D01*
X005072Y007261D01*
X005140Y007424D01*
X005089Y007301D02*
X005191Y007301D01*
X005246Y007223D02*
X005034Y007223D01*
X004955Y007144D02*
X005325Y007144D01*
X005460Y007066D02*
X004820Y007066D01*
X004820Y006987D02*
X005460Y006987D01*
X005460Y006909D02*
X004820Y006909D01*
X004820Y006830D02*
X005460Y006830D01*
X005460Y006752D02*
X004820Y006752D01*
X004820Y006673D02*
X005460Y006673D01*
X005460Y006595D02*
X004820Y006595D01*
X004820Y006516D02*
X005460Y006516D01*
X005460Y006438D02*
X004820Y006438D01*
X004820Y006359D02*
X005460Y006359D01*
X005460Y006281D02*
X004820Y006281D01*
X004820Y006202D02*
X005460Y006202D01*
X005460Y006124D02*
X004820Y006124D01*
X004820Y006045D02*
X005460Y006045D01*
X005460Y005967D02*
X004820Y005967D01*
X004820Y005888D02*
X005460Y005888D01*
X005460Y005810D02*
X004820Y005810D01*
X004820Y005731D02*
X005460Y005731D01*
X005460Y005653D02*
X004820Y005653D01*
X004820Y005574D02*
X005460Y005574D01*
X005460Y005496D02*
X004820Y005496D01*
X004828Y005417D02*
X005460Y005417D01*
X005460Y005339D02*
X004906Y005339D01*
X004985Y005260D02*
X005475Y005260D01*
X005554Y005182D02*
X005063Y005182D01*
X005142Y005103D02*
X005632Y005103D01*
X005711Y005025D02*
X005220Y005025D01*
X005299Y004946D02*
X005789Y004946D01*
X006099Y004891D02*
X005640Y005350D01*
X005640Y007550D01*
X005147Y007694D02*
X005133Y007694D01*
X005100Y007772D02*
X005180Y007772D01*
X005219Y007851D02*
X005061Y007851D01*
X004982Y007929D02*
X005298Y007929D01*
X005412Y008008D02*
X004868Y008008D01*
X004412Y008008D02*
X003868Y008008D01*
X003982Y007929D02*
X004298Y007929D01*
X004219Y007851D02*
X004061Y007851D01*
X004100Y007772D02*
X004180Y007772D01*
X004147Y007694D02*
X004133Y007694D01*
X003412Y008008D02*
X002868Y008008D01*
X002982Y007929D02*
X003298Y007929D01*
X003219Y007851D02*
X003061Y007851D01*
X003100Y007772D02*
X003180Y007772D01*
X003147Y007694D02*
X003133Y007694D01*
X003121Y007380D02*
X003159Y007380D01*
X003191Y007301D02*
X003089Y007301D01*
X003034Y007223D02*
X003246Y007223D01*
X003325Y007144D02*
X002955Y007144D01*
X002820Y007066D02*
X003460Y007066D01*
X002262Y006673D02*
X001180Y006673D01*
X001180Y006595D02*
X002341Y006595D01*
X002419Y006516D02*
X001180Y006516D01*
X001180Y006438D02*
X002498Y006438D01*
X002576Y006359D02*
X001180Y006359D01*
X001180Y006281D02*
X002655Y006281D01*
X002733Y006202D02*
X001180Y006202D01*
X001180Y006124D02*
X002812Y006124D01*
X002890Y006045D02*
X001180Y006045D01*
X001180Y005967D02*
X002969Y005967D01*
X003047Y005888D02*
X001180Y005888D01*
X001180Y005810D02*
X003126Y005810D01*
X003204Y005731D02*
X001180Y005731D01*
X001180Y005653D02*
X003283Y005653D01*
X003361Y005574D02*
X001180Y005574D01*
X001180Y005496D02*
X003440Y005496D01*
X003518Y005417D02*
X001180Y005417D01*
X001180Y005339D02*
X003597Y005339D01*
X003675Y005260D02*
X001180Y005260D01*
X001180Y005182D02*
X003754Y005182D01*
X003832Y005103D02*
X001180Y005103D01*
X001180Y005025D02*
X003911Y005025D01*
X003989Y004946D02*
X001180Y004946D01*
X001180Y004868D02*
X004068Y004868D01*
X004146Y004789D02*
X001180Y004789D01*
X001180Y004711D02*
X004225Y004711D01*
X004303Y004632D02*
X002474Y004632D01*
X002455Y004651D02*
X001905Y004651D01*
X001823Y004569D01*
X001823Y004475D01*
X001823Y004475D01*
X001810Y004499D01*
X001783Y004525D01*
X001752Y004543D01*
X001716Y004553D01*
X001579Y004553D01*
X001579Y004294D01*
X001501Y004294D01*
X001501Y004217D01*
X001243Y004217D01*
X001243Y004079D01*
X001252Y004044D01*
X001270Y004012D01*
X001297Y003986D01*
X001328Y003967D01*
X001348Y003962D01*
X001325Y003962D01*
X001243Y003880D01*
X001243Y003449D01*
X001325Y003367D01*
X001755Y003367D01*
X001823Y003435D01*
X001823Y003391D01*
X001905Y003309D01*
X002455Y003309D01*
X002537Y003391D01*
X002537Y003620D01*
X002540Y003613D01*
X002613Y003540D01*
X002708Y003500D01*
X002812Y003500D01*
X002907Y003540D01*
X002980Y003613D01*
X003020Y003708D01*
X003020Y003812D01*
X002980Y003907D01*
X002907Y003980D01*
X002812Y004020D01*
X002708Y004020D01*
X002708Y004020D01*
X002537Y004143D01*
X002537Y004569D01*
X002455Y004651D01*
X002537Y004554D02*
X004382Y004554D01*
X004460Y004475D02*
X002537Y004475D01*
X002537Y004397D02*
X004539Y004397D01*
X004617Y004318D02*
X002537Y004318D01*
X002537Y004240D02*
X004696Y004240D01*
X004774Y004161D02*
X002537Y004161D01*
X002621Y004083D02*
X004853Y004083D01*
X004931Y004004D02*
X002850Y004004D01*
X002962Y003926D02*
X005010Y003926D01*
X005012Y003923D02*
X005137Y003923D01*
X005891Y003922D01*
X005883Y003892D01*
X005883Y003765D01*
X006171Y003765D01*
X006171Y003707D01*
X005883Y003707D01*
X005883Y003580D01*
X005892Y003544D01*
X005911Y003512D01*
X005937Y003486D01*
X005945Y003482D01*
X005883Y003420D01*
X005883Y003028D01*
X005921Y002990D01*
X005705Y002990D01*
X005535Y002820D01*
X004835Y002820D01*
X004625Y002610D01*
X002445Y002610D01*
X001895Y002060D01*
X001212Y002060D01*
X001180Y002028D01*
X001180Y007072D01*
X001212Y007040D01*
X001895Y007040D01*
X005012Y003923D01*
X005883Y003847D02*
X003005Y003847D01*
X003020Y003769D02*
X005883Y003769D01*
X005883Y003690D02*
X003012Y003690D01*
X002979Y003612D02*
X005883Y003612D01*
X005899Y003533D02*
X002891Y003533D01*
X002629Y003533D02*
X002537Y003533D01*
X002537Y003455D02*
X005917Y003455D01*
X005883Y003376D02*
X002522Y003376D01*
X002537Y003612D02*
X002541Y003612D01*
X002760Y003760D02*
X001985Y004320D01*
X002180Y004315D01*
X001579Y004318D02*
X001501Y004318D01*
X001501Y004294D02*
X001501Y004553D01*
X001364Y004553D01*
X001328Y004543D01*
X001297Y004525D01*
X001270Y004499D01*
X001252Y004467D01*
X001243Y004431D01*
X001243Y004294D01*
X001501Y004294D01*
X001501Y004240D02*
X001180Y004240D01*
X001180Y004318D02*
X001243Y004318D01*
X001243Y004397D02*
X001180Y004397D01*
X001180Y004475D02*
X001257Y004475D01*
X001180Y004554D02*
X001823Y004554D01*
X001886Y004632D02*
X001180Y004632D01*
X001501Y004475D02*
X001579Y004475D01*
X001579Y004397D02*
X001501Y004397D01*
X001243Y004161D02*
X001180Y004161D01*
X001180Y004083D02*
X001243Y004083D01*
X001278Y004004D02*
X001180Y004004D01*
X001180Y003926D02*
X001288Y003926D01*
X001243Y003847D02*
X001180Y003847D01*
X001180Y003769D02*
X001243Y003769D01*
X001243Y003690D02*
X001180Y003690D01*
X001180Y003612D02*
X001243Y003612D01*
X001243Y003533D02*
X001180Y003533D01*
X001180Y003455D02*
X001243Y003455D01*
X001180Y003376D02*
X001316Y003376D01*
X001180Y003298D02*
X005883Y003298D01*
X005883Y003219D02*
X001180Y003219D01*
X001180Y003141D02*
X005883Y003141D01*
X005883Y003062D02*
X001180Y003062D01*
X001180Y002984D02*
X005699Y002984D01*
X005620Y002905D02*
X001180Y002905D01*
X001180Y002827D02*
X005542Y002827D01*
X005610Y002640D02*
X005780Y002810D01*
X006540Y002810D01*
X006740Y003010D01*
X007540Y003010D01*
X008043Y003513D01*
X008281Y003513D01*
X008281Y003316D02*
X008116Y003316D01*
X007620Y002820D01*
X006840Y002820D01*
X006620Y002600D01*
X005850Y002600D01*
X005690Y002440D01*
X004970Y002440D01*
X004780Y002250D01*
X003340Y002250D01*
X002640Y001550D01*
X003105Y001760D02*
X003415Y002070D01*
X003905Y002070D01*
X003850Y002015D01*
X003741Y002060D01*
X003539Y002060D01*
X003351Y001982D01*
X003208Y001839D01*
X003140Y001676D01*
X003105Y001760D01*
X003118Y001728D02*
X003162Y001728D01*
X003151Y001806D02*
X003194Y001806D01*
X003229Y001885D02*
X003253Y001885D01*
X003308Y001963D02*
X003332Y001963D01*
X003386Y002042D02*
X003494Y002042D01*
X003786Y002042D02*
X003877Y002042D01*
X004140Y002050D02*
X003640Y001550D01*
X004105Y001760D02*
X004215Y001870D01*
X004239Y001870D01*
X004208Y001839D01*
X004140Y001676D01*
X004105Y001760D01*
X004118Y001728D02*
X004162Y001728D01*
X004151Y001806D02*
X004194Y001806D01*
X004640Y001550D02*
X005150Y002060D01*
X005880Y002060D01*
X006050Y002230D01*
X006800Y002230D01*
X007010Y002440D01*
X008580Y002440D01*
X008853Y002713D01*
X008853Y002941D01*
X009049Y002941D02*
X009049Y002649D01*
X008650Y002250D01*
X007090Y002250D01*
X006890Y002050D01*
X006140Y002050D01*
X005640Y001550D01*
X006105Y001760D02*
X006215Y001870D01*
X006239Y001870D01*
X006208Y001839D01*
X006140Y001676D01*
X006105Y001760D01*
X006118Y001728D02*
X006162Y001728D01*
X006151Y001806D02*
X006194Y001806D01*
X006145Y001414D02*
X006135Y001414D01*
X006103Y001335D02*
X006177Y001335D01*
X006212Y001257D02*
X006068Y001257D01*
X005989Y001178D02*
X006291Y001178D01*
X006395Y001100D02*
X005885Y001100D01*
X005395Y001100D02*
X004885Y001100D01*
X004989Y001178D02*
X005291Y001178D01*
X005212Y001257D02*
X005068Y001257D01*
X005103Y001335D02*
X005177Y001335D01*
X005145Y001414D02*
X005135Y001414D01*
X005140Y001676D02*
X005105Y001760D01*
X005225Y001880D01*
X005249Y001880D01*
X005208Y001839D01*
X005140Y001676D01*
X005118Y001728D02*
X005162Y001728D01*
X005151Y001806D02*
X005194Y001806D01*
X004870Y002050D02*
X004140Y002050D01*
X004700Y002430D02*
X002520Y002430D01*
X001640Y001550D01*
X002150Y001700D02*
X002150Y001805D01*
X002595Y002250D01*
X003085Y002250D01*
X002850Y002015D01*
X002741Y002060D01*
X002539Y002060D01*
X002351Y001982D01*
X002208Y001839D01*
X002150Y001700D01*
X002150Y001728D02*
X002162Y001728D01*
X002151Y001806D02*
X002194Y001806D01*
X002229Y001885D02*
X002253Y001885D01*
X002308Y001963D02*
X002332Y001963D01*
X002386Y002042D02*
X002494Y002042D01*
X002465Y002120D02*
X002955Y002120D01*
X002877Y002042D02*
X002786Y002042D01*
X002543Y002199D02*
X003034Y002199D01*
X002348Y002513D02*
X001180Y002513D01*
X001180Y002591D02*
X002426Y002591D01*
X002269Y002434D02*
X001180Y002434D01*
X001180Y002356D02*
X002191Y002356D01*
X002112Y002277D02*
X001180Y002277D01*
X001180Y002199D02*
X002034Y002199D01*
X001955Y002120D02*
X001180Y002120D01*
X001180Y002042D02*
X001194Y002042D01*
X001180Y002670D02*
X004685Y002670D01*
X004763Y002748D02*
X001180Y002748D01*
X001764Y003376D02*
X001838Y003376D01*
X001540Y003665D02*
X002161Y003665D01*
X002180Y003645D01*
X001849Y003926D02*
X001792Y003926D01*
X001823Y003900D02*
X001823Y003894D01*
X001755Y003962D01*
X001732Y003962D01*
X001752Y003967D01*
X001783Y003986D01*
X001810Y004012D01*
X001828Y004044D01*
X001830Y004053D01*
X001903Y003980D01*
X001823Y003900D01*
X001802Y004004D02*
X001879Y004004D01*
X003640Y006090D02*
X005233Y004497D01*
X008290Y004500D01*
X008587Y004475D02*
X010223Y004475D01*
X010223Y004455D02*
X010262Y004359D01*
X010335Y004286D01*
X010396Y004261D01*
X010394Y004259D01*
X010335Y004235D01*
X010262Y004162D01*
X010223Y004066D01*
X010223Y003963D01*
X010262Y003867D01*
X010335Y003794D01*
X010431Y003755D01*
X010534Y003755D01*
X010630Y003794D01*
X010702Y003866D01*
X010702Y003809D01*
X010703Y003808D01*
X010702Y003806D01*
X010702Y003612D01*
X010703Y003611D01*
X010702Y003610D01*
X010702Y003416D01*
X010703Y003414D01*
X010702Y003413D01*
X010702Y003238D01*
X010527Y003238D01*
X010526Y003237D01*
X010524Y003238D01*
X010330Y003238D01*
X010329Y003237D01*
X010328Y003238D01*
X010220Y003238D01*
X010220Y003302D01*
X010260Y003343D01*
X010300Y003438D01*
X010300Y003542D01*
X010260Y003637D01*
X010187Y003710D01*
X010092Y003750D01*
X009988Y003750D01*
X009893Y003710D01*
X009862Y003680D01*
X009755Y003680D01*
X009485Y003950D01*
X009065Y003950D01*
X009005Y003889D01*
X008578Y003889D01*
X008578Y003906D01*
X008491Y003906D01*
X008491Y003906D01*
X008578Y003906D01*
X008578Y003956D01*
X008570Y003986D01*
X008587Y004003D01*
X008587Y004197D01*
X008584Y004200D01*
X008587Y004203D01*
X008587Y004397D01*
X008584Y004400D01*
X008587Y004403D01*
X008587Y004597D01*
X008584Y004600D01*
X008587Y004603D01*
X008587Y004797D01*
X008584Y004800D01*
X008587Y004803D01*
X008587Y004997D01*
X008584Y005000D01*
X008587Y005003D01*
X008587Y005197D01*
X008584Y005200D01*
X008587Y005203D01*
X008587Y005362D01*
X008753Y005362D01*
X008754Y005363D01*
X008756Y005362D01*
X008950Y005362D01*
X008951Y005363D01*
X008952Y005362D01*
X009024Y005362D01*
X008973Y005340D01*
X008900Y005267D01*
X008860Y005172D01*
X008860Y005068D01*
X008900Y004973D01*
X008973Y004900D01*
X009068Y004860D01*
X009172Y004860D01*
X009220Y004880D01*
X009220Y004818D01*
X009260Y004723D01*
X009333Y004650D01*
X009428Y004610D01*
X009532Y004610D01*
X009627Y004650D01*
X009658Y004680D01*
X009805Y004680D01*
X009910Y004785D01*
X009925Y004800D01*
X010645Y004800D01*
X010702Y004744D01*
X010702Y004743D01*
X010702Y004694D01*
X010999Y004694D01*
X010999Y004695D01*
X010999Y004695D01*
X010999Y004694D01*
X010999Y004694D01*
X010999Y004694D01*
X011297Y004694D01*
X011297Y004711D01*
X011746Y004711D01*
X011746Y004631D01*
X011808Y004570D01*
X011800Y004565D01*
X011774Y004539D01*
X011756Y004507D01*
X011746Y004472D01*
X011746Y004344D01*
X012034Y004344D01*
X012034Y004286D01*
X011746Y004286D01*
X011746Y004283D01*
X011297Y004283D01*
X011297Y004397D01*
X011295Y004398D01*
X011297Y004400D01*
X011297Y004594D01*
X011286Y004604D01*
X011297Y004644D01*
X011297Y004694D01*
X010999Y004694D01*
X010999Y004694D01*
X011437Y004694D01*
X011841Y004290D01*
X012038Y004290D01*
X012063Y004315D01*
X012034Y004318D02*
X011297Y004318D01*
X011297Y004397D02*
X011746Y004397D01*
X011747Y004475D02*
X011297Y004475D01*
X011297Y004554D02*
X011788Y004554D01*
X011746Y004632D02*
X011293Y004632D01*
X011297Y004711D02*
X011746Y004711D01*
X011950Y004891D02*
X012063Y004827D01*
X011950Y004891D02*
X010999Y004891D01*
X010990Y004900D01*
X010800Y004900D01*
X010720Y004980D01*
X009850Y004980D01*
X009730Y004860D01*
X009490Y004860D01*
X009480Y004870D01*
X009650Y005040D01*
X009650Y005649D01*
X009640Y005659D01*
X009640Y006473D01*
X009626Y006487D01*
X009990Y006340D02*
X010137Y006487D01*
X009990Y006340D02*
X009990Y006290D01*
X009837Y006137D01*
X009837Y005659D01*
X009837Y005659D01*
X009839Y005659D01*
X009839Y005659D01*
X009837Y005659D01*
X009837Y005362D01*
X009886Y005362D01*
X009926Y005372D01*
X009937Y005362D01*
X010131Y005362D01*
X010132Y005363D01*
X010134Y005362D01*
X010186Y005362D01*
X010163Y005306D01*
X010163Y005203D01*
X010181Y005160D01*
X009830Y005160D01*
X009830Y005362D01*
X009837Y005362D01*
X009837Y005659D01*
X009837Y005659D01*
X009837Y005659D01*
X009837Y005957D01*
X009854Y005957D01*
X009854Y006121D01*
X009925Y006192D01*
X009914Y006198D01*
X009888Y006224D01*
X009883Y006232D01*
X009821Y006170D01*
X009820Y006170D01*
X009820Y005957D01*
X009837Y005957D01*
X009837Y005659D01*
X009835Y005659D01*
X009835Y005659D01*
X009837Y005659D01*
X009837Y005659D01*
X009837Y005653D02*
X009837Y005653D01*
X009837Y005731D02*
X009837Y005731D01*
X009837Y005810D02*
X009837Y005810D01*
X009837Y005888D02*
X009837Y005888D01*
X009820Y005967D02*
X009854Y005967D01*
X009854Y006045D02*
X009820Y006045D01*
X009820Y006124D02*
X009857Y006124D01*
X009853Y006202D02*
X009910Y006202D01*
X010034Y006046D02*
X010128Y006141D01*
X010286Y006141D01*
X010640Y006495D01*
X011841Y006495D01*
X012392Y007046D01*
X013136Y007046D01*
X013640Y007550D01*
X013175Y007340D02*
X013062Y007226D01*
X013037Y007226D01*
X013072Y007261D01*
X013140Y007424D01*
X013175Y007340D01*
X013159Y007380D02*
X013121Y007380D01*
X013136Y007301D02*
X013089Y007301D01*
X013396Y007046D02*
X014136Y007046D01*
X014640Y007550D01*
X015121Y007380D02*
X015159Y007380D01*
X015175Y007340D02*
X015062Y007226D01*
X015037Y007226D01*
X015072Y007261D01*
X015140Y007424D01*
X015175Y007340D01*
X015136Y007301D02*
X015089Y007301D01*
X015136Y007046D02*
X015640Y007550D01*
X016121Y007380D02*
X016159Y007380D01*
X016175Y007340D02*
X016062Y007226D01*
X016037Y007226D01*
X016072Y007261D01*
X016140Y007424D01*
X016175Y007340D01*
X016136Y007301D02*
X016089Y007301D01*
X016136Y007046D02*
X015384Y007046D01*
X015207Y006869D01*
X014459Y006869D01*
X014282Y006692D01*
X013553Y006692D01*
X013376Y006515D01*
X012628Y006515D01*
X012402Y006289D01*
X012402Y006022D01*
X012240Y005860D01*
X011934Y005860D01*
X011830Y005963D01*
X010876Y005963D01*
X010624Y005711D01*
X010427Y005659D02*
X010427Y005259D01*
X010423Y005255D01*
X010163Y005260D02*
X009830Y005260D01*
X009830Y005182D02*
X010172Y005182D01*
X010177Y005339D02*
X009830Y005339D01*
X009837Y005417D02*
X009837Y005417D01*
X009837Y005496D02*
X009837Y005496D01*
X009837Y005574D02*
X009837Y005574D01*
X010034Y005659D02*
X010034Y006046D01*
X010231Y005830D02*
X010719Y006318D01*
X011920Y006318D01*
X012471Y006869D01*
X013219Y006869D01*
X013396Y007046D01*
X013475Y006869D02*
X014203Y006869D01*
X014380Y007046D01*
X015136Y007046D01*
X015460Y006860D02*
X016222Y006860D01*
X016408Y007046D01*
X017136Y007046D01*
X017640Y007550D01*
X017175Y007340D02*
X017062Y007226D01*
X017037Y007226D01*
X017072Y007261D01*
X017140Y007424D01*
X017175Y007340D01*
X017159Y007380D02*
X017121Y007380D01*
X017136Y007301D02*
X017089Y007301D01*
X017392Y007046D02*
X018136Y007046D01*
X018640Y007550D01*
X018175Y007340D02*
X018062Y007226D01*
X018037Y007226D01*
X018072Y007261D01*
X018140Y007424D01*
X018175Y007340D01*
X018159Y007380D02*
X018121Y007380D01*
X018136Y007301D02*
X018089Y007301D01*
X018393Y007049D02*
X018430Y007085D01*
X018517Y007049D01*
X018393Y007049D01*
X018410Y007066D02*
X018477Y007066D01*
X018763Y007049D02*
X018884Y007049D01*
X019175Y007340D01*
X019140Y007424D01*
X019072Y007261D01*
X018929Y007118D01*
X018763Y007049D01*
X018803Y007066D02*
X018901Y007066D01*
X018955Y007144D02*
X018979Y007144D01*
X019034Y007223D02*
X019058Y007223D01*
X019089Y007301D02*
X019136Y007301D01*
X019121Y007380D02*
X019159Y007380D01*
X019640Y007550D02*
X018959Y006869D01*
X017471Y006869D01*
X017392Y007046D02*
X017215Y006869D01*
X016467Y006869D01*
X016278Y006680D01*
X015540Y006680D01*
X015360Y006500D01*
X014610Y006500D01*
X014430Y006320D01*
X013700Y006320D01*
X013521Y006141D01*
X013219Y006141D01*
X012166Y005087D01*
X010999Y005087D01*
X010702Y005160D02*
X010666Y005160D01*
X010683Y005203D01*
X010683Y005306D01*
X010661Y005362D01*
X010702Y005362D01*
X010702Y005187D01*
X010703Y005186D01*
X010702Y005184D01*
X010702Y005160D01*
X010702Y005182D02*
X010675Y005182D01*
X010683Y005260D02*
X010702Y005260D01*
X010702Y005339D02*
X010670Y005339D01*
X010819Y005479D02*
X010819Y005652D01*
X010951Y005783D01*
X011756Y005783D01*
X011859Y005680D01*
X012248Y005680D01*
X012032Y005464D01*
X011213Y005464D01*
X011198Y005479D01*
X010819Y005479D01*
X010819Y005496D02*
X012063Y005496D01*
X012142Y005574D02*
X010819Y005574D01*
X010820Y005653D02*
X012220Y005653D01*
X011808Y005731D02*
X010898Y005731D01*
X010615Y005957D02*
X010612Y005957D01*
X010793Y006138D01*
X010796Y006138D01*
X010696Y006038D01*
X010615Y005957D01*
X010622Y005967D02*
X010625Y005967D01*
X010701Y006045D02*
X010703Y006045D01*
X010779Y006124D02*
X010782Y006124D01*
X010231Y005830D02*
X010231Y005659D01*
X009443Y005659D02*
X009443Y005443D01*
X009120Y005120D01*
X008878Y005025D02*
X008587Y005025D01*
X008587Y005103D02*
X008860Y005103D01*
X008864Y005182D02*
X008587Y005182D01*
X008587Y005260D02*
X008897Y005260D01*
X008971Y005339D02*
X008587Y005339D01*
X008461Y005495D02*
X008091Y005495D01*
X008069Y005474D01*
X007820Y005466D01*
X007820Y007073D01*
X007929Y007118D01*
X008072Y007261D01*
X008140Y007424D01*
X008208Y007261D01*
X008351Y007118D01*
X008476Y007066D01*
X008476Y005873D01*
X008461Y005858D01*
X008461Y005495D01*
X008461Y005496D02*
X007820Y005496D01*
X007820Y005574D02*
X008461Y005574D01*
X008461Y005653D02*
X007820Y005653D01*
X007820Y005731D02*
X008461Y005731D01*
X008461Y005810D02*
X007820Y005810D01*
X007820Y005888D02*
X008476Y005888D01*
X008476Y005967D02*
X007820Y005967D01*
X007820Y006045D02*
X008476Y006045D01*
X008476Y006124D02*
X007820Y006124D01*
X007820Y006202D02*
X008476Y006202D01*
X008476Y006281D02*
X007820Y006281D01*
X007820Y006359D02*
X008476Y006359D01*
X008476Y006438D02*
X007820Y006438D01*
X007820Y006516D02*
X008476Y006516D01*
X008476Y006595D02*
X007820Y006595D01*
X007820Y006673D02*
X008476Y006673D01*
X008476Y006752D02*
X007820Y006752D01*
X007820Y006830D02*
X008476Y006830D01*
X008476Y006909D02*
X007820Y006909D01*
X007820Y006987D02*
X008476Y006987D01*
X008476Y007066D02*
X007820Y007066D01*
X007955Y007144D02*
X008325Y007144D01*
X008246Y007223D02*
X008034Y007223D01*
X008089Y007301D02*
X008191Y007301D01*
X008159Y007380D02*
X008121Y007380D01*
X007640Y007550D02*
X007640Y005390D01*
X007746Y005284D01*
X008290Y005300D01*
X008290Y005100D02*
X006903Y005087D01*
X006640Y005350D01*
X006640Y007550D01*
X007121Y007380D02*
X007159Y007380D01*
X007140Y007424D02*
X007072Y007261D01*
X006929Y007118D01*
X006820Y007073D01*
X006820Y005425D01*
X006976Y005268D01*
X007503Y005273D01*
X007460Y005315D01*
X007460Y007073D01*
X007351Y007118D01*
X007208Y007261D01*
X007140Y007424D01*
X007089Y007301D02*
X007191Y007301D01*
X007246Y007223D02*
X007034Y007223D01*
X006955Y007144D02*
X007325Y007144D01*
X007460Y007066D02*
X006820Y007066D01*
X006820Y006987D02*
X007460Y006987D01*
X007460Y006909D02*
X006820Y006909D01*
X006820Y006830D02*
X007460Y006830D01*
X007460Y006752D02*
X006820Y006752D01*
X006820Y006673D02*
X007460Y006673D01*
X007460Y006595D02*
X006820Y006595D01*
X006820Y006516D02*
X007460Y006516D01*
X007460Y006438D02*
X006820Y006438D01*
X006820Y006359D02*
X007460Y006359D01*
X007460Y006281D02*
X006820Y006281D01*
X006820Y006202D02*
X007460Y006202D01*
X007460Y006124D02*
X006820Y006124D01*
X006820Y006045D02*
X007460Y006045D01*
X007460Y005967D02*
X006820Y005967D01*
X006820Y005888D02*
X007460Y005888D01*
X007460Y005810D02*
X006820Y005810D01*
X006820Y005731D02*
X007460Y005731D01*
X007460Y005653D02*
X006820Y005653D01*
X006820Y005574D02*
X007460Y005574D01*
X007460Y005496D02*
X006820Y005496D01*
X006828Y005417D02*
X007460Y005417D01*
X007460Y005339D02*
X006906Y005339D01*
X006662Y005073D02*
X006565Y005170D01*
X006460Y005275D01*
X006460Y007073D01*
X006351Y007118D01*
X006208Y007261D01*
X006140Y007424D01*
X006072Y007261D01*
X005929Y007118D01*
X005820Y007073D01*
X005820Y005425D01*
X006174Y005071D01*
X006662Y005073D01*
X006632Y005103D02*
X006142Y005103D01*
X006063Y005182D02*
X006554Y005182D01*
X006475Y005260D02*
X005985Y005260D01*
X005906Y005339D02*
X006460Y005339D01*
X006460Y005417D02*
X005828Y005417D01*
X005820Y005496D02*
X006460Y005496D01*
X006460Y005574D02*
X005820Y005574D01*
X005820Y005653D02*
X006460Y005653D01*
X006460Y005731D02*
X005820Y005731D01*
X005820Y005810D02*
X006460Y005810D01*
X006460Y005888D02*
X005820Y005888D01*
X005820Y005967D02*
X006460Y005967D01*
X006460Y006045D02*
X005820Y006045D01*
X005820Y006124D02*
X006460Y006124D01*
X006460Y006202D02*
X005820Y006202D01*
X005820Y006281D02*
X006460Y006281D01*
X006460Y006359D02*
X005820Y006359D01*
X005820Y006438D02*
X006460Y006438D01*
X006460Y006516D02*
X005820Y006516D01*
X005820Y006595D02*
X006460Y006595D01*
X006460Y006673D02*
X005820Y006673D01*
X005820Y006752D02*
X006460Y006752D01*
X006460Y006830D02*
X005820Y006830D01*
X005820Y006909D02*
X006460Y006909D01*
X006460Y006987D02*
X005820Y006987D01*
X005820Y007066D02*
X006460Y007066D01*
X006325Y007144D02*
X005955Y007144D01*
X006034Y007223D02*
X006246Y007223D01*
X006191Y007301D02*
X006089Y007301D01*
X006121Y007380D02*
X006159Y007380D01*
X006147Y007694D02*
X006133Y007694D01*
X006100Y007772D02*
X006180Y007772D01*
X006219Y007851D02*
X006061Y007851D01*
X005982Y007929D02*
X006298Y007929D01*
X006412Y008008D02*
X005868Y008008D01*
X006868Y008008D02*
X007412Y008008D01*
X007298Y007929D02*
X006982Y007929D01*
X007061Y007851D02*
X007219Y007851D01*
X007180Y007772D02*
X007100Y007772D01*
X007133Y007694D02*
X007147Y007694D01*
X007868Y008008D02*
X008412Y008008D01*
X008298Y007929D02*
X007982Y007929D01*
X008061Y007851D02*
X008219Y007851D01*
X008180Y007772D02*
X008100Y007772D01*
X008133Y007694D02*
X008147Y007694D01*
X008640Y007550D02*
X008656Y007484D01*
X008656Y005659D01*
X008853Y005659D02*
X008853Y006813D01*
X009640Y007550D01*
X009169Y007355D02*
X009075Y007267D01*
X009140Y007424D01*
X009169Y007355D01*
X009159Y007380D02*
X009121Y007380D01*
X009111Y007301D02*
X009089Y007301D01*
X008904Y007107D02*
X008836Y007079D01*
X008836Y007043D01*
X008904Y007107D01*
X008859Y007066D02*
X008836Y007066D01*
X009049Y006699D02*
X009400Y007050D01*
X010140Y007050D01*
X010640Y007550D01*
X010175Y007340D02*
X010065Y007230D01*
X010041Y007230D01*
X010072Y007261D01*
X010140Y007424D01*
X010175Y007340D01*
X010159Y007380D02*
X010121Y007380D01*
X010136Y007301D02*
X010089Y007301D01*
X010440Y007050D02*
X011140Y007050D01*
X011640Y007550D01*
X011175Y007340D02*
X011065Y007230D01*
X011041Y007230D01*
X011072Y007261D01*
X011140Y007424D01*
X011175Y007340D01*
X011159Y007380D02*
X011121Y007380D01*
X011136Y007301D02*
X011089Y007301D01*
X011410Y007066D02*
X011477Y007066D01*
X011430Y007085D02*
X011539Y007040D01*
X011741Y007040D01*
X011929Y007118D01*
X012072Y007261D01*
X012140Y007424D01*
X012208Y007261D01*
X012280Y007189D01*
X012212Y007121D01*
X011766Y006675D01*
X010565Y006675D01*
X010460Y006569D01*
X010415Y006525D01*
X010415Y006683D01*
X010406Y006719D01*
X010390Y006746D01*
X010515Y006870D01*
X011215Y006870D01*
X011320Y006975D01*
X011430Y007085D01*
X011332Y006987D02*
X012078Y006987D01*
X012000Y006909D02*
X011253Y006909D01*
X011803Y007066D02*
X012157Y007066D01*
X012235Y007144D02*
X011955Y007144D01*
X012034Y007223D02*
X012246Y007223D01*
X012191Y007301D02*
X012089Y007301D01*
X012121Y007380D02*
X012159Y007380D01*
X012147Y007694D02*
X012133Y007694D01*
X012100Y007772D02*
X012180Y007772D01*
X012219Y007851D02*
X012061Y007851D01*
X011982Y007929D02*
X012298Y007929D01*
X012412Y008008D02*
X011868Y008008D01*
X011412Y008008D02*
X010868Y008008D01*
X010982Y007929D02*
X011298Y007929D01*
X011219Y007851D02*
X011061Y007851D01*
X011100Y007772D02*
X011180Y007772D01*
X011147Y007694D02*
X011133Y007694D01*
X010412Y008008D02*
X009868Y008008D01*
X009982Y007929D02*
X010298Y007929D01*
X010219Y007851D02*
X010061Y007851D01*
X010100Y007772D02*
X010180Y007772D01*
X010147Y007694D02*
X010133Y007694D01*
X009412Y008008D02*
X008868Y008008D01*
X008982Y007929D02*
X009298Y007929D01*
X009219Y007851D02*
X009061Y007851D01*
X009100Y007772D02*
X009180Y007772D01*
X009147Y007694D02*
X009133Y007694D01*
X010280Y006890D02*
X010440Y007050D01*
X010280Y006890D02*
X009500Y006890D01*
X009246Y006636D01*
X009246Y005659D01*
X009049Y005659D02*
X009049Y006699D01*
X009426Y006174D02*
X009430Y006170D01*
X009460Y006170D01*
X009460Y005957D01*
X009426Y005957D01*
X009426Y006174D01*
X009426Y006124D02*
X009460Y006124D01*
X009460Y006045D02*
X009426Y006045D01*
X009426Y005967D02*
X009460Y005967D01*
X010415Y006595D02*
X010485Y006595D01*
X010415Y006673D02*
X010564Y006673D01*
X010396Y006752D02*
X011843Y006752D01*
X011921Y006830D02*
X010475Y006830D01*
X012097Y006239D02*
X012549Y006692D01*
X013297Y006692D01*
X013475Y006869D01*
X014037Y007226D02*
X014072Y007261D01*
X014140Y007424D01*
X014175Y007340D01*
X014062Y007226D01*
X014037Y007226D01*
X014089Y007301D02*
X014136Y007301D01*
X014121Y007380D02*
X014159Y007380D01*
X014147Y007694D02*
X014133Y007694D01*
X014100Y007772D02*
X014180Y007772D01*
X014219Y007851D02*
X014061Y007851D01*
X013982Y007929D02*
X014298Y007929D01*
X014412Y008008D02*
X013868Y008008D01*
X013412Y008008D02*
X012868Y008008D01*
X012982Y007929D02*
X013298Y007929D01*
X013219Y007851D02*
X013061Y007851D01*
X013100Y007772D02*
X013180Y007772D01*
X013147Y007694D02*
X013133Y007694D01*
X014868Y008008D02*
X015412Y008008D01*
X015298Y007929D02*
X014982Y007929D01*
X015061Y007851D02*
X015219Y007851D01*
X015180Y007772D02*
X015100Y007772D01*
X015133Y007694D02*
X015147Y007694D01*
X015868Y008008D02*
X016412Y008008D01*
X016298Y007929D02*
X015982Y007929D01*
X016061Y007851D02*
X016219Y007851D01*
X016180Y007772D02*
X016100Y007772D01*
X016133Y007694D02*
X016147Y007694D01*
X016640Y007550D02*
X016136Y007046D01*
X015460Y006860D02*
X015280Y006680D01*
X014530Y006680D01*
X014360Y006510D01*
X013630Y006510D01*
X013438Y006318D01*
X013140Y006318D01*
X012107Y005284D01*
X010999Y005284D01*
X010656Y004789D02*
X009914Y004789D01*
X009835Y004711D02*
X010319Y004711D01*
X010335Y004727D02*
X010262Y004654D01*
X010223Y004558D01*
X010223Y004455D01*
X010247Y004397D02*
X008587Y004397D01*
X008587Y004318D02*
X010304Y004318D01*
X010346Y004240D02*
X008587Y004240D01*
X008587Y004161D02*
X010262Y004161D01*
X010229Y004083D02*
X008587Y004083D01*
X008587Y004004D02*
X010223Y004004D01*
X010238Y003926D02*
X009509Y003926D01*
X009588Y003847D02*
X010282Y003847D01*
X010397Y003769D02*
X009666Y003769D01*
X009745Y003690D02*
X009872Y003690D01*
X010208Y003690D02*
X010702Y003690D01*
X010703Y003612D02*
X010271Y003612D01*
X010300Y003533D02*
X010702Y003533D01*
X010702Y003455D02*
X010300Y003455D01*
X010274Y003376D02*
X010702Y003376D01*
X010702Y003298D02*
X010220Y003298D01*
X009860Y003298D02*
X009475Y003298D01*
X009460Y003263D02*
X009500Y003358D01*
X009500Y003425D01*
X009605Y003320D01*
X009842Y003320D01*
X009860Y003302D01*
X009860Y003238D01*
X009837Y003238D01*
X009837Y002941D01*
X009839Y002941D01*
X009839Y002941D01*
X009837Y002941D01*
X009837Y002941D01*
X009837Y002941D01*
X009837Y002643D01*
X009886Y002643D01*
X009926Y002654D01*
X009937Y002643D01*
X010051Y002643D01*
X010051Y002215D01*
X009850Y002015D01*
X009741Y002060D01*
X009539Y002060D01*
X009351Y001982D01*
X009208Y001839D01*
X009140Y001676D01*
X009105Y001760D01*
X009310Y001965D01*
X009310Y002115D01*
X009820Y002625D01*
X009820Y002643D01*
X009837Y002643D01*
X009837Y002941D01*
X009837Y002941D01*
X009837Y003238D01*
X009787Y003238D01*
X009748Y003228D01*
X009737Y003238D01*
X009543Y003238D01*
X009542Y003237D01*
X009540Y003238D01*
X009436Y003238D01*
X009460Y003263D01*
X009500Y003376D02*
X009549Y003376D01*
X009500Y003425D02*
X009500Y003425D01*
X009680Y003500D02*
X010030Y003500D01*
X010040Y003490D01*
X010040Y002947D01*
X010034Y002941D01*
X010231Y002941D02*
X010231Y002141D01*
X009640Y001550D01*
X010105Y001760D02*
X010411Y002066D01*
X010411Y002305D01*
X010460Y002255D01*
X010460Y002027D01*
X010351Y001982D01*
X010208Y001839D01*
X010140Y001676D01*
X010105Y001760D01*
X010118Y001728D02*
X010162Y001728D01*
X010151Y001806D02*
X010194Y001806D01*
X010229Y001885D02*
X010253Y001885D01*
X010308Y001963D02*
X010332Y001963D01*
X010386Y002042D02*
X010460Y002042D01*
X010460Y002120D02*
X010411Y002120D01*
X010411Y002199D02*
X010460Y002199D01*
X010438Y002277D02*
X010411Y002277D01*
X010640Y002330D02*
X010640Y001550D01*
X011118Y001728D02*
X011162Y001728D01*
X011140Y001676D02*
X011072Y001839D01*
X010929Y001982D01*
X010820Y002027D01*
X010820Y002405D01*
X010775Y002450D01*
X011415Y002450D01*
X011460Y002405D01*
X011460Y002027D01*
X011351Y001982D01*
X011208Y001839D01*
X011140Y001676D01*
X011086Y001806D02*
X011194Y001806D01*
X011253Y001885D02*
X011027Y001885D01*
X010948Y001963D02*
X011332Y001963D01*
X011460Y002042D02*
X010820Y002042D01*
X010820Y002120D02*
X011460Y002120D01*
X011460Y002199D02*
X010820Y002199D01*
X010820Y002277D02*
X011460Y002277D01*
X011460Y002356D02*
X010820Y002356D01*
X010791Y002434D02*
X011431Y002434D01*
X011490Y002630D02*
X011640Y002480D01*
X011640Y001550D01*
X012118Y001728D02*
X012162Y001728D01*
X012140Y001676D02*
X012072Y001839D01*
X011929Y001982D01*
X011820Y002027D01*
X011820Y002555D01*
X011715Y002660D01*
X011565Y002810D01*
X010865Y002810D01*
X010819Y002855D01*
X010819Y003121D01*
X011198Y003121D01*
X011213Y003136D01*
X011300Y003136D01*
X012210Y002225D01*
X012315Y002120D01*
X011820Y002120D01*
X011820Y002042D02*
X012460Y002042D01*
X012460Y002027D02*
X012460Y002120D01*
X012315Y002120D01*
X012237Y002199D02*
X011820Y002199D01*
X011820Y002277D02*
X012158Y002277D01*
X012080Y002356D02*
X011820Y002356D01*
X011820Y002434D02*
X012001Y002434D01*
X011923Y002513D02*
X011820Y002513D01*
X011844Y002591D02*
X011784Y002591D01*
X011766Y002670D02*
X011705Y002670D01*
X011687Y002748D02*
X011627Y002748D01*
X011609Y002827D02*
X010848Y002827D01*
X010819Y002905D02*
X011530Y002905D01*
X011452Y002984D02*
X010819Y002984D01*
X010819Y003062D02*
X011373Y003062D01*
X011374Y003316D02*
X010999Y003316D01*
X010999Y003513D02*
X011487Y003513D01*
X012450Y002550D01*
X013390Y002550D01*
X013650Y002290D01*
X013650Y001560D01*
X013640Y001550D01*
X014118Y001728D02*
X014162Y001728D01*
X014140Y001676D02*
X014072Y001839D01*
X013929Y001982D01*
X013830Y002023D01*
X013830Y002365D01*
X013725Y002470D01*
X013635Y002560D01*
X014035Y002560D01*
X014460Y002135D01*
X014460Y002027D01*
X014351Y001982D01*
X014208Y001839D01*
X014140Y001676D01*
X014086Y001806D02*
X014194Y001806D01*
X014253Y001885D02*
X014027Y001885D01*
X013948Y001963D02*
X014332Y001963D01*
X014460Y002042D02*
X013830Y002042D01*
X013830Y002120D02*
X014460Y002120D01*
X014397Y002199D02*
X013830Y002199D01*
X013830Y002277D02*
X014318Y002277D01*
X014240Y002356D02*
X013830Y002356D01*
X013761Y002434D02*
X014161Y002434D01*
X014083Y002513D02*
X013682Y002513D01*
X013470Y002215D02*
X013315Y002370D01*
X012820Y002370D01*
X012820Y002027D01*
X012929Y001982D01*
X013072Y001839D01*
X013140Y001676D01*
X013208Y001839D01*
X013351Y001982D01*
X013470Y002032D01*
X013470Y002215D01*
X013470Y002199D02*
X012820Y002199D01*
X012820Y002277D02*
X013408Y002277D01*
X013330Y002356D02*
X012820Y002356D01*
X012640Y002300D02*
X012390Y002300D01*
X011374Y003316D01*
X010624Y002941D02*
X010624Y002796D01*
X010790Y002630D01*
X011490Y002630D01*
X010640Y002330D02*
X010427Y002543D01*
X010427Y002941D01*
X009837Y002941D02*
X009835Y002941D01*
X009837Y002941D01*
X009837Y002941D01*
X009835Y002941D02*
X009835Y002941D01*
X009837Y002905D02*
X009837Y002905D01*
X009837Y002827D02*
X009837Y002827D01*
X009837Y002748D02*
X009837Y002748D01*
X009837Y002670D02*
X009837Y002670D01*
X009786Y002591D02*
X010051Y002591D01*
X010051Y002513D02*
X009707Y002513D01*
X009629Y002434D02*
X010051Y002434D01*
X010051Y002356D02*
X009550Y002356D01*
X009472Y002277D02*
X010051Y002277D01*
X010034Y002199D02*
X009393Y002199D01*
X009315Y002120D02*
X009955Y002120D01*
X009877Y002042D02*
X009786Y002042D01*
X009494Y002042D02*
X009310Y002042D01*
X009308Y001963D02*
X009332Y001963D01*
X009253Y001885D02*
X009229Y001885D01*
X009194Y001806D02*
X009151Y001806D01*
X009162Y001728D02*
X009118Y001728D01*
X009130Y002040D02*
X008640Y001550D01*
X008162Y001728D02*
X008118Y001728D01*
X008105Y001760D02*
X008235Y001890D01*
X008259Y001890D01*
X008208Y001839D01*
X008140Y001676D01*
X008105Y001760D01*
X008151Y001806D02*
X008194Y001806D01*
X008229Y001885D02*
X008253Y001885D01*
X008160Y002070D02*
X007640Y001550D01*
X008135Y001414D02*
X008145Y001414D01*
X008177Y001335D02*
X008103Y001335D01*
X008068Y001257D02*
X008212Y001257D01*
X008291Y001178D02*
X007989Y001178D01*
X007885Y001100D02*
X008395Y001100D01*
X008885Y001100D02*
X009395Y001100D01*
X009291Y001178D02*
X008989Y001178D01*
X009068Y001257D02*
X009212Y001257D01*
X009177Y001335D02*
X009103Y001335D01*
X009135Y001414D02*
X009145Y001414D01*
X009885Y001100D02*
X010395Y001100D01*
X010291Y001178D02*
X009989Y001178D01*
X010068Y001257D02*
X010212Y001257D01*
X010177Y001335D02*
X010103Y001335D01*
X010135Y001414D02*
X010145Y001414D01*
X010885Y001100D02*
X011395Y001100D01*
X011291Y001178D02*
X010989Y001178D01*
X011068Y001257D02*
X011212Y001257D01*
X011177Y001335D02*
X011103Y001335D01*
X011135Y001414D02*
X011145Y001414D01*
X011885Y001100D02*
X012395Y001100D01*
X012291Y001178D02*
X011989Y001178D01*
X012068Y001257D02*
X012212Y001257D01*
X012177Y001335D02*
X012103Y001335D01*
X012135Y001414D02*
X012145Y001414D01*
X012640Y001550D02*
X012640Y002300D01*
X012820Y002120D02*
X013470Y002120D01*
X013470Y002042D02*
X012820Y002042D01*
X012948Y001963D02*
X013332Y001963D01*
X013253Y001885D02*
X013027Y001885D01*
X013086Y001806D02*
X013194Y001806D01*
X013162Y001728D02*
X013118Y001728D01*
X012460Y002027D02*
X012351Y001982D01*
X012208Y001839D01*
X012140Y001676D01*
X012086Y001806D02*
X012194Y001806D01*
X012253Y001885D02*
X012027Y001885D01*
X011948Y001963D02*
X012332Y001963D01*
X013135Y001414D02*
X013145Y001414D01*
X013177Y001335D02*
X013103Y001335D01*
X013068Y001257D02*
X013212Y001257D01*
X013291Y001178D02*
X012989Y001178D01*
X012885Y001100D02*
X013395Y001100D01*
X013885Y001100D02*
X014395Y001100D01*
X014291Y001178D02*
X013989Y001178D01*
X014068Y001257D02*
X014212Y001257D01*
X014177Y001335D02*
X014103Y001335D01*
X014135Y001414D02*
X014145Y001414D01*
X014640Y001550D02*
X014640Y002210D01*
X014110Y002740D01*
X012520Y002740D01*
X011551Y003709D01*
X010999Y003709D01*
X010702Y003769D02*
X010568Y003769D01*
X010683Y003847D02*
X010702Y003847D01*
X010999Y003906D02*
X011614Y003906D01*
X012608Y002912D01*
X017353Y002912D01*
X017560Y003120D01*
X017560Y004080D01*
X017370Y004150D02*
X017370Y003520D01*
X016959Y003109D01*
X012717Y003109D01*
X011722Y004103D01*
X010999Y004103D01*
X010999Y004300D02*
X010689Y004300D01*
X010483Y004093D01*
X010483Y004015D01*
X010492Y004497D02*
X010483Y004507D01*
X010492Y004497D02*
X010999Y004497D01*
X010999Y004692D02*
X010999Y004694D01*
X010702Y004694D01*
X010702Y004677D01*
X010680Y004677D01*
X010630Y004727D01*
X010534Y004767D01*
X010431Y004767D01*
X010335Y004727D01*
X010253Y004632D02*
X009585Y004632D01*
X009375Y004632D02*
X008587Y004632D01*
X008587Y004554D02*
X010223Y004554D01*
X010646Y004711D02*
X010702Y004711D01*
X010999Y004694D02*
X010999Y004694D01*
X010999Y004692D01*
X010999Y004692D01*
X012034Y004240D02*
X012092Y004240D01*
X012092Y004318D02*
X013244Y004318D01*
X013244Y004240D02*
X012380Y004240D01*
X012380Y004161D02*
X013244Y004161D01*
X013244Y004083D02*
X012343Y004083D01*
X012092Y004083D02*
X012034Y004083D01*
X012034Y004161D02*
X012092Y004161D01*
X012076Y004004D02*
X013244Y004004D01*
X013244Y003926D02*
X012155Y003926D01*
X012233Y003847D02*
X013244Y003847D01*
X013293Y003769D02*
X012312Y003769D01*
X012390Y003690D02*
X014209Y003690D01*
X014209Y003769D02*
X013869Y003769D01*
X013918Y003847D02*
X014209Y003847D01*
X014280Y004092D02*
X014457Y003915D01*
X014706Y003926D02*
X014957Y003926D01*
X014957Y004004D02*
X014706Y004004D01*
X014706Y004083D02*
X014957Y004083D01*
X014957Y004161D02*
X014706Y004161D01*
X014675Y004240D02*
X014988Y004240D01*
X015423Y004240D02*
X015857Y004240D01*
X015826Y004161D02*
X015454Y004161D01*
X015205Y003915D02*
X015205Y003905D01*
X014860Y003560D01*
X015098Y003455D02*
X017050Y003455D01*
X017128Y003533D02*
X016727Y003533D01*
X016736Y003612D02*
X017025Y003612D01*
X017135Y003612D02*
X017190Y003612D01*
X016971Y003376D02*
X015044Y003376D01*
X014676Y003376D02*
X012704Y003376D01*
X012626Y003455D02*
X014622Y003455D01*
X014600Y003533D02*
X012547Y003533D01*
X012469Y003612D02*
X014218Y003612D01*
X014706Y003847D02*
X014892Y003847D01*
X015205Y003915D02*
X016242Y003915D01*
X016281Y003875D01*
X016287Y003870D01*
X017080Y003870D01*
X016925Y004083D02*
X016736Y004083D01*
X015826Y003690D02*
X015454Y003690D01*
X015445Y003612D02*
X015826Y003612D01*
X015835Y003533D02*
X015120Y003533D01*
X014280Y004092D02*
X013581Y004092D01*
X013275Y004397D02*
X012380Y004397D01*
X012379Y004475D02*
X013263Y004475D01*
X013244Y004554D02*
X012338Y004554D01*
X012380Y004632D02*
X013244Y004632D01*
X013244Y004711D02*
X012380Y004711D01*
X012668Y004789D02*
X012805Y004789D01*
X012747Y004868D02*
X012726Y004868D01*
X013160Y004789D02*
X013541Y004789D01*
X013244Y004868D02*
X013218Y004868D01*
X013243Y004946D02*
X013244Y004946D01*
X013243Y005025D02*
X013252Y005025D01*
X013213Y005103D02*
X013321Y005103D01*
X013163Y005182D02*
X014209Y005182D01*
X014236Y005260D02*
X013163Y005260D01*
X012582Y006015D02*
X012582Y006214D01*
X012703Y006335D01*
X012902Y006335D01*
X012582Y006015D01*
X012582Y006045D02*
X012613Y006045D01*
X012582Y006124D02*
X012691Y006124D01*
X012770Y006202D02*
X012582Y006202D01*
X012649Y006281D02*
X012848Y006281D01*
X012097Y006239D02*
X012107Y006131D01*
X009470Y005215D02*
X009470Y005130D01*
X009428Y005130D01*
X009380Y005110D01*
X009380Y005125D01*
X009470Y005215D01*
X009470Y005182D02*
X009436Y005182D01*
X008926Y004946D02*
X008587Y004946D01*
X008587Y004868D02*
X009050Y004868D01*
X009190Y004868D02*
X009220Y004868D01*
X009232Y004789D02*
X008587Y004789D01*
X008587Y004711D02*
X009272Y004711D01*
X008290Y004700D02*
X005296Y004694D01*
X004640Y005350D01*
X006099Y004891D02*
X008290Y004900D01*
X008800Y004080D02*
X008626Y003906D01*
X008623Y003910D01*
X007730Y003910D01*
X007734Y003906D01*
X008281Y003906D01*
X008281Y003905D02*
X008281Y003905D01*
X008281Y003905D01*
X008281Y003905D01*
X008281Y003905D01*
X008089Y003906D02*
X007983Y003906D01*
X007983Y003889D01*
X007885Y003889D01*
X007375Y003380D01*
X006517Y003380D01*
X006517Y003420D01*
X006455Y003482D01*
X006463Y003486D01*
X006489Y003512D01*
X006508Y003544D01*
X006517Y003580D01*
X006517Y003707D01*
X006229Y003707D01*
X006229Y003765D01*
X006517Y003765D01*
X006517Y003892D01*
X006509Y003922D01*
X007983Y003920D01*
X007983Y003906D01*
X008089Y003906D01*
X008089Y003906D01*
X007959Y003709D02*
X007450Y003200D01*
X006324Y003200D01*
X006200Y003224D01*
X006483Y003455D02*
X007450Y003455D01*
X007528Y003533D02*
X006501Y003533D01*
X006517Y003612D02*
X007607Y003612D01*
X007685Y003690D02*
X006517Y003690D01*
X006517Y003769D02*
X007764Y003769D01*
X007842Y003847D02*
X006517Y003847D01*
X007959Y003709D02*
X008281Y003709D01*
X009079Y003709D01*
X009140Y003770D01*
X009410Y003770D01*
X009680Y003500D01*
X009246Y003404D02*
X009240Y003410D01*
X009246Y003404D02*
X009246Y002941D01*
X009443Y002941D02*
X009443Y002763D01*
X008750Y002070D01*
X008160Y002070D01*
X007905Y002070D02*
X007850Y002015D01*
X007741Y002060D01*
X007539Y002060D01*
X007351Y001982D01*
X007208Y001839D01*
X007140Y001676D01*
X007072Y001839D01*
X007003Y001908D01*
X007070Y001975D01*
X007070Y001975D01*
X007165Y002070D01*
X007905Y002070D01*
X007877Y002042D02*
X007786Y002042D01*
X007494Y002042D02*
X007136Y002042D01*
X007058Y001963D02*
X007332Y001963D01*
X007253Y001885D02*
X007027Y001885D01*
X007086Y001806D02*
X007194Y001806D01*
X007162Y001728D02*
X007118Y001728D01*
X007135Y001414D02*
X007145Y001414D01*
X007177Y001335D02*
X007103Y001335D01*
X007068Y001257D02*
X007212Y001257D01*
X007291Y001178D02*
X006989Y001178D01*
X006885Y001100D02*
X007395Y001100D01*
X009130Y002040D02*
X009130Y002190D01*
X009640Y002700D01*
X009640Y002941D01*
X009837Y002984D02*
X009837Y002984D01*
X009837Y003062D02*
X009837Y003062D01*
X009837Y003141D02*
X009837Y003141D01*
X009837Y003219D02*
X009837Y003219D01*
X009044Y003238D02*
X008952Y003238D01*
X008951Y003237D01*
X008950Y003238D01*
X008756Y003238D01*
X008754Y003237D01*
X008753Y003238D01*
X008578Y003238D01*
X008578Y003413D01*
X008577Y003414D01*
X008578Y003416D01*
X008578Y003529D01*
X009008Y003529D01*
X008980Y003462D01*
X008980Y003358D01*
X009020Y003263D01*
X009044Y003238D01*
X009005Y003298D02*
X008578Y003298D01*
X008578Y003376D02*
X008980Y003376D01*
X008980Y003455D02*
X008578Y003455D01*
X008461Y003121D02*
X008175Y003121D01*
X007855Y002800D01*
X008435Y002800D01*
X008461Y002825D01*
X008461Y003121D01*
X008461Y003062D02*
X008117Y003062D01*
X008038Y002984D02*
X008461Y002984D01*
X008461Y002905D02*
X007960Y002905D01*
X007881Y002827D02*
X008461Y002827D01*
X008656Y002766D02*
X008510Y002620D01*
X006930Y002620D01*
X006730Y002420D01*
X005980Y002420D01*
X005800Y002240D01*
X005060Y002240D01*
X004870Y002050D01*
X004700Y002430D02*
X004910Y002640D01*
X005610Y002640D01*
X004145Y001414D02*
X004135Y001414D01*
X004103Y001335D02*
X004177Y001335D01*
X004212Y001257D02*
X004068Y001257D01*
X003989Y001178D02*
X004291Y001178D01*
X004395Y001100D02*
X003885Y001100D01*
X003395Y001100D02*
X002885Y001100D01*
X002989Y001178D02*
X003291Y001178D01*
X003212Y001257D02*
X003068Y001257D01*
X003103Y001335D02*
X003177Y001335D01*
X003145Y001414D02*
X003135Y001414D01*
X002395Y001100D02*
X002127Y001100D01*
X002150Y001178D02*
X002291Y001178D01*
X002212Y001257D02*
X002150Y001257D01*
X002150Y001335D02*
X002177Y001335D01*
X008656Y002766D02*
X008656Y002941D01*
X008578Y003926D02*
X009041Y003926D01*
X012783Y003298D02*
X016893Y003298D01*
X017197Y003092D02*
X017380Y003276D01*
X017380Y003194D01*
X017278Y003092D01*
X017197Y003092D01*
X017245Y003141D02*
X017326Y003141D01*
X017323Y003219D02*
X017380Y003219D01*
X017740Y003219D02*
X017744Y003219D01*
X017740Y003141D02*
X017744Y003141D01*
X017740Y003062D02*
X017744Y003062D01*
X017744Y002984D02*
X017678Y002984D01*
X017744Y002905D02*
X017600Y002905D01*
X017521Y002827D02*
X017744Y002827D01*
X017744Y002748D02*
X017443Y002748D01*
X017744Y002670D02*
X016326Y002670D01*
X016350Y002591D02*
X017744Y002591D01*
X017744Y002513D02*
X016392Y002513D01*
X016471Y002434D02*
X017744Y002434D01*
X017744Y002356D02*
X016549Y002356D01*
X016480Y002170D02*
X016090Y002560D01*
X015854Y002670D02*
X014435Y002670D01*
X014372Y002732D02*
X015895Y002732D01*
X015870Y002707D01*
X015830Y002612D01*
X015830Y002508D01*
X015870Y002413D01*
X015943Y002340D01*
X016038Y002300D01*
X016095Y002300D01*
X016397Y001999D01*
X016373Y001986D01*
X016308Y001939D01*
X016251Y001882D01*
X016204Y001817D01*
X016167Y001746D01*
X016143Y001669D01*
X016072Y001839D01*
X015929Y001982D01*
X015741Y002060D01*
X015539Y002060D01*
X015351Y001982D01*
X015208Y001839D01*
X015140Y001676D01*
X015072Y001839D01*
X014929Y001982D01*
X014820Y002027D01*
X014820Y002285D01*
X014715Y002390D01*
X014372Y002732D01*
X014514Y002591D02*
X015830Y002591D01*
X015830Y002513D02*
X014592Y002513D01*
X014671Y002434D02*
X015861Y002434D01*
X015927Y002356D02*
X014749Y002356D01*
X014820Y002277D02*
X016118Y002277D01*
X016197Y002199D02*
X014820Y002199D01*
X014820Y002120D02*
X016275Y002120D01*
X016354Y002042D02*
X015786Y002042D01*
X015948Y001963D02*
X016341Y001963D01*
X016253Y001885D02*
X016027Y001885D01*
X016086Y001806D02*
X016198Y001806D01*
X016161Y001728D02*
X016118Y001728D01*
X016143Y001669D02*
X016143Y001669D01*
X016135Y001414D02*
X016148Y001414D01*
X016177Y001335D02*
X016103Y001335D01*
X016068Y001257D02*
X016223Y001257D01*
X016291Y001178D02*
X015989Y001178D01*
X015885Y001100D02*
X016401Y001100D01*
X016600Y001100D02*
X016680Y001100D01*
X016680Y001178D02*
X016600Y001178D01*
X016600Y001257D02*
X016680Y001257D01*
X016680Y001335D02*
X016600Y001335D01*
X016600Y001414D02*
X016680Y001414D01*
X016680Y001492D02*
X016600Y001492D01*
X017103Y001335D02*
X017177Y001335D01*
X017145Y001414D02*
X017132Y001414D01*
X017057Y001257D02*
X017212Y001257D01*
X017291Y001178D02*
X016989Y001178D01*
X016879Y001100D02*
X017395Y001100D01*
X017885Y001100D02*
X018395Y001100D01*
X018291Y001178D02*
X017989Y001178D01*
X018068Y001257D02*
X018212Y001257D01*
X018177Y001335D02*
X018103Y001335D01*
X018135Y001414D02*
X018145Y001414D01*
X018140Y001676D02*
X018072Y001839D01*
X017929Y001982D01*
X017910Y001990D01*
X018370Y001990D01*
X018351Y001982D01*
X018208Y001839D01*
X018140Y001676D01*
X018118Y001728D02*
X018162Y001728D01*
X018194Y001806D02*
X018086Y001806D01*
X018027Y001885D02*
X018253Y001885D01*
X018332Y001963D02*
X017948Y001963D01*
X017370Y001990D02*
X017351Y001982D01*
X017208Y001839D01*
X017137Y001669D01*
X017137Y001669D01*
X017113Y001746D01*
X017076Y001817D01*
X017029Y001882D01*
X016972Y001939D01*
X016907Y001986D01*
X016900Y001990D01*
X017370Y001990D01*
X017332Y001963D02*
X016939Y001963D01*
X017027Y001885D02*
X017253Y001885D01*
X017194Y001806D02*
X017082Y001806D01*
X017119Y001728D02*
X017162Y001728D01*
X016480Y002170D02*
X018910Y002170D01*
X019080Y002000D01*
X019544Y002000D01*
X019545Y001999D01*
X019852Y001963D02*
X019867Y001963D01*
X019867Y001885D02*
X019852Y001885D01*
X019852Y001806D02*
X019867Y001806D01*
X019944Y001728D02*
X019775Y001728D01*
X019314Y001728D02*
X019118Y001728D01*
X019086Y001806D02*
X019237Y001806D01*
X019852Y002042D02*
X019867Y002042D01*
X020482Y002042D02*
X021100Y002042D01*
X021100Y002120D02*
X020482Y002120D01*
X020479Y002199D02*
X021100Y002199D01*
X021100Y001963D02*
X020482Y001963D01*
X020743Y001885D02*
X021100Y001885D01*
X021100Y001806D02*
X020798Y001806D01*
X020820Y001728D02*
X021100Y001728D01*
X021100Y001649D02*
X020820Y001649D01*
X020788Y001571D02*
X021100Y001571D01*
X021100Y001492D02*
X020720Y001492D01*
X019319Y002278D02*
X019237Y002196D01*
X019237Y002180D01*
X019155Y002180D01*
X019090Y002245D01*
X019008Y002327D01*
X019008Y003048D01*
X019330Y002725D01*
X019330Y002590D01*
X019435Y002484D01*
X019435Y002484D01*
X019642Y002278D01*
X019319Y002278D01*
X019318Y002277D02*
X019058Y002277D01*
X019008Y002356D02*
X019564Y002356D01*
X019486Y002434D02*
X019008Y002434D01*
X019008Y002513D02*
X019407Y002513D01*
X019330Y002591D02*
X019008Y002591D01*
X019008Y002670D02*
X019330Y002670D01*
X019307Y002748D02*
X019008Y002748D01*
X019008Y002827D02*
X019229Y002827D01*
X019150Y002905D02*
X019008Y002905D01*
X019008Y002984D02*
X019072Y002984D01*
X019346Y003219D02*
X019909Y003219D01*
X019909Y003141D02*
X019424Y003141D01*
X019503Y003062D02*
X019909Y003062D01*
X019909Y002984D02*
X019581Y002984D01*
X019660Y002905D02*
X019909Y002905D01*
X019909Y002827D02*
X019690Y002827D01*
X019690Y002748D02*
X019909Y002748D01*
X019909Y002670D02*
X019759Y002670D01*
X019838Y002591D02*
X019909Y002591D01*
X019240Y002199D02*
X019136Y002199D01*
X019267Y003298D02*
X019976Y003298D01*
X019629Y003504D02*
X019677Y003621D01*
X019677Y003747D01*
X019629Y003864D01*
X019540Y003953D01*
X019423Y004001D01*
X019297Y004001D01*
X019180Y003953D01*
X019091Y003864D01*
X019043Y003747D01*
X019043Y003621D01*
X019091Y003504D01*
X019180Y003415D01*
X019297Y003367D01*
X019423Y003367D01*
X019540Y003415D01*
X019629Y003504D01*
X019641Y003533D02*
X021100Y003533D01*
X021100Y003455D02*
X019579Y003455D01*
X019446Y003376D02*
X021100Y003376D01*
X021100Y003612D02*
X019673Y003612D01*
X019677Y003690D02*
X021100Y003690D01*
X021100Y003769D02*
X019668Y003769D01*
X019636Y003847D02*
X021100Y003847D01*
X021100Y003926D02*
X019567Y003926D01*
X019153Y003926D02*
X019008Y003926D01*
X019008Y004004D02*
X021100Y004004D01*
X021100Y004083D02*
X019008Y004083D01*
X019008Y004161D02*
X021100Y004161D01*
X019274Y003376D02*
X019189Y003376D01*
X019141Y003455D02*
X019110Y003455D01*
X019079Y003533D02*
X019032Y003533D01*
X019047Y003612D02*
X018953Y003612D01*
X018934Y003690D02*
X019043Y003690D01*
X019052Y003769D02*
X019008Y003769D01*
X019008Y003847D02*
X019084Y003847D01*
X018508Y003533D02*
X017740Y003533D01*
X017740Y003455D02*
X018587Y003455D01*
X018679Y003376D02*
X017740Y003376D01*
X017740Y003298D02*
X017811Y003298D01*
X015494Y002042D02*
X014820Y002042D01*
X014948Y001963D02*
X015332Y001963D01*
X015253Y001885D02*
X015027Y001885D01*
X015086Y001806D02*
X015194Y001806D01*
X015162Y001728D02*
X015118Y001728D01*
X015135Y001414D02*
X015145Y001414D01*
X015177Y001335D02*
X015103Y001335D01*
X015068Y001257D02*
X015212Y001257D01*
X015291Y001178D02*
X014989Y001178D01*
X014885Y001100D02*
X015395Y001100D01*
X015758Y006124D02*
X015957Y006124D01*
X017133Y007694D02*
X017147Y007694D01*
X017180Y007772D02*
X017100Y007772D01*
X017061Y007851D02*
X017219Y007851D01*
X017298Y007929D02*
X016982Y007929D01*
X016868Y008008D02*
X017412Y008008D01*
X017868Y008008D02*
X018412Y008008D01*
X018298Y007929D02*
X017982Y007929D01*
X018061Y007851D02*
X018219Y007851D01*
X018180Y007772D02*
X018100Y007772D01*
X018133Y007694D02*
X018147Y007694D01*
X018868Y008008D02*
X019412Y008008D01*
X019298Y007929D02*
X018982Y007929D01*
X019061Y007851D02*
X019219Y007851D01*
X019180Y007772D02*
X019100Y007772D01*
X019133Y007694D02*
X019147Y007694D01*
X020803Y007066D02*
X021100Y007066D01*
X021100Y007144D02*
X020955Y007144D01*
X021034Y007223D02*
X021100Y007223D01*
X021089Y007301D02*
X021100Y007301D01*
X021100Y007851D02*
X021061Y007851D01*
X021100Y007929D02*
X020982Y007929D01*
X002184Y006752D02*
X001180Y006752D01*
X001180Y006830D02*
X002105Y006830D01*
X002027Y006909D02*
X001180Y006909D01*
X001180Y006987D02*
X001948Y006987D01*
X001186Y007066D02*
X001180Y007066D01*
M02*
