G75*
G70*
%OFA0B0*%
%FSLAX24Y24*%
%IPPOS*%
%LPD*%
%AMOC8*
5,1,8,0,0,1.08239X$1,22.5*
%
%ADD10C,0.0004*%
D10*
X018229Y002555D02*
X018218Y002588D01*
X018214Y002623D01*
X018218Y002658D01*
X018229Y002691D01*
X018248Y002721D01*
X018849Y002721D01*
X018867Y002691D01*
X018879Y002658D01*
X018883Y002623D01*
X018879Y002588D01*
X018867Y002555D01*
X018849Y002525D01*
X018824Y002500D01*
X018794Y002481D01*
X018761Y002469D01*
X018726Y002466D01*
X018371Y002466D01*
X018336Y002469D01*
X018303Y002481D01*
X018273Y002500D01*
X018248Y002525D01*
X018229Y002555D01*
X018868Y002555D01*
X018866Y002553D02*
X018230Y002553D01*
X018232Y002550D02*
X018865Y002550D01*
X018863Y002548D02*
X018234Y002548D01*
X018235Y002546D02*
X018862Y002546D01*
X018860Y002543D02*
X018237Y002543D01*
X018238Y002541D02*
X018859Y002541D01*
X018857Y002538D02*
X018240Y002538D01*
X018241Y002536D02*
X018856Y002536D01*
X018854Y002533D02*
X018243Y002533D01*
X018244Y002531D02*
X018853Y002531D01*
X018851Y002529D02*
X018246Y002529D01*
X018247Y002526D02*
X018850Y002526D01*
X018848Y002524D02*
X018249Y002524D01*
X018252Y002521D02*
X018845Y002521D01*
X018843Y002519D02*
X018254Y002519D01*
X018257Y002516D02*
X018840Y002516D01*
X018838Y002514D02*
X018259Y002514D01*
X018261Y002511D02*
X018835Y002511D01*
X018833Y002509D02*
X018264Y002509D01*
X018266Y002507D02*
X018830Y002507D01*
X018828Y002504D02*
X018269Y002504D01*
X018271Y002502D02*
X018826Y002502D01*
X018823Y002499D02*
X018274Y002499D01*
X018278Y002497D02*
X018819Y002497D01*
X018815Y002494D02*
X018282Y002494D01*
X018286Y002492D02*
X018811Y002492D01*
X018807Y002490D02*
X018290Y002490D01*
X018293Y002487D02*
X018803Y002487D01*
X018800Y002485D02*
X018297Y002485D01*
X018301Y002482D02*
X018796Y002482D01*
X018790Y002480D02*
X018307Y002480D01*
X018314Y002477D02*
X018783Y002477D01*
X018776Y002475D02*
X018321Y002475D01*
X018328Y002472D02*
X018769Y002472D01*
X018762Y002470D02*
X018335Y002470D01*
X018353Y002468D02*
X018744Y002468D01*
X018726Y002466D02*
X018371Y002466D01*
X018228Y002558D02*
X018869Y002558D01*
X018869Y002560D02*
X018227Y002560D01*
X018227Y002563D02*
X018870Y002563D01*
X018871Y002565D02*
X018226Y002565D01*
X018225Y002568D02*
X018872Y002568D01*
X018873Y002570D02*
X018224Y002570D01*
X018223Y002572D02*
X018874Y002572D01*
X018875Y002575D02*
X018222Y002575D01*
X018221Y002577D02*
X018875Y002577D01*
X018876Y002580D02*
X018221Y002580D01*
X018220Y002582D02*
X018877Y002582D01*
X018878Y002585D02*
X018219Y002585D01*
X018218Y002587D02*
X018879Y002587D01*
X018879Y002589D02*
X018218Y002589D01*
X018217Y002592D02*
X018880Y002592D01*
X018880Y002594D02*
X018217Y002594D01*
X018217Y002597D02*
X018880Y002597D01*
X018880Y002599D02*
X018216Y002599D01*
X018216Y002602D02*
X018881Y002602D01*
X018881Y002604D02*
X018216Y002604D01*
X018216Y002607D02*
X018881Y002607D01*
X018881Y002609D02*
X018215Y002609D01*
X018215Y002611D02*
X018882Y002611D01*
X018882Y002614D02*
X018215Y002614D01*
X018215Y002616D02*
X018882Y002616D01*
X018883Y002619D02*
X018214Y002619D01*
X018214Y002621D02*
X018883Y002621D01*
X018883Y002624D02*
X018214Y002624D01*
X018214Y002626D02*
X018883Y002626D01*
X018882Y002628D02*
X018214Y002628D01*
X018215Y002631D02*
X018882Y002631D01*
X018882Y002633D02*
X018215Y002633D01*
X018215Y002636D02*
X018882Y002636D01*
X018881Y002638D02*
X018215Y002638D01*
X018216Y002641D02*
X018881Y002641D01*
X018881Y002643D02*
X018216Y002643D01*
X018216Y002645D02*
X018881Y002645D01*
X018880Y002648D02*
X018217Y002648D01*
X018217Y002650D02*
X018880Y002650D01*
X018880Y002653D02*
X018217Y002653D01*
X018217Y002655D02*
X018879Y002655D01*
X018879Y002658D02*
X018218Y002658D01*
X018218Y002660D02*
X018878Y002660D01*
X018878Y002663D02*
X018219Y002663D01*
X018220Y002665D02*
X018877Y002665D01*
X018876Y002667D02*
X018221Y002667D01*
X018222Y002670D02*
X018875Y002670D01*
X018874Y002672D02*
X018223Y002672D01*
X018224Y002675D02*
X018873Y002675D01*
X018872Y002677D02*
X018224Y002677D01*
X018225Y002680D02*
X018872Y002680D01*
X018871Y002682D02*
X018226Y002682D01*
X018227Y002684D02*
X018870Y002684D01*
X018869Y002687D02*
X018228Y002687D01*
X018229Y002689D02*
X018868Y002689D01*
X018867Y002692D02*
X018230Y002692D01*
X018231Y002694D02*
X018866Y002694D01*
X018864Y002697D02*
X018233Y002697D01*
X018234Y002699D02*
X018863Y002699D01*
X018861Y002702D02*
X018236Y002702D01*
X018237Y002704D02*
X018860Y002704D01*
X018858Y002706D02*
X018239Y002706D01*
X018240Y002709D02*
X018856Y002709D01*
X018855Y002711D02*
X018242Y002711D01*
X018243Y002714D02*
X018853Y002714D01*
X018852Y002716D02*
X018245Y002716D01*
X018247Y002719D02*
X018850Y002719D01*
X018849Y002721D02*
X018824Y002746D01*
X018794Y002765D01*
X018761Y002777D01*
X018726Y002780D01*
X018371Y002780D01*
X018336Y002777D01*
X018303Y002765D01*
X018794Y002765D01*
X018798Y002762D02*
X018299Y002762D01*
X018295Y002760D02*
X018802Y002760D01*
X018805Y002758D02*
X018291Y002758D01*
X018287Y002755D02*
X018809Y002755D01*
X018813Y002753D02*
X018284Y002753D01*
X018280Y002750D02*
X018817Y002750D01*
X018821Y002748D02*
X018276Y002748D01*
X018273Y002746D02*
X018303Y002765D01*
X018310Y002767D02*
X018787Y002767D01*
X018780Y002770D02*
X018317Y002770D01*
X018324Y002772D02*
X018773Y002772D01*
X018766Y002775D02*
X018331Y002775D01*
X018341Y002777D02*
X018755Y002777D01*
X018734Y002780D02*
X018363Y002780D01*
X018371Y002780D02*
X018726Y002780D01*
X018824Y002745D02*
X018272Y002745D01*
X018273Y002746D02*
X018248Y002721D01*
X018250Y002723D02*
X018846Y002723D01*
X018844Y002726D02*
X018253Y002726D01*
X018255Y002728D02*
X018842Y002728D01*
X018839Y002731D02*
X018258Y002731D01*
X018260Y002733D02*
X018837Y002733D01*
X018834Y002736D02*
X018263Y002736D01*
X018265Y002738D02*
X018832Y002738D01*
X018829Y002741D02*
X018268Y002741D01*
X018270Y002743D02*
X018827Y002743D01*
X020300Y002623D02*
X020304Y002658D01*
X020316Y002691D01*
X020335Y002721D01*
X020360Y002746D01*
X020390Y002765D01*
X020880Y002765D01*
X020881Y002765D02*
X020910Y002746D01*
X020935Y002721D01*
X020954Y002691D01*
X020966Y002658D01*
X020970Y002623D01*
X020966Y002588D01*
X020954Y002555D01*
X020935Y002525D01*
X020910Y002500D01*
X020881Y002481D01*
X020847Y002469D01*
X020812Y002466D01*
X020458Y002466D01*
X020423Y002469D01*
X020390Y002481D01*
X020360Y002500D01*
X020335Y002525D01*
X020316Y002555D01*
X020304Y002588D01*
X020300Y002623D01*
X020300Y002624D02*
X020970Y002624D01*
X020969Y002626D02*
X020301Y002626D01*
X020301Y002628D02*
X020969Y002628D01*
X020969Y002631D02*
X020301Y002631D01*
X020302Y002633D02*
X020969Y002633D01*
X020968Y002636D02*
X020302Y002636D01*
X020302Y002638D02*
X020968Y002638D01*
X020968Y002641D02*
X020302Y002641D01*
X020303Y002643D02*
X020967Y002643D01*
X020967Y002645D02*
X020303Y002645D01*
X020303Y002648D02*
X020967Y002648D01*
X020967Y002650D02*
X020303Y002650D01*
X020304Y002653D02*
X020966Y002653D01*
X020966Y002655D02*
X020304Y002655D01*
X020304Y002658D02*
X020966Y002658D01*
X020965Y002660D02*
X020305Y002660D01*
X020306Y002663D02*
X020964Y002663D01*
X020963Y002665D02*
X020307Y002665D01*
X020308Y002667D02*
X020962Y002667D01*
X020962Y002670D02*
X020308Y002670D01*
X020309Y002672D02*
X020961Y002672D01*
X020960Y002675D02*
X020310Y002675D01*
X020311Y002677D02*
X020959Y002677D01*
X020958Y002680D02*
X020312Y002680D01*
X020313Y002682D02*
X020957Y002682D01*
X020956Y002684D02*
X020314Y002684D01*
X020314Y002687D02*
X020956Y002687D01*
X020955Y002689D02*
X020315Y002689D01*
X020316Y002692D02*
X020954Y002692D01*
X020952Y002694D02*
X020318Y002694D01*
X020319Y002697D02*
X020951Y002697D01*
X020949Y002699D02*
X020321Y002699D01*
X020322Y002702D02*
X020948Y002702D01*
X020946Y002704D02*
X020324Y002704D01*
X020325Y002706D02*
X020945Y002706D01*
X020943Y002709D02*
X020327Y002709D01*
X020329Y002711D02*
X020942Y002711D01*
X020940Y002714D02*
X020330Y002714D01*
X020332Y002716D02*
X020938Y002716D01*
X020937Y002719D02*
X020333Y002719D01*
X020335Y002721D02*
X020935Y002721D01*
X020933Y002723D02*
X020337Y002723D01*
X020339Y002726D02*
X020931Y002726D01*
X020928Y002728D02*
X020342Y002728D01*
X020344Y002731D02*
X020926Y002731D01*
X020923Y002733D02*
X020347Y002733D01*
X020349Y002736D02*
X020921Y002736D01*
X020918Y002738D02*
X020352Y002738D01*
X020354Y002741D02*
X020916Y002741D01*
X020914Y002743D02*
X020357Y002743D01*
X020359Y002745D02*
X020911Y002745D01*
X020908Y002748D02*
X020362Y002748D01*
X020366Y002750D02*
X020904Y002750D01*
X020900Y002753D02*
X020370Y002753D01*
X020374Y002755D02*
X020896Y002755D01*
X020892Y002758D02*
X020378Y002758D01*
X020382Y002760D02*
X020888Y002760D01*
X020884Y002762D02*
X020386Y002762D01*
X020390Y002765D02*
X020423Y002777D01*
X020458Y002780D01*
X020812Y002780D01*
X020847Y002777D01*
X020881Y002765D01*
X020873Y002767D02*
X020397Y002767D01*
X020404Y002770D02*
X020866Y002770D01*
X020860Y002772D02*
X020411Y002772D01*
X020418Y002775D02*
X020853Y002775D01*
X020842Y002777D02*
X020428Y002777D01*
X020450Y002780D02*
X020820Y002780D01*
X020812Y002780D02*
X020458Y002780D01*
X020301Y002621D02*
X020969Y002621D01*
X020969Y002619D02*
X020301Y002619D01*
X020301Y002616D02*
X020969Y002616D01*
X020969Y002614D02*
X020301Y002614D01*
X020302Y002611D02*
X020968Y002611D01*
X020968Y002609D02*
X020302Y002609D01*
X020302Y002607D02*
X020968Y002607D01*
X020968Y002604D02*
X020303Y002604D01*
X020303Y002602D02*
X020967Y002602D01*
X020967Y002599D02*
X020303Y002599D01*
X020303Y002597D02*
X020967Y002597D01*
X020966Y002594D02*
X020304Y002594D01*
X020304Y002592D02*
X020966Y002592D01*
X020966Y002589D02*
X020304Y002589D01*
X020305Y002587D02*
X020965Y002587D01*
X020965Y002585D02*
X020306Y002585D01*
X020306Y002582D02*
X020964Y002582D01*
X020963Y002580D02*
X020307Y002580D01*
X020308Y002577D02*
X020962Y002577D01*
X020961Y002575D02*
X020309Y002575D01*
X020310Y002572D02*
X020960Y002572D01*
X020959Y002570D02*
X020311Y002570D01*
X020311Y002568D02*
X020959Y002568D01*
X020958Y002565D02*
X020312Y002565D01*
X020313Y002563D02*
X020957Y002563D01*
X020956Y002560D02*
X020314Y002560D01*
X020315Y002558D02*
X020955Y002558D01*
X020954Y002555D02*
X020316Y002555D01*
X020317Y002553D02*
X020953Y002553D01*
X020951Y002550D02*
X020319Y002550D01*
X020320Y002548D02*
X020950Y002548D01*
X020948Y002546D02*
X020322Y002546D01*
X020323Y002543D02*
X020947Y002543D01*
X020945Y002541D02*
X020325Y002541D01*
X020326Y002538D02*
X020944Y002538D01*
X020942Y002536D02*
X020328Y002536D01*
X020329Y002533D02*
X020941Y002533D01*
X020939Y002531D02*
X020331Y002531D01*
X020332Y002529D02*
X020938Y002529D01*
X020936Y002526D02*
X020334Y002526D01*
X020336Y002524D02*
X020934Y002524D01*
X020932Y002521D02*
X020338Y002521D01*
X020341Y002519D02*
X020929Y002519D01*
X020927Y002516D02*
X020343Y002516D01*
X020346Y002514D02*
X020924Y002514D01*
X020922Y002511D02*
X020348Y002511D01*
X020351Y002509D02*
X020920Y002509D01*
X020917Y002507D02*
X020353Y002507D01*
X020355Y002504D02*
X020915Y002504D01*
X020912Y002502D02*
X020358Y002502D01*
X020361Y002499D02*
X020909Y002499D01*
X020906Y002497D02*
X020365Y002497D01*
X020368Y002494D02*
X020902Y002494D01*
X020898Y002492D02*
X020372Y002492D01*
X020376Y002490D02*
X020894Y002490D01*
X020890Y002487D02*
X020380Y002487D01*
X020384Y002485D02*
X020886Y002485D01*
X020882Y002482D02*
X020388Y002482D01*
X020393Y002480D02*
X020877Y002480D01*
X020870Y002477D02*
X020400Y002477D01*
X020407Y002475D02*
X020863Y002475D01*
X020856Y002472D02*
X020414Y002472D01*
X020421Y002470D02*
X020849Y002470D01*
X020831Y002468D02*
X020440Y002468D01*
X020458Y002466D02*
X020812Y002466D01*
X020812Y005340D02*
X020458Y005340D01*
X020423Y005343D01*
X020390Y005355D01*
X020360Y005374D01*
X020335Y005399D01*
X020316Y005429D01*
X020954Y005429D01*
X020935Y005399D01*
X020910Y005374D01*
X020881Y005355D01*
X020847Y005343D01*
X020812Y005340D01*
X020458Y005340D01*
X020444Y005341D02*
X020826Y005341D01*
X020847Y005344D02*
X020423Y005344D01*
X020416Y005346D02*
X020854Y005346D01*
X020861Y005348D02*
X020409Y005348D01*
X020402Y005351D02*
X020868Y005351D01*
X020875Y005353D02*
X020395Y005353D01*
X020389Y005356D02*
X020881Y005356D01*
X020885Y005358D02*
X020385Y005358D01*
X020381Y005361D02*
X020889Y005361D01*
X020893Y005363D02*
X020377Y005363D01*
X020373Y005365D02*
X020897Y005365D01*
X020901Y005368D02*
X020369Y005368D01*
X020365Y005370D02*
X020905Y005370D01*
X020909Y005373D02*
X020361Y005373D01*
X020358Y005375D02*
X020912Y005375D01*
X020914Y005378D02*
X020356Y005378D01*
X020353Y005380D02*
X020917Y005380D01*
X020919Y005383D02*
X020351Y005383D01*
X020349Y005385D02*
X020921Y005385D01*
X020924Y005387D02*
X020346Y005387D01*
X020344Y005390D02*
X020926Y005390D01*
X020929Y005392D02*
X020341Y005392D01*
X020339Y005395D02*
X020931Y005395D01*
X020934Y005397D02*
X020336Y005397D01*
X020334Y005400D02*
X020936Y005400D01*
X020937Y005402D02*
X020333Y005402D01*
X020331Y005404D02*
X020939Y005404D01*
X020940Y005407D02*
X020330Y005407D01*
X020328Y005409D02*
X020942Y005409D01*
X020943Y005412D02*
X020327Y005412D01*
X020325Y005414D02*
X020945Y005414D01*
X020947Y005417D02*
X020324Y005417D01*
X020322Y005419D02*
X020948Y005419D01*
X020950Y005422D02*
X020320Y005422D01*
X020319Y005424D02*
X020951Y005424D01*
X020953Y005426D02*
X020317Y005426D01*
X020316Y005429D02*
X020304Y005462D01*
X020300Y005497D01*
X020304Y005532D01*
X020316Y005565D01*
X020954Y005565D01*
X020966Y005532D01*
X020970Y005497D01*
X020966Y005462D01*
X020954Y005429D01*
X020955Y005431D02*
X020315Y005431D01*
X020314Y005434D02*
X020956Y005434D01*
X020957Y005436D02*
X020313Y005436D01*
X020313Y005439D02*
X020958Y005439D01*
X020958Y005441D02*
X020312Y005441D01*
X020311Y005443D02*
X020959Y005443D01*
X020960Y005446D02*
X020310Y005446D01*
X020309Y005448D02*
X020961Y005448D01*
X020962Y005451D02*
X020308Y005451D01*
X020307Y005453D02*
X020963Y005453D01*
X020964Y005456D02*
X020307Y005456D01*
X020306Y005458D02*
X020964Y005458D01*
X020965Y005461D02*
X020305Y005461D01*
X020304Y005463D02*
X020966Y005463D01*
X020966Y005465D02*
X020304Y005465D01*
X020304Y005468D02*
X020966Y005468D01*
X020967Y005470D02*
X020303Y005470D01*
X020303Y005473D02*
X020967Y005473D01*
X020967Y005475D02*
X020303Y005475D01*
X020303Y005478D02*
X020967Y005478D01*
X020968Y005480D02*
X020302Y005480D01*
X020302Y005482D02*
X020968Y005482D01*
X020968Y005485D02*
X020302Y005485D01*
X020301Y005487D02*
X020969Y005487D01*
X020969Y005490D02*
X020301Y005490D01*
X020301Y005492D02*
X020969Y005492D01*
X020969Y005495D02*
X020301Y005495D01*
X020300Y005497D02*
X020970Y005497D01*
X020969Y005500D02*
X020301Y005500D01*
X020301Y005502D02*
X020969Y005502D01*
X020969Y005504D02*
X020301Y005504D01*
X020301Y005507D02*
X020969Y005507D01*
X020968Y005509D02*
X020302Y005509D01*
X020302Y005512D02*
X020968Y005512D01*
X020968Y005514D02*
X020302Y005514D01*
X020303Y005517D02*
X020967Y005517D01*
X020967Y005519D02*
X020303Y005519D01*
X020303Y005521D02*
X020967Y005521D01*
X020967Y005524D02*
X020303Y005524D01*
X020304Y005526D02*
X020966Y005526D01*
X020966Y005529D02*
X020304Y005529D01*
X020304Y005531D02*
X020966Y005531D01*
X020965Y005534D02*
X020305Y005534D01*
X020306Y005536D02*
X020964Y005536D01*
X020963Y005539D02*
X020307Y005539D01*
X020307Y005541D02*
X020963Y005541D01*
X020962Y005543D02*
X020308Y005543D01*
X020309Y005546D02*
X020961Y005546D01*
X020960Y005548D02*
X020310Y005548D01*
X020311Y005551D02*
X020959Y005551D01*
X020958Y005553D02*
X020312Y005553D01*
X020313Y005556D02*
X020958Y005556D01*
X020957Y005558D02*
X020313Y005558D01*
X020314Y005560D02*
X020956Y005560D01*
X020955Y005563D02*
X020315Y005563D01*
X020316Y005565D02*
X020335Y005595D01*
X020360Y005620D01*
X020390Y005639D01*
X020423Y005651D01*
X020458Y005654D01*
X020812Y005654D01*
X020847Y005651D01*
X020881Y005639D01*
X020910Y005620D01*
X020935Y005595D01*
X020954Y005565D01*
X020953Y005568D02*
X020318Y005568D01*
X020319Y005570D02*
X020951Y005570D01*
X020950Y005573D02*
X020321Y005573D01*
X020322Y005575D02*
X020948Y005575D01*
X020946Y005578D02*
X020324Y005578D01*
X020325Y005580D02*
X020945Y005580D01*
X020943Y005582D02*
X020327Y005582D01*
X020328Y005585D02*
X020942Y005585D01*
X020940Y005587D02*
X020330Y005587D01*
X020331Y005590D02*
X020939Y005590D01*
X020937Y005592D02*
X020333Y005592D01*
X020334Y005595D02*
X020936Y005595D01*
X020934Y005597D02*
X020337Y005597D01*
X020339Y005599D02*
X020931Y005599D01*
X020929Y005602D02*
X020341Y005602D01*
X020344Y005604D02*
X020926Y005604D01*
X020924Y005607D02*
X020346Y005607D01*
X020349Y005609D02*
X020921Y005609D01*
X020919Y005612D02*
X020351Y005612D01*
X020354Y005614D02*
X020916Y005614D01*
X020914Y005617D02*
X020356Y005617D01*
X020359Y005619D02*
X020912Y005619D01*
X020908Y005621D02*
X020362Y005621D01*
X020366Y005624D02*
X020905Y005624D01*
X020901Y005626D02*
X020369Y005626D01*
X020373Y005629D02*
X020897Y005629D01*
X020893Y005631D02*
X020377Y005631D01*
X020381Y005634D02*
X020889Y005634D01*
X020885Y005636D02*
X020385Y005636D01*
X020389Y005638D02*
X020881Y005638D01*
X020875Y005641D02*
X020395Y005641D01*
X020402Y005643D02*
X020868Y005643D01*
X020861Y005646D02*
X020409Y005646D01*
X020416Y005648D02*
X020854Y005648D01*
X020846Y005651D02*
X020424Y005651D01*
X020445Y005653D02*
X020825Y005653D01*
X020812Y005654D02*
X020458Y005654D01*
X018883Y005497D02*
X018879Y005462D01*
X018867Y005429D01*
X018868Y005429D02*
X018229Y005429D01*
X018218Y005462D01*
X018214Y005497D01*
X018218Y005532D01*
X018229Y005565D01*
X018867Y005565D01*
X018879Y005532D01*
X018883Y005497D01*
X018214Y005497D01*
X018214Y005495D02*
X018883Y005495D01*
X018883Y005492D02*
X018214Y005492D01*
X018215Y005490D02*
X018882Y005490D01*
X018882Y005487D02*
X018215Y005487D01*
X018215Y005485D02*
X018882Y005485D01*
X018881Y005482D02*
X018215Y005482D01*
X018216Y005480D02*
X018881Y005480D01*
X018881Y005478D02*
X018216Y005478D01*
X018216Y005475D02*
X018881Y005475D01*
X018880Y005473D02*
X018217Y005473D01*
X018217Y005470D02*
X018880Y005470D01*
X018880Y005468D02*
X018217Y005468D01*
X018217Y005465D02*
X018880Y005465D01*
X018879Y005463D02*
X018218Y005463D01*
X018218Y005461D02*
X018879Y005461D01*
X018878Y005458D02*
X018219Y005458D01*
X018220Y005456D02*
X018877Y005456D01*
X018876Y005453D02*
X018221Y005453D01*
X018222Y005451D02*
X018875Y005451D01*
X018874Y005448D02*
X018222Y005448D01*
X018223Y005446D02*
X018874Y005446D01*
X018873Y005443D02*
X018224Y005443D01*
X018225Y005441D02*
X018872Y005441D01*
X018871Y005439D02*
X018226Y005439D01*
X018227Y005436D02*
X018870Y005436D01*
X018869Y005434D02*
X018228Y005434D01*
X018228Y005431D02*
X018868Y005431D01*
X018867Y005429D02*
X018849Y005399D01*
X018824Y005374D01*
X018794Y005355D01*
X018761Y005343D01*
X018761Y005344D02*
X018336Y005344D01*
X018336Y005343D02*
X018303Y005355D01*
X018273Y005374D01*
X018248Y005399D01*
X018229Y005429D01*
X018231Y005426D02*
X018866Y005426D01*
X018865Y005424D02*
X018232Y005424D01*
X018234Y005422D02*
X018863Y005422D01*
X018861Y005419D02*
X018235Y005419D01*
X018237Y005417D02*
X018860Y005417D01*
X018858Y005414D02*
X018238Y005414D01*
X018240Y005412D02*
X018857Y005412D01*
X018855Y005409D02*
X018242Y005409D01*
X018243Y005407D02*
X018854Y005407D01*
X018852Y005404D02*
X018245Y005404D01*
X018246Y005402D02*
X018851Y005402D01*
X018849Y005400D02*
X018248Y005400D01*
X018250Y005397D02*
X018847Y005397D01*
X018845Y005395D02*
X018252Y005395D01*
X018255Y005392D02*
X018842Y005392D01*
X018840Y005390D02*
X018257Y005390D01*
X018260Y005387D02*
X018837Y005387D01*
X018835Y005385D02*
X018262Y005385D01*
X018264Y005383D02*
X018832Y005383D01*
X018830Y005380D02*
X018267Y005380D01*
X018269Y005378D02*
X018828Y005378D01*
X018825Y005375D02*
X018272Y005375D01*
X018275Y005373D02*
X018822Y005373D01*
X018818Y005370D02*
X018279Y005370D01*
X018283Y005368D02*
X018814Y005368D01*
X018810Y005365D02*
X018286Y005365D01*
X018290Y005363D02*
X018807Y005363D01*
X018803Y005361D02*
X018294Y005361D01*
X018298Y005358D02*
X018799Y005358D01*
X018795Y005356D02*
X018302Y005356D01*
X018308Y005353D02*
X018789Y005353D01*
X018782Y005351D02*
X018315Y005351D01*
X018322Y005348D02*
X018775Y005348D01*
X018768Y005346D02*
X018329Y005346D01*
X018336Y005343D02*
X018371Y005340D01*
X018726Y005340D01*
X018761Y005343D01*
X018740Y005341D02*
X018357Y005341D01*
X018371Y005340D02*
X018726Y005340D01*
X018883Y005500D02*
X018214Y005500D01*
X018214Y005502D02*
X018883Y005502D01*
X018882Y005504D02*
X018215Y005504D01*
X018215Y005507D02*
X018882Y005507D01*
X018882Y005509D02*
X018215Y005509D01*
X018215Y005512D02*
X018881Y005512D01*
X018881Y005514D02*
X018216Y005514D01*
X018216Y005517D02*
X018881Y005517D01*
X018881Y005519D02*
X018216Y005519D01*
X018217Y005521D02*
X018880Y005521D01*
X018880Y005524D02*
X018217Y005524D01*
X018217Y005526D02*
X018880Y005526D01*
X018879Y005529D02*
X018217Y005529D01*
X018218Y005531D02*
X018879Y005531D01*
X018879Y005534D02*
X018218Y005534D01*
X018219Y005536D02*
X018878Y005536D01*
X018877Y005539D02*
X018220Y005539D01*
X018221Y005541D02*
X018876Y005541D01*
X018875Y005543D02*
X018222Y005543D01*
X018223Y005546D02*
X018874Y005546D01*
X018873Y005548D02*
X018223Y005548D01*
X018224Y005551D02*
X018873Y005551D01*
X018872Y005553D02*
X018225Y005553D01*
X018226Y005556D02*
X018871Y005556D01*
X018870Y005558D02*
X018227Y005558D01*
X018228Y005560D02*
X018869Y005560D01*
X018868Y005563D02*
X018229Y005563D01*
X018229Y005565D02*
X018248Y005595D01*
X018273Y005620D01*
X018303Y005639D01*
X018336Y005651D01*
X018371Y005654D01*
X018726Y005654D01*
X018761Y005651D01*
X018794Y005639D01*
X018824Y005620D01*
X018849Y005595D01*
X018867Y005565D01*
X018866Y005568D02*
X018231Y005568D01*
X018232Y005570D02*
X018864Y005570D01*
X018863Y005573D02*
X018234Y005573D01*
X018235Y005575D02*
X018861Y005575D01*
X018860Y005578D02*
X018237Y005578D01*
X018239Y005580D02*
X018858Y005580D01*
X018857Y005582D02*
X018240Y005582D01*
X018242Y005585D02*
X018855Y005585D01*
X018854Y005587D02*
X018243Y005587D01*
X018245Y005590D02*
X018852Y005590D01*
X018851Y005592D02*
X018246Y005592D01*
X018248Y005595D02*
X018849Y005595D01*
X018847Y005597D02*
X018250Y005597D01*
X018252Y005599D02*
X018844Y005599D01*
X018842Y005602D02*
X018255Y005602D01*
X018257Y005604D02*
X018840Y005604D01*
X018837Y005607D02*
X018260Y005607D01*
X018262Y005609D02*
X018835Y005609D01*
X018832Y005612D02*
X018265Y005612D01*
X018267Y005614D02*
X018830Y005614D01*
X018827Y005617D02*
X018269Y005617D01*
X018272Y005619D02*
X018825Y005619D01*
X018822Y005621D02*
X018275Y005621D01*
X018279Y005624D02*
X018818Y005624D01*
X018814Y005626D02*
X018283Y005626D01*
X018287Y005629D02*
X018810Y005629D01*
X018806Y005631D02*
X018291Y005631D01*
X018294Y005634D02*
X018802Y005634D01*
X018799Y005636D02*
X018298Y005636D01*
X018302Y005638D02*
X018795Y005638D01*
X018788Y005641D02*
X018309Y005641D01*
X018316Y005643D02*
X018781Y005643D01*
X018774Y005646D02*
X018323Y005646D01*
X018330Y005648D02*
X018767Y005648D01*
X018760Y005651D02*
X018337Y005651D01*
X018359Y005653D02*
X018738Y005653D01*
X018726Y005654D02*
X018371Y005654D01*
M02*
