G75*
G70*
%OFA0B0*%
%FSLAX24Y24*%
%IPPOS*%
%LPD*%
%AMOC8*
5,1,8,0,0,1.08239X$1,22.5*
%
%ADD10R,0.0740X0.0740*%
%ADD11C,0.0740*%
%ADD12C,0.0240*%
%ADD13C,0.0080*%
D10*
X004120Y001550D03*
X004120Y007550D03*
D11*
X005120Y007550D03*
X006120Y007550D03*
X007120Y007550D03*
X008120Y007550D03*
X009120Y007550D03*
X010120Y007550D03*
X011120Y007550D03*
X012120Y007550D03*
X013120Y007550D03*
X014120Y007550D03*
X015120Y007550D03*
X016120Y007550D03*
X017120Y007550D03*
X018120Y007550D03*
X019120Y007550D03*
X020120Y007550D03*
X021120Y007550D03*
X022120Y007550D03*
X023120Y007550D03*
X021120Y001550D03*
X020120Y001550D03*
X019120Y001550D03*
X018120Y001550D03*
X017120Y001550D03*
X016120Y001550D03*
X015120Y001550D03*
X014120Y001550D03*
X013120Y001550D03*
X012120Y001550D03*
X011120Y001550D03*
X010120Y001550D03*
X009120Y001550D03*
X008120Y001550D03*
X007120Y001550D03*
X006120Y001550D03*
X005120Y001550D03*
D12*
X006080Y003740D03*
X005240Y003760D03*
X004020Y004730D03*
X008120Y003700D03*
X009350Y003700D03*
X009840Y003700D03*
X011720Y003410D03*
X012520Y003490D03*
X012962Y004015D03*
X012962Y004507D03*
X011960Y004870D03*
X011600Y005120D03*
X011280Y004820D03*
X012480Y005260D03*
X012903Y005255D03*
X014586Y006131D03*
X014070Y006830D03*
X016060Y005370D03*
X016540Y005370D03*
X015462Y004979D03*
X014970Y004979D03*
X015470Y003860D03*
X017340Y003560D03*
X018130Y004400D03*
X019560Y003870D03*
X019750Y005160D03*
X017980Y005460D03*
X019891Y006278D03*
X021960Y006440D03*
X019430Y002550D03*
X018570Y002560D03*
X015620Y002050D03*
X012270Y002300D03*
X023040Y001700D03*
X023330Y002080D03*
D13*
X003560Y000990D02*
X003560Y008110D01*
X023680Y008110D01*
X023680Y000990D01*
X003560Y000990D01*
X003560Y001021D02*
X023680Y001021D01*
X023680Y001100D02*
X021365Y001100D01*
X021408Y001118D02*
X021221Y001040D01*
X021018Y001040D01*
X020831Y001118D01*
X020687Y001261D01*
X020620Y001424D01*
X020552Y001261D01*
X020408Y001118D01*
X020221Y001040D01*
X020018Y001040D01*
X019831Y001118D01*
X019687Y001261D01*
X019617Y001431D01*
X019617Y001431D01*
X019592Y001354D01*
X019556Y001283D01*
X019509Y001218D01*
X019452Y001161D01*
X019387Y001114D01*
X019315Y001077D01*
X019239Y001053D01*
X019160Y001040D01*
X019160Y001040D01*
X019160Y001510D01*
X019080Y001510D01*
X019080Y001040D01*
X019079Y001040D01*
X019000Y001053D01*
X018924Y001077D01*
X018852Y001114D01*
X018787Y001161D01*
X018731Y001218D01*
X018683Y001283D01*
X018647Y001354D01*
X018622Y001431D01*
X018622Y001431D01*
X018552Y001261D01*
X018408Y001118D01*
X018221Y001040D01*
X018018Y001040D01*
X017831Y001118D01*
X017687Y001261D01*
X017620Y001424D01*
X017552Y001261D01*
X017408Y001118D01*
X017221Y001040D01*
X017018Y001040D01*
X016831Y001118D01*
X016687Y001261D01*
X016620Y001424D01*
X016552Y001261D01*
X016408Y001118D01*
X016221Y001040D01*
X016018Y001040D01*
X015831Y001118D01*
X015687Y001261D01*
X015620Y001424D01*
X015552Y001261D01*
X015408Y001118D01*
X015221Y001040D01*
X015018Y001040D01*
X014831Y001118D01*
X014687Y001261D01*
X014620Y001424D01*
X014552Y001261D01*
X014408Y001118D01*
X014221Y001040D01*
X014018Y001040D01*
X013831Y001118D01*
X013687Y001261D01*
X013620Y001424D01*
X013552Y001261D01*
X013408Y001118D01*
X013221Y001040D01*
X013018Y001040D01*
X012831Y001118D01*
X012687Y001261D01*
X012620Y001424D01*
X012552Y001261D01*
X012408Y001118D01*
X012221Y001040D01*
X012018Y001040D01*
X011831Y001118D01*
X011687Y001261D01*
X011620Y001424D01*
X011552Y001261D01*
X011408Y001118D01*
X011221Y001040D01*
X011018Y001040D01*
X010831Y001118D01*
X010687Y001261D01*
X010620Y001424D01*
X010552Y001261D01*
X010408Y001118D01*
X010221Y001040D01*
X010018Y001040D01*
X009831Y001118D01*
X009687Y001261D01*
X009620Y001424D01*
X009552Y001261D01*
X009408Y001118D01*
X009221Y001040D01*
X009018Y001040D01*
X008831Y001118D01*
X008687Y001261D01*
X008620Y001424D01*
X008552Y001261D01*
X008408Y001118D01*
X008221Y001040D01*
X008018Y001040D01*
X007831Y001118D01*
X007687Y001261D01*
X007620Y001424D01*
X007552Y001261D01*
X007408Y001118D01*
X007221Y001040D01*
X007018Y001040D01*
X006831Y001118D01*
X006687Y001261D01*
X006620Y001424D01*
X006552Y001261D01*
X006408Y001118D01*
X006221Y001040D01*
X006018Y001040D01*
X005831Y001118D01*
X005687Y001261D01*
X005620Y001424D01*
X005552Y001261D01*
X005408Y001118D01*
X005221Y001040D01*
X005018Y001040D01*
X004831Y001118D01*
X004687Y001261D01*
X004630Y001400D01*
X004630Y001122D01*
X004548Y001040D01*
X003692Y001040D01*
X003610Y001122D01*
X003610Y001978D01*
X003692Y002060D01*
X004548Y002060D01*
X004630Y001978D01*
X004630Y001700D01*
X004687Y001839D01*
X004831Y001982D01*
X005018Y002060D01*
X005221Y002060D01*
X005408Y001982D01*
X005552Y001839D01*
X005620Y001676D01*
X005687Y001839D01*
X005831Y001982D01*
X005940Y002027D01*
X005940Y002805D01*
X005245Y003500D01*
X005188Y003500D01*
X005092Y003540D01*
X005019Y003613D01*
X004980Y003708D01*
X004980Y003812D01*
X005019Y003907D01*
X005092Y003980D01*
X005188Y004020D01*
X005291Y004020D01*
X005387Y003980D01*
X005460Y003907D01*
X005500Y003812D01*
X005500Y003755D01*
X006300Y002955D01*
X006300Y002027D01*
X006408Y001982D01*
X006552Y001839D01*
X006620Y001676D01*
X006687Y001839D01*
X006831Y001982D01*
X007018Y002060D01*
X007221Y002060D01*
X007408Y001982D01*
X007552Y001839D01*
X007620Y001676D01*
X007687Y001839D01*
X007831Y001982D01*
X008018Y002060D01*
X008221Y002060D01*
X008408Y001982D01*
X008552Y001839D01*
X008620Y001676D01*
X008687Y001839D01*
X008831Y001982D01*
X009018Y002060D01*
X009221Y002060D01*
X009330Y002015D01*
X009565Y002250D01*
X010965Y002250D01*
X011540Y002825D01*
X011540Y003222D01*
X011499Y003263D01*
X011460Y003358D01*
X011460Y003462D01*
X011499Y003557D01*
X011572Y003630D01*
X011668Y003670D01*
X011771Y003670D01*
X011867Y003630D01*
X011940Y003557D01*
X011980Y003462D01*
X011980Y003358D01*
X011940Y003263D01*
X011900Y003222D01*
X011900Y002675D01*
X011266Y002042D01*
X011973Y002042D01*
X012018Y002060D02*
X011831Y001982D01*
X011687Y001839D01*
X011620Y001676D01*
X011552Y001839D01*
X011408Y001982D01*
X011266Y002042D01*
X011344Y002120D02*
X019940Y002120D01*
X019940Y002042D02*
X019257Y002042D01*
X019239Y002047D02*
X019160Y002060D01*
X019160Y002060D01*
X019160Y001590D01*
X019080Y001590D01*
X019080Y002060D01*
X019079Y002060D01*
X019000Y002047D01*
X018924Y002023D01*
X018852Y001986D01*
X018787Y001939D01*
X018731Y001882D01*
X018683Y001817D01*
X018647Y001746D01*
X018622Y001669D01*
X018552Y001839D01*
X018408Y001982D01*
X018221Y002060D01*
X018018Y002060D01*
X017831Y001982D01*
X017687Y001839D01*
X017620Y001676D01*
X017552Y001839D01*
X017408Y001982D01*
X017221Y002060D01*
X017018Y002060D01*
X016831Y001982D01*
X016687Y001839D01*
X016620Y001676D01*
X016552Y001839D01*
X016408Y001982D01*
X016221Y002060D01*
X016018Y002060D01*
X015831Y001982D01*
X015687Y001839D01*
X015620Y001676D01*
X015552Y001839D01*
X015408Y001982D01*
X015221Y002060D01*
X015018Y002060D01*
X014831Y001982D01*
X014687Y001839D01*
X014620Y001676D01*
X014552Y001839D01*
X014408Y001982D01*
X014221Y002060D01*
X014018Y002060D01*
X013831Y001982D01*
X013687Y001839D01*
X013620Y001676D01*
X013552Y001839D01*
X013408Y001982D01*
X013221Y002060D01*
X013018Y002060D01*
X012831Y001982D01*
X012687Y001839D01*
X012620Y001676D01*
X012552Y001839D01*
X012408Y001982D01*
X012221Y002060D01*
X012018Y002060D01*
X011811Y001963D02*
X011428Y001963D01*
X011506Y001885D02*
X011733Y001885D01*
X011674Y001806D02*
X011565Y001806D01*
X011598Y001728D02*
X011641Y001728D01*
X011624Y001414D02*
X011615Y001414D01*
X011582Y001335D02*
X011657Y001335D01*
X011692Y001257D02*
X011547Y001257D01*
X011469Y001178D02*
X011770Y001178D01*
X011874Y001100D02*
X011365Y001100D01*
X010874Y001100D02*
X010365Y001100D01*
X010469Y001178D02*
X010770Y001178D01*
X010692Y001257D02*
X010547Y001257D01*
X010582Y001335D02*
X010657Y001335D01*
X010624Y001414D02*
X010615Y001414D01*
X009874Y001100D02*
X009365Y001100D01*
X009469Y001178D02*
X009770Y001178D01*
X009692Y001257D02*
X009547Y001257D01*
X009582Y001335D02*
X009657Y001335D01*
X009624Y001414D02*
X009615Y001414D01*
X009120Y001550D02*
X009640Y002070D01*
X011040Y002070D01*
X011720Y002750D01*
X011720Y003410D01*
X011954Y003298D02*
X012344Y003298D01*
X012372Y003270D02*
X012468Y003230D01*
X012571Y003230D01*
X012667Y003270D01*
X012740Y003343D01*
X012755Y003380D01*
X017152Y003380D01*
X017192Y003340D01*
X017288Y003300D01*
X017391Y003300D01*
X017487Y003340D01*
X017560Y003413D01*
X017600Y003508D01*
X017600Y003612D01*
X017560Y003707D01*
X017487Y003780D01*
X017391Y003820D01*
X017288Y003820D01*
X017192Y003780D01*
X017152Y003740D01*
X012770Y003740D01*
X012770Y003839D01*
X012815Y003794D01*
X012910Y003755D01*
X013014Y003755D01*
X013109Y003794D01*
X013150Y003835D01*
X014572Y003835D01*
X015457Y004719D01*
X015514Y004719D01*
X015609Y004759D01*
X015682Y004832D01*
X015722Y004927D01*
X015722Y005031D01*
X015682Y005126D01*
X015609Y005200D01*
X015514Y005239D01*
X015410Y005239D01*
X015315Y005200D01*
X015242Y005126D01*
X015216Y005064D01*
X015190Y005126D01*
X015117Y005200D01*
X015022Y005239D01*
X014918Y005239D01*
X014823Y005200D01*
X014749Y005126D01*
X014710Y005031D01*
X014710Y004974D01*
X014423Y004687D01*
X013150Y004687D01*
X013109Y004727D01*
X013014Y004767D01*
X012910Y004767D01*
X012815Y004727D01*
X012770Y004682D01*
X012770Y004723D01*
X012775Y004789D01*
X014525Y004789D01*
X014447Y004711D02*
X013126Y004711D01*
X012962Y004507D02*
X014497Y004507D01*
X014970Y004979D01*
X015200Y005103D02*
X015232Y005103D01*
X015297Y005182D02*
X015135Y005182D01*
X015462Y004979D02*
X014497Y004015D01*
X012962Y004015D01*
X012877Y003769D02*
X012770Y003769D01*
X013047Y003769D02*
X017180Y003769D01*
X017340Y003560D02*
X012590Y003560D01*
X012590Y004730D01*
X012480Y004860D01*
X011970Y004860D01*
X011960Y004870D01*
X012170Y004860D01*
X012174Y005040D02*
X012156Y005041D01*
X012107Y005090D01*
X012098Y005094D01*
X012723Y005719D01*
X012723Y005442D01*
X012683Y005402D01*
X012643Y005306D01*
X012643Y005203D01*
X012683Y005107D01*
X012756Y005034D01*
X012851Y004995D01*
X012955Y004995D01*
X013050Y005034D01*
X013123Y005107D01*
X013163Y005203D01*
X013163Y005306D01*
X013123Y005402D01*
X013083Y005442D01*
X013083Y005692D01*
X013351Y005960D01*
X014397Y005952D01*
X014439Y005910D01*
X014534Y005871D01*
X014638Y005871D01*
X014733Y005910D01*
X014807Y005983D01*
X014846Y006079D01*
X014846Y006182D01*
X014807Y006278D01*
X014733Y006351D01*
X014638Y006391D01*
X014595Y006391D01*
X015194Y006990D01*
X015260Y007056D01*
X015408Y007118D01*
X015552Y007261D01*
X015620Y007424D01*
X015687Y007261D01*
X015831Y007118D01*
X016018Y007040D01*
X016221Y007040D01*
X016408Y007118D01*
X016552Y007261D01*
X016620Y007424D01*
X016687Y007261D01*
X016831Y007118D01*
X017018Y007040D01*
X017221Y007040D01*
X017408Y007118D01*
X017552Y007261D01*
X017620Y007424D01*
X017687Y007261D01*
X017831Y007118D01*
X018018Y007040D01*
X018221Y007040D01*
X018408Y007118D01*
X018552Y007261D01*
X018620Y007424D01*
X018687Y007261D01*
X018831Y007118D01*
X019018Y007040D01*
X019221Y007040D01*
X019408Y007118D01*
X019552Y007261D01*
X019620Y007424D01*
X019687Y007261D01*
X019831Y007118D01*
X020018Y007040D01*
X020221Y007040D01*
X020408Y007118D01*
X020552Y007261D01*
X020620Y007424D01*
X020687Y007261D01*
X020831Y007118D01*
X021018Y007040D01*
X021221Y007040D01*
X021408Y007118D01*
X021552Y007261D01*
X021620Y007424D01*
X021687Y007261D01*
X021764Y007185D01*
X021699Y007121D01*
X021037Y006458D01*
X020079Y006458D01*
X020038Y006499D01*
X019943Y006538D01*
X019839Y006538D01*
X019744Y006499D01*
X019671Y006426D01*
X019631Y006330D01*
X019631Y006227D01*
X019671Y006131D01*
X019744Y006058D01*
X019839Y006018D01*
X019943Y006018D01*
X020038Y006058D01*
X020079Y006098D01*
X021186Y006098D01*
X021954Y006866D01*
X022690Y006866D01*
X022796Y006972D01*
X022909Y007085D01*
X023018Y007040D01*
X023221Y007040D01*
X023408Y007118D01*
X023552Y007261D01*
X023630Y007449D01*
X023630Y007651D01*
X023552Y007839D01*
X023408Y007982D01*
X023221Y008060D01*
X023018Y008060D01*
X022831Y007982D01*
X022687Y007839D01*
X022620Y007676D01*
X022552Y007839D01*
X022408Y007982D01*
X022221Y008060D01*
X022018Y008060D01*
X021831Y007982D01*
X021687Y007839D01*
X021620Y007676D01*
X021552Y007839D01*
X021408Y007982D01*
X021221Y008060D01*
X021018Y008060D01*
X020831Y007982D01*
X020687Y007839D01*
X020620Y007676D01*
X020552Y007839D01*
X020408Y007982D01*
X020221Y008060D01*
X020018Y008060D01*
X019831Y007982D01*
X019687Y007839D01*
X019620Y007676D01*
X019552Y007839D01*
X019408Y007982D01*
X019221Y008060D01*
X019018Y008060D01*
X018831Y007982D01*
X018687Y007839D01*
X018620Y007676D01*
X018552Y007839D01*
X018408Y007982D01*
X018221Y008060D01*
X018018Y008060D01*
X017831Y007982D01*
X017687Y007839D01*
X017620Y007676D01*
X017552Y007839D01*
X017408Y007982D01*
X017221Y008060D01*
X017018Y008060D01*
X016831Y007982D01*
X016687Y007839D01*
X016620Y007676D01*
X016552Y007839D01*
X016408Y007982D01*
X016221Y008060D01*
X016018Y008060D01*
X015831Y007982D01*
X015687Y007839D01*
X015620Y007676D01*
X015552Y007839D01*
X015408Y007982D01*
X015221Y008060D01*
X015018Y008060D01*
X014831Y007982D01*
X014687Y007839D01*
X014620Y007676D01*
X014552Y007839D01*
X014408Y007982D01*
X014221Y008060D01*
X014018Y008060D01*
X013831Y007982D01*
X013687Y007839D01*
X013620Y007676D01*
X013552Y007839D01*
X013408Y007982D01*
X013221Y008060D01*
X013018Y008060D01*
X012831Y007982D01*
X012687Y007839D01*
X012620Y007676D01*
X012552Y007839D01*
X012408Y007982D01*
X012221Y008060D01*
X012018Y008060D01*
X011831Y007982D01*
X011687Y007839D01*
X011620Y007676D01*
X011552Y007839D01*
X011408Y007982D01*
X011221Y008060D01*
X011018Y008060D01*
X010831Y007982D01*
X010687Y007839D01*
X010620Y007676D01*
X010552Y007839D01*
X010408Y007982D01*
X010221Y008060D01*
X010018Y008060D01*
X009831Y007982D01*
X009687Y007839D01*
X009620Y007676D01*
X009552Y007839D01*
X009408Y007982D01*
X009221Y008060D01*
X009018Y008060D01*
X008831Y007982D01*
X008687Y007839D01*
X008620Y007676D01*
X008552Y007839D01*
X008408Y007982D01*
X008221Y008060D01*
X008018Y008060D01*
X007831Y007982D01*
X007687Y007839D01*
X007620Y007676D01*
X007552Y007839D01*
X007408Y007982D01*
X007221Y008060D01*
X007018Y008060D01*
X006831Y007982D01*
X006687Y007839D01*
X006620Y007676D01*
X006552Y007839D01*
X006408Y007982D01*
X006221Y008060D01*
X006018Y008060D01*
X005831Y007982D01*
X005687Y007839D01*
X005620Y007676D01*
X005552Y007839D01*
X005408Y007982D01*
X005221Y008060D01*
X005018Y008060D01*
X004831Y007982D01*
X004687Y007839D01*
X004630Y007700D01*
X004630Y007978D01*
X004548Y008060D01*
X003692Y008060D01*
X003610Y007978D01*
X003610Y007122D01*
X003692Y007040D01*
X004548Y007040D01*
X004630Y007122D01*
X004630Y007400D01*
X004687Y007261D01*
X004831Y007118D01*
X005018Y007040D01*
X005221Y007040D01*
X005408Y007118D01*
X005552Y007261D01*
X005620Y007424D01*
X005687Y007261D01*
X005831Y007118D01*
X006018Y007040D01*
X006221Y007040D01*
X006408Y007118D01*
X006552Y007261D01*
X006620Y007424D01*
X006687Y007261D01*
X006831Y007118D01*
X007018Y007040D01*
X007221Y007040D01*
X007408Y007118D01*
X007552Y007261D01*
X007620Y007424D01*
X007687Y007261D01*
X007831Y007118D01*
X008018Y007040D01*
X008221Y007040D01*
X008408Y007118D01*
X008552Y007261D01*
X008620Y007424D01*
X008687Y007261D01*
X008831Y007118D01*
X009018Y007040D01*
X009221Y007040D01*
X009408Y007118D01*
X009552Y007261D01*
X009620Y007424D01*
X009687Y007261D01*
X009831Y007118D01*
X010018Y007040D01*
X010221Y007040D01*
X010408Y007118D01*
X010552Y007261D01*
X010620Y007424D01*
X010687Y007261D01*
X010831Y007118D01*
X011018Y007040D01*
X011221Y007040D01*
X011408Y007118D01*
X011552Y007261D01*
X011620Y007424D01*
X011687Y007261D01*
X011831Y007118D01*
X012018Y007040D01*
X012221Y007040D01*
X012408Y007118D01*
X012552Y007261D01*
X012620Y007424D01*
X012687Y007261D01*
X012831Y007118D01*
X013018Y007040D01*
X013221Y007040D01*
X013408Y007118D01*
X013552Y007261D01*
X013620Y007424D01*
X013687Y007261D01*
X013831Y007118D01*
X014018Y007040D01*
X014221Y007040D01*
X014408Y007118D01*
X014552Y007261D01*
X014620Y007424D01*
X014687Y007261D01*
X014822Y007127D01*
X014285Y006590D01*
X013085Y006590D01*
X012980Y006485D01*
X011795Y005300D01*
X011787Y005300D01*
X011747Y005340D01*
X011651Y005380D01*
X011548Y005380D01*
X011452Y005340D01*
X011379Y005267D01*
X011340Y005172D01*
X011340Y005068D01*
X011379Y004973D01*
X011452Y004900D01*
X011548Y004860D01*
X011651Y004860D01*
X011700Y004880D01*
X011700Y004818D01*
X011739Y004723D01*
X011812Y004650D01*
X011908Y004610D01*
X012011Y004610D01*
X012107Y004650D01*
X012137Y004680D01*
X012165Y004680D01*
X012235Y004677D01*
X012239Y004680D01*
X012396Y004680D01*
X012410Y004664D01*
X012410Y003726D01*
X012372Y003710D01*
X012299Y003637D01*
X012260Y003542D01*
X012260Y003438D01*
X012299Y003343D01*
X012372Y003270D01*
X012285Y003376D02*
X011980Y003376D01*
X011980Y003455D02*
X012260Y003455D01*
X012260Y003533D02*
X011950Y003533D01*
X011886Y003612D02*
X012288Y003612D01*
X012352Y003690D02*
X005564Y003690D01*
X005500Y003769D02*
X012410Y003769D01*
X012410Y003847D02*
X005485Y003847D01*
X005442Y003926D02*
X012410Y003926D01*
X012410Y004004D02*
X005330Y004004D01*
X005149Y004004D02*
X003560Y004004D01*
X003560Y003926D02*
X005037Y003926D01*
X004994Y003847D02*
X003560Y003847D01*
X003560Y003769D02*
X004980Y003769D01*
X004987Y003690D02*
X003560Y003690D01*
X003560Y003612D02*
X005020Y003612D01*
X005108Y003533D02*
X003560Y003533D01*
X003560Y003455D02*
X005290Y003455D01*
X005369Y003376D02*
X003560Y003376D01*
X003560Y003298D02*
X005447Y003298D01*
X005526Y003219D02*
X003560Y003219D01*
X003560Y003141D02*
X005604Y003141D01*
X005683Y003062D02*
X003560Y003062D01*
X003560Y002984D02*
X005761Y002984D01*
X005840Y002905D02*
X003560Y002905D01*
X003560Y002827D02*
X005918Y002827D01*
X005940Y002748D02*
X003560Y002748D01*
X003560Y002670D02*
X005940Y002670D01*
X005940Y002591D02*
X003560Y002591D01*
X003560Y002513D02*
X005940Y002513D01*
X005940Y002434D02*
X003560Y002434D01*
X003560Y002356D02*
X005940Y002356D01*
X005940Y002277D02*
X003560Y002277D01*
X003560Y002199D02*
X005940Y002199D01*
X005940Y002120D02*
X003560Y002120D01*
X003560Y002042D02*
X003673Y002042D01*
X003610Y001963D02*
X003560Y001963D01*
X003560Y001885D02*
X003610Y001885D01*
X003610Y001806D02*
X003560Y001806D01*
X003560Y001728D02*
X003610Y001728D01*
X003610Y001649D02*
X003560Y001649D01*
X003560Y001571D02*
X003610Y001571D01*
X003610Y001492D02*
X003560Y001492D01*
X003560Y001414D02*
X003610Y001414D01*
X003610Y001335D02*
X003560Y001335D01*
X003560Y001257D02*
X003610Y001257D01*
X003610Y001178D02*
X003560Y001178D01*
X003560Y001100D02*
X003632Y001100D01*
X004607Y001100D02*
X004874Y001100D01*
X004770Y001178D02*
X004630Y001178D01*
X004630Y001257D02*
X004692Y001257D01*
X004657Y001335D02*
X004630Y001335D01*
X004630Y001728D02*
X004641Y001728D01*
X004630Y001806D02*
X004674Y001806D01*
X004630Y001885D02*
X004733Y001885D01*
X004811Y001963D02*
X004630Y001963D01*
X004566Y002042D02*
X004973Y002042D01*
X005266Y002042D02*
X005940Y002042D01*
X005811Y001963D02*
X005428Y001963D01*
X005506Y001885D02*
X005733Y001885D01*
X005674Y001806D02*
X005565Y001806D01*
X005598Y001728D02*
X005641Y001728D01*
X006120Y001550D02*
X006120Y002880D01*
X005240Y003760D01*
X005643Y003612D02*
X011553Y003612D01*
X011489Y003533D02*
X005721Y003533D01*
X005800Y003455D02*
X011460Y003455D01*
X011460Y003376D02*
X005878Y003376D01*
X005957Y003298D02*
X011485Y003298D01*
X011540Y003219D02*
X006035Y003219D01*
X006114Y003141D02*
X011540Y003141D01*
X011540Y003062D02*
X006192Y003062D01*
X006271Y002984D02*
X011540Y002984D01*
X011540Y002905D02*
X006300Y002905D01*
X006300Y002827D02*
X011540Y002827D01*
X011463Y002748D02*
X006300Y002748D01*
X006300Y002670D02*
X011384Y002670D01*
X011306Y002591D02*
X006300Y002591D01*
X006300Y002513D02*
X011227Y002513D01*
X011149Y002434D02*
X006300Y002434D01*
X006300Y002356D02*
X011070Y002356D01*
X010992Y002277D02*
X006300Y002277D01*
X006300Y002199D02*
X009513Y002199D01*
X009435Y002120D02*
X006300Y002120D01*
X006300Y002042D02*
X006973Y002042D01*
X006811Y001963D02*
X006428Y001963D01*
X006506Y001885D02*
X006733Y001885D01*
X006674Y001806D02*
X006565Y001806D01*
X006598Y001728D02*
X006641Y001728D01*
X006624Y001414D02*
X006615Y001414D01*
X006582Y001335D02*
X006657Y001335D01*
X006692Y001257D02*
X006547Y001257D01*
X006469Y001178D02*
X006770Y001178D01*
X006874Y001100D02*
X006365Y001100D01*
X005874Y001100D02*
X005365Y001100D01*
X005469Y001178D02*
X005770Y001178D01*
X005692Y001257D02*
X005547Y001257D01*
X005582Y001335D02*
X005657Y001335D01*
X005624Y001414D02*
X005615Y001414D01*
X007266Y002042D02*
X007973Y002042D01*
X007811Y001963D02*
X007428Y001963D01*
X007506Y001885D02*
X007733Y001885D01*
X007674Y001806D02*
X007565Y001806D01*
X007598Y001728D02*
X007641Y001728D01*
X007624Y001414D02*
X007615Y001414D01*
X007582Y001335D02*
X007657Y001335D01*
X007692Y001257D02*
X007547Y001257D01*
X007469Y001178D02*
X007770Y001178D01*
X007874Y001100D02*
X007365Y001100D01*
X008365Y001100D02*
X008874Y001100D01*
X008770Y001178D02*
X008469Y001178D01*
X008547Y001257D02*
X008692Y001257D01*
X008657Y001335D02*
X008582Y001335D01*
X008615Y001414D02*
X008624Y001414D01*
X008641Y001728D02*
X008598Y001728D01*
X008565Y001806D02*
X008674Y001806D01*
X008733Y001885D02*
X008506Y001885D01*
X008428Y001963D02*
X008811Y001963D01*
X008973Y002042D02*
X008266Y002042D01*
X009266Y002042D02*
X009356Y002042D01*
X011423Y002199D02*
X019940Y002199D01*
X019940Y002277D02*
X011501Y002277D01*
X011580Y002356D02*
X018406Y002356D01*
X018422Y002340D02*
X018518Y002300D01*
X018621Y002300D01*
X018717Y002340D01*
X018790Y002413D01*
X018830Y002508D01*
X018830Y002612D01*
X018790Y002707D01*
X018750Y002748D01*
X019940Y002748D01*
X019940Y002670D02*
X018806Y002670D01*
X018830Y002591D02*
X019940Y002591D01*
X019940Y002513D02*
X018830Y002513D01*
X018799Y002434D02*
X019940Y002434D01*
X019940Y002356D02*
X018733Y002356D01*
X018570Y002560D02*
X018570Y004870D01*
X017980Y005460D01*
X018214Y005574D02*
X021562Y005574D01*
X021571Y005596D02*
X021522Y005479D01*
X021522Y005353D01*
X021571Y005236D01*
X021660Y005147D01*
X021776Y005099D01*
X021903Y005099D01*
X022019Y005147D01*
X022108Y005236D01*
X022157Y005353D01*
X022157Y005479D01*
X022108Y005596D01*
X022019Y005685D01*
X021903Y005733D01*
X021776Y005733D01*
X021660Y005685D01*
X021571Y005596D01*
X021627Y005653D02*
X018155Y005653D01*
X018127Y005680D02*
X018031Y005720D01*
X017928Y005720D01*
X017832Y005680D01*
X017759Y005607D01*
X017720Y005512D01*
X017720Y005408D01*
X017759Y005313D01*
X017832Y005240D01*
X017928Y005200D01*
X017985Y005200D01*
X018390Y004795D01*
X018390Y002748D01*
X011900Y002748D01*
X011900Y002827D02*
X018390Y002827D01*
X018390Y002905D02*
X011900Y002905D01*
X011900Y002984D02*
X018390Y002984D01*
X018390Y003062D02*
X011900Y003062D01*
X011900Y003141D02*
X018390Y003141D01*
X018390Y003219D02*
X011900Y003219D01*
X012520Y003490D02*
X012590Y003560D01*
X012754Y003376D02*
X017156Y003376D01*
X017523Y003376D02*
X018390Y003376D01*
X018390Y003298D02*
X012695Y003298D01*
X011894Y002670D02*
X018333Y002670D01*
X018349Y002707D02*
X018310Y002612D01*
X018310Y002508D01*
X018349Y002413D01*
X018422Y002340D01*
X018340Y002434D02*
X011658Y002434D01*
X011737Y002513D02*
X018310Y002513D01*
X018310Y002591D02*
X011815Y002591D01*
X012266Y002042D02*
X012973Y002042D01*
X012811Y001963D02*
X012428Y001963D01*
X012506Y001885D02*
X012733Y001885D01*
X012674Y001806D02*
X012565Y001806D01*
X012598Y001728D02*
X012641Y001728D01*
X012624Y001414D02*
X012615Y001414D01*
X012582Y001335D02*
X012657Y001335D01*
X012692Y001257D02*
X012547Y001257D01*
X012469Y001178D02*
X012770Y001178D01*
X012874Y001100D02*
X012365Y001100D01*
X013365Y001100D02*
X013874Y001100D01*
X013770Y001178D02*
X013469Y001178D01*
X013547Y001257D02*
X013692Y001257D01*
X013657Y001335D02*
X013582Y001335D01*
X013615Y001414D02*
X013624Y001414D01*
X013641Y001728D02*
X013598Y001728D01*
X013565Y001806D02*
X013674Y001806D01*
X013733Y001885D02*
X013506Y001885D01*
X013428Y001963D02*
X013811Y001963D01*
X013973Y002042D02*
X013266Y002042D01*
X014266Y002042D02*
X014973Y002042D01*
X014811Y001963D02*
X014428Y001963D01*
X014506Y001885D02*
X014733Y001885D01*
X014674Y001806D02*
X014565Y001806D01*
X014598Y001728D02*
X014641Y001728D01*
X014624Y001414D02*
X014615Y001414D01*
X014582Y001335D02*
X014657Y001335D01*
X014692Y001257D02*
X014547Y001257D01*
X014469Y001178D02*
X014770Y001178D01*
X014874Y001100D02*
X014365Y001100D01*
X015365Y001100D02*
X015874Y001100D01*
X015770Y001178D02*
X015469Y001178D01*
X015547Y001257D02*
X015692Y001257D01*
X015657Y001335D02*
X015582Y001335D01*
X015615Y001414D02*
X015624Y001414D01*
X015641Y001728D02*
X015598Y001728D01*
X015565Y001806D02*
X015674Y001806D01*
X015733Y001885D02*
X015506Y001885D01*
X015428Y001963D02*
X015811Y001963D01*
X015973Y002042D02*
X015266Y002042D01*
X016266Y002042D02*
X016973Y002042D01*
X016811Y001963D02*
X016428Y001963D01*
X016506Y001885D02*
X016733Y001885D01*
X016674Y001806D02*
X016565Y001806D01*
X016598Y001728D02*
X016641Y001728D01*
X016624Y001414D02*
X016615Y001414D01*
X016582Y001335D02*
X016657Y001335D01*
X016692Y001257D02*
X016547Y001257D01*
X016469Y001178D02*
X016770Y001178D01*
X016874Y001100D02*
X016365Y001100D01*
X017365Y001100D02*
X017874Y001100D01*
X017770Y001178D02*
X017469Y001178D01*
X017547Y001257D02*
X017692Y001257D01*
X017657Y001335D02*
X017582Y001335D01*
X017615Y001414D02*
X017624Y001414D01*
X017641Y001728D02*
X017598Y001728D01*
X017565Y001806D02*
X017674Y001806D01*
X017733Y001885D02*
X017506Y001885D01*
X017428Y001963D02*
X017811Y001963D01*
X017973Y002042D02*
X017266Y002042D01*
X018266Y002042D02*
X018982Y002042D01*
X019080Y002042D02*
X019160Y002042D01*
X019160Y001963D02*
X019080Y001963D01*
X019080Y001885D02*
X019160Y001885D01*
X019160Y001806D02*
X019080Y001806D01*
X019080Y001728D02*
X019160Y001728D01*
X019160Y001649D02*
X019080Y001649D01*
X019080Y001492D02*
X019160Y001492D01*
X019160Y001414D02*
X019080Y001414D01*
X019080Y001335D02*
X019160Y001335D01*
X019160Y001257D02*
X019080Y001257D01*
X019080Y001178D02*
X019160Y001178D01*
X019160Y001100D02*
X019080Y001100D01*
X018880Y001100D02*
X018365Y001100D01*
X018469Y001178D02*
X018770Y001178D01*
X018702Y001257D02*
X018547Y001257D01*
X018582Y001335D02*
X018657Y001335D01*
X018628Y001414D02*
X018615Y001414D01*
X018622Y001669D02*
X018622Y001669D01*
X018641Y001728D02*
X018598Y001728D01*
X018565Y001806D02*
X018678Y001806D01*
X018733Y001885D02*
X018506Y001885D01*
X018428Y001963D02*
X018820Y001963D01*
X019239Y002047D02*
X019315Y002023D01*
X019387Y001986D01*
X019452Y001939D01*
X019509Y001882D01*
X019556Y001817D01*
X019592Y001746D01*
X019617Y001669D01*
X019617Y001669D01*
X019687Y001839D01*
X019831Y001982D01*
X019940Y002027D01*
X019940Y003235D01*
X019565Y003610D01*
X019508Y003610D01*
X019412Y003650D01*
X019339Y003723D01*
X019300Y003818D01*
X019300Y003922D01*
X019339Y004017D01*
X019412Y004090D01*
X019508Y004130D01*
X019611Y004130D01*
X019707Y004090D01*
X019780Y004017D01*
X019820Y003922D01*
X019820Y003865D01*
X020300Y003385D01*
X020300Y002027D01*
X020408Y001982D01*
X020552Y001839D01*
X020620Y001676D01*
X020687Y001839D01*
X020831Y001982D01*
X021018Y002060D01*
X021221Y002060D01*
X021408Y001982D01*
X021552Y001839D01*
X021597Y001730D01*
X022780Y001730D01*
X022780Y001752D01*
X022819Y001847D01*
X022892Y001920D01*
X022988Y001960D01*
X023091Y001960D01*
X023187Y001920D01*
X023260Y001847D01*
X023300Y001752D01*
X023300Y001648D01*
X023260Y001553D01*
X023187Y001480D01*
X023091Y001440D01*
X023054Y001440D01*
X022984Y001370D01*
X021597Y001370D01*
X021552Y001261D01*
X021408Y001118D01*
X021469Y001178D02*
X023680Y001178D01*
X023680Y001257D02*
X021547Y001257D01*
X021582Y001335D02*
X023680Y001335D01*
X023680Y001414D02*
X023028Y001414D01*
X023199Y001492D02*
X023680Y001492D01*
X023680Y001571D02*
X023267Y001571D01*
X023300Y001649D02*
X023680Y001649D01*
X023680Y001728D02*
X023300Y001728D01*
X023277Y001806D02*
X023680Y001806D01*
X023680Y001885D02*
X023223Y001885D01*
X022856Y001885D02*
X021506Y001885D01*
X021565Y001806D02*
X022802Y001806D01*
X023040Y001700D02*
X023040Y001680D01*
X022910Y001550D01*
X021120Y001550D01*
X020641Y001728D02*
X020598Y001728D01*
X020565Y001806D02*
X020674Y001806D01*
X020733Y001885D02*
X020506Y001885D01*
X020428Y001963D02*
X020811Y001963D01*
X020973Y002042D02*
X020300Y002042D01*
X020300Y002120D02*
X023680Y002120D01*
X023680Y002042D02*
X021266Y002042D01*
X021428Y001963D02*
X023680Y001963D01*
X023680Y002199D02*
X020300Y002199D01*
X020300Y002277D02*
X023680Y002277D01*
X023680Y002356D02*
X020300Y002356D01*
X020300Y002434D02*
X023680Y002434D01*
X023680Y002513D02*
X020300Y002513D01*
X020300Y002591D02*
X023680Y002591D01*
X023680Y002670D02*
X020300Y002670D01*
X020300Y002748D02*
X023680Y002748D01*
X023680Y002827D02*
X020300Y002827D01*
X020300Y002905D02*
X023680Y002905D01*
X023680Y002984D02*
X020300Y002984D01*
X020300Y003062D02*
X023680Y003062D01*
X023680Y003141D02*
X020300Y003141D01*
X020300Y003219D02*
X023680Y003219D01*
X023680Y003298D02*
X020300Y003298D01*
X020300Y003376D02*
X021754Y003376D01*
X021776Y003367D02*
X021903Y003367D01*
X022019Y003415D01*
X022108Y003504D01*
X022157Y003621D01*
X022157Y003747D01*
X022108Y003864D01*
X022019Y003953D01*
X021903Y004001D01*
X021776Y004001D01*
X021660Y003953D01*
X021571Y003864D01*
X021522Y003747D01*
X021522Y003621D01*
X021571Y003504D01*
X021660Y003415D01*
X021776Y003367D01*
X021925Y003376D02*
X023680Y003376D01*
X023680Y003455D02*
X022059Y003455D01*
X022120Y003533D02*
X023680Y003533D01*
X023680Y003612D02*
X022153Y003612D01*
X022157Y003690D02*
X023680Y003690D01*
X023680Y003769D02*
X022148Y003769D01*
X022115Y003847D02*
X023680Y003847D01*
X023680Y003926D02*
X022046Y003926D01*
X021633Y003926D02*
X019818Y003926D01*
X019837Y003847D02*
X021564Y003847D01*
X021531Y003769D02*
X019916Y003769D01*
X019994Y003690D02*
X021522Y003690D01*
X021526Y003612D02*
X020073Y003612D01*
X020151Y003533D02*
X021559Y003533D01*
X021620Y003455D02*
X020230Y003455D01*
X020120Y003310D02*
X019560Y003870D01*
X019320Y003769D02*
X018750Y003769D01*
X018750Y003847D02*
X019300Y003847D01*
X019301Y003926D02*
X018750Y003926D01*
X018750Y004004D02*
X019334Y004004D01*
X019404Y004083D02*
X018750Y004083D01*
X018750Y004161D02*
X023680Y004161D01*
X023680Y004083D02*
X019715Y004083D01*
X019785Y004004D02*
X023680Y004004D01*
X023680Y004240D02*
X018750Y004240D01*
X018750Y004318D02*
X023680Y004318D01*
X023680Y004397D02*
X018750Y004397D01*
X018750Y004475D02*
X023680Y004475D01*
X023680Y004554D02*
X018750Y004554D01*
X018750Y004632D02*
X023680Y004632D01*
X023680Y004711D02*
X018750Y004711D01*
X018750Y004789D02*
X023680Y004789D01*
X023680Y004868D02*
X018750Y004868D01*
X018750Y004945D02*
X018240Y005455D01*
X018240Y005512D01*
X018200Y005607D01*
X018127Y005680D01*
X017804Y005653D02*
X013083Y005653D01*
X013083Y005574D02*
X017745Y005574D01*
X017720Y005496D02*
X013083Y005496D01*
X013108Y005417D02*
X017720Y005417D01*
X017748Y005339D02*
X013150Y005339D01*
X013163Y005260D02*
X017812Y005260D01*
X018003Y005182D02*
X015627Y005182D01*
X015692Y005103D02*
X018082Y005103D01*
X018160Y005025D02*
X015722Y005025D01*
X015722Y004946D02*
X018239Y004946D01*
X018317Y004868D02*
X015697Y004868D01*
X015640Y004789D02*
X018390Y004789D01*
X018390Y004711D02*
X015448Y004711D01*
X015369Y004632D02*
X018390Y004632D01*
X018390Y004554D02*
X015291Y004554D01*
X015212Y004475D02*
X018390Y004475D01*
X018390Y004397D02*
X015134Y004397D01*
X015055Y004318D02*
X018390Y004318D01*
X018390Y004240D02*
X014977Y004240D01*
X014898Y004161D02*
X018390Y004161D01*
X018390Y004083D02*
X014820Y004083D01*
X014741Y004004D02*
X018390Y004004D01*
X018390Y003926D02*
X014663Y003926D01*
X014584Y003847D02*
X018390Y003847D01*
X018390Y003769D02*
X017499Y003769D01*
X017567Y003690D02*
X018390Y003690D01*
X018390Y003612D02*
X017600Y003612D01*
X017600Y003533D02*
X018390Y003533D01*
X018390Y003455D02*
X017577Y003455D01*
X018750Y003455D02*
X019720Y003455D01*
X019642Y003533D02*
X018750Y003533D01*
X018750Y003612D02*
X019504Y003612D01*
X019372Y003690D02*
X018750Y003690D01*
X018750Y003376D02*
X019799Y003376D01*
X019877Y003298D02*
X018750Y003298D01*
X018750Y003219D02*
X019940Y003219D01*
X019940Y003141D02*
X018750Y003141D01*
X018750Y003062D02*
X019940Y003062D01*
X019940Y002984D02*
X018750Y002984D01*
X018750Y002905D02*
X019940Y002905D01*
X019940Y002827D02*
X018750Y002827D01*
X018750Y002748D02*
X018750Y004945D01*
X018748Y004946D02*
X023680Y004946D01*
X023680Y005025D02*
X018670Y005025D01*
X018591Y005103D02*
X021767Y005103D01*
X021912Y005103D02*
X023680Y005103D01*
X023680Y005182D02*
X022053Y005182D01*
X022118Y005260D02*
X023680Y005260D01*
X023680Y005339D02*
X022151Y005339D01*
X022157Y005417D02*
X023680Y005417D01*
X023680Y005496D02*
X022150Y005496D01*
X022117Y005574D02*
X023680Y005574D01*
X023680Y005653D02*
X022052Y005653D01*
X021908Y005731D02*
X023680Y005731D01*
X023680Y005810D02*
X013201Y005810D01*
X013279Y005888D02*
X014492Y005888D01*
X014680Y005888D02*
X023680Y005888D01*
X023680Y005967D02*
X014790Y005967D01*
X014832Y006045D02*
X019775Y006045D01*
X019678Y006124D02*
X014846Y006124D01*
X014838Y006202D02*
X019641Y006202D01*
X019631Y006281D02*
X014804Y006281D01*
X014714Y006359D02*
X019643Y006359D01*
X019683Y006438D02*
X014642Y006438D01*
X014720Y006516D02*
X019786Y006516D01*
X019997Y006516D02*
X021095Y006516D01*
X021173Y006595D02*
X014799Y006595D01*
X014877Y006673D02*
X021252Y006673D01*
X021330Y006752D02*
X014956Y006752D01*
X015034Y006830D02*
X021409Y006830D01*
X021487Y006909D02*
X015113Y006909D01*
X015191Y006987D02*
X021566Y006987D01*
X021644Y007066D02*
X021283Y007066D01*
X021435Y007144D02*
X021723Y007144D01*
X021726Y007223D02*
X021513Y007223D01*
X021568Y007301D02*
X021671Y007301D01*
X021638Y007380D02*
X021601Y007380D01*
X020956Y007066D02*
X020283Y007066D01*
X020435Y007144D02*
X020804Y007144D01*
X020726Y007223D02*
X020513Y007223D01*
X020568Y007301D02*
X020671Y007301D01*
X020638Y007380D02*
X020601Y007380D01*
X019956Y007066D02*
X019283Y007066D01*
X019435Y007144D02*
X019804Y007144D01*
X019726Y007223D02*
X019513Y007223D01*
X019568Y007301D02*
X019671Y007301D01*
X019638Y007380D02*
X019601Y007380D01*
X018956Y007066D02*
X018283Y007066D01*
X018435Y007144D02*
X018804Y007144D01*
X018726Y007223D02*
X018513Y007223D01*
X018568Y007301D02*
X018671Y007301D01*
X018638Y007380D02*
X018601Y007380D01*
X018612Y007694D02*
X018627Y007694D01*
X018659Y007772D02*
X018580Y007772D01*
X018540Y007851D02*
X018699Y007851D01*
X018777Y007929D02*
X018462Y007929D01*
X018348Y008008D02*
X018891Y008008D01*
X019348Y008008D02*
X019891Y008008D01*
X019777Y007929D02*
X019462Y007929D01*
X019540Y007851D02*
X019699Y007851D01*
X019659Y007772D02*
X019580Y007772D01*
X019612Y007694D02*
X019627Y007694D01*
X020348Y008008D02*
X020891Y008008D01*
X020777Y007929D02*
X020462Y007929D01*
X020540Y007851D02*
X020699Y007851D01*
X020659Y007772D02*
X020580Y007772D01*
X020612Y007694D02*
X020627Y007694D01*
X021348Y008008D02*
X021891Y008008D01*
X021777Y007929D02*
X021462Y007929D01*
X021540Y007851D02*
X021699Y007851D01*
X021659Y007772D02*
X021580Y007772D01*
X021612Y007694D02*
X021627Y007694D01*
X022348Y008008D02*
X022891Y008008D01*
X022777Y007929D02*
X022462Y007929D01*
X022540Y007851D02*
X022699Y007851D01*
X022659Y007772D02*
X022580Y007772D01*
X022612Y007694D02*
X022627Y007694D01*
X023120Y007550D02*
X022616Y007046D01*
X021879Y007046D01*
X021112Y006278D01*
X019891Y006278D01*
X020007Y006045D02*
X023680Y006045D01*
X023680Y006124D02*
X021211Y006124D01*
X021290Y006202D02*
X021855Y006202D01*
X021812Y006220D02*
X021908Y006180D01*
X022011Y006180D01*
X022107Y006220D01*
X022180Y006293D01*
X022220Y006388D01*
X022220Y006492D01*
X022180Y006587D01*
X022107Y006660D01*
X022011Y006700D01*
X021908Y006700D01*
X021812Y006660D01*
X021739Y006587D01*
X021700Y006492D01*
X021700Y006388D01*
X021739Y006293D01*
X021812Y006220D01*
X021751Y006281D02*
X021368Y006281D01*
X021447Y006359D02*
X021712Y006359D01*
X021700Y006438D02*
X021525Y006438D01*
X021604Y006516D02*
X021710Y006516D01*
X021682Y006595D02*
X021746Y006595D01*
X021761Y006673D02*
X021843Y006673D01*
X021839Y006752D02*
X023680Y006752D01*
X023680Y006830D02*
X021918Y006830D01*
X022076Y006673D02*
X023680Y006673D01*
X023680Y006595D02*
X022173Y006595D01*
X022209Y006516D02*
X023680Y006516D01*
X023680Y006438D02*
X022220Y006438D01*
X022207Y006359D02*
X023680Y006359D01*
X023680Y006281D02*
X022168Y006281D01*
X022064Y006202D02*
X023680Y006202D01*
X023680Y006909D02*
X022733Y006909D01*
X022811Y006987D02*
X023680Y006987D01*
X023680Y007066D02*
X023283Y007066D01*
X023435Y007144D02*
X023680Y007144D01*
X023680Y007223D02*
X023513Y007223D01*
X023568Y007301D02*
X023680Y007301D01*
X023680Y007380D02*
X023601Y007380D01*
X023630Y007458D02*
X023680Y007458D01*
X023680Y007537D02*
X023630Y007537D01*
X023630Y007615D02*
X023680Y007615D01*
X023680Y007694D02*
X023612Y007694D01*
X023580Y007772D02*
X023680Y007772D01*
X023680Y007851D02*
X023540Y007851D01*
X023462Y007929D02*
X023680Y007929D01*
X023680Y008008D02*
X023348Y008008D01*
X023680Y008086D02*
X003560Y008086D01*
X003560Y008008D02*
X003639Y008008D01*
X003610Y007929D02*
X003560Y007929D01*
X003560Y007851D02*
X003610Y007851D01*
X003610Y007772D02*
X003560Y007772D01*
X003560Y007694D02*
X003610Y007694D01*
X003610Y007615D02*
X003560Y007615D01*
X003560Y007537D02*
X003610Y007537D01*
X003610Y007458D02*
X003560Y007458D01*
X003560Y007380D02*
X003610Y007380D01*
X003610Y007301D02*
X003560Y007301D01*
X003560Y007223D02*
X003610Y007223D01*
X003610Y007144D02*
X003560Y007144D01*
X003560Y007066D02*
X003666Y007066D01*
X003560Y006987D02*
X014682Y006987D01*
X014760Y007066D02*
X014283Y007066D01*
X014435Y007144D02*
X014804Y007144D01*
X014726Y007223D02*
X014513Y007223D01*
X014568Y007301D02*
X014671Y007301D01*
X014638Y007380D02*
X014601Y007380D01*
X015120Y007550D02*
X015120Y007170D01*
X014360Y006410D01*
X013160Y006410D01*
X011870Y005120D01*
X011600Y005120D01*
X011358Y005025D02*
X003560Y005025D01*
X003560Y005103D02*
X011340Y005103D01*
X011344Y005182D02*
X003560Y005182D01*
X003560Y005260D02*
X011376Y005260D01*
X011450Y005339D02*
X003560Y005339D01*
X003560Y005417D02*
X011912Y005417D01*
X011990Y005496D02*
X003560Y005496D01*
X003560Y005574D02*
X012069Y005574D01*
X012147Y005653D02*
X003560Y005653D01*
X003560Y005731D02*
X012226Y005731D01*
X012304Y005810D02*
X003560Y005810D01*
X003560Y005888D02*
X012383Y005888D01*
X012461Y005967D02*
X003560Y005967D01*
X003560Y006045D02*
X012540Y006045D01*
X012618Y006124D02*
X003560Y006124D01*
X003560Y006202D02*
X012697Y006202D01*
X012775Y006281D02*
X003560Y006281D01*
X003560Y006359D02*
X012854Y006359D01*
X012932Y006438D02*
X003560Y006438D01*
X003560Y006516D02*
X013011Y006516D01*
X013277Y006141D02*
X014586Y006131D01*
X014289Y006595D02*
X003560Y006595D01*
X003560Y006673D02*
X014368Y006673D01*
X014446Y006752D02*
X003560Y006752D01*
X003560Y006830D02*
X014525Y006830D01*
X014603Y006909D02*
X003560Y006909D01*
X004573Y007066D02*
X004956Y007066D01*
X004804Y007144D02*
X004630Y007144D01*
X004630Y007223D02*
X004726Y007223D01*
X004671Y007301D02*
X004630Y007301D01*
X004630Y007380D02*
X004638Y007380D01*
X005283Y007066D02*
X005956Y007066D01*
X005804Y007144D02*
X005435Y007144D01*
X005513Y007223D02*
X005726Y007223D01*
X005671Y007301D02*
X005568Y007301D01*
X005601Y007380D02*
X005638Y007380D01*
X006283Y007066D02*
X006956Y007066D01*
X006804Y007144D02*
X006435Y007144D01*
X006513Y007223D02*
X006726Y007223D01*
X006671Y007301D02*
X006568Y007301D01*
X006601Y007380D02*
X006638Y007380D01*
X007283Y007066D02*
X007956Y007066D01*
X007804Y007144D02*
X007435Y007144D01*
X007513Y007223D02*
X007726Y007223D01*
X007671Y007301D02*
X007568Y007301D01*
X007601Y007380D02*
X007638Y007380D01*
X007627Y007694D02*
X007612Y007694D01*
X007580Y007772D02*
X007659Y007772D01*
X007699Y007851D02*
X007540Y007851D01*
X007462Y007929D02*
X007777Y007929D01*
X007891Y008008D02*
X007348Y008008D01*
X006891Y008008D02*
X006348Y008008D01*
X006462Y007929D02*
X006777Y007929D01*
X006699Y007851D02*
X006540Y007851D01*
X006580Y007772D02*
X006659Y007772D01*
X006627Y007694D02*
X006612Y007694D01*
X005891Y008008D02*
X005348Y008008D01*
X005462Y007929D02*
X005777Y007929D01*
X005699Y007851D02*
X005540Y007851D01*
X005580Y007772D02*
X005659Y007772D01*
X005627Y007694D02*
X005612Y007694D01*
X004891Y008008D02*
X004600Y008008D01*
X004630Y007929D02*
X004777Y007929D01*
X004699Y007851D02*
X004630Y007851D01*
X004630Y007772D02*
X004659Y007772D01*
X008283Y007066D02*
X008956Y007066D01*
X008804Y007144D02*
X008435Y007144D01*
X008513Y007223D02*
X008726Y007223D01*
X008671Y007301D02*
X008568Y007301D01*
X008601Y007380D02*
X008638Y007380D01*
X008627Y007694D02*
X008612Y007694D01*
X008580Y007772D02*
X008659Y007772D01*
X008699Y007851D02*
X008540Y007851D01*
X008462Y007929D02*
X008777Y007929D01*
X008891Y008008D02*
X008348Y008008D01*
X009348Y008008D02*
X009891Y008008D01*
X009777Y007929D02*
X009462Y007929D01*
X009540Y007851D02*
X009699Y007851D01*
X009659Y007772D02*
X009580Y007772D01*
X009612Y007694D02*
X009627Y007694D01*
X009638Y007380D02*
X009601Y007380D01*
X009568Y007301D02*
X009671Y007301D01*
X009726Y007223D02*
X009513Y007223D01*
X009435Y007144D02*
X009804Y007144D01*
X009956Y007066D02*
X009283Y007066D01*
X010283Y007066D02*
X010956Y007066D01*
X010804Y007144D02*
X010435Y007144D01*
X010513Y007223D02*
X010726Y007223D01*
X010671Y007301D02*
X010568Y007301D01*
X010601Y007380D02*
X010638Y007380D01*
X010627Y007694D02*
X010612Y007694D01*
X010580Y007772D02*
X010659Y007772D01*
X010699Y007851D02*
X010540Y007851D01*
X010462Y007929D02*
X010777Y007929D01*
X010891Y008008D02*
X010348Y008008D01*
X011348Y008008D02*
X011891Y008008D01*
X011777Y007929D02*
X011462Y007929D01*
X011540Y007851D02*
X011699Y007851D01*
X011659Y007772D02*
X011580Y007772D01*
X011612Y007694D02*
X011627Y007694D01*
X011638Y007380D02*
X011601Y007380D01*
X011568Y007301D02*
X011671Y007301D01*
X011726Y007223D02*
X011513Y007223D01*
X011435Y007144D02*
X011804Y007144D01*
X011956Y007066D02*
X011283Y007066D01*
X012283Y007066D02*
X012956Y007066D01*
X012804Y007144D02*
X012435Y007144D01*
X012513Y007223D02*
X012726Y007223D01*
X012671Y007301D02*
X012568Y007301D01*
X012601Y007380D02*
X012638Y007380D01*
X013283Y007066D02*
X013956Y007066D01*
X013804Y007144D02*
X013435Y007144D01*
X013513Y007223D02*
X013726Y007223D01*
X013671Y007301D02*
X013568Y007301D01*
X013601Y007380D02*
X013638Y007380D01*
X013627Y007694D02*
X013612Y007694D01*
X013580Y007772D02*
X013659Y007772D01*
X013699Y007851D02*
X013540Y007851D01*
X013462Y007929D02*
X013777Y007929D01*
X013891Y008008D02*
X013348Y008008D01*
X012891Y008008D02*
X012348Y008008D01*
X012462Y007929D02*
X012777Y007929D01*
X012699Y007851D02*
X012540Y007851D01*
X012580Y007772D02*
X012659Y007772D01*
X012627Y007694D02*
X012612Y007694D01*
X014348Y008008D02*
X014891Y008008D01*
X014777Y007929D02*
X014462Y007929D01*
X014540Y007851D02*
X014699Y007851D01*
X014659Y007772D02*
X014580Y007772D01*
X014612Y007694D02*
X014627Y007694D01*
X015348Y008008D02*
X015891Y008008D01*
X015777Y007929D02*
X015462Y007929D01*
X015540Y007851D02*
X015699Y007851D01*
X015659Y007772D02*
X015580Y007772D01*
X015612Y007694D02*
X015627Y007694D01*
X015638Y007380D02*
X015601Y007380D01*
X015568Y007301D02*
X015671Y007301D01*
X015726Y007223D02*
X015513Y007223D01*
X015435Y007144D02*
X015804Y007144D01*
X015956Y007066D02*
X015283Y007066D01*
X016283Y007066D02*
X016956Y007066D01*
X016804Y007144D02*
X016435Y007144D01*
X016513Y007223D02*
X016726Y007223D01*
X016671Y007301D02*
X016568Y007301D01*
X016601Y007380D02*
X016638Y007380D01*
X016627Y007694D02*
X016612Y007694D01*
X016580Y007772D02*
X016659Y007772D01*
X016699Y007851D02*
X016540Y007851D01*
X016462Y007929D02*
X016777Y007929D01*
X016891Y008008D02*
X016348Y008008D01*
X017348Y008008D02*
X017891Y008008D01*
X017777Y007929D02*
X017462Y007929D01*
X017540Y007851D02*
X017699Y007851D01*
X017659Y007772D02*
X017580Y007772D01*
X017612Y007694D02*
X017627Y007694D01*
X017638Y007380D02*
X017601Y007380D01*
X017568Y007301D02*
X017671Y007301D01*
X017726Y007223D02*
X017513Y007223D01*
X017435Y007144D02*
X017804Y007144D01*
X017956Y007066D02*
X017283Y007066D01*
X018240Y005496D02*
X021529Y005496D01*
X021522Y005417D02*
X018277Y005417D01*
X018356Y005339D02*
X021528Y005339D01*
X021561Y005260D02*
X018434Y005260D01*
X018513Y005182D02*
X021626Y005182D01*
X021771Y005731D02*
X013122Y005731D01*
X012903Y005767D02*
X013277Y006141D01*
X012903Y005767D02*
X012903Y005255D01*
X012643Y005260D02*
X012264Y005260D01*
X012186Y005182D02*
X012652Y005182D01*
X012687Y005103D02*
X012107Y005103D01*
X012174Y005040D02*
X012414Y005040D01*
X012420Y005046D01*
X012487Y005040D01*
X012554Y005040D01*
X012560Y005034D01*
X012569Y005033D01*
X012612Y004982D01*
X012660Y004935D01*
X012660Y004926D01*
X012722Y004852D01*
X012770Y004805D01*
X012770Y004796D01*
X012775Y004789D01*
X012770Y004711D02*
X012798Y004711D01*
X012410Y004632D02*
X012064Y004632D01*
X011855Y004632D02*
X003560Y004632D01*
X003560Y004554D02*
X012410Y004554D01*
X012410Y004475D02*
X003560Y004475D01*
X003560Y004397D02*
X012410Y004397D01*
X012410Y004318D02*
X003560Y004318D01*
X003560Y004240D02*
X012410Y004240D01*
X012410Y004161D02*
X003560Y004161D01*
X003560Y004083D02*
X012410Y004083D01*
X011751Y004711D02*
X003560Y004711D01*
X003560Y004789D02*
X011712Y004789D01*
X011700Y004868D02*
X011669Y004868D01*
X011530Y004868D02*
X003560Y004868D01*
X003560Y004946D02*
X011406Y004946D01*
X011300Y004820D02*
X011280Y004820D01*
X011749Y005339D02*
X011833Y005339D01*
X012343Y005339D02*
X012656Y005339D01*
X012698Y005417D02*
X012421Y005417D01*
X012500Y005496D02*
X012723Y005496D01*
X012723Y005574D02*
X012578Y005574D01*
X012657Y005653D02*
X012723Y005653D01*
X013154Y005182D02*
X014805Y005182D01*
X014740Y005103D02*
X013119Y005103D01*
X013027Y005025D02*
X014710Y005025D01*
X014682Y004946D02*
X012648Y004946D01*
X012709Y004868D02*
X014604Y004868D01*
X012779Y005025D02*
X012576Y005025D01*
X018349Y002707D02*
X018390Y002748D01*
X019419Y001963D02*
X019811Y001963D01*
X019733Y001885D02*
X019506Y001885D01*
X019561Y001806D02*
X019674Y001806D01*
X019641Y001728D02*
X019598Y001728D01*
X020120Y001550D02*
X020120Y003310D01*
X020615Y001414D02*
X020624Y001414D01*
X020657Y001335D02*
X020582Y001335D01*
X020547Y001257D02*
X020692Y001257D01*
X020770Y001178D02*
X020469Y001178D01*
X020365Y001100D02*
X020874Y001100D01*
X019874Y001100D02*
X019359Y001100D01*
X019469Y001178D02*
X019770Y001178D01*
X019692Y001257D02*
X019537Y001257D01*
X019582Y001335D02*
X019657Y001335D01*
X019624Y001414D02*
X019611Y001414D01*
X022890Y007066D02*
X022956Y007066D01*
M02*
