G04 ================== begin FILE IDENTIFICATION RECORD ==================*
G04 Layout Name:  C:/Cadencework/CY8CKIT-042/600-60050-01_REV02.brd*
G04 Film Name:    GND*
G04 File Format:  Gerber RS274X*
G04 File Origin:  Cadence Allegro 16.5-S024*
G04 Origin Date:  Mon Mar 18 12:28:03 2013*
G04 *
G04 Layer:  VIA CLASS/GND*
G04 Layer:  PIN/GND*
G04 Layer:  ETCH/GND*
G04 Layer:  BOARD GEOMETRY/TOOLING_CORNERS*
G04 *
G04 Offset:    (0.0 0.0)*
G04 Mirror:    No*
G04 Mode:      Positive*
G04 Rotation:  0*
G04 FullContactRelief:  No*
G04 UndefLineWidth:     10.0*
G04 ================== end FILE IDENTIFICATION RECORD ====================*
%FSLAX25Y25*MOIN*%
%IR0*IPPOS*OFA0.00000B0.00000*MIA0B0*SFA1.00000B1.00000*%
%ADD10C,.06*%
%ADD11C,.025*%
%ADD12C,.037*%
%ADD13C,.005*%
%ADD14C,.006*%
%ADD15C,.007*%
%ADD16C,.012*%
%ADD17C,.05*%
%ADD18C,.1454*%
%ADD19C,.0804*%
%ADD20C,.0454*%
%ADD22C,.0564*%
%ADD21C,.0574*%
G75*
%LPD*%
G75*
G36*
G01X-10000Y-70D02*
G02X-9990Y0I8745J-1214D01*
G01Y75340D01*
G02X-9280Y75590I399J-1D01*
G03Y78410I1780J1410D01*
G02X-9990Y78660I-311J251D01*
G01Y180000D01*
G02X-10000Y180070I8735J1284D01*
G01Y182430D01*
G02X-2430Y190000I8750J-1180D01*
G01X-70D01*
G02X0Y189990I-1214J-8745D01*
G01X297500D01*
X300000Y190000D01*
X302500Y187500D01*
Y175500D01*
X247500D01*
Y142810D01*
X240690D01*
Y115960D01*
X241460Y115190D01*
X247500D01*
Y108890D01*
G02X246910Y108540I-399J0D01*
G03Y101460I-1910J-3540D01*
G02X247500Y101110I191J-350D01*
G01Y98890D01*
G02X246910Y98540I-399J0D01*
G03Y91460I-1910J-3540D01*
G02X247500Y91110I191J-350D01*
G01Y88890D01*
G02X246910Y88540I-399J0D01*
G03X245000Y80980I-1910J-3539D01*
G01Y67500D01*
X227500D01*
Y25000D01*
X235000D01*
Y15000D01*
X288850D01*
G02X289130Y14320I-2J-398D01*
G03X294870I2870J-2820D01*
G02X295150Y15000I282J282D01*
G01X322490D01*
Y0D01*
G02X322500Y-70I-8735J-1284D01*
G01Y-2430D01*
G02X314930Y-10000I-8750J1180D01*
G01X312570D01*
G02X312500Y-9990I1214J8745D01*
G01X262490D01*
Y-10000D01*
X82510D01*
Y-9990D01*
X0D01*
G02X-70Y-10000I-1284J8735D01*
G01X-2430D01*
G02X-10000Y-2430I1180J8750D01*
G01Y-70D01*
G37*
%LPC*%
G75*
G36*
G01X132050Y54160D02*
G02X130230Y54750I-1545J-1662D01*
G03X130450Y55440I-53J397D01*
G02X132270Y54850I1545J1662D01*
G03X132050Y54160I53J-397D01*
G37*
G36*
G01X40280Y83630D02*
G02X38210Y84770I-1971J-1129D01*
G03X38530Y85370I-24J398D01*
G02X40600Y84230I1971J1129D01*
G03X40280Y83630I24J-398D01*
G37*
G36*
G01X7220Y179150D02*
G02X6890Y182330I-7220J858D01*
G03X7600Y182240I377J130D01*
G02X7900Y179390I1900J-1241D01*
G03X7220Y179150I-283J-283D01*
G37*
G36*
G01X40230Y31360D02*
G03X39860Y31730I-395J-25D01*
G02X37840Y34710I138J2268D01*
G03X37470Y35230I-379J122D01*
G02X35230Y37360I27J2271D01*
G03X34860Y37730I-395J-25D01*
G02X37270Y40140I140J2270D01*
G03X37640Y39770I395J25D01*
G02X39660Y36790I-138J-2268D01*
G03X40030Y36270I379J-122D01*
G02X42270Y34140I-27J-2271D01*
G03X42640Y33770I396J26D01*
G02X40230Y31360I-140J-2270D01*
G37*
G36*
G01X105730Y37530D02*
G03X105820Y36930I304J-261D01*
G02X102470Y36710I-1523J-2431D01*
G03X102480Y37310I-258J304D01*
G02X105730Y37530I1518J1689D01*
G37*
G36*
G01X19140Y40730D02*
G03X18770Y40360I25J-395D01*
G02X16360Y42770I-2270J140D01*
G03X16730Y43140I-26J396D01*
G02X19140Y40730I2270J-140D01*
G37*
G36*
G01X109770Y47640D02*
G03X110140Y47270I396J26D01*
G02X107730Y44860I-140J-2270D01*
G03X107360Y45230I-396J-26D01*
G02X109770Y47640I140J2270D01*
G37*
G36*
G01X143200Y60750D02*
G03X142750Y60300I-54J-396D01*
G02X140800Y62250I-2250J-300D01*
G03X141250Y62700I54J396D01*
G02X143200Y60750I2250J300D01*
G37*
G36*
G01X186180Y62750D02*
G03X185730Y62280I-59J-394D01*
G02X183820Y64100I-2230J-429D01*
G03X184270Y64570I59J394D01*
G02X186180Y62750I2230J429D01*
G37*
G36*
G01X160760Y70840D02*
G03X161140Y70420I399J-21D01*
G02X158740Y68310I-135J-2266D01*
G03X158360Y68730I-399J21D01*
G02X160760Y70840I135J2266D01*
G37*
G36*
G01X191760Y70770D02*
G03X192260Y70340I397J-44D01*
G02X190590Y68380I588J-2192D01*
G03X190090Y68810I-397J44D01*
G02X188660Y73110I-588J2192D01*
G03X188880Y73630I-150J370D01*
G02X191830Y72360I2110J840D01*
G03X191610Y71840I150J-370D01*
G02X191760Y70770I-2109J-841D01*
G37*
G36*
G01X141520Y70970D02*
G03X141670Y70440I357J-185D01*
G02X138480Y69530I-1171J-1942D01*
G03X138330Y70060I-357J185D01*
G02X141520Y70970I1171J1942D01*
G37*
G36*
G01X66150Y80910D02*
G03X66430Y80900I145J137D01*
G02X66350Y77700I1570J-1640D01*
G03X66070Y77710I-145J-137D01*
G02X66150Y80910I-1570J1640D01*
G37*
G36*
G01X75650Y81380D02*
G03X75930Y81330I164J112D01*
G02X75410Y78170I1329J-1841D01*
G03X75130Y78220I-164J-112D01*
G02X75650Y81380I-1329J1841D01*
G37*
G36*
G01X14200Y80250D02*
G03X13750Y79800I-54J-396D01*
G02X11800Y81750I-2250J-300D01*
G03X12250Y82200I54J396D01*
G02X14200Y80250I2250J300D01*
G37*
G36*
G01X206700Y88250D02*
G03X206250Y87800I-54J-396D01*
G02X204300Y89750I-2250J-300D01*
G03X204750Y90200I54J396D01*
G02X206700Y88250I2250J300D01*
G37*
G36*
G01X175880Y94770D02*
G03X176510Y94710I339J217D01*
G02X176270Y91880I1641J-1564D01*
G03X175640Y91940I-339J-217D01*
G02X175880Y94770I-1641J1564D01*
G37*
G36*
G01X95660Y101020D02*
G03X95860Y100770I191J-52D01*
G02X93770Y98940I140J-2268D01*
G03X93400Y99420I-389J82D01*
G02X94050Y103890I93J2269D01*
G03X94290Y104040I47J193D01*
G02X95940Y101300I2207J-538D01*
G03X95700Y101150I-47J-193D01*
G02X95660Y101020I-2191J603D01*
G37*
G36*
G01X137750Y108280D02*
G03X137370Y108730I-396J51D01*
G02X139750Y110720I127J2267D01*
G03X140130Y110270I396J-51D01*
G02X142110Y108820I-138J-2265D01*
G03X142640Y108600I373J150D01*
G02X141390Y105680I863J-2097D01*
G03X140860Y105900I-373J-150D01*
G02X137750Y108280I-858J2100D01*
G37*
G36*
G01X129460Y113200D02*
G03X129760Y113650I-98J390D01*
G02X132540Y111800I2240J352D01*
G03X132240Y111350I98J-390D01*
G02X129460Y113200I-2240J-352D01*
G37*
G36*
G01X45640Y113230D02*
G03X45270Y112860I26J-396D01*
G02X42860Y115270I-2270J140D01*
G03X43230Y115640I-26J396D01*
G02X45640Y113230I2270J-140D01*
G37*
G36*
G01X97740Y117150D02*
G03X98040Y116700I398J-60D01*
G02X95260Y114850I-540J-2202D01*
G03X94960Y115300I-398J60D01*
G02X97740Y117150I540J2202D01*
G37*
G36*
G01X35580Y139370D02*
G03Y138830I292J-270D01*
G02X32220I-1680J-1530D01*
G03Y139370I-292J270D01*
G02X35580I1680J1530D01*
G37*
G36*
G01X235260Y141110D02*
G03X235190Y140520I228J-326D01*
G02X232240Y140890I-1689J-1519D01*
G03X232310Y141480I-228J326D01*
G02X235260Y141110I1689J1519D01*
G37*
G36*
G01X210230Y173360D02*
G03X209860Y173730I-395J-25D01*
G02X212270Y176140I140J2270D01*
G03X212640Y175770I395J25D01*
G02X212780Y175750I-251J-2254D01*
G03X213230Y176130I51J396D01*
G02X215220Y173750I2267J-127D01*
G03X214770Y173370I-51J-396D01*
G02X210230Y173360I-2270J130D01*
G37*
G54D18*
X312500Y0D03*
X0D03*
G54D19*
X292500Y182000D03*
X255000Y5000D03*
X265000D03*
X255000Y-5000D03*
X265000D03*
X235000Y185000D03*
Y105000D03*
Y95000D03*
Y85000D03*
Y5000D03*
X245000D03*
X235000Y-5000D03*
X245000D03*
X215000Y185000D03*
X205000D03*
X225000D03*
X217500Y122500D03*
Y112500D03*
X205000Y5000D03*
X215000D03*
X225000D03*
X205000Y-5000D03*
X215000D03*
X225000D03*
X195000Y185000D03*
X185000D03*
X198000Y157500D03*
X185000Y5000D03*
X195000D03*
X185000Y-5000D03*
X195000D03*
X175000Y185000D03*
X165000D03*
Y-5000D03*
X155000D03*
X149000Y185000D03*
X129000D03*
X139000D03*
X145000Y-5000D03*
X135000D03*
X109000Y185000D03*
X119000D03*
X121000Y159000D03*
X111000D03*
X101000D03*
X125000Y-5000D03*
X115000D03*
X105000D03*
X99000Y185000D03*
X89000D03*
X79000D03*
X95000Y-5000D03*
X69000Y185000D03*
X59000D03*
X75000Y-2500D03*
X55000D03*
X65000D03*
X45000Y170000D03*
X35000Y-2500D03*
X25000D03*
X45000D03*
X8500Y167000D03*
X6000Y68000D03*
Y58000D03*
Y48000D03*
Y38000D03*
Y28000D03*
Y18000D03*
X12500Y7500D03*
X-4000Y95000D03*
Y85000D03*
Y68000D03*
Y58000D03*
Y48000D03*
Y38000D03*
Y28000D03*
Y18000D03*
G54D20*
X262500Y178500D03*
X230500Y177000D03*
X222000Y171000D03*
X225500Y143000D03*
X217500Y80500D03*
Y93000D03*
X211000Y84000D03*
X220000Y74450D03*
X178500Y171500D03*
X188500Y118750D03*
X178500D03*
X197000Y124000D03*
X189000D03*
X188500Y96500D03*
X193500Y80500D03*
Y93000D03*
Y55550D03*
X191000Y61000D03*
X190500Y34000D03*
X178500D03*
X184500D03*
X186700Y46000D03*
X189500Y52500D03*
X184500Y21000D03*
X190500D03*
X178500D03*
X160000Y164000D03*
X150000D03*
X170000Y162500D03*
X165000Y160000D03*
X150000Y153000D03*
X159500Y142500D03*
X150000D03*
X160000Y153000D03*
X150000Y132500D03*
X159500Y134000D03*
X169500Y140000D03*
X165000Y147500D03*
X163000Y105500D03*
X150000Y125000D03*
X168700Y93300D03*
X166000Y78000D03*
X159250Y36250D03*
X169500Y46000D03*
X166500Y34000D03*
X172500D03*
X166500Y21000D03*
X172500D03*
X140000Y164000D03*
X135000Y160000D03*
X130000Y162500D03*
X140000Y142500D03*
Y153000D03*
X139500Y135500D03*
X134000Y148000D03*
X130000Y152500D03*
X132000Y72500D03*
X139500Y41000D03*
X99000Y176000D03*
X101000Y144500D03*
Y138500D03*
X114000Y113000D03*
X98500Y128500D03*
X101500Y79500D03*
X116500Y91500D03*
X98500Y55000D03*
X112000Y78500D03*
X120450Y68500D03*
X115000Y9000D03*
X88050Y134950D03*
X93000Y110500D03*
X92500Y124000D03*
X83000Y119500D03*
X95900Y87400D03*
X96500Y93000D03*
X97500Y62500D03*
X77000Y59000D03*
X87500Y49050D03*
X77000Y45500D03*
X98000Y38000D03*
X53500Y162500D03*
X50500Y146000D03*
X60500Y121500D03*
X67000Y122000D03*
X56500Y115500D03*
X52500Y101070D03*
X49500Y97000D03*
X52000Y91500D03*
X53000Y76000D03*
X57500Y78500D03*
X64000Y58500D03*
X50500Y50000D03*
X70500Y45500D03*
X56500Y27000D03*
X70500Y5000D03*
X24000Y170000D03*
X45510Y181110D03*
X33950Y152050D03*
X39000Y131500D03*
X40000Y120500D03*
X33500D03*
X37500Y108000D03*
X29000Y96000D03*
X37500Y102000D03*
X35000Y65000D03*
Y60000D03*
Y55000D03*
Y70000D03*
Y50000D03*
X45000Y40000D03*
X18000Y161450D03*
X21000Y147500D03*
X11500Y92500D03*
X18500Y79500D03*
X17000Y63000D03*
X16500Y58000D03*
X1000Y74500D03*
G54D22*
X10670Y146100D03*
Y128900D03*
G54D21*
X190500Y167500D03*
X181500Y162500D03*
X195000Y141000D03*
X150500Y115000D03*
X165450Y119050D03*
X124660Y117160D03*
X135000Y31500D03*
X119000Y82500D03*
X122500Y32000D03*
X117000Y41500D03*
X104300Y23200D03*
X122500Y7500D03*
X89800Y16800D03*
X79000Y8000D03*
X93500Y9000D03*
X59500Y15500D03*
%LPD*%
G75*
G54D10*
X-4000Y18000D03*
Y85000D03*
X12500Y7500D03*
X8500Y167000D03*
X35000Y-2500D03*
X89000Y185000D03*
X145000Y-5000D03*
X155000D03*
X245000Y5000D03*
Y85000D03*
X292000Y11500D03*
X292500Y182000D03*
G54D11*
G01X-4000Y13790D02*
Y18000D01*
G01D02*
Y22210D01*
G01X-8210Y18000D02*
X-4000D01*
G01D02*
X210D01*
G01X-4000Y80790D02*
Y85000D01*
G01D02*
Y89210D01*
G01X-8210Y85000D02*
X-4000D01*
G01D02*
X210D01*
G01X12500Y3290D02*
Y7500D01*
G01D02*
Y11710D01*
G01X8290Y7500D02*
X12500D01*
G01D02*
X16710D01*
G01X8500Y162790D02*
Y167000D01*
G01D02*
Y171210D01*
G01X4290Y167000D02*
X8500D01*
G01D02*
X12710D01*
G01X35000Y-6710D02*
Y-2500D01*
G01D02*
Y1710D01*
G01X30790Y-2500D02*
X35000D01*
G01D02*
X39210D01*
G01X89000Y180790D02*
Y185000D01*
G01X84790D02*
X89000D01*
G01D02*
X93210D01*
G01X145000Y-5000D02*
Y-790D01*
G01X140790Y-5000D02*
X145000D01*
G01D02*
X149210D01*
G01X155000Y-9210D02*
Y-5000D01*
G01D02*
Y-790D01*
G01X150790Y-5000D02*
X155000D01*
G01D02*
X159210D01*
G01X245000Y790D02*
Y5000D01*
G01D02*
Y9210D01*
G01X240790Y5000D02*
X245000D01*
G01D02*
X249210D01*
G01X245000Y80790D02*
Y85000D01*
G01D02*
Y89210D01*
G01X240790Y85000D02*
X245000D01*
G01X292000Y7290D02*
Y11500D01*
G01X287790D02*
X292000D01*
G01D02*
X296210D01*
G01X292500Y177790D02*
Y182000D01*
G01D02*
Y186210D01*
G01X288290Y182000D02*
X292500D01*
G01D02*
X296710D01*
X-6250Y109500D03*
X18000Y22000D03*
Y35000D03*
Y69000D03*
X19500Y127000D03*
X4500Y144500D03*
X15200Y131200D03*
X38500Y12000D03*
X46000Y26500D03*
X36000Y33000D03*
X30050Y90050D03*
X28500Y101000D03*
X23000D03*
X34500Y112000D03*
X29500Y119500D03*
X39500Y126000D03*
X29000Y127000D03*
X41550Y154450D03*
X33450Y147450D03*
X43550Y141000D03*
X29000Y162500D03*
X61500Y21000D03*
X52500Y11000D03*
X67500Y27500D03*
X51000Y21000D03*
X51500Y70000D03*
X72500Y66500D03*
X65000Y65500D03*
X57500Y66500D03*
X50500Y55000D03*
X51000Y60000D03*
X51500Y65000D03*
X63000Y90500D03*
Y100000D03*
X72500Y90500D03*
Y100000D03*
X59950Y125050D03*
X63000Y109500D03*
X72500D03*
X62000Y162000D03*
X53500Y177000D03*
X52000Y184500D03*
X86500Y-5000D03*
X82000Y29500D03*
X89000Y65000D03*
X82000Y100000D03*
Y90500D03*
Y109500D03*
X88000Y150000D03*
Y155000D03*
X87500Y140000D03*
Y145000D03*
X74500Y177000D03*
X84500Y169500D03*
X99000Y8500D03*
X111500Y16000D03*
X111000Y86500D03*
X112000Y90000D03*
X114000Y109500D03*
X112500Y124500D03*
X101500D03*
X102000Y130700D03*
X109500Y175000D03*
X142000Y19500D03*
Y7000D03*
X128500Y25500D03*
X148050Y25550D03*
X144000Y35500D03*
X130500Y46000D03*
X136000Y103500D03*
X132000Y81000D03*
X146500Y103650D03*
X134450Y120050D03*
X171500Y-6500D03*
X165550Y45950D03*
X177000Y-3000D03*
X193750Y49250D03*
X191000Y103000D03*
X178450Y103950D03*
X182000Y152000D03*
Y140000D03*
X222000Y47000D03*
X223500Y35000D03*
X203400Y77600D03*
X214500Y104500D03*
Y139500D03*
X226000Y174000D03*
X214500Y161000D03*
X221500Y162000D03*
X241500Y45500D03*
X240500Y39000D03*
X239500Y54500D03*
X234500Y116500D03*
X235000Y125500D03*
X243500Y145000D03*
X247000Y152000D03*
X234500Y134500D03*
X239000Y153000D03*
X233000Y163000D03*
X245500Y187500D03*
X259000Y24000D03*
X265000Y22000D03*
X252500Y166500D03*
X276000Y158000D03*
X261000Y165500D03*
Y184000D03*
X287500Y-7500D03*
Y2000D03*
X298130Y2130D03*
X292000Y-2500D03*
X303000Y23500D03*
X302500Y161000D03*
X304500Y-5500D03*
X305500Y8000D03*
X318000Y35000D03*
X319000Y62000D03*
Y84000D03*
Y105500D03*
X318500Y127500D03*
Y149500D03*
X317000Y162000D03*
G54D12*
X97000Y30500D03*
X148500Y17000D03*
G54D13*
G01X243180Y129830D02*
X243440Y130110D01*
X243740Y130250D01*
X244090Y130300D01*
X244520Y130210D01*
X244820Y129970D01*
X244910Y129690D01*
X244870Y129410D01*
X244690Y129180D01*
X243830Y128710D01*
X243440Y128390D01*
X243180Y127920D01*
X243090Y127500D01*
X244910D01*
G01X243130Y140300D02*
Y137500D01*
X244870D01*
G54D14*
G01X242000Y126500D02*
X246000D01*
Y131500D01*
X242000D01*
Y126500D01*
G01Y121500D02*
X246000D01*
Y126500D01*
X242000D01*
Y121500D01*
G01Y116500D02*
X246000D01*
Y121500D01*
X242000D01*
Y116500D01*
G01Y136500D02*
X246000D01*
Y141500D01*
X242000D01*
Y136500D01*
G01Y131500D02*
X246000D01*
Y136500D01*
X242000D01*
Y131500D01*
G54D15*
G01X237860Y17860D02*
Y27860D01*
X237850D01*
Y47850D01*
X230360D01*
Y64640D01*
X247860D01*
Y78140D01*
X250360D01*
Y142310D01*
X250840Y172640D01*
X305360D01*
Y172650D01*
X310490D01*
G03X314510I2010J7350D01*
G01X322150D01*
Y17860D01*
X237860D01*
G01X265620Y42500D02*
G02I-2620J0D01*
G01Y65000D02*
G02I-2620J0D01*
G01Y88500D02*
G02I-2620J0D01*
G01Y112000D02*
G02I-2620J0D01*
G01Y135500D02*
G02I-2620J0D01*
G01X250800Y169910D02*
X253530Y172640D01*
G01X250680Y162430D02*
X260890Y172640D01*
G01X250570Y154960D02*
X268250Y172640D01*
G01X250450Y147490D02*
X275600Y172640D01*
G01X250370Y140060D02*
X282950Y172640D01*
G01X250360Y132700D02*
X290300Y172640D01*
G01X263140Y138120D02*
X297660Y172640D01*
G01X250370Y125350D02*
X260380Y135360D01*
G01X250360Y117990D02*
X305010Y172640D01*
G01X250360Y110640D02*
X312110Y172390D01*
G01X250370Y103290D02*
X319730Y172650D01*
G01X265420Y110990D02*
X322150Y167720D01*
G01X250360Y95930D02*
X264010Y109580D01*
G01X250370Y88580D02*
X322150Y160360D01*
G01X250370Y81230D02*
X322150Y153010D01*
G01X230370Y61230D02*
X233780Y64640D01*
G01X265560Y89070D02*
X322150Y145660D01*
G01X247860Y71370D02*
X262430Y85940D01*
G01X230360Y53870D02*
X241130Y64640D01*
G01X231700Y47850D02*
X322150Y138300D01*
G01X237850Y46650D02*
X322150Y130950D01*
G01X265110Y66560D02*
X322150Y123600D01*
G01X237860Y39300D02*
X261440Y62890D01*
G01X237860Y31950D02*
X322150Y116240D01*
G01X237860Y24600D02*
X322150Y108890D01*
G01X264920Y44300D02*
X322150Y101530D01*
G01X238480Y17860D02*
X261200Y40580D01*
G01X245830Y17860D02*
X322150Y94180D01*
G01X253190Y17860D02*
X322150Y86820D01*
G01X260540Y17860D02*
X322150Y79470D01*
G01X267890Y17860D02*
X322150Y72120D01*
G01X275250Y17860D02*
X322150Y64760D01*
G01X282600Y17860D02*
X322150Y57410D01*
G01X289950Y17860D02*
X322150Y50060D01*
G01X297310Y17860D02*
X322150Y42700D01*
G01X304660Y17860D02*
X322150Y35350D01*
G01X312020Y17860D02*
X322150Y27990D01*
G01X319370Y17860D02*
X322150Y20640D01*
G01X239530Y17860D02*
X237870Y19520D01*
G01X246880Y17860D02*
X237860Y26880D01*
G01X254230Y17860D02*
X237850Y34240D01*
G01X231590Y47860D02*
X230370Y49080D01*
G01X261590Y17860D02*
X237860Y41590D01*
G01X268940Y17860D02*
X230360Y56440D01*
G01X276300Y17860D02*
X230370Y63790D01*
G01X283650Y17860D02*
X236870Y64640D01*
G01X263910Y44960D02*
X244230Y64640D01*
G01X291000Y17860D02*
X265460Y43410D01*
G01X298360Y17860D02*
X247870Y68350D01*
G01X305710Y17860D02*
X247860Y75710D01*
G01X263330Y67600D02*
X250370Y80560D01*
G01X313070Y17860D02*
X265600Y65330D01*
G01X320420Y17860D02*
X250370Y87910D01*
G01X322150Y23480D02*
X250360Y95270D01*
G01X262040Y90950D02*
X250370Y102620D01*
G01X322150Y30840D02*
X265450Y87540D01*
G01X322150Y38190D02*
X250360Y109980D01*
G01X322150Y45550D02*
X250370Y117330D01*
G01X261170Y113880D02*
X250370Y124680D01*
G01X322150Y52900D02*
X264880Y110170D01*
G01X322150Y60250D02*
X250360Y132040D01*
G01X322150Y67610D02*
X250370Y139390D01*
G01X260580Y136530D02*
X250430Y146680D01*
G01X322150Y74960D02*
X264030Y133080D01*
G01X322150Y82320D02*
X250550Y153920D01*
G01X322150Y89670D02*
X250660Y161160D01*
G01X322150Y97020D02*
X250780Y168400D01*
G01X322150Y104380D02*
X253890Y172640D01*
G01X322150Y111730D02*
X261240Y172640D01*
G01X322150Y119080D02*
X268590Y172640D01*
G01X322150Y126440D02*
X275950Y172640D01*
G01X322150Y133790D02*
X283300Y172640D01*
G01X322150Y141150D02*
X290660Y172640D01*
G01X322150Y148500D02*
X298010Y172640D01*
G01X322150Y155850D02*
X305360Y172640D01*
G01X322150Y163210D02*
X312970Y172390D01*
G01X322150Y170560D02*
X320060Y172650D01*
G01X317000Y161000D02*
Y162000D01*
G01D02*
Y162570D01*
G01X316430Y162000D02*
X317000D01*
G01D02*
X322150D01*
G54D16*
G01X-3630Y-70830D02*
X-2750Y-69670D01*
X-2000Y-69000D01*
X-1000Y-68670D01*
X-120Y-69000D01*
X500Y-69670D01*
X1000Y-70670D01*
X1130Y-71830D01*
X1000Y-72830D01*
X500Y-73830D01*
X-250Y-74670D01*
X-1120Y-75000D01*
X-2120Y-74670D01*
X-3000Y-73670D01*
X-3500Y-72170D01*
X-3630Y-70500D01*
X-3380Y-68330D01*
X-3000Y-67170D01*
X-2380Y-66000D01*
X-1500Y-65170D01*
X-630Y-65000D01*
X250Y-65330D01*
X880Y-66170D01*
G01X8750Y-65000D02*
X7750Y-65330D01*
X7000Y-66170D01*
X6500Y-67170D01*
X6120Y-68500D01*
X6000Y-70000D01*
X6120Y-71500D01*
X6500Y-72830D01*
X7000Y-73830D01*
X7750Y-74670D01*
X8750Y-75000D01*
X9750Y-74670D01*
X10500Y-73830D01*
X11000Y-72830D01*
X11380Y-71500D01*
X11500Y-70000D01*
X11380Y-68500D01*
X11000Y-67170D01*
X10500Y-66170D01*
X9750Y-65330D01*
X8750Y-65000D01*
G01X18750D02*
X17750Y-65330D01*
X17000Y-66170D01*
X16500Y-67170D01*
X16120Y-68500D01*
X16000Y-70000D01*
X16120Y-71500D01*
X16500Y-72830D01*
X17000Y-73830D01*
X17750Y-74670D01*
X18750Y-75000D01*
X19750Y-74670D01*
X20500Y-73830D01*
X21000Y-72830D01*
X21380Y-71500D01*
X21500Y-70000D01*
X21380Y-68500D01*
X21000Y-67170D01*
X20500Y-66170D01*
X19750Y-65330D01*
X18750Y-65000D01*
G01X27130Y-71670D02*
X30370D01*
G01X36370Y-70830D02*
X37250Y-69670D01*
X38000Y-69000D01*
X39000Y-68670D01*
X39880Y-69000D01*
X40500Y-69670D01*
X41000Y-70670D01*
X41130Y-71830D01*
X41000Y-72830D01*
X40500Y-73830D01*
X39750Y-74670D01*
X38880Y-75000D01*
X37880Y-74670D01*
X37000Y-73670D01*
X36500Y-72170D01*
X36370Y-70500D01*
X36620Y-68330D01*
X37000Y-67170D01*
X37620Y-66000D01*
X38500Y-65170D01*
X39370Y-65000D01*
X40250Y-65330D01*
X40880Y-66170D01*
G01X48750Y-65000D02*
X47750Y-65330D01*
X47000Y-66170D01*
X46500Y-67170D01*
X46120Y-68500D01*
X46000Y-70000D01*
X46120Y-71500D01*
X46500Y-72830D01*
X47000Y-73830D01*
X47750Y-74670D01*
X48750Y-75000D01*
X49750Y-74670D01*
X50500Y-73830D01*
X51000Y-72830D01*
X51380Y-71500D01*
X51500Y-70000D01*
X51380Y-68500D01*
X51000Y-67170D01*
X50500Y-66170D01*
X49750Y-65330D01*
X48750Y-65000D01*
G01X58750D02*
X57750Y-65330D01*
X57000Y-66170D01*
X56500Y-67170D01*
X56120Y-68500D01*
X56000Y-70000D01*
X56120Y-71500D01*
X56500Y-72830D01*
X57000Y-73830D01*
X57750Y-74670D01*
X58750Y-75000D01*
X59750Y-74670D01*
X60500Y-73830D01*
X61000Y-72830D01*
X61380Y-71500D01*
X61500Y-70000D01*
X61380Y-68500D01*
X61000Y-67170D01*
X60500Y-66170D01*
X59750Y-65330D01*
X58750Y-65000D01*
G01X66000Y-73500D02*
X66750Y-74330D01*
X67620Y-74830D01*
X68750Y-75000D01*
X69880Y-74670D01*
X70750Y-74000D01*
X71380Y-72830D01*
X71500Y-71500D01*
X71250Y-70170D01*
X70620Y-69330D01*
X69750Y-68670D01*
X68880Y-68500D01*
X68000Y-68670D01*
X66880Y-69330D01*
X67250Y-65000D01*
X70620D01*
G01X78750D02*
X77750Y-65330D01*
X77000Y-66170D01*
X76500Y-67170D01*
X76120Y-68500D01*
X76000Y-70000D01*
X76120Y-71500D01*
X76500Y-72830D01*
X77000Y-73830D01*
X77750Y-74670D01*
X78750Y-75000D01*
X79750Y-74670D01*
X80500Y-73830D01*
X81000Y-72830D01*
X81380Y-71500D01*
X81500Y-70000D01*
X81380Y-68500D01*
X81000Y-67170D01*
X80500Y-66170D01*
X79750Y-65330D01*
X78750Y-65000D01*
G01X87130Y-71670D02*
X90370D01*
G01X98750Y-65000D02*
X97750Y-65330D01*
X97000Y-66170D01*
X96500Y-67170D01*
X96120Y-68500D01*
X96000Y-70000D01*
X96120Y-71500D01*
X96500Y-72830D01*
X97000Y-73830D01*
X97750Y-74670D01*
X98750Y-75000D01*
X99750Y-74670D01*
X100500Y-73830D01*
X101000Y-72830D01*
X101380Y-71500D01*
X101500Y-70000D01*
X101380Y-68500D01*
X101000Y-67170D01*
X100500Y-66170D01*
X99750Y-65330D01*
X98750Y-65000D01*
G01X108750Y-75000D02*
Y-65000D01*
X107250Y-67000D01*
G01Y-75000D02*
X110250D01*
G01X126250D02*
Y-65000D01*
X129370D01*
X130370Y-65500D01*
X131000Y-66170D01*
X131250Y-67500D01*
X131000Y-68830D01*
X130250Y-69670D01*
X129370Y-70170D01*
X126250D01*
G01X129370D02*
X131250Y-75000D01*
G01X141250D02*
X136250D01*
Y-65000D01*
X141250D01*
G01X139250Y-69830D02*
X136250D01*
G01X145620Y-65000D02*
X148750Y-75000D01*
X151880Y-65000D01*
G01X158750D02*
X157750Y-65330D01*
X157000Y-66170D01*
X156500Y-67170D01*
X156120Y-68500D01*
X156000Y-70000D01*
X156120Y-71500D01*
X156500Y-72830D01*
X157000Y-73830D01*
X157750Y-74670D01*
X158750Y-75000D01*
X159750Y-74670D01*
X160500Y-73830D01*
X161000Y-72830D01*
X161380Y-71500D01*
X161500Y-70000D01*
X161380Y-68500D01*
X161000Y-67170D01*
X160500Y-66170D01*
X159750Y-65330D01*
X158750Y-65000D01*
G01X166370Y-66670D02*
X167130Y-65670D01*
X168000Y-65170D01*
X169000Y-65000D01*
X170250Y-65330D01*
X171130Y-66170D01*
X171380Y-67170D01*
X171250Y-68170D01*
X170750Y-69000D01*
X168250Y-70670D01*
X167130Y-71830D01*
X166370Y-73500D01*
X166120Y-75000D01*
X171380D01*
G01X189500Y-70000D02*
X192000D01*
Y-73000D01*
X191250Y-74000D01*
X190370Y-74670D01*
X189130Y-75000D01*
X187880Y-74670D01*
X187000Y-74000D01*
X186250Y-73000D01*
X185750Y-71830D01*
X185500Y-70500D01*
Y-69330D01*
X185750Y-68330D01*
X186250Y-67170D01*
X187000Y-66170D01*
X187750Y-65500D01*
X188750Y-65000D01*
X189620D01*
X190620Y-65330D01*
X191380Y-66000D01*
G01X196250Y-75000D02*
Y-65000D01*
X199370D01*
X200370Y-65500D01*
X201000Y-66170D01*
X201250Y-67500D01*
X201000Y-68830D01*
X200250Y-69670D01*
X199370Y-70170D01*
X196250D01*
G01X199370D02*
X201250Y-75000D01*
G01X208750D02*
X207750Y-74830D01*
X206880Y-74170D01*
X206120Y-73170D01*
X205620Y-72000D01*
X205370Y-70670D01*
Y-69330D01*
X205620Y-68000D01*
X206120Y-66830D01*
X206880Y-65830D01*
X207750Y-65170D01*
X208750Y-65000D01*
X209750Y-65170D01*
X210620Y-65830D01*
X211380Y-66830D01*
X211880Y-68000D01*
X212130Y-69330D01*
Y-70670D01*
X211880Y-72000D01*
X211380Y-73170D01*
X210620Y-74170D01*
X209750Y-74830D01*
X208750Y-75000D01*
G01X216000Y-65000D02*
Y-72170D01*
X216500Y-73670D01*
X217500Y-74670D01*
X218750Y-75000D01*
X220000Y-74670D01*
X221000Y-73670D01*
X221500Y-72170D01*
Y-65000D01*
G01X225880Y-75000D02*
Y-65000D01*
X231620Y-75000D01*
Y-65000D01*
G01X236000Y-75000D02*
Y-65000D01*
X238500D01*
X239500Y-65500D01*
X240250Y-66170D01*
X240880Y-67170D01*
X241380Y-68330D01*
X241500Y-70000D01*
X241380Y-71670D01*
X240880Y-72830D01*
X240250Y-73830D01*
X239500Y-74500D01*
X238500Y-75000D01*
X236000D01*
G01X256250Y-65000D02*
Y-75000D01*
X261250D01*
G01X265620D02*
X268750Y-65000D01*
X271880Y-75000D01*
G01X270750Y-71500D02*
X266750D01*
G01X278750Y-75000D02*
Y-70500D01*
X276250Y-65000D01*
G01X281250D02*
X278750Y-70500D01*
G01X291250Y-75000D02*
X286250D01*
Y-65000D01*
X291250D01*
G01X289250Y-69830D02*
X286250D01*
G01X296250Y-75000D02*
Y-65000D01*
X299370D01*
X300370Y-65500D01*
X301000Y-66170D01*
X301250Y-67500D01*
X301000Y-68830D01*
X300250Y-69670D01*
X299370Y-70170D01*
X296250D01*
G01X299370D02*
X301250Y-75000D01*
G54D17*
G01X-15000Y12500D02*
Y-15000D01*
X12500D01*
G01X-15000Y167500D02*
Y195000D01*
X12500D01*
G01X327500Y12500D02*
Y-15000D01*
X302500D01*
G01X300000Y195000D02*
X327500D01*
Y167500D01*
M02*
