G04 ================== begin FILE IDENTIFICATION RECORD ==================*
G04 Layout Name:  C:/Cadencework/CY8CKIT-042/600-60050-01_REV02.brd*
G04 Film Name:    psp*
G04 File Format:  Gerber RS274X*
G04 File Origin:  Cadence Allegro 16.5-S024*
G04 Origin Date:  Mon Mar 18 12:28:03 2013*
G04 *
G04 Layer:  PIN/PASTEMASK_TOP*
G04 Layer:  BOARD GEOMETRY/TOOLING_CORNERS*
G04 Layer:  BOARD GEOMETRY/PASTEMASK_TOP*
G04 *
G04 Offset:    (0.0 0.0)*
G04 Mirror:    No*
G04 Mode:      Positive*
G04 Rotation:  0*
G04 FullContactRelief:  No*
G04 UndefLineWidth:     10.0*
G04 ================== end FILE IDENTIFICATION RECORD ====================*
%FSLAX25Y25*MOIN*%
%IR0*IPPOS*OFA0.00000B0.00000*MIA0B0*SFA1.00000B1.00000*%
%ADD34R,.063X.1181*%
%ADD16R,.1102X.0295*%
%ADD15R,.0591X.126*%
%ADD22R,.1654X.1654*%
%AMMACRO29*
4,1,23,.017,-.0045,
.017,.0045,
-.012,.0045,
-.012789,.004518,
-.013569,.0044,
-.014317,.004147,
-.01501,.003769,
-.015626,.003276,
-.016147,.002683,
-.016558,.002009,
-.016845,.001274,
-.017,.0005,
-.017018,-.000289,
-.0169,-.001069,
-.016647,-.001817,
-.016269,-.00251,
-.015776,-.003126,
-.015183,-.003647,
-.014509,-.004058,
-.013774,-.004345,
-.013,-.0045,
-.012211,-.004518,
-.012,-.0045,
.017,-.0045,
0.0*
%
%ADD29MACRO29*%
%AMMACRO23*
4,1,23,-.0045,-.017,
.0045,-.017,
.0045,.012,
.004518,.012789,
.0044,.013569,
.004147,.014317,
.003769,.01501,
.003276,.015626,
.002683,.016147,
.002009,.016558,
.001274,.016845,
.0005,.017,
-.000289,.017018,
-.001069,.0169,
-.001817,.016647,
-.00251,.016269,
-.003126,.015776,
-.003647,.015183,
-.004058,.014509,
-.004345,.013774,
-.0045,.013,
-.004518,.012211,
-.0045,.012,
-.0045,-.017,
0.0*
%
%ADD23MACRO23*%
%ADD26R,.031X.035*%
%ADD21R,.033X.025*%
%ADD30R,.025X.033*%
%ADD37R,.019X.05*%
%ADD38R,.05X.019*%
%ADD27R,.055X.051*%
%ADD10R,.051X.063*%
%ADD13R,.051X.055*%
%ADD18R,.028X.035*%
%ADD17R,.047X.043*%
%ADD31R,.035X.028*%
%ADD19R,.043X.047*%
%ADD33R,.036X.065*%
%ADD28R,.065X.036*%
%ADD20R,.032X.032*%
%ADD36R,.2283X.2441*%
%ADD14R,.091X.0197*%
%ADD39R,.0394X.0374*%
%ADD40R,.0295X.0276*%
%ADD12R,.0787X.063*%
%ADD32R,.0945X.0945*%
%ADD35R,.0398X.0398*%
%AMMACRO25*
4,1,23,.0045,.017,
-.0045,.017,
-.0045,-.012,
-.004518,-.012789,
-.0044,-.013569,
-.004147,-.014317,
-.003769,-.01501,
-.003276,-.015626,
-.002683,-.016147,
-.002009,-.016558,
-.001274,-.016845,
-.0005,-.017,
.000289,-.017018,
.001069,-.0169,
.001817,-.016647,
.00251,-.016269,
.003126,-.015776,
.003647,-.015183,
.004058,-.014509,
.004345,-.013774,
.0045,-.013,
.004518,-.012211,
.0045,-.012,
.0045,.017,
0.0*
%
%ADD25MACRO25*%
%AMMACRO24*
4,1,23,-.017,.0045,
-.017,-.0045,
.012,-.0045,
.012789,-.004518,
.013569,-.0044,
.014317,-.004147,
.01501,-.003769,
.015626,-.003276,
.016147,-.002683,
.016558,-.002009,
.016845,-.001274,
.017,-.0005,
.017018,.000289,
.0169,.001069,
.016647,.001817,
.016269,.00251,
.015776,.003126,
.015183,.003647,
.014509,.004058,
.013774,.004345,
.013,.0045,
.012211,.004518,
.012,.0045,
-.017,.0045,
0.0*
%
%ADD24MACRO24*%
%ADD11R,.0984X.0787*%
%ADD41C,.012*%
%ADD42C,.05*%
G75*
%LPD*%
G75*
G54D10*
X-6250Y105500D03*
X1250D03*
X21750Y181000D03*
X14250D03*
X137250Y97500D03*
X144750D03*
X136750Y81000D03*
X144250D03*
G54D11*
X-1140Y119980D03*
Y155020D03*
X20510Y119980D03*
Y155020D03*
G54D20*
X29000Y130550D03*
Y152050D03*
Y147450D03*
Y141550D03*
Y136450D03*
Y157950D03*
G54D12*
X23870Y12500D03*
X45130D03*
X276870Y-2500D03*
X298130D03*
G54D30*
X96380Y124500D03*
X87620D03*
X139880Y35500D03*
X131120D03*
G54D21*
X56500Y21120D03*
Y29880D03*
X155000Y16880D03*
Y8120D03*
G54D40*
X267090Y179550D03*
Y185450D03*
X277910Y179550D03*
Y185450D03*
G54D31*
X107550Y95500D03*
X102450D03*
X107050Y84500D03*
X101950D03*
X107050Y109500D03*
X101950D03*
G54D13*
X9250Y105500D03*
X16750D03*
X16250Y92500D03*
X23750D03*
X31250Y181000D03*
X38750D03*
G54D22*
X72500Y100000D03*
G54D41*
G01X-3630Y-175830D02*
X-2750Y-174670D01*
X-2000Y-174000D01*
X-1000Y-173670D01*
X-120Y-174000D01*
X500Y-174670D01*
X1000Y-175670D01*
X1130Y-176830D01*
X1000Y-177830D01*
X500Y-178830D01*
X-250Y-179670D01*
X-1120Y-180000D01*
X-2120Y-179670D01*
X-3000Y-178670D01*
X-3500Y-177170D01*
X-3630Y-175500D01*
X-3380Y-173330D01*
X-3000Y-172170D01*
X-2380Y-171000D01*
X-1500Y-170170D01*
X-630Y-170000D01*
X250Y-170330D01*
X880Y-171170D01*
G01X8750Y-170000D02*
X7750Y-170330D01*
X7000Y-171170D01*
X6500Y-172170D01*
X6120Y-173500D01*
X6000Y-175000D01*
X6120Y-176500D01*
X6500Y-177830D01*
X7000Y-178830D01*
X7750Y-179670D01*
X8750Y-180000D01*
X9750Y-179670D01*
X10500Y-178830D01*
X11000Y-177830D01*
X11380Y-176500D01*
X11500Y-175000D01*
X11380Y-173500D01*
X11000Y-172170D01*
X10500Y-171170D01*
X9750Y-170330D01*
X8750Y-170000D01*
G01X18750D02*
X17750Y-170330D01*
X17000Y-171170D01*
X16500Y-172170D01*
X16120Y-173500D01*
X16000Y-175000D01*
X16120Y-176500D01*
X16500Y-177830D01*
X17000Y-178830D01*
X17750Y-179670D01*
X18750Y-180000D01*
X19750Y-179670D01*
X20500Y-178830D01*
X21000Y-177830D01*
X21380Y-176500D01*
X21500Y-175000D01*
X21380Y-173500D01*
X21000Y-172170D01*
X20500Y-171170D01*
X19750Y-170330D01*
X18750Y-170000D01*
G01X27130Y-176670D02*
X30370D01*
G01X36370Y-175830D02*
X37250Y-174670D01*
X38000Y-174000D01*
X39000Y-173670D01*
X39880Y-174000D01*
X40500Y-174670D01*
X41000Y-175670D01*
X41130Y-176830D01*
X41000Y-177830D01*
X40500Y-178830D01*
X39750Y-179670D01*
X38880Y-180000D01*
X37880Y-179670D01*
X37000Y-178670D01*
X36500Y-177170D01*
X36370Y-175500D01*
X36620Y-173330D01*
X37000Y-172170D01*
X37620Y-171000D01*
X38500Y-170170D01*
X39370Y-170000D01*
X40250Y-170330D01*
X40880Y-171170D01*
G01X48750Y-170000D02*
X47750Y-170330D01*
X47000Y-171170D01*
X46500Y-172170D01*
X46120Y-173500D01*
X46000Y-175000D01*
X46120Y-176500D01*
X46500Y-177830D01*
X47000Y-178830D01*
X47750Y-179670D01*
X48750Y-180000D01*
X49750Y-179670D01*
X50500Y-178830D01*
X51000Y-177830D01*
X51380Y-176500D01*
X51500Y-175000D01*
X51380Y-173500D01*
X51000Y-172170D01*
X50500Y-171170D01*
X49750Y-170330D01*
X48750Y-170000D01*
G01X58750D02*
X57750Y-170330D01*
X57000Y-171170D01*
X56500Y-172170D01*
X56120Y-173500D01*
X56000Y-175000D01*
X56120Y-176500D01*
X56500Y-177830D01*
X57000Y-178830D01*
X57750Y-179670D01*
X58750Y-180000D01*
X59750Y-179670D01*
X60500Y-178830D01*
X61000Y-177830D01*
X61380Y-176500D01*
X61500Y-175000D01*
X61380Y-173500D01*
X61000Y-172170D01*
X60500Y-171170D01*
X59750Y-170330D01*
X58750Y-170000D01*
G01X66000Y-178500D02*
X66750Y-179330D01*
X67620Y-179830D01*
X68750Y-180000D01*
X69880Y-179670D01*
X70750Y-179000D01*
X71380Y-177830D01*
X71500Y-176500D01*
X71250Y-175170D01*
X70620Y-174330D01*
X69750Y-173670D01*
X68880Y-173500D01*
X68000Y-173670D01*
X66880Y-174330D01*
X67250Y-170000D01*
X70620D01*
G01X78750D02*
X77750Y-170330D01*
X77000Y-171170D01*
X76500Y-172170D01*
X76120Y-173500D01*
X76000Y-175000D01*
X76120Y-176500D01*
X76500Y-177830D01*
X77000Y-178830D01*
X77750Y-179670D01*
X78750Y-180000D01*
X79750Y-179670D01*
X80500Y-178830D01*
X81000Y-177830D01*
X81380Y-176500D01*
X81500Y-175000D01*
X81380Y-173500D01*
X81000Y-172170D01*
X80500Y-171170D01*
X79750Y-170330D01*
X78750Y-170000D01*
G01X87130Y-176670D02*
X90370D01*
G01X98750Y-170000D02*
X97750Y-170330D01*
X97000Y-171170D01*
X96500Y-172170D01*
X96120Y-173500D01*
X96000Y-175000D01*
X96120Y-176500D01*
X96500Y-177830D01*
X97000Y-178830D01*
X97750Y-179670D01*
X98750Y-180000D01*
X99750Y-179670D01*
X100500Y-178830D01*
X101000Y-177830D01*
X101380Y-176500D01*
X101500Y-175000D01*
X101380Y-173500D01*
X101000Y-172170D01*
X100500Y-171170D01*
X99750Y-170330D01*
X98750Y-170000D01*
G01X108750Y-180000D02*
Y-170000D01*
X107250Y-172000D01*
G01Y-180000D02*
X110250D01*
G01X126250D02*
Y-170000D01*
X129370D01*
X130370Y-170500D01*
X131000Y-171170D01*
X131250Y-172500D01*
X131000Y-173830D01*
X130250Y-174670D01*
X129370Y-175170D01*
X126250D01*
G01X129370D02*
X131250Y-180000D01*
G01X141250D02*
X136250D01*
Y-170000D01*
X141250D01*
G01X139250Y-174830D02*
X136250D01*
G01X145620Y-170000D02*
X148750Y-180000D01*
X151880Y-170000D01*
G01X158750D02*
X157750Y-170330D01*
X157000Y-171170D01*
X156500Y-172170D01*
X156120Y-173500D01*
X156000Y-175000D01*
X156120Y-176500D01*
X156500Y-177830D01*
X157000Y-178830D01*
X157750Y-179670D01*
X158750Y-180000D01*
X159750Y-179670D01*
X160500Y-178830D01*
X161000Y-177830D01*
X161380Y-176500D01*
X161500Y-175000D01*
X161380Y-173500D01*
X161000Y-172170D01*
X160500Y-171170D01*
X159750Y-170330D01*
X158750Y-170000D01*
G01X166370Y-171670D02*
X167130Y-170670D01*
X168000Y-170170D01*
X169000Y-170000D01*
X170250Y-170330D01*
X171130Y-171170D01*
X171380Y-172170D01*
X171250Y-173170D01*
X170750Y-174000D01*
X168250Y-175670D01*
X167130Y-176830D01*
X166370Y-178500D01*
X166120Y-180000D01*
X171380D01*
G01X186250D02*
Y-170000D01*
X189250D01*
X190250Y-170500D01*
X191000Y-171670D01*
X191250Y-173000D01*
X191000Y-174330D01*
X190370Y-175330D01*
X189250Y-175830D01*
X186250D01*
G01X196250Y-180000D02*
Y-170000D01*
X199370D01*
X200370Y-170500D01*
X201000Y-171170D01*
X201250Y-172500D01*
X201000Y-173830D01*
X200250Y-174670D01*
X199370Y-175170D01*
X196250D01*
G01X199370D02*
X201250Y-180000D01*
G01X207250Y-170000D02*
X210250D01*
G01X208750D02*
Y-180000D01*
G01X207250D02*
X210250D01*
G01X215500D02*
Y-170000D01*
X218750Y-178330D01*
X222000Y-170000D01*
Y-180000D01*
G01X225620D02*
X228750Y-170000D01*
X231880Y-180000D01*
G01X230750Y-176500D02*
X226750D01*
G01X236250Y-180000D02*
Y-170000D01*
X239370D01*
X240370Y-170500D01*
X241000Y-171170D01*
X241250Y-172500D01*
X241000Y-173830D01*
X240250Y-174670D01*
X239370Y-175170D01*
X236250D01*
G01X239370D02*
X241250Y-180000D01*
G01X248750D02*
Y-175500D01*
X246250Y-170000D01*
G01X251250D02*
X248750Y-175500D01*
G01X266120Y-178670D02*
X267130Y-179500D01*
X268250Y-180000D01*
X269250D01*
X270250Y-179500D01*
X271000Y-178670D01*
X271380Y-177500D01*
X271130Y-176330D01*
X270500Y-175330D01*
X269370Y-174670D01*
X267880Y-174330D01*
X267000Y-173670D01*
X266620Y-172500D01*
X266880Y-171330D01*
X267500Y-170500D01*
X268370Y-170000D01*
X269250D01*
X270130Y-170330D01*
X270880Y-171170D01*
G01X278750Y-180000D02*
X277750Y-179830D01*
X276880Y-179170D01*
X276120Y-178170D01*
X275620Y-177000D01*
X275370Y-175670D01*
Y-174330D01*
X275620Y-173000D01*
X276120Y-171830D01*
X276880Y-170830D01*
X277750Y-170170D01*
X278750Y-170000D01*
X279750Y-170170D01*
X280620Y-170830D01*
X281380Y-171830D01*
X281880Y-173000D01*
X282130Y-174330D01*
Y-175670D01*
X281880Y-177000D01*
X281380Y-178170D01*
X280620Y-179170D01*
X279750Y-179830D01*
X278750Y-180000D01*
G01X286250Y-170000D02*
Y-180000D01*
X291250D01*
G01X296000D02*
Y-170000D01*
X298500D01*
X299500Y-170500D01*
X300250Y-171170D01*
X300880Y-172170D01*
X301380Y-173330D01*
X301500Y-175000D01*
X301380Y-176670D01*
X300880Y-177830D01*
X300250Y-178830D01*
X299500Y-179500D01*
X298500Y-180000D01*
X296000D01*
G01X311250D02*
X306250D01*
Y-170000D01*
X311250D01*
G01X309250Y-174830D02*
X306250D01*
G01X316250Y-180000D02*
Y-170000D01*
X319370D01*
X320370Y-170500D01*
X321000Y-171170D01*
X321250Y-172500D01*
X321000Y-173830D01*
X320250Y-174670D01*
X319370Y-175170D01*
X316250D01*
G01X319370D02*
X321250Y-180000D01*
G01X326250D02*
Y-170000D01*
X329250D01*
X330250Y-170500D01*
X331000Y-171670D01*
X331250Y-173000D01*
X331000Y-174330D01*
X330370Y-175330D01*
X329250Y-175830D01*
X326250D01*
G01X335620Y-180000D02*
X338750Y-170000D01*
X341880Y-180000D01*
G01X340750Y-176500D02*
X336750D01*
G01X346120Y-178670D02*
X347130Y-179500D01*
X348250Y-180000D01*
X349250D01*
X350250Y-179500D01*
X351000Y-178670D01*
X351380Y-177500D01*
X351130Y-176330D01*
X350500Y-175330D01*
X349370Y-174670D01*
X347880Y-174330D01*
X347000Y-173670D01*
X346620Y-172500D01*
X346880Y-171330D01*
X347500Y-170500D01*
X348370Y-170000D01*
X349250D01*
X350130Y-170330D01*
X350880Y-171170D01*
G01X358750Y-170000D02*
Y-180000D01*
G01X355880Y-170000D02*
X361620D01*
G01X371250Y-180000D02*
X366250D01*
Y-170000D01*
X371250D01*
G01X369250Y-174830D02*
X366250D01*
G54D32*
X110500Y130700D03*
Y143300D03*
X182000Y132700D03*
Y145300D03*
G54D14*
X20850Y131200D03*
Y134350D03*
Y137500D03*
Y140650D03*
Y143800D03*
G54D23*
X70930Y84840D03*
X69350D03*
X67780D03*
X66200D03*
X64630D03*
X63050D03*
X61480D03*
X59900D03*
X85100D03*
X83520D03*
X81950D03*
X80370D03*
X78800D03*
X77220D03*
X75650D03*
X74070D03*
X72500D03*
G54D42*
G01X-15000Y12500D02*
Y-15000D01*
X12500D01*
G01X-15000Y167500D02*
Y195000D01*
X12500D01*
G01X327500Y12500D02*
Y-15000D01*
X302500D01*
G01X300000Y195000D02*
X327500D01*
Y167500D01*
G54D24*
X57340Y87400D03*
Y88980D03*
Y90550D03*
Y92130D03*
Y93700D03*
Y95280D03*
Y96850D03*
Y98430D03*
Y100000D03*
Y101570D03*
Y103150D03*
Y104720D03*
Y106300D03*
Y107870D03*
Y109450D03*
Y111020D03*
Y112600D03*
G54D33*
X135000Y22000D03*
Y8000D03*
X130000Y133000D03*
Y147000D03*
X169500D03*
Y133000D03*
X195000Y147000D03*
Y133000D03*
G54D15*
X18230Y170000D03*
X34770D03*
G54D25*
X61480Y115160D03*
X63050D03*
X64630D03*
X66200D03*
X67780D03*
X69350D03*
X70930D03*
X59900D03*
X72500D03*
X74070D03*
X75650D03*
X77220D03*
X78800D03*
X80370D03*
X81950D03*
X83520D03*
X85100D03*
G54D16*
X27010Y50000D03*
X42990D03*
X27010Y70000D03*
X42990D03*
X27010Y65000D03*
X42990D03*
X27010Y60000D03*
X42990D03*
X27010Y55000D03*
X42990D03*
X64510Y155000D03*
Y150000D03*
Y145000D03*
Y140000D03*
Y135000D03*
X80490Y155000D03*
Y150000D03*
Y145000D03*
Y140000D03*
Y135000D03*
G54D34*
X141000Y125000D03*
X159000D03*
G54D35*
X150000Y136810D03*
G54D17*
X33500Y90050D03*
Y95950D03*
X70500Y49050D03*
X64000D03*
X65000Y69050D03*
Y74950D03*
X70500Y54950D03*
X64000D03*
X53500Y152050D03*
Y157950D03*
X77000Y49050D03*
X83500D03*
X78500Y69050D03*
Y74950D03*
X89000Y69050D03*
Y74950D03*
X94500Y69050D03*
Y74950D03*
X77000Y54950D03*
X83500D03*
X122500Y41450D03*
Y35550D03*
X122000Y95050D03*
Y100950D03*
X116500Y95050D03*
Y100950D03*
X122000Y125550D03*
Y131450D03*
Y143450D03*
Y137550D03*
X130000Y120050D03*
Y125950D03*
X153000Y25550D03*
X166500Y24550D03*
X172500D03*
X153000Y31450D03*
X166500Y30450D03*
X172500D03*
X174500Y103950D03*
Y98050D03*
X163000Y96050D03*
Y101950D03*
X157500Y96050D03*
Y101950D03*
X169500Y124950D03*
Y119050D03*
X197500Y24550D03*
X178500D03*
X184500D03*
X190500D03*
X197500Y30450D03*
X178500D03*
X184500D03*
X190500D03*
G54D26*
X93500Y12550D03*
X89800Y20450D03*
X97200D03*
X122500Y12550D03*
X118800Y20450D03*
X108000Y12550D03*
X104300Y20450D03*
X111700D03*
X126200D03*
G54D36*
X150000Y153270D03*
G54D18*
X28500Y104450D03*
X44500Y90950D03*
Y96050D03*
X39000Y90950D03*
Y96050D03*
X23000Y104450D03*
X28500Y109550D03*
X23000D03*
X54500Y49950D03*
X72500Y69950D03*
Y75050D03*
X57500Y69950D03*
Y75050D03*
X54500Y55050D03*
X56500Y125050D03*
Y119950D03*
X92500Y140050D03*
Y134950D03*
X159000Y26450D03*
Y31550D03*
X168500Y103050D03*
Y97950D03*
G54D27*
X82500Y24750D03*
Y17250D03*
X207500Y113750D03*
Y121250D03*
X217000Y148250D03*
Y155750D03*
X225500D03*
Y148250D03*
X234000Y155750D03*
Y148250D03*
G54D28*
X90500Y28500D03*
X104500D03*
X145000Y115000D03*
X159000D03*
X169500Y157500D03*
X183500D03*
G54D19*
X47950Y102000D03*
X42050D03*
X43550Y120500D03*
Y126000D03*
X47950Y108000D03*
X42050D03*
X41550Y150000D03*
X47450D03*
X43550Y131500D03*
Y137000D03*
X49450Y120500D03*
Y126000D03*
Y131500D03*
Y137000D03*
X111550Y28500D03*
X117450D03*
X107950Y55000D03*
X102050D03*
X120450Y62500D03*
X114550D03*
X120450Y55000D03*
X114550D03*
X120450Y72500D03*
X114550D03*
X107950D03*
X102050D03*
X107950Y62500D03*
X102050D03*
X107950Y101000D03*
X102050D03*
X101550Y90000D03*
X107450D03*
X106950Y114500D03*
X101050D03*
X134050Y46000D03*
X139950D03*
Y52500D03*
X134050D03*
X227050Y42500D03*
Y35000D03*
X232950Y42500D03*
Y35000D03*
G54D37*
X171850Y41400D03*
X168700D03*
X165550D03*
X162400D03*
X159250D03*
Y88600D03*
X162400D03*
X165550D03*
X168700D03*
X171850D03*
X190750Y41400D03*
X187600D03*
X184450D03*
X181300D03*
X178150D03*
X175000D03*
Y88600D03*
X178150D03*
X181300D03*
X184450D03*
X187600D03*
X190750D03*
G54D38*
X151400Y49250D03*
Y52400D03*
Y55550D03*
Y58700D03*
Y61850D03*
Y65000D03*
Y68150D03*
Y71300D03*
Y74450D03*
Y77600D03*
Y80750D03*
X198600Y52400D03*
Y49250D03*
Y77600D03*
Y74450D03*
Y71300D03*
Y68150D03*
Y65000D03*
Y61850D03*
Y58700D03*
Y55550D03*
Y80750D03*
G54D29*
X87660Y103150D03*
Y101570D03*
Y100000D03*
Y98430D03*
Y96850D03*
Y95280D03*
Y93700D03*
Y92130D03*
Y90550D03*
Y88980D03*
Y87400D03*
Y112600D03*
Y111020D03*
Y109450D03*
Y107870D03*
Y106300D03*
Y104720D03*
G54D39*
X151500Y97350D03*
Y103650D03*
M02*
