G04 ================== begin FILE IDENTIFICATION RECORD ==================*
G04 Layout Name:  C:/Cadencework/CY8CKIT-042/600-60050-01_REV02.brd*
G04 Film Name:    pss*
G04 File Format:  Gerber RS274X*
G04 File Origin:  Cadence Allegro 16.5-S024*
G04 Origin Date:  Mon Mar 18 12:28:03 2013*
G04 *
G04 Layer:  REF DES/SILKSCREEN_TOP*
G04 Layer:  PACKAGE GEOMETRY/SILKSCREEN_TOP*
G04 Layer:  BOARD GEOMETRY/TOOLING_CORNERS*
G04 Layer:  BOARD GEOMETRY/SILKSCREEN_TOP*
G04 *
G04 Offset:    (0.0 0.0)*
G04 Mirror:    No*
G04 Mode:      Positive*
G04 Rotation:  0*
G04 FullContactRelief:  No*
G04 UndefLineWidth:     7.0*
G04 ================== end FILE IDENTIFICATION RECORD ====================*
%FSLAX25Y25*MOIN*%
%IR0*IPPOS*OFA0.00000B0.00000*MIA0B0*SFA1.00000B1.00000*%
%ADD10C,.005*%
%ADD11C,.007*%
%ADD12C,.0039*%
%ADD13C,.0079*%
%ADD14C,.01*%
%ADD15C,.012*%
%ADD16C,.05*%
%ADD17C,.015*%
G75*
%LPD*%
G75*
G36*
G01X92500Y169500D02*
G03I-2500J0D01*
G37*
G36*
G01X100000D02*
G03I-2500J0D01*
G37*
G36*
G01X127000Y170000D02*
G03I-2500J0D01*
G37*
G36*
G01X119500D02*
G03I-2500J0D01*
G37*
G36*
G01X107500Y167000D02*
Y172000D01*
X102500D01*
Y167000D01*
X107500D01*
G37*
G36*
G01X134500Y167500D02*
Y172500D01*
X129500D01*
Y167500D01*
X134500D01*
G37*
G54D10*
G01X-7700Y8000D02*
Y10800D01*
X-8220Y10240D01*
G01Y8000D02*
X-7180D01*
G01X-4600D02*
Y10800D01*
X-5120Y10240D01*
G01Y8000D02*
X-4080D01*
G01X-11020Y78830D02*
X-10760Y79110D01*
X-10460Y79250D01*
X-10110Y79300D01*
X-9680Y79210D01*
X-9380Y78970D01*
X-9290Y78690D01*
X-9330Y78410D01*
X-9510Y78180D01*
X-10370Y77710D01*
X-10760Y77390D01*
X-11020Y76920D01*
X-11110Y76500D01*
X-9290D01*
G01X-10200Y68000D02*
Y70800D01*
X-10720Y70240D01*
G01Y68000D02*
X-9680D01*
G01X-10700Y95000D02*
Y97800D01*
X-11220Y97240D01*
G01Y95000D02*
X-10180D01*
G01X-6270Y111500D02*
Y114300D01*
X-5230D01*
X-4880Y114160D01*
X-4620Y113830D01*
X-4530Y113460D01*
X-4620Y113090D01*
X-4840Y112810D01*
X-5230Y112670D01*
X-6270D01*
G01X-2300Y111500D02*
X-2650Y111550D01*
X-2950Y111730D01*
X-3210Y112010D01*
X-3380Y112340D01*
X-3470Y112710D01*
Y113090D01*
X-3380Y113460D01*
X-3210Y113790D01*
X-2950Y114070D01*
X-2650Y114250D01*
X-2300Y114300D01*
X-1950Y114250D01*
X-1650Y114070D01*
X-1390Y113790D01*
X-1220Y113460D01*
X-1130Y113090D01*
Y112710D01*
X-1220Y112340D01*
X-1390Y112010D01*
X-1650Y111730D01*
X-1950Y111550D01*
X-2300Y111500D01*
G01X-500Y114300D02*
X110Y111500D01*
X800Y114300D01*
X1490Y111500D01*
X2100Y114300D01*
G01X4770Y111500D02*
X3030D01*
Y114300D01*
X4770D01*
G01X4070Y112950D02*
X3030D01*
G01X6130Y111500D02*
Y114300D01*
X7220D01*
X7560Y114160D01*
X7780Y113970D01*
X7870Y113600D01*
X7780Y113230D01*
X7520Y112990D01*
X7220Y112850D01*
X6130D01*
G01X7220D02*
X7870Y111500D01*
G01X12330Y114300D02*
Y111500D01*
X14070D01*
G01X17170D02*
X15430D01*
Y114300D01*
X17170D01*
G01X16470Y112950D02*
X15430D01*
G01X18450Y111500D02*
Y114300D01*
X19310D01*
X19660Y114160D01*
X19920Y113970D01*
X20140Y113690D01*
X20310Y113370D01*
X20350Y112900D01*
X20310Y112430D01*
X20140Y112110D01*
X19920Y111830D01*
X19660Y111640D01*
X19310Y111500D01*
X18450D01*
G01X-9070Y161060D02*
X-8850Y160780D01*
X-8590Y160590D01*
X-8290Y160500D01*
X-7940Y160590D01*
X-7680Y160780D01*
X-7420Y161060D01*
X-7330Y161430D01*
Y163300D01*
G01X-5100Y160500D02*
Y163300D01*
X-5620Y162740D01*
G01Y160500D02*
X-4580D01*
G01X-2000Y163300D02*
X-2350Y163210D01*
X-2610Y162970D01*
X-2780Y162690D01*
X-2910Y162320D01*
X-2950Y161900D01*
X-2910Y161480D01*
X-2780Y161110D01*
X-2610Y160830D01*
X-2350Y160590D01*
X-2000Y160500D01*
X-1650Y160590D01*
X-1390Y160830D01*
X-1220Y161110D01*
X-1090Y161480D01*
X-1050Y161900D01*
X-1090Y162320D01*
X-1220Y162690D01*
X-1390Y162970D01*
X-1650Y163210D01*
X-2000Y163300D01*
G01X19680Y1670D02*
X19980Y1990D01*
X20240Y2180D01*
X20590Y2270D01*
X20890Y2180D01*
X21110Y1990D01*
X21280Y1710D01*
X21320Y1390D01*
X21280Y1110D01*
X21110Y830D01*
X20850Y590D01*
X20540Y500D01*
X20200Y590D01*
X19890Y870D01*
X19720Y1290D01*
X19680Y1760D01*
X19760Y2370D01*
X19890Y2690D01*
X20110Y3020D01*
X20410Y3250D01*
X20720Y3300D01*
X21020Y3210D01*
X21240Y2970D01*
G01X9900Y1800D02*
Y-1000D01*
G01X8900Y1800D02*
X10900D01*
G01X12130Y-1000D02*
Y1800D01*
X13170D01*
X13520Y1660D01*
X13780Y1330D01*
X13870Y960D01*
X13780Y590D01*
X13560Y310D01*
X13170Y170D01*
X12130D01*
G01X15150Y-440D02*
X15410Y-770D01*
X15750Y-950D01*
X16140Y-1000D01*
X16490Y-950D01*
X16840Y-720D01*
X17050Y-440D01*
X17100Y-160D01*
X17010Y170D01*
X16710Y400D01*
X16400Y490D01*
X16010D01*
G01X16400D02*
X16660Y630D01*
X16880Y870D01*
X16970Y1150D01*
X16880Y1430D01*
X16660Y1660D01*
X16270Y1800D01*
X15880Y1750D01*
X15490Y1570D01*
G01X-340Y9900D02*
X530D01*
Y9060D01*
X270Y8780D01*
X-40Y8590D01*
X-470Y8500D01*
X-900Y8590D01*
X-1210Y8780D01*
X-1470Y9060D01*
X-1640Y9390D01*
X-1730Y9760D01*
Y10090D01*
X-1640Y10370D01*
X-1470Y10690D01*
X-1210Y10970D01*
X-950Y11160D01*
X-600Y11300D01*
X-300D01*
X50Y11210D01*
X310Y11020D01*
G01X1500Y8500D02*
Y11300D01*
X3500Y8500D01*
Y11300D01*
G01X4650Y8500D02*
Y11300D01*
X5510D01*
X5860Y11160D01*
X6120Y10970D01*
X6340Y10690D01*
X6510Y10370D01*
X6550Y9900D01*
X6510Y9430D01*
X6340Y9110D01*
X6120Y8830D01*
X5860Y8640D01*
X5510Y8500D01*
X4650D01*
G01X12600Y16000D02*
Y18800D01*
X12080Y18240D01*
G01Y16000D02*
X13120D01*
G01X14880Y18330D02*
X15140Y18610D01*
X15440Y18750D01*
X15790Y18800D01*
X16220Y18710D01*
X16520Y18470D01*
X16610Y18190D01*
X16570Y17910D01*
X16390Y17680D01*
X15530Y17210D01*
X15140Y16890D01*
X14880Y16420D01*
X14790Y16000D01*
X16610D01*
G01X13880Y70330D02*
X14140Y70610D01*
X14440Y70750D01*
X14790Y70800D01*
X15220Y70710D01*
X15520Y70470D01*
X15610Y70190D01*
X15570Y69910D01*
X15390Y69680D01*
X14530Y69210D01*
X14140Y68890D01*
X13880Y68420D01*
X13790Y68000D01*
X15610D01*
G01X4580Y75060D02*
X4800Y74780D01*
X5060Y74590D01*
X5360Y74500D01*
X5710Y74590D01*
X5970Y74780D01*
X6230Y75060D01*
X6320Y75430D01*
Y77300D01*
G01X8550Y74500D02*
X8850Y74550D01*
X9200Y74690D01*
X9420Y74920D01*
X9500Y75250D01*
X9420Y75570D01*
X9160Y75850D01*
X8770Y75990D01*
X8330D01*
X8070Y76090D01*
X7860Y76320D01*
X7770Y76650D01*
X7900Y76970D01*
X8200Y77210D01*
X8550Y77300D01*
X8900Y77210D01*
X9200Y76970D01*
X9330Y76650D01*
X9240Y76320D01*
X9030Y76090D01*
X8770Y75990D01*
X8330D01*
X7940Y75850D01*
X7680Y75570D01*
X7600Y75250D01*
X7680Y74920D01*
X7900Y74690D01*
X8250Y74550D01*
X8550Y74500D01*
G01X2850Y99000D02*
Y101800D01*
X3710D01*
X4060Y101660D01*
X4320Y101470D01*
X4540Y101190D01*
X4710Y100870D01*
X4750Y100400D01*
X4710Y99930D01*
X4540Y99610D01*
X4320Y99330D01*
X4060Y99140D01*
X3710Y99000D01*
X2850D01*
G01X5950Y99560D02*
X6210Y99230D01*
X6550Y99050D01*
X6940Y99000D01*
X7290Y99050D01*
X7640Y99280D01*
X7850Y99560D01*
X7900Y99840D01*
X7810Y100170D01*
X7510Y100400D01*
X7200Y100490D01*
X6810D01*
G01X7200D02*
X7460Y100630D01*
X7680Y100870D01*
X7770Y101150D01*
X7680Y101430D01*
X7460Y101660D01*
X7070Y101800D01*
X6680Y101750D01*
X6290Y101570D01*
G01X12430Y99000D02*
Y101800D01*
X13520D01*
X13860Y101660D01*
X14080Y101470D01*
X14170Y101100D01*
X14080Y100730D01*
X13820Y100490D01*
X13520Y100350D01*
X12430D01*
G01X13520D02*
X14170Y99000D01*
G01X15450Y99560D02*
X15710Y99230D01*
X16050Y99050D01*
X16440Y99000D01*
X16790Y99050D01*
X17140Y99280D01*
X17350Y99560D01*
X17400Y99840D01*
X17310Y100170D01*
X17010Y100400D01*
X16700Y100490D01*
X16310D01*
G01X16700D02*
X16960Y100630D01*
X17180Y100870D01*
X17270Y101150D01*
X17180Y101430D01*
X16960Y101660D01*
X16570Y101800D01*
X16180Y101750D01*
X15790Y101570D01*
G01X16930Y86000D02*
Y88800D01*
X18020D01*
X18360Y88660D01*
X18580Y88470D01*
X18670Y88100D01*
X18580Y87730D01*
X18320Y87490D01*
X18020Y87350D01*
X16930D01*
G01X18020D02*
X18670Y86000D01*
G01X19950Y86420D02*
X20210Y86190D01*
X20510Y86050D01*
X20900Y86000D01*
X21290Y86090D01*
X21590Y86280D01*
X21810Y86610D01*
X21850Y86980D01*
X21770Y87350D01*
X21550Y87590D01*
X21250Y87770D01*
X20940Y87820D01*
X20640Y87770D01*
X20250Y87590D01*
X20380Y88800D01*
X21550D01*
G01X19430Y96500D02*
Y99300D01*
X20520D01*
X20860Y99160D01*
X21080Y98970D01*
X21170Y98600D01*
X21080Y98230D01*
X20820Y97990D01*
X20520Y97850D01*
X19430D01*
G01X20520D02*
X21170Y96500D01*
G01X23400D02*
Y99300D01*
X22880Y98740D01*
G01Y96500D02*
X23920D01*
G01X25550Y97060D02*
X25810Y96730D01*
X26150Y96550D01*
X26540Y96500D01*
X26890Y96550D01*
X27240Y96780D01*
X27450Y97060D01*
X27500Y97340D01*
X27410Y97670D01*
X27110Y97900D01*
X26800Y97990D01*
X26410D01*
G01X26800D02*
X27060Y98130D01*
X27280Y98370D01*
X27370Y98650D01*
X27280Y98930D01*
X27060Y99160D01*
X26670Y99300D01*
X26280Y99250D01*
X25890Y99070D01*
G01X1930Y80560D02*
X2150Y80280D01*
X2410Y80090D01*
X2710Y80000D01*
X3060Y80090D01*
X3320Y80280D01*
X3580Y80560D01*
X3670Y80930D01*
Y82800D01*
G01X5900Y80000D02*
Y82800D01*
X5380Y82240D01*
G01Y80000D02*
X6420D01*
G01X9000D02*
Y82800D01*
X8480Y82240D01*
G01Y80000D02*
X9520D01*
G01X6160Y159900D02*
X7030D01*
Y159060D01*
X6770Y158780D01*
X6460Y158590D01*
X6030Y158500D01*
X5600Y158590D01*
X5290Y158780D01*
X5030Y159060D01*
X4860Y159390D01*
X4770Y159760D01*
Y160090D01*
X4860Y160370D01*
X5030Y160690D01*
X5290Y160970D01*
X5550Y161160D01*
X5900Y161300D01*
X6200D01*
X6550Y161210D01*
X6810Y161020D01*
G01X8000Y158500D02*
Y161300D01*
X10000Y158500D01*
Y161300D01*
G01X11150Y158500D02*
Y161300D01*
X12010D01*
X12360Y161160D01*
X12620Y160970D01*
X12840Y160690D01*
X13010Y160370D01*
X13050Y159900D01*
X13010Y159430D01*
X12840Y159110D01*
X12620Y158830D01*
X12360Y158640D01*
X12010Y158500D01*
X11150D01*
G01X6400Y176300D02*
Y173500D01*
G01X5400Y176300D02*
X7400D01*
G01X8630Y173500D02*
Y176300D01*
X9670D01*
X10020Y176160D01*
X10280Y175830D01*
X10370Y175460D01*
X10280Y175090D01*
X10060Y174810D01*
X9670Y174670D01*
X8630D01*
G01X13120Y173500D02*
Y176300D01*
X11520Y174290D01*
X13680D01*
G01X19640Y186370D02*
X19990Y186140D01*
X20380Y186000D01*
X20720D01*
X21070Y186140D01*
X21330Y186370D01*
X21460Y186700D01*
X21370Y187030D01*
X21160Y187310D01*
X20770Y187490D01*
X20250Y187590D01*
X19940Y187770D01*
X19810Y188100D01*
X19900Y188430D01*
X20120Y188660D01*
X20420Y188800D01*
X20720D01*
X21030Y188710D01*
X21290Y188470D01*
G01X23650Y188800D02*
Y186000D01*
G01X22650Y188800D02*
X24650D01*
G01X25670Y186000D02*
X26750Y188800D01*
X27830Y186000D01*
G01X27440Y186980D02*
X26060D01*
G01X29850Y188800D02*
Y186000D01*
G01X28850Y188800D02*
X30850D01*
G01X32000D02*
Y186790D01*
X32170Y186370D01*
X32520Y186090D01*
X32950Y186000D01*
X33380Y186090D01*
X33730Y186370D01*
X33900Y186790D01*
Y188800D01*
G01X35140Y186370D02*
X35490Y186140D01*
X35880Y186000D01*
X36220D01*
X36570Y186140D01*
X36830Y186370D01*
X36960Y186700D01*
X36870Y187030D01*
X36660Y187310D01*
X36270Y187490D01*
X35750Y187590D01*
X35440Y187770D01*
X35310Y188100D01*
X35400Y188430D01*
X35620Y188660D01*
X35920Y188800D01*
X36220D01*
X36530Y188710D01*
X36790Y188470D01*
G01X41380Y188800D02*
Y186000D01*
X43120D01*
G01X46220D02*
X44480D01*
Y188800D01*
X46220D01*
G01X45520Y187450D02*
X44480D01*
G01X47500Y186000D02*
Y188800D01*
X48360D01*
X48710Y188660D01*
X48970Y188470D01*
X49190Y188190D01*
X49360Y187870D01*
X49400Y187400D01*
X49360Y186930D01*
X49190Y186610D01*
X48970Y186330D01*
X48710Y186140D01*
X48360Y186000D01*
X47500D01*
G01X9850D02*
Y188800D01*
X10710D01*
X11060Y188660D01*
X11320Y188470D01*
X11540Y188190D01*
X11710Y187870D01*
X11750Y187400D01*
X11710Y186930D01*
X11540Y186610D01*
X11320Y186330D01*
X11060Y186140D01*
X10710Y186000D01*
X9850D01*
G01X13900D02*
Y188800D01*
X13380Y188240D01*
G01Y186000D02*
X14420D01*
G01X17000Y188800D02*
X16650Y188710D01*
X16390Y188470D01*
X16220Y188190D01*
X16090Y187820D01*
X16050Y187400D01*
X16090Y186980D01*
X16220Y186610D01*
X16390Y186330D01*
X16650Y186090D01*
X17000Y186000D01*
X17350Y186090D01*
X17610Y186330D01*
X17780Y186610D01*
X17910Y186980D01*
X17950Y187400D01*
X17910Y187820D01*
X17780Y188190D01*
X17610Y188470D01*
X17350Y188710D01*
X17000Y188800D01*
G01X27930Y21000D02*
Y23800D01*
X29020D01*
X29360Y23660D01*
X29580Y23470D01*
X29670Y23100D01*
X29580Y22730D01*
X29320Y22490D01*
X29020Y22350D01*
X27930D01*
G01X29020D02*
X29670Y21000D01*
G01X32770D02*
X31030D01*
Y23800D01*
X32770D01*
G01X32070Y22450D02*
X31030D01*
G01X34090Y21370D02*
X34440Y21140D01*
X34830Y21000D01*
X35170D01*
X35520Y21140D01*
X35780Y21370D01*
X35910Y21700D01*
X35820Y22030D01*
X35610Y22310D01*
X35220Y22490D01*
X34700Y22590D01*
X34390Y22770D01*
X34260Y23100D01*
X34350Y23430D01*
X34570Y23660D01*
X34870Y23800D01*
X35170D01*
X35480Y23710D01*
X35740Y23470D01*
G01X38970Y21000D02*
X37230D01*
Y23800D01*
X38970D01*
G01X38270Y22450D02*
X37230D01*
G01X41200Y23800D02*
Y21000D01*
G01X40200Y23800D02*
X42200D01*
G01X30990Y25370D02*
X31340Y25140D01*
X31730Y25000D01*
X32070D01*
X32420Y25140D01*
X32680Y25370D01*
X32810Y25700D01*
X32720Y26030D01*
X32510Y26310D01*
X32120Y26490D01*
X31600Y26590D01*
X31290Y26770D01*
X31160Y27100D01*
X31250Y27430D01*
X31470Y27660D01*
X31770Y27800D01*
X32070D01*
X32380Y27710D01*
X32640Y27470D01*
G01X33700Y27800D02*
X34310Y25000D01*
X35000Y27800D01*
X35690Y25000D01*
X36300Y27800D01*
G01X38100Y25000D02*
Y27800D01*
X37580Y27240D01*
G01Y25000D02*
X38620D01*
G01X24130Y35000D02*
Y37800D01*
X25170D01*
X25520Y37660D01*
X25780Y37330D01*
X25870Y36960D01*
X25780Y36590D01*
X25560Y36310D01*
X25170Y36170D01*
X24130D01*
G01X27190Y35370D02*
X27540Y35140D01*
X27930Y35000D01*
X28270D01*
X28620Y35140D01*
X28880Y35370D01*
X29010Y35700D01*
X28920Y36030D01*
X28710Y36310D01*
X28320Y36490D01*
X27800Y36590D01*
X27490Y36770D01*
X27360Y37100D01*
X27450Y37430D01*
X27670Y37660D01*
X27970Y37800D01*
X28270D01*
X28580Y37710D01*
X28840Y37470D01*
G01X31200Y35000D02*
X30940Y35050D01*
X30680Y35230D01*
X30510Y35560D01*
X30420Y35930D01*
X30510Y36310D01*
X30680Y36630D01*
X30940Y36820D01*
X31200Y36870D01*
X31460Y36820D01*
X31720Y36630D01*
X31890Y36310D01*
X31940Y35930D01*
X31890Y35560D01*
X31720Y35230D01*
X31460Y35050D01*
X31200Y35000D01*
G01X35250Y37570D02*
X34990Y37710D01*
X34690Y37800D01*
X34340D01*
X33950Y37660D01*
X33650Y37430D01*
X33430Y37150D01*
X33260Y36680D01*
X33220Y36260D01*
X33300Y35840D01*
X33430Y35560D01*
X33690Y35280D01*
X34000Y35090D01*
X34300Y35000D01*
X34600D01*
X34910Y35090D01*
X35170Y35230D01*
X35380Y35420D01*
G01X41020Y35000D02*
Y37800D01*
X39420Y35790D01*
X41580D01*
G01X45830Y35000D02*
Y37800D01*
X46870D01*
X47220Y37660D01*
X47480Y37330D01*
X47570Y36960D01*
X47480Y36590D01*
X47260Y36310D01*
X46870Y36170D01*
X45830D01*
G01X48930Y35000D02*
Y37800D01*
X50020D01*
X50360Y37660D01*
X50580Y37470D01*
X50670Y37100D01*
X50580Y36730D01*
X50320Y36490D01*
X50020Y36350D01*
X48930D01*
G01X50020D02*
X50670Y35000D01*
G01X52900D02*
X52550Y35050D01*
X52250Y35230D01*
X51990Y35510D01*
X51820Y35840D01*
X51730Y36210D01*
Y36590D01*
X51820Y36960D01*
X51990Y37290D01*
X52250Y37570D01*
X52550Y37750D01*
X52900Y37800D01*
X53250Y37750D01*
X53550Y37570D01*
X53810Y37290D01*
X53980Y36960D01*
X54070Y36590D01*
Y36210D01*
X53980Y35840D01*
X53810Y35510D01*
X53550Y35230D01*
X53250Y35050D01*
X52900Y35000D01*
G01X56260Y36400D02*
X57130D01*
Y35560D01*
X56870Y35280D01*
X56560Y35090D01*
X56130Y35000D01*
X55700Y35090D01*
X55390Y35280D01*
X55130Y35560D01*
X54960Y35890D01*
X54870Y36260D01*
Y36590D01*
X54960Y36870D01*
X55130Y37190D01*
X55390Y37470D01*
X55650Y37660D01*
X56000Y37800D01*
X56300D01*
X56650Y37710D01*
X56910Y37520D01*
G01X31350Y86570D02*
X31090Y86710D01*
X30790Y86800D01*
X30440D01*
X30050Y86660D01*
X29750Y86430D01*
X29530Y86150D01*
X29360Y85680D01*
X29320Y85260D01*
X29400Y84840D01*
X29530Y84560D01*
X29790Y84280D01*
X30100Y84090D01*
X30400Y84000D01*
X30700D01*
X31010Y84090D01*
X31270Y84230D01*
X31480Y84420D01*
G01X32680Y86330D02*
X32940Y86610D01*
X33240Y86750D01*
X33590Y86800D01*
X34020Y86710D01*
X34320Y86470D01*
X34410Y86190D01*
X34370Y85910D01*
X34190Y85680D01*
X33330Y85210D01*
X32940Y84890D01*
X32680Y84420D01*
X32590Y84000D01*
X34410D01*
G01X35650Y84560D02*
X35910Y84230D01*
X36250Y84050D01*
X36640Y84000D01*
X36990Y84050D01*
X37340Y84280D01*
X37550Y84560D01*
X37600Y84840D01*
X37510Y85170D01*
X37210Y85400D01*
X36900Y85490D01*
X36510D01*
G01X36900D02*
X37160Y85630D01*
X37380Y85870D01*
X37470Y86150D01*
X37380Y86430D01*
X37160Y86660D01*
X36770Y86800D01*
X36380Y86750D01*
X35990Y86570D01*
G01X47750Y89070D02*
X47490Y89210D01*
X47190Y89300D01*
X46840D01*
X46450Y89160D01*
X46150Y88930D01*
X45930Y88650D01*
X45760Y88180D01*
X45720Y87760D01*
X45800Y87340D01*
X45930Y87060D01*
X46190Y86780D01*
X46500Y86590D01*
X46800Y86500D01*
X47100D01*
X47410Y86590D01*
X47670Y86730D01*
X47880Y86920D01*
G01X49080Y88830D02*
X49340Y89110D01*
X49640Y89250D01*
X49990Y89300D01*
X50420Y89210D01*
X50720Y88970D01*
X50810Y88690D01*
X50770Y88410D01*
X50590Y88180D01*
X49730Y87710D01*
X49340Y87390D01*
X49080Y86920D01*
X48990Y86500D01*
X50810D01*
G01X52180Y88830D02*
X52440Y89110D01*
X52740Y89250D01*
X53090Y89300D01*
X53520Y89210D01*
X53820Y88970D01*
X53910Y88690D01*
X53870Y88410D01*
X53690Y88180D01*
X52830Y87710D01*
X52440Y87390D01*
X52180Y86920D01*
X52090Y86500D01*
X53910D01*
G01X47750Y85570D02*
X47490Y85710D01*
X47190Y85800D01*
X46840D01*
X46450Y85660D01*
X46150Y85430D01*
X45930Y85150D01*
X45760Y84680D01*
X45720Y84260D01*
X45800Y83840D01*
X45930Y83560D01*
X46190Y83280D01*
X46500Y83090D01*
X46800Y83000D01*
X47100D01*
X47410Y83090D01*
X47670Y83230D01*
X47880Y83420D01*
G01X49080Y85330D02*
X49340Y85610D01*
X49640Y85750D01*
X49990Y85800D01*
X50420Y85710D01*
X50720Y85470D01*
X50810Y85190D01*
X50770Y84910D01*
X50590Y84680D01*
X49730Y84210D01*
X49340Y83890D01*
X49080Y83420D01*
X48990Y83000D01*
X50810D01*
G01X53520D02*
Y85800D01*
X51920Y83790D01*
X54080D01*
G01X31530Y103500D02*
Y106300D01*
X32620D01*
X32960Y106160D01*
X33180Y105970D01*
X33270Y105600D01*
X33180Y105230D01*
X32920Y104990D01*
X32620Y104850D01*
X31530D01*
G01X32620D02*
X33270Y103500D01*
G01X34680Y105830D02*
X34940Y106110D01*
X35240Y106250D01*
X35590Y106300D01*
X36020Y106210D01*
X36320Y105970D01*
X36410Y105690D01*
X36370Y105410D01*
X36190Y105180D01*
X35330Y104710D01*
X34940Y104390D01*
X34680Y103920D01*
X34590Y103500D01*
X36410D01*
G01X38510D02*
X38600Y104110D01*
X38730Y104620D01*
X38900Y105090D01*
X39120Y105600D01*
X39470Y106300D01*
X37730D01*
G01X26750Y114570D02*
X26490Y114710D01*
X26190Y114800D01*
X25840D01*
X25450Y114660D01*
X25150Y114430D01*
X24930Y114150D01*
X24760Y113680D01*
X24720Y113260D01*
X24800Y112840D01*
X24930Y112560D01*
X25190Y112280D01*
X25500Y112090D01*
X25800Y112000D01*
X26100D01*
X26410Y112090D01*
X26670Y112230D01*
X26880Y112420D01*
G01X28900Y112000D02*
Y114800D01*
X28380Y114240D01*
G01Y112000D02*
X29420D01*
G01X31180Y113170D02*
X31480Y113490D01*
X31740Y113680D01*
X32090Y113770D01*
X32390Y113680D01*
X32610Y113490D01*
X32780Y113210D01*
X32820Y112890D01*
X32780Y112610D01*
X32610Y112330D01*
X32350Y112090D01*
X32040Y112000D01*
X31700Y112090D01*
X31390Y112370D01*
X31220Y112790D01*
X31180Y113260D01*
X31260Y113870D01*
X31390Y114190D01*
X31610Y114520D01*
X31910Y114750D01*
X32220Y114800D01*
X32520Y114710D01*
X32740Y114470D01*
G01X31030Y116000D02*
Y118800D01*
X32120D01*
X32460Y118660D01*
X32680Y118470D01*
X32770Y118100D01*
X32680Y117730D01*
X32420Y117490D01*
X32120Y117350D01*
X31030D01*
G01X32120D02*
X32770Y116000D01*
G01X34050Y116560D02*
X34310Y116230D01*
X34650Y116050D01*
X35040Y116000D01*
X35390Y116050D01*
X35740Y116280D01*
X35950Y116560D01*
X36000Y116840D01*
X35910Y117170D01*
X35610Y117400D01*
X35300Y117490D01*
X34910D01*
G01X35300D02*
X35560Y117630D01*
X35780Y117870D01*
X35870Y118150D01*
X35780Y118430D01*
X35560Y118660D01*
X35170Y118800D01*
X34780Y118750D01*
X34390Y118570D01*
G01X38010Y116000D02*
X38100Y116610D01*
X38230Y117120D01*
X38400Y117590D01*
X38620Y118100D01*
X38970Y118800D01*
X37230D01*
G01X31030Y122000D02*
Y124800D01*
X32120D01*
X32460Y124660D01*
X32680Y124470D01*
X32770Y124100D01*
X32680Y123730D01*
X32420Y123490D01*
X32120Y123350D01*
X31030D01*
G01X32120D02*
X32770Y122000D01*
G01X34050Y122560D02*
X34310Y122230D01*
X34650Y122050D01*
X35040Y122000D01*
X35390Y122050D01*
X35740Y122280D01*
X35950Y122560D01*
X36000Y122840D01*
X35910Y123170D01*
X35610Y123400D01*
X35300Y123490D01*
X34910D01*
G01X35300D02*
X35560Y123630D01*
X35780Y123870D01*
X35870Y124150D01*
X35780Y124430D01*
X35560Y124660D01*
X35170Y124800D01*
X34780Y124750D01*
X34390Y124570D01*
G01X38100Y122000D02*
X38400Y122050D01*
X38750Y122190D01*
X38970Y122420D01*
X39050Y122750D01*
X38970Y123070D01*
X38710Y123350D01*
X38320Y123490D01*
X37880D01*
X37620Y123590D01*
X37410Y123820D01*
X37320Y124150D01*
X37450Y124470D01*
X37750Y124710D01*
X38100Y124800D01*
X38450Y124710D01*
X38750Y124470D01*
X38880Y124150D01*
X38790Y123820D01*
X38580Y123590D01*
X38320Y123490D01*
X37880D01*
X37490Y123350D01*
X37230Y123070D01*
X37150Y122750D01*
X37230Y122420D01*
X37450Y122190D01*
X37800Y122050D01*
X38100Y122000D01*
G01X31030Y126500D02*
Y129300D01*
X32120D01*
X32460Y129160D01*
X32680Y128970D01*
X32770Y128600D01*
X32680Y128230D01*
X32420Y127990D01*
X32120Y127850D01*
X31030D01*
G01X32120D02*
X32770Y126500D01*
G01X34050Y127060D02*
X34310Y126730D01*
X34650Y126550D01*
X35040Y126500D01*
X35390Y126550D01*
X35740Y126780D01*
X35950Y127060D01*
X36000Y127340D01*
X35910Y127670D01*
X35610Y127900D01*
X35300Y127990D01*
X34910D01*
G01X35300D02*
X35560Y128130D01*
X35780Y128370D01*
X35870Y128650D01*
X35780Y128930D01*
X35560Y129160D01*
X35170Y129300D01*
X34780Y129250D01*
X34390Y129070D01*
G01X37360Y126830D02*
X37670Y126590D01*
X38010Y126500D01*
X38360Y126590D01*
X38660Y126870D01*
X38880Y127290D01*
X38970Y127710D01*
Y128230D01*
X38880Y128650D01*
X38660Y129020D01*
X38400Y129210D01*
X38100Y129300D01*
X37750Y129210D01*
X37490Y129020D01*
X37320Y128740D01*
X37230Y128370D01*
X37320Y128040D01*
X37540Y127710D01*
X37800Y127530D01*
X38100Y127480D01*
X38450Y127570D01*
X38710Y127810D01*
X38970Y128230D01*
G01X46030Y111000D02*
Y113800D01*
X47120D01*
X47460Y113660D01*
X47680Y113470D01*
X47770Y113100D01*
X47680Y112730D01*
X47420Y112490D01*
X47120Y112350D01*
X46030D01*
G01X47120D02*
X47770Y111000D01*
G01X49180Y113330D02*
X49440Y113610D01*
X49740Y113750D01*
X50090Y113800D01*
X50520Y113710D01*
X50820Y113470D01*
X50910Y113190D01*
X50870Y112910D01*
X50690Y112680D01*
X49830Y112210D01*
X49440Y111890D01*
X49180Y111420D01*
X49090Y111000D01*
X50910D01*
G01X52280Y112170D02*
X52580Y112490D01*
X52840Y112680D01*
X53190Y112770D01*
X53490Y112680D01*
X53710Y112490D01*
X53880Y112210D01*
X53920Y111890D01*
X53880Y111610D01*
X53710Y111330D01*
X53450Y111090D01*
X53140Y111000D01*
X52800Y111090D01*
X52490Y111370D01*
X52320Y111790D01*
X52280Y112260D01*
X52360Y112870D01*
X52490Y113190D01*
X52710Y113520D01*
X53010Y113750D01*
X53320Y113800D01*
X53620Y113710D01*
X53840Y113470D01*
G01X26000Y146000D02*
Y148800D01*
X25480Y148240D01*
G01Y146000D02*
X26520D01*
G01X32350Y155000D02*
Y157800D01*
X33210D01*
X33560Y157660D01*
X33820Y157470D01*
X34040Y157190D01*
X34210Y156870D01*
X34250Y156400D01*
X34210Y155930D01*
X34040Y155610D01*
X33820Y155330D01*
X33560Y155140D01*
X33210Y155000D01*
X32350D01*
G01X35580Y156170D02*
X35880Y156490D01*
X36140Y156680D01*
X36490Y156770D01*
X36790Y156680D01*
X37010Y156490D01*
X37180Y156210D01*
X37220Y155890D01*
X37180Y155610D01*
X37010Y155330D01*
X36750Y155090D01*
X36440Y155000D01*
X36100Y155090D01*
X35790Y155370D01*
X35620Y155790D01*
X35580Y156260D01*
X35660Y156870D01*
X35790Y157190D01*
X36010Y157520D01*
X36310Y157750D01*
X36620Y157800D01*
X36920Y157710D01*
X37140Y157470D01*
G01X34850Y144000D02*
Y146800D01*
X35710D01*
X36060Y146660D01*
X36320Y146470D01*
X36540Y146190D01*
X36710Y145870D01*
X36750Y145400D01*
X36710Y144930D01*
X36540Y144610D01*
X36320Y144330D01*
X36060Y144140D01*
X35710Y144000D01*
X34850D01*
G01X38810D02*
X38900Y144610D01*
X39030Y145120D01*
X39200Y145590D01*
X39420Y146100D01*
X39770Y146800D01*
X38030D01*
G01X31850Y131000D02*
Y133800D01*
X32710D01*
X33060Y133660D01*
X33320Y133470D01*
X33540Y133190D01*
X33710Y132870D01*
X33750Y132400D01*
X33710Y131930D01*
X33540Y131610D01*
X33320Y131330D01*
X33060Y131140D01*
X32710Y131000D01*
X31850D01*
G01X35900D02*
X36200Y131050D01*
X36550Y131190D01*
X36770Y131420D01*
X36850Y131750D01*
X36770Y132070D01*
X36510Y132350D01*
X36120Y132490D01*
X35680D01*
X35420Y132590D01*
X35210Y132820D01*
X35120Y133150D01*
X35250Y133470D01*
X35550Y133710D01*
X35900Y133800D01*
X36250Y133710D01*
X36550Y133470D01*
X36680Y133150D01*
X36590Y132820D01*
X36380Y132590D01*
X36120Y132490D01*
X35680D01*
X35290Y132350D01*
X35030Y132070D01*
X34950Y131750D01*
X35030Y131420D01*
X35250Y131190D01*
X35600Y131050D01*
X35900Y131000D01*
G01X44580Y153000D02*
Y155800D01*
X45670D01*
X46010Y155660D01*
X46230Y155470D01*
X46320Y155100D01*
X46230Y154730D01*
X45970Y154490D01*
X45670Y154350D01*
X44580D01*
G01X45670D02*
X46320Y153000D01*
G01X48460D02*
X48550Y153610D01*
X48680Y154120D01*
X48850Y154590D01*
X49070Y155100D01*
X49420Y155800D01*
X47680D01*
G01X46030Y140500D02*
Y143300D01*
X47120D01*
X47460Y143160D01*
X47680Y142970D01*
X47770Y142600D01*
X47680Y142230D01*
X47420Y141990D01*
X47120Y141850D01*
X46030D01*
G01X47120D02*
X47770Y140500D01*
G01X50520D02*
Y143300D01*
X48920Y141290D01*
X51080D01*
G01X53100Y143300D02*
X52750Y143210D01*
X52490Y142970D01*
X52320Y142690D01*
X52190Y142320D01*
X52150Y141900D01*
X52190Y141480D01*
X52320Y141110D01*
X52490Y140830D01*
X52750Y140590D01*
X53100Y140500D01*
X53450Y140590D01*
X53710Y140830D01*
X53880Y141110D01*
X54010Y141480D01*
X54050Y141900D01*
X54010Y142320D01*
X53880Y142690D01*
X53710Y142970D01*
X53450Y143210D01*
X53100Y143300D01*
G01X44030Y161000D02*
Y163800D01*
X45120D01*
X45460Y163660D01*
X45680Y163470D01*
X45770Y163100D01*
X45680Y162730D01*
X45420Y162490D01*
X45120Y162350D01*
X44030D01*
G01X45120D02*
X45770Y161000D01*
G01X48520D02*
Y163800D01*
X46920Y161790D01*
X49080D01*
G01X51100Y161000D02*
Y163800D01*
X50580Y163240D01*
G01Y161000D02*
X51620D01*
G01X34130Y159000D02*
Y161800D01*
X35770D01*
G01X35170Y160450D02*
X34130D01*
G01X38050Y159000D02*
Y161800D01*
X37530Y161240D01*
G01Y159000D02*
X38570D01*
G01X42900Y178800D02*
Y176000D01*
G01X41900Y178800D02*
X43900D01*
G01X45130Y176000D02*
Y178800D01*
X46170D01*
X46520Y178660D01*
X46780Y178330D01*
X46870Y177960D01*
X46780Y177590D01*
X46560Y177310D01*
X46170Y177170D01*
X45130D01*
G01X48280Y178330D02*
X48540Y178610D01*
X48840Y178750D01*
X49190Y178800D01*
X49620Y178710D01*
X49920Y178470D01*
X50010Y178190D01*
X49970Y177910D01*
X49790Y177680D01*
X48930Y177210D01*
X48540Y176890D01*
X48280Y176420D01*
X48190Y176000D01*
X50010D01*
G01X41930Y182500D02*
Y185300D01*
X43020D01*
X43360Y185160D01*
X43580Y184970D01*
X43670Y184600D01*
X43580Y184230D01*
X43320Y183990D01*
X43020Y183850D01*
X41930D01*
G01X43020D02*
X43670Y182500D01*
G01X44950Y183060D02*
X45210Y182730D01*
X45550Y182550D01*
X45940Y182500D01*
X46290Y182550D01*
X46640Y182780D01*
X46850Y183060D01*
X46900Y183340D01*
X46810Y183670D01*
X46510Y183900D01*
X46200Y183990D01*
X45810D01*
G01X46200D02*
X46460Y184130D01*
X46680Y184370D01*
X46770Y184650D01*
X46680Y184930D01*
X46460Y185160D01*
X46070Y185300D01*
X45680Y185250D01*
X45290Y185070D01*
G01X49000Y182500D02*
Y185300D01*
X48480Y184740D01*
G01Y182500D02*
X49520D01*
G01X70930Y17500D02*
Y20300D01*
X72020D01*
X72360Y20160D01*
X72580Y19970D01*
X72670Y19600D01*
X72580Y19230D01*
X72320Y18990D01*
X72020Y18850D01*
X70930D01*
G01X72020D02*
X72670Y17500D01*
G01X75420D02*
Y20300D01*
X73820Y18290D01*
X75980D01*
G01X77180Y19830D02*
X77440Y20110D01*
X77740Y20250D01*
X78090Y20300D01*
X78520Y20210D01*
X78820Y19970D01*
X78910Y19690D01*
X78870Y19410D01*
X78690Y19180D01*
X77830Y18710D01*
X77440Y18390D01*
X77180Y17920D01*
X77090Y17500D01*
X78910D01*
G01X53250Y46570D02*
X52990Y46710D01*
X52690Y46800D01*
X52340D01*
X51950Y46660D01*
X51650Y46430D01*
X51430Y46150D01*
X51260Y45680D01*
X51220Y45260D01*
X51300Y44840D01*
X51430Y44560D01*
X51690Y44280D01*
X52000Y44090D01*
X52300Y44000D01*
X52600D01*
X52910Y44090D01*
X53170Y44230D01*
X53380Y44420D01*
G01X54580Y46330D02*
X54840Y46610D01*
X55140Y46750D01*
X55490Y46800D01*
X55920Y46710D01*
X56220Y46470D01*
X56310Y46190D01*
X56270Y45910D01*
X56090Y45680D01*
X55230Y45210D01*
X54840Y44890D01*
X54580Y44420D01*
X54490Y44000D01*
X56310D01*
G01X57550Y44420D02*
X57810Y44190D01*
X58110Y44050D01*
X58500Y44000D01*
X58890Y44090D01*
X59190Y44280D01*
X59410Y44610D01*
X59450Y44980D01*
X59370Y45350D01*
X59150Y45590D01*
X58850Y45770D01*
X58540Y45820D01*
X58240Y45770D01*
X57850Y45590D01*
X57980Y46800D01*
X59150D01*
G01X67530Y40500D02*
Y43300D01*
X68620D01*
X68960Y43160D01*
X69180Y42970D01*
X69270Y42600D01*
X69180Y42230D01*
X68920Y41990D01*
X68620Y41850D01*
X67530D01*
G01X68620D02*
X69270Y40500D01*
G01X70680Y42830D02*
X70940Y43110D01*
X71240Y43250D01*
X71590Y43300D01*
X72020Y43210D01*
X72320Y42970D01*
X72410Y42690D01*
X72370Y42410D01*
X72190Y42180D01*
X71330Y41710D01*
X70940Y41390D01*
X70680Y40920D01*
X70590Y40500D01*
X72410D01*
G01X73650Y40920D02*
X73910Y40690D01*
X74210Y40550D01*
X74600Y40500D01*
X74990Y40590D01*
X75290Y40780D01*
X75510Y41110D01*
X75550Y41480D01*
X75470Y41850D01*
X75250Y42090D01*
X74950Y42270D01*
X74640Y42320D01*
X74340Y42270D01*
X73950Y42090D01*
X74080Y43300D01*
X75250D01*
G01X57530Y40500D02*
Y43300D01*
X58620D01*
X58960Y43160D01*
X59180Y42970D01*
X59270Y42600D01*
X59180Y42230D01*
X58920Y41990D01*
X58620Y41850D01*
X57530D01*
G01X58620D02*
X59270Y40500D01*
G01X60680Y42830D02*
X60940Y43110D01*
X61240Y43250D01*
X61590Y43300D01*
X62020Y43210D01*
X62320Y42970D01*
X62410Y42690D01*
X62370Y42410D01*
X62190Y42180D01*
X61330Y41710D01*
X60940Y41390D01*
X60680Y40920D01*
X60590Y40500D01*
X62410D01*
G01X63650Y41060D02*
X63910Y40730D01*
X64250Y40550D01*
X64640Y40500D01*
X64990Y40550D01*
X65340Y40780D01*
X65550Y41060D01*
X65600Y41340D01*
X65510Y41670D01*
X65210Y41900D01*
X64900Y41990D01*
X64510D01*
G01X64900D02*
X65160Y42130D01*
X65380Y42370D01*
X65470Y42650D01*
X65380Y42930D01*
X65160Y43160D01*
X64770Y43300D01*
X64380Y43250D01*
X63990Y43070D01*
G01X48580Y39060D02*
X48800Y38780D01*
X49060Y38590D01*
X49360Y38500D01*
X49710Y38590D01*
X49970Y38780D01*
X50230Y39060D01*
X50320Y39430D01*
Y41300D01*
G01X51730Y39670D02*
X52030Y39990D01*
X52290Y40180D01*
X52640Y40270D01*
X52940Y40180D01*
X53160Y39990D01*
X53330Y39710D01*
X53370Y39390D01*
X53330Y39110D01*
X53160Y38830D01*
X52900Y38590D01*
X52590Y38500D01*
X52250Y38590D01*
X51940Y38870D01*
X51770Y39290D01*
X51730Y39760D01*
X51810Y40370D01*
X51940Y40690D01*
X52160Y41020D01*
X52460Y41250D01*
X52770Y41300D01*
X53070Y41210D01*
X53290Y40970D01*
G01X61300Y32300D02*
Y29500D01*
G01X60300Y32300D02*
X62300D01*
G01X63320D02*
X64400Y29500D01*
X65480Y32300D01*
G01X66590Y29870D02*
X66940Y29640D01*
X67330Y29500D01*
X67670D01*
X68020Y29640D01*
X68280Y29870D01*
X68410Y30200D01*
X68320Y30530D01*
X68110Y30810D01*
X67720Y30990D01*
X67200Y31090D01*
X66890Y31270D01*
X66760Y31600D01*
X66850Y31930D01*
X67070Y32160D01*
X67370Y32300D01*
X67670D01*
X67980Y32210D01*
X68240Y31970D01*
G01X70600Y29500D02*
Y32300D01*
X70080Y31740D01*
G01Y29500D02*
X71120D01*
G01X66850Y63570D02*
X66590Y63710D01*
X66290Y63800D01*
X65940D01*
X65550Y63660D01*
X65250Y63430D01*
X65030Y63150D01*
X64860Y62680D01*
X64820Y62260D01*
X64900Y61840D01*
X65030Y61560D01*
X65290Y61280D01*
X65600Y61090D01*
X65900Y61000D01*
X66200D01*
X66510Y61090D01*
X66770Y61230D01*
X66980Y61420D01*
G01X69000Y61000D02*
Y63800D01*
X68480Y63240D01*
G01Y61000D02*
X69520D01*
G01X71360Y61330D02*
X71670Y61090D01*
X72010Y61000D01*
X72360Y61090D01*
X72660Y61370D01*
X72880Y61790D01*
X72970Y62210D01*
Y62730D01*
X72880Y63150D01*
X72660Y63520D01*
X72400Y63710D01*
X72100Y63800D01*
X71750Y63710D01*
X71490Y63520D01*
X71320Y63240D01*
X71230Y62870D01*
X71320Y62540D01*
X71540Y62210D01*
X71800Y62030D01*
X72100Y61980D01*
X72450Y62070D01*
X72710Y62310D01*
X72970Y62730D01*
G01X56250Y63570D02*
X55990Y63710D01*
X55690Y63800D01*
X55340D01*
X54950Y63660D01*
X54650Y63430D01*
X54430Y63150D01*
X54260Y62680D01*
X54220Y62260D01*
X54300Y61840D01*
X54430Y61560D01*
X54690Y61280D01*
X55000Y61090D01*
X55300Y61000D01*
X55600D01*
X55910Y61090D01*
X56170Y61230D01*
X56380Y61420D01*
G01X57580Y63330D02*
X57840Y63610D01*
X58140Y63750D01*
X58490Y63800D01*
X58920Y63710D01*
X59220Y63470D01*
X59310Y63190D01*
X59270Y62910D01*
X59090Y62680D01*
X58230Y62210D01*
X57840Y61890D01*
X57580Y61420D01*
X57490Y61000D01*
X59310D01*
G01X61500D02*
Y63800D01*
X60980Y63240D01*
G01Y61000D02*
X62020D01*
G01X50000Y80060D02*
X50260Y79730D01*
X50600Y79550D01*
X50990Y79500D01*
X51340Y79550D01*
X51690Y79780D01*
X51900Y80060D01*
X51950Y80340D01*
X51860Y80670D01*
X51560Y80900D01*
X51250Y80990D01*
X50860D01*
G01X51250D02*
X51510Y81130D01*
X51730Y81370D01*
X51820Y81650D01*
X51730Y81930D01*
X51510Y82160D01*
X51120Y82300D01*
X50730Y82250D01*
X50340Y82070D01*
G01X53100Y79920D02*
X53360Y79690D01*
X53660Y79550D01*
X54050Y79500D01*
X54440Y79590D01*
X54740Y79780D01*
X54960Y80110D01*
X55000Y80480D01*
X54920Y80850D01*
X54700Y81090D01*
X54400Y81270D01*
X54090Y81320D01*
X53790Y81270D01*
X53400Y81090D01*
X53530Y82300D01*
X54700D01*
G01X50950Y114500D02*
Y117300D01*
X50430Y116740D01*
G01Y114500D02*
X51470D01*
G01X54050D02*
X54350Y114550D01*
X54700Y114690D01*
X54920Y114920D01*
X55000Y115250D01*
X54920Y115570D01*
X54660Y115850D01*
X54270Y115990D01*
X53830D01*
X53570Y116090D01*
X53360Y116320D01*
X53270Y116650D01*
X53400Y116970D01*
X53700Y117210D01*
X54050Y117300D01*
X54400Y117210D01*
X54700Y116970D01*
X54830Y116650D01*
X54740Y116320D01*
X54530Y116090D01*
X54270Y115990D01*
X53830D01*
X53440Y115850D01*
X53180Y115570D01*
X53100Y115250D01*
X53180Y114920D01*
X53400Y114690D01*
X53750Y114550D01*
X54050Y114500D01*
G01X58280Y117500D02*
Y120300D01*
X59320D01*
X59670Y120160D01*
X59930Y119830D01*
X60020Y119460D01*
X59930Y119090D01*
X59710Y118810D01*
X59320Y118670D01*
X58280D01*
G01X61340Y117870D02*
X61690Y117640D01*
X62080Y117500D01*
X62420D01*
X62770Y117640D01*
X63030Y117870D01*
X63160Y118200D01*
X63070Y118530D01*
X62860Y118810D01*
X62470Y118990D01*
X61950Y119090D01*
X61640Y119270D01*
X61510Y119600D01*
X61600Y119930D01*
X61820Y120160D01*
X62120Y120300D01*
X62420D01*
X62730Y120210D01*
X62990Y119970D01*
G01X65350Y117500D02*
X65090Y117550D01*
X64830Y117730D01*
X64660Y118060D01*
X64570Y118430D01*
X64660Y118810D01*
X64830Y119130D01*
X65090Y119320D01*
X65350Y119370D01*
X65610Y119320D01*
X65870Y119130D01*
X66040Y118810D01*
X66090Y118430D01*
X66040Y118060D01*
X65870Y117730D01*
X65610Y117550D01*
X65350Y117500D01*
G01X69400Y120070D02*
X69140Y120210D01*
X68840Y120300D01*
X68490D01*
X68100Y120160D01*
X67800Y119930D01*
X67580Y119650D01*
X67410Y119180D01*
X67370Y118760D01*
X67450Y118340D01*
X67580Y118060D01*
X67840Y117780D01*
X68150Y117590D01*
X68450Y117500D01*
X68750D01*
X69060Y117590D01*
X69320Y117730D01*
X69530Y117920D01*
G01X73700D02*
X73960Y117690D01*
X74260Y117550D01*
X74650Y117500D01*
X75040Y117590D01*
X75340Y117780D01*
X75560Y118110D01*
X75600Y118480D01*
X75520Y118850D01*
X75300Y119090D01*
X75000Y119270D01*
X74690Y119320D01*
X74390Y119270D01*
X74000Y119090D01*
X74130Y120300D01*
X75300D01*
G01X76880D02*
Y117500D01*
X78620D01*
G01X79980D02*
Y120300D01*
X81020D01*
X81370Y120160D01*
X81630Y119830D01*
X81720Y119460D01*
X81630Y119090D01*
X81410Y118810D01*
X81020Y118670D01*
X79980D01*
G01X58750Y129070D02*
X58490Y129210D01*
X58190Y129300D01*
X57840D01*
X57450Y129160D01*
X57150Y128930D01*
X56930Y128650D01*
X56760Y128180D01*
X56720Y127760D01*
X56800Y127340D01*
X56930Y127060D01*
X57190Y126780D01*
X57500Y126590D01*
X57800Y126500D01*
X58100D01*
X58410Y126590D01*
X58670Y126730D01*
X58880Y126920D01*
G01X60080Y128830D02*
X60340Y129110D01*
X60640Y129250D01*
X60990Y129300D01*
X61420Y129210D01*
X61720Y128970D01*
X61810Y128690D01*
X61770Y128410D01*
X61590Y128180D01*
X60730Y127710D01*
X60340Y127390D01*
X60080Y126920D01*
X59990Y126500D01*
X61810D01*
G01X64000Y129300D02*
X63650Y129210D01*
X63390Y128970D01*
X63220Y128690D01*
X63090Y128320D01*
X63050Y127900D01*
X63090Y127480D01*
X63220Y127110D01*
X63390Y126830D01*
X63650Y126590D01*
X64000Y126500D01*
X64350Y126590D01*
X64610Y126830D01*
X64780Y127110D01*
X64910Y127480D01*
X64950Y127900D01*
X64910Y128320D01*
X64780Y128690D01*
X64610Y128970D01*
X64350Y129210D01*
X64000Y129300D01*
G01X50770Y171800D02*
X51850Y169000D01*
X52930Y171800D01*
G01X55300Y170490D02*
X55470Y170630D01*
X55600Y170870D01*
X55690Y171190D01*
X55600Y171470D01*
X55430Y171660D01*
X55120Y171800D01*
X53950D01*
Y169000D01*
X55380D01*
X55690Y169190D01*
X55860Y169470D01*
X55950Y169790D01*
X55860Y170120D01*
X55600Y170400D01*
X55300Y170490D01*
X53950D01*
G01X57100Y171800D02*
Y169790D01*
X57270Y169370D01*
X57620Y169090D01*
X58050Y169000D01*
X58480Y169090D01*
X58830Y169370D01*
X59000Y169790D01*
Y171800D01*
G01X60240Y169370D02*
X60590Y169140D01*
X60980Y169000D01*
X61320D01*
X61670Y169140D01*
X61930Y169370D01*
X62060Y169700D01*
X61970Y170030D01*
X61760Y170310D01*
X61370Y170490D01*
X60850Y170590D01*
X60540Y170770D01*
X60410Y171100D01*
X60500Y171430D01*
X60720Y171660D01*
X61020Y171800D01*
X61320D01*
X61630Y171710D01*
X61890Y171470D01*
G01X56950Y175000D02*
Y177800D01*
X56430Y177240D01*
G01Y175000D02*
X57470D01*
G01X60050Y177800D02*
X59700Y177710D01*
X59440Y177470D01*
X59270Y177190D01*
X59140Y176820D01*
X59100Y176400D01*
X59140Y175980D01*
X59270Y175610D01*
X59440Y175330D01*
X59700Y175090D01*
X60050Y175000D01*
X60400Y175090D01*
X60660Y175330D01*
X60830Y175610D01*
X60960Y175980D01*
X61000Y176400D01*
X60960Y176820D01*
X60830Y177190D01*
X60660Y177470D01*
X60400Y177710D01*
X60050Y177800D01*
G01X70080Y167560D02*
X70300Y167280D01*
X70560Y167090D01*
X70860Y167000D01*
X71210Y167090D01*
X71470Y167280D01*
X71730Y167560D01*
X71820Y167930D01*
Y169800D01*
G01X73960Y167000D02*
X74050Y167610D01*
X74180Y168120D01*
X74350Y168590D01*
X74570Y169100D01*
X74920Y169800D01*
X73180D01*
G01X87500Y-10000D02*
X87800Y-9950D01*
X88150Y-9810D01*
X88370Y-9580D01*
X88450Y-9250D01*
X88370Y-8930D01*
X88110Y-8650D01*
X87720Y-8510D01*
X87280D01*
X87020Y-8410D01*
X86810Y-8180D01*
X86720Y-7850D01*
X86850Y-7530D01*
X87150Y-7290D01*
X87500Y-7200D01*
X87850Y-7290D01*
X88150Y-7530D01*
X88280Y-7850D01*
X88190Y-8180D01*
X87980Y-8410D01*
X87720Y-8510D01*
X87280D01*
X86890Y-8650D01*
X86630Y-8930D01*
X86550Y-9250D01*
X86630Y-9580D01*
X86850Y-9810D01*
X87200Y-9950D01*
X87500Y-10000D01*
G01X75000Y2000D02*
Y4800D01*
X74480Y4240D01*
G01Y2000D02*
X75520D01*
G01X79580Y-1440D02*
X79800Y-1720D01*
X80060Y-1910D01*
X80360Y-2000D01*
X80710Y-1910D01*
X80970Y-1720D01*
X81230Y-1440D01*
X81320Y-1070D01*
Y800D01*
G01X82600Y-1580D02*
X82860Y-1810D01*
X83160Y-1950D01*
X83550Y-2000D01*
X83940Y-1910D01*
X84240Y-1720D01*
X84460Y-1390D01*
X84500Y-1020D01*
X84420Y-650D01*
X84200Y-410D01*
X83900Y-230D01*
X83590Y-180D01*
X83290Y-230D01*
X82900Y-410D01*
X83030Y800D01*
X84200D01*
G01X86800Y7000D02*
X86450Y7050D01*
X86150Y7230D01*
X85890Y7510D01*
X85720Y7840D01*
X85630Y8210D01*
Y8590D01*
X85720Y8960D01*
X85890Y9290D01*
X86150Y9570D01*
X86450Y9750D01*
X86800Y9800D01*
X87150Y9750D01*
X87450Y9570D01*
X87710Y9290D01*
X87880Y8960D01*
X87970Y8590D01*
Y8210D01*
X87880Y7840D01*
X87710Y7510D01*
X87450Y7230D01*
X87150Y7050D01*
X86800Y7000D01*
G01X87150Y7750D02*
X87670Y7000D01*
G01X89080Y9330D02*
X89340Y9610D01*
X89640Y9750D01*
X89990Y9800D01*
X90420Y9710D01*
X90720Y9470D01*
X90810Y9190D01*
X90770Y8910D01*
X90590Y8680D01*
X89730Y8210D01*
X89340Y7890D01*
X89080Y7420D01*
X88990Y7000D01*
X90810D01*
G01X77530Y40500D02*
Y43300D01*
X78620D01*
X78960Y43160D01*
X79180Y42970D01*
X79270Y42600D01*
X79180Y42230D01*
X78920Y41990D01*
X78620Y41850D01*
X77530D01*
G01X78620D02*
X79270Y40500D01*
G01X80680Y42830D02*
X80940Y43110D01*
X81240Y43250D01*
X81590Y43300D01*
X82020Y43210D01*
X82320Y42970D01*
X82410Y42690D01*
X82370Y42410D01*
X82190Y42180D01*
X81330Y41710D01*
X80940Y41390D01*
X80680Y40920D01*
X80590Y40500D01*
X82410D01*
G01X85120D02*
Y43300D01*
X83520Y41290D01*
X85680D01*
G01X87030Y51000D02*
Y53800D01*
X88120D01*
X88460Y53660D01*
X88680Y53470D01*
X88770Y53100D01*
X88680Y52730D01*
X88420Y52490D01*
X88120Y52350D01*
X87030D01*
G01X88120D02*
X88770Y51000D01*
G01X90180Y53330D02*
X90440Y53610D01*
X90740Y53750D01*
X91090Y53800D01*
X91520Y53710D01*
X91820Y53470D01*
X91910Y53190D01*
X91870Y52910D01*
X91690Y52680D01*
X90830Y52210D01*
X90440Y51890D01*
X90180Y51420D01*
X90090Y51000D01*
X91910D01*
G01X93280Y53330D02*
X93540Y53610D01*
X93840Y53750D01*
X94190Y53800D01*
X94620Y53710D01*
X94920Y53470D01*
X95010Y53190D01*
X94970Y52910D01*
X94790Y52680D01*
X93930Y52210D01*
X93540Y51890D01*
X93280Y51420D01*
X93190Y51000D01*
X95010D01*
G01X88000Y34000D02*
Y36800D01*
X88860D01*
X89210Y36660D01*
X89470Y36470D01*
X89690Y36190D01*
X89860Y35870D01*
X89900Y35400D01*
X89860Y34930D01*
X89690Y34610D01*
X89470Y34330D01*
X89210Y34140D01*
X88860Y34000D01*
X88000D01*
G01X91100Y34420D02*
X91360Y34190D01*
X91660Y34050D01*
X92050Y34000D01*
X92440Y34090D01*
X92740Y34280D01*
X92960Y34610D01*
X93000Y34980D01*
X92920Y35350D01*
X92700Y35590D01*
X92400Y35770D01*
X92090Y35820D01*
X91790Y35770D01*
X91400Y35590D01*
X91530Y36800D01*
X92700D01*
G01X81850Y80570D02*
X81590Y80710D01*
X81290Y80800D01*
X80940D01*
X80550Y80660D01*
X80250Y80430D01*
X80030Y80150D01*
X79860Y79680D01*
X79820Y79260D01*
X79900Y78840D01*
X80030Y78560D01*
X80290Y78280D01*
X80600Y78090D01*
X80900Y78000D01*
X81200D01*
X81510Y78090D01*
X81770Y78230D01*
X81980Y78420D01*
G01X84000Y78000D02*
Y80800D01*
X83480Y80240D01*
G01Y78000D02*
X84520D01*
G01X87100D02*
X87400Y78050D01*
X87750Y78190D01*
X87970Y78420D01*
X88050Y78750D01*
X87970Y79070D01*
X87710Y79350D01*
X87320Y79490D01*
X86880D01*
X86620Y79590D01*
X86410Y79820D01*
X86320Y80150D01*
X86450Y80470D01*
X86750Y80710D01*
X87100Y80800D01*
X87450Y80710D01*
X87750Y80470D01*
X87880Y80150D01*
X87790Y79820D01*
X87580Y79590D01*
X87320Y79490D01*
X86880D01*
X86490Y79350D01*
X86230Y79070D01*
X86150Y78750D01*
X86230Y78420D01*
X86450Y78190D01*
X86800Y78050D01*
X87100Y78000D01*
G01X86950Y63070D02*
X86690Y63210D01*
X86390Y63300D01*
X86040D01*
X85650Y63160D01*
X85350Y62930D01*
X85130Y62650D01*
X84960Y62180D01*
X84920Y61760D01*
X85000Y61340D01*
X85130Y61060D01*
X85390Y60780D01*
X85700Y60590D01*
X86000Y60500D01*
X86300D01*
X86610Y60590D01*
X86870Y60730D01*
X87080Y60920D01*
G01X88280Y62830D02*
X88540Y63110D01*
X88840Y63250D01*
X89190Y63300D01*
X89620Y63210D01*
X89920Y62970D01*
X90010Y62690D01*
X89970Y62410D01*
X89790Y62180D01*
X88930Y61710D01*
X88540Y61390D01*
X88280Y60920D01*
X88190Y60500D01*
X90010D01*
G01X92200D02*
X92500Y60550D01*
X92850Y60690D01*
X93070Y60920D01*
X93150Y61250D01*
X93070Y61570D01*
X92810Y61850D01*
X92420Y61990D01*
X91980D01*
X91720Y62090D01*
X91510Y62320D01*
X91420Y62650D01*
X91550Y62970D01*
X91850Y63210D01*
X92200Y63300D01*
X92550Y63210D01*
X92850Y62970D01*
X92980Y62650D01*
X92890Y62320D01*
X92680Y62090D01*
X92420Y61990D01*
X91980D01*
X91590Y61850D01*
X91330Y61570D01*
X91250Y61250D01*
X91330Y60920D01*
X91550Y60690D01*
X91900Y60550D01*
X92200Y60500D01*
G01X92450Y80570D02*
X92190Y80710D01*
X91890Y80800D01*
X91540D01*
X91150Y80660D01*
X90850Y80430D01*
X90630Y80150D01*
X90460Y79680D01*
X90420Y79260D01*
X90500Y78840D01*
X90630Y78560D01*
X90890Y78280D01*
X91200Y78090D01*
X91500Y78000D01*
X91800D01*
X92110Y78090D01*
X92370Y78230D01*
X92580Y78420D01*
G01X93780Y80330D02*
X94040Y80610D01*
X94340Y80750D01*
X94690Y80800D01*
X95120Y80710D01*
X95420Y80470D01*
X95510Y80190D01*
X95470Y79910D01*
X95290Y79680D01*
X94430Y79210D01*
X94040Y78890D01*
X93780Y78420D01*
X93690Y78000D01*
X95510D01*
G01X96960Y78330D02*
X97270Y78090D01*
X97610Y78000D01*
X97960Y78090D01*
X98260Y78370D01*
X98480Y78790D01*
X98570Y79210D01*
Y79730D01*
X98480Y80150D01*
X98260Y80520D01*
X98000Y80710D01*
X97700Y80800D01*
X97350Y80710D01*
X97090Y80520D01*
X96920Y80240D01*
X96830Y79870D01*
X96920Y79540D01*
X97140Y79210D01*
X97400Y79030D01*
X97700Y78980D01*
X98050Y79070D01*
X98310Y79310D01*
X98570Y79730D01*
G01X76750Y63570D02*
X76490Y63710D01*
X76190Y63800D01*
X75840D01*
X75450Y63660D01*
X75150Y63430D01*
X74930Y63150D01*
X74760Y62680D01*
X74720Y62260D01*
X74800Y61840D01*
X74930Y61560D01*
X75190Y61280D01*
X75500Y61090D01*
X75800Y61000D01*
X76100D01*
X76410Y61090D01*
X76670Y61230D01*
X76880Y61420D01*
G01X78900Y61000D02*
Y63800D01*
X78380Y63240D01*
G01Y61000D02*
X79420D01*
G01X81910D02*
X82000Y61610D01*
X82130Y62120D01*
X82300Y62590D01*
X82520Y63100D01*
X82870Y63800D01*
X81130D01*
G01X89500Y84420D02*
X89760Y84190D01*
X90060Y84050D01*
X90450Y84000D01*
X90840Y84090D01*
X91140Y84280D01*
X91360Y84610D01*
X91400Y84980D01*
X91320Y85350D01*
X91100Y85590D01*
X90800Y85770D01*
X90490Y85820D01*
X90190Y85770D01*
X89800Y85590D01*
X89930Y86800D01*
X91100D01*
G01X92730Y86330D02*
X92990Y86610D01*
X93290Y86750D01*
X93640Y86800D01*
X94070Y86710D01*
X94370Y86470D01*
X94460Y86190D01*
X94420Y85910D01*
X94240Y85680D01*
X93380Y85210D01*
X92990Y84890D01*
X92730Y84420D01*
X92640Y84000D01*
X94460D01*
G01X92850Y91570D02*
X92590Y91710D01*
X92290Y91800D01*
X91940D01*
X91550Y91660D01*
X91250Y91430D01*
X91030Y91150D01*
X90860Y90680D01*
X90820Y90260D01*
X90900Y89840D01*
X91030Y89560D01*
X91290Y89280D01*
X91600Y89090D01*
X91900Y89000D01*
X92200D01*
X92510Y89090D01*
X92770Y89230D01*
X92980Y89420D01*
G01X95000Y89000D02*
Y91800D01*
X94480Y91240D01*
G01Y89000D02*
X95520D01*
G01X97150Y89560D02*
X97410Y89230D01*
X97750Y89050D01*
X98140Y89000D01*
X98490Y89050D01*
X98840Y89280D01*
X99050Y89560D01*
X99100Y89840D01*
X99010Y90170D01*
X98710Y90400D01*
X98400Y90490D01*
X98010D01*
G01X98400D02*
X98660Y90630D01*
X98880Y90870D01*
X98970Y91150D01*
X98880Y91430D01*
X98660Y91660D01*
X98270Y91800D01*
X97880Y91750D01*
X97490Y91570D01*
G01X92750Y97070D02*
X92490Y97210D01*
X92190Y97300D01*
X91840D01*
X91450Y97160D01*
X91150Y96930D01*
X90930Y96650D01*
X90760Y96180D01*
X90720Y95760D01*
X90800Y95340D01*
X90930Y95060D01*
X91190Y94780D01*
X91500Y94590D01*
X91800Y94500D01*
X92100D01*
X92410Y94590D01*
X92670Y94730D01*
X92880Y94920D01*
G01X94900Y94500D02*
Y97300D01*
X94380Y96740D01*
G01Y94500D02*
X95420D01*
G01X97180Y96830D02*
X97440Y97110D01*
X97740Y97250D01*
X98090Y97300D01*
X98520Y97210D01*
X98820Y96970D01*
X98910Y96690D01*
X98870Y96410D01*
X98690Y96180D01*
X97830Y95710D01*
X97440Y95390D01*
X97180Y94920D01*
X97090Y94500D01*
X98910D01*
G01X90130Y113170D02*
X90430Y113490D01*
X90690Y113680D01*
X91040Y113770D01*
X91340Y113680D01*
X91560Y113490D01*
X91730Y113210D01*
X91770Y112890D01*
X91730Y112610D01*
X91560Y112330D01*
X91300Y112090D01*
X90990Y112000D01*
X90650Y112090D01*
X90340Y112370D01*
X90170Y112790D01*
X90130Y113260D01*
X90210Y113870D01*
X90340Y114190D01*
X90560Y114520D01*
X90860Y114750D01*
X91170Y114800D01*
X91470Y114710D01*
X91690Y114470D01*
G01X94050Y112000D02*
X94350Y112050D01*
X94700Y112190D01*
X94920Y112420D01*
X95000Y112750D01*
X94920Y113070D01*
X94660Y113350D01*
X94270Y113490D01*
X93830D01*
X93570Y113590D01*
X93360Y113820D01*
X93270Y114150D01*
X93400Y114470D01*
X93700Y114710D01*
X94050Y114800D01*
X94400Y114710D01*
X94700Y114470D01*
X94830Y114150D01*
X94740Y113820D01*
X94530Y113590D01*
X94270Y113490D01*
X93830D01*
X93440Y113350D01*
X93180Y113070D01*
X93100Y112750D01*
X93180Y112420D01*
X93400Y112190D01*
X93750Y112050D01*
X94050Y112000D01*
G01X86500Y117000D02*
Y119800D01*
X85980Y119240D01*
G01Y117000D02*
X87020D01*
G01X92750Y108570D02*
X92490Y108710D01*
X92190Y108800D01*
X91840D01*
X91450Y108660D01*
X91150Y108430D01*
X90930Y108150D01*
X90760Y107680D01*
X90720Y107260D01*
X90800Y106840D01*
X90930Y106560D01*
X91190Y106280D01*
X91500Y106090D01*
X91800Y106000D01*
X92100D01*
X92410Y106090D01*
X92670Y106230D01*
X92880Y106420D01*
G01X94900Y106000D02*
Y108800D01*
X94380Y108240D01*
G01Y106000D02*
X95420D01*
G01X98520D02*
Y108800D01*
X96920Y106790D01*
X99080D01*
G01X81000Y125300D02*
Y123290D01*
X81170Y122870D01*
X81520Y122590D01*
X81950Y122500D01*
X82380Y122590D01*
X82730Y122870D01*
X82900Y123290D01*
Y125300D01*
G01X84100Y123060D02*
X84360Y122730D01*
X84700Y122550D01*
X85090Y122500D01*
X85440Y122550D01*
X85790Y122780D01*
X86000Y123060D01*
X86050Y123340D01*
X85960Y123670D01*
X85660Y123900D01*
X85350Y123990D01*
X84960D01*
G01X85350D02*
X85610Y124130D01*
X85830Y124370D01*
X85920Y124650D01*
X85830Y124930D01*
X85610Y125160D01*
X85220Y125300D01*
X84830Y125250D01*
X84440Y125070D01*
G01X91750Y145570D02*
X91490Y145710D01*
X91190Y145800D01*
X90840D01*
X90450Y145660D01*
X90150Y145430D01*
X89930Y145150D01*
X89760Y144680D01*
X89720Y144260D01*
X89800Y143840D01*
X89930Y143560D01*
X90190Y143280D01*
X90500Y143090D01*
X90800Y143000D01*
X91100D01*
X91410Y143090D01*
X91670Y143230D01*
X91880Y143420D01*
G01X93080Y145330D02*
X93340Y145610D01*
X93640Y145750D01*
X93990Y145800D01*
X94420Y145710D01*
X94720Y145470D01*
X94810Y145190D01*
X94770Y144910D01*
X94590Y144680D01*
X93730Y144210D01*
X93340Y143890D01*
X93080Y143420D01*
X92990Y143000D01*
X94810D01*
G01X96910D02*
X97000Y143610D01*
X97130Y144120D01*
X97300Y144590D01*
X97520Y145100D01*
X97870Y145800D01*
X96130D01*
G01X91500Y175420D02*
X91760Y175190D01*
X92060Y175050D01*
X92450Y175000D01*
X92840Y175090D01*
X93140Y175280D01*
X93360Y175610D01*
X93400Y175980D01*
X93320Y176350D01*
X93100Y176590D01*
X92800Y176770D01*
X92490Y176820D01*
X92190Y176770D01*
X91800Y176590D01*
X91930Y177800D01*
X93100D01*
G01X94470D02*
X95550Y175000D01*
X96630Y177800D01*
G01X93050Y159560D02*
X93310Y159230D01*
X93650Y159050D01*
X94040Y159000D01*
X94390Y159050D01*
X94740Y159280D01*
X94950Y159560D01*
X95000Y159840D01*
X94910Y160170D01*
X94610Y160400D01*
X94300Y160490D01*
X93910D01*
G01X94300D02*
X94560Y160630D01*
X94780Y160870D01*
X94870Y161150D01*
X94780Y161430D01*
X94560Y161660D01*
X94170Y161800D01*
X93780Y161750D01*
X93390Y161570D01*
G01X105300Y7000D02*
X104950Y7050D01*
X104650Y7230D01*
X104390Y7510D01*
X104220Y7840D01*
X104130Y8210D01*
Y8590D01*
X104220Y8960D01*
X104390Y9290D01*
X104650Y9570D01*
X104950Y9750D01*
X105300Y9800D01*
X105650Y9750D01*
X105950Y9570D01*
X106210Y9290D01*
X106380Y8960D01*
X106470Y8590D01*
Y8210D01*
X106380Y7840D01*
X106210Y7510D01*
X105950Y7230D01*
X105650Y7050D01*
X105300Y7000D01*
G01X105650Y7750D02*
X106170Y7000D01*
G01X107450Y7560D02*
X107710Y7230D01*
X108050Y7050D01*
X108440Y7000D01*
X108790Y7050D01*
X109140Y7280D01*
X109350Y7560D01*
X109400Y7840D01*
X109310Y8170D01*
X109010Y8400D01*
X108700Y8490D01*
X108310D01*
G01X108700D02*
X108960Y8630D01*
X109180Y8870D01*
X109270Y9150D01*
X109180Y9430D01*
X108960Y9660D01*
X108570Y9800D01*
X108180Y9750D01*
X107790Y9570D01*
G01X101030Y49000D02*
Y51800D01*
X102120D01*
X102460Y51660D01*
X102680Y51470D01*
X102770Y51100D01*
X102680Y50730D01*
X102420Y50490D01*
X102120Y50350D01*
X101030D01*
G01X102120D02*
X102770Y49000D01*
G01X105000D02*
Y51800D01*
X104480Y51240D01*
G01Y49000D02*
X105520D01*
G01X107150Y49420D02*
X107410Y49190D01*
X107710Y49050D01*
X108100Y49000D01*
X108490Y49090D01*
X108790Y49280D01*
X109010Y49610D01*
X109050Y49980D01*
X108970Y50350D01*
X108750Y50590D01*
X108450Y50770D01*
X108140Y50820D01*
X107840Y50770D01*
X107450Y50590D01*
X107580Y51800D01*
X108750D01*
G01X113530Y49000D02*
Y51800D01*
X114620D01*
X114960Y51660D01*
X115180Y51470D01*
X115270Y51100D01*
X115180Y50730D01*
X114920Y50490D01*
X114620Y50350D01*
X113530D01*
G01X114620D02*
X115270Y49000D01*
G01X116550Y49560D02*
X116810Y49230D01*
X117150Y49050D01*
X117540Y49000D01*
X117890Y49050D01*
X118240Y49280D01*
X118450Y49560D01*
X118500Y49840D01*
X118410Y50170D01*
X118110Y50400D01*
X117800Y50490D01*
X117410D01*
G01X117800D02*
X118060Y50630D01*
X118280Y50870D01*
X118370Y51150D01*
X118280Y51430D01*
X118060Y51660D01*
X117670Y51800D01*
X117280Y51750D01*
X116890Y51570D01*
G01X119650Y49560D02*
X119910Y49230D01*
X120250Y49050D01*
X120640Y49000D01*
X120990Y49050D01*
X121340Y49280D01*
X121550Y49560D01*
X121600Y49840D01*
X121510Y50170D01*
X121210Y50400D01*
X120900Y50490D01*
X120510D01*
G01X120900D02*
X121160Y50630D01*
X121380Y50870D01*
X121470Y51150D01*
X121380Y51430D01*
X121160Y51660D01*
X120770Y51800D01*
X120380Y51750D01*
X119990Y51570D01*
G01X111030Y31500D02*
Y34300D01*
X112120D01*
X112460Y34160D01*
X112680Y33970D01*
X112770Y33600D01*
X112680Y33230D01*
X112420Y32990D01*
X112120Y32850D01*
X111030D01*
G01X112120D02*
X112770Y31500D01*
G01X115520D02*
Y34300D01*
X113920Y32290D01*
X116080D01*
G01X117150Y32060D02*
X117410Y31730D01*
X117750Y31550D01*
X118140Y31500D01*
X118490Y31550D01*
X118840Y31780D01*
X119050Y32060D01*
X119100Y32340D01*
X119010Y32670D01*
X118710Y32900D01*
X118400Y32990D01*
X118010D01*
G01X118400D02*
X118660Y33130D01*
X118880Y33370D01*
X118970Y33650D01*
X118880Y33930D01*
X118660Y34160D01*
X118270Y34300D01*
X117880Y34250D01*
X117490Y34070D01*
G01X118130Y44500D02*
Y47300D01*
X119220D01*
X119560Y47160D01*
X119780Y46970D01*
X119870Y46600D01*
X119780Y46230D01*
X119520Y45990D01*
X119220Y45850D01*
X118130D01*
G01X119220D02*
X119870Y44500D01*
G01X122620D02*
Y47300D01*
X121020Y45290D01*
X123180D01*
G01X124380Y45670D02*
X124680Y45990D01*
X124940Y46180D01*
X125290Y46270D01*
X125590Y46180D01*
X125810Y45990D01*
X125980Y45710D01*
X126020Y45390D01*
X125980Y45110D01*
X125810Y44830D01*
X125550Y44590D01*
X125240Y44500D01*
X124900Y44590D01*
X124590Y44870D01*
X124420Y45290D01*
X124380Y45760D01*
X124460Y46370D01*
X124590Y46690D01*
X124810Y47020D01*
X125110Y47250D01*
X125420Y47300D01*
X125720Y47210D01*
X125940Y46970D01*
G01X110530Y65500D02*
Y68300D01*
X111620D01*
X111960Y68160D01*
X112180Y67970D01*
X112270Y67600D01*
X112180Y67230D01*
X111920Y66990D01*
X111620Y66850D01*
X110530D01*
G01X111620D02*
X112270Y65500D01*
G01X113550Y66060D02*
X113810Y65730D01*
X114150Y65550D01*
X114540Y65500D01*
X114890Y65550D01*
X115240Y65780D01*
X115450Y66060D01*
X115500Y66340D01*
X115410Y66670D01*
X115110Y66900D01*
X114800Y66990D01*
X114410D01*
G01X114800D02*
X115060Y67130D01*
X115280Y67370D01*
X115370Y67650D01*
X115280Y67930D01*
X115060Y68160D01*
X114670Y68300D01*
X114280Y68250D01*
X113890Y68070D01*
G01X116780Y67830D02*
X117040Y68110D01*
X117340Y68250D01*
X117690Y68300D01*
X118120Y68210D01*
X118420Y67970D01*
X118510Y67690D01*
X118470Y67410D01*
X118290Y67180D01*
X117430Y66710D01*
X117040Y66390D01*
X116780Y65920D01*
X116690Y65500D01*
X118510D01*
G01X113530Y75500D02*
Y78300D01*
X114620D01*
X114960Y78160D01*
X115180Y77970D01*
X115270Y77600D01*
X115180Y77230D01*
X114920Y76990D01*
X114620Y76850D01*
X113530D01*
G01X114620D02*
X115270Y75500D01*
G01X116550Y76060D02*
X116810Y75730D01*
X117150Y75550D01*
X117540Y75500D01*
X117890Y75550D01*
X118240Y75780D01*
X118450Y76060D01*
X118500Y76340D01*
X118410Y76670D01*
X118110Y76900D01*
X117800Y76990D01*
X117410D01*
G01X117800D02*
X118060Y77130D01*
X118280Y77370D01*
X118370Y77650D01*
X118280Y77930D01*
X118060Y78160D01*
X117670Y78300D01*
X117280Y78250D01*
X116890Y78070D01*
G01X121120Y75500D02*
Y78300D01*
X119520Y76290D01*
X121680D01*
G01X101030Y75500D02*
Y78300D01*
X102120D01*
X102460Y78160D01*
X102680Y77970D01*
X102770Y77600D01*
X102680Y77230D01*
X102420Y76990D01*
X102120Y76850D01*
X101030D01*
G01X102120D02*
X102770Y75500D01*
G01X105000D02*
Y78300D01*
X104480Y77740D01*
G01Y75500D02*
X105520D01*
G01X108100D02*
Y78300D01*
X107580Y77740D01*
G01Y75500D02*
X108620D01*
G01X100030Y65500D02*
Y68300D01*
X101120D01*
X101460Y68160D01*
X101680Y67970D01*
X101770Y67600D01*
X101680Y67230D01*
X101420Y66990D01*
X101120Y66850D01*
X100030D01*
G01X101120D02*
X101770Y65500D01*
G01X104000D02*
Y68300D01*
X103480Y67740D01*
G01Y65500D02*
X104520D01*
G01X106280Y66670D02*
X106580Y66990D01*
X106840Y67180D01*
X107190Y67270D01*
X107490Y67180D01*
X107710Y66990D01*
X107880Y66710D01*
X107920Y66390D01*
X107880Y66110D01*
X107710Y65830D01*
X107450Y65590D01*
X107140Y65500D01*
X106800Y65590D01*
X106490Y65870D01*
X106320Y66290D01*
X106280Y66760D01*
X106360Y67370D01*
X106490Y67690D01*
X106710Y68020D01*
X107010Y68250D01*
X107320Y68300D01*
X107620Y68210D01*
X107840Y67970D01*
G01X102850Y107070D02*
X102590Y107210D01*
X102290Y107300D01*
X101940D01*
X101550Y107160D01*
X101250Y106930D01*
X101030Y106650D01*
X100860Y106180D01*
X100820Y105760D01*
X100900Y105340D01*
X101030Y105060D01*
X101290Y104780D01*
X101600Y104590D01*
X101900Y104500D01*
X102200D01*
X102510Y104590D01*
X102770Y104730D01*
X102980Y104920D01*
G01X105000Y104500D02*
Y107300D01*
X104480Y106740D01*
G01Y104500D02*
X105520D01*
G01X108100D02*
Y107300D01*
X107580Y106740D01*
G01Y104500D02*
X108620D01*
G01X110750Y83070D02*
X110490Y83210D01*
X110190Y83300D01*
X109840D01*
X109450Y83160D01*
X109150Y82930D01*
X108930Y82650D01*
X108760Y82180D01*
X108720Y81760D01*
X108800Y81340D01*
X108930Y81060D01*
X109190Y80780D01*
X109500Y80590D01*
X109800Y80500D01*
X110100D01*
X110410Y80590D01*
X110670Y80730D01*
X110880Y80920D01*
G01X112900Y80500D02*
Y83300D01*
X112380Y82740D01*
G01Y80500D02*
X113420D01*
G01X115050Y80920D02*
X115310Y80690D01*
X115610Y80550D01*
X116000Y80500D01*
X116390Y80590D01*
X116690Y80780D01*
X116910Y81110D01*
X116950Y81480D01*
X116870Y81850D01*
X116650Y82090D01*
X116350Y82270D01*
X116040Y82320D01*
X115740Y82270D01*
X115350Y82090D01*
X115480Y83300D01*
X116650D01*
G01X123030Y104000D02*
Y106800D01*
X124120D01*
X124460Y106660D01*
X124680Y106470D01*
X124770Y106100D01*
X124680Y105730D01*
X124420Y105490D01*
X124120Y105350D01*
X123030D01*
G01X124120D02*
X124770Y104000D01*
G01X127000D02*
Y106800D01*
X126480Y106240D01*
G01Y104000D02*
X127520D01*
G01X129280Y106330D02*
X129540Y106610D01*
X129840Y106750D01*
X130190Y106800D01*
X130620Y106710D01*
X130920Y106470D01*
X131010Y106190D01*
X130970Y105910D01*
X130790Y105680D01*
X129930Y105210D01*
X129540Y104890D01*
X129280Y104420D01*
X129190Y104000D01*
X131010D01*
G01X112530D02*
Y106800D01*
X113620D01*
X113960Y106660D01*
X114180Y106470D01*
X114270Y106100D01*
X114180Y105730D01*
X113920Y105490D01*
X113620Y105350D01*
X112530D01*
G01X113620D02*
X114270Y104000D01*
G01X116500D02*
Y106800D01*
X115980Y106240D01*
G01Y104000D02*
X117020D01*
G01X120120D02*
Y106800D01*
X118520Y104790D01*
X120680D01*
G01X123850Y115070D02*
X123590Y115210D01*
X123290Y115300D01*
X122940D01*
X122550Y115160D01*
X122250Y114930D01*
X122030Y114650D01*
X121860Y114180D01*
X121820Y113760D01*
X121900Y113340D01*
X122030Y113060D01*
X122290Y112780D01*
X122600Y112590D01*
X122900Y112500D01*
X123200D01*
X123510Y112590D01*
X123770Y112730D01*
X123980Y112920D01*
G01X125180Y114830D02*
X125440Y115110D01*
X125740Y115250D01*
X126090Y115300D01*
X126520Y115210D01*
X126820Y114970D01*
X126910Y114690D01*
X126870Y114410D01*
X126690Y114180D01*
X125830Y113710D01*
X125440Y113390D01*
X125180Y112920D01*
X125090Y112500D01*
X126910D01*
G01X128280Y113670D02*
X128580Y113990D01*
X128840Y114180D01*
X129190Y114270D01*
X129490Y114180D01*
X129710Y113990D01*
X129880Y113710D01*
X129920Y113390D01*
X129880Y113110D01*
X129710Y112830D01*
X129450Y112590D01*
X129140Y112500D01*
X128800Y112590D01*
X128490Y112870D01*
X128320Y113290D01*
X128280Y113760D01*
X128360Y114370D01*
X128490Y114690D01*
X128710Y115020D01*
X129010Y115250D01*
X129320Y115300D01*
X129620Y115210D01*
X129840Y114970D01*
G01X110580Y115000D02*
Y117800D01*
X111670D01*
X112010Y117660D01*
X112230Y117470D01*
X112320Y117100D01*
X112230Y116730D01*
X111970Y116490D01*
X111670Y116350D01*
X110580D01*
G01X111670D02*
X112320Y115000D01*
G01X115070D02*
Y117800D01*
X113470Y115790D01*
X115630D01*
G01X118030Y119500D02*
Y122300D01*
X119120D01*
X119460Y122160D01*
X119680Y121970D01*
X119770Y121600D01*
X119680Y121230D01*
X119420Y120990D01*
X119120Y120850D01*
X118030D01*
G01X119120D02*
X119770Y119500D01*
G01X121050Y120060D02*
X121310Y119730D01*
X121650Y119550D01*
X122040Y119500D01*
X122390Y119550D01*
X122740Y119780D01*
X122950Y120060D01*
X123000Y120340D01*
X122910Y120670D01*
X122610Y120900D01*
X122300Y120990D01*
X121910D01*
G01X122300D02*
X122560Y121130D01*
X122780Y121370D01*
X122870Y121650D01*
X122780Y121930D01*
X122560Y122160D01*
X122170Y122300D01*
X121780Y122250D01*
X121390Y122070D01*
G01X124150Y119920D02*
X124410Y119690D01*
X124710Y119550D01*
X125100Y119500D01*
X125490Y119590D01*
X125790Y119780D01*
X126010Y120110D01*
X126050Y120480D01*
X125970Y120850D01*
X125750Y121090D01*
X125450Y121270D01*
X125140Y121320D01*
X124840Y121270D01*
X124450Y121090D01*
X124580Y122300D01*
X125750D01*
G01X100300D02*
Y119500D01*
G01X99300Y122300D02*
X101300D01*
G01X102320D02*
X103400Y119500D01*
X104480Y122300D01*
G01X105590Y119870D02*
X105940Y119640D01*
X106330Y119500D01*
X106670D01*
X107020Y119640D01*
X107280Y119870D01*
X107410Y120200D01*
X107320Y120530D01*
X107110Y120810D01*
X106720Y120990D01*
X106200Y121090D01*
X105890Y121270D01*
X105760Y121600D01*
X105850Y121930D01*
X106070Y122160D01*
X106370Y122300D01*
X106670D01*
X106980Y122210D01*
X107240Y121970D01*
G01X108780Y121830D02*
X109040Y122110D01*
X109340Y122250D01*
X109690Y122300D01*
X110120Y122210D01*
X110420Y121970D01*
X110510Y121690D01*
X110470Y121410D01*
X110290Y121180D01*
X109430Y120710D01*
X109040Y120390D01*
X108780Y119920D01*
X108690Y119500D01*
X110510D01*
G01X107750Y152070D02*
X107490Y152210D01*
X107190Y152300D01*
X106840D01*
X106450Y152160D01*
X106150Y151930D01*
X105930Y151650D01*
X105760Y151180D01*
X105720Y150760D01*
X105800Y150340D01*
X105930Y150060D01*
X106190Y149780D01*
X106500Y149590D01*
X106800Y149500D01*
X107100D01*
X107410Y149590D01*
X107670Y149730D01*
X107880Y149920D01*
G01X109080Y150670D02*
X109380Y150990D01*
X109640Y151180D01*
X109990Y151270D01*
X110290Y151180D01*
X110510Y150990D01*
X110680Y150710D01*
X110720Y150390D01*
X110680Y150110D01*
X110510Y149830D01*
X110250Y149590D01*
X109940Y149500D01*
X109600Y149590D01*
X109290Y149870D01*
X109120Y150290D01*
X109080Y150760D01*
X109160Y151370D01*
X109290Y151690D01*
X109510Y152020D01*
X109810Y152250D01*
X110120Y152300D01*
X110420Y152210D01*
X110640Y151970D01*
G01X114530Y149000D02*
Y151800D01*
X115620D01*
X115960Y151660D01*
X116180Y151470D01*
X116270Y151100D01*
X116180Y150730D01*
X115920Y150490D01*
X115620Y150350D01*
X114530D01*
G01X115620D02*
X116270Y149000D01*
G01X117550Y149560D02*
X117810Y149230D01*
X118150Y149050D01*
X118540Y149000D01*
X118890Y149050D01*
X119240Y149280D01*
X119450Y149560D01*
X119500Y149840D01*
X119410Y150170D01*
X119110Y150400D01*
X118800Y150490D01*
X118410D01*
G01X118800D02*
X119060Y150630D01*
X119280Y150870D01*
X119370Y151150D01*
X119280Y151430D01*
X119060Y151660D01*
X118670Y151800D01*
X118280Y151750D01*
X117890Y151570D01*
G01X120780Y150170D02*
X121080Y150490D01*
X121340Y150680D01*
X121690Y150770D01*
X121990Y150680D01*
X122210Y150490D01*
X122380Y150210D01*
X122420Y149890D01*
X122380Y149610D01*
X122210Y149330D01*
X121950Y149090D01*
X121640Y149000D01*
X121300Y149090D01*
X120990Y149370D01*
X120820Y149790D01*
X120780Y150260D01*
X120860Y150870D01*
X120990Y151190D01*
X121210Y151520D01*
X121510Y151750D01*
X121820Y151800D01*
X122120Y151710D01*
X122340Y151470D01*
G01X108580Y165560D02*
X108800Y165280D01*
X109060Y165090D01*
X109360Y165000D01*
X109710Y165090D01*
X109970Y165280D01*
X110230Y165560D01*
X110320Y165930D01*
Y167800D01*
G01X111810Y165330D02*
X112120Y165090D01*
X112460Y165000D01*
X112810Y165090D01*
X113110Y165370D01*
X113330Y165790D01*
X113420Y166210D01*
Y166730D01*
X113330Y167150D01*
X113110Y167520D01*
X112850Y167710D01*
X112550Y167800D01*
X112200Y167710D01*
X111940Y167520D01*
X111770Y167240D01*
X111680Y166870D01*
X111770Y166540D01*
X111990Y166210D01*
X112250Y166030D01*
X112550Y165980D01*
X112900Y166070D01*
X113160Y166310D01*
X113420Y166730D01*
G01X141000Y10000D02*
Y12800D01*
X141860D01*
X142210Y12660D01*
X142470Y12470D01*
X142690Y12190D01*
X142860Y11870D01*
X142900Y11400D01*
X142860Y10930D01*
X142690Y10610D01*
X142470Y10330D01*
X142210Y10140D01*
X141860Y10000D01*
X141000D01*
G01X145570D02*
Y12800D01*
X143970Y10790D01*
X146130D01*
G01X126300Y7000D02*
X125950Y7050D01*
X125650Y7230D01*
X125390Y7510D01*
X125220Y7840D01*
X125130Y8210D01*
Y8590D01*
X125220Y8960D01*
X125390Y9290D01*
X125650Y9570D01*
X125950Y9750D01*
X126300Y9800D01*
X126650Y9750D01*
X126950Y9570D01*
X127210Y9290D01*
X127380Y8960D01*
X127470Y8590D01*
Y8210D01*
X127380Y7840D01*
X127210Y7510D01*
X126950Y7230D01*
X126650Y7050D01*
X126300Y7000D01*
G01X126650Y7750D02*
X127170Y7000D01*
G01X129400D02*
Y9800D01*
X128880Y9240D01*
G01Y7000D02*
X129920D01*
G01X131300Y29300D02*
Y26500D01*
G01X130300Y29300D02*
X132300D01*
G01X133320D02*
X134400Y26500D01*
X135480Y29300D01*
G01X136590Y26870D02*
X136940Y26640D01*
X137330Y26500D01*
X137670D01*
X138020Y26640D01*
X138280Y26870D01*
X138410Y27200D01*
X138320Y27530D01*
X138110Y27810D01*
X137720Y27990D01*
X137200Y28090D01*
X136890Y28270D01*
X136760Y28600D01*
X136850Y28930D01*
X137070Y29160D01*
X137370Y29300D01*
X137670D01*
X137980Y29210D01*
X138240Y28970D01*
G01X139650Y27060D02*
X139910Y26730D01*
X140250Y26550D01*
X140640Y26500D01*
X140990Y26550D01*
X141340Y26780D01*
X141550Y27060D01*
X141600Y27340D01*
X141510Y27670D01*
X141210Y27900D01*
X140900Y27990D01*
X140510D01*
G01X140900D02*
X141160Y28130D01*
X141380Y28370D01*
X141470Y28650D01*
X141380Y28930D01*
X141160Y29160D01*
X140770Y29300D01*
X140380Y29250D01*
X139990Y29070D01*
G01X149300Y22300D02*
Y19500D01*
G01X148300Y22300D02*
X150300D01*
G01X151320D02*
X152400Y19500D01*
X153480Y22300D01*
G01X154590Y19870D02*
X154940Y19640D01*
X155330Y19500D01*
X155670D01*
X156020Y19640D01*
X156280Y19870D01*
X156410Y20200D01*
X156320Y20530D01*
X156110Y20810D01*
X155720Y20990D01*
X155200Y21090D01*
X154890Y21270D01*
X154760Y21600D01*
X154850Y21930D01*
X155070Y22160D01*
X155370Y22300D01*
X155670D01*
X155980Y22210D01*
X156240Y21970D01*
G01X159120Y19500D02*
Y22300D01*
X157520Y20290D01*
X159680D01*
G01X148500Y45060D02*
X148760Y44730D01*
X149100Y44550D01*
X149490Y44500D01*
X149840Y44550D01*
X150190Y44780D01*
X150400Y45060D01*
X150450Y45340D01*
X150360Y45670D01*
X150060Y45900D01*
X149750Y45990D01*
X149360D01*
G01X149750D02*
X150010Y46130D01*
X150230Y46370D01*
X150320Y46650D01*
X150230Y46930D01*
X150010Y47160D01*
X149620Y47300D01*
X149230Y47250D01*
X148840Y47070D01*
G01X151600Y45060D02*
X151860Y44730D01*
X152200Y44550D01*
X152590Y44500D01*
X152940Y44550D01*
X153290Y44780D01*
X153500Y45060D01*
X153550Y45340D01*
X153460Y45670D01*
X153160Y45900D01*
X152850Y45990D01*
X152460D01*
G01X152850D02*
X153110Y46130D01*
X153330Y46370D01*
X153420Y46650D01*
X153330Y46930D01*
X153110Y47160D01*
X152720Y47300D01*
X152330Y47250D01*
X151940Y47070D01*
G01X133400Y42570D02*
X133140Y42710D01*
X132840Y42800D01*
X132490D01*
X132100Y42660D01*
X131800Y42430D01*
X131580Y42150D01*
X131410Y41680D01*
X131370Y41260D01*
X131450Y40840D01*
X131580Y40560D01*
X131840Y40280D01*
X132150Y40090D01*
X132450Y40000D01*
X132750D01*
X133060Y40090D01*
X133320Y40230D01*
X133530Y40420D01*
G01X134600D02*
X134860Y40190D01*
X135160Y40050D01*
X135550Y40000D01*
X135940Y40090D01*
X136240Y40280D01*
X136460Y40610D01*
X136500Y40980D01*
X136420Y41350D01*
X136200Y41590D01*
X135900Y41770D01*
X135590Y41820D01*
X135290Y41770D01*
X134900Y41590D01*
X135030Y42800D01*
X136200D01*
G01X147400Y38070D02*
X147140Y38210D01*
X146840Y38300D01*
X146490D01*
X146100Y38160D01*
X145800Y37930D01*
X145580Y37650D01*
X145410Y37180D01*
X145370Y36760D01*
X145450Y36340D01*
X145580Y36060D01*
X145840Y35780D01*
X146150Y35590D01*
X146450Y35500D01*
X146750D01*
X147060Y35590D01*
X147320Y35730D01*
X147530Y35920D01*
G01X148600Y36060D02*
X148860Y35730D01*
X149200Y35550D01*
X149590Y35500D01*
X149940Y35550D01*
X150290Y35780D01*
X150500Y36060D01*
X150550Y36340D01*
X150460Y36670D01*
X150160Y36900D01*
X149850Y36990D01*
X149460D01*
G01X149850D02*
X150110Y37130D01*
X150330Y37370D01*
X150420Y37650D01*
X150330Y37930D01*
X150110Y38160D01*
X149720Y38300D01*
X149330Y38250D01*
X148940Y38070D01*
G01X139750Y76570D02*
X139490Y76710D01*
X139190Y76800D01*
X138840D01*
X138450Y76660D01*
X138150Y76430D01*
X137930Y76150D01*
X137760Y75680D01*
X137720Y75260D01*
X137800Y74840D01*
X137930Y74560D01*
X138190Y74280D01*
X138500Y74090D01*
X138800Y74000D01*
X139100D01*
X139410Y74090D01*
X139670Y74230D01*
X139880Y74420D01*
G01X141160Y74330D02*
X141470Y74090D01*
X141810Y74000D01*
X142160Y74090D01*
X142460Y74370D01*
X142680Y74790D01*
X142770Y75210D01*
Y75730D01*
X142680Y76150D01*
X142460Y76520D01*
X142200Y76710D01*
X141900Y76800D01*
X141550Y76710D01*
X141290Y76520D01*
X141120Y76240D01*
X141030Y75870D01*
X141120Y75540D01*
X141340Y75210D01*
X141600Y75030D01*
X141900Y74980D01*
X142250Y75070D01*
X142510Y75310D01*
X142770Y75730D01*
G01X134530Y55500D02*
Y58300D01*
X135620D01*
X135960Y58160D01*
X136180Y57970D01*
X136270Y57600D01*
X136180Y57230D01*
X135920Y56990D01*
X135620Y56850D01*
X134530D01*
G01X135620D02*
X136270Y55500D01*
G01X138500D02*
Y58300D01*
X137980Y57740D01*
G01Y55500D02*
X139020D01*
G01X141600Y58300D02*
X141250Y58210D01*
X140990Y57970D01*
X140820Y57690D01*
X140690Y57320D01*
X140650Y56900D01*
X140690Y56480D01*
X140820Y56110D01*
X140990Y55830D01*
X141250Y55590D01*
X141600Y55500D01*
X141950Y55590D01*
X142210Y55830D01*
X142380Y56110D01*
X142510Y56480D01*
X142550Y56900D01*
X142510Y57320D01*
X142380Y57690D01*
X142210Y57970D01*
X141950Y58210D01*
X141600Y58300D01*
G01X135300Y91570D02*
X135040Y91710D01*
X134740Y91800D01*
X134390D01*
X134000Y91660D01*
X133700Y91430D01*
X133480Y91150D01*
X133310Y90680D01*
X133270Y90260D01*
X133350Y89840D01*
X133480Y89560D01*
X133740Y89280D01*
X134050Y89090D01*
X134350Y89000D01*
X134650D01*
X134960Y89090D01*
X135220Y89230D01*
X135430Y89420D01*
G01X136320Y89000D02*
Y91800D01*
X137450Y89470D01*
X138580Y91800D01*
Y89000D01*
G01X140550D02*
X140200Y89050D01*
X139900Y89230D01*
X139640Y89510D01*
X139470Y89840D01*
X139380Y90210D01*
Y90590D01*
X139470Y90960D01*
X139640Y91290D01*
X139900Y91570D01*
X140200Y91750D01*
X140550Y91800D01*
X140900Y91750D01*
X141200Y91570D01*
X141460Y91290D01*
X141630Y90960D01*
X141720Y90590D01*
Y90210D01*
X141630Y89840D01*
X141460Y89510D01*
X141200Y89230D01*
X140900Y89050D01*
X140550Y89000D01*
G01X142700D02*
Y91800D01*
X143560D01*
X143910Y91660D01*
X144170Y91470D01*
X144390Y91190D01*
X144560Y90870D01*
X144600Y90400D01*
X144560Y89930D01*
X144390Y89610D01*
X144170Y89330D01*
X143910Y89140D01*
X143560Y89000D01*
X142700D01*
G01X135250Y87570D02*
X134990Y87710D01*
X134690Y87800D01*
X134340D01*
X133950Y87660D01*
X133650Y87430D01*
X133430Y87150D01*
X133260Y86680D01*
X133220Y86260D01*
X133300Y85840D01*
X133430Y85560D01*
X133690Y85280D01*
X134000Y85090D01*
X134300Y85000D01*
X134600D01*
X134910Y85090D01*
X135170Y85230D01*
X135380Y85420D01*
G01X137400Y87800D02*
Y85000D01*
G01X136400Y87800D02*
X138400D01*
G01X139420Y85000D02*
X140500Y87800D01*
X141580Y85000D01*
G01X141190Y85980D02*
X139810D01*
G01X142600Y85000D02*
Y87800D01*
X144600Y85000D01*
Y87800D01*
G01X145750Y85000D02*
Y87800D01*
G01X147390D02*
X145750Y86070D01*
G01X147650Y85000D02*
X146480Y86870D01*
G01X140250Y104070D02*
X139990Y104210D01*
X139690Y104300D01*
X139340D01*
X138950Y104160D01*
X138650Y103930D01*
X138430Y103650D01*
X138260Y103180D01*
X138220Y102760D01*
X138300Y102340D01*
X138430Y102060D01*
X138690Y101780D01*
X139000Y101590D01*
X139300Y101500D01*
X139600D01*
X139910Y101590D01*
X140170Y101730D01*
X140380Y101920D01*
G01X142400Y101500D02*
Y104300D01*
X141880Y103740D01*
G01Y101500D02*
X142920D01*
G01X127450Y154000D02*
Y156800D01*
X128310D01*
X128660Y156660D01*
X128920Y156470D01*
X129140Y156190D01*
X129310Y155870D01*
X129350Y155400D01*
X129310Y154930D01*
X129140Y154610D01*
X128920Y154330D01*
X128660Y154140D01*
X128310Y154000D01*
X127450D01*
G01X131500D02*
Y156800D01*
X130980Y156240D01*
G01Y154000D02*
X132020D01*
G01X133780Y156330D02*
X134040Y156610D01*
X134340Y156750D01*
X134690Y156800D01*
X135120Y156710D01*
X135420Y156470D01*
X135510Y156190D01*
X135470Y155910D01*
X135290Y155680D01*
X134430Y155210D01*
X134040Y154890D01*
X133780Y154420D01*
X133690Y154000D01*
X135510D01*
G01X123400Y175560D02*
X123660Y175230D01*
X124000Y175050D01*
X124390Y175000D01*
X124740Y175050D01*
X125090Y175280D01*
X125300Y175560D01*
X125350Y175840D01*
X125260Y176170D01*
X124960Y176400D01*
X124650Y176490D01*
X124260D01*
G01X124650D02*
X124910Y176630D01*
X125130Y176870D01*
X125220Y177150D01*
X125130Y177430D01*
X124910Y177660D01*
X124520Y177800D01*
X124130Y177750D01*
X123740Y177570D01*
G01X127450Y174910D02*
X127360Y174950D01*
Y175050D01*
X127450Y175090D01*
X127540Y175050D01*
Y174950D01*
X127450Y174910D01*
G01X129600Y175560D02*
X129860Y175230D01*
X130200Y175050D01*
X130590Y175000D01*
X130940Y175050D01*
X131290Y175280D01*
X131500Y175560D01*
X131550Y175840D01*
X131460Y176170D01*
X131160Y176400D01*
X130850Y176490D01*
X130460D01*
G01X130850D02*
X131110Y176630D01*
X131330Y176870D01*
X131420Y177150D01*
X131330Y177430D01*
X131110Y177660D01*
X130720Y177800D01*
X130330Y177750D01*
X129940Y177570D01*
G01X132570Y177800D02*
X133650Y175000D01*
X134730Y177800D01*
G01X128000Y159000D02*
Y161800D01*
X127480Y161240D01*
G01Y159000D02*
X128520D01*
G01X148430Y173560D02*
X148650Y173280D01*
X148910Y173090D01*
X149210Y173000D01*
X149560Y173090D01*
X149820Y173280D01*
X150080Y173560D01*
X150170Y173930D01*
Y175800D01*
G01X151450Y173560D02*
X151710Y173230D01*
X152050Y173050D01*
X152440Y173000D01*
X152790Y173050D01*
X153140Y173280D01*
X153350Y173560D01*
X153400Y173840D01*
X153310Y174170D01*
X153010Y174400D01*
X152700Y174490D01*
X152310D01*
G01X152700D02*
X152960Y174630D01*
X153180Y174870D01*
X153270Y175150D01*
X153180Y175430D01*
X152960Y175660D01*
X152570Y175800D01*
X152180Y175750D01*
X151790Y175570D01*
G01X174500Y-10000D02*
Y-7200D01*
X173980Y-7760D01*
G01Y-10000D02*
X175020D01*
G01X174800Y-5000D02*
Y-2200D01*
X174280Y-2760D01*
G01Y-5000D02*
X175320D01*
G01X162430Y3560D02*
X162650Y3280D01*
X162910Y3090D01*
X163210Y3000D01*
X163560Y3090D01*
X163820Y3280D01*
X164080Y3560D01*
X164170Y3930D01*
Y5800D01*
G01X166400Y3000D02*
Y5800D01*
X165880Y5240D01*
G01Y3000D02*
X166920D01*
G01X162530Y16500D02*
Y19300D01*
X163620D01*
X163960Y19160D01*
X164180Y18970D01*
X164270Y18600D01*
X164180Y18230D01*
X163920Y17990D01*
X163620Y17850D01*
X162530D01*
G01X163620D02*
X164270Y16500D01*
G01X166500D02*
Y19300D01*
X165980Y18740D01*
G01Y16500D02*
X167020D01*
G01X169510D02*
X169600Y17110D01*
X169730Y17620D01*
X169900Y18090D01*
X170120Y18600D01*
X170470Y19300D01*
X168730D01*
G01X168530Y12500D02*
Y15300D01*
X169620D01*
X169960Y15160D01*
X170180Y14970D01*
X170270Y14600D01*
X170180Y14230D01*
X169920Y13990D01*
X169620Y13850D01*
X168530D01*
G01X169620D02*
X170270Y12500D01*
G01X172500D02*
Y15300D01*
X171980Y14740D01*
G01Y12500D02*
X173020D01*
G01X175600D02*
X175900Y12550D01*
X176250Y12690D01*
X176470Y12920D01*
X176550Y13250D01*
X176470Y13570D01*
X176210Y13850D01*
X175820Y13990D01*
X175380D01*
X175120Y14090D01*
X174910Y14320D01*
X174820Y14650D01*
X174950Y14970D01*
X175250Y15210D01*
X175600Y15300D01*
X175950Y15210D01*
X176250Y14970D01*
X176380Y14650D01*
X176290Y14320D01*
X176080Y14090D01*
X175820Y13990D01*
X175380D01*
X174990Y13850D01*
X174730Y13570D01*
X174650Y13250D01*
X174730Y12920D01*
X174950Y12690D01*
X175300Y12550D01*
X175600Y12500D01*
G01X174530Y16500D02*
Y19300D01*
X175620D01*
X175960Y19160D01*
X176180Y18970D01*
X176270Y18600D01*
X176180Y18230D01*
X175920Y17990D01*
X175620Y17850D01*
X174530D01*
G01X175620D02*
X176270Y16500D01*
G01X178500D02*
Y19300D01*
X177980Y18740D01*
G01Y16500D02*
X179020D01*
G01X180860Y16830D02*
X181170Y16590D01*
X181510Y16500D01*
X181860Y16590D01*
X182160Y16870D01*
X182380Y17290D01*
X182470Y17710D01*
Y18230D01*
X182380Y18650D01*
X182160Y19020D01*
X181900Y19210D01*
X181600Y19300D01*
X181250Y19210D01*
X180990Y19020D01*
X180820Y18740D01*
X180730Y18370D01*
X180820Y18040D01*
X181040Y17710D01*
X181300Y17530D01*
X181600Y17480D01*
X181950Y17570D01*
X182210Y17810D01*
X182470Y18230D01*
G01X173380Y7330D02*
X173640Y7610D01*
X173940Y7750D01*
X174290Y7800D01*
X174720Y7710D01*
X175020Y7470D01*
X175110Y7190D01*
X175070Y6910D01*
X174890Y6680D01*
X174030Y6210D01*
X173640Y5890D01*
X173380Y5420D01*
X173290Y5000D01*
X175110D01*
G01X167580Y8560D02*
X167800Y8280D01*
X168060Y8090D01*
X168360Y8000D01*
X168710Y8090D01*
X168970Y8280D01*
X169230Y8560D01*
X169320Y8930D01*
Y10800D01*
G01X170730Y10330D02*
X170990Y10610D01*
X171290Y10750D01*
X171640Y10800D01*
X172070Y10710D01*
X172370Y10470D01*
X172460Y10190D01*
X172420Y9910D01*
X172240Y9680D01*
X171380Y9210D01*
X170990Y8890D01*
X170730Y8420D01*
X170640Y8000D01*
X172460D01*
G01X154750Y38070D02*
X154490Y38210D01*
X154190Y38300D01*
X153840D01*
X153450Y38160D01*
X153150Y37930D01*
X152930Y37650D01*
X152760Y37180D01*
X152720Y36760D01*
X152800Y36340D01*
X152930Y36060D01*
X153190Y35780D01*
X153500Y35590D01*
X153800Y35500D01*
X154100D01*
X154410Y35590D01*
X154670Y35730D01*
X154880Y35920D01*
G01X156080Y37830D02*
X156340Y38110D01*
X156640Y38250D01*
X156990Y38300D01*
X157420Y38210D01*
X157720Y37970D01*
X157810Y37690D01*
X157770Y37410D01*
X157590Y37180D01*
X156730Y36710D01*
X156340Y36390D01*
X156080Y35920D01*
X155990Y35500D01*
X157810D01*
G01X152130Y88330D02*
X152390Y88610D01*
X152690Y88750D01*
X153040Y88800D01*
X153470Y88710D01*
X153770Y88470D01*
X153860Y88190D01*
X153820Y87910D01*
X153640Y87680D01*
X152780Y87210D01*
X152390Y86890D01*
X152130Y86420D01*
X152040Y86000D01*
X153860D01*
G01X155230Y88330D02*
X155490Y88610D01*
X155790Y88750D01*
X156140Y88800D01*
X156570Y88710D01*
X156870Y88470D01*
X156960Y88190D01*
X156920Y87910D01*
X156740Y87680D01*
X155880Y87210D01*
X155490Y86890D01*
X155230Y86420D01*
X155140Y86000D01*
X156960D01*
G01X171750Y110070D02*
X171490Y110210D01*
X171190Y110300D01*
X170840D01*
X170450Y110160D01*
X170150Y109930D01*
X169930Y109650D01*
X169760Y109180D01*
X169720Y108760D01*
X169800Y108340D01*
X169930Y108060D01*
X170190Y107780D01*
X170500Y107590D01*
X170800Y107500D01*
X171100D01*
X171410Y107590D01*
X171670Y107730D01*
X171880Y107920D01*
G01X173810Y107500D02*
X173900Y108110D01*
X174030Y108620D01*
X174200Y109090D01*
X174420Y109600D01*
X174770Y110300D01*
X173030D01*
G01X149080Y107000D02*
Y109800D01*
X150170D01*
X150510Y109660D01*
X150730Y109470D01*
X150820Y109100D01*
X150730Y108730D01*
X150470Y108490D01*
X150170Y108350D01*
X149080D01*
G01X150170D02*
X150820Y107000D01*
G01X153050D02*
Y109800D01*
X152530Y109240D01*
G01Y107000D02*
X153570D01*
G01X172580Y120000D02*
Y122800D01*
X173670D01*
X174010Y122660D01*
X174230Y122470D01*
X174320Y122100D01*
X174230Y121730D01*
X173970Y121490D01*
X173670Y121350D01*
X172580D01*
G01X173670D02*
X174320Y120000D01*
G01X175730Y122330D02*
X175990Y122610D01*
X176290Y122750D01*
X176640Y122800D01*
X177070Y122710D01*
X177370Y122470D01*
X177460Y122190D01*
X177420Y121910D01*
X177240Y121680D01*
X176380Y121210D01*
X175990Y120890D01*
X175730Y120420D01*
X175640Y120000D01*
X177460D01*
G01X163080Y107500D02*
Y110300D01*
X164170D01*
X164510Y110160D01*
X164730Y109970D01*
X164820Y109600D01*
X164730Y109230D01*
X164470Y108990D01*
X164170Y108850D01*
X163080D01*
G01X164170D02*
X164820Y107500D01*
G01X166310Y107830D02*
X166620Y107590D01*
X166960Y107500D01*
X167310Y107590D01*
X167610Y107870D01*
X167830Y108290D01*
X167920Y108710D01*
Y109230D01*
X167830Y109650D01*
X167610Y110020D01*
X167350Y110210D01*
X167050Y110300D01*
X166700Y110210D01*
X166440Y110020D01*
X166270Y109740D01*
X166180Y109370D01*
X166270Y109040D01*
X166490Y108710D01*
X166750Y108530D01*
X167050Y108480D01*
X167400Y108570D01*
X167660Y108810D01*
X167920Y109230D01*
G01X155080Y105000D02*
Y107800D01*
X156170D01*
X156510Y107660D01*
X156730Y107470D01*
X156820Y107100D01*
X156730Y106730D01*
X156470Y106490D01*
X156170Y106350D01*
X155080D01*
G01X156170D02*
X156820Y105000D01*
G01X159050D02*
X159350Y105050D01*
X159700Y105190D01*
X159920Y105420D01*
X160000Y105750D01*
X159920Y106070D01*
X159660Y106350D01*
X159270Y106490D01*
X158830D01*
X158570Y106590D01*
X158360Y106820D01*
X158270Y107150D01*
X158400Y107470D01*
X158700Y107710D01*
X159050Y107800D01*
X159400Y107710D01*
X159700Y107470D01*
X159830Y107150D01*
X159740Y106820D01*
X159530Y106590D01*
X159270Y106490D01*
X158830D01*
X158440Y106350D01*
X158180Y106070D01*
X158100Y105750D01*
X158180Y105420D01*
X158400Y105190D01*
X158750Y105050D01*
X159050Y105000D01*
G01X163950Y113000D02*
Y115800D01*
X164810D01*
X165160Y115660D01*
X165420Y115470D01*
X165640Y115190D01*
X165810Y114870D01*
X165850Y114400D01*
X165810Y113930D01*
X165640Y113610D01*
X165420Y113330D01*
X165160Y113140D01*
X164810Y113000D01*
X163950D01*
G01X168000D02*
Y115800D01*
X167480Y115240D01*
G01Y113000D02*
X168520D01*
G01X170150Y113560D02*
X170410Y113230D01*
X170750Y113050D01*
X171140Y113000D01*
X171490Y113050D01*
X171840Y113280D01*
X172050Y113560D01*
X172100Y113840D01*
X172010Y114170D01*
X171710Y114400D01*
X171400Y114490D01*
X171010D01*
G01X171400D02*
X171660Y114630D01*
X171880Y114870D01*
X171970Y115150D01*
X171880Y115430D01*
X171660Y115660D01*
X171270Y115800D01*
X170880Y115750D01*
X170490Y115570D01*
G01X165000Y151500D02*
Y154300D01*
X165860D01*
X166210Y154160D01*
X166470Y153970D01*
X166690Y153690D01*
X166860Y153370D01*
X166900Y152900D01*
X166860Y152430D01*
X166690Y152110D01*
X166470Y151830D01*
X166210Y151640D01*
X165860Y151500D01*
X165000D01*
G01X169050D02*
Y154300D01*
X168530Y153740D01*
G01Y151500D02*
X169570D01*
G01X165000Y176000D02*
X165300Y176050D01*
X165650Y176190D01*
X165870Y176420D01*
X165950Y176750D01*
X165870Y177070D01*
X165610Y177350D01*
X165220Y177490D01*
X164780D01*
X164520Y177590D01*
X164310Y177820D01*
X164220Y178150D01*
X164350Y178470D01*
X164650Y178710D01*
X165000Y178800D01*
X165350Y178710D01*
X165650Y178470D01*
X165780Y178150D01*
X165690Y177820D01*
X165480Y177590D01*
X165220Y177490D01*
X164780D01*
X164390Y177350D01*
X164130Y177070D01*
X164050Y176750D01*
X164130Y176420D01*
X164350Y176190D01*
X164700Y176050D01*
X165000Y176000D01*
G01X157000Y178500D02*
Y181300D01*
X156480Y180740D01*
G01Y178500D02*
X157520D01*
G01X171950Y164000D02*
Y166800D01*
X172810D01*
X173160Y166660D01*
X173420Y166470D01*
X173640Y166190D01*
X173810Y165870D01*
X173850Y165400D01*
X173810Y164930D01*
X173640Y164610D01*
X173420Y164330D01*
X173160Y164140D01*
X172810Y164000D01*
X171950D01*
G01X176000D02*
Y166800D01*
X175480Y166240D01*
G01Y164000D02*
X176520D01*
G01X179100D02*
Y166800D01*
X178580Y166240D01*
G01Y164000D02*
X179620D01*
G01X151500Y169800D02*
Y167790D01*
X151670Y167370D01*
X152020Y167090D01*
X152450Y167000D01*
X152880Y167090D01*
X153230Y167370D01*
X153400Y167790D01*
Y169800D01*
G01X155550Y167000D02*
Y169800D01*
X155030Y169240D01*
G01Y167000D02*
X156070D01*
G01X180530Y12500D02*
Y15300D01*
X181620D01*
X181960Y15160D01*
X182180Y14970D01*
X182270Y14600D01*
X182180Y14230D01*
X181920Y13990D01*
X181620Y13850D01*
X180530D01*
G01X181620D02*
X182270Y12500D01*
G01X183680Y14830D02*
X183940Y15110D01*
X184240Y15250D01*
X184590Y15300D01*
X185020Y15210D01*
X185320Y14970D01*
X185410Y14690D01*
X185370Y14410D01*
X185190Y14180D01*
X184330Y13710D01*
X183940Y13390D01*
X183680Y12920D01*
X183590Y12500D01*
X185410D01*
G01X187600Y15300D02*
X187250Y15210D01*
X186990Y14970D01*
X186820Y14690D01*
X186690Y14320D01*
X186650Y13900D01*
X186690Y13480D01*
X186820Y13110D01*
X186990Y12830D01*
X187250Y12590D01*
X187600Y12500D01*
X187950Y12590D01*
X188210Y12830D01*
X188380Y13110D01*
X188510Y13480D01*
X188550Y13900D01*
X188510Y14320D01*
X188380Y14690D01*
X188210Y14970D01*
X187950Y15210D01*
X187600Y15300D01*
G01X187530Y16500D02*
Y19300D01*
X188620D01*
X188960Y19160D01*
X189180Y18970D01*
X189270Y18600D01*
X189180Y18230D01*
X188920Y17990D01*
X188620Y17850D01*
X187530D01*
G01X188620D02*
X189270Y16500D01*
G01X190680Y18830D02*
X190940Y19110D01*
X191240Y19250D01*
X191590Y19300D01*
X192020Y19210D01*
X192320Y18970D01*
X192410Y18690D01*
X192370Y18410D01*
X192190Y18180D01*
X191330Y17710D01*
X190940Y17390D01*
X190680Y16920D01*
X190590Y16500D01*
X192410D01*
G01X194600D02*
Y19300D01*
X194080Y18740D01*
G01Y16500D02*
X195120D01*
G01X191470Y35500D02*
Y38300D01*
X189870Y36290D01*
X192030D01*
G01X194570Y35500D02*
Y38300D01*
X192970Y36290D01*
X195130D01*
G01X178400Y110070D02*
X178140Y110210D01*
X177840Y110300D01*
X177490D01*
X177100Y110160D01*
X176800Y109930D01*
X176580Y109650D01*
X176410Y109180D01*
X176370Y108760D01*
X176450Y108340D01*
X176580Y108060D01*
X176840Y107780D01*
X177150Y107590D01*
X177450Y107500D01*
X177750D01*
X178060Y107590D01*
X178320Y107730D01*
X178530Y107920D01*
G01X180550Y107500D02*
X180850Y107550D01*
X181200Y107690D01*
X181420Y107920D01*
X181500Y108250D01*
X181420Y108570D01*
X181160Y108850D01*
X180770Y108990D01*
X180330D01*
X180070Y109090D01*
X179860Y109320D01*
X179770Y109650D01*
X179900Y109970D01*
X180200Y110210D01*
X180550Y110300D01*
X180900Y110210D01*
X181200Y109970D01*
X181330Y109650D01*
X181240Y109320D01*
X181030Y109090D01*
X180770Y108990D01*
X180330D01*
X179940Y108850D01*
X179680Y108570D01*
X179600Y108250D01*
X179680Y107920D01*
X179900Y107690D01*
X180250Y107550D01*
X180550Y107500D01*
G01X198430Y116000D02*
Y118800D01*
X199520D01*
X199860Y118660D01*
X200080Y118470D01*
X200170Y118100D01*
X200080Y117730D01*
X199820Y117490D01*
X199520Y117350D01*
X198430D01*
G01X199520D02*
X200170Y116000D01*
G01X201580Y117170D02*
X201880Y117490D01*
X202140Y117680D01*
X202490Y117770D01*
X202790Y117680D01*
X203010Y117490D01*
X203180Y117210D01*
X203220Y116890D01*
X203180Y116610D01*
X203010Y116330D01*
X202750Y116090D01*
X202440Y116000D01*
X202100Y116090D01*
X201790Y116370D01*
X201620Y116790D01*
X201580Y117260D01*
X201660Y117870D01*
X201790Y118190D01*
X202010Y118520D01*
X202310Y118750D01*
X202620Y118800D01*
X202920Y118710D01*
X203140Y118470D01*
G01X186750Y153570D02*
X186490Y153710D01*
X186190Y153800D01*
X185840D01*
X185450Y153660D01*
X185150Y153430D01*
X184930Y153150D01*
X184760Y152680D01*
X184720Y152260D01*
X184800Y151840D01*
X184930Y151560D01*
X185190Y151280D01*
X185500Y151090D01*
X185800Y151000D01*
X186100D01*
X186410Y151090D01*
X186670Y151230D01*
X186880Y151420D01*
G01X189420Y151000D02*
Y153800D01*
X187820Y151790D01*
X189980D01*
G01X198000Y147000D02*
Y149800D01*
X198860D01*
X199210Y149660D01*
X199470Y149470D01*
X199690Y149190D01*
X199860Y148870D01*
X199900Y148400D01*
X199860Y147930D01*
X199690Y147610D01*
X199470Y147330D01*
X199210Y147140D01*
X198860Y147000D01*
X198000D01*
G01X201230Y149330D02*
X201490Y149610D01*
X201790Y149750D01*
X202140Y149800D01*
X202570Y149710D01*
X202870Y149470D01*
X202960Y149190D01*
X202920Y148910D01*
X202740Y148680D01*
X201880Y148210D01*
X201490Y147890D01*
X201230Y147420D01*
X201140Y147000D01*
X202960D01*
G01X194270Y166800D02*
X195350Y164000D01*
X196430Y166800D01*
G01X197500Y164560D02*
X197760Y164230D01*
X198100Y164050D01*
X198490Y164000D01*
X198840Y164050D01*
X199190Y164280D01*
X199400Y164560D01*
X199450Y164840D01*
X199360Y165170D01*
X199060Y165400D01*
X198750Y165490D01*
X198360D01*
G01X198750D02*
X199010Y165630D01*
X199230Y165870D01*
X199320Y166150D01*
X199230Y166430D01*
X199010Y166660D01*
X198620Y166800D01*
X198230Y166750D01*
X197840Y166570D01*
G01X201550Y163910D02*
X201460Y163950D01*
Y164050D01*
X201550Y164090D01*
X201640Y164050D01*
Y163950D01*
X201550Y163910D01*
G01X203700Y164560D02*
X203960Y164230D01*
X204300Y164050D01*
X204690Y164000D01*
X205040Y164050D01*
X205390Y164280D01*
X205600Y164560D01*
X205650Y164840D01*
X205560Y165170D01*
X205260Y165400D01*
X204950Y165490D01*
X204560D01*
G01X204950D02*
X205210Y165630D01*
X205430Y165870D01*
X205520Y166150D01*
X205430Y166430D01*
X205210Y166660D01*
X204820Y166800D01*
X204430Y166750D01*
X204040Y166570D01*
G01X195400Y170800D02*
Y168000D01*
G01X194400Y170800D02*
X196400D01*
G01X197630Y168000D02*
Y170800D01*
X198670D01*
X199020Y170660D01*
X199280Y170330D01*
X199370Y169960D01*
X199280Y169590D01*
X199060Y169310D01*
X198670Y169170D01*
X197630D01*
G01X201600Y168000D02*
Y170800D01*
X201080Y170240D01*
G01Y168000D02*
X202120D01*
G01X202500Y49000D02*
Y51800D01*
X201980Y51240D01*
G01Y49000D02*
X203020D01*
G01X203350Y33070D02*
X203090Y33210D01*
X202790Y33300D01*
X202440D01*
X202050Y33160D01*
X201750Y32930D01*
X201530Y32650D01*
X201360Y32180D01*
X201320Y31760D01*
X201400Y31340D01*
X201530Y31060D01*
X201790Y30780D01*
X202100Y30590D01*
X202400Y30500D01*
X202700D01*
X203010Y30590D01*
X203270Y30730D01*
X203480Y30920D01*
G01X205500Y30500D02*
Y33300D01*
X204980Y32740D01*
G01Y30500D02*
X206020D01*
G01X208600Y33300D02*
X208250Y33210D01*
X207990Y32970D01*
X207820Y32690D01*
X207690Y32320D01*
X207650Y31900D01*
X207690Y31480D01*
X207820Y31110D01*
X207990Y30830D01*
X208250Y30590D01*
X208600Y30500D01*
X208950Y30590D01*
X209210Y30830D01*
X209380Y31110D01*
X209510Y31480D01*
X209550Y31900D01*
X209510Y32320D01*
X209380Y32690D01*
X209210Y32970D01*
X208950Y33210D01*
X208600Y33300D01*
G01X202150Y45800D02*
Y43790D01*
X202320Y43370D01*
X202670Y43090D01*
X203100Y43000D01*
X203530Y43090D01*
X203880Y43370D01*
X204050Y43790D01*
Y45800D01*
G01X205380Y45330D02*
X205640Y45610D01*
X205940Y45750D01*
X206290Y45800D01*
X206720Y45710D01*
X207020Y45470D01*
X207110Y45190D01*
X207070Y44910D01*
X206890Y44680D01*
X206030Y44210D01*
X205640Y43890D01*
X205380Y43420D01*
X205290Y43000D01*
X207110D01*
G01X202450Y81000D02*
Y83800D01*
X201930Y83240D01*
G01Y81000D02*
X202970D01*
G01X205550D02*
Y83800D01*
X205030Y83240D01*
G01Y81000D02*
X206070D01*
G01X223720Y125300D02*
X224800Y122500D01*
X225880Y125300D01*
G01X226950Y122500D02*
Y125300D01*
X227810D01*
X228160Y125160D01*
X228420Y124970D01*
X228640Y124690D01*
X228810Y124370D01*
X228850Y123900D01*
X228810Y123430D01*
X228640Y123110D01*
X228420Y122830D01*
X228160Y122640D01*
X227810Y122500D01*
X226950D01*
G01X230050D02*
Y125300D01*
X230910D01*
X231260Y125160D01*
X231520Y124970D01*
X231740Y124690D01*
X231910Y124370D01*
X231950Y123900D01*
X231910Y123430D01*
X231740Y123110D01*
X231520Y122830D01*
X231260Y122640D01*
X230910Y122500D01*
X230050D01*
G01X223930Y111500D02*
Y114300D01*
X224970D01*
X225320Y114160D01*
X225580Y113830D01*
X225670Y113460D01*
X225580Y113090D01*
X225360Y112810D01*
X224970Y112670D01*
X223930D01*
G01X228420Y111500D02*
Y114300D01*
X226820Y112290D01*
X228980D01*
G01X231000Y111410D02*
X230910Y111450D01*
Y111550D01*
X231000Y111590D01*
X231090Y111550D01*
Y111450D01*
X231000Y111410D01*
G01X233020Y114300D02*
X234100Y111500D01*
X235180Y114300D01*
G01X236250Y111500D02*
Y114300D01*
X237110D01*
X237460Y114160D01*
X237720Y113970D01*
X237940Y113690D01*
X238110Y113370D01*
X238150Y112900D01*
X238110Y112430D01*
X237940Y112110D01*
X237720Y111830D01*
X237460Y111640D01*
X237110Y111500D01*
X236250D01*
G01X239350D02*
Y114300D01*
X240210D01*
X240560Y114160D01*
X240820Y113970D01*
X241040Y113690D01*
X241210Y113370D01*
X241250Y112900D01*
X241210Y112430D01*
X241040Y112110D01*
X240820Y111830D01*
X240560Y111640D01*
X240210Y111500D01*
X239350D01*
G01X209980Y108830D02*
X210240Y109110D01*
X210540Y109250D01*
X210890Y109300D01*
X211320Y109210D01*
X211620Y108970D01*
X211710Y108690D01*
X211670Y108410D01*
X211490Y108180D01*
X210630Y107710D01*
X210240Y107390D01*
X209980Y106920D01*
X209890Y106500D01*
X211710D01*
G01X210800Y126000D02*
Y128800D01*
X210280Y128240D01*
G01Y126000D02*
X211320D01*
G01X212930Y129060D02*
X213150Y128780D01*
X213410Y128590D01*
X213710Y128500D01*
X214060Y128590D01*
X214320Y128780D01*
X214580Y129060D01*
X214670Y129430D01*
Y131300D01*
G01X216900Y128500D02*
Y131300D01*
X216380Y130740D01*
G01Y128500D02*
X217420D01*
G01X219050Y129060D02*
X219310Y128730D01*
X219650Y128550D01*
X220040Y128500D01*
X220390Y128550D01*
X220740Y128780D01*
X220950Y129060D01*
X221000Y129340D01*
X220910Y129670D01*
X220610Y129900D01*
X220300Y129990D01*
X219910D01*
G01X220300D02*
X220560Y130130D01*
X220780Y130370D01*
X220870Y130650D01*
X220780Y130930D01*
X220560Y131160D01*
X220170Y131300D01*
X219780Y131250D01*
X219390Y131070D01*
G01X205430Y143000D02*
Y145800D01*
X206520D01*
X206860Y145660D01*
X207080Y145470D01*
X207170Y145100D01*
X207080Y144730D01*
X206820Y144490D01*
X206520Y144350D01*
X205430D01*
G01X206520D02*
X207170Y143000D01*
G01X208580Y145330D02*
X208840Y145610D01*
X209140Y145750D01*
X209490Y145800D01*
X209920Y145710D01*
X210220Y145470D01*
X210310Y145190D01*
X210270Y144910D01*
X210090Y144680D01*
X209230Y144210D01*
X208840Y143890D01*
X208580Y143420D01*
X208490Y143000D01*
X210310D01*
G01X212500D02*
X212800Y143050D01*
X213150Y143190D01*
X213370Y143420D01*
X213450Y143750D01*
X213370Y144070D01*
X213110Y144350D01*
X212720Y144490D01*
X212280D01*
X212020Y144590D01*
X211810Y144820D01*
X211720Y145150D01*
X211850Y145470D01*
X212150Y145710D01*
X212500Y145800D01*
X212850Y145710D01*
X213150Y145470D01*
X213280Y145150D01*
X213190Y144820D01*
X212980Y144590D01*
X212720Y144490D01*
X212280D01*
X211890Y144350D01*
X211630Y144070D01*
X211550Y143750D01*
X211630Y143420D01*
X211850Y143190D01*
X212200Y143050D01*
X212500Y143000D01*
G01X221430Y138500D02*
Y141300D01*
X222520D01*
X222860Y141160D01*
X223080Y140970D01*
X223170Y140600D01*
X223080Y140230D01*
X222820Y139990D01*
X222520Y139850D01*
X221430D01*
G01X222520D02*
X223170Y138500D01*
G01X224580Y140830D02*
X224840Y141110D01*
X225140Y141250D01*
X225490Y141300D01*
X225920Y141210D01*
X226220Y140970D01*
X226310Y140690D01*
X226270Y140410D01*
X226090Y140180D01*
X225230Y139710D01*
X224840Y139390D01*
X224580Y138920D01*
X224490Y138500D01*
X226310D01*
G01X227760Y138830D02*
X228070Y138590D01*
X228410Y138500D01*
X228760Y138590D01*
X229060Y138870D01*
X229280Y139290D01*
X229370Y139710D01*
Y140230D01*
X229280Y140650D01*
X229060Y141020D01*
X228800Y141210D01*
X228500Y141300D01*
X228150Y141210D01*
X227890Y141020D01*
X227720Y140740D01*
X227630Y140370D01*
X227720Y140040D01*
X227940Y139710D01*
X228200Y139530D01*
X228500Y139480D01*
X228850Y139570D01*
X229110Y139810D01*
X229370Y140230D01*
G01X236030Y41000D02*
Y43800D01*
X237120D01*
X237460Y43660D01*
X237680Y43470D01*
X237770Y43100D01*
X237680Y42730D01*
X237420Y42490D01*
X237120Y42350D01*
X236030D01*
G01X237120D02*
X237770Y41000D01*
G01X240520D02*
Y43800D01*
X238920Y41790D01*
X241080D01*
G01X243620Y41000D02*
Y43800D01*
X242020Y41790D01*
X244180D01*
G01X236030Y34000D02*
Y36800D01*
X237120D01*
X237460Y36660D01*
X237680Y36470D01*
X237770Y36100D01*
X237680Y35730D01*
X237420Y35490D01*
X237120Y35350D01*
X236030D01*
G01X237120D02*
X237770Y34000D01*
G01X240520D02*
Y36800D01*
X238920Y34790D01*
X241080D01*
G01X242150Y34420D02*
X242410Y34190D01*
X242710Y34050D01*
X243100Y34000D01*
X243490Y34090D01*
X243790Y34280D01*
X244010Y34610D01*
X244050Y34980D01*
X243970Y35350D01*
X243750Y35590D01*
X243450Y35770D01*
X243140Y35820D01*
X242840Y35770D01*
X242450Y35590D01*
X242580Y36800D01*
X243750D01*
G01X234530Y76060D02*
X234750Y75780D01*
X235010Y75590D01*
X235310Y75500D01*
X235660Y75590D01*
X235920Y75780D01*
X236180Y76060D01*
X236270Y76430D01*
Y78300D01*
G01X238500Y75500D02*
Y78300D01*
X237980Y77740D01*
G01Y75500D02*
X239020D01*
G01X240780Y77830D02*
X241040Y78110D01*
X241340Y78250D01*
X241690Y78300D01*
X242120Y78210D01*
X242420Y77970D01*
X242510Y77690D01*
X242470Y77410D01*
X242290Y77180D01*
X241430Y76710D01*
X241040Y76390D01*
X240780Y75920D01*
X240690Y75500D01*
X242510D01*
G01X225850Y84920D02*
X226110Y84690D01*
X226410Y84550D01*
X226800Y84500D01*
X227190Y84590D01*
X227490Y84780D01*
X227710Y85110D01*
X227750Y85480D01*
X227670Y85850D01*
X227450Y86090D01*
X227150Y86270D01*
X226840Y86320D01*
X226540Y86270D01*
X226150Y86090D01*
X226280Y87300D01*
X227450D01*
G01X226800Y105000D02*
Y107800D01*
X226280Y107240D01*
G01Y105000D02*
X227320D01*
G01X238430Y147000D02*
Y149800D01*
X239520D01*
X239860Y149660D01*
X240080Y149470D01*
X240170Y149100D01*
X240080Y148730D01*
X239820Y148490D01*
X239520Y148350D01*
X238430D01*
G01X239520D02*
X240170Y147000D01*
G01X241450Y147560D02*
X241710Y147230D01*
X242050Y147050D01*
X242440Y147000D01*
X242790Y147050D01*
X243140Y147280D01*
X243350Y147560D01*
X243400Y147840D01*
X243310Y148170D01*
X243010Y148400D01*
X242700Y148490D01*
X242310D01*
G01X242700D02*
X242960Y148630D01*
X243180Y148870D01*
X243270Y149150D01*
X243180Y149430D01*
X242960Y149660D01*
X242570Y149800D01*
X242180Y149750D01*
X241790Y149570D01*
G01X245500Y149800D02*
X245150Y149710D01*
X244890Y149470D01*
X244720Y149190D01*
X244590Y148820D01*
X244550Y148400D01*
X244590Y147980D01*
X244720Y147610D01*
X244890Y147330D01*
X245150Y147090D01*
X245500Y147000D01*
X245850Y147090D01*
X246110Y147330D01*
X246280Y147610D01*
X246410Y147980D01*
X246450Y148400D01*
X246410Y148820D01*
X246280Y149190D01*
X246110Y149470D01*
X245850Y149710D01*
X245500Y149800D01*
G01X246430Y180560D02*
X246650Y180280D01*
X246910Y180090D01*
X247210Y180000D01*
X247560Y180090D01*
X247820Y180280D01*
X248080Y180560D01*
X248170Y180930D01*
Y182800D01*
G01X250920Y180000D02*
Y182800D01*
X249320Y180790D01*
X251480D01*
G01X241750Y178620D02*
X240650D01*
Y178530D01*
X239650D01*
Y177930D01*
X245750D01*
Y178730D01*
X241750D01*
Y178620D01*
G01X241850Y177930D02*
Y177620D01*
X248850D01*
Y178230D01*
X247950D01*
Y178430D01*
X246950D01*
Y178730D01*
X245750D01*
G01X239950Y177230D02*
X237050D01*
Y176630D01*
X239950D01*
Y177230D01*
G01Y176330D02*
Y177230D01*
X250650D01*
Y177020D01*
X250950D01*
Y176930D01*
X251250D01*
Y176330D01*
X239950D01*
G01X245350Y175330D02*
X249950D01*
X250350Y175030D01*
X252450D01*
Y175530D01*
X252150Y175930D01*
X245350D01*
G01X252050Y170620D02*
Y171220D01*
X251850Y171430D01*
X250450D01*
X250350Y171630D01*
X249750D01*
Y170620D01*
X252050D01*
G01X248350D02*
Y171220D01*
X247950Y171630D01*
X245550D01*
X245350Y171430D01*
Y170920D01*
X245550Y170620D01*
X248350D01*
G01X243950Y170730D02*
Y171220D01*
X243750Y171430D01*
X242950D01*
Y171220D01*
X241250D01*
Y171430D01*
X240450D01*
Y171630D01*
X237050D01*
Y170730D01*
X243950D01*
G01X242150Y173930D02*
Y174430D01*
X237950D01*
Y173530D01*
X240050D01*
Y173930D01*
X242150D01*
G01X247250Y163830D02*
X251550D01*
Y164130D01*
X251850D01*
Y164630D01*
X247550D01*
X247250Y164430D01*
Y163830D01*
G01X252850Y165120D02*
Y165430D01*
X252950D01*
Y166030D01*
X248250D01*
X247950Y165730D01*
Y165120D01*
X252850D01*
G01X253550Y166520D02*
Y166830D01*
X253750D01*
Y167430D01*
X250150D01*
X249950Y167230D01*
X248650D01*
Y166520D01*
X253550D01*
G01X249150Y169720D02*
Y169230D01*
X251050D01*
X251450Y169630D01*
Y170130D01*
X249650D01*
X249150Y169720D01*
G01X247950Y169230D02*
Y170130D01*
X246850D01*
Y169630D01*
X247250Y169230D01*
X247950D01*
G01X248850Y167930D02*
X249750D01*
X249950Y168120D01*
Y168720D01*
X248850D01*
Y167930D01*
G01X241750Y163330D02*
Y162530D01*
X244850D01*
X245150Y162830D01*
Y163330D01*
X237450D01*
Y162830D01*
X241750D01*
G01X240350Y162020D02*
Y161530D01*
X244250D01*
Y162020D01*
X240350D01*
G01X247550Y161530D02*
Y162020D01*
X246450D01*
Y161530D01*
X247550D01*
G01X246650Y162530D02*
X249550D01*
Y162830D01*
X250150D01*
Y163330D01*
X246950D01*
X246650Y163030D01*
Y162530D01*
G01X235650Y175930D02*
Y175330D01*
X238650D01*
Y174930D01*
X243950D01*
X244250Y175120D01*
X245150D01*
X245350Y175330D01*
Y175930D01*
X235650D01*
G01X237050Y171630D02*
X233550D01*
Y171030D01*
X237050D01*
G01X237950Y174430D02*
X234650D01*
Y173930D01*
X237950D01*
G01X237450Y173030D02*
Y172130D01*
X238950D01*
Y173030D01*
X233950D01*
Y172530D01*
X237450D01*
G01X237050Y170130D02*
Y169230D01*
X245350D01*
Y169830D01*
X245050Y170130D01*
X233450D01*
Y169630D01*
X237050D01*
G01X237350Y168720D02*
Y167930D01*
X247050D01*
Y168420D01*
X246650Y168720D01*
X233650D01*
Y168230D01*
X237350D01*
G01X237950Y167430D02*
Y166520D01*
X247250D01*
Y167430D01*
X234050D01*
Y166830D01*
X237950D01*
G01X238650Y166030D02*
Y165120D01*
X246450D01*
X246750Y165430D01*
Y166030D01*
X234850D01*
Y165430D01*
X238650D01*
G01X239750Y164730D02*
Y163830D01*
X245750D01*
X245950Y164130D01*
Y164730D01*
X235850D01*
Y164130D01*
X239750D01*
G01X245000Y182500D02*
Y185300D01*
X244480Y184740D01*
G01Y182500D02*
X245520D01*
G01X249980Y186000D02*
Y188800D01*
X251020D01*
X251370Y188660D01*
X251630Y188330D01*
X251720Y187960D01*
X251630Y187590D01*
X251410Y187310D01*
X251020Y187170D01*
X249980D01*
G01X253950Y186000D02*
Y188800D01*
X253430Y188240D01*
G01Y186000D02*
X254470D01*
G01X257050Y185910D02*
X256960Y185950D01*
Y186050D01*
X257050Y186090D01*
X257140Y186050D01*
Y185950D01*
X257050Y185910D01*
G01X259330Y187170D02*
X259630Y187490D01*
X259890Y187680D01*
X260240Y187770D01*
X260540Y187680D01*
X260760Y187490D01*
X260930Y187210D01*
X260970Y186890D01*
X260930Y186610D01*
X260760Y186330D01*
X260500Y186090D01*
X260190Y186000D01*
X259850Y186090D01*
X259540Y186370D01*
X259370Y186790D01*
X259330Y187260D01*
X259410Y187870D01*
X259540Y188190D01*
X259760Y188520D01*
X260060Y188750D01*
X260370Y188800D01*
X260670Y188710D01*
X260890Y188470D01*
G01X271800Y-11000D02*
Y-8200D01*
X271280Y-8760D01*
G01Y-11000D02*
X272320D01*
G01X274810D02*
X274900Y-10390D01*
X275030Y-9880D01*
X275200Y-9410D01*
X275420Y-8900D01*
X275770Y-8200D01*
X274030D01*
G01X273980Y5500D02*
Y8300D01*
X275020D01*
X275370Y8160D01*
X275630Y7830D01*
X275720Y7460D01*
X275630Y7090D01*
X275410Y6810D01*
X275020Y6670D01*
X273980D01*
G01X277950Y8300D02*
X277600Y8210D01*
X277340Y7970D01*
X277170Y7690D01*
X277040Y7320D01*
X277000Y6900D01*
X277040Y6480D01*
X277170Y6110D01*
X277340Y5830D01*
X277600Y5590D01*
X277950Y5500D01*
X278300Y5590D01*
X278560Y5830D01*
X278730Y6110D01*
X278860Y6480D01*
X278900Y6900D01*
X278860Y7320D01*
X278730Y7690D01*
X278560Y7970D01*
X278300Y8210D01*
X277950Y8300D01*
G01X281050Y5410D02*
X280960Y5450D01*
Y5550D01*
X281050Y5590D01*
X281140Y5550D01*
Y5450D01*
X281050Y5410D01*
G01X284060Y5500D02*
X284150Y6110D01*
X284280Y6620D01*
X284450Y7090D01*
X284670Y7600D01*
X285020Y8300D01*
X283280D01*
G01X272990Y9370D02*
X273340Y9140D01*
X273730Y9000D01*
X274070D01*
X274420Y9140D01*
X274680Y9370D01*
X274810Y9700D01*
X274720Y10030D01*
X274510Y10310D01*
X274120Y10490D01*
X273600Y10590D01*
X273290Y10770D01*
X273160Y11100D01*
X273250Y11430D01*
X273470Y11660D01*
X273770Y11800D01*
X274070D01*
X274380Y11710D01*
X274640Y11470D01*
G01X275700Y11800D02*
X276310Y9000D01*
X277000Y11800D01*
X277690Y9000D01*
X278300Y11800D01*
G01X279280Y11330D02*
X279540Y11610D01*
X279840Y11750D01*
X280190Y11800D01*
X280620Y11710D01*
X280920Y11470D01*
X281010Y11190D01*
X280970Y10910D01*
X280790Y10680D01*
X279930Y10210D01*
X279540Y9890D01*
X279280Y9420D01*
X279190Y9000D01*
X281010D01*
G01X272100Y14000D02*
Y16800D01*
X271580Y16240D01*
G01Y14000D02*
X272620D01*
G01X275200D02*
X275500Y14050D01*
X275850Y14190D01*
X276070Y14420D01*
X276150Y14750D01*
X276070Y15070D01*
X275810Y15350D01*
X275420Y15490D01*
X274980D01*
X274720Y15590D01*
X274510Y15820D01*
X274420Y16150D01*
X274550Y16470D01*
X274850Y16710D01*
X275200Y16800D01*
X275550Y16710D01*
X275850Y16470D01*
X275980Y16150D01*
X275890Y15820D01*
X275680Y15590D01*
X275420Y15490D01*
X274980D01*
X274590Y15350D01*
X274330Y15070D01*
X274250Y14750D01*
X274330Y14420D01*
X274550Y14190D01*
X274900Y14050D01*
X275200Y14000D01*
G01X252380Y85670D02*
X252680Y85990D01*
X252940Y86180D01*
X253290Y86270D01*
X253590Y86180D01*
X253810Y85990D01*
X253980Y85710D01*
X254020Y85390D01*
X253980Y85110D01*
X253810Y84830D01*
X253550Y84590D01*
X253240Y84500D01*
X252900Y84590D01*
X252590Y84870D01*
X252420Y85290D01*
X252380Y85760D01*
X252460Y86370D01*
X252590Y86690D01*
X252810Y87020D01*
X253110Y87250D01*
X253420Y87300D01*
X253720Y87210D01*
X253940Y86970D01*
G01X252380Y107330D02*
X252640Y107610D01*
X252940Y107750D01*
X253290Y107800D01*
X253720Y107710D01*
X254020Y107470D01*
X254110Y107190D01*
X254070Y106910D01*
X253890Y106680D01*
X253030Y106210D01*
X252640Y105890D01*
X252380Y105420D01*
X252290Y105000D01*
X254110D01*
G01X264750Y171570D02*
X264490Y171710D01*
X264190Y171800D01*
X263840D01*
X263450Y171660D01*
X263150Y171430D01*
X262930Y171150D01*
X262760Y170680D01*
X262720Y170260D01*
X262800Y169840D01*
X262930Y169560D01*
X263190Y169280D01*
X263500Y169090D01*
X263800Y169000D01*
X264100D01*
X264410Y169090D01*
X264670Y169230D01*
X264880Y169420D01*
G01X266900Y169000D02*
Y170260D01*
X266030Y171800D01*
G01X267770D02*
X266900Y170260D01*
G01X270000Y169000D02*
X270300Y169050D01*
X270650Y169190D01*
X270870Y169420D01*
X270950Y169750D01*
X270870Y170070D01*
X270610Y170350D01*
X270220Y170490D01*
X269780D01*
X269520Y170590D01*
X269310Y170820D01*
X269220Y171150D01*
X269350Y171470D01*
X269650Y171710D01*
X270000Y171800D01*
X270350Y171710D01*
X270650Y171470D01*
X270780Y171150D01*
X270690Y170820D01*
X270480Y170590D01*
X270220Y170490D01*
X269780D01*
X269390Y170350D01*
X269130Y170070D01*
X269050Y169750D01*
X269130Y169420D01*
X269350Y169190D01*
X269700Y169050D01*
X270000Y169000D01*
G01X274050Y171570D02*
X273790Y171710D01*
X273490Y171800D01*
X273140D01*
X272750Y171660D01*
X272450Y171430D01*
X272230Y171150D01*
X272060Y170680D01*
X272020Y170260D01*
X272100Y169840D01*
X272230Y169560D01*
X272490Y169280D01*
X272800Y169090D01*
X273100Y169000D01*
X273400D01*
X273710Y169090D01*
X273970Y169230D01*
X274180Y169420D01*
G01X275250Y169000D02*
Y171800D01*
G01X276890D02*
X275250Y170070D01*
G01X277150Y169000D02*
X275980Y170870D01*
G01X278780Y171800D02*
X279820D01*
G01X279300D02*
Y169000D01*
G01X278780D02*
X279820D01*
G01X282400Y171800D02*
Y169000D01*
G01X281400Y171800D02*
X283400D01*
G01X284940Y169930D02*
X286060D01*
G01X288600Y171800D02*
X288250Y171710D01*
X287990Y171470D01*
X287820Y171190D01*
X287690Y170820D01*
X287650Y170400D01*
X287690Y169980D01*
X287820Y169610D01*
X287990Y169330D01*
X288250Y169090D01*
X288600Y169000D01*
X288950Y169090D01*
X289210Y169330D01*
X289380Y169610D01*
X289510Y169980D01*
X289550Y170400D01*
X289510Y170820D01*
X289380Y171190D01*
X289210Y171470D01*
X288950Y171710D01*
X288600Y171800D01*
G01X292220Y169000D02*
Y171800D01*
X290620Y169790D01*
X292780D01*
G01X293980Y171330D02*
X294240Y171610D01*
X294540Y171750D01*
X294890Y171800D01*
X295320Y171710D01*
X295620Y171470D01*
X295710Y171190D01*
X295670Y170910D01*
X295490Y170680D01*
X294630Y170210D01*
X294240Y169890D01*
X293980Y169420D01*
X293890Y169000D01*
X295710D01*
G01X264500Y173500D02*
Y176300D01*
X265360D01*
X265710Y176160D01*
X265970Y175970D01*
X266190Y175690D01*
X266360Y175370D01*
X266400Y174900D01*
X266360Y174430D01*
X266190Y174110D01*
X265970Y173830D01*
X265710Y173640D01*
X265360Y173500D01*
X264500D01*
G01X267810Y173830D02*
X268120Y173590D01*
X268460Y173500D01*
X268810Y173590D01*
X269110Y173870D01*
X269330Y174290D01*
X269420Y174710D01*
Y175230D01*
X269330Y175650D01*
X269110Y176020D01*
X268850Y176210D01*
X268550Y176300D01*
X268200Y176210D01*
X267940Y176020D01*
X267770Y175740D01*
X267680Y175370D01*
X267770Y175040D01*
X267990Y174710D01*
X268250Y174530D01*
X268550Y174480D01*
X268900Y174570D01*
X269160Y174810D01*
X269420Y175230D01*
G01X252450Y175030D02*
X255550D01*
Y175530D01*
X252450D01*
G01X255550Y175030D02*
X256050Y174520D01*
X258750D01*
Y174230D01*
X259750D01*
Y173630D01*
X260250D01*
Y174730D01*
X259350D01*
Y175030D01*
X256350D01*
X255850Y175530D01*
X255550D01*
G01X260250Y173630D02*
Y173130D01*
X257950D01*
X257750Y172930D01*
X257250D01*
Y173530D01*
X257450D01*
X257550Y173630D01*
X259750D01*
G01X258350Y173130D02*
Y172530D01*
X256450D01*
Y171930D01*
X260250D01*
Y171520D01*
X260850D01*
Y172530D01*
X258850D01*
Y173130D01*
G01X260250Y171520D02*
X259850D01*
Y171330D01*
X258150D01*
X257950Y171220D01*
X253450D01*
Y170620D01*
X258550D01*
X258650Y170830D01*
X260450D01*
Y171030D01*
X260850D01*
Y171520D01*
G01X251150Y168420D02*
X251450Y168720D01*
X254150D01*
Y168120D01*
X254050D01*
Y167930D01*
X251150D01*
Y168420D01*
G01X252350Y169720D02*
Y169230D01*
X254350D01*
Y170230D01*
X252750D01*
X252350Y169720D01*
G01X262630Y184500D02*
Y187300D01*
X263720D01*
X264060Y187160D01*
X264280Y186970D01*
X264370Y186600D01*
X264280Y186230D01*
X264020Y185990D01*
X263720Y185850D01*
X262630D01*
G01X263720D02*
X264370Y184500D01*
G01X299160Y11900D02*
X300030D01*
Y11060D01*
X299770Y10780D01*
X299460Y10590D01*
X299030Y10500D01*
X298600Y10590D01*
X298290Y10780D01*
X298030Y11060D01*
X297860Y11390D01*
X297770Y11760D01*
Y12090D01*
X297860Y12370D01*
X298030Y12690D01*
X298290Y12970D01*
X298550Y13160D01*
X298900Y13300D01*
X299200D01*
X299550Y13210D01*
X299810Y13020D01*
G01X301000Y10500D02*
Y13300D01*
X303000Y10500D01*
Y13300D01*
G01X304150Y10500D02*
Y13300D01*
X305010D01*
X305360Y13160D01*
X305620Y12970D01*
X305840Y12690D01*
X306010Y12370D01*
X306050Y11900D01*
X306010Y11430D01*
X305840Y11110D01*
X305620Y10830D01*
X305360Y10640D01*
X305010Y10500D01*
X304150D01*
G01X288900Y20800D02*
Y18000D01*
G01X287900Y20800D02*
X289900D01*
G01X291130Y18000D02*
Y20800D01*
X292170D01*
X292520Y20660D01*
X292780Y20330D01*
X292870Y19960D01*
X292780Y19590D01*
X292560Y19310D01*
X292170Y19170D01*
X291130D01*
G01X294280D02*
X294580Y19490D01*
X294840Y19680D01*
X295190Y19770D01*
X295490Y19680D01*
X295710Y19490D01*
X295880Y19210D01*
X295920Y18890D01*
X295880Y18610D01*
X295710Y18330D01*
X295450Y18090D01*
X295140Y18000D01*
X294800Y18090D01*
X294490Y18370D01*
X294320Y18790D01*
X294280Y19260D01*
X294360Y19870D01*
X294490Y20190D01*
X294710Y20520D01*
X295010Y20750D01*
X295320Y20800D01*
X295620Y20710D01*
X295840Y20470D01*
G01X279480Y45000D02*
Y47800D01*
X280520D01*
X280870Y47660D01*
X281130Y47330D01*
X281220Y46960D01*
X281130Y46590D01*
X280910Y46310D01*
X280520Y46170D01*
X279480D01*
G01X283450Y45000D02*
Y47800D01*
X282930Y47240D01*
G01Y45000D02*
X283970D01*
G01X286550Y44910D02*
X286460Y44950D01*
Y45050D01*
X286550Y45090D01*
X286640Y45050D01*
Y44950D01*
X286550Y44910D01*
G01X289650Y45000D02*
Y47800D01*
X289130Y47240D01*
G01Y45000D02*
X290170D01*
G01X279480Y67500D02*
Y70300D01*
X280520D01*
X280870Y70160D01*
X281130Y69830D01*
X281220Y69460D01*
X281130Y69090D01*
X280910Y68810D01*
X280520Y68670D01*
X279480D01*
G01X283450Y67500D02*
Y70300D01*
X282930Y69740D01*
G01Y67500D02*
X283970D01*
G01X286550Y67410D02*
X286460Y67450D01*
Y67550D01*
X286550Y67590D01*
X286640Y67550D01*
Y67450D01*
X286550Y67410D01*
G01X288830Y69830D02*
X289090Y70110D01*
X289390Y70250D01*
X289740Y70300D01*
X290170Y70210D01*
X290470Y69970D01*
X290560Y69690D01*
X290520Y69410D01*
X290340Y69180D01*
X289480Y68710D01*
X289090Y68390D01*
X288830Y67920D01*
X288740Y67500D01*
X290560D01*
G01X279480Y90000D02*
Y92800D01*
X280520D01*
X280870Y92660D01*
X281130Y92330D01*
X281220Y91960D01*
X281130Y91590D01*
X280910Y91310D01*
X280520Y91170D01*
X279480D01*
G01X283450Y90000D02*
Y92800D01*
X282930Y92240D01*
G01Y90000D02*
X283970D01*
G01X286550Y89910D02*
X286460Y89950D01*
Y90050D01*
X286550Y90090D01*
X286640Y90050D01*
Y89950D01*
X286550Y89910D01*
G01X288700Y90560D02*
X288960Y90230D01*
X289300Y90050D01*
X289690Y90000D01*
X290040Y90050D01*
X290390Y90280D01*
X290600Y90560D01*
X290650Y90840D01*
X290560Y91170D01*
X290260Y91400D01*
X289950Y91490D01*
X289560D01*
G01X289950D02*
X290210Y91630D01*
X290430Y91870D01*
X290520Y92150D01*
X290430Y92430D01*
X290210Y92660D01*
X289820Y92800D01*
X289430Y92750D01*
X289040Y92570D01*
G01X279480Y115000D02*
Y117800D01*
X280520D01*
X280870Y117660D01*
X281130Y117330D01*
X281220Y116960D01*
X281130Y116590D01*
X280910Y116310D01*
X280520Y116170D01*
X279480D01*
G01X283450Y115000D02*
Y117800D01*
X282930Y117240D01*
G01Y115000D02*
X283970D01*
G01X286550Y114910D02*
X286460Y114950D01*
Y115050D01*
X286550Y115090D01*
X286640Y115050D01*
Y114950D01*
X286550Y114910D01*
G01X290170Y115000D02*
Y117800D01*
X288570Y115790D01*
X290730D01*
G01X279480Y137500D02*
Y140300D01*
X280520D01*
X280870Y140160D01*
X281130Y139830D01*
X281220Y139460D01*
X281130Y139090D01*
X280910Y138810D01*
X280520Y138670D01*
X279480D01*
G01X283450Y137500D02*
Y140300D01*
X282930Y139740D01*
G01Y137500D02*
X283970D01*
G01X286550Y137410D02*
X286460Y137450D01*
Y137550D01*
X286550Y137590D01*
X286640Y137550D01*
Y137450D01*
X286550Y137410D01*
G01X288700Y137920D02*
X288960Y137690D01*
X289260Y137550D01*
X289650Y137500D01*
X290040Y137590D01*
X290340Y137780D01*
X290560Y138110D01*
X290600Y138480D01*
X290520Y138850D01*
X290300Y139090D01*
X290000Y139270D01*
X289690Y139320D01*
X289390Y139270D01*
X289000Y139090D01*
X289130Y140300D01*
X290300D01*
G01X299160Y174900D02*
X300030D01*
Y174060D01*
X299770Y173780D01*
X299460Y173590D01*
X299030Y173500D01*
X298600Y173590D01*
X298290Y173780D01*
X298030Y174060D01*
X297860Y174390D01*
X297770Y174760D01*
Y175090D01*
X297860Y175370D01*
X298030Y175690D01*
X298290Y175970D01*
X298550Y176160D01*
X298900Y176300D01*
X299200D01*
X299550Y176210D01*
X299810Y176020D01*
G01X301000Y173500D02*
Y176300D01*
X303000Y173500D01*
Y176300D01*
G01X304150Y173500D02*
Y176300D01*
X305010D01*
X305360Y176160D01*
X305620Y175970D01*
X305840Y175690D01*
X306010Y175370D01*
X306050Y174900D01*
X306010Y174430D01*
X305840Y174110D01*
X305620Y173830D01*
X305360Y173640D01*
X305010Y173500D01*
X304150D01*
G01X280430D02*
Y176300D01*
X281470D01*
X281820Y176160D01*
X282080Y175830D01*
X282170Y175460D01*
X282080Y175090D01*
X281860Y174810D01*
X281470Y174670D01*
X280430D01*
G01X284400Y176300D02*
X284050Y176210D01*
X283790Y175970D01*
X283620Y175690D01*
X283490Y175320D01*
X283450Y174900D01*
X283490Y174480D01*
X283620Y174110D01*
X283790Y173830D01*
X284050Y173590D01*
X284400Y173500D01*
X284750Y173590D01*
X285010Y173830D01*
X285180Y174110D01*
X285310Y174480D01*
X285350Y174900D01*
X285310Y175320D01*
X285180Y175690D01*
X285010Y175970D01*
X284750Y176210D01*
X284400Y176300D01*
G01X287500Y173410D02*
X287410Y173450D01*
Y173550D01*
X287500Y173590D01*
X287590Y173550D01*
Y173450D01*
X287500Y173410D01*
G01X289650Y174060D02*
X289910Y173730D01*
X290250Y173550D01*
X290640Y173500D01*
X290990Y173550D01*
X291340Y173780D01*
X291550Y174060D01*
X291600Y174340D01*
X291510Y174670D01*
X291210Y174900D01*
X290900Y174990D01*
X290510D01*
G01X290900D02*
X291160Y175130D01*
X291380Y175370D01*
X291470Y175650D01*
X291380Y175930D01*
X291160Y176160D01*
X290770Y176300D01*
X290380Y176250D01*
X289990Y176070D01*
G01X281850Y179490D02*
X282020Y179630D01*
X282150Y179870D01*
X282240Y180190D01*
X282150Y180470D01*
X281980Y180660D01*
X281670Y180800D01*
X280500D01*
Y178000D01*
X281930D01*
X282240Y178190D01*
X282410Y178470D01*
X282500Y178790D01*
X282410Y179120D01*
X282150Y179400D01*
X281850Y179490D01*
X280500D01*
G01X298400Y179800D02*
Y177000D01*
G01X297400Y179800D02*
X299400D01*
G01X300630Y177000D02*
Y179800D01*
X301670D01*
X302020Y179660D01*
X302280Y179330D01*
X302370Y178960D01*
X302280Y178590D01*
X302060Y178310D01*
X301670Y178170D01*
X300630D01*
G01X303650Y177420D02*
X303910Y177190D01*
X304210Y177050D01*
X304600Y177000D01*
X304990Y177090D01*
X305290Y177280D01*
X305510Y177610D01*
X305550Y177980D01*
X305470Y178350D01*
X305250Y178590D01*
X304950Y178770D01*
X304640Y178820D01*
X304340Y178770D01*
X303950Y178590D01*
X304080Y179800D01*
X305250D01*
G01X280980Y188000D02*
Y190800D01*
X282020D01*
X282370Y190660D01*
X282630Y190330D01*
X282720Y189960D01*
X282630Y189590D01*
X282410Y189310D01*
X282020Y189170D01*
X280980D01*
G01X284950Y190800D02*
X284600Y190710D01*
X284340Y190470D01*
X284170Y190190D01*
X284040Y189820D01*
X284000Y189400D01*
X284040Y188980D01*
X284170Y188610D01*
X284340Y188330D01*
X284600Y188090D01*
X284950Y188000D01*
X285300Y188090D01*
X285560Y188330D01*
X285730Y188610D01*
X285860Y188980D01*
X285900Y189400D01*
X285860Y189820D01*
X285730Y190190D01*
X285560Y190470D01*
X285300Y190710D01*
X284950Y190800D01*
G01X288050Y187910D02*
X287960Y187950D01*
Y188050D01*
X288050Y188090D01*
X288140Y188050D01*
Y187950D01*
X288050Y187910D01*
G01X290330Y190330D02*
X290590Y190610D01*
X290890Y190750D01*
X291240Y190800D01*
X291670Y190710D01*
X291970Y190470D01*
X292060Y190190D01*
X292020Y189910D01*
X291840Y189680D01*
X290980Y189210D01*
X290590Y188890D01*
X290330Y188420D01*
X290240Y188000D01*
X292060D01*
G01X281760Y184400D02*
X282630D01*
Y183560D01*
X282370Y183280D01*
X282060Y183090D01*
X281630Y183000D01*
X281200Y183090D01*
X280890Y183280D01*
X280630Y183560D01*
X280460Y183890D01*
X280370Y184260D01*
Y184590D01*
X280460Y184870D01*
X280630Y185190D01*
X280890Y185470D01*
X281150Y185660D01*
X281500Y185800D01*
X281800D01*
X282150Y185710D01*
X282410Y185520D01*
G01X309300Y159070D02*
X309040Y159210D01*
X308740Y159300D01*
X308390D01*
X308000Y159160D01*
X307700Y158930D01*
X307480Y158650D01*
X307310Y158180D01*
X307270Y157760D01*
X307350Y157340D01*
X307480Y157060D01*
X307740Y156780D01*
X308050Y156590D01*
X308350Y156500D01*
X308650D01*
X308960Y156590D01*
X309220Y156730D01*
X309430Y156920D01*
G01X310540Y156870D02*
X310890Y156640D01*
X311280Y156500D01*
X311620D01*
X311970Y156640D01*
X312230Y156870D01*
X312360Y157200D01*
X312270Y157530D01*
X312060Y157810D01*
X311670Y157990D01*
X311150Y158090D01*
X310840Y158270D01*
X310710Y158600D01*
X310800Y158930D01*
X311020Y159160D01*
X311320Y159300D01*
X311620D01*
X311930Y159210D01*
X312190Y158970D01*
G01X313640Y156870D02*
X313990Y156640D01*
X314380Y156500D01*
X314720D01*
X315070Y156640D01*
X315330Y156870D01*
X315460Y157200D01*
X315370Y157530D01*
X315160Y157810D01*
X314770Y157990D01*
X314250Y158090D01*
X313940Y158270D01*
X313810Y158600D01*
X313900Y158930D01*
X314120Y159160D01*
X314420Y159300D01*
X314720D01*
X315030Y159210D01*
X315290Y158970D01*
G01X317650Y156500D02*
Y159300D01*
X317130Y158740D01*
G01Y156500D02*
X318170D01*
G54D11*
G01X44500Y84500D02*
X43000D01*
X42500Y85000D01*
Y88000D01*
X41500Y89000D01*
G01X69000Y65000D02*
Y66500D01*
X68000Y67500D01*
G01X80000Y44000D02*
Y46000D01*
X79500Y46500D01*
G01X75500Y65000D02*
Y66500D01*
X74500Y67500D01*
G01X84000Y77000D02*
Y76000D01*
X82500Y74500D01*
X82000D01*
G01X103500Y151500D02*
Y146500D01*
G01X106000Y149000D02*
X101000D01*
G01X172500Y16000D02*
Y19000D01*
G01X192500Y45510D02*
X194490Y47500D01*
X194500Y84500D01*
X155500D01*
Y45500D01*
X192500Y45510D01*
G01X172000Y127000D02*
X177000D01*
G01X184500Y16000D02*
Y19000D01*
G01X174500Y124500D02*
Y129500D01*
G01X206720Y48820D02*
G03I-1402J-2D01*
G01X208820Y63000D02*
Y65800D01*
X209940D01*
X210310Y65660D01*
X210590Y65330D01*
X210680Y64960D01*
X210590Y64590D01*
X210360Y64310D01*
X209940Y64170D01*
X208820D01*
G01X212070Y63370D02*
X212440Y63140D01*
X212860Y63000D01*
X213240D01*
X213610Y63140D01*
X213890Y63370D01*
X214030Y63700D01*
X213940Y64030D01*
X213700Y64310D01*
X213280Y64490D01*
X212720Y64590D01*
X212400Y64770D01*
X212260Y65100D01*
X212350Y65430D01*
X212580Y65660D01*
X212910Y65800D01*
X213240D01*
X213560Y65710D01*
X213840Y65470D01*
G01X216350Y63000D02*
X216070Y63050D01*
X215790Y63230D01*
X215600Y63560D01*
X215510Y63930D01*
X215600Y64310D01*
X215790Y64630D01*
X216070Y64820D01*
X216350Y64870D01*
X216630Y64820D01*
X216910Y64630D01*
X217100Y64310D01*
X217140Y63930D01*
X217100Y63560D01*
X216910Y63230D01*
X216630Y63050D01*
X216350Y63000D01*
G01X220680Y65570D02*
X220400Y65710D01*
X220070Y65800D01*
X219700D01*
X219280Y65660D01*
X218950Y65430D01*
X218720Y65150D01*
X218530Y64680D01*
X218480Y64260D01*
X218580Y63840D01*
X218720Y63560D01*
X219000Y63280D01*
X219320Y63090D01*
X219650Y63000D01*
X219980D01*
X220300Y63090D01*
X220580Y63230D01*
X220820Y63420D01*
G01X226810Y63000D02*
Y65800D01*
X225080Y63790D01*
X227420D01*
G01X194590Y47400D02*
X192600Y45410D01*
X157400D01*
X155410Y47400D01*
Y82600D01*
X157400Y84590D01*
X192600D01*
X194590Y82600D01*
Y47400D01*
G01X193690Y48400D02*
G03I-2090J0D01*
G01X259070Y166770D02*
X258600Y167090D01*
X258060Y167300D01*
X257430D01*
X256720Y166980D01*
X256180Y166460D01*
X255780Y165830D01*
X255470Y164780D01*
X255390Y163830D01*
X255550Y162890D01*
X255780Y162260D01*
X256250Y161630D01*
X256800Y161210D01*
X257350Y161000D01*
X257900D01*
X258450Y161210D01*
X258920Y161520D01*
X259310Y161940D01*
G01X263650Y161000D02*
Y163830D01*
X262080Y167300D01*
G01X265220D02*
X263650Y163830D01*
G01X268380Y161000D02*
Y167300D01*
X270260D01*
X270890Y166980D01*
X271360Y166250D01*
X271520Y165410D01*
X271360Y164570D01*
X270970Y163940D01*
X270260Y163620D01*
X268380D01*
G01X274680Y161000D02*
Y167300D01*
X276640D01*
X277270Y166980D01*
X277660Y166560D01*
X277820Y165720D01*
X277660Y164880D01*
X277190Y164360D01*
X276640Y164040D01*
X274680D01*
G01X276640D02*
X277820Y161000D01*
G01X284120D02*
X280980D01*
Y167300D01*
X284120D01*
G01X282860Y164260D02*
X280980D01*
G01X287200Y161840D02*
X287830Y161310D01*
X288540Y161000D01*
X289160D01*
X289790Y161310D01*
X290260Y161840D01*
X290500Y162580D01*
X290340Y163310D01*
X289950Y163940D01*
X289240Y164360D01*
X288300Y164570D01*
X287750Y164990D01*
X287520Y165720D01*
X287680Y166460D01*
X288070Y166980D01*
X288610Y167300D01*
X289160D01*
X289710Y167090D01*
X290180Y166560D01*
G01X293500Y161840D02*
X294130Y161310D01*
X294840Y161000D01*
X295460D01*
X296090Y161310D01*
X296560Y161840D01*
X296800Y162580D01*
X296640Y163310D01*
X296250Y163940D01*
X295540Y164360D01*
X294600Y164570D01*
X294050Y164990D01*
X293820Y165720D01*
X293980Y166460D01*
X294370Y166980D01*
X294910Y167300D01*
X295460D01*
X296010Y167090D01*
X296480Y166560D01*
G01X256000Y160000D02*
X297000D01*
G01X278380Y156500D02*
Y159500D01*
X279300D01*
X279610Y159350D01*
X279840Y159000D01*
X279920Y158600D01*
X279840Y158200D01*
X279650Y157900D01*
X279300Y157750D01*
X278380D01*
G01X283020Y156500D02*
X281480D01*
Y159500D01*
X283020D01*
G01X282400Y158050D02*
X281480D01*
G01X284580Y156500D02*
Y159500D01*
X285540D01*
X285850Y159350D01*
X286040Y159150D01*
X286120Y158750D01*
X286040Y158350D01*
X285810Y158100D01*
X285540Y157950D01*
X284580D01*
G01X285540D02*
X286120Y156500D01*
G01X287720D02*
Y159500D01*
X289180D01*
G01X288640Y158050D02*
X287720D01*
G01X291550Y156500D02*
X291240Y156550D01*
X290980Y156750D01*
X290740Y157050D01*
X290590Y157400D01*
X290510Y157800D01*
Y158200D01*
X290590Y158600D01*
X290740Y158950D01*
X290980Y159250D01*
X291240Y159450D01*
X291550Y159500D01*
X291860Y159450D01*
X292120Y159250D01*
X292360Y158950D01*
X292510Y158600D01*
X292590Y158200D01*
Y157800D01*
X292510Y157400D01*
X292360Y157050D01*
X292120Y156750D01*
X291860Y156550D01*
X291550Y156500D01*
G01X293880D02*
Y159500D01*
X294840D01*
X295150Y159350D01*
X295340Y159150D01*
X295420Y158750D01*
X295340Y158350D01*
X295110Y158100D01*
X294840Y157950D01*
X293880D01*
G01X294840D02*
X295420Y156500D01*
G01X296750D02*
Y159500D01*
X297750Y157000D01*
X298750Y159500D01*
Y156500D01*
G54D12*
G01X17250Y163310D02*
X35750D01*
G01X17250Y176690D02*
X35750D01*
G01X278800Y177970D02*
Y176990D01*
X266200D01*
Y177970D01*
G01X268020Y189450D02*
G03I-591J3D01*
G01X266200Y181120D02*
Y183880D01*
G01Y187030D02*
Y188010D01*
X278800D01*
Y187030D01*
G01Y181120D02*
Y183880D01*
G54D13*
G01X257500Y155000D02*
Y25000D01*
X312500D01*
Y155000D01*
X257500D01*
G54D14*
G01X11000Y73000D02*
X-9000D01*
Y13000D01*
X11000D01*
Y73000D01*
G01X1000Y80000D02*
X-9000D01*
Y100000D01*
X1000D01*
Y80000D01*
G01X-11000Y114000D02*
Y111500D01*
X-8500Y114000D01*
Y109000D01*
X-11000Y111500D01*
Y109000D01*
G01X-7000Y122000D02*
X-12000D01*
Y153000D01*
X-7000D01*
G01X19000Y-42500D02*
Y-9000D01*
X81000D01*
Y-42500D01*
X19000D01*
G01X17500Y7500D02*
G03I-5000J0D01*
G01X49500Y65000D02*
Y75000D01*
X42000D01*
Y81000D01*
X28000D01*
Y74500D01*
X20500D01*
Y45000D01*
X28000D01*
Y39000D01*
X42000D01*
Y45000D01*
X49500D01*
Y55000D01*
G01X5000Y95000D02*
X10000D01*
G01X7500Y92500D02*
Y97500D01*
G01X5000Y85000D02*
X10000D01*
G01X-2500Y108500D02*
Y102500D01*
G01X13000Y103000D02*
Y108000D01*
G01X20000Y95000D02*
Y90000D01*
G01X14500Y122000D02*
X5000D01*
G01Y153000D02*
X14500D01*
G01X8500Y183500D02*
Y181000D01*
X11000Y183500D01*
Y178500D01*
X8500Y181000D01*
Y178500D01*
G01X18000Y184000D02*
Y178000D01*
G01X13500Y167000D02*
G03I-5000J0D01*
G01X46310Y16440D02*
Y19390D01*
X22690D01*
Y16440D01*
G01Y8560D02*
Y5610D01*
X46310D01*
Y8560D01*
G01X47800Y42200D02*
G03I-1800J0D01*
G01X31500Y93000D02*
X35500D01*
G01X45500Y93500D02*
X43500D01*
G01X40000D02*
X38000D01*
G01X45000Y100000D02*
Y104000D01*
G01X29500Y107000D02*
X27500D01*
G01X24500Y129000D02*
Y125000D01*
G01X45000Y106000D02*
Y110000D01*
G01X24500Y107000D02*
X21500D01*
G01X31500Y150500D02*
X34000D01*
X31500Y153000D01*
X36500D01*
X34000Y150500D01*
X36500D01*
G01X27000Y155000D02*
X31000D01*
G01X31500Y140500D02*
X34000D01*
X31500Y143000D01*
X36500D01*
X34000Y140500D01*
X36500D01*
G01X27000Y144500D02*
X31000D01*
G01X36500Y137500D02*
X34000D01*
X36500Y135000D01*
X31500D01*
X34000Y137500D01*
X31500D01*
G01X31000Y133500D02*
X27000D01*
G01X24500Y150000D02*
Y146000D01*
G01X44500Y151990D02*
Y148010D01*
G01X35000Y178500D02*
Y183500D01*
G01X50000Y170000D02*
G03I-5000J0D01*
G01X54140Y29440D02*
X53350D01*
Y21560D01*
X54140D01*
G01X58860Y29440D02*
X59650D01*
Y21560D01*
X58860D01*
G01X53500Y52500D02*
X55500D01*
G01X68510Y52000D02*
X72490D01*
G01X66000D02*
X62000D01*
G01X56500Y34380D02*
X58500Y32380D01*
X54500D01*
X56500Y34380D01*
G01X58500D02*
X54500D01*
G01X63000Y72000D02*
X67000D01*
G01X73500Y72500D02*
X71500D01*
G01X58500D02*
X56500D01*
G01X56750Y86220D02*
Y84250D01*
X58720D01*
G01X55500Y122500D02*
X57500D01*
G01X46500Y118500D02*
Y122500D01*
G01Y128000D02*
Y124000D01*
G01Y129500D02*
Y133500D01*
G01X87000Y150000D02*
Y160000D01*
X79500D01*
Y166000D01*
X65500D01*
Y159500D01*
X58000D01*
Y130000D01*
X65500D01*
Y124000D01*
X79500D01*
Y130000D01*
X87000D01*
Y140000D01*
G01X58720Y115750D02*
X56750D01*
Y113780D01*
G01X46500Y139000D02*
Y135000D01*
G01X51500Y155000D02*
X55500D01*
G01X54000Y190000D02*
Y180000D01*
X154000D01*
Y190000D01*
X54000D01*
G01X90000Y0D02*
Y-10000D01*
X170000D01*
Y0D01*
X90000D01*
G01X92000Y26000D02*
Y25000D01*
X103000D01*
Y26000D01*
G01X90500Y14000D02*
X87000D01*
Y19500D01*
G01X100000D02*
Y14000D01*
X96500D01*
G01X80000Y21000D02*
X85000D01*
G01X75010Y52000D02*
X78990D01*
G01X85490D02*
X81510D01*
G01X100000Y35500D02*
X97500Y33500D01*
Y37500D01*
X100000Y35500D01*
G01X103000Y31000D02*
Y32000D01*
X92000D01*
Y31000D01*
G01X76500Y72000D02*
X80500D01*
G01X87000D02*
X91000D01*
G01X92500D02*
X96500D01*
G01X86280Y84250D02*
X88250D01*
Y86220D01*
G01X91300Y130700D02*
G03I-1800J0D01*
G01X89080Y119320D02*
G03I-785J3D01*
G01X88270Y113780D02*
Y114530D01*
X87010Y115790D01*
X86280D01*
G01X93620Y130500D02*
X95620Y132500D01*
Y128500D01*
X93620Y130500D01*
G01Y132500D02*
Y128500D01*
G01X88060Y122140D02*
Y121350D01*
X95940D01*
Y122140D01*
G01X88060Y126860D02*
Y127650D01*
X95940D01*
Y126860D01*
G01X91500Y137500D02*
X93500D01*
G01X126000Y154000D02*
Y164000D01*
X96000D01*
Y154000D01*
X126000D01*
G01X97500Y173500D02*
X86500D01*
Y165500D01*
X101000D01*
Y173500D01*
X97500D01*
G01X114500Y30500D02*
Y26500D01*
G01X119500Y14000D02*
X116000D01*
Y19500D01*
G01X105000Y14000D02*
X101500D01*
Y19500D01*
G01X114500D02*
Y14000D01*
X111000D01*
G01X124500Y38500D02*
X120500D01*
G01X100000Y33500D02*
Y37500D01*
G01X105000Y53000D02*
Y57000D01*
G01X117500Y60500D02*
Y64500D01*
G01Y53000D02*
Y57000D01*
G01Y70500D02*
Y74500D01*
G01X105000Y70500D02*
Y74500D01*
G01Y60500D02*
Y64500D01*
G01Y99000D02*
Y103000D01*
G01X104500Y92000D02*
Y88000D01*
G01X105000Y96500D02*
Y94500D01*
G01X104500Y85500D02*
Y83500D01*
G01X120000Y98000D02*
X124000D01*
G01X114500D02*
X118500D01*
G01X104500Y110500D02*
Y108500D01*
G01X105500Y144500D02*
X104500D01*
Y129500D01*
X105500D01*
G01X115500D02*
X116500D01*
Y144500D01*
X115500D01*
G01X104000Y112510D02*
Y116490D01*
G01X124000Y128500D02*
X120000D01*
G01X124000Y140500D02*
X120000D01*
G01X132000Y174000D02*
X121000D01*
Y166000D01*
X135500D01*
Y174000D01*
X132000D01*
G01X137500Y2500D02*
X141500D01*
G01X139500D02*
X137500Y5000D01*
X141500D01*
X139500Y2500D01*
G01X137500Y9500D02*
X138500D01*
Y20500D01*
X137500D01*
G01X132500D02*
X131500D01*
Y9500D01*
X132500D01*
G01X129000Y19500D02*
Y14000D01*
X125500D01*
G01X137000Y47990D02*
Y44010D01*
G01Y50500D02*
Y54500D01*
G01X126620Y35500D02*
X128620Y37500D01*
Y33500D01*
X126620Y35500D01*
G01Y37500D02*
Y33500D01*
G01X131560Y33140D02*
Y32350D01*
X139440D01*
Y33140D01*
G01X131560Y37860D02*
Y38650D01*
X139440D01*
Y37860D01*
G01X140500Y78000D02*
Y84000D01*
G01X141000Y94500D02*
Y100500D01*
G01X128000Y123000D02*
X132000D01*
G01X157500Y117500D02*
Y118500D01*
X146500D01*
Y117500D01*
G01Y112500D02*
Y111500D01*
X157500D01*
Y112500D01*
G01X139010Y116050D02*
G03I-2762J1D01*
G01X127500Y151000D02*
X123500D01*
G01X125500D02*
X127500Y148500D01*
X123500D01*
X125500Y151000D01*
G01X127500Y145500D02*
X126500D01*
Y134500D01*
X127500D01*
G01X132500D02*
X133500D01*
Y145500D01*
X132500D01*
G01X138580Y136810D02*
X136610D01*
Y165550D01*
X137990D01*
G01X155000Y3620D02*
X153000Y5620D01*
X157000D01*
X155000Y3620D01*
G01X153000D02*
X157000D01*
G01X157360Y8560D02*
X158150D01*
Y16440D01*
X157360D01*
G01X152640Y8560D02*
X151850D01*
Y16440D01*
X152640D01*
G01X151010Y28500D02*
X154990D01*
G01X160000Y29000D02*
X158000D01*
G01X168500Y27500D02*
X164500D01*
G01X174500D02*
X170500D01*
G01X176490Y101000D02*
X172510D01*
G01X167500Y100500D02*
X169500D01*
G01X161000Y99000D02*
X165000D01*
G01X155500D02*
X159500D01*
G01X171500Y122000D02*
X167500D01*
G01X163000Y128000D02*
X167000D01*
G01X165000D02*
X163000Y130500D01*
X167000D01*
X165000Y128000D01*
G01X161500Y108500D02*
Y112500D01*
G01Y110500D02*
X159000Y108500D01*
Y112500D01*
X161500Y110500D01*
G01X172000Y134500D02*
X173000D01*
Y145500D01*
X172000D01*
G01X167000D02*
X166000D01*
Y134500D01*
X167000D01*
G01X171000Y155000D02*
Y154000D01*
X182000D01*
Y155000D01*
G01X161610Y136810D02*
X163390D01*
Y165550D01*
X162010D01*
G01X160000Y190000D02*
Y180000D01*
X240000D01*
Y190000D01*
X160000D01*
G01X182000Y160000D02*
Y161000D01*
X171000D01*
Y160000D01*
G01X180000Y10000D02*
Y-10000D01*
X270000D01*
Y10000D01*
X180000D01*
G01X199500Y27500D02*
X195500D01*
G01X180500D02*
X176500D01*
G01X186500D02*
X182500D01*
G01X192500D02*
X188500D01*
G01X187000Y131500D02*
X188000D01*
Y146500D01*
X187000D01*
G01X177000D02*
X176000D01*
Y131500D01*
X177000D01*
G01X203000Y157500D02*
G03I-5000J0D01*
G01X197500Y130000D02*
X201500D01*
G01X199500D02*
X197500Y132500D01*
X201500D01*
X199500Y130000D01*
G01X197500Y134500D02*
X198500D01*
Y145500D01*
X197500D01*
G01X192500D02*
X191500D01*
Y134500D01*
X192500D01*
G01X188000Y160000D02*
Y164000D01*
G01Y162000D02*
X185500Y160000D01*
Y164000D01*
X188000Y162000D01*
G01X210000Y117500D02*
X205000D01*
G01X222500Y107500D02*
X212500D01*
Y127500D01*
X222500D01*
Y107500D01*
G01X219500Y152000D02*
X214500D01*
G01X223000D02*
X228000D01*
G01X230000Y40500D02*
Y44500D01*
G01Y33000D02*
Y37000D01*
G01X250000Y110000D02*
X230000D01*
Y80000D01*
X250000D01*
Y110000D01*
G01X231500Y152000D02*
X236500D01*
G01X299310Y1440D02*
Y4390D01*
X275690D01*
Y1440D01*
G01Y-6440D02*
Y-9390D01*
X299310D01*
Y-6440D01*
G01X297000Y11500D02*
G03I-5000J0D01*
G01X297500Y182000D02*
G03I-5000J0D01*
G54D15*
G01X-3630Y-115830D02*
X-2750Y-114670D01*
X-2000Y-114000D01*
X-1000Y-113670D01*
X-120Y-114000D01*
X500Y-114670D01*
X1000Y-115670D01*
X1130Y-116830D01*
X1000Y-117830D01*
X500Y-118830D01*
X-250Y-119670D01*
X-1120Y-120000D01*
X-2120Y-119670D01*
X-3000Y-118670D01*
X-3500Y-117170D01*
X-3630Y-115500D01*
X-3380Y-113330D01*
X-3000Y-112170D01*
X-2380Y-111000D01*
X-1500Y-110170D01*
X-630Y-110000D01*
X250Y-110330D01*
X880Y-111170D01*
G01X8750Y-110000D02*
X7750Y-110330D01*
X7000Y-111170D01*
X6500Y-112170D01*
X6120Y-113500D01*
X6000Y-115000D01*
X6120Y-116500D01*
X6500Y-117830D01*
X7000Y-118830D01*
X7750Y-119670D01*
X8750Y-120000D01*
X9750Y-119670D01*
X10500Y-118830D01*
X11000Y-117830D01*
X11380Y-116500D01*
X11500Y-115000D01*
X11380Y-113500D01*
X11000Y-112170D01*
X10500Y-111170D01*
X9750Y-110330D01*
X8750Y-110000D01*
G01X18750D02*
X17750Y-110330D01*
X17000Y-111170D01*
X16500Y-112170D01*
X16120Y-113500D01*
X16000Y-115000D01*
X16120Y-116500D01*
X16500Y-117830D01*
X17000Y-118830D01*
X17750Y-119670D01*
X18750Y-120000D01*
X19750Y-119670D01*
X20500Y-118830D01*
X21000Y-117830D01*
X21380Y-116500D01*
X21500Y-115000D01*
X21380Y-113500D01*
X21000Y-112170D01*
X20500Y-111170D01*
X19750Y-110330D01*
X18750Y-110000D01*
G01X27130Y-116670D02*
X30370D01*
G01X36370Y-115830D02*
X37250Y-114670D01*
X38000Y-114000D01*
X39000Y-113670D01*
X39880Y-114000D01*
X40500Y-114670D01*
X41000Y-115670D01*
X41130Y-116830D01*
X41000Y-117830D01*
X40500Y-118830D01*
X39750Y-119670D01*
X38880Y-120000D01*
X37880Y-119670D01*
X37000Y-118670D01*
X36500Y-117170D01*
X36370Y-115500D01*
X36620Y-113330D01*
X37000Y-112170D01*
X37620Y-111000D01*
X38500Y-110170D01*
X39370Y-110000D01*
X40250Y-110330D01*
X40880Y-111170D01*
G01X48750Y-110000D02*
X47750Y-110330D01*
X47000Y-111170D01*
X46500Y-112170D01*
X46120Y-113500D01*
X46000Y-115000D01*
X46120Y-116500D01*
X46500Y-117830D01*
X47000Y-118830D01*
X47750Y-119670D01*
X48750Y-120000D01*
X49750Y-119670D01*
X50500Y-118830D01*
X51000Y-117830D01*
X51380Y-116500D01*
X51500Y-115000D01*
X51380Y-113500D01*
X51000Y-112170D01*
X50500Y-111170D01*
X49750Y-110330D01*
X48750Y-110000D01*
G01X58750D02*
X57750Y-110330D01*
X57000Y-111170D01*
X56500Y-112170D01*
X56120Y-113500D01*
X56000Y-115000D01*
X56120Y-116500D01*
X56500Y-117830D01*
X57000Y-118830D01*
X57750Y-119670D01*
X58750Y-120000D01*
X59750Y-119670D01*
X60500Y-118830D01*
X61000Y-117830D01*
X61380Y-116500D01*
X61500Y-115000D01*
X61380Y-113500D01*
X61000Y-112170D01*
X60500Y-111170D01*
X59750Y-110330D01*
X58750Y-110000D01*
G01X66000Y-118500D02*
X66750Y-119330D01*
X67620Y-119830D01*
X68750Y-120000D01*
X69880Y-119670D01*
X70750Y-119000D01*
X71380Y-117830D01*
X71500Y-116500D01*
X71250Y-115170D01*
X70620Y-114330D01*
X69750Y-113670D01*
X68880Y-113500D01*
X68000Y-113670D01*
X66880Y-114330D01*
X67250Y-110000D01*
X70620D01*
G01X78750D02*
X77750Y-110330D01*
X77000Y-111170D01*
X76500Y-112170D01*
X76120Y-113500D01*
X76000Y-115000D01*
X76120Y-116500D01*
X76500Y-117830D01*
X77000Y-118830D01*
X77750Y-119670D01*
X78750Y-120000D01*
X79750Y-119670D01*
X80500Y-118830D01*
X81000Y-117830D01*
X81380Y-116500D01*
X81500Y-115000D01*
X81380Y-113500D01*
X81000Y-112170D01*
X80500Y-111170D01*
X79750Y-110330D01*
X78750Y-110000D01*
G01X87130Y-116670D02*
X90370D01*
G01X98750Y-110000D02*
X97750Y-110330D01*
X97000Y-111170D01*
X96500Y-112170D01*
X96120Y-113500D01*
X96000Y-115000D01*
X96120Y-116500D01*
X96500Y-117830D01*
X97000Y-118830D01*
X97750Y-119670D01*
X98750Y-120000D01*
X99750Y-119670D01*
X100500Y-118830D01*
X101000Y-117830D01*
X101380Y-116500D01*
X101500Y-115000D01*
X101380Y-113500D01*
X101000Y-112170D01*
X100500Y-111170D01*
X99750Y-110330D01*
X98750Y-110000D01*
G01X108750Y-120000D02*
Y-110000D01*
X107250Y-112000D01*
G01Y-120000D02*
X110250D01*
G01X126250D02*
Y-110000D01*
X129370D01*
X130370Y-110500D01*
X131000Y-111170D01*
X131250Y-112500D01*
X131000Y-113830D01*
X130250Y-114670D01*
X129370Y-115170D01*
X126250D01*
G01X129370D02*
X131250Y-120000D01*
G01X141250D02*
X136250D01*
Y-110000D01*
X141250D01*
G01X139250Y-114830D02*
X136250D01*
G01X145620Y-110000D02*
X148750Y-120000D01*
X151880Y-110000D01*
G01X158750D02*
X157750Y-110330D01*
X157000Y-111170D01*
X156500Y-112170D01*
X156120Y-113500D01*
X156000Y-115000D01*
X156120Y-116500D01*
X156500Y-117830D01*
X157000Y-118830D01*
X157750Y-119670D01*
X158750Y-120000D01*
X159750Y-119670D01*
X160500Y-118830D01*
X161000Y-117830D01*
X161380Y-116500D01*
X161500Y-115000D01*
X161380Y-113500D01*
X161000Y-112170D01*
X160500Y-111170D01*
X159750Y-110330D01*
X158750Y-110000D01*
G01X166370Y-111670D02*
X167130Y-110670D01*
X168000Y-110170D01*
X169000Y-110000D01*
X170250Y-110330D01*
X171130Y-111170D01*
X171380Y-112170D01*
X171250Y-113170D01*
X170750Y-114000D01*
X168250Y-115670D01*
X167130Y-116830D01*
X166370Y-118500D01*
X166120Y-120000D01*
X171380D01*
G01X186250D02*
Y-110000D01*
X189250D01*
X190250Y-110500D01*
X191000Y-111670D01*
X191250Y-113000D01*
X191000Y-114330D01*
X190370Y-115330D01*
X189250Y-115830D01*
X186250D01*
G01X196250Y-120000D02*
Y-110000D01*
X199370D01*
X200370Y-110500D01*
X201000Y-111170D01*
X201250Y-112500D01*
X201000Y-113830D01*
X200250Y-114670D01*
X199370Y-115170D01*
X196250D01*
G01X199370D02*
X201250Y-120000D01*
G01X207250Y-110000D02*
X210250D01*
G01X208750D02*
Y-120000D01*
G01X207250D02*
X210250D01*
G01X215500D02*
Y-110000D01*
X218750Y-118330D01*
X222000Y-110000D01*
Y-120000D01*
G01X225620D02*
X228750Y-110000D01*
X231880Y-120000D01*
G01X230750Y-116500D02*
X226750D01*
G01X236250Y-120000D02*
Y-110000D01*
X239370D01*
X240370Y-110500D01*
X241000Y-111170D01*
X241250Y-112500D01*
X241000Y-113830D01*
X240250Y-114670D01*
X239370Y-115170D01*
X236250D01*
G01X239370D02*
X241250Y-120000D01*
G01X248750D02*
Y-115500D01*
X246250Y-110000D01*
G01X251250D02*
X248750Y-115500D01*
G01X266120Y-118670D02*
X267130Y-119500D01*
X268250Y-120000D01*
X269250D01*
X270250Y-119500D01*
X271000Y-118670D01*
X271380Y-117500D01*
X271130Y-116330D01*
X270500Y-115330D01*
X269370Y-114670D01*
X267880Y-114330D01*
X267000Y-113670D01*
X266620Y-112500D01*
X266880Y-111330D01*
X267500Y-110500D01*
X268370Y-110000D01*
X269250D01*
X270130Y-110330D01*
X270880Y-111170D01*
G01X277250Y-110000D02*
X280250D01*
G01X278750D02*
Y-120000D01*
G01X277250D02*
X280250D01*
G01X286250Y-110000D02*
Y-120000D01*
X291250D01*
G01X296000D02*
Y-110000D01*
G01X300750D02*
X296000Y-116170D01*
G01X301500Y-120000D02*
X298130Y-113330D01*
G01X306120Y-118670D02*
X307130Y-119500D01*
X308250Y-120000D01*
X309250D01*
X310250Y-119500D01*
X311000Y-118670D01*
X311380Y-117500D01*
X311130Y-116330D01*
X310500Y-115330D01*
X309370Y-114670D01*
X307880Y-114330D01*
X307000Y-113670D01*
X306620Y-112500D01*
X306880Y-111330D01*
X307500Y-110500D01*
X308370Y-110000D01*
X309250D01*
X310130Y-110330D01*
X310880Y-111170D01*
G01X321500Y-110830D02*
X320750Y-110330D01*
X319880Y-110000D01*
X318880D01*
X317750Y-110500D01*
X316880Y-111330D01*
X316250Y-112330D01*
X315750Y-114000D01*
X315620Y-115500D01*
X315880Y-117000D01*
X316250Y-118000D01*
X317000Y-119000D01*
X317880Y-119670D01*
X318750Y-120000D01*
X319620D01*
X320500Y-119670D01*
X321250Y-119170D01*
X321880Y-118500D01*
G01X326250Y-120000D02*
Y-110000D01*
X329370D01*
X330370Y-110500D01*
X331000Y-111170D01*
X331250Y-112500D01*
X331000Y-113830D01*
X330250Y-114670D01*
X329370Y-115170D01*
X326250D01*
G01X329370D02*
X331250Y-120000D01*
G01X341250D02*
X336250D01*
Y-110000D01*
X341250D01*
G01X339250Y-114830D02*
X336250D01*
G01X351250Y-120000D02*
X346250D01*
Y-110000D01*
X351250D01*
G01X349250Y-114830D02*
X346250D01*
G01X355880Y-120000D02*
Y-110000D01*
X361620Y-120000D01*
Y-110000D01*
G54D16*
G01X-15000Y12500D02*
Y-15000D01*
X12500D01*
G01X-15000Y167500D02*
Y195000D01*
X12500D01*
G01X327500Y12500D02*
Y-15000D01*
X302500D01*
G01X300000Y195000D02*
X327500D01*
Y167500D01*
G54D17*
G01X155000Y191500D02*
X52500D01*
G01X170000Y-11500D02*
X90000D01*
G01X240000Y191500D02*
X160000D01*
G01X180000Y-11500D02*
X240000D01*
M02*
