G04 ================== begin FILE IDENTIFICATION RECORD ==================*
G04 Layout Name:  C:/Cadencework/CY8CKIT-042/600-60050-01_REV02.brd*
G04 Film Name:    ssm*
G04 File Format:  Gerber RS274X*
G04 File Origin:  Cadence Allegro 16.5-S024*
G04 Origin Date:  Mon Mar 18 12:28:03 2013*
G04 *
G04 Layer:  PIN/SOLDERMASK_BOTTOM*
G04 Layer:  PACKAGE GEOMETRY/SOLDERMASK_BOTTOM*
G04 Layer:  BOARD GEOMETRY/TOOLING_CORNERS*
G04 Layer:  BOARD GEOMETRY/SOLDERMASK_BOTTOM*
G04 *
G04 Offset:    (0.0 0.0)*
G04 Mirror:    No*
G04 Mode:      Positive*
G04 Rotation:  0*
G04 FullContactRelief:  No*
G04 UndefLineWidth:     10.0*
G04 ================== end FILE IDENTIFICATION RECORD ====================*
%FSLAX25Y25*MOIN*%
%IR0*IPPOS*OFA0.00000B0.00000*MIA0B0*SFA1.00000B1.00000*%
%ADD10C,.13*%
%ADD11C,.07*%
%ADD14C,.036*%
%ADD13C,.065*%
%ADD12R,.07X.07*%
%ADD15C,.012*%
%ADD16C,.05*%
G75*
%LPD*%
G75*
G36*
G01X242000Y141500D02*
Y116500D01*
X246000D01*
Y141500D01*
X242000D01*
G37*
G54D10*
X0Y0D03*
Y180000D03*
X312500Y0D03*
Y180000D03*
G54D11*
X-4000Y18000D03*
Y28000D03*
Y38000D03*
Y48000D03*
Y58000D03*
Y85000D03*
X6000Y18000D03*
Y28000D03*
Y38000D03*
Y48000D03*
Y58000D03*
Y68000D03*
X45000Y-2500D03*
X25000D03*
X35000D03*
X65000D03*
X55000D03*
X59000Y185000D03*
X69000D03*
X95000Y-5000D03*
X79000Y185000D03*
X89000D03*
X99000D03*
X105000Y-5000D03*
X115000D03*
X125000D03*
X101000Y159000D03*
X111000D03*
X119000Y185000D03*
X109000D03*
X135000Y-5000D03*
X145000D03*
X139000Y185000D03*
X129000D03*
X155000Y-5000D03*
X165000Y185000D03*
X175000D03*
X195000Y-5000D03*
Y5000D03*
X185000D03*
Y185000D03*
X195000D03*
X225000Y-5000D03*
X215000D03*
X205000D03*
X225000Y5000D03*
X215000D03*
X205000D03*
X217500Y112500D03*
X225000Y185000D03*
X205000D03*
X215000D03*
X245000Y-5000D03*
X235000D03*
X245000Y5000D03*
X235000D03*
X245000Y85000D03*
X235000D03*
X245000Y95000D03*
X235000D03*
X245000Y105000D03*
X265000Y-5000D03*
X255000D03*
X265000Y5000D03*
X255000D03*
G54D12*
X-4000Y68000D03*
Y95000D03*
X75000Y-2500D03*
X121000Y159000D03*
X149000Y185000D03*
X165000Y-5000D03*
X185000D03*
X217500Y122500D03*
X235000Y105000D03*
Y185000D03*
G54D13*
X12500Y7500D03*
X8500Y167000D03*
X45000Y170000D03*
X198000Y157500D03*
X292000Y11500D03*
X292500Y182000D03*
G54D14*
X10670Y128900D03*
Y146100D03*
G54D15*
G01X321130Y-160830D02*
X320250Y-159670D01*
X319500Y-159000D01*
X318500Y-158670D01*
X317620Y-159000D01*
X317000Y-159670D01*
X316500Y-160670D01*
X316370Y-161830D01*
X316500Y-162830D01*
X317000Y-163830D01*
X317750Y-164670D01*
X318620Y-165000D01*
X319620Y-164670D01*
X320500Y-163670D01*
X321000Y-162170D01*
X321130Y-160500D01*
X320880Y-158330D01*
X320500Y-157170D01*
X319880Y-156000D01*
X319000Y-155170D01*
X318130Y-155000D01*
X317250Y-155330D01*
X316620Y-156170D01*
G01X308750Y-155000D02*
X309750Y-155330D01*
X310500Y-156170D01*
X311000Y-157170D01*
X311380Y-158500D01*
X311500Y-160000D01*
X311380Y-161500D01*
X311000Y-162830D01*
X310500Y-163830D01*
X309750Y-164670D01*
X308750Y-165000D01*
X307750Y-164670D01*
X307000Y-163830D01*
X306500Y-162830D01*
X306120Y-161500D01*
X306000Y-160000D01*
X306120Y-158500D01*
X306500Y-157170D01*
X307000Y-156170D01*
X307750Y-155330D01*
X308750Y-155000D01*
G01X298750D02*
X299750Y-155330D01*
X300500Y-156170D01*
X301000Y-157170D01*
X301380Y-158500D01*
X301500Y-160000D01*
X301380Y-161500D01*
X301000Y-162830D01*
X300500Y-163830D01*
X299750Y-164670D01*
X298750Y-165000D01*
X297750Y-164670D01*
X297000Y-163830D01*
X296500Y-162830D01*
X296120Y-161500D01*
X296000Y-160000D01*
X296120Y-158500D01*
X296500Y-157170D01*
X297000Y-156170D01*
X297750Y-155330D01*
X298750Y-155000D01*
G01X290370Y-161670D02*
X287130D01*
G01X281130Y-160830D02*
X280250Y-159670D01*
X279500Y-159000D01*
X278500Y-158670D01*
X277620Y-159000D01*
X277000Y-159670D01*
X276500Y-160670D01*
X276370Y-161830D01*
X276500Y-162830D01*
X277000Y-163830D01*
X277750Y-164670D01*
X278620Y-165000D01*
X279620Y-164670D01*
X280500Y-163670D01*
X281000Y-162170D01*
X281130Y-160500D01*
X280880Y-158330D01*
X280500Y-157170D01*
X279880Y-156000D01*
X279000Y-155170D01*
X278130Y-155000D01*
X277250Y-155330D01*
X276620Y-156170D01*
G01X268750Y-155000D02*
X269750Y-155330D01*
X270500Y-156170D01*
X271000Y-157170D01*
X271380Y-158500D01*
X271500Y-160000D01*
X271380Y-161500D01*
X271000Y-162830D01*
X270500Y-163830D01*
X269750Y-164670D01*
X268750Y-165000D01*
X267750Y-164670D01*
X267000Y-163830D01*
X266500Y-162830D01*
X266120Y-161500D01*
X266000Y-160000D01*
X266120Y-158500D01*
X266500Y-157170D01*
X267000Y-156170D01*
X267750Y-155330D01*
X268750Y-155000D01*
G01X258750D02*
X259750Y-155330D01*
X260500Y-156170D01*
X261000Y-157170D01*
X261380Y-158500D01*
X261500Y-160000D01*
X261380Y-161500D01*
X261000Y-162830D01*
X260500Y-163830D01*
X259750Y-164670D01*
X258750Y-165000D01*
X257750Y-164670D01*
X257000Y-163830D01*
X256500Y-162830D01*
X256120Y-161500D01*
X256000Y-160000D01*
X256120Y-158500D01*
X256500Y-157170D01*
X257000Y-156170D01*
X257750Y-155330D01*
X258750Y-155000D01*
G01X251500Y-163500D02*
X250750Y-164330D01*
X249880Y-164830D01*
X248750Y-165000D01*
X247620Y-164670D01*
X246750Y-164000D01*
X246120Y-162830D01*
X246000Y-161500D01*
X246250Y-160170D01*
X246880Y-159330D01*
X247750Y-158670D01*
X248620Y-158500D01*
X249500Y-158670D01*
X250620Y-159330D01*
X250250Y-155000D01*
X246880D01*
G01X238750D02*
X239750Y-155330D01*
X240500Y-156170D01*
X241000Y-157170D01*
X241380Y-158500D01*
X241500Y-160000D01*
X241380Y-161500D01*
X241000Y-162830D01*
X240500Y-163830D01*
X239750Y-164670D01*
X238750Y-165000D01*
X237750Y-164670D01*
X237000Y-163830D01*
X236500Y-162830D01*
X236120Y-161500D01*
X236000Y-160000D01*
X236120Y-158500D01*
X236500Y-157170D01*
X237000Y-156170D01*
X237750Y-155330D01*
X238750Y-155000D01*
G01X230370Y-161670D02*
X227130D01*
G01X218750Y-155000D02*
X219750Y-155330D01*
X220500Y-156170D01*
X221000Y-157170D01*
X221380Y-158500D01*
X221500Y-160000D01*
X221380Y-161500D01*
X221000Y-162830D01*
X220500Y-163830D01*
X219750Y-164670D01*
X218750Y-165000D01*
X217750Y-164670D01*
X217000Y-163830D01*
X216500Y-162830D01*
X216120Y-161500D01*
X216000Y-160000D01*
X216120Y-158500D01*
X216500Y-157170D01*
X217000Y-156170D01*
X217750Y-155330D01*
X218750Y-155000D01*
G01X208750Y-165000D02*
Y-155000D01*
X210250Y-157000D01*
G01Y-165000D02*
X207250D01*
G01X191250D02*
Y-155000D01*
X188130D01*
X187130Y-155500D01*
X186500Y-156170D01*
X186250Y-157500D01*
X186500Y-158830D01*
X187250Y-159670D01*
X188130Y-160170D01*
X191250D01*
G01X188130D02*
X186250Y-165000D01*
G01X176250D02*
X181250D01*
Y-155000D01*
X176250D01*
G01X178250Y-159830D02*
X181250D01*
G01X171880Y-155000D02*
X168750Y-165000D01*
X165620Y-155000D01*
G01X158750D02*
X159750Y-155330D01*
X160500Y-156170D01*
X161000Y-157170D01*
X161380Y-158500D01*
X161500Y-160000D01*
X161380Y-161500D01*
X161000Y-162830D01*
X160500Y-163830D01*
X159750Y-164670D01*
X158750Y-165000D01*
X157750Y-164670D01*
X157000Y-163830D01*
X156500Y-162830D01*
X156120Y-161500D01*
X156000Y-160000D01*
X156120Y-158500D01*
X156500Y-157170D01*
X157000Y-156170D01*
X157750Y-155330D01*
X158750Y-155000D01*
G01X151130Y-156670D02*
X150370Y-155670D01*
X149500Y-155170D01*
X148500Y-155000D01*
X147250Y-155330D01*
X146370Y-156170D01*
X146120Y-157170D01*
X146250Y-158170D01*
X146750Y-159000D01*
X149250Y-160670D01*
X150370Y-161830D01*
X151130Y-163500D01*
X151380Y-165000D01*
X146120D01*
G01X131380Y-163670D02*
X130370Y-164500D01*
X129250Y-165000D01*
X128250D01*
X127250Y-164500D01*
X126500Y-163670D01*
X126120Y-162500D01*
X126370Y-161330D01*
X127000Y-160330D01*
X128130Y-159670D01*
X129620Y-159330D01*
X130500Y-158670D01*
X130880Y-157500D01*
X130620Y-156330D01*
X130000Y-155500D01*
X129130Y-155000D01*
X128250D01*
X127370Y-155330D01*
X126620Y-156170D01*
G01X116250Y-165000D02*
X121250D01*
Y-155000D01*
X116250D01*
G01X118250Y-159830D02*
X121250D01*
G01X106000Y-155830D02*
X106750Y-155330D01*
X107620Y-155000D01*
X108620D01*
X109750Y-155500D01*
X110620Y-156330D01*
X111250Y-157330D01*
X111750Y-159000D01*
X111880Y-160500D01*
X111620Y-162000D01*
X111250Y-163000D01*
X110500Y-164000D01*
X109620Y-164670D01*
X108750Y-165000D01*
X107880D01*
X107000Y-164670D01*
X106250Y-164170D01*
X105620Y-163500D01*
G01X98750Y-165000D02*
X99750Y-164830D01*
X100620Y-164170D01*
X101380Y-163170D01*
X101880Y-162000D01*
X102130Y-160670D01*
Y-159330D01*
X101880Y-158000D01*
X101380Y-156830D01*
X100620Y-155830D01*
X99750Y-155170D01*
X98750Y-155000D01*
X97750Y-155170D01*
X96880Y-155830D01*
X96120Y-156830D01*
X95620Y-158000D01*
X95370Y-159330D01*
Y-160670D01*
X95620Y-162000D01*
X96120Y-163170D01*
X96880Y-164170D01*
X97750Y-164830D01*
X98750Y-165000D01*
G01X91620D02*
Y-155000D01*
X85880Y-165000D01*
Y-155000D01*
G01X81500Y-165000D02*
Y-155000D01*
X79000D01*
X78000Y-155500D01*
X77250Y-156170D01*
X76620Y-157170D01*
X76120Y-158330D01*
X76000Y-160000D01*
X76120Y-161670D01*
X76620Y-162830D01*
X77250Y-163830D01*
X78000Y-164500D01*
X79000Y-165000D01*
X81500D01*
G01X71880D02*
X68750Y-155000D01*
X65620Y-165000D01*
G01X66750Y-161500D02*
X70750D01*
G01X61250Y-165000D02*
Y-155000D01*
X58130D01*
X57130Y-155500D01*
X56500Y-156170D01*
X56250Y-157500D01*
X56500Y-158830D01*
X57250Y-159670D01*
X58130Y-160170D01*
X61250D01*
G01X58130D02*
X56250Y-165000D01*
G01X48750D02*
Y-160500D01*
X51250Y-155000D01*
G01X46250D02*
X48750Y-160500D01*
G01X31380Y-163670D02*
X30370Y-164500D01*
X29250Y-165000D01*
X28250D01*
X27250Y-164500D01*
X26500Y-163670D01*
X26120Y-162500D01*
X26370Y-161330D01*
X27000Y-160330D01*
X28130Y-159670D01*
X29620Y-159330D01*
X30500Y-158670D01*
X30880Y-157500D01*
X30620Y-156330D01*
X30000Y-155500D01*
X29130Y-155000D01*
X28250D01*
X27370Y-155330D01*
X26620Y-156170D01*
G01X20250Y-155000D02*
X17250D01*
G01X18750D02*
Y-165000D01*
G01X20250D02*
X17250D01*
G01X11500D02*
Y-155000D01*
X9000D01*
X8000Y-155500D01*
X7250Y-156170D01*
X6620Y-157170D01*
X6120Y-158330D01*
X6000Y-160000D01*
X6120Y-161670D01*
X6620Y-162830D01*
X7250Y-163830D01*
X8000Y-164500D01*
X9000Y-165000D01*
X11500D01*
G01X-3750D02*
X1250D01*
Y-155000D01*
X-3750D01*
G01X-1750Y-159830D02*
X1250D01*
G54D16*
G01X-15000Y12500D02*
Y-15000D01*
X12500D01*
G01X-15000Y167500D02*
Y195000D01*
X12500D01*
G01X327500Y12500D02*
Y-15000D01*
X302500D01*
G01X300000Y195000D02*
X327500D01*
Y167500D01*
M02*
