G04 ================== begin FILE IDENTIFICATION RECORD ==================*
G04 Layout Name:  C:/Cadencework/CY8CKIT-042/600-60050-01_REV02.brd*
G04 Film Name:    sss*
G04 File Format:  Gerber RS274X*
G04 File Origin:  Cadence Allegro 16.5-S024*
G04 Origin Date:  Mon Mar 18 12:28:03 2013*
G04 *
G04 Layer:  REF DES/SILKSCREEN_BOTTOM*
G04 Layer:  PACKAGE GEOMETRY/SILKSCREEN_BOTTOM*
G04 Layer:  DRAWING FORMAT/SILK_LINE_TOP*
G04 Layer:  BOARD GEOMETRY/TOOLING_CORNERS*
G04 Layer:  BOARD GEOMETRY/SILKSCREEN_BOTTOM*
G04 *
G04 Offset:    (0.0 0.0)*
G04 Mirror:    No*
G04 Mode:      Positive*
G04 Rotation:  0*
G04 FullContactRelief:  No*
G04 UndefLineWidth:     10.0*
G04 ================== end FILE IDENTIFICATION RECORD ====================*
%FSLAX25Y25*MOIN*%
%IR0*IPPOS*OFA0.00000B0.00000*MIA0B0*SFA1.00000B1.00000*%
%ADD10C,.005*%
%ADD11C,.01*%
%ADD12C,.012*%
%ADD13C,.05*%
G75*
%LPD*%
G75*
G54D10*
G01X-8450Y14500D02*
Y17300D01*
X-7930Y16740D01*
G01Y14500D02*
X-8970D01*
G01X-11550D02*
Y17300D01*
X-11030Y16740D01*
G01Y14500D02*
X-12070D01*
G01X-580Y75560D02*
X-800Y75280D01*
X-1060Y75090D01*
X-1360Y75000D01*
X-1710Y75090D01*
X-1970Y75280D01*
X-2230Y75560D01*
X-2320Y75930D01*
Y77800D01*
G01X-4550Y75000D02*
X-4850Y75050D01*
X-5200Y75190D01*
X-5420Y75420D01*
X-5500Y75750D01*
X-5420Y76070D01*
X-5160Y76350D01*
X-4770Y76490D01*
X-4330D01*
X-4070Y76590D01*
X-3860Y76820D01*
X-3770Y77150D01*
X-3900Y77470D01*
X-4200Y77710D01*
X-4550Y77800D01*
X-4900Y77710D01*
X-5200Y77470D01*
X-5330Y77150D01*
X-5240Y76820D01*
X-5030Y76590D01*
X-4770Y76490D01*
X-4330D01*
X-3940Y76350D01*
X-3680Y76070D01*
X-3600Y75750D01*
X-3680Y75420D01*
X-3900Y75190D01*
X-4250Y75050D01*
X-4550Y75000D01*
G01X-9500Y72000D02*
Y74800D01*
X-8980Y74240D01*
G01Y72000D02*
X-10020D01*
G01X470Y100560D02*
X250Y100280D01*
X-10Y100090D01*
X-310Y100000D01*
X-660Y100090D01*
X-920Y100280D01*
X-1180Y100560D01*
X-1270Y100930D01*
Y102800D01*
G01X-3500Y100000D02*
Y102800D01*
X-2980Y102240D01*
G01Y100000D02*
X-4020D01*
G01X-6600D02*
Y102800D01*
X-6080Y102240D01*
G01Y100000D02*
X-7120D01*
G01X20820Y-1330D02*
X20520Y-1010D01*
X20260Y-820D01*
X19910Y-730D01*
X19610Y-820D01*
X19390Y-1010D01*
X19220Y-1290D01*
X19180Y-1610D01*
X19220Y-1890D01*
X19390Y-2170D01*
X19650Y-2410D01*
X19960Y-2500D01*
X20300Y-2410D01*
X20610Y-2130D01*
X20780Y-1710D01*
X20820Y-1240D01*
X20740Y-630D01*
X20610Y-310D01*
X20390Y20D01*
X20090Y250D01*
X19780Y300D01*
X19480Y210D01*
X19260Y-30D01*
G01X17740Y12900D02*
X16870D01*
Y12060D01*
X17130Y11780D01*
X17440Y11590D01*
X17870Y11500D01*
X18300Y11590D01*
X18610Y11780D01*
X18870Y12060D01*
X19040Y12390D01*
X19130Y12760D01*
Y13090D01*
X19040Y13370D01*
X18870Y13690D01*
X18610Y13970D01*
X18350Y14160D01*
X18000Y14300D01*
X17700D01*
X17350Y14210D01*
X17090Y14020D01*
G01X15900Y11500D02*
Y14300D01*
X13900Y11500D01*
Y14300D01*
G01X12750Y11500D02*
Y14300D01*
X11890D01*
X11540Y14160D01*
X11280Y13970D01*
X11060Y13690D01*
X10890Y13370D01*
X10850Y12900D01*
X10890Y12430D01*
X11060Y12110D01*
X11280Y11830D01*
X11540Y11640D01*
X11890Y11500D01*
X12750D01*
G01X47770Y19500D02*
Y22300D01*
X46730D01*
X46380Y22160D01*
X46120Y21830D01*
X46030Y21460D01*
X46120Y21090D01*
X46340Y20810D01*
X46730Y20670D01*
X47770D01*
G01X44750Y20060D02*
X44490Y19730D01*
X44150Y19550D01*
X43760Y19500D01*
X43410Y19550D01*
X43060Y19780D01*
X42850Y20060D01*
X42800Y20340D01*
X42890Y20670D01*
X43190Y20900D01*
X43500Y20990D01*
X43890D01*
G01X43500D02*
X43240Y21130D01*
X43020Y21370D01*
X42930Y21650D01*
X43020Y21930D01*
X43240Y22160D01*
X43630Y22300D01*
X44020Y22250D01*
X44410Y22070D01*
G01X40700Y19410D02*
X40790Y19450D01*
Y19550D01*
X40700Y19590D01*
X40610Y19550D01*
Y19450D01*
X40700Y19410D01*
G01X37600Y22300D02*
X37950Y22210D01*
X38210Y21970D01*
X38380Y21690D01*
X38510Y21320D01*
X38550Y20900D01*
X38510Y20480D01*
X38380Y20110D01*
X38210Y19830D01*
X37950Y19590D01*
X37600Y19500D01*
X37250Y19590D01*
X36990Y19830D01*
X36820Y20110D01*
X36690Y20480D01*
X36650Y20900D01*
X36690Y21320D01*
X36820Y21690D01*
X36990Y21970D01*
X37250Y22210D01*
X37600Y22300D01*
G01X18740Y20900D02*
X17870D01*
Y20060D01*
X18130Y19780D01*
X18440Y19590D01*
X18870Y19500D01*
X19300Y19590D01*
X19610Y19780D01*
X19870Y20060D01*
X20040Y20390D01*
X20130Y20760D01*
Y21090D01*
X20040Y21370D01*
X19870Y21690D01*
X19610Y21970D01*
X19350Y22160D01*
X19000Y22300D01*
X18700D01*
X18350Y22210D01*
X18090Y22020D01*
G01X16900Y19500D02*
Y22300D01*
X14900Y19500D01*
Y22300D01*
G01X13750Y19500D02*
Y22300D01*
X12890D01*
X12540Y22160D01*
X12280Y21970D01*
X12060Y21690D01*
X11890Y21370D01*
X11850Y20900D01*
X11890Y20430D01*
X12060Y20110D01*
X12280Y19830D01*
X12540Y19640D01*
X12890Y19500D01*
X13750D01*
G01X50370Y26500D02*
Y29300D01*
X49330D01*
X48980Y29160D01*
X48720Y28830D01*
X48630Y28460D01*
X48720Y28090D01*
X48940Y27810D01*
X49330Y27670D01*
X50370D01*
G01X46400Y26500D02*
Y29300D01*
X46920Y28740D01*
G01Y26500D02*
X45880D01*
G01X44120Y28830D02*
X43860Y29110D01*
X43560Y29250D01*
X43210Y29300D01*
X42780Y29210D01*
X42480Y28970D01*
X42390Y28690D01*
X42430Y28410D01*
X42610Y28180D01*
X43470Y27710D01*
X43860Y27390D01*
X44120Y26920D01*
X44210Y26500D01*
X42390D01*
G01X40200Y26410D02*
X40290Y26450D01*
Y26550D01*
X40200Y26590D01*
X40110Y26550D01*
Y26450D01*
X40200Y26410D01*
G01X37190Y26500D02*
X37100Y27110D01*
X36970Y27620D01*
X36800Y28090D01*
X36580Y28600D01*
X36230Y29300D01*
X37970D01*
G01X25570Y26500D02*
Y29300D01*
X24530D01*
X24180Y29160D01*
X23920Y28830D01*
X23830Y28460D01*
X23920Y28090D01*
X24140Y27810D01*
X24530Y27670D01*
X25570D01*
G01X21600Y26500D02*
Y29300D01*
X22120Y28740D01*
G01Y26500D02*
X21080D01*
G01X19320Y28830D02*
X19060Y29110D01*
X18760Y29250D01*
X18410Y29300D01*
X17980Y29210D01*
X17680Y28970D01*
X17590Y28690D01*
X17630Y28410D01*
X17810Y28180D01*
X18670Y27710D01*
X19060Y27390D01*
X19320Y26920D01*
X19410Y26500D01*
X17590D01*
G01X15400Y26410D02*
X15490Y26450D01*
Y26550D01*
X15400Y26590D01*
X15310Y26550D01*
Y26450D01*
X15400Y26410D01*
G01X13120Y27670D02*
X12820Y27990D01*
X12560Y28180D01*
X12210Y28270D01*
X11910Y28180D01*
X11690Y27990D01*
X11520Y27710D01*
X11480Y27390D01*
X11520Y27110D01*
X11690Y26830D01*
X11950Y26590D01*
X12260Y26500D01*
X12600Y26590D01*
X12910Y26870D01*
X13080Y27290D01*
X13120Y27760D01*
X13040Y28370D01*
X12910Y28690D01*
X12690Y29020D01*
X12390Y29250D01*
X12080Y29300D01*
X11780Y29210D01*
X11560Y28970D01*
G01X2550Y21500D02*
Y24300D01*
X3070Y23740D01*
G01Y21500D02*
X2030D01*
G01X270Y23830D02*
X10Y24110D01*
X-290Y24250D01*
X-640Y24300D01*
X-1070Y24210D01*
X-1370Y23970D01*
X-1460Y23690D01*
X-1420Y23410D01*
X-1240Y23180D01*
X-380Y22710D01*
X10Y22390D01*
X270Y21920D01*
X360Y21500D01*
X-1460D01*
G01X18100Y17800D02*
Y15000D01*
G01X19100Y17800D02*
X17100D01*
G01X15870Y15000D02*
Y17800D01*
X14830D01*
X14480Y17660D01*
X14220Y17330D01*
X14130Y16960D01*
X14220Y16590D01*
X14440Y16310D01*
X14830Y16170D01*
X15870D01*
G01X12850Y15560D02*
X12590Y15230D01*
X12250Y15050D01*
X11860Y15000D01*
X11510Y15050D01*
X11160Y15280D01*
X10950Y15560D01*
X10900Y15840D01*
X10990Y16170D01*
X11290Y16400D01*
X11600Y16490D01*
X11990D01*
G01X11600D02*
X11340Y16630D01*
X11120Y16870D01*
X11030Y17150D01*
X11120Y17430D01*
X11340Y17660D01*
X11730Y17800D01*
X12120Y17750D01*
X12510Y17570D01*
G01X47270Y36500D02*
Y39300D01*
X46230D01*
X45880Y39160D01*
X45620Y38830D01*
X45530Y38460D01*
X45620Y38090D01*
X45840Y37810D01*
X46230Y37670D01*
X47270D01*
G01X44250Y37060D02*
X43990Y36730D01*
X43650Y36550D01*
X43260Y36500D01*
X42910Y36550D01*
X42560Y36780D01*
X42350Y37060D01*
X42300Y37340D01*
X42390Y37670D01*
X42690Y37900D01*
X43000Y37990D01*
X43390D01*
G01X43000D02*
X42740Y38130D01*
X42520Y38370D01*
X42430Y38650D01*
X42520Y38930D01*
X42740Y39160D01*
X43130Y39300D01*
X43520Y39250D01*
X43910Y39070D01*
G01X40200Y36410D02*
X40290Y36450D01*
Y36550D01*
X40200Y36590D01*
X40110Y36550D01*
Y36450D01*
X40200Y36410D01*
G01X37190Y36500D02*
X37100Y37110D01*
X36970Y37620D01*
X36800Y38090D01*
X36580Y38600D01*
X36230Y39300D01*
X37970D01*
G01X22470Y36500D02*
Y39300D01*
X21430D01*
X21080Y39160D01*
X20820Y38830D01*
X20730Y38460D01*
X20820Y38090D01*
X21040Y37810D01*
X21430Y37670D01*
X22470D01*
G01X19450Y37060D02*
X19190Y36730D01*
X18850Y36550D01*
X18460Y36500D01*
X18110Y36550D01*
X17760Y36780D01*
X17550Y37060D01*
X17500Y37340D01*
X17590Y37670D01*
X17890Y37900D01*
X18200Y37990D01*
X18590D01*
G01X18200D02*
X17940Y38130D01*
X17720Y38370D01*
X17630Y38650D01*
X17720Y38930D01*
X17940Y39160D01*
X18330Y39300D01*
X18720Y39250D01*
X19110Y39070D01*
G01X15400Y36410D02*
X15490Y36450D01*
Y36550D01*
X15400Y36590D01*
X15310Y36550D01*
Y36450D01*
X15400Y36410D01*
G01X13120Y37670D02*
X12820Y37990D01*
X12560Y38180D01*
X12210Y38270D01*
X11910Y38180D01*
X11690Y37990D01*
X11520Y37710D01*
X11480Y37390D01*
X11520Y37110D01*
X11690Y36830D01*
X11950Y36590D01*
X12260Y36500D01*
X12600Y36590D01*
X12910Y36870D01*
X13080Y37290D01*
X13120Y37760D01*
X13040Y38370D01*
X12910Y38690D01*
X12690Y39020D01*
X12390Y39250D01*
X12080Y39300D01*
X11780Y39210D01*
X11560Y38970D01*
G01X47270Y47000D02*
Y49800D01*
X46230D01*
X45880Y49660D01*
X45620Y49330D01*
X45530Y48960D01*
X45620Y48590D01*
X45840Y48310D01*
X46230Y48170D01*
X47270D01*
G01X44250Y47560D02*
X43990Y47230D01*
X43650Y47050D01*
X43260Y47000D01*
X42910Y47050D01*
X42560Y47280D01*
X42350Y47560D01*
X42300Y47840D01*
X42390Y48170D01*
X42690Y48400D01*
X43000Y48490D01*
X43390D01*
G01X43000D02*
X42740Y48630D01*
X42520Y48870D01*
X42430Y49150D01*
X42520Y49430D01*
X42740Y49660D01*
X43130Y49800D01*
X43520Y49750D01*
X43910Y49570D01*
G01X40200Y46910D02*
X40290Y46950D01*
Y47050D01*
X40200Y47090D01*
X40110Y47050D01*
Y46950D01*
X40200Y46910D01*
G01X38050Y47420D02*
X37790Y47190D01*
X37490Y47050D01*
X37100Y47000D01*
X36710Y47090D01*
X36410Y47280D01*
X36190Y47610D01*
X36150Y47980D01*
X36230Y48350D01*
X36450Y48590D01*
X36750Y48770D01*
X37060Y48820D01*
X37360Y48770D01*
X37750Y48590D01*
X37620Y49800D01*
X36450D01*
G01X22470Y47000D02*
Y49800D01*
X21430D01*
X21080Y49660D01*
X20820Y49330D01*
X20730Y48960D01*
X20820Y48590D01*
X21040Y48310D01*
X21430Y48170D01*
X22470D01*
G01X19450Y47560D02*
X19190Y47230D01*
X18850Y47050D01*
X18460Y47000D01*
X18110Y47050D01*
X17760Y47280D01*
X17550Y47560D01*
X17500Y47840D01*
X17590Y48170D01*
X17890Y48400D01*
X18200Y48490D01*
X18590D01*
G01X18200D02*
X17940Y48630D01*
X17720Y48870D01*
X17630Y49150D01*
X17720Y49430D01*
X17940Y49660D01*
X18330Y49800D01*
X18720Y49750D01*
X19110Y49570D01*
G01X15400Y46910D02*
X15490Y46950D01*
Y47050D01*
X15400Y47090D01*
X15310Y47050D01*
Y46950D01*
X15400Y46910D01*
G01X11780Y47000D02*
Y49800D01*
X13380Y47790D01*
X11220D01*
G01X47270Y66500D02*
Y69300D01*
X46230D01*
X45880Y69160D01*
X45620Y68830D01*
X45530Y68460D01*
X45620Y68090D01*
X45840Y67810D01*
X46230Y67670D01*
X47270D01*
G01X43300Y66500D02*
Y69300D01*
X43820Y68740D01*
G01Y66500D02*
X42780D01*
G01X40200Y66410D02*
X40290Y66450D01*
Y66550D01*
X40200Y66590D01*
X40110Y66550D01*
Y66450D01*
X40200Y66410D01*
G01X37920Y68830D02*
X37660Y69110D01*
X37360Y69250D01*
X37010Y69300D01*
X36580Y69210D01*
X36280Y68970D01*
X36190Y68690D01*
X36230Y68410D01*
X36410Y68180D01*
X37270Y67710D01*
X37660Y67390D01*
X37920Y66920D01*
X38010Y66500D01*
X36190D01*
G01X28670D02*
Y69300D01*
X27630D01*
X27280Y69160D01*
X27020Y68830D01*
X26930Y68460D01*
X27020Y68090D01*
X27240Y67810D01*
X27630Y67670D01*
X28670D01*
G01X25650Y66920D02*
X25390Y66690D01*
X25090Y66550D01*
X24700Y66500D01*
X24310Y66590D01*
X24010Y66780D01*
X23790Y67110D01*
X23750Y67480D01*
X23830Y67850D01*
X24050Y68090D01*
X24350Y68270D01*
X24660Y68320D01*
X24960Y68270D01*
X25350Y68090D01*
X25220Y69300D01*
X24050D01*
G01X21600Y66410D02*
X21690Y66450D01*
Y66550D01*
X21600Y66590D01*
X21510Y66550D01*
Y66450D01*
X21600Y66410D01*
G01X19580Y69300D02*
X18500Y66500D01*
X17420Y69300D01*
G01X16350Y66500D02*
Y69300D01*
X15490D01*
X15140Y69160D01*
X14880Y68970D01*
X14660Y68690D01*
X14490Y68370D01*
X14450Y67900D01*
X14490Y67430D01*
X14660Y67110D01*
X14880Y66830D01*
X15140Y66640D01*
X15490Y66500D01*
X16350D01*
G01X13250D02*
Y69300D01*
X12390D01*
X12040Y69160D01*
X11780Y68970D01*
X11560Y68690D01*
X11390Y68370D01*
X11350Y67900D01*
X11390Y67430D01*
X11560Y67110D01*
X11780Y66830D01*
X12040Y66640D01*
X12390Y66500D01*
X13250D01*
G01X47270Y56500D02*
Y59300D01*
X46230D01*
X45880Y59160D01*
X45620Y58830D01*
X45530Y58460D01*
X45620Y58090D01*
X45840Y57810D01*
X46230Y57670D01*
X47270D01*
G01X43300Y59300D02*
X43650Y59210D01*
X43910Y58970D01*
X44080Y58690D01*
X44210Y58320D01*
X44250Y57900D01*
X44210Y57480D01*
X44080Y57110D01*
X43910Y56830D01*
X43650Y56590D01*
X43300Y56500D01*
X42950Y56590D01*
X42690Y56830D01*
X42520Y57110D01*
X42390Y57480D01*
X42350Y57900D01*
X42390Y58320D01*
X42520Y58690D01*
X42690Y58970D01*
X42950Y59210D01*
X43300Y59300D01*
G01X40200Y56410D02*
X40290Y56450D01*
Y56550D01*
X40200Y56590D01*
X40110Y56550D01*
Y56450D01*
X40200Y56410D01*
G01X37100Y56500D02*
Y59300D01*
X37620Y58740D01*
G01Y56500D02*
X36580D01*
G01X22470D02*
Y59300D01*
X21430D01*
X21080Y59160D01*
X20820Y58830D01*
X20730Y58460D01*
X20820Y58090D01*
X21040Y57810D01*
X21430Y57670D01*
X22470D01*
G01X18500Y59300D02*
X18850Y59210D01*
X19110Y58970D01*
X19280Y58690D01*
X19410Y58320D01*
X19450Y57900D01*
X19410Y57480D01*
X19280Y57110D01*
X19110Y56830D01*
X18850Y56590D01*
X18500Y56500D01*
X18150Y56590D01*
X17890Y56830D01*
X17720Y57110D01*
X17590Y57480D01*
X17550Y57900D01*
X17590Y58320D01*
X17720Y58690D01*
X17890Y58970D01*
X18150Y59210D01*
X18500Y59300D01*
G01X15400Y56410D02*
X15490Y56450D01*
Y56550D01*
X15400Y56590D01*
X15310Y56550D01*
Y56450D01*
X15400Y56410D01*
G01X12300Y59300D02*
X12650Y59210D01*
X12910Y58970D01*
X13080Y58690D01*
X13210Y58320D01*
X13250Y57900D01*
X13210Y57480D01*
X13080Y57110D01*
X12910Y56830D01*
X12650Y56590D01*
X12300Y56500D01*
X11950Y56590D01*
X11690Y56830D01*
X11520Y57110D01*
X11390Y57480D01*
X11350Y57900D01*
X11390Y58320D01*
X11520Y58690D01*
X11690Y58970D01*
X11950Y59210D01*
X12300Y59300D01*
G01X34370Y73500D02*
Y76300D01*
X33330D01*
X32980Y76160D01*
X32720Y75830D01*
X32630Y75460D01*
X32720Y75090D01*
X32940Y74810D01*
X33330Y74670D01*
X34370D01*
G01X31310Y73870D02*
X30960Y73640D01*
X30570Y73500D01*
X30230D01*
X29880Y73640D01*
X29620Y73870D01*
X29490Y74200D01*
X29580Y74530D01*
X29790Y74810D01*
X30180Y74990D01*
X30700Y75090D01*
X31010Y75270D01*
X31140Y75600D01*
X31050Y75930D01*
X30830Y76160D01*
X30530Y76300D01*
X30230D01*
X29920Y76210D01*
X29660Y75970D01*
G01X27300Y73500D02*
X27560Y73550D01*
X27820Y73730D01*
X27990Y74060D01*
X28080Y74430D01*
X27990Y74810D01*
X27820Y75130D01*
X27560Y75320D01*
X27300Y75370D01*
X27040Y75320D01*
X26780Y75130D01*
X26610Y74810D01*
X26560Y74430D01*
X26610Y74060D01*
X26780Y73730D01*
X27040Y73550D01*
X27300Y73500D01*
G01X23250Y76070D02*
X23510Y76210D01*
X23810Y76300D01*
X24160D01*
X24550Y76160D01*
X24850Y75930D01*
X25070Y75650D01*
X25240Y75180D01*
X25280Y74760D01*
X25200Y74340D01*
X25070Y74060D01*
X24810Y73780D01*
X24500Y73590D01*
X24200Y73500D01*
X23900D01*
X23590Y73590D01*
X23330Y73730D01*
X23120Y73920D01*
G01X18950D02*
X18690Y73690D01*
X18390Y73550D01*
X18000Y73500D01*
X17610Y73590D01*
X17310Y73780D01*
X17090Y74110D01*
X17050Y74480D01*
X17130Y74850D01*
X17350Y75090D01*
X17650Y75270D01*
X17960Y75320D01*
X18260Y75270D01*
X18650Y75090D01*
X18520Y76300D01*
X17350D01*
G01X15770D02*
Y73500D01*
X14030D01*
G01X12670D02*
Y76300D01*
X11630D01*
X11280Y76160D01*
X11020Y75830D01*
X10930Y75460D01*
X11020Y75090D01*
X11240Y74810D01*
X11630Y74670D01*
X12670D01*
G01X6820Y74830D02*
X6560Y75110D01*
X6260Y75250D01*
X5910Y75300D01*
X5480Y75210D01*
X5180Y74970D01*
X5090Y74690D01*
X5130Y74410D01*
X5310Y74180D01*
X6170Y73710D01*
X6560Y73390D01*
X6820Y72920D01*
X6910Y72500D01*
X5090D01*
G01X10080Y96800D02*
X9000Y94000D01*
X7920Y96800D01*
G01X6420D02*
X5380D01*
G01X5900D02*
Y94000D01*
G01X6420D02*
X5380D01*
G01X3800D02*
Y96800D01*
X1800Y94000D01*
Y96800D01*
G01X8240Y85400D02*
X7370D01*
Y84560D01*
X7630Y84280D01*
X7940Y84090D01*
X8370Y84000D01*
X8800Y84090D01*
X9110Y84280D01*
X9370Y84560D01*
X9540Y84890D01*
X9630Y85260D01*
Y85590D01*
X9540Y85870D01*
X9370Y86190D01*
X9110Y86470D01*
X8850Y86660D01*
X8500Y86800D01*
X8200D01*
X7850Y86710D01*
X7590Y86520D01*
G01X6400Y84000D02*
Y86800D01*
X4400Y84000D01*
Y86800D01*
G01X3250Y84000D02*
Y86800D01*
X2390D01*
X2040Y86660D01*
X1780Y86470D01*
X1560Y86190D01*
X1390Y85870D01*
X1350Y85400D01*
X1390Y84930D01*
X1560Y84610D01*
X1780Y84330D01*
X2040Y84140D01*
X2390Y84000D01*
X3250D01*
G01X10740Y157400D02*
X9870D01*
Y156560D01*
X10130Y156280D01*
X10440Y156090D01*
X10870Y156000D01*
X11300Y156090D01*
X11610Y156280D01*
X11870Y156560D01*
X12040Y156890D01*
X12130Y157260D01*
Y157590D01*
X12040Y157870D01*
X11870Y158190D01*
X11610Y158470D01*
X11350Y158660D01*
X11000Y158800D01*
X10700D01*
X10350Y158710D01*
X10090Y158520D01*
G01X8900Y156000D02*
Y158800D01*
X6900Y156000D01*
Y158800D01*
G01X5750Y156000D02*
Y158800D01*
X4890D01*
X4540Y158660D01*
X4280Y158470D01*
X4060Y158190D01*
X3890Y157870D01*
X3850Y157400D01*
X3890Y156930D01*
X4060Y156610D01*
X4280Y156330D01*
X4540Y156140D01*
X4890Y156000D01*
X5750D01*
G01X11100Y162800D02*
Y160000D01*
G01X12100Y162800D02*
X10100D01*
G01X8870Y160000D02*
Y162800D01*
X7830D01*
X7480Y162660D01*
X7220Y162330D01*
X7130Y161960D01*
X7220Y161590D01*
X7440Y161310D01*
X7830Y161170D01*
X8870D01*
G01X4380Y160000D02*
Y162800D01*
X5980Y160790D01*
X3820D01*
G01X34900Y4060D02*
Y4930D01*
X34060D01*
X33780Y4670D01*
X33590Y4360D01*
X33500Y3930D01*
X33590Y3500D01*
X33780Y3190D01*
X34060Y2930D01*
X34390Y2760D01*
X34760Y2670D01*
X35090D01*
X35370Y2760D01*
X35690Y2930D01*
X35970Y3190D01*
X36160Y3450D01*
X36300Y3800D01*
Y4100D01*
X36210Y4450D01*
X36020Y4710D01*
G01X33500Y5900D02*
X36300D01*
X33500Y7900D01*
X36300D01*
G01X33500Y9050D02*
X36300D01*
Y9910D01*
X36160Y10260D01*
X35970Y10520D01*
X35690Y10740D01*
X35370Y10910D01*
X34900Y10950D01*
X34430Y10910D01*
X34110Y10740D01*
X33830Y10520D01*
X33640Y10260D01*
X33500Y9910D01*
Y9050D01*
G01X23500Y2930D02*
X26300D01*
Y3970D01*
X26160Y4320D01*
X25830Y4580D01*
X25460Y4670D01*
X25090Y4580D01*
X24810Y4360D01*
X24670Y3970D01*
Y2930D01*
G01X23500Y7420D02*
X26300D01*
X24290Y5820D01*
Y7980D01*
G01X23410Y10000D02*
X23450Y9910D01*
X23550D01*
X23590Y10000D01*
X23550Y10090D01*
X23450D01*
X23410Y10000D01*
G01X26300Y12020D02*
X23500Y13100D01*
X26300Y14180D01*
G01X23500Y15250D02*
X26300D01*
Y16110D01*
X26160Y16460D01*
X25970Y16720D01*
X25690Y16940D01*
X25370Y17110D01*
X24900Y17150D01*
X24430Y17110D01*
X24110Y16940D01*
X23830Y16720D01*
X23640Y16460D01*
X23500Y16110D01*
Y15250D01*
G01Y18350D02*
X26300D01*
Y19210D01*
X26160Y19560D01*
X25970Y19820D01*
X25690Y20040D01*
X25370Y20210D01*
X24900Y20250D01*
X24430Y20210D01*
X24110Y20040D01*
X23830Y19820D01*
X23640Y19560D01*
X23500Y19210D01*
Y18350D01*
G01X43500Y2930D02*
X46300D01*
Y3970D01*
X46160Y4320D01*
X45830Y4580D01*
X45460Y4670D01*
X45090Y4580D01*
X44810Y4360D01*
X44670Y3970D01*
Y2930D01*
G01X46300Y6900D02*
X46210Y6550D01*
X45970Y6290D01*
X45690Y6120D01*
X45320Y5990D01*
X44900Y5950D01*
X44480Y5990D01*
X44110Y6120D01*
X43830Y6290D01*
X43590Y6550D01*
X43500Y6900D01*
X43590Y7250D01*
X43830Y7510D01*
X44110Y7680D01*
X44480Y7810D01*
X44900Y7850D01*
X45320Y7810D01*
X45690Y7680D01*
X45970Y7510D01*
X46210Y7250D01*
X46300Y6900D01*
G01X43410Y10000D02*
X43450Y9910D01*
X43550D01*
X43590Y10000D01*
X43550Y10090D01*
X43450D01*
X43410Y10000D01*
G01X44670Y12280D02*
X44990Y12580D01*
X45180Y12840D01*
X45270Y13190D01*
X45180Y13490D01*
X44990Y13710D01*
X44710Y13880D01*
X44390Y13920D01*
X44110Y13880D01*
X43830Y13710D01*
X43590Y13450D01*
X43500Y13140D01*
X43590Y12800D01*
X43870Y12490D01*
X44290Y12320D01*
X44760Y12280D01*
X45370Y12360D01*
X45690Y12490D01*
X46020Y12710D01*
X46250Y13010D01*
X46300Y13320D01*
X46210Y13620D01*
X45970Y13840D01*
G01X51180Y176800D02*
X50100Y174000D01*
X49020Y176800D01*
G01X46650Y175490D02*
X46480Y175630D01*
X46350Y175870D01*
X46260Y176190D01*
X46350Y176470D01*
X46520Y176660D01*
X46830Y176800D01*
X48000D01*
Y174000D01*
X46570D01*
X46260Y174190D01*
X46090Y174470D01*
X46000Y174790D01*
X46090Y175120D01*
X46350Y175400D01*
X46650Y175490D01*
X48000D01*
G01X44850Y176800D02*
Y174790D01*
X44680Y174370D01*
X44330Y174090D01*
X43900Y174000D01*
X43470Y174090D01*
X43120Y174370D01*
X42950Y174790D01*
Y176800D01*
G01X41710Y174370D02*
X41360Y174140D01*
X40970Y174000D01*
X40630D01*
X40280Y174140D01*
X40020Y174370D01*
X39890Y174700D01*
X39980Y175030D01*
X40190Y175310D01*
X40580Y175490D01*
X41100Y175590D01*
X41410Y175770D01*
X41540Y176100D01*
X41450Y176430D01*
X41230Y176660D01*
X40930Y176800D01*
X40630D01*
X40320Y176710D01*
X40060Y176470D01*
G01X47600Y165300D02*
Y162500D01*
G01X48600Y165300D02*
X46600D01*
G01X45370Y162500D02*
Y165300D01*
X44330D01*
X43980Y165160D01*
X43720Y164830D01*
X43630Y164460D01*
X43720Y164090D01*
X43940Y163810D01*
X44330Y163670D01*
X45370D01*
G01X42220Y164830D02*
X41960Y165110D01*
X41660Y165250D01*
X41310Y165300D01*
X40880Y165210D01*
X40580Y164970D01*
X40490Y164690D01*
X40530Y164410D01*
X40710Y164180D01*
X41570Y163710D01*
X41960Y163390D01*
X42220Y162920D01*
X42310Y162500D01*
X40490D01*
G01X63500Y2930D02*
X66300D01*
Y3970D01*
X66160Y4320D01*
X65830Y4580D01*
X65460Y4670D01*
X65090Y4580D01*
X64810Y4360D01*
X64670Y3970D01*
Y2930D01*
G01X64060Y5950D02*
X63730Y6210D01*
X63550Y6550D01*
X63500Y6940D01*
X63550Y7290D01*
X63780Y7640D01*
X64060Y7850D01*
X64340Y7900D01*
X64670Y7810D01*
X64900Y7510D01*
X64990Y7200D01*
Y6810D01*
G01Y7200D02*
X65130Y7460D01*
X65370Y7680D01*
X65650Y7770D01*
X65930Y7680D01*
X66160Y7460D01*
X66300Y7070D01*
X66250Y6680D01*
X66070Y6290D01*
G01X63410Y10000D02*
X63450Y9910D01*
X63550D01*
X63590Y10000D01*
X63550Y10090D01*
X63450D01*
X63410Y10000D01*
G01X66300Y13100D02*
X66210Y12750D01*
X65970Y12490D01*
X65690Y12320D01*
X65320Y12190D01*
X64900Y12150D01*
X64480Y12190D01*
X64110Y12320D01*
X63830Y12490D01*
X63590Y12750D01*
X63500Y13100D01*
X63590Y13450D01*
X63830Y13710D01*
X64110Y13880D01*
X64480Y14010D01*
X64900Y14050D01*
X65320Y14010D01*
X65690Y13880D01*
X65970Y13710D01*
X66210Y13450D01*
X66300Y13100D01*
G01X53500Y2930D02*
X56300D01*
Y3970D01*
X56160Y4320D01*
X55830Y4580D01*
X55460Y4670D01*
X55090Y4580D01*
X54810Y4360D01*
X54670Y3970D01*
Y2930D01*
G01X54060Y5950D02*
X53730Y6210D01*
X53550Y6550D01*
X53500Y6940D01*
X53550Y7290D01*
X53780Y7640D01*
X54060Y7850D01*
X54340Y7900D01*
X54670Y7810D01*
X54900Y7510D01*
X54990Y7200D01*
Y6810D01*
G01Y7200D02*
X55130Y7460D01*
X55370Y7680D01*
X55650Y7770D01*
X55930Y7680D01*
X56160Y7460D01*
X56300Y7070D01*
X56250Y6680D01*
X56070Y6290D01*
G01X53410Y10000D02*
X53450Y9910D01*
X53550D01*
X53590Y10000D01*
X53550Y10090D01*
X53450D01*
X53410Y10000D01*
G01X53500Y13100D02*
X56300D01*
X55740Y12580D01*
G01X53500D02*
Y13620D01*
G01X68000Y149930D02*
X70800D01*
Y150970D01*
X70660Y151320D01*
X70330Y151580D01*
X69960Y151670D01*
X69590Y151580D01*
X69310Y151360D01*
X69170Y150970D01*
Y149930D01*
G01X68000Y154420D02*
X70800D01*
X68790Y152820D01*
Y154980D01*
G01X67910Y157000D02*
X67950Y156910D01*
X68050D01*
X68090Y157000D01*
X68050Y157090D01*
X67950D01*
X67910Y157000D01*
G01X68000Y160100D02*
X70800D01*
X70240Y159580D01*
G01X68000D02*
Y160620D01*
G01X67070Y166080D02*
X67530Y165650D01*
X68000Y165430D01*
X69870D01*
X70330Y165650D01*
X70800Y166080D01*
G01X68370Y168490D02*
X68140Y168840D01*
X68000Y169230D01*
Y169570D01*
X68140Y169920D01*
X68370Y170180D01*
X68700Y170310D01*
X69030Y170220D01*
X69310Y170010D01*
X69490Y169620D01*
X69590Y169100D01*
X69770Y168790D01*
X70100Y168660D01*
X70430Y168750D01*
X70660Y168970D01*
X70800Y169270D01*
Y169570D01*
X70710Y169880D01*
X70470Y170140D01*
G01X68000Y171550D02*
X70800D01*
Y172410D01*
X70660Y172760D01*
X70470Y173020D01*
X70190Y173240D01*
X69870Y173410D01*
X69400Y173450D01*
X68930Y173410D01*
X68610Y173240D01*
X68330Y173020D01*
X68140Y172760D01*
X68000Y172410D01*
Y171550D01*
G01Y174520D02*
X70800Y175600D01*
X68000Y176680D01*
G01X68980Y176290D02*
Y174910D01*
G01X67070Y178920D02*
X67530Y179350D01*
X68000Y179570D01*
X69870D01*
X70330Y179350D01*
X70800Y178920D01*
G01X58000Y149930D02*
X60800D01*
Y150970D01*
X60660Y151320D01*
X60330Y151580D01*
X59960Y151670D01*
X59590Y151580D01*
X59310Y151360D01*
X59170Y150970D01*
Y149930D01*
G01X58000Y154420D02*
X60800D01*
X58790Y152820D01*
Y154980D01*
G01X57910Y157000D02*
X57950Y156910D01*
X58050D01*
X58090Y157000D01*
X58050Y157090D01*
X57950D01*
X57910Y157000D01*
G01X60800Y160100D02*
X60710Y159750D01*
X60470Y159490D01*
X60190Y159320D01*
X59820Y159190D01*
X59400Y159150D01*
X58980Y159190D01*
X58610Y159320D01*
X58330Y159490D01*
X58090Y159750D01*
X58000Y160100D01*
X58090Y160450D01*
X58330Y160710D01*
X58610Y160880D01*
X58980Y161010D01*
X59400Y161050D01*
X59820Y161010D01*
X60190Y160880D01*
X60470Y160710D01*
X60710Y160450D01*
X60800Y160100D01*
G01X57070Y166080D02*
X57530Y165650D01*
X58000Y165430D01*
X59870D01*
X60330Y165650D01*
X60800Y166080D01*
G01X58370Y168490D02*
X58140Y168840D01*
X58000Y169230D01*
Y169570D01*
X58140Y169920D01*
X58370Y170180D01*
X58700Y170310D01*
X59030Y170220D01*
X59310Y170010D01*
X59490Y169620D01*
X59590Y169100D01*
X59770Y168790D01*
X60100Y168660D01*
X60430Y168750D01*
X60660Y168970D01*
X60800Y169270D01*
Y169570D01*
X60710Y169880D01*
X60470Y170140D01*
G01X60570Y173450D02*
X60710Y173190D01*
X60800Y172890D01*
Y172540D01*
X60660Y172150D01*
X60430Y171850D01*
X60150Y171630D01*
X59680Y171460D01*
X59260Y171420D01*
X58840Y171500D01*
X58560Y171630D01*
X58280Y171890D01*
X58090Y172200D01*
X58000Y172500D01*
Y172800D01*
X58090Y173110D01*
X58230Y173370D01*
X58420Y173580D01*
G01X60800Y174730D02*
X58000D01*
Y176470D01*
G01X57070Y178920D02*
X57530Y179350D01*
X58000Y179570D01*
X59870D01*
X60330Y179350D01*
X60800Y178920D01*
G01X53550Y185000D02*
Y187800D01*
X54070Y187240D01*
G01Y185000D02*
X53030D01*
G01X50450Y187800D02*
X50800Y187710D01*
X51060Y187470D01*
X51230Y187190D01*
X51360Y186820D01*
X51400Y186400D01*
X51360Y185980D01*
X51230Y185610D01*
X51060Y185330D01*
X50800Y185090D01*
X50450Y185000D01*
X50100Y185090D01*
X49840Y185330D01*
X49670Y185610D01*
X49540Y185980D01*
X49500Y186400D01*
X49540Y186820D01*
X49670Y187190D01*
X49840Y187470D01*
X50100Y187710D01*
X50450Y187800D01*
G01X90000Y-5000D02*
X89700Y-4950D01*
X89350Y-4810D01*
X89130Y-4580D01*
X89050Y-4250D01*
X89130Y-3930D01*
X89390Y-3650D01*
X89780Y-3510D01*
X90220D01*
X90480Y-3410D01*
X90690Y-3180D01*
X90780Y-2850D01*
X90650Y-2530D01*
X90350Y-2290D01*
X90000Y-2200D01*
X89650Y-2290D01*
X89350Y-2530D01*
X89220Y-2850D01*
X89310Y-3180D01*
X89520Y-3410D01*
X89780Y-3510D01*
X90220D01*
X90610Y-3650D01*
X90870Y-3930D01*
X90950Y-4250D01*
X90870Y-4580D01*
X90650Y-4810D01*
X90300Y-4950D01*
X90000Y-5000D01*
G01X93500Y300D02*
X96300D01*
X93500Y2300D01*
X96300D01*
G01X96070Y5350D02*
X96210Y5090D01*
X96300Y4790D01*
Y4440D01*
X96160Y4050D01*
X95930Y3750D01*
X95650Y3530D01*
X95180Y3360D01*
X94760Y3320D01*
X94340Y3400D01*
X94060Y3530D01*
X93780Y3790D01*
X93590Y4100D01*
X93500Y4400D01*
Y4700D01*
X93590Y5010D01*
X93730Y5270D01*
X93920Y5480D01*
G01X80000Y-2500D02*
Y300D01*
X80520Y-260D01*
G01Y-2500D02*
X79480D01*
G01X73500Y2930D02*
X76300D01*
Y3970D01*
X76160Y4320D01*
X75830Y4580D01*
X75460Y4670D01*
X75090Y4580D01*
X74810Y4360D01*
X74670Y3970D01*
Y2930D01*
G01X74060Y5950D02*
X73730Y6210D01*
X73550Y6550D01*
X73500Y6940D01*
X73550Y7290D01*
X73780Y7640D01*
X74060Y7850D01*
X74340Y7900D01*
X74670Y7810D01*
X74900Y7510D01*
X74990Y7200D01*
Y6810D01*
G01Y7200D02*
X75130Y7460D01*
X75370Y7680D01*
X75650Y7770D01*
X75930Y7680D01*
X76160Y7460D01*
X76300Y7070D01*
X76250Y6680D01*
X76070Y6290D01*
G01X73410Y10000D02*
X73450Y9910D01*
X73550D01*
X73590Y10000D01*
X73550Y10090D01*
X73450D01*
X73410Y10000D01*
G01X73920Y12150D02*
X73690Y12410D01*
X73550Y12710D01*
X73500Y13100D01*
X73590Y13490D01*
X73780Y13790D01*
X74110Y14010D01*
X74480Y14050D01*
X74850Y13970D01*
X75090Y13750D01*
X75270Y13450D01*
X75320Y13140D01*
X75270Y12840D01*
X75090Y12450D01*
X76300Y12580D01*
Y13750D01*
G01X82420Y3060D02*
X82200Y2780D01*
X81940Y2590D01*
X81640Y2500D01*
X81290Y2590D01*
X81030Y2780D01*
X80770Y3060D01*
X80680Y3430D01*
Y5300D01*
G01X79400Y2920D02*
X79140Y2690D01*
X78840Y2550D01*
X78450Y2500D01*
X78060Y2590D01*
X77760Y2780D01*
X77540Y3110D01*
X77500Y3480D01*
X77580Y3850D01*
X77800Y4090D01*
X78100Y4270D01*
X78410Y4320D01*
X78710Y4270D01*
X79100Y4090D01*
X78970Y5300D01*
X77800D01*
G01X94500Y149930D02*
X97300D01*
Y150970D01*
X97160Y151320D01*
X96830Y151580D01*
X96460Y151670D01*
X96090Y151580D01*
X95810Y151360D01*
X95670Y150970D01*
Y149930D01*
G01X97300Y153900D02*
X97210Y153550D01*
X96970Y153290D01*
X96690Y153120D01*
X96320Y152990D01*
X95900Y152950D01*
X95480Y152990D01*
X95110Y153120D01*
X94830Y153290D01*
X94590Y153550D01*
X94500Y153900D01*
X94590Y154250D01*
X94830Y154510D01*
X95110Y154680D01*
X95480Y154810D01*
X95900Y154850D01*
X96320Y154810D01*
X96690Y154680D01*
X96970Y154510D01*
X97210Y154250D01*
X97300Y153900D01*
G01X94410Y157000D02*
X94450Y156910D01*
X94550D01*
X94590Y157000D01*
X94550Y157090D01*
X94450D01*
X94410Y157000D01*
G01X95670Y159280D02*
X95990Y159580D01*
X96180Y159840D01*
X96270Y160190D01*
X96180Y160490D01*
X95990Y160710D01*
X95710Y160880D01*
X95390Y160920D01*
X95110Y160880D01*
X94830Y160710D01*
X94590Y160450D01*
X94500Y160140D01*
X94590Y159800D01*
X94870Y159490D01*
X95290Y159320D01*
X95760Y159280D01*
X96370Y159360D01*
X96690Y159490D01*
X97020Y159710D01*
X97250Y160010D01*
X97300Y160320D01*
X97210Y160620D01*
X96970Y160840D01*
G01X93570Y166080D02*
X94030Y165650D01*
X94500Y165430D01*
X96370D01*
X96830Y165650D01*
X97300Y166080D01*
G01X94500Y168450D02*
X97300D01*
Y169310D01*
X97160Y169660D01*
X96970Y169920D01*
X96690Y170140D01*
X96370Y170310D01*
X95900Y170350D01*
X95430Y170310D01*
X95110Y170140D01*
X94830Y169920D01*
X94640Y169660D01*
X94500Y169310D01*
Y168450D01*
G01Y172500D02*
X97300D01*
X96740Y171980D01*
G01X94500D02*
Y173020D01*
G01X95060Y174650D02*
X94730Y174910D01*
X94550Y175250D01*
X94500Y175640D01*
X94550Y175990D01*
X94780Y176340D01*
X95060Y176550D01*
X95340Y176600D01*
X95670Y176510D01*
X95900Y176210D01*
X95990Y175900D01*
Y175510D01*
G01Y175900D02*
X96130Y176160D01*
X96370Y176380D01*
X96650Y176470D01*
X96930Y176380D01*
X97160Y176160D01*
X97300Y175770D01*
X97250Y175380D01*
X97070Y174990D01*
G01X93570Y178920D02*
X94030Y179350D01*
X94500Y179570D01*
X96370D01*
X96830Y179350D01*
X97300Y178920D01*
G01X89400Y154160D02*
Y155030D01*
X88560D01*
X88280Y154770D01*
X88090Y154460D01*
X88000Y154030D01*
X88090Y153600D01*
X88280Y153290D01*
X88560Y153030D01*
X88890Y152860D01*
X89260Y152770D01*
X89590D01*
X89870Y152860D01*
X90190Y153030D01*
X90470Y153290D01*
X90660Y153550D01*
X90800Y153900D01*
Y154200D01*
X90710Y154550D01*
X90520Y154810D01*
G01X88000Y156000D02*
X90800D01*
X88000Y158000D01*
X90800D01*
G01X88000Y159150D02*
X90800D01*
Y160010D01*
X90660Y160360D01*
X90470Y160620D01*
X90190Y160840D01*
X89870Y161010D01*
X89400Y161050D01*
X88930Y161010D01*
X88610Y160840D01*
X88330Y160620D01*
X88140Y160360D01*
X88000Y160010D01*
Y159150D01*
G01X87070Y166080D02*
X87530Y165650D01*
X88000Y165430D01*
X89870D01*
X90330Y165650D01*
X90800Y166080D01*
G01X89400Y169660D02*
Y170530D01*
X88560D01*
X88280Y170270D01*
X88090Y169960D01*
X88000Y169530D01*
X88090Y169100D01*
X88280Y168790D01*
X88560Y168530D01*
X88890Y168360D01*
X89260Y168270D01*
X89590D01*
X89870Y168360D01*
X90190Y168530D01*
X90470Y168790D01*
X90660Y169050D01*
X90800Y169400D01*
Y169700D01*
X90710Y170050D01*
X90520Y170310D01*
G01X88000Y171500D02*
X90800D01*
X88000Y173500D01*
X90800D01*
G01X88000Y174650D02*
X90800D01*
Y175510D01*
X90660Y175860D01*
X90470Y176120D01*
X90190Y176340D01*
X89870Y176510D01*
X89400Y176550D01*
X88930Y176510D01*
X88610Y176340D01*
X88330Y176120D01*
X88140Y175860D01*
X88000Y175510D01*
Y174650D01*
G01X87070Y178920D02*
X87530Y179350D01*
X88000Y179570D01*
X89870D01*
X90330Y179350D01*
X90800Y178920D01*
G01X78000Y146830D02*
X80800D01*
Y147870D01*
X80660Y148220D01*
X80330Y148480D01*
X79960Y148570D01*
X79590Y148480D01*
X79310Y148260D01*
X79170Y147870D01*
Y146830D01*
G01X78000Y150800D02*
X80800D01*
X80240Y150280D01*
G01X78000D02*
Y151320D01*
G01X77910Y153900D02*
X77950Y153810D01*
X78050D01*
X78090Y153900D01*
X78050Y153990D01*
X77950D01*
X77910Y153900D01*
G01X78000Y156910D02*
X78610Y157000D01*
X79120Y157130D01*
X79590Y157300D01*
X80100Y157520D01*
X80800Y157870D01*
Y156130D01*
G01X77070Y162980D02*
X77530Y162550D01*
X78000Y162330D01*
X79870D01*
X80330Y162550D01*
X80800Y162980D01*
G01X78000Y165220D02*
X80800Y166300D01*
X78000Y167380D01*
G01X78980Y166990D02*
Y165610D01*
G01X78000Y168530D02*
X80800D01*
Y169620D01*
X80660Y169960D01*
X80470Y170180D01*
X80100Y170270D01*
X79730Y170180D01*
X79490Y169920D01*
X79350Y169620D01*
Y168530D01*
G01Y169620D02*
X78000Y170270D01*
G01Y173370D02*
Y171630D01*
X80800D01*
Y173370D01*
G01X79450Y172670D02*
Y171630D01*
G01X78000Y174780D02*
X80800D01*
Y176420D01*
G01X79450Y175820D02*
Y174780D01*
G01X77070Y178920D02*
X77530Y179350D01*
X78000Y179570D01*
X79870D01*
X80330Y179350D01*
X80800Y178920D01*
G01X126300Y220D02*
X123500Y1300D01*
X126300Y2380D01*
G01X124060Y3450D02*
X123730Y3710D01*
X123550Y4050D01*
X123500Y4440D01*
X123550Y4790D01*
X123780Y5140D01*
X124060Y5350D01*
X124340Y5400D01*
X124670Y5310D01*
X124900Y5010D01*
X124990Y4700D01*
Y4310D01*
G01Y4700D02*
X125130Y4960D01*
X125370Y5180D01*
X125650Y5270D01*
X125930Y5180D01*
X126160Y4960D01*
X126300Y4570D01*
X126250Y4180D01*
X126070Y3790D01*
G01X123410Y7500D02*
X123450Y7410D01*
X123550D01*
X123590Y7500D01*
X123550Y7590D01*
X123450D01*
X123410Y7500D01*
G01X124060Y9650D02*
X123730Y9910D01*
X123550Y10250D01*
X123500Y10640D01*
X123550Y10990D01*
X123780Y11340D01*
X124060Y11550D01*
X124340Y11600D01*
X124670Y11510D01*
X124900Y11210D01*
X124990Y10900D01*
Y10510D01*
G01Y10900D02*
X125130Y11160D01*
X125370Y11380D01*
X125650Y11470D01*
X125930Y11380D01*
X126160Y11160D01*
X126300Y10770D01*
X126250Y10380D01*
X126070Y9990D01*
G01X123500Y17670D02*
Y15930D01*
X126300D01*
Y17670D01*
G01X124950Y16970D02*
Y15930D01*
G01X123500Y18990D02*
X126300Y20810D01*
G01Y18990D02*
X123500Y20810D01*
G01X126300Y23000D02*
X123500D01*
G01X126300Y22000D02*
Y24000D01*
G01X113500Y430D02*
X116300D01*
Y1520D01*
X116160Y1860D01*
X115970Y2080D01*
X115600Y2170D01*
X115230Y2080D01*
X114990Y1820D01*
X114850Y1520D01*
Y430D01*
G01Y1520D02*
X113500Y2170D01*
G01Y5270D02*
Y3530D01*
X116300D01*
Y5270D01*
G01X114950Y4570D02*
Y3530D01*
G01X113870Y6590D02*
X113640Y6940D01*
X113500Y7330D01*
Y7670D01*
X113640Y8020D01*
X113870Y8280D01*
X114200Y8410D01*
X114530Y8320D01*
X114810Y8110D01*
X114990Y7720D01*
X115090Y7200D01*
X115270Y6890D01*
X115600Y6760D01*
X115930Y6850D01*
X116160Y7070D01*
X116300Y7370D01*
Y7670D01*
X116210Y7980D01*
X115970Y8240D01*
G01X113500Y11470D02*
Y9730D01*
X116300D01*
Y11470D01*
G01X114950Y10770D02*
Y9730D01*
G01X116300Y13700D02*
X113500D01*
G01X116300Y12700D02*
Y14700D01*
G01X103500Y430D02*
X106300D01*
Y1470D01*
X106160Y1820D01*
X105830Y2080D01*
X105460Y2170D01*
X105090Y2080D01*
X104810Y1860D01*
X104670Y1470D01*
Y430D01*
G01X103500Y4920D02*
X106300D01*
X104290Y3320D01*
Y5480D01*
G01X103410Y7500D02*
X103450Y7410D01*
X103550D01*
X103590Y7500D01*
X103550Y7590D01*
X103450D01*
X103410Y7500D01*
G01X106300Y9520D02*
X103500Y10600D01*
X106300Y11680D01*
G01X103500Y12750D02*
X106300D01*
Y13610D01*
X106160Y13960D01*
X105970Y14220D01*
X105690Y14440D01*
X105370Y14610D01*
X104900Y14650D01*
X104430Y14610D01*
X104110Y14440D01*
X103830Y14220D01*
X103640Y13960D01*
X103500Y13610D01*
Y12750D01*
G01Y15850D02*
X106300D01*
Y16710D01*
X106160Y17060D01*
X105970Y17320D01*
X105690Y17540D01*
X105370Y17710D01*
X104900Y17750D01*
X104430Y17710D01*
X104110Y17540D01*
X103830Y17320D01*
X103640Y17060D01*
X103500Y16710D01*
Y15850D01*
G01X130070Y127500D02*
Y130300D01*
X129030D01*
X128680Y130160D01*
X128420Y129830D01*
X128330Y129460D01*
X128420Y129090D01*
X128640Y128810D01*
X129030Y128670D01*
X130070D01*
G01X126920Y129830D02*
X126660Y130110D01*
X126360Y130250D01*
X126010Y130300D01*
X125580Y130210D01*
X125280Y129970D01*
X125190Y129690D01*
X125230Y129410D01*
X125410Y129180D01*
X126270Y128710D01*
X126660Y128390D01*
X126920Y127920D01*
X127010Y127500D01*
X125190D01*
G01X123000Y127410D02*
X123090Y127450D01*
Y127550D01*
X123000Y127590D01*
X122910Y127550D01*
Y127450D01*
X123000Y127410D01*
G01X119900Y130300D02*
X120250Y130210D01*
X120510Y129970D01*
X120680Y129690D01*
X120810Y129320D01*
X120850Y128900D01*
X120810Y128480D01*
X120680Y128110D01*
X120510Y127830D01*
X120250Y127590D01*
X119900Y127500D01*
X119550Y127590D01*
X119290Y127830D01*
X119120Y128110D01*
X118990Y128480D01*
X118950Y128900D01*
X118990Y129320D01*
X119120Y129690D01*
X119290Y129970D01*
X119550Y130210D01*
X119900Y130300D01*
G01X130070Y123000D02*
Y125800D01*
X129030D01*
X128680Y125660D01*
X128420Y125330D01*
X128330Y124960D01*
X128420Y124590D01*
X128640Y124310D01*
X129030Y124170D01*
X130070D01*
G01X126920Y125330D02*
X126660Y125610D01*
X126360Y125750D01*
X126010Y125800D01*
X125580Y125710D01*
X125280Y125470D01*
X125190Y125190D01*
X125230Y124910D01*
X125410Y124680D01*
X126270Y124210D01*
X126660Y123890D01*
X126920Y123420D01*
X127010Y123000D01*
X125190D01*
G01X123000Y122910D02*
X123090Y122950D01*
Y123050D01*
X123000Y123090D01*
X122910Y123050D01*
Y122950D01*
X123000Y122910D01*
G01X119900Y123000D02*
Y125800D01*
X120420Y125240D01*
G01Y123000D02*
X119380D01*
G01X130070Y117500D02*
Y120300D01*
X129030D01*
X128680Y120160D01*
X128420Y119830D01*
X128330Y119460D01*
X128420Y119090D01*
X128640Y118810D01*
X129030Y118670D01*
X130070D01*
G01X126100Y117500D02*
Y120300D01*
X126620Y119740D01*
G01Y117500D02*
X125580D01*
G01X123820Y119830D02*
X123560Y120110D01*
X123260Y120250D01*
X122910Y120300D01*
X122480Y120210D01*
X122180Y119970D01*
X122090Y119690D01*
X122130Y119410D01*
X122310Y119180D01*
X123170Y118710D01*
X123560Y118390D01*
X123820Y117920D01*
X123910Y117500D01*
X122090D01*
G01X119900Y117410D02*
X119990Y117450D01*
Y117550D01*
X119900Y117590D01*
X119810Y117550D01*
Y117450D01*
X119900Y117410D01*
G01X116800Y120300D02*
X117150Y120210D01*
X117410Y119970D01*
X117580Y119690D01*
X117710Y119320D01*
X117750Y118900D01*
X117710Y118480D01*
X117580Y118110D01*
X117410Y117830D01*
X117150Y117590D01*
X116800Y117500D01*
X116450Y117590D01*
X116190Y117830D01*
X116020Y118110D01*
X115890Y118480D01*
X115850Y118900D01*
X115890Y119320D01*
X116020Y119690D01*
X116190Y119970D01*
X116450Y120210D01*
X116800Y120300D01*
G01X130070Y112500D02*
Y115300D01*
X129030D01*
X128680Y115160D01*
X128420Y114830D01*
X128330Y114460D01*
X128420Y114090D01*
X128640Y113810D01*
X129030Y113670D01*
X130070D01*
G01X126100Y112500D02*
Y115300D01*
X126620Y114740D01*
G01Y112500D02*
X125580D01*
G01X123820Y114830D02*
X123560Y115110D01*
X123260Y115250D01*
X122910Y115300D01*
X122480Y115210D01*
X122180Y114970D01*
X122090Y114690D01*
X122130Y114410D01*
X122310Y114180D01*
X123170Y113710D01*
X123560Y113390D01*
X123820Y112920D01*
X123910Y112500D01*
X122090D01*
G01X119900Y112410D02*
X119990Y112450D01*
Y112550D01*
X119900Y112590D01*
X119810Y112550D01*
Y112450D01*
X119900Y112410D01*
G01X116800Y112500D02*
Y115300D01*
X117320Y114740D01*
G01Y112500D02*
X116280D01*
G01X130070Y106500D02*
Y109300D01*
X129030D01*
X128680Y109160D01*
X128420Y108830D01*
X128330Y108460D01*
X128420Y108090D01*
X128640Y107810D01*
X129030Y107670D01*
X130070D01*
G01X126920Y108830D02*
X126660Y109110D01*
X126360Y109250D01*
X126010Y109300D01*
X125580Y109210D01*
X125280Y108970D01*
X125190Y108690D01*
X125230Y108410D01*
X125410Y108180D01*
X126270Y107710D01*
X126660Y107390D01*
X126920Y106920D01*
X127010Y106500D01*
X125190D01*
G01X123000Y106410D02*
X123090Y106450D01*
Y106550D01*
X123000Y106590D01*
X122910Y106550D01*
Y106450D01*
X123000Y106410D01*
G01X119380Y106500D02*
Y109300D01*
X120980Y107290D01*
X118820D01*
G01X114500Y149930D02*
X117300D01*
Y150970D01*
X117160Y151320D01*
X116830Y151580D01*
X116460Y151670D01*
X116090Y151580D01*
X115810Y151360D01*
X115670Y150970D01*
Y149930D01*
G01X115060Y152950D02*
X114730Y153210D01*
X114550Y153550D01*
X114500Y153940D01*
X114550Y154290D01*
X114780Y154640D01*
X115060Y154850D01*
X115340Y154900D01*
X115670Y154810D01*
X115900Y154510D01*
X115990Y154200D01*
Y153810D01*
G01Y154200D02*
X116130Y154460D01*
X116370Y154680D01*
X116650Y154770D01*
X116930Y154680D01*
X117160Y154460D01*
X117300Y154070D01*
X117250Y153680D01*
X117070Y153290D01*
G01X114410Y157000D02*
X114450Y156910D01*
X114550D01*
X114590Y157000D01*
X114550Y157090D01*
X114450D01*
X114410Y157000D01*
G01X117300Y160100D02*
X117210Y159750D01*
X116970Y159490D01*
X116690Y159320D01*
X116320Y159190D01*
X115900Y159150D01*
X115480Y159190D01*
X115110Y159320D01*
X114830Y159490D01*
X114590Y159750D01*
X114500Y160100D01*
X114590Y160450D01*
X114830Y160710D01*
X115110Y160880D01*
X115480Y161010D01*
X115900Y161050D01*
X116320Y161010D01*
X116690Y160880D01*
X116970Y160710D01*
X117210Y160450D01*
X117300Y160100D01*
G01X113570Y166080D02*
X114030Y165650D01*
X114500Y165430D01*
X116370D01*
X116830Y165650D01*
X117300Y166080D01*
G01X114500Y168450D02*
X117300D01*
Y169310D01*
X117160Y169660D01*
X116970Y169920D01*
X116690Y170140D01*
X116370Y170310D01*
X115900Y170350D01*
X115430Y170310D01*
X115110Y170140D01*
X114830Y169920D01*
X114640Y169660D01*
X114500Y169310D01*
Y168450D01*
G01Y172500D02*
X117300D01*
X116740Y171980D01*
G01X114500D02*
Y173020D01*
G01Y175600D02*
X117300D01*
X116740Y175080D01*
G01X114500D02*
Y176120D01*
G01X113570Y178920D02*
X114030Y179350D01*
X114500Y179570D01*
X116370D01*
X116830Y179350D01*
X117300Y178920D01*
G01X105000Y149930D02*
X107800D01*
Y150970D01*
X107660Y151320D01*
X107330Y151580D01*
X106960Y151670D01*
X106590Y151580D01*
X106310Y151360D01*
X106170Y150970D01*
Y149930D01*
G01X105560Y152950D02*
X105230Y153210D01*
X105050Y153550D01*
X105000Y153940D01*
X105050Y154290D01*
X105280Y154640D01*
X105560Y154850D01*
X105840Y154900D01*
X106170Y154810D01*
X106400Y154510D01*
X106490Y154200D01*
Y153810D01*
G01Y154200D02*
X106630Y154460D01*
X106870Y154680D01*
X107150Y154770D01*
X107430Y154680D01*
X107660Y154460D01*
X107800Y154070D01*
X107750Y153680D01*
X107570Y153290D01*
G01X104910Y157000D02*
X104950Y156910D01*
X105050D01*
X105090Y157000D01*
X105050Y157090D01*
X104950D01*
X104910Y157000D01*
G01X105000Y160100D02*
X107800D01*
X107240Y159580D01*
G01X105000D02*
Y160620D01*
G01X104070Y166080D02*
X104530Y165650D01*
X105000Y165430D01*
X106870D01*
X107330Y165650D01*
X107800Y166080D01*
G01X105000Y168450D02*
X107800D01*
Y169310D01*
X107660Y169660D01*
X107470Y169920D01*
X107190Y170140D01*
X106870Y170310D01*
X106400Y170350D01*
X105930Y170310D01*
X105610Y170140D01*
X105330Y169920D01*
X105140Y169660D01*
X105000Y169310D01*
Y168450D01*
G01Y172500D02*
X107800D01*
X107240Y171980D01*
G01X105000D02*
Y173020D01*
G01X107330Y174780D02*
X107610Y175040D01*
X107750Y175340D01*
X107800Y175690D01*
X107710Y176120D01*
X107470Y176420D01*
X107190Y176510D01*
X106910Y176470D01*
X106680Y176290D01*
X106210Y175430D01*
X105890Y175040D01*
X105420Y174780D01*
X105000Y174690D01*
Y176510D01*
G01X104070Y178920D02*
X104530Y179350D01*
X105000Y179570D01*
X106870D01*
X107330Y179350D01*
X107800Y178920D01*
G01X165170Y134000D02*
Y136800D01*
X164130D01*
X163780Y136660D01*
X163520Y136330D01*
X163430Y135960D01*
X163520Y135590D01*
X163740Y135310D01*
X164130Y135170D01*
X165170D01*
G01X162110Y134370D02*
X161760Y134140D01*
X161370Y134000D01*
X161030D01*
X160680Y134140D01*
X160420Y134370D01*
X160290Y134700D01*
X160380Y135030D01*
X160590Y135310D01*
X160980Y135490D01*
X161500Y135590D01*
X161810Y135770D01*
X161940Y136100D01*
X161850Y136430D01*
X161630Y136660D01*
X161330Y136800D01*
X161030D01*
X160720Y136710D01*
X160460Y136470D01*
G01X158100Y134000D02*
X158360Y134050D01*
X158620Y134230D01*
X158790Y134560D01*
X158880Y134930D01*
X158790Y135310D01*
X158620Y135630D01*
X158360Y135820D01*
X158100Y135870D01*
X157840Y135820D01*
X157580Y135630D01*
X157410Y135310D01*
X157360Y134930D01*
X157410Y134560D01*
X157580Y134230D01*
X157840Y134050D01*
X158100Y134000D01*
G01X154050Y136570D02*
X154310Y136710D01*
X154610Y136800D01*
X154960D01*
X155350Y136660D01*
X155650Y136430D01*
X155870Y136150D01*
X156040Y135680D01*
X156080Y135260D01*
X156000Y134840D01*
X155870Y134560D01*
X155610Y134280D01*
X155300Y134090D01*
X155000Y134000D01*
X154700D01*
X154390Y134090D01*
X154130Y134230D01*
X153920Y134420D01*
G01X148280Y134000D02*
Y136800D01*
X149880Y134790D01*
X147720D01*
G01X141300Y133070D02*
X143470Y135870D01*
Y136330D01*
X143030Y136800D01*
X142600D01*
X142170Y136330D01*
Y135870D01*
X142600Y135400D01*
X143470Y134930D01*
X143900Y134470D01*
Y133530D01*
X143470Y133070D01*
X142170D01*
X141300Y134000D01*
G01X137270D02*
Y136800D01*
X136230D01*
X135880Y136660D01*
X135620Y136330D01*
X135530Y135960D01*
X135620Y135590D01*
X135840Y135310D01*
X136230Y135170D01*
X137270D01*
G01X134210Y134370D02*
X133860Y134140D01*
X133470Y134000D01*
X133130D01*
X132780Y134140D01*
X132520Y134370D01*
X132390Y134700D01*
X132480Y135030D01*
X132690Y135310D01*
X133080Y135490D01*
X133600Y135590D01*
X133910Y135770D01*
X134040Y136100D01*
X133950Y136430D01*
X133730Y136660D01*
X133430Y136800D01*
X133130D01*
X132820Y136710D01*
X132560Y136470D01*
G01X130200Y134000D02*
X130460Y134050D01*
X130720Y134230D01*
X130890Y134560D01*
X130980Y134930D01*
X130890Y135310D01*
X130720Y135630D01*
X130460Y135820D01*
X130200Y135870D01*
X129940Y135820D01*
X129680Y135630D01*
X129510Y135310D01*
X129460Y134930D01*
X129510Y134560D01*
X129680Y134230D01*
X129940Y134050D01*
X130200Y134000D01*
G01X126150Y136570D02*
X126410Y136710D01*
X126710Y136800D01*
X127060D01*
X127450Y136660D01*
X127750Y136430D01*
X127970Y136150D01*
X128140Y135680D01*
X128180Y135260D01*
X128100Y134840D01*
X127970Y134560D01*
X127710Y134280D01*
X127400Y134090D01*
X127100Y134000D01*
X126800D01*
X126490Y134090D01*
X126230Y134230D01*
X126020Y134420D01*
G01X121850D02*
X121590Y134190D01*
X121290Y134050D01*
X120900Y134000D01*
X120510Y134090D01*
X120210Y134280D01*
X119990Y134610D01*
X119950Y134980D01*
X120030Y135350D01*
X120250Y135590D01*
X120550Y135770D01*
X120860Y135820D01*
X121160Y135770D01*
X121550Y135590D01*
X121420Y136800D01*
X120250D01*
G01X118670D02*
Y134000D01*
X116930D01*
G01X115570D02*
Y136800D01*
X114530D01*
X114180Y136660D01*
X113920Y136330D01*
X113830Y135960D01*
X113920Y135590D01*
X114140Y135310D01*
X114530Y135170D01*
X115570D01*
G01X157920Y138000D02*
Y140800D01*
X156880D01*
X156530Y140660D01*
X156270Y140330D01*
X156180Y139960D01*
X156270Y139590D01*
X156490Y139310D01*
X156880Y139170D01*
X157920D01*
G01X154470Y140800D02*
X153430D01*
G01X153950D02*
Y138000D01*
G01X154470D02*
X153430D01*
G01X151850D02*
Y140800D01*
X149850Y138000D01*
Y140800D01*
G01X148660Y138370D02*
X148310Y138140D01*
X147920Y138000D01*
X147580D01*
X147230Y138140D01*
X146970Y138370D01*
X146840Y138700D01*
X146930Y139030D01*
X147140Y139310D01*
X147530Y139490D01*
X148050Y139590D01*
X148360Y139770D01*
X148490Y140100D01*
X148400Y140430D01*
X148180Y140660D01*
X147880Y140800D01*
X147580D01*
X147270Y140710D01*
X147010Y140470D01*
G01X141200Y139490D02*
X141030Y139630D01*
X140900Y139870D01*
X140810Y140190D01*
X140900Y140470D01*
X141070Y140660D01*
X141380Y140800D01*
X142550D01*
Y138000D01*
X141120D01*
X140810Y138190D01*
X140640Y138470D01*
X140550Y138790D01*
X140640Y139120D01*
X140900Y139400D01*
X141200Y139490D01*
X142550D01*
G01X137580Y138000D02*
X139320D01*
Y140800D01*
X137580D01*
G01X138280Y139450D02*
X139320D01*
G01X135350Y140800D02*
Y138000D01*
G01X136350Y140800D02*
X134350D01*
G01X133550D02*
X132940Y138000D01*
X132250Y140800D01*
X131560Y138000D01*
X130950Y140800D01*
G01X128280Y138000D02*
X130020D01*
Y140800D01*
X128280D01*
G01X128980Y139450D02*
X130020D01*
G01X125180Y138000D02*
X126920D01*
Y140800D01*
X125180D01*
G01X125880Y139450D02*
X126920D01*
G01X123950Y138000D02*
Y140800D01*
X121950Y138000D01*
Y140800D01*
G01X144900Y1560D02*
Y2430D01*
X144060D01*
X143780Y2170D01*
X143590Y1860D01*
X143500Y1430D01*
X143590Y1000D01*
X143780Y690D01*
X144060Y430D01*
X144390Y260D01*
X144760Y170D01*
X145090D01*
X145370Y260D01*
X145690Y430D01*
X145970Y690D01*
X146160Y950D01*
X146300Y1300D01*
Y1600D01*
X146210Y1950D01*
X146020Y2210D01*
G01X143500Y3400D02*
X146300D01*
X143500Y5400D01*
X146300D01*
G01X143500Y6550D02*
X146300D01*
Y7410D01*
X146160Y7760D01*
X145970Y8020D01*
X145690Y8240D01*
X145370Y8410D01*
X144900Y8450D01*
X144430Y8410D01*
X144110Y8240D01*
X143830Y8020D01*
X143640Y7760D01*
X143500Y7410D01*
Y6550D01*
G01X136300Y220D02*
X133500Y1300D01*
X136300Y2380D01*
G01X133920Y3450D02*
X133690Y3710D01*
X133550Y4010D01*
X133500Y4400D01*
X133590Y4790D01*
X133780Y5090D01*
X134110Y5310D01*
X134480Y5350D01*
X134850Y5270D01*
X135090Y5050D01*
X135270Y4750D01*
X135320Y4440D01*
X135270Y4140D01*
X135090Y3750D01*
X136300Y3880D01*
Y5050D01*
G01X133410Y7500D02*
X133450Y7410D01*
X133550D01*
X133590Y7500D01*
X133550Y7590D01*
X133450D01*
X133410Y7500D01*
G01X136300Y10600D02*
X136210Y10250D01*
X135970Y9990D01*
X135690Y9820D01*
X135320Y9690D01*
X134900Y9650D01*
X134480Y9690D01*
X134110Y9820D01*
X133830Y9990D01*
X133590Y10250D01*
X133500Y10600D01*
X133590Y10950D01*
X133830Y11210D01*
X134110Y11380D01*
X134480Y11510D01*
X134900Y11550D01*
X135320Y11510D01*
X135690Y11380D01*
X135970Y11210D01*
X136210Y10950D01*
X136300Y10600D01*
G01X182770Y127500D02*
Y130300D01*
X181730D01*
X181380Y130160D01*
X181120Y129830D01*
X181030Y129460D01*
X181120Y129090D01*
X181340Y128810D01*
X181730Y128670D01*
X182770D01*
G01X179750Y128060D02*
X179490Y127730D01*
X179150Y127550D01*
X178760Y127500D01*
X178410Y127550D01*
X178060Y127780D01*
X177850Y128060D01*
X177800Y128340D01*
X177890Y128670D01*
X178190Y128900D01*
X178500Y128990D01*
X178890D01*
G01X178500D02*
X178240Y129130D01*
X178020Y129370D01*
X177930Y129650D01*
X178020Y129930D01*
X178240Y130160D01*
X178630Y130300D01*
X179020Y130250D01*
X179410Y130070D01*
G01X175700Y127410D02*
X175790Y127450D01*
Y127550D01*
X175700Y127590D01*
X175610Y127550D01*
Y127450D01*
X175700Y127410D01*
G01X173420Y129830D02*
X173160Y130110D01*
X172860Y130250D01*
X172510Y130300D01*
X172080Y130210D01*
X171780Y129970D01*
X171690Y129690D01*
X171730Y129410D01*
X171910Y129180D01*
X172770Y128710D01*
X173160Y128390D01*
X173420Y127920D01*
X173510Y127500D01*
X171690D01*
G01X166620Y126570D02*
X167050Y127030D01*
X167270Y127500D01*
Y129370D01*
X167050Y129830D01*
X166620Y130300D01*
G01X164210Y127870D02*
X163860Y127640D01*
X163470Y127500D01*
X163130D01*
X162780Y127640D01*
X162520Y127870D01*
X162390Y128200D01*
X162480Y128530D01*
X162690Y128810D01*
X163080Y128990D01*
X163600Y129090D01*
X163910Y129270D01*
X164040Y129600D01*
X163950Y129930D01*
X163730Y130160D01*
X163430Y130300D01*
X163130D01*
X162820Y130210D01*
X162560Y129970D01*
G01X161500Y130300D02*
X160890Y127500D01*
X160200Y130300D01*
X159510Y127500D01*
X158900Y130300D01*
G01X158050Y127500D02*
Y130300D01*
X157190D01*
X156840Y130160D01*
X156580Y129970D01*
X156360Y129690D01*
X156190Y129370D01*
X156150Y128900D01*
X156190Y128430D01*
X156360Y128110D01*
X156580Y127830D01*
X156840Y127640D01*
X157190Y127500D01*
X158050D01*
G01X154520Y130300D02*
X153480D01*
G01X154000D02*
Y127500D01*
G01X154520D02*
X153480D01*
G01X150900D02*
X151250Y127550D01*
X151550Y127730D01*
X151810Y128010D01*
X151980Y128340D01*
X152070Y128710D01*
Y129090D01*
X151980Y129460D01*
X151810Y129790D01*
X151550Y130070D01*
X151250Y130250D01*
X150900Y130300D01*
X150550Y130250D01*
X150250Y130070D01*
X149990Y129790D01*
X149820Y129460D01*
X149730Y129090D01*
Y128710D01*
X149820Y128340D01*
X149990Y128010D01*
X150250Y127730D01*
X150550Y127550D01*
X150900Y127500D01*
G01X147580Y126570D02*
X147150Y127030D01*
X146930Y127500D01*
Y129370D01*
X147150Y129830D01*
X147580Y130300D01*
G01X157970Y117500D02*
Y120300D01*
X156930D01*
X156580Y120160D01*
X156320Y119830D01*
X156230Y119460D01*
X156320Y119090D01*
X156540Y118810D01*
X156930Y118670D01*
X157970D01*
G01X154950Y118060D02*
X154690Y117730D01*
X154350Y117550D01*
X153960Y117500D01*
X153610Y117550D01*
X153260Y117780D01*
X153050Y118060D01*
X153000Y118340D01*
X153090Y118670D01*
X153390Y118900D01*
X153700Y118990D01*
X154090D01*
G01X153700D02*
X153440Y119130D01*
X153220Y119370D01*
X153130Y119650D01*
X153220Y119930D01*
X153440Y120160D01*
X153830Y120300D01*
X154220Y120250D01*
X154610Y120070D01*
G01X150900Y117410D02*
X150990Y117450D01*
Y117550D01*
X150900Y117590D01*
X150810Y117550D01*
Y117450D01*
X150900Y117410D01*
G01X147800Y120300D02*
X148150Y120210D01*
X148410Y119970D01*
X148580Y119690D01*
X148710Y119320D01*
X148750Y118900D01*
X148710Y118480D01*
X148580Y118110D01*
X148410Y117830D01*
X148150Y117590D01*
X147800Y117500D01*
X147450Y117590D01*
X147190Y117830D01*
X147020Y118110D01*
X146890Y118480D01*
X146850Y118900D01*
X146890Y119320D01*
X147020Y119690D01*
X147190Y119970D01*
X147450Y120210D01*
X147800Y120300D01*
G01X157970Y112500D02*
Y115300D01*
X156930D01*
X156580Y115160D01*
X156320Y114830D01*
X156230Y114460D01*
X156320Y114090D01*
X156540Y113810D01*
X156930Y113670D01*
X157970D01*
G01X154950Y113060D02*
X154690Y112730D01*
X154350Y112550D01*
X153960Y112500D01*
X153610Y112550D01*
X153260Y112780D01*
X153050Y113060D01*
X153000Y113340D01*
X153090Y113670D01*
X153390Y113900D01*
X153700Y113990D01*
X154090D01*
G01X153700D02*
X153440Y114130D01*
X153220Y114370D01*
X153130Y114650D01*
X153220Y114930D01*
X153440Y115160D01*
X153830Y115300D01*
X154220Y115250D01*
X154610Y115070D01*
G01X150900Y112410D02*
X150990Y112450D01*
Y112550D01*
X150900Y112590D01*
X150810Y112550D01*
Y112450D01*
X150900Y112410D01*
G01X147800Y112500D02*
Y115300D01*
X148320Y114740D01*
G01Y112500D02*
X147280D01*
G01X161070Y107500D02*
Y110300D01*
X159980D01*
X159640Y110160D01*
X159420Y109970D01*
X159330Y109600D01*
X159420Y109230D01*
X159680Y108990D01*
X159980Y108850D01*
X161070D01*
G01X159980D02*
X159330Y107500D01*
G01X156230D02*
X157970D01*
Y110300D01*
X156230D01*
G01X156930Y108950D02*
X157970D01*
G01X154910Y107870D02*
X154560Y107640D01*
X154170Y107500D01*
X153830D01*
X153480Y107640D01*
X153220Y107870D01*
X153090Y108200D01*
X153180Y108530D01*
X153390Y108810D01*
X153780Y108990D01*
X154300Y109090D01*
X154610Y109270D01*
X154740Y109600D01*
X154650Y109930D01*
X154430Y110160D01*
X154130Y110300D01*
X153830D01*
X153520Y110210D01*
X153260Y109970D01*
G01X150030Y107500D02*
X151770D01*
Y110300D01*
X150030D01*
G01X150730Y108950D02*
X151770D01*
G01X147800Y110300D02*
Y107500D01*
G01X148800Y110300D02*
X146800D01*
G01X185870Y122500D02*
Y125300D01*
X184830D01*
X184480Y125160D01*
X184220Y124830D01*
X184130Y124460D01*
X184220Y124090D01*
X184440Y123810D01*
X184830Y123670D01*
X185870D01*
G01X182850Y123060D02*
X182590Y122730D01*
X182250Y122550D01*
X181860Y122500D01*
X181510Y122550D01*
X181160Y122780D01*
X180950Y123060D01*
X180900Y123340D01*
X180990Y123670D01*
X181290Y123900D01*
X181600Y123990D01*
X181990D01*
G01X181600D02*
X181340Y124130D01*
X181120Y124370D01*
X181030Y124650D01*
X181120Y124930D01*
X181340Y125160D01*
X181730Y125300D01*
X182120Y125250D01*
X182510Y125070D01*
G01X178800Y122410D02*
X178890Y122450D01*
Y122550D01*
X178800Y122590D01*
X178710Y122550D01*
Y122450D01*
X178800Y122410D01*
G01X176650Y123060D02*
X176390Y122730D01*
X176050Y122550D01*
X175660Y122500D01*
X175310Y122550D01*
X174960Y122780D01*
X174750Y123060D01*
X174700Y123340D01*
X174790Y123670D01*
X175090Y123900D01*
X175400Y123990D01*
X175790D01*
G01X175400D02*
X175140Y124130D01*
X174920Y124370D01*
X174830Y124650D01*
X174920Y124930D01*
X175140Y125160D01*
X175530Y125300D01*
X175920Y125250D01*
X176310Y125070D01*
G01X169720Y121570D02*
X170150Y122030D01*
X170370Y122500D01*
Y124370D01*
X170150Y124830D01*
X169720Y125300D01*
G01X167310Y122870D02*
X166960Y122640D01*
X166570Y122500D01*
X166230D01*
X165880Y122640D01*
X165620Y122870D01*
X165490Y123200D01*
X165580Y123530D01*
X165790Y123810D01*
X166180Y123990D01*
X166700Y124090D01*
X167010Y124270D01*
X167140Y124600D01*
X167050Y124930D01*
X166830Y125160D01*
X166530Y125300D01*
X166230D01*
X165920Y125210D01*
X165660Y124970D01*
G01X164600Y125300D02*
X163990Y122500D01*
X163300Y125300D01*
X162610Y122500D01*
X162000Y125300D01*
G01X161150Y122500D02*
Y125300D01*
X160290D01*
X159940Y125160D01*
X159680Y124970D01*
X159460Y124690D01*
X159290Y124370D01*
X159250Y123900D01*
X159290Y123430D01*
X159460Y123110D01*
X159680Y122830D01*
X159940Y122640D01*
X160290Y122500D01*
X161150D01*
G01X156150Y125070D02*
X156410Y125210D01*
X156710Y125300D01*
X157060D01*
X157450Y125160D01*
X157750Y124930D01*
X157970Y124650D01*
X158140Y124180D01*
X158180Y123760D01*
X158100Y123340D01*
X157970Y123060D01*
X157710Y122780D01*
X157400Y122590D01*
X157100Y122500D01*
X156800D01*
X156490Y122590D01*
X156230Y122730D01*
X156020Y122920D01*
G01X154870Y125300D02*
Y122500D01*
X153130D01*
G01X151850D02*
Y125300D01*
G01X150210D02*
X151850Y123570D01*
G01X149950Y122500D02*
X151120Y124370D01*
G01X147580Y121570D02*
X147150Y122030D01*
X146930Y122500D01*
Y124370D01*
X147150Y124830D01*
X147580Y125300D01*
G01X148000Y153030D02*
X150800D01*
Y154070D01*
X150660Y154420D01*
X150330Y154680D01*
X149960Y154770D01*
X149590Y154680D01*
X149310Y154460D01*
X149170Y154070D01*
Y153030D01*
G01X150330Y156180D02*
X150610Y156440D01*
X150750Y156740D01*
X150800Y157090D01*
X150710Y157520D01*
X150470Y157820D01*
X150190Y157910D01*
X149910Y157870D01*
X149680Y157690D01*
X149210Y156830D01*
X148890Y156440D01*
X148420Y156180D01*
X148000Y156090D01*
Y157910D01*
G01X147910Y160100D02*
X147950Y160010D01*
X148050D01*
X148090Y160100D01*
X148050Y160190D01*
X147950D01*
X147910Y160100D01*
G01X149170Y162380D02*
X149490Y162680D01*
X149680Y162940D01*
X149770Y163290D01*
X149680Y163590D01*
X149490Y163810D01*
X149210Y163980D01*
X148890Y164020D01*
X148610Y163980D01*
X148330Y163810D01*
X148090Y163550D01*
X148000Y163240D01*
X148090Y162900D01*
X148370Y162590D01*
X148790Y162420D01*
X149260Y162380D01*
X149870Y162460D01*
X150190Y162590D01*
X150520Y162810D01*
X150750Y163110D01*
X150800Y163420D01*
X150710Y163720D01*
X150470Y163940D01*
G01X147070Y169180D02*
X147530Y168750D01*
X148000Y168530D01*
X149870D01*
X150330Y168750D01*
X150800Y169180D01*
G01X148000Y171550D02*
X150800D01*
Y172410D01*
X150660Y172760D01*
X150470Y173020D01*
X150190Y173240D01*
X149870Y173410D01*
X149400Y173450D01*
X148930Y173410D01*
X148610Y173240D01*
X148330Y173020D01*
X148140Y172760D01*
X148000Y172410D01*
Y171550D01*
G01Y175600D02*
X148050Y175900D01*
X148190Y176250D01*
X148420Y176470D01*
X148750Y176550D01*
X149070Y176470D01*
X149350Y176210D01*
X149490Y175820D01*
Y175380D01*
X149590Y175120D01*
X149820Y174910D01*
X150150Y174820D01*
X150470Y174950D01*
X150710Y175250D01*
X150800Y175600D01*
X150710Y175950D01*
X150470Y176250D01*
X150150Y176380D01*
X149820Y176290D01*
X149590Y176080D01*
X149490Y175820D01*
Y175380D01*
X149350Y174990D01*
X149070Y174730D01*
X148750Y174650D01*
X148420Y174730D01*
X148190Y174950D01*
X148050Y175300D01*
X148000Y175600D01*
G01X147070Y178920D02*
X147530Y179350D01*
X148000Y179570D01*
X149870D01*
X150330Y179350D01*
X150800Y178920D01*
G01X138000Y153030D02*
X140800D01*
Y154070D01*
X140660Y154420D01*
X140330Y154680D01*
X139960Y154770D01*
X139590Y154680D01*
X139310Y154460D01*
X139170Y154070D01*
Y153030D01*
G01X138560Y156050D02*
X138230Y156310D01*
X138050Y156650D01*
X138000Y157040D01*
X138050Y157390D01*
X138280Y157740D01*
X138560Y157950D01*
X138840Y158000D01*
X139170Y157910D01*
X139400Y157610D01*
X139490Y157300D01*
Y156910D01*
G01Y157300D02*
X139630Y157560D01*
X139870Y157780D01*
X140150Y157870D01*
X140430Y157780D01*
X140660Y157560D01*
X140800Y157170D01*
X140750Y156780D01*
X140570Y156390D01*
G01X137910Y160100D02*
X137950Y160010D01*
X138050D01*
X138090Y160100D01*
X138050Y160190D01*
X137950D01*
X137910Y160100D01*
G01X139170Y162380D02*
X139490Y162680D01*
X139680Y162940D01*
X139770Y163290D01*
X139680Y163590D01*
X139490Y163810D01*
X139210Y163980D01*
X138890Y164020D01*
X138610Y163980D01*
X138330Y163810D01*
X138090Y163550D01*
X138000Y163240D01*
X138090Y162900D01*
X138370Y162590D01*
X138790Y162420D01*
X139260Y162380D01*
X139870Y162460D01*
X140190Y162590D01*
X140520Y162810D01*
X140750Y163110D01*
X140800Y163420D01*
X140710Y163720D01*
X140470Y163940D01*
G01X137070Y169180D02*
X137530Y168750D01*
X138000Y168530D01*
X139870D01*
X140330Y168750D01*
X140800Y169180D01*
G01X138000Y171550D02*
X140800D01*
Y172410D01*
X140660Y172760D01*
X140470Y173020D01*
X140190Y173240D01*
X139870Y173410D01*
X139400Y173450D01*
X138930Y173410D01*
X138610Y173240D01*
X138330Y173020D01*
X138140Y172760D01*
X138000Y172410D01*
Y171550D01*
G01X138330Y174860D02*
X138090Y175170D01*
X138000Y175510D01*
X138090Y175860D01*
X138370Y176160D01*
X138790Y176380D01*
X139210Y176470D01*
X139730D01*
X140150Y176380D01*
X140520Y176160D01*
X140710Y175900D01*
X140800Y175600D01*
X140710Y175250D01*
X140520Y174990D01*
X140240Y174820D01*
X139870Y174730D01*
X139540Y174820D01*
X139210Y175040D01*
X139030Y175300D01*
X138980Y175600D01*
X139070Y175950D01*
X139310Y176210D01*
X139730Y176470D01*
G01X137070Y178920D02*
X137530Y179350D01*
X138000Y179570D01*
X139870D01*
X140330Y179350D01*
X140800Y178920D01*
G01X128000Y149930D02*
X130800D01*
Y150970D01*
X130660Y151320D01*
X130330Y151580D01*
X129960Y151670D01*
X129590Y151580D01*
X129310Y151360D01*
X129170Y150970D01*
Y149930D01*
G01X128560Y152950D02*
X128230Y153210D01*
X128050Y153550D01*
X128000Y153940D01*
X128050Y154290D01*
X128280Y154640D01*
X128560Y154850D01*
X128840Y154900D01*
X129170Y154810D01*
X129400Y154510D01*
X129490Y154200D01*
Y153810D01*
G01Y154200D02*
X129630Y154460D01*
X129870Y154680D01*
X130150Y154770D01*
X130430Y154680D01*
X130660Y154460D01*
X130800Y154070D01*
X130750Y153680D01*
X130570Y153290D01*
G01X127910Y157000D02*
X127950Y156910D01*
X128050D01*
X128090Y157000D01*
X128050Y157090D01*
X127950D01*
X127910Y157000D01*
G01X128000Y160620D02*
X130800D01*
X128790Y159020D01*
Y161180D01*
G01X127070Y166080D02*
X127530Y165650D01*
X128000Y165430D01*
X129870D01*
X130330Y165650D01*
X130800Y166080D01*
G01X128000Y168450D02*
X130800D01*
Y169310D01*
X130660Y169660D01*
X130470Y169920D01*
X130190Y170140D01*
X129870Y170310D01*
X129400Y170350D01*
X128930Y170310D01*
X128610Y170140D01*
X128330Y169920D01*
X128140Y169660D01*
X128000Y169310D01*
Y168450D01*
G01Y172500D02*
X130800D01*
X130240Y171980D01*
G01X128000D02*
Y173020D01*
G01X130800Y175600D02*
X130710Y175250D01*
X130470Y174990D01*
X130190Y174820D01*
X129820Y174690D01*
X129400Y174650D01*
X128980Y174690D01*
X128610Y174820D01*
X128330Y174990D01*
X128090Y175250D01*
X128000Y175600D01*
X128090Y175950D01*
X128330Y176210D01*
X128610Y176380D01*
X128980Y176510D01*
X129400Y176550D01*
X129820Y176510D01*
X130190Y176380D01*
X130470Y176210D01*
X130710Y175950D01*
X130800Y175600D01*
G01X127070Y178920D02*
X127530Y179350D01*
X128000Y179570D01*
X129870D01*
X130330Y179350D01*
X130800Y178920D01*
G01X170000Y-5000D02*
Y-2200D01*
X170520Y-2760D01*
G01Y-5000D02*
X169480D01*
G01X166300Y220D02*
X163500Y1300D01*
X166300Y2380D01*
G01Y3880D02*
Y4920D01*
G01Y4400D02*
X163500D01*
G01Y3880D02*
Y4920D01*
G01Y6500D02*
X166300D01*
X163500Y8500D01*
X166300D01*
G01X154900Y1560D02*
Y2430D01*
X154060D01*
X153780Y2170D01*
X153590Y1860D01*
X153500Y1430D01*
X153590Y1000D01*
X153780Y690D01*
X154060Y430D01*
X154390Y260D01*
X154760Y170D01*
X155090D01*
X155370Y260D01*
X155690Y430D01*
X155970Y690D01*
X156160Y950D01*
X156300Y1300D01*
Y1600D01*
X156210Y1950D01*
X156020Y2210D01*
G01X153500Y3400D02*
X156300D01*
X153500Y5400D01*
X156300D01*
G01X153500Y6550D02*
X156300D01*
Y7410D01*
X156160Y7760D01*
X155970Y8020D01*
X155690Y8240D01*
X155370Y8410D01*
X154900Y8450D01*
X154430Y8410D01*
X154110Y8240D01*
X153830Y8020D01*
X153640Y7760D01*
X153500Y7410D01*
Y6550D01*
G01X172420Y3060D02*
X172200Y2780D01*
X171940Y2590D01*
X171640Y2500D01*
X171290Y2590D01*
X171030Y2780D01*
X170770Y3060D01*
X170680Y3430D01*
Y5300D01*
G01X168450Y2500D02*
Y5300D01*
X168970Y4740D01*
G01Y2500D02*
X167930D01*
G01X163500Y153030D02*
X166300D01*
Y154070D01*
X166160Y154420D01*
X165830Y154680D01*
X165460Y154770D01*
X165090Y154680D01*
X164810Y154460D01*
X164670Y154070D01*
Y153030D01*
G01X165830Y156180D02*
X166110Y156440D01*
X166250Y156740D01*
X166300Y157090D01*
X166210Y157520D01*
X165970Y157820D01*
X165690Y157910D01*
X165410Y157870D01*
X165180Y157690D01*
X164710Y156830D01*
X164390Y156440D01*
X163920Y156180D01*
X163500Y156090D01*
Y157910D01*
G01X163410Y160100D02*
X163450Y160010D01*
X163550D01*
X163590Y160100D01*
X163550Y160190D01*
X163450D01*
X163410Y160100D01*
G01X163500Y163110D02*
X164110Y163200D01*
X164620Y163330D01*
X165090Y163500D01*
X165600Y163720D01*
X166300Y164070D01*
Y162330D01*
G01X162570Y169180D02*
X163030Y168750D01*
X163500Y168530D01*
X165370D01*
X165830Y168750D01*
X166300Y169180D01*
G01X163500Y171550D02*
X166300D01*
Y172410D01*
X166160Y172760D01*
X165970Y173020D01*
X165690Y173240D01*
X165370Y173410D01*
X164900Y173450D01*
X164430Y173410D01*
X164110Y173240D01*
X163830Y173020D01*
X163640Y172760D01*
X163500Y172410D01*
Y171550D01*
G01Y175510D02*
X164110Y175600D01*
X164620Y175730D01*
X165090Y175900D01*
X165600Y176120D01*
X166300Y176470D01*
Y174730D01*
G01X162570Y178920D02*
X163030Y179350D01*
X163500Y179570D01*
X165370D01*
X165830Y179350D01*
X166300Y178920D01*
G01X173500Y153030D02*
X176300D01*
Y154070D01*
X176160Y154420D01*
X175830Y154680D01*
X175460Y154770D01*
X175090Y154680D01*
X174810Y154460D01*
X174670Y154070D01*
Y153030D01*
G01X173500Y157000D02*
X176300D01*
X175740Y156480D01*
G01X173500D02*
Y157520D01*
G01X173410Y160100D02*
X173450Y160010D01*
X173550D01*
X173590Y160100D01*
X173550Y160190D01*
X173450D01*
X173410Y160100D01*
G01X176300Y163200D02*
X176210Y162850D01*
X175970Y162590D01*
X175690Y162420D01*
X175320Y162290D01*
X174900Y162250D01*
X174480Y162290D01*
X174110Y162420D01*
X173830Y162590D01*
X173590Y162850D01*
X173500Y163200D01*
X173590Y163550D01*
X173830Y163810D01*
X174110Y163980D01*
X174480Y164110D01*
X174900Y164150D01*
X175320Y164110D01*
X175690Y163980D01*
X175970Y163810D01*
X176210Y163550D01*
X176300Y163200D01*
G01X172570Y169180D02*
X173030Y168750D01*
X173500Y168530D01*
X175370D01*
X175830Y168750D01*
X176300Y169180D01*
G01X173500Y171550D02*
X176300D01*
Y172410D01*
X176160Y172760D01*
X175970Y173020D01*
X175690Y173240D01*
X175370Y173410D01*
X174900Y173450D01*
X174430Y173410D01*
X174110Y173240D01*
X173830Y173020D01*
X173640Y172760D01*
X173500Y172410D01*
Y171550D01*
G01X174670Y174780D02*
X174990Y175080D01*
X175180Y175340D01*
X175270Y175690D01*
X175180Y175990D01*
X174990Y176210D01*
X174710Y176380D01*
X174390Y176420D01*
X174110Y176380D01*
X173830Y176210D01*
X173590Y175950D01*
X173500Y175640D01*
X173590Y175300D01*
X173870Y174990D01*
X174290Y174820D01*
X174760Y174780D01*
X175370Y174860D01*
X175690Y174990D01*
X176020Y175210D01*
X176250Y175510D01*
X176300Y175820D01*
X176210Y176120D01*
X175970Y176340D01*
G01X172570Y178920D02*
X173030Y179350D01*
X173500Y179570D01*
X175370D01*
X175830Y179350D01*
X176300Y178920D01*
G01X157420Y178060D02*
X157200Y177780D01*
X156940Y177590D01*
X156640Y177500D01*
X156290Y177590D01*
X156030Y177780D01*
X155770Y178060D01*
X155680Y178430D01*
Y180300D01*
G01X154400Y178060D02*
X154140Y177730D01*
X153800Y177550D01*
X153410Y177500D01*
X153060Y177550D01*
X152710Y177780D01*
X152500Y178060D01*
X152450Y178340D01*
X152540Y178670D01*
X152840Y178900D01*
X153150Y178990D01*
X153540D01*
G01X153150D02*
X152890Y179130D01*
X152670Y179370D01*
X152580Y179650D01*
X152670Y179930D01*
X152890Y180160D01*
X153280Y180300D01*
X153670Y180250D01*
X154060Y180070D01*
G01X158500Y185500D02*
X158200Y185550D01*
X157850Y185690D01*
X157630Y185920D01*
X157550Y186250D01*
X157630Y186570D01*
X157890Y186850D01*
X158280Y186990D01*
X158720D01*
X158980Y187090D01*
X159190Y187320D01*
X159280Y187650D01*
X159150Y187970D01*
X158850Y188210D01*
X158500Y188300D01*
X158150Y188210D01*
X157850Y187970D01*
X157720Y187650D01*
X157810Y187320D01*
X158020Y187090D01*
X158280Y186990D01*
X158720D01*
X159110Y186850D01*
X159370Y186570D01*
X159450Y186250D01*
X159370Y185920D01*
X159150Y185690D01*
X158800Y185550D01*
X158500Y185500D01*
G01X155000Y182500D02*
Y185300D01*
X155520Y184740D01*
G01Y182500D02*
X154480D01*
G01X177000Y-8000D02*
Y-5200D01*
X177520Y-5760D01*
G01Y-8000D02*
X176480D01*
G01X178320Y7330D02*
X178060Y7610D01*
X177760Y7750D01*
X177410Y7800D01*
X176980Y7710D01*
X176680Y7470D01*
X176590Y7190D01*
X176630Y6910D01*
X176810Y6680D01*
X177670Y6210D01*
X178060Y5890D01*
X178320Y5420D01*
X178410Y5000D01*
X176590D01*
G01X193500Y25430D02*
X196300D01*
Y26470D01*
X196160Y26820D01*
X195830Y27080D01*
X195460Y27170D01*
X195090Y27080D01*
X194810Y26860D01*
X194670Y26470D01*
Y25430D01*
G01X195830Y28580D02*
X196110Y28840D01*
X196250Y29140D01*
X196300Y29490D01*
X196210Y29920D01*
X195970Y30220D01*
X195690Y30310D01*
X195410Y30270D01*
X195180Y30090D01*
X194710Y29230D01*
X194390Y28840D01*
X193920Y28580D01*
X193500Y28490D01*
Y30310D01*
G01X193410Y32500D02*
X193450Y32410D01*
X193550D01*
X193590Y32500D01*
X193550Y32590D01*
X193450D01*
X193410Y32500D01*
G01X193500Y35600D02*
X196300D01*
X195740Y35080D01*
G01X193500D02*
Y36120D01*
G01Y44030D02*
X196300D01*
Y45070D01*
X196160Y45420D01*
X195830Y45680D01*
X195460Y45770D01*
X195090Y45680D01*
X194810Y45460D01*
X194670Y45070D01*
Y44030D01*
G01X196300Y48000D02*
X196210Y47650D01*
X195970Y47390D01*
X195690Y47220D01*
X195320Y47090D01*
X194900Y47050D01*
X194480Y47090D01*
X194110Y47220D01*
X193830Y47390D01*
X193590Y47650D01*
X193500Y48000D01*
X193590Y48350D01*
X193830Y48610D01*
X194110Y48780D01*
X194480Y48910D01*
X194900Y48950D01*
X195320Y48910D01*
X195690Y48780D01*
X195970Y48610D01*
X196210Y48350D01*
X196300Y48000D01*
G01X193410Y51100D02*
X193450Y51010D01*
X193550D01*
X193590Y51100D01*
X193550Y51190D01*
X193450D01*
X193410Y51100D01*
G01X194060Y53250D02*
X193730Y53510D01*
X193550Y53850D01*
X193500Y54240D01*
X193550Y54590D01*
X193780Y54940D01*
X194060Y55150D01*
X194340Y55200D01*
X194670Y55110D01*
X194900Y54810D01*
X194990Y54500D01*
Y54110D01*
G01Y54500D02*
X195130Y54760D01*
X195370Y54980D01*
X195650Y55070D01*
X195930Y54980D01*
X196160Y54760D01*
X196300Y54370D01*
X196250Y53980D01*
X196070Y53590D01*
G01X183500Y25430D02*
X186300D01*
Y26470D01*
X186160Y26820D01*
X185830Y27080D01*
X185460Y27170D01*
X185090Y27080D01*
X184810Y26860D01*
X184670Y26470D01*
Y25430D01*
G01X185830Y28580D02*
X186110Y28840D01*
X186250Y29140D01*
X186300Y29490D01*
X186210Y29920D01*
X185970Y30220D01*
X185690Y30310D01*
X185410Y30270D01*
X185180Y30090D01*
X184710Y29230D01*
X184390Y28840D01*
X183920Y28580D01*
X183500Y28490D01*
Y30310D01*
G01X183410Y32500D02*
X183450Y32410D01*
X183550D01*
X183590Y32500D01*
X183550Y32590D01*
X183450D01*
X183410Y32500D01*
G01X186300Y35600D02*
X186210Y35250D01*
X185970Y34990D01*
X185690Y34820D01*
X185320Y34690D01*
X184900Y34650D01*
X184480Y34690D01*
X184110Y34820D01*
X183830Y34990D01*
X183590Y35250D01*
X183500Y35600D01*
X183590Y35950D01*
X183830Y36210D01*
X184110Y36380D01*
X184480Y36510D01*
X184900Y36550D01*
X185320Y36510D01*
X185690Y36380D01*
X185970Y36210D01*
X186210Y35950D01*
X186300Y35600D01*
G01X183500Y44030D02*
X186300D01*
Y45070D01*
X186160Y45420D01*
X185830Y45680D01*
X185460Y45770D01*
X185090Y45680D01*
X184810Y45460D01*
X184670Y45070D01*
Y44030D01*
G01X186300Y48000D02*
X186210Y47650D01*
X185970Y47390D01*
X185690Y47220D01*
X185320Y47090D01*
X184900Y47050D01*
X184480Y47090D01*
X184110Y47220D01*
X183830Y47390D01*
X183590Y47650D01*
X183500Y48000D01*
X183590Y48350D01*
X183830Y48610D01*
X184110Y48780D01*
X184480Y48910D01*
X184900Y48950D01*
X185320Y48910D01*
X185690Y48780D01*
X185970Y48610D01*
X186210Y48350D01*
X186300Y48000D01*
G01X183410Y51100D02*
X183450Y51010D01*
X183550D01*
X183590Y51100D01*
X183550Y51190D01*
X183450D01*
X183410Y51100D01*
G01X185830Y53380D02*
X186110Y53640D01*
X186250Y53940D01*
X186300Y54290D01*
X186210Y54720D01*
X185970Y55020D01*
X185690Y55110D01*
X185410Y55070D01*
X185180Y54890D01*
X184710Y54030D01*
X184390Y53640D01*
X183920Y53380D01*
X183500Y53290D01*
Y55110D01*
G01X182570Y11080D02*
X183030Y10650D01*
X183500Y10430D01*
X185370D01*
X185830Y10650D01*
X186300Y11080D01*
G01X183500Y13320D02*
X186300Y14400D01*
X183500Y15480D01*
G01X184480Y15090D02*
Y13710D01*
G01X186300Y17500D02*
X186210Y17150D01*
X185970Y16890D01*
X185690Y16720D01*
X185320Y16590D01*
X184900Y16550D01*
X184480Y16590D01*
X184110Y16720D01*
X183830Y16890D01*
X183590Y17150D01*
X183500Y17500D01*
X183590Y17850D01*
X183830Y18110D01*
X184110Y18280D01*
X184480Y18410D01*
X184900Y18450D01*
X185320Y18410D01*
X185690Y18280D01*
X185970Y18110D01*
X186210Y17850D01*
X186300Y17500D01*
G01X182570Y20820D02*
X183030Y21250D01*
X183500Y21470D01*
X185370D01*
X185830Y21250D01*
X186300Y20820D01*
G01X192170Y11080D02*
X192630Y10650D01*
X193100Y10430D01*
X194970D01*
X195430Y10650D01*
X195900Y11080D01*
G01X193100Y13320D02*
X195900Y14400D01*
X193100Y15480D01*
G01X194080Y15090D02*
Y13710D01*
G01X193100Y17500D02*
X195900D01*
X195340Y16980D01*
G01X193100D02*
Y18020D01*
G01X192170Y20820D02*
X192630Y21250D01*
X193100Y21470D01*
X194970D01*
X195430Y21250D01*
X195900Y20820D01*
G01X229570Y103500D02*
Y106300D01*
X228530D01*
X228180Y106160D01*
X227920Y105830D01*
X227830Y105460D01*
X227920Y105090D01*
X228140Y104810D01*
X228530Y104670D01*
X229570D01*
G01X226550Y104060D02*
X226290Y103730D01*
X225950Y103550D01*
X225560Y103500D01*
X225210Y103550D01*
X224860Y103780D01*
X224650Y104060D01*
X224600Y104340D01*
X224690Y104670D01*
X224990Y104900D01*
X225300Y104990D01*
X225690D01*
G01X225300D02*
X225040Y105130D01*
X224820Y105370D01*
X224730Y105650D01*
X224820Y105930D01*
X225040Y106160D01*
X225430Y106300D01*
X225820Y106250D01*
X226210Y106070D01*
G01X222500Y103410D02*
X222590Y103450D01*
Y103550D01*
X222500Y103590D01*
X222410Y103550D01*
Y103450D01*
X222500Y103410D01*
G01X219400Y103500D02*
Y106300D01*
X219920Y105740D01*
G01Y103500D02*
X218880D01*
G01X213420Y102570D02*
X213850Y103030D01*
X214070Y103500D01*
Y105370D01*
X213850Y105830D01*
X213420Y106300D01*
G01X211230Y103500D02*
Y106300D01*
X210100Y103970D01*
X208970Y106300D01*
Y103500D01*
G01X207520Y106300D02*
X206480D01*
G01X207000D02*
Y103500D01*
G01X207520D02*
X206480D01*
G01X204810Y103870D02*
X204460Y103640D01*
X204070Y103500D01*
X203730D01*
X203380Y103640D01*
X203120Y103870D01*
X202990Y104200D01*
X203080Y104530D01*
X203290Y104810D01*
X203680Y104990D01*
X204200Y105090D01*
X204510Y105270D01*
X204640Y105600D01*
X204550Y105930D01*
X204330Y106160D01*
X204030Y106300D01*
X203730D01*
X203420Y106210D01*
X203160Y105970D01*
G01X200800Y103500D02*
X201150Y103550D01*
X201450Y103730D01*
X201710Y104010D01*
X201880Y104340D01*
X201970Y104710D01*
Y105090D01*
X201880Y105460D01*
X201710Y105790D01*
X201450Y106070D01*
X201150Y106250D01*
X200800Y106300D01*
X200450Y106250D01*
X200150Y106070D01*
X199890Y105790D01*
X199720Y105460D01*
X199630Y105090D01*
Y104710D01*
X199720Y104340D01*
X199890Y104010D01*
X200150Y103730D01*
X200450Y103550D01*
X200800Y103500D01*
G01X197480Y102570D02*
X197050Y103030D01*
X196830Y103500D01*
Y105370D01*
X197050Y105830D01*
X197480Y106300D01*
G01X229570Y93500D02*
Y96300D01*
X228530D01*
X228180Y96160D01*
X227920Y95830D01*
X227830Y95460D01*
X227920Y95090D01*
X228140Y94810D01*
X228530Y94670D01*
X229570D01*
G01X225600Y96300D02*
X225950Y96210D01*
X226210Y95970D01*
X226380Y95690D01*
X226510Y95320D01*
X226550Y94900D01*
X226510Y94480D01*
X226380Y94110D01*
X226210Y93830D01*
X225950Y93590D01*
X225600Y93500D01*
X225250Y93590D01*
X224990Y93830D01*
X224820Y94110D01*
X224690Y94480D01*
X224650Y94900D01*
X224690Y95320D01*
X224820Y95690D01*
X224990Y95970D01*
X225250Y96210D01*
X225600Y96300D01*
G01X222500Y93410D02*
X222590Y93450D01*
Y93550D01*
X222500Y93590D01*
X222410Y93550D01*
Y93450D01*
X222500Y93410D01*
G01X220220Y94670D02*
X219920Y94990D01*
X219660Y95180D01*
X219310Y95270D01*
X219010Y95180D01*
X218790Y94990D01*
X218620Y94710D01*
X218580Y94390D01*
X218620Y94110D01*
X218790Y93830D01*
X219050Y93590D01*
X219360Y93500D01*
X219700Y93590D01*
X220010Y93870D01*
X220180Y94290D01*
X220220Y94760D01*
X220140Y95370D01*
X220010Y95690D01*
X219790Y96020D01*
X219490Y96250D01*
X219180Y96300D01*
X218880Y96210D01*
X218660Y95970D01*
G01X213420Y92570D02*
X213850Y93030D01*
X214070Y93500D01*
Y95370D01*
X213850Y95830D01*
X213420Y96300D01*
G01X211010Y93870D02*
X210660Y93640D01*
X210270Y93500D01*
X209930D01*
X209580Y93640D01*
X209320Y93870D01*
X209190Y94200D01*
X209280Y94530D01*
X209490Y94810D01*
X209880Y94990D01*
X210400Y95090D01*
X210710Y95270D01*
X210840Y95600D01*
X210750Y95930D01*
X210530Y96160D01*
X210230Y96300D01*
X209930D01*
X209620Y96210D01*
X209360Y95970D01*
G01X206050Y96070D02*
X206310Y96210D01*
X206610Y96300D01*
X206960D01*
X207350Y96160D01*
X207650Y95930D01*
X207870Y95650D01*
X208040Y95180D01*
X208080Y94760D01*
X208000Y94340D01*
X207870Y94060D01*
X207610Y93780D01*
X207300Y93590D01*
X207000Y93500D01*
X206700D01*
X206390Y93590D01*
X206130Y93730D01*
X205920Y93920D01*
G01X204850Y93500D02*
Y96300D01*
G01X203210D02*
X204850Y94570D01*
G01X202950Y93500D02*
X204120Y95370D01*
G01X200580Y92570D02*
X200150Y93030D01*
X199930Y93500D01*
Y95370D01*
X200150Y95830D01*
X200580Y96300D01*
G01X191500Y153030D02*
X194300D01*
Y154070D01*
X194160Y154420D01*
X193830Y154680D01*
X193460Y154770D01*
X193090Y154680D01*
X192810Y154460D01*
X192670Y154070D01*
Y153030D01*
G01X194300Y157000D02*
X194210Y156650D01*
X193970Y156390D01*
X193690Y156220D01*
X193320Y156090D01*
X192900Y156050D01*
X192480Y156090D01*
X192110Y156220D01*
X191830Y156390D01*
X191590Y156650D01*
X191500Y157000D01*
X191590Y157350D01*
X191830Y157610D01*
X192110Y157780D01*
X192480Y157910D01*
X192900Y157950D01*
X193320Y157910D01*
X193690Y157780D01*
X193970Y157610D01*
X194210Y157350D01*
X194300Y157000D01*
G01X191410Y160100D02*
X191450Y160010D01*
X191550D01*
X191590Y160100D01*
X191550Y160190D01*
X191450D01*
X191410Y160100D01*
G01X194300Y163200D02*
X194210Y162850D01*
X193970Y162590D01*
X193690Y162420D01*
X193320Y162290D01*
X192900Y162250D01*
X192480Y162290D01*
X192110Y162420D01*
X191830Y162590D01*
X191590Y162850D01*
X191500Y163200D01*
X191590Y163550D01*
X191830Y163810D01*
X192110Y163980D01*
X192480Y164110D01*
X192900Y164150D01*
X193320Y164110D01*
X193690Y163980D01*
X193970Y163810D01*
X194210Y163550D01*
X194300Y163200D01*
G01X190570Y169180D02*
X191030Y168750D01*
X191500Y168530D01*
X193370D01*
X193830Y168750D01*
X194300Y169180D01*
G01X191500Y171550D02*
X194300D01*
Y172410D01*
X194160Y172760D01*
X193970Y173020D01*
X193690Y173240D01*
X193370Y173410D01*
X192900Y173450D01*
X192430Y173410D01*
X192110Y173240D01*
X191830Y173020D01*
X191640Y172760D01*
X191500Y172410D01*
Y171550D01*
G01Y176120D02*
X194300D01*
X192290Y174520D01*
Y176680D01*
G01X190570Y178920D02*
X191030Y179350D01*
X191500Y179570D01*
X193370D01*
X193830Y179350D01*
X194300Y178920D01*
G01X183500Y153030D02*
X186300D01*
Y154070D01*
X186160Y154420D01*
X185830Y154680D01*
X185460Y154770D01*
X185090Y154680D01*
X184810Y154460D01*
X184670Y154070D01*
Y153030D01*
G01X184060Y156050D02*
X183730Y156310D01*
X183550Y156650D01*
X183500Y157040D01*
X183550Y157390D01*
X183780Y157740D01*
X184060Y157950D01*
X184340Y158000D01*
X184670Y157910D01*
X184900Y157610D01*
X184990Y157300D01*
Y156910D01*
G01Y157300D02*
X185130Y157560D01*
X185370Y157780D01*
X185650Y157870D01*
X185930Y157780D01*
X186160Y157560D01*
X186300Y157170D01*
X186250Y156780D01*
X186070Y156390D01*
G01X183410Y160100D02*
X183450Y160010D01*
X183550D01*
X183590Y160100D01*
X183550Y160190D01*
X183450D01*
X183410Y160100D01*
G01X183920Y162250D02*
X183690Y162510D01*
X183550Y162810D01*
X183500Y163200D01*
X183590Y163590D01*
X183780Y163890D01*
X184110Y164110D01*
X184480Y164150D01*
X184850Y164070D01*
X185090Y163850D01*
X185270Y163550D01*
X185320Y163240D01*
X185270Y162940D01*
X185090Y162550D01*
X186300Y162680D01*
Y163850D01*
G01X182570Y169180D02*
X183030Y168750D01*
X183500Y168530D01*
X185370D01*
X185830Y168750D01*
X186300Y169180D01*
G01X183500Y171550D02*
X186300D01*
Y172410D01*
X186160Y172760D01*
X185970Y173020D01*
X185690Y173240D01*
X185370Y173410D01*
X184900Y173450D01*
X184430Y173410D01*
X184110Y173240D01*
X183830Y173020D01*
X183640Y172760D01*
X183500Y172410D01*
Y171550D01*
G01X183920Y174650D02*
X183690Y174910D01*
X183550Y175210D01*
X183500Y175600D01*
X183590Y175990D01*
X183780Y176290D01*
X184110Y176510D01*
X184480Y176550D01*
X184850Y176470D01*
X185090Y176250D01*
X185270Y175950D01*
X185320Y175640D01*
X185270Y175340D01*
X185090Y174950D01*
X186300Y175080D01*
Y176250D01*
G01X182570Y178920D02*
X183030Y179350D01*
X183500Y179570D01*
X185370D01*
X185830Y179350D01*
X186300Y178920D01*
G01X203230Y150800D02*
X202150Y148000D01*
X201070Y150800D01*
G01X200000Y148560D02*
X199740Y148230D01*
X199400Y148050D01*
X199010Y148000D01*
X198660Y148050D01*
X198310Y148280D01*
X198100Y148560D01*
X198050Y148840D01*
X198140Y149170D01*
X198440Y149400D01*
X198750Y149490D01*
X199140D01*
G01X198750D02*
X198490Y149630D01*
X198270Y149870D01*
X198180Y150150D01*
X198270Y150430D01*
X198490Y150660D01*
X198880Y150800D01*
X199270Y150750D01*
X199660Y150570D01*
G01X195950Y147910D02*
X196040Y147950D01*
Y148050D01*
X195950Y148090D01*
X195860Y148050D01*
Y147950D01*
X195950Y147910D01*
G01X193800Y148560D02*
X193540Y148230D01*
X193200Y148050D01*
X192810Y148000D01*
X192460Y148050D01*
X192110Y148280D01*
X191900Y148560D01*
X191850Y148840D01*
X191940Y149170D01*
X192240Y149400D01*
X192550Y149490D01*
X192940D01*
G01X192550D02*
X192290Y149630D01*
X192070Y149870D01*
X191980Y150150D01*
X192070Y150430D01*
X192290Y150660D01*
X192680Y150800D01*
X193070Y150750D01*
X193460Y150570D01*
G01X200100Y146300D02*
Y143500D01*
G01X201100Y146300D02*
X199100D01*
G01X197870Y143500D02*
Y146300D01*
X196830D01*
X196480Y146160D01*
X196220Y145830D01*
X196130Y145460D01*
X196220Y145090D01*
X196440Y144810D01*
X196830Y144670D01*
X197870D01*
G01X193900Y143500D02*
Y146300D01*
X194420Y145740D01*
G01Y143500D02*
X193380D01*
G01X223500Y25430D02*
X226300D01*
Y26470D01*
X226160Y26820D01*
X225830Y27080D01*
X225460Y27170D01*
X225090Y27080D01*
X224810Y26860D01*
X224670Y26470D01*
Y25430D01*
G01X225830Y28580D02*
X226110Y28840D01*
X226250Y29140D01*
X226300Y29490D01*
X226210Y29920D01*
X225970Y30220D01*
X225690Y30310D01*
X225410Y30270D01*
X225180Y30090D01*
X224710Y29230D01*
X224390Y28840D01*
X223920Y28580D01*
X223500Y28490D01*
Y30310D01*
G01X223410Y32500D02*
X223450Y32410D01*
X223550D01*
X223590Y32500D01*
X223550Y32590D01*
X223450D01*
X223410Y32500D01*
G01X223500Y36120D02*
X226300D01*
X224290Y34520D01*
Y36680D01*
G01X223500Y44030D02*
X226300D01*
Y45070D01*
X226160Y45420D01*
X225830Y45680D01*
X225460Y45770D01*
X225090Y45680D01*
X224810Y45460D01*
X224670Y45070D01*
Y44030D01*
G01X223500Y48000D02*
X226300D01*
X225740Y47480D01*
G01X223500D02*
Y48520D01*
G01X223410Y51100D02*
X223450Y51010D01*
X223550D01*
X223590Y51100D01*
X223550Y51190D01*
X223450D01*
X223410Y51100D01*
G01X223500Y54720D02*
X226300D01*
X224290Y53120D01*
Y55280D01*
G01X213500Y25430D02*
X216300D01*
Y26470D01*
X216160Y26820D01*
X215830Y27080D01*
X215460Y27170D01*
X215090Y27080D01*
X214810Y26860D01*
X214670Y26470D01*
Y25430D01*
G01X215830Y28580D02*
X216110Y28840D01*
X216250Y29140D01*
X216300Y29490D01*
X216210Y29920D01*
X215970Y30220D01*
X215690Y30310D01*
X215410Y30270D01*
X215180Y30090D01*
X214710Y29230D01*
X214390Y28840D01*
X213920Y28580D01*
X213500Y28490D01*
Y30310D01*
G01X213410Y32500D02*
X213450Y32410D01*
X213550D01*
X213590Y32500D01*
X213550Y32590D01*
X213450D01*
X213410Y32500D01*
G01X214060Y34650D02*
X213730Y34910D01*
X213550Y35250D01*
X213500Y35640D01*
X213550Y35990D01*
X213780Y36340D01*
X214060Y36550D01*
X214340Y36600D01*
X214670Y36510D01*
X214900Y36210D01*
X214990Y35900D01*
Y35510D01*
G01Y35900D02*
X215130Y36160D01*
X215370Y36380D01*
X215650Y36470D01*
X215930Y36380D01*
X216160Y36160D01*
X216300Y35770D01*
X216250Y35380D01*
X216070Y34990D01*
G01X213500Y44030D02*
X216300D01*
Y45070D01*
X216160Y45420D01*
X215830Y45680D01*
X215460Y45770D01*
X215090Y45680D01*
X214810Y45460D01*
X214670Y45070D01*
Y44030D01*
G01X213500Y48000D02*
X216300D01*
X215740Y47480D01*
G01X213500D02*
Y48520D01*
G01X213410Y51100D02*
X213450Y51010D01*
X213550D01*
X213590Y51100D01*
X213550Y51190D01*
X213450D01*
X213410Y51100D01*
G01X213920Y53250D02*
X213690Y53510D01*
X213550Y53810D01*
X213500Y54200D01*
X213590Y54590D01*
X213780Y54890D01*
X214110Y55110D01*
X214480Y55150D01*
X214850Y55070D01*
X215090Y54850D01*
X215270Y54550D01*
X215320Y54240D01*
X215270Y53940D01*
X215090Y53550D01*
X216300Y53680D01*
Y54850D01*
G01X203500Y25430D02*
X206300D01*
Y26470D01*
X206160Y26820D01*
X205830Y27080D01*
X205460Y27170D01*
X205090Y27080D01*
X204810Y26860D01*
X204670Y26470D01*
Y25430D01*
G01X205830Y28580D02*
X206110Y28840D01*
X206250Y29140D01*
X206300Y29490D01*
X206210Y29920D01*
X205970Y30220D01*
X205690Y30310D01*
X205410Y30270D01*
X205180Y30090D01*
X204710Y29230D01*
X204390Y28840D01*
X203920Y28580D01*
X203500Y28490D01*
Y30310D01*
G01X203410Y32500D02*
X203450Y32410D01*
X203550D01*
X203590Y32500D01*
X203550Y32590D01*
X203450D01*
X203410Y32500D01*
G01X205830Y34780D02*
X206110Y35040D01*
X206250Y35340D01*
X206300Y35690D01*
X206210Y36120D01*
X205970Y36420D01*
X205690Y36510D01*
X205410Y36470D01*
X205180Y36290D01*
X204710Y35430D01*
X204390Y35040D01*
X203920Y34780D01*
X203500Y34690D01*
Y36510D01*
G01Y44030D02*
X206300D01*
Y45070D01*
X206160Y45420D01*
X205830Y45680D01*
X205460Y45770D01*
X205090Y45680D01*
X204810Y45460D01*
X204670Y45070D01*
Y44030D01*
G01X203500Y48520D02*
X206300D01*
X204290Y46920D01*
Y49080D01*
G01X203410Y51100D02*
X203450Y51010D01*
X203550D01*
X203590Y51100D01*
X203550Y51190D01*
X203450D01*
X203410Y51100D01*
G01X206300Y53120D02*
X203500Y54200D01*
X206300Y55280D01*
G01X203500Y56350D02*
X206300D01*
Y57210D01*
X206160Y57560D01*
X205970Y57820D01*
X205690Y58040D01*
X205370Y58210D01*
X204900Y58250D01*
X204430Y58210D01*
X204110Y58040D01*
X203830Y57820D01*
X203640Y57560D01*
X203500Y57210D01*
Y56350D01*
G01Y59450D02*
X206300D01*
Y60310D01*
X206160Y60660D01*
X205970Y60920D01*
X205690Y61140D01*
X205370Y61310D01*
X204900Y61350D01*
X204430Y61310D01*
X204110Y61140D01*
X203830Y60920D01*
X203640Y60660D01*
X203500Y60310D01*
Y59450D01*
G01X202170Y11080D02*
X202630Y10650D01*
X203100Y10430D01*
X204970D01*
X205430Y10650D01*
X205900Y11080D01*
G01X203100Y13320D02*
X205900Y14400D01*
X203100Y15480D01*
G01X204080Y15090D02*
Y13710D01*
G01X205430Y16680D02*
X205710Y16940D01*
X205850Y17240D01*
X205900Y17590D01*
X205810Y18020D01*
X205570Y18320D01*
X205290Y18410D01*
X205010Y18370D01*
X204780Y18190D01*
X204310Y17330D01*
X203990Y16940D01*
X203520Y16680D01*
X203100Y16590D01*
Y18410D01*
G01X202170Y20820D02*
X202630Y21250D01*
X203100Y21470D01*
X204970D01*
X205430Y21250D01*
X205900Y20820D01*
G01X212170Y11080D02*
X212630Y10650D01*
X213100Y10430D01*
X214970D01*
X215430Y10650D01*
X215900Y11080D01*
G01X213100Y13320D02*
X215900Y14400D01*
X213100Y15480D01*
G01X214080Y15090D02*
Y13710D01*
G01X213660Y16550D02*
X213330Y16810D01*
X213150Y17150D01*
X213100Y17540D01*
X213150Y17890D01*
X213380Y18240D01*
X213660Y18450D01*
X213940Y18500D01*
X214270Y18410D01*
X214500Y18110D01*
X214590Y17800D01*
Y17410D01*
G01Y17800D02*
X214730Y18060D01*
X214970Y18280D01*
X215250Y18370D01*
X215530Y18280D01*
X215760Y18060D01*
X215900Y17670D01*
X215850Y17280D01*
X215670Y16890D01*
G01X212170Y20820D02*
X212630Y21250D01*
X213100Y21470D01*
X214970D01*
X215430Y21250D01*
X215900Y20820D01*
G01X222170Y11080D02*
X222630Y10650D01*
X223100Y10430D01*
X224970D01*
X225430Y10650D01*
X225900Y11080D01*
G01X223100Y13320D02*
X225900Y14400D01*
X223100Y15480D01*
G01X224080Y15090D02*
Y13710D01*
G01X223100Y18020D02*
X225900D01*
X223890Y16420D01*
Y18580D01*
G01X222170Y20820D02*
X222630Y21250D01*
X223100Y21470D01*
X224970D01*
X225430Y21250D01*
X225900Y20820D01*
G01X229570Y83500D02*
Y86300D01*
X228480D01*
X228140Y86160D01*
X227920Y85970D01*
X227830Y85600D01*
X227920Y85230D01*
X228180Y84990D01*
X228480Y84850D01*
X229570D01*
G01X228480D02*
X227830Y83500D01*
G01X224730D02*
X226470D01*
Y86300D01*
X224730D01*
G01X225430Y84950D02*
X226470D01*
G01X223410Y83870D02*
X223060Y83640D01*
X222670Y83500D01*
X222330D01*
X221980Y83640D01*
X221720Y83870D01*
X221590Y84200D01*
X221680Y84530D01*
X221890Y84810D01*
X222280Y84990D01*
X222800Y85090D01*
X223110Y85270D01*
X223240Y85600D01*
X223150Y85930D01*
X222930Y86160D01*
X222630Y86300D01*
X222330D01*
X222020Y86210D01*
X221760Y85970D01*
G01X218530Y83500D02*
X220270D01*
Y86300D01*
X218530D01*
G01X219230Y84950D02*
X220270D01*
G01X216300Y86300D02*
Y83500D01*
G01X217300Y86300D02*
X215300D01*
G01X223500Y153030D02*
X226300D01*
Y154070D01*
X226160Y154420D01*
X225830Y154680D01*
X225460Y154770D01*
X225090Y154680D01*
X224810Y154460D01*
X224670Y154070D01*
Y153030D01*
G01X226300Y157000D02*
X226210Y156650D01*
X225970Y156390D01*
X225690Y156220D01*
X225320Y156090D01*
X224900Y156050D01*
X224480Y156090D01*
X224110Y156220D01*
X223830Y156390D01*
X223590Y156650D01*
X223500Y157000D01*
X223590Y157350D01*
X223830Y157610D01*
X224110Y157780D01*
X224480Y157910D01*
X224900Y157950D01*
X225320Y157910D01*
X225690Y157780D01*
X225970Y157610D01*
X226210Y157350D01*
X226300Y157000D01*
G01X223410Y160100D02*
X223450Y160010D01*
X223550D01*
X223590Y160100D01*
X223550Y160190D01*
X223450D01*
X223410Y160100D01*
G01X223920Y162250D02*
X223690Y162510D01*
X223550Y162810D01*
X223500Y163200D01*
X223590Y163590D01*
X223780Y163890D01*
X224110Y164110D01*
X224480Y164150D01*
X224850Y164070D01*
X225090Y163850D01*
X225270Y163550D01*
X225320Y163240D01*
X225270Y162940D01*
X225090Y162550D01*
X226300Y162680D01*
Y163850D01*
G01X222570Y169180D02*
X223030Y168750D01*
X223500Y168530D01*
X225370D01*
X225830Y168750D01*
X226300Y169180D01*
G01X223500Y171550D02*
X226300D01*
Y172410D01*
X226160Y172760D01*
X225970Y173020D01*
X225690Y173240D01*
X225370Y173410D01*
X224900Y173450D01*
X224430Y173410D01*
X224110Y173240D01*
X223830Y173020D01*
X223640Y172760D01*
X223500Y172410D01*
Y171550D01*
G01Y175600D02*
X226300D01*
X225740Y175080D01*
G01X223500D02*
Y176120D01*
G01X222570Y178920D02*
X223030Y179350D01*
X223500Y179570D01*
X225370D01*
X225830Y179350D01*
X226300Y178920D01*
G01X213500Y153030D02*
X216300D01*
Y154070D01*
X216160Y154420D01*
X215830Y154680D01*
X215460Y154770D01*
X215090Y154680D01*
X214810Y154460D01*
X214670Y154070D01*
Y153030D01*
G01X216300Y157000D02*
X216210Y156650D01*
X215970Y156390D01*
X215690Y156220D01*
X215320Y156090D01*
X214900Y156050D01*
X214480Y156090D01*
X214110Y156220D01*
X213830Y156390D01*
X213590Y156650D01*
X213500Y157000D01*
X213590Y157350D01*
X213830Y157610D01*
X214110Y157780D01*
X214480Y157910D01*
X214900Y157950D01*
X215320Y157910D01*
X215690Y157780D01*
X215970Y157610D01*
X216210Y157350D01*
X216300Y157000D01*
G01X213410Y160100D02*
X213450Y160010D01*
X213550D01*
X213590Y160100D01*
X213550Y160190D01*
X213450D01*
X213410Y160100D01*
G01X213500Y163110D02*
X214110Y163200D01*
X214620Y163330D01*
X215090Y163500D01*
X215600Y163720D01*
X216300Y164070D01*
Y162330D01*
G01X212570Y169180D02*
X213030Y168750D01*
X213500Y168530D01*
X215370D01*
X215830Y168750D01*
X216300Y169180D01*
G01X213500Y171550D02*
X216300D01*
Y172410D01*
X216160Y172760D01*
X215970Y173020D01*
X215690Y173240D01*
X215370Y173410D01*
X214900Y173450D01*
X214430Y173410D01*
X214110Y173240D01*
X213830Y173020D01*
X213640Y172760D01*
X213500Y172410D01*
Y171550D01*
G01X215830Y174780D02*
X216110Y175040D01*
X216250Y175340D01*
X216300Y175690D01*
X216210Y176120D01*
X215970Y176420D01*
X215690Y176510D01*
X215410Y176470D01*
X215180Y176290D01*
X214710Y175430D01*
X214390Y175040D01*
X213920Y174780D01*
X213500Y174690D01*
Y176510D01*
G01X212570Y178920D02*
X213030Y179350D01*
X213500Y179570D01*
X215370D01*
X215830Y179350D01*
X216300Y178920D01*
G01X203500Y153030D02*
X206300D01*
Y154070D01*
X206160Y154420D01*
X205830Y154680D01*
X205460Y154770D01*
X205090Y154680D01*
X204810Y154460D01*
X204670Y154070D01*
Y153030D01*
G01X204060Y156050D02*
X203730Y156310D01*
X203550Y156650D01*
X203500Y157040D01*
X203550Y157390D01*
X203780Y157740D01*
X204060Y157950D01*
X204340Y158000D01*
X204670Y157910D01*
X204900Y157610D01*
X204990Y157300D01*
Y156910D01*
G01Y157300D02*
X205130Y157560D01*
X205370Y157780D01*
X205650Y157870D01*
X205930Y157780D01*
X206160Y157560D01*
X206300Y157170D01*
X206250Y156780D01*
X206070Y156390D01*
G01X203410Y160100D02*
X203450Y160010D01*
X203550D01*
X203590Y160100D01*
X203550Y160190D01*
X203450D01*
X203410Y160100D01*
G01X203500Y163110D02*
X204110Y163200D01*
X204620Y163330D01*
X205090Y163500D01*
X205600Y163720D01*
X206300Y164070D01*
Y162330D01*
G01X202570Y169180D02*
X203030Y168750D01*
X203500Y168530D01*
X205370D01*
X205830Y168750D01*
X206300Y169180D01*
G01X203500Y171550D02*
X206300D01*
Y172410D01*
X206160Y172760D01*
X205970Y173020D01*
X205690Y173240D01*
X205370Y173410D01*
X204900Y173450D01*
X204430Y173410D01*
X204110Y173240D01*
X203830Y173020D01*
X203640Y172760D01*
X203500Y172410D01*
Y171550D01*
G01X204060Y174650D02*
X203730Y174910D01*
X203550Y175250D01*
X203500Y175640D01*
X203550Y175990D01*
X203780Y176340D01*
X204060Y176550D01*
X204340Y176600D01*
X204670Y176510D01*
X204900Y176210D01*
X204990Y175900D01*
Y175510D01*
G01Y175900D02*
X205130Y176160D01*
X205370Y176380D01*
X205650Y176470D01*
X205930Y176380D01*
X206160Y176160D01*
X206300Y175770D01*
X206250Y175380D01*
X206070Y174990D01*
G01X202570Y178920D02*
X203030Y179350D01*
X203500Y179570D01*
X205370D01*
X205830Y179350D01*
X206300Y178920D01*
G01X243500Y25430D02*
X246300D01*
Y26470D01*
X246160Y26820D01*
X245830Y27080D01*
X245460Y27170D01*
X245090Y27080D01*
X244810Y26860D01*
X244670Y26470D01*
Y25430D01*
G01X246300Y29400D02*
X246210Y29050D01*
X245970Y28790D01*
X245690Y28620D01*
X245320Y28490D01*
X244900Y28450D01*
X244480Y28490D01*
X244110Y28620D01*
X243830Y28790D01*
X243590Y29050D01*
X243500Y29400D01*
X243590Y29750D01*
X243830Y30010D01*
X244110Y30180D01*
X244480Y30310D01*
X244900Y30350D01*
X245320Y30310D01*
X245690Y30180D01*
X245970Y30010D01*
X246210Y29750D01*
X246300Y29400D01*
G01X243410Y32500D02*
X243450Y32410D01*
X243550D01*
X243590Y32500D01*
X243550Y32590D01*
X243450D01*
X243410Y32500D01*
G01X246300Y35600D02*
X246210Y35250D01*
X245970Y34990D01*
X245690Y34820D01*
X245320Y34690D01*
X244900Y34650D01*
X244480Y34690D01*
X244110Y34820D01*
X243830Y34990D01*
X243590Y35250D01*
X243500Y35600D01*
X243590Y35950D01*
X243830Y36210D01*
X244110Y36380D01*
X244480Y36510D01*
X244900Y36550D01*
X245320Y36510D01*
X245690Y36380D01*
X245970Y36210D01*
X246210Y35950D01*
X246300Y35600D01*
G01X244900Y45160D02*
Y46030D01*
X244060D01*
X243780Y45770D01*
X243590Y45460D01*
X243500Y45030D01*
X243590Y44600D01*
X243780Y44290D01*
X244060Y44030D01*
X244390Y43860D01*
X244760Y43770D01*
X245090D01*
X245370Y43860D01*
X245690Y44030D01*
X245970Y44290D01*
X246160Y44550D01*
X246300Y44900D01*
Y45200D01*
X246210Y45550D01*
X246020Y45810D01*
G01X243500Y47000D02*
X246300D01*
X243500Y49000D01*
X246300D01*
G01X243500Y50150D02*
X246300D01*
Y51010D01*
X246160Y51360D01*
X245970Y51620D01*
X245690Y51840D01*
X245370Y52010D01*
X244900Y52050D01*
X244430Y52010D01*
X244110Y51840D01*
X243830Y51620D01*
X243640Y51360D01*
X243500Y51010D01*
Y50150D01*
G01X233500Y25430D02*
X236300D01*
Y26470D01*
X236160Y26820D01*
X235830Y27080D01*
X235460Y27170D01*
X235090Y27080D01*
X234810Y26860D01*
X234670Y26470D01*
Y25430D01*
G01X235830Y28580D02*
X236110Y28840D01*
X236250Y29140D01*
X236300Y29490D01*
X236210Y29920D01*
X235970Y30220D01*
X235690Y30310D01*
X235410Y30270D01*
X235180Y30090D01*
X234710Y29230D01*
X234390Y28840D01*
X233920Y28580D01*
X233500Y28490D01*
Y30310D01*
G01X233410Y32500D02*
X233450Y32410D01*
X233550D01*
X233590Y32500D01*
X233550Y32590D01*
X233450D01*
X233410Y32500D01*
G01X233920Y34650D02*
X233690Y34910D01*
X233550Y35210D01*
X233500Y35600D01*
X233590Y35990D01*
X233780Y36290D01*
X234110Y36510D01*
X234480Y36550D01*
X234850Y36470D01*
X235090Y36250D01*
X235270Y35950D01*
X235320Y35640D01*
X235270Y35340D01*
X235090Y34950D01*
X236300Y35080D01*
Y36250D01*
G01X233500Y44030D02*
X236300D01*
Y45070D01*
X236160Y45420D01*
X235830Y45680D01*
X235460Y45770D01*
X235090Y45680D01*
X234810Y45460D01*
X234670Y45070D01*
Y44030D01*
G01X233500Y48000D02*
X236300D01*
X235740Y47480D01*
G01X233500D02*
Y48520D01*
G01X233410Y51100D02*
X233450Y51010D01*
X233550D01*
X233590Y51100D01*
X233550Y51190D01*
X233450D01*
X233410Y51100D01*
G01X234060Y53250D02*
X233730Y53510D01*
X233550Y53850D01*
X233500Y54240D01*
X233550Y54590D01*
X233780Y54940D01*
X234060Y55150D01*
X234340Y55200D01*
X234670Y55110D01*
X234900Y54810D01*
X234990Y54500D01*
Y54110D01*
G01Y54500D02*
X235130Y54760D01*
X235370Y54980D01*
X235650Y55070D01*
X235930Y54980D01*
X236160Y54760D01*
X236300Y54370D01*
X236250Y53980D01*
X236070Y53590D01*
G01X232170Y11080D02*
X232630Y10650D01*
X233100Y10430D01*
X234970D01*
X235430Y10650D01*
X235900Y11080D01*
G01X233100Y13320D02*
X235900Y14400D01*
X233100Y15480D01*
G01X234080Y15090D02*
Y13710D01*
G01X233520Y16550D02*
X233290Y16810D01*
X233150Y17110D01*
X233100Y17500D01*
X233190Y17890D01*
X233380Y18190D01*
X233710Y18410D01*
X234080Y18450D01*
X234450Y18370D01*
X234690Y18150D01*
X234870Y17850D01*
X234920Y17540D01*
X234870Y17240D01*
X234690Y16850D01*
X235900Y16980D01*
Y18150D01*
G01X232170Y20820D02*
X232630Y21250D01*
X233100Y21470D01*
X234970D01*
X235430Y21250D01*
X235900Y20820D01*
G01X229950Y78920D02*
X229690Y78690D01*
X229390Y78550D01*
X229000Y78500D01*
X228610Y78590D01*
X228310Y78780D01*
X228090Y79110D01*
X228050Y79480D01*
X228130Y79850D01*
X228350Y80090D01*
X228650Y80270D01*
X228960Y80320D01*
X229260Y80270D01*
X229650Y80090D01*
X229520Y81300D01*
X228350D01*
G01X251320Y79670D02*
X251020Y79990D01*
X250760Y80180D01*
X250410Y80270D01*
X250110Y80180D01*
X249890Y79990D01*
X249720Y79710D01*
X249680Y79390D01*
X249720Y79110D01*
X249890Y78830D01*
X250150Y78590D01*
X250460Y78500D01*
X250800Y78590D01*
X251110Y78870D01*
X251280Y79290D01*
X251320Y79760D01*
X251240Y80370D01*
X251110Y80690D01*
X250890Y81020D01*
X250590Y81250D01*
X250280Y81300D01*
X249980Y81210D01*
X249760Y80970D01*
G01X267670Y103500D02*
Y106300D01*
X266630D01*
X266280Y106160D01*
X266020Y105830D01*
X265930Y105460D01*
X266020Y105090D01*
X266240Y104810D01*
X266630Y104670D01*
X267670D01*
G01X263180Y103500D02*
Y106300D01*
X264780Y104290D01*
X262620D01*
G01X260600Y103410D02*
X260690Y103450D01*
Y103550D01*
X260600Y103590D01*
X260510Y103550D01*
Y103450D01*
X260600Y103410D01*
G01X258580Y106300D02*
X257500Y103500D01*
X256420Y106300D01*
G01X255350Y103500D02*
Y106300D01*
X254490D01*
X254140Y106160D01*
X253880Y105970D01*
X253660Y105690D01*
X253490Y105370D01*
X253450Y104900D01*
X253490Y104430D01*
X253660Y104110D01*
X253880Y103830D01*
X254140Y103640D01*
X254490Y103500D01*
X255350D01*
G01X252250D02*
Y106300D01*
X251390D01*
X251040Y106160D01*
X250780Y105970D01*
X250560Y105690D01*
X250390Y105370D01*
X250350Y104900D01*
X250390Y104430D01*
X250560Y104110D01*
X250780Y103830D01*
X251040Y103640D01*
X251390Y103500D01*
X252250D01*
G01X283170Y93500D02*
Y96300D01*
X282130D01*
X281780Y96160D01*
X281520Y95830D01*
X281430Y95460D01*
X281520Y95090D01*
X281740Y94810D01*
X282130Y94670D01*
X283170D01*
G01X280150Y94060D02*
X279890Y93730D01*
X279550Y93550D01*
X279160Y93500D01*
X278810Y93550D01*
X278460Y93780D01*
X278250Y94060D01*
X278200Y94340D01*
X278290Y94670D01*
X278590Y94900D01*
X278900Y94990D01*
X279290D01*
G01X278900D02*
X278640Y95130D01*
X278420Y95370D01*
X278330Y95650D01*
X278420Y95930D01*
X278640Y96160D01*
X279030Y96300D01*
X279420Y96250D01*
X279810Y96070D01*
G01X276100Y93410D02*
X276190Y93450D01*
Y93550D01*
X276100Y93590D01*
X276010Y93550D01*
Y93450D01*
X276100Y93410D01*
G01X273000Y96300D02*
X273350Y96210D01*
X273610Y95970D01*
X273780Y95690D01*
X273910Y95320D01*
X273950Y94900D01*
X273910Y94480D01*
X273780Y94110D01*
X273610Y93830D01*
X273350Y93590D01*
X273000Y93500D01*
X272650Y93590D01*
X272390Y93830D01*
X272220Y94110D01*
X272090Y94480D01*
X272050Y94900D01*
X272090Y95320D01*
X272220Y95690D01*
X272390Y95970D01*
X272650Y96210D01*
X273000Y96300D01*
G01X267020Y92570D02*
X267450Y93030D01*
X267670Y93500D01*
Y95370D01*
X267450Y95830D01*
X267020Y96300D01*
G01X264830Y93500D02*
Y96300D01*
X263700Y93970D01*
X262570Y96300D01*
Y93500D01*
G01X260600D02*
X260950Y93550D01*
X261250Y93730D01*
X261510Y94010D01*
X261680Y94340D01*
X261770Y94710D01*
Y95090D01*
X261680Y95460D01*
X261510Y95790D01*
X261250Y96070D01*
X260950Y96250D01*
X260600Y96300D01*
X260250Y96250D01*
X259950Y96070D01*
X259690Y95790D01*
X259520Y95460D01*
X259430Y95090D01*
Y94710D01*
X259520Y94340D01*
X259690Y94010D01*
X259950Y93730D01*
X260250Y93550D01*
X260600Y93500D01*
G01X258410Y93870D02*
X258060Y93640D01*
X257670Y93500D01*
X257330D01*
X256980Y93640D01*
X256720Y93870D01*
X256590Y94200D01*
X256680Y94530D01*
X256890Y94810D01*
X257280Y94990D01*
X257800Y95090D01*
X258110Y95270D01*
X258240Y95600D01*
X258150Y95930D01*
X257930Y96160D01*
X257630Y96300D01*
X257330D01*
X257020Y96210D01*
X256760Y95970D01*
G01X254920Y96300D02*
X253880D01*
G01X254400D02*
Y93500D01*
G01X254920D02*
X253880D01*
G01X251080Y92570D02*
X250650Y93030D01*
X250430Y93500D01*
Y95370D01*
X250650Y95830D01*
X251080Y96300D01*
G01X257240Y84900D02*
X256370D01*
Y84060D01*
X256630Y83780D01*
X256940Y83590D01*
X257370Y83500D01*
X257800Y83590D01*
X258110Y83780D01*
X258370Y84060D01*
X258540Y84390D01*
X258630Y84760D01*
Y85090D01*
X258540Y85370D01*
X258370Y85690D01*
X258110Y85970D01*
X257850Y86160D01*
X257500Y86300D01*
X257200D01*
X256850Y86210D01*
X256590Y86020D01*
G01X255400Y83500D02*
Y86300D01*
X253400Y83500D01*
Y86300D01*
G01X252250Y83500D02*
Y86300D01*
X251390D01*
X251040Y86160D01*
X250780Y85970D01*
X250560Y85690D01*
X250390Y85370D01*
X250350Y84900D01*
X250390Y84430D01*
X250560Y84110D01*
X250780Y83830D01*
X251040Y83640D01*
X251390Y83500D01*
X252250D01*
G01X247120Y112500D02*
Y115300D01*
X246080D01*
X245730Y115160D01*
X245470Y114830D01*
X245380Y114460D01*
X245470Y114090D01*
X245690Y113810D01*
X246080Y113670D01*
X247120D01*
G01X244060Y112870D02*
X243710Y112640D01*
X243320Y112500D01*
X242980D01*
X242630Y112640D01*
X242370Y112870D01*
X242240Y113200D01*
X242330Y113530D01*
X242540Y113810D01*
X242930Y113990D01*
X243450Y114090D01*
X243760Y114270D01*
X243890Y114600D01*
X243800Y114930D01*
X243580Y115160D01*
X243280Y115300D01*
X242980D01*
X242670Y115210D01*
X242410Y114970D01*
G01X240050Y112500D02*
X240310Y112550D01*
X240570Y112730D01*
X240740Y113060D01*
X240830Y113430D01*
X240740Y113810D01*
X240570Y114130D01*
X240310Y114320D01*
X240050Y114370D01*
X239790Y114320D01*
X239530Y114130D01*
X239360Y113810D01*
X239310Y113430D01*
X239360Y113060D01*
X239530Y112730D01*
X239790Y112550D01*
X240050Y112500D01*
G01X236000Y115070D02*
X236260Y115210D01*
X236560Y115300D01*
X236910D01*
X237300Y115160D01*
X237600Y114930D01*
X237820Y114650D01*
X237990Y114180D01*
X238030Y113760D01*
X237950Y113340D01*
X237820Y113060D01*
X237560Y112780D01*
X237250Y112590D01*
X236950Y112500D01*
X236650D01*
X236340Y112590D01*
X236080Y112730D01*
X235870Y112920D01*
G01X230230Y112500D02*
Y115300D01*
X231830Y113290D01*
X229670D01*
G01X229000Y108000D02*
Y110800D01*
X229520Y110240D01*
G01Y108000D02*
X228480D01*
G01X251320Y110330D02*
X251060Y110610D01*
X250760Y110750D01*
X250410Y110800D01*
X249980Y110710D01*
X249680Y110470D01*
X249590Y110190D01*
X249630Y109910D01*
X249810Y109680D01*
X250670Y109210D01*
X251060Y108890D01*
X251320Y108420D01*
X251410Y108000D01*
X249590D01*
G01X244470Y109560D02*
X244250Y109280D01*
X243990Y109090D01*
X243690Y109000D01*
X243340Y109090D01*
X243080Y109280D01*
X242820Y109560D01*
X242730Y109930D01*
Y111800D01*
G01X240500Y109000D02*
Y111800D01*
X241020Y111240D01*
G01Y109000D02*
X239980D01*
G01X238220Y111330D02*
X237960Y111610D01*
X237660Y111750D01*
X237310Y111800D01*
X236880Y111710D01*
X236580Y111470D01*
X236490Y111190D01*
X236530Y110910D01*
X236710Y110680D01*
X237570Y110210D01*
X237960Y109890D01*
X238220Y109420D01*
X238310Y109000D01*
X236490D01*
G01X233500Y153030D02*
X236300D01*
Y154070D01*
X236160Y154420D01*
X235830Y154680D01*
X235460Y154770D01*
X235090Y154680D01*
X234810Y154460D01*
X234670Y154070D01*
Y153030D01*
G01X236300Y157000D02*
X236210Y156650D01*
X235970Y156390D01*
X235690Y156220D01*
X235320Y156090D01*
X234900Y156050D01*
X234480Y156090D01*
X234110Y156220D01*
X233830Y156390D01*
X233590Y156650D01*
X233500Y157000D01*
X233590Y157350D01*
X233830Y157610D01*
X234110Y157780D01*
X234480Y157910D01*
X234900Y157950D01*
X235320Y157910D01*
X235690Y157780D01*
X235970Y157610D01*
X236210Y157350D01*
X236300Y157000D01*
G01X233410Y160100D02*
X233450Y160010D01*
X233550D01*
X233590Y160100D01*
X233550Y160190D01*
X233450D01*
X233410Y160100D01*
G01X233500Y163720D02*
X236300D01*
X234290Y162120D01*
Y164280D01*
G01X232570Y169180D02*
X233030Y168750D01*
X233500Y168530D01*
X235370D01*
X235830Y168750D01*
X236300Y169180D01*
G01X233500Y171550D02*
X236300D01*
Y172410D01*
X236160Y172760D01*
X235970Y173020D01*
X235690Y173240D01*
X235370Y173410D01*
X234900Y173450D01*
X234430Y173410D01*
X234110Y173240D01*
X233830Y173020D01*
X233640Y172760D01*
X233500Y172410D01*
Y171550D01*
G01X236300Y175600D02*
X236210Y175250D01*
X235970Y174990D01*
X235690Y174820D01*
X235320Y174690D01*
X234900Y174650D01*
X234480Y174690D01*
X234110Y174820D01*
X233830Y174990D01*
X233590Y175250D01*
X233500Y175600D01*
X233590Y175950D01*
X233830Y176210D01*
X234110Y176380D01*
X234480Y176510D01*
X234900Y176550D01*
X235320Y176510D01*
X235690Y176380D01*
X235970Y176210D01*
X236210Y175950D01*
X236300Y175600D01*
G01X232570Y178920D02*
X233030Y179350D01*
X233500Y179570D01*
X235370D01*
X235830Y179350D01*
X236300Y178920D01*
G01X244420Y181060D02*
X244200Y180780D01*
X243940Y180590D01*
X243640Y180500D01*
X243290Y180590D01*
X243030Y180780D01*
X242770Y181060D01*
X242680Y181430D01*
Y183300D01*
G01X239930Y180500D02*
Y183300D01*
X241530Y181290D01*
X239370D01*
G01X240000Y185000D02*
Y187800D01*
X240520Y187240D01*
G01Y185000D02*
X239480D01*
G01X274050Y-5000D02*
Y-2200D01*
X274570Y-2760D01*
G01Y-5000D02*
X273530D01*
G01X271040D02*
X270950Y-4390D01*
X270820Y-3880D01*
X270650Y-3410D01*
X270430Y-2900D01*
X270080Y-2200D01*
X271820D01*
G01X274920Y10560D02*
X274700Y10280D01*
X274440Y10090D01*
X274140Y10000D01*
X273790Y10090D01*
X273530Y10280D01*
X273270Y10560D01*
X273180Y10930D01*
Y12800D01*
G01X271770Y12330D02*
X271510Y12610D01*
X271210Y12750D01*
X270860Y12800D01*
X270430Y12710D01*
X270130Y12470D01*
X270040Y12190D01*
X270080Y11910D01*
X270260Y11680D01*
X271120Y11210D01*
X271510Y10890D01*
X271770Y10420D01*
X271860Y10000D01*
X270040D01*
G01X274050Y5000D02*
Y7800D01*
X274570Y7240D01*
G01Y5000D02*
X273530D01*
G01X270950D02*
X270650Y5050D01*
X270300Y5190D01*
X270080Y5420D01*
X270000Y5750D01*
X270080Y6070D01*
X270340Y6350D01*
X270730Y6490D01*
X271170D01*
X271430Y6590D01*
X271640Y6820D01*
X271730Y7150D01*
X271600Y7470D01*
X271300Y7710D01*
X270950Y7800D01*
X270600Y7710D01*
X270300Y7470D01*
X270170Y7150D01*
X270260Y6820D01*
X270470Y6590D01*
X270730Y6490D01*
X271170D01*
X271560Y6350D01*
X271820Y6070D01*
X271900Y5750D01*
X271820Y5420D01*
X271600Y5190D01*
X271250Y5050D01*
X270950Y5000D01*
G01X253500Y25430D02*
X256300D01*
Y26470D01*
X256160Y26820D01*
X255830Y27080D01*
X255460Y27170D01*
X255090Y27080D01*
X254810Y26860D01*
X254670Y26470D01*
Y25430D01*
G01X256300Y29400D02*
X256210Y29050D01*
X255970Y28790D01*
X255690Y28620D01*
X255320Y28490D01*
X254900Y28450D01*
X254480Y28490D01*
X254110Y28620D01*
X253830Y28790D01*
X253590Y29050D01*
X253500Y29400D01*
X253590Y29750D01*
X253830Y30010D01*
X254110Y30180D01*
X254480Y30310D01*
X254900Y30350D01*
X255320Y30310D01*
X255690Y30180D01*
X255970Y30010D01*
X256210Y29750D01*
X256300Y29400D01*
G01X253410Y32500D02*
X253450Y32410D01*
X253550D01*
X253590Y32500D01*
X253550Y32590D01*
X253450D01*
X253410Y32500D01*
G01X253500Y35600D02*
X256300D01*
X255740Y35080D01*
G01X253500D02*
Y36120D01*
G01Y44030D02*
X256300D01*
Y45070D01*
X256160Y45420D01*
X255830Y45680D01*
X255460Y45770D01*
X255090Y45680D01*
X254810Y45460D01*
X254670Y45070D01*
Y44030D01*
G01X253500Y48000D02*
X256300D01*
X255740Y47480D01*
G01X253500D02*
Y48520D01*
G01X253410Y51100D02*
X253450Y51010D01*
X253550D01*
X253590Y51100D01*
X253550Y51190D01*
X253450D01*
X253410Y51100D01*
G01X255830Y53380D02*
X256110Y53640D01*
X256250Y53940D01*
X256300Y54290D01*
X256210Y54720D01*
X255970Y55020D01*
X255690Y55110D01*
X255410Y55070D01*
X255180Y54890D01*
X254710Y54030D01*
X254390Y53640D01*
X253920Y53380D01*
X253500Y53290D01*
Y55110D01*
G01X263500Y25430D02*
X266300D01*
Y26470D01*
X266160Y26820D01*
X265830Y27080D01*
X265460Y27170D01*
X265090Y27080D01*
X264810Y26860D01*
X264670Y26470D01*
Y25430D01*
G01X263500Y29400D02*
X266300D01*
X265740Y28880D01*
G01X263500D02*
Y29920D01*
G01X263410Y32500D02*
X263450Y32410D01*
X263550D01*
X263590Y32500D01*
X263550Y32590D01*
X263450D01*
X263410Y32500D01*
G01X266300Y35600D02*
X266210Y35250D01*
X265970Y34990D01*
X265690Y34820D01*
X265320Y34690D01*
X264900Y34650D01*
X264480Y34690D01*
X264110Y34820D01*
X263830Y34990D01*
X263590Y35250D01*
X263500Y35600D01*
X263590Y35950D01*
X263830Y36210D01*
X264110Y36380D01*
X264480Y36510D01*
X264900Y36550D01*
X265320Y36510D01*
X265690Y36380D01*
X265970Y36210D01*
X266210Y35950D01*
X266300Y35600D01*
G01X263500Y44030D02*
X266300D01*
Y45070D01*
X266160Y45420D01*
X265830Y45680D01*
X265460Y45770D01*
X265090Y45680D01*
X264810Y45460D01*
X264670Y45070D01*
Y44030D01*
G01X263500Y48000D02*
X266300D01*
X265740Y47480D01*
G01X263500D02*
Y48520D01*
G01X263410Y51100D02*
X263450Y51010D01*
X263550D01*
X263590Y51100D01*
X263550Y51190D01*
X263450D01*
X263410Y51100D01*
G01X263500Y54200D02*
X266300D01*
X265740Y53680D01*
G01X263500D02*
Y54720D01*
G01X286740Y9900D02*
X285870D01*
Y9060D01*
X286130Y8780D01*
X286440Y8590D01*
X286870Y8500D01*
X287300Y8590D01*
X287610Y8780D01*
X287870Y9060D01*
X288040Y9390D01*
X288130Y9760D01*
Y10090D01*
X288040Y10370D01*
X287870Y10690D01*
X287610Y10970D01*
X287350Y11160D01*
X287000Y11300D01*
X286700D01*
X286350Y11210D01*
X286090Y11020D01*
G01X284900Y8500D02*
Y11300D01*
X282900Y8500D01*
Y11300D01*
G01X281750Y8500D02*
Y11300D01*
X280890D01*
X280540Y11160D01*
X280280Y10970D01*
X280060Y10690D01*
X279890Y10370D01*
X279850Y9900D01*
X279890Y9430D01*
X280060Y9110D01*
X280280Y8830D01*
X280540Y8640D01*
X280890Y8500D01*
X281750D01*
G01X295600Y18800D02*
Y16000D01*
G01X296600Y18800D02*
X294600D01*
G01X293370Y16000D02*
Y18800D01*
X292330D01*
X291980Y18660D01*
X291720Y18330D01*
X291630Y17960D01*
X291720Y17590D01*
X291940Y17310D01*
X292330Y17170D01*
X293370D01*
G01X290220D02*
X289920Y17490D01*
X289660Y17680D01*
X289310Y17770D01*
X289010Y17680D01*
X288790Y17490D01*
X288620Y17210D01*
X288580Y16890D01*
X288620Y16610D01*
X288790Y16330D01*
X289050Y16090D01*
X289360Y16000D01*
X289700Y16090D01*
X290010Y16370D01*
X290180Y16790D01*
X290220Y17260D01*
X290140Y17870D01*
X290010Y18190D01*
X289790Y18520D01*
X289490Y18750D01*
X289180Y18800D01*
X288880Y18710D01*
X288660Y18470D01*
G01X294740Y176400D02*
X293870D01*
Y175560D01*
X294130Y175280D01*
X294440Y175090D01*
X294870Y175000D01*
X295300Y175090D01*
X295610Y175280D01*
X295870Y175560D01*
X296040Y175890D01*
X296130Y176260D01*
Y176590D01*
X296040Y176870D01*
X295870Y177190D01*
X295610Y177470D01*
X295350Y177660D01*
X295000Y177800D01*
X294700D01*
X294350Y177710D01*
X294090Y177520D01*
G01X292900Y175000D02*
Y177800D01*
X290900Y175000D01*
Y177800D01*
G01X289750Y175000D02*
Y177800D01*
X288890D01*
X288540Y177660D01*
X288280Y177470D01*
X288060Y177190D01*
X287890Y176870D01*
X287850Y176400D01*
X287890Y175930D01*
X288060Y175610D01*
X288280Y175330D01*
X288540Y175140D01*
X288890Y175000D01*
X289750D01*
G01X295100Y173800D02*
Y171000D01*
G01X296100Y173800D02*
X294100D01*
G01X292870Y171000D02*
Y173800D01*
X291830D01*
X291480Y173660D01*
X291220Y173330D01*
X291130Y172960D01*
X291220Y172590D01*
X291440Y172310D01*
X291830Y172170D01*
X292870D01*
G01X289850Y171420D02*
X289590Y171190D01*
X289290Y171050D01*
X288900Y171000D01*
X288510Y171090D01*
X288210Y171280D01*
X287990Y171610D01*
X287950Y171980D01*
X288030Y172350D01*
X288250Y172590D01*
X288550Y172770D01*
X288860Y172820D01*
X289160Y172770D01*
X289550Y172590D01*
X289420Y173800D01*
X288250D01*
G54D11*
G01X15500Y0D02*
G03I-15500J0D01*
G01Y180000D02*
G03I-15500J0D01*
G01X22500Y17500D02*
X20000D01*
Y2000D01*
G01X4000Y23500D02*
X6000D01*
Y22000D01*
G01X48500Y19000D02*
X51500D01*
Y72000D01*
X11000D01*
G01X93500Y87500D02*
X18500D01*
Y137500D01*
X93500D01*
Y87500D01*
G01X77500Y7500D02*
Y17500D01*
X30000D01*
G01X31500Y30000D02*
Y25500D01*
G01Y23000D02*
Y19000D01*
G01Y51000D02*
Y46500D01*
G01Y40000D02*
Y35500D01*
G01Y70000D02*
Y65500D01*
G01Y60000D02*
Y55500D01*
G01X152500Y175000D02*
Y145000D01*
X55000D01*
Y180000D01*
G01X167500Y7500D02*
Y27500D01*
X90000D01*
Y2500D01*
G01X173000Y48500D02*
X98000D01*
Y98500D01*
X173000D01*
Y48500D01*
G01X144000Y127500D02*
X131500D01*
G01X144000Y122500D02*
X131500D01*
G01X144000Y117500D02*
X131500D01*
G01X144000Y112500D02*
X131500D01*
G01X144000Y107500D02*
X131500D01*
G01X160000Y182500D02*
Y150000D01*
X190000D01*
G01X177500Y15000D02*
Y67500D01*
X270000D01*
Y17500D01*
G01X193000Y40000D02*
X197500D01*
G01X183000Y40500D02*
X187500D01*
G01X227000Y109000D02*
X193500D01*
Y77500D01*
X285500D01*
Y109000D01*
X253000D01*
G01X223000Y40000D02*
X227500D01*
G01X213000D02*
X217500D01*
G01X203000D02*
X207500D01*
G01X204500Y150000D02*
X241000D01*
Y175000D01*
G01X243000Y40000D02*
X247500D01*
G01X233000D02*
X237500D01*
G01X263000D02*
X267500D01*
G01X253000D02*
X257500D01*
G01X328000Y0D02*
G03I-15500J0D01*
G01Y180000D02*
G03I-15500J0D01*
G01X74270Y113360D02*
X73960Y113670D01*
X73730Y114200D01*
X73570Y114940D01*
X73730Y115560D01*
X74040Y115980D01*
X74590Y116300D01*
X76700D01*
Y110000D01*
X74120D01*
X73570Y110420D01*
X73250Y111050D01*
X73100Y111790D01*
X73250Y112520D01*
X73730Y113150D01*
X74270Y113360D01*
X76700D01*
G01X70560Y110000D02*
X68600Y116300D01*
X66640Y110000D01*
G01X67350Y112200D02*
X69850D01*
G01X63870Y110000D02*
Y116300D01*
X61910D01*
X61280Y115980D01*
X60890Y115560D01*
X60730Y114720D01*
X60890Y113880D01*
X61360Y113360D01*
X61910Y113040D01*
X63870D01*
G01X61910D02*
X60730Y110000D01*
G01X54280Y115770D02*
X54750Y116090D01*
X55290Y116300D01*
X55920D01*
X56630Y115980D01*
X57170Y115460D01*
X57570Y114830D01*
X57880Y113780D01*
X57960Y112830D01*
X57800Y111890D01*
X57570Y111260D01*
X57100Y110630D01*
X56550Y110210D01*
X56000Y110000D01*
X55450D01*
X54900Y110210D01*
X54430Y110520D01*
X54040Y110940D01*
G01X49700Y110000D02*
X50330Y110100D01*
X50870Y110520D01*
X51350Y111150D01*
X51660Y111890D01*
X51820Y112730D01*
Y113570D01*
X51660Y114410D01*
X51350Y115150D01*
X50870Y115770D01*
X50330Y116200D01*
X49700Y116300D01*
X49070Y116200D01*
X48530Y115770D01*
X48050Y115150D01*
X47740Y114410D01*
X47580Y113570D01*
Y112730D01*
X47740Y111890D01*
X48050Y111150D01*
X48530Y110520D01*
X49070Y110100D01*
X49700Y110000D01*
G01X45120D02*
Y116300D01*
X43560D01*
X42930Y115980D01*
X42460Y115560D01*
X42070Y114940D01*
X41750Y114200D01*
X41680Y113150D01*
X41750Y112100D01*
X42070Y111360D01*
X42460Y110730D01*
X42930Y110310D01*
X43560Y110000D01*
X45120D01*
G01X35530D02*
X38670D01*
Y116300D01*
X35530D01*
G01X36790Y113260D02*
X38670D01*
G01X151250Y71000D02*
X151880Y71100D01*
X152420Y71520D01*
X152900Y72150D01*
X153210Y72890D01*
X153370Y73730D01*
Y74570D01*
X153210Y75410D01*
X152900Y76150D01*
X152420Y76770D01*
X151880Y77200D01*
X151250Y77300D01*
X150620Y77200D01*
X150080Y76770D01*
X149600Y76150D01*
X149290Y75410D01*
X149130Y74570D01*
Y73730D01*
X149290Y72890D01*
X149600Y72150D01*
X150080Y71520D01*
X150620Y71100D01*
X151250Y71000D01*
G01X150620Y72680D02*
X149680Y71000D01*
G01X146520D02*
Y77300D01*
X144560D01*
X143930Y76980D01*
X143540Y76560D01*
X143380Y75720D01*
X143540Y74880D01*
X144010Y74360D01*
X144560Y74040D01*
X146520D01*
G01X144560D02*
X143380Y71000D01*
G01X136930Y76770D02*
X137400Y77090D01*
X137940Y77300D01*
X138570D01*
X139280Y76980D01*
X139820Y76460D01*
X140220Y75830D01*
X140530Y74780D01*
X140610Y73830D01*
X140450Y72890D01*
X140220Y72260D01*
X139750Y71630D01*
X139200Y71210D01*
X138650Y71000D01*
X138100D01*
X137550Y71210D01*
X137080Y71520D01*
X136690Y71940D01*
G01X132350Y71000D02*
X132980Y71100D01*
X133520Y71520D01*
X134000Y72150D01*
X134310Y72890D01*
X134470Y73730D01*
Y74570D01*
X134310Y75410D01*
X134000Y76150D01*
X133520Y76770D01*
X132980Y77200D01*
X132350Y77300D01*
X131720Y77200D01*
X131180Y76770D01*
X130700Y76150D01*
X130390Y75410D01*
X130230Y74570D01*
Y73730D01*
X130390Y72890D01*
X130700Y72150D01*
X131180Y71520D01*
X131720Y71100D01*
X132350Y71000D01*
G01X127770D02*
Y77300D01*
X126210D01*
X125580Y76980D01*
X125110Y76560D01*
X124720Y75940D01*
X124400Y75200D01*
X124330Y74150D01*
X124400Y73100D01*
X124720Y72360D01*
X125110Y71730D01*
X125580Y71310D01*
X126210Y71000D01*
X127770D01*
G01X118180D02*
X121320D01*
Y77300D01*
X118180D01*
G01X119440Y74260D02*
X121320D01*
G54D12*
G01X381130Y-130830D02*
X380250Y-129670D01*
X379500Y-129000D01*
X378500Y-128670D01*
X377620Y-129000D01*
X377000Y-129670D01*
X376500Y-130670D01*
X376370Y-131830D01*
X376500Y-132830D01*
X377000Y-133830D01*
X377750Y-134670D01*
X378620Y-135000D01*
X379620Y-134670D01*
X380500Y-133670D01*
X381000Y-132170D01*
X381130Y-130500D01*
X380880Y-128330D01*
X380500Y-127170D01*
X379880Y-126000D01*
X379000Y-125170D01*
X378130Y-125000D01*
X377250Y-125330D01*
X376620Y-126170D01*
G01X368750Y-125000D02*
X369750Y-125330D01*
X370500Y-126170D01*
X371000Y-127170D01*
X371380Y-128500D01*
X371500Y-130000D01*
X371380Y-131500D01*
X371000Y-132830D01*
X370500Y-133830D01*
X369750Y-134670D01*
X368750Y-135000D01*
X367750Y-134670D01*
X367000Y-133830D01*
X366500Y-132830D01*
X366120Y-131500D01*
X366000Y-130000D01*
X366120Y-128500D01*
X366500Y-127170D01*
X367000Y-126170D01*
X367750Y-125330D01*
X368750Y-125000D01*
G01X358750D02*
X359750Y-125330D01*
X360500Y-126170D01*
X361000Y-127170D01*
X361380Y-128500D01*
X361500Y-130000D01*
X361380Y-131500D01*
X361000Y-132830D01*
X360500Y-133830D01*
X359750Y-134670D01*
X358750Y-135000D01*
X357750Y-134670D01*
X357000Y-133830D01*
X356500Y-132830D01*
X356120Y-131500D01*
X356000Y-130000D01*
X356120Y-128500D01*
X356500Y-127170D01*
X357000Y-126170D01*
X357750Y-125330D01*
X358750Y-125000D01*
G01X350370Y-131670D02*
X347130D01*
G01X341130Y-130830D02*
X340250Y-129670D01*
X339500Y-129000D01*
X338500Y-128670D01*
X337620Y-129000D01*
X337000Y-129670D01*
X336500Y-130670D01*
X336370Y-131830D01*
X336500Y-132830D01*
X337000Y-133830D01*
X337750Y-134670D01*
X338620Y-135000D01*
X339620Y-134670D01*
X340500Y-133670D01*
X341000Y-132170D01*
X341130Y-130500D01*
X340880Y-128330D01*
X340500Y-127170D01*
X339880Y-126000D01*
X339000Y-125170D01*
X338130Y-125000D01*
X337250Y-125330D01*
X336620Y-126170D01*
G01X328750Y-125000D02*
X329750Y-125330D01*
X330500Y-126170D01*
X331000Y-127170D01*
X331380Y-128500D01*
X331500Y-130000D01*
X331380Y-131500D01*
X331000Y-132830D01*
X330500Y-133830D01*
X329750Y-134670D01*
X328750Y-135000D01*
X327750Y-134670D01*
X327000Y-133830D01*
X326500Y-132830D01*
X326120Y-131500D01*
X326000Y-130000D01*
X326120Y-128500D01*
X326500Y-127170D01*
X327000Y-126170D01*
X327750Y-125330D01*
X328750Y-125000D01*
G01X318750D02*
X319750Y-125330D01*
X320500Y-126170D01*
X321000Y-127170D01*
X321380Y-128500D01*
X321500Y-130000D01*
X321380Y-131500D01*
X321000Y-132830D01*
X320500Y-133830D01*
X319750Y-134670D01*
X318750Y-135000D01*
X317750Y-134670D01*
X317000Y-133830D01*
X316500Y-132830D01*
X316120Y-131500D01*
X316000Y-130000D01*
X316120Y-128500D01*
X316500Y-127170D01*
X317000Y-126170D01*
X317750Y-125330D01*
X318750Y-125000D01*
G01X311500Y-133500D02*
X310750Y-134330D01*
X309880Y-134830D01*
X308750Y-135000D01*
X307620Y-134670D01*
X306750Y-134000D01*
X306120Y-132830D01*
X306000Y-131500D01*
X306250Y-130170D01*
X306880Y-129330D01*
X307750Y-128670D01*
X308620Y-128500D01*
X309500Y-128670D01*
X310620Y-129330D01*
X310250Y-125000D01*
X306880D01*
G01X298750D02*
X299750Y-125330D01*
X300500Y-126170D01*
X301000Y-127170D01*
X301380Y-128500D01*
X301500Y-130000D01*
X301380Y-131500D01*
X301000Y-132830D01*
X300500Y-133830D01*
X299750Y-134670D01*
X298750Y-135000D01*
X297750Y-134670D01*
X297000Y-133830D01*
X296500Y-132830D01*
X296120Y-131500D01*
X296000Y-130000D01*
X296120Y-128500D01*
X296500Y-127170D01*
X297000Y-126170D01*
X297750Y-125330D01*
X298750Y-125000D01*
G01X290370Y-131670D02*
X287130D01*
G01X278750Y-125000D02*
X279750Y-125330D01*
X280500Y-126170D01*
X281000Y-127170D01*
X281380Y-128500D01*
X281500Y-130000D01*
X281380Y-131500D01*
X281000Y-132830D01*
X280500Y-133830D01*
X279750Y-134670D01*
X278750Y-135000D01*
X277750Y-134670D01*
X277000Y-133830D01*
X276500Y-132830D01*
X276120Y-131500D01*
X276000Y-130000D01*
X276120Y-128500D01*
X276500Y-127170D01*
X277000Y-126170D01*
X277750Y-125330D01*
X278750Y-125000D01*
G01X268750Y-135000D02*
Y-125000D01*
X270250Y-127000D01*
G01Y-135000D02*
X267250D01*
G01X251250D02*
Y-125000D01*
X248130D01*
X247130Y-125500D01*
X246500Y-126170D01*
X246250Y-127500D01*
X246500Y-128830D01*
X247250Y-129670D01*
X248130Y-130170D01*
X251250D01*
G01X248130D02*
X246250Y-135000D01*
G01X236250D02*
X241250D01*
Y-125000D01*
X236250D01*
G01X238250Y-129830D02*
X241250D01*
G01X231880Y-125000D02*
X228750Y-135000D01*
X225620Y-125000D01*
G01X218750D02*
X219750Y-125330D01*
X220500Y-126170D01*
X221000Y-127170D01*
X221380Y-128500D01*
X221500Y-130000D01*
X221380Y-131500D01*
X221000Y-132830D01*
X220500Y-133830D01*
X219750Y-134670D01*
X218750Y-135000D01*
X217750Y-134670D01*
X217000Y-133830D01*
X216500Y-132830D01*
X216120Y-131500D01*
X216000Y-130000D01*
X216120Y-128500D01*
X216500Y-127170D01*
X217000Y-126170D01*
X217750Y-125330D01*
X218750Y-125000D01*
G01X211130Y-126670D02*
X210370Y-125670D01*
X209500Y-125170D01*
X208500Y-125000D01*
X207250Y-125330D01*
X206370Y-126170D01*
X206120Y-127170D01*
X206250Y-128170D01*
X206750Y-129000D01*
X209250Y-130670D01*
X210370Y-131830D01*
X211130Y-133500D01*
X211380Y-135000D01*
X206120D01*
G01X191380Y-133670D02*
X190370Y-134500D01*
X189250Y-135000D01*
X188250D01*
X187250Y-134500D01*
X186500Y-133670D01*
X186120Y-132500D01*
X186370Y-131330D01*
X187000Y-130330D01*
X188130Y-129670D01*
X189620Y-129330D01*
X190500Y-128670D01*
X190880Y-127500D01*
X190620Y-126330D01*
X190000Y-125500D01*
X189130Y-125000D01*
X188250D01*
X187370Y-125330D01*
X186620Y-126170D01*
G01X176250Y-135000D02*
X181250D01*
Y-125000D01*
X176250D01*
G01X178250Y-129830D02*
X181250D01*
G01X166000Y-125830D02*
X166750Y-125330D01*
X167620Y-125000D01*
X168620D01*
X169750Y-125500D01*
X170620Y-126330D01*
X171250Y-127330D01*
X171750Y-129000D01*
X171880Y-130500D01*
X171620Y-132000D01*
X171250Y-133000D01*
X170500Y-134000D01*
X169620Y-134670D01*
X168750Y-135000D01*
X167880D01*
X167000Y-134670D01*
X166250Y-134170D01*
X165620Y-133500D01*
G01X158750Y-135000D02*
X159750Y-134830D01*
X160620Y-134170D01*
X161380Y-133170D01*
X161880Y-132000D01*
X162130Y-130670D01*
Y-129330D01*
X161880Y-128000D01*
X161380Y-126830D01*
X160620Y-125830D01*
X159750Y-125170D01*
X158750Y-125000D01*
X157750Y-125170D01*
X156880Y-125830D01*
X156120Y-126830D01*
X155620Y-128000D01*
X155370Y-129330D01*
Y-130670D01*
X155620Y-132000D01*
X156120Y-133170D01*
X156880Y-134170D01*
X157750Y-134830D01*
X158750Y-135000D01*
G01X151620D02*
Y-125000D01*
X145880Y-135000D01*
Y-125000D01*
G01X141500Y-135000D02*
Y-125000D01*
X139000D01*
X138000Y-125500D01*
X137250Y-126170D01*
X136620Y-127170D01*
X136120Y-128330D01*
X136000Y-130000D01*
X136120Y-131670D01*
X136620Y-132830D01*
X137250Y-133830D01*
X138000Y-134500D01*
X139000Y-135000D01*
X141500D01*
G01X131880D02*
X128750Y-125000D01*
X125620Y-135000D01*
G01X126750Y-131500D02*
X130750D01*
G01X121250Y-135000D02*
Y-125000D01*
X118130D01*
X117130Y-125500D01*
X116500Y-126170D01*
X116250Y-127500D01*
X116500Y-128830D01*
X117250Y-129670D01*
X118130Y-130170D01*
X121250D01*
G01X118130D02*
X116250Y-135000D01*
G01X108750D02*
Y-130500D01*
X111250Y-125000D01*
G01X106250D02*
X108750Y-130500D01*
G01X91380Y-133670D02*
X90370Y-134500D01*
X89250Y-135000D01*
X88250D01*
X87250Y-134500D01*
X86500Y-133670D01*
X86120Y-132500D01*
X86370Y-131330D01*
X87000Y-130330D01*
X88130Y-129670D01*
X89620Y-129330D01*
X90500Y-128670D01*
X90880Y-127500D01*
X90620Y-126330D01*
X90000Y-125500D01*
X89130Y-125000D01*
X88250D01*
X87370Y-125330D01*
X86620Y-126170D01*
G01X80250Y-125000D02*
X77250D01*
G01X78750D02*
Y-135000D01*
G01X80250D02*
X77250D01*
G01X71250Y-125000D02*
Y-135000D01*
X66250D01*
G01X61500D02*
Y-125000D01*
G01X56750D02*
X61500Y-131170D01*
G01X56000Y-135000D02*
X59370Y-128330D01*
G01X51380Y-133670D02*
X50370Y-134500D01*
X49250Y-135000D01*
X48250D01*
X47250Y-134500D01*
X46500Y-133670D01*
X46120Y-132500D01*
X46370Y-131330D01*
X47000Y-130330D01*
X48130Y-129670D01*
X49620Y-129330D01*
X50500Y-128670D01*
X50880Y-127500D01*
X50620Y-126330D01*
X50000Y-125500D01*
X49130Y-125000D01*
X48250D01*
X47370Y-125330D01*
X46620Y-126170D01*
G01X36000Y-125830D02*
X36750Y-125330D01*
X37620Y-125000D01*
X38620D01*
X39750Y-125500D01*
X40620Y-126330D01*
X41250Y-127330D01*
X41750Y-129000D01*
X41880Y-130500D01*
X41620Y-132000D01*
X41250Y-133000D01*
X40500Y-134000D01*
X39620Y-134670D01*
X38750Y-135000D01*
X37880D01*
X37000Y-134670D01*
X36250Y-134170D01*
X35620Y-133500D01*
G01X31250Y-135000D02*
Y-125000D01*
X28130D01*
X27130Y-125500D01*
X26500Y-126170D01*
X26250Y-127500D01*
X26500Y-128830D01*
X27250Y-129670D01*
X28130Y-130170D01*
X31250D01*
G01X28130D02*
X26250Y-135000D01*
G01X16250D02*
X21250D01*
Y-125000D01*
X16250D01*
G01X18250Y-129830D02*
X21250D01*
G01X6250Y-135000D02*
X11250D01*
Y-125000D01*
X6250D01*
G01X8250Y-129830D02*
X11250D01*
G01X1620Y-135000D02*
Y-125000D01*
X-4120Y-135000D01*
Y-125000D01*
G54D13*
G01X-15000Y12500D02*
Y-15000D01*
X12500D01*
G01X-15000Y167500D02*
Y195000D01*
X12500D01*
G01X327500Y12500D02*
Y-15000D01*
X302500D01*
G01X300000Y195000D02*
X327500D01*
Y167500D01*
M02*
