%
T01C0.040000
X1700Y1700
X2700Y1700
X3700Y1700
X4700Y1700
X5700Y1700
X6700Y1700
X7700Y1700
X8700Y1700
X9700Y1700
X10700Y1700
X11700Y1700
X12700Y1700
X13700Y1700
X14700Y1700
X15700Y1700
X16700Y1700
X17700Y1700
X18700Y1700
X18700Y7700
X19700Y7700
X20700Y7700
X17700Y7700
X16700Y7700
X15700Y7700
X14700Y7700
X13700Y7700
X12700Y7700
X11700Y7700
X10700Y7700
X9700Y7700
X8700Y7700
X7700Y7700
X6700Y7700
X5700Y7700
X4700Y7700
X3700Y7700
X2700Y7700
X1700Y7700
X1700Y9130
X2700Y9130
X3700Y9130
X4700Y9130
X5700Y9130
X6700Y9130
X7700Y9130
X8700Y9130
X9700Y9130
X10700Y9130
X11700Y9130
X12700Y9130
X13700Y9130
X14700Y9130
X15700Y9130
X16700Y9130
X17700Y9130
X18700Y9130
X18700Y15130
X19700Y15130
X20700Y15130
X17700Y15130
X16700Y15130
X15700Y15130
X14700Y15130
X13700Y15130
X12700Y15130
X11700Y15130
X10700Y15130
X9700Y15130
X8700Y15130
X7700Y15130
X6700Y15130
X5700Y15130
X4700Y15130
X3700Y15130
X2700Y15130
X1700Y15130
X1700Y16560
X2700Y16560
X3700Y16560
X4700Y16560
X5700Y16560
X6700Y16560
X7700Y16560
X8700Y16560
X9700Y16560
X10700Y16560
X11700Y16560
X12700Y16560
X13700Y16560
X14700Y16560
X15700Y16560
X16700Y16560
X17700Y16560
X18700Y16560
X18700Y22560
X19700Y22560
X20700Y22560
X17700Y22560
X16700Y22560
X15700Y22560
X14700Y22560
X13700Y22560
X12700Y22560
X11700Y22560
X10700Y22560
X9700Y22560
X8700Y22560
X7700Y22560
X6700Y22560
X5700Y22560
X4700Y22560
X3700Y22560
X2700Y22560
X1700Y22560
X1700Y23990
X2700Y23990
X3700Y23990
X4700Y23990
X5700Y23990
X6700Y23990
X7700Y23990
X8700Y23990
X9700Y23990
X10700Y23990
X11700Y23990
X12700Y23990
X13700Y23990
X14700Y23990
X15700Y23990
X16700Y23990
X17700Y23990
X18700Y23990
X18700Y29990
X19700Y29990
X20700Y29990
X17700Y29990
X16700Y29990
X15700Y29990
X14700Y29990
X13700Y29990
X12700Y29990
X11700Y29990
X10700Y29990
X9700Y29990
X8700Y29990
X7700Y29990
X6700Y29990
X5700Y29990
X4700Y29990
X3700Y29990
X2700Y29990
X1700Y29990
X1700Y31420
X2700Y31420
X3700Y31420
X4700Y31420
X5700Y31420
X6700Y31420
X7700Y31420
X8700Y31420
X9700Y31420
X10700Y31420
X11700Y31420
X12700Y31420
X13700Y31420
X14700Y31420
X15700Y31420
X16700Y31420
X17700Y31420
X18700Y31420
X18700Y37420
X19700Y37420
X20700Y37420
X17700Y37420
X16700Y37420
X15700Y37420
X14700Y37420
X13700Y37420
X12700Y37420
X11700Y37420
X10700Y37420
X9700Y37420
X8700Y37420
X7700Y37420
X6700Y37420
X5700Y37420
X4700Y37420
X3700Y37420
X2700Y37420
X1700Y37420
T02C0.035400
X19346Y5309
X19346Y3931
X19346Y12739
X19346Y11361
X19346Y20169
X19346Y18791
X19346Y27599
X19346Y26221
X19346Y35029
X19346Y33651
T03C0.028000
X4920Y4660
X4420Y4660
X4920Y12090
X4420Y12090
X4920Y19520
X4420Y19520
X4920Y26950
X4420Y26950
X4920Y34380
X4420Y34380
T04C0.012000
X1380Y2630
X2170Y2700
X5700Y3850
X6930Y3850
X7420Y3850
X9300Y3560
X10100Y3640
X10543Y4165
X10543Y4657
X9710Y4750
X8800Y5280
X9150Y5390
X10483Y5405
X11030Y5770
X12167Y6281
X11650Y6980
X14240Y5700
X13640Y5520
X13043Y5129
X12550Y5129
X13050Y4580
X14820Y3710
X16820Y3600
X16880Y4370
X15590Y4590
X15560Y5610
X19990Y4610
X17310Y2640
X16350Y2510
X15190Y2300
X11480Y3050
X11070Y2870
X9850Y2450
X5940Y4550
X3730Y4940
X2630Y4560
X3560Y4310
X2280Y6520
X20620Y1850
X1380Y10060
X2170Y10130
X5700Y11280
X6930Y11280
X7420Y11280
X9300Y10990
X10100Y11070
X10543Y11595
X10543Y12087
X9710Y12180
X8800Y12710
X9150Y12820
X10483Y12835
X11030Y13200
X12167Y13711
X11650Y14410
X14240Y13130
X13640Y12950
X13043Y12559
X12550Y12559
X13050Y12010
X14820Y11140
X16820Y11030
X16880Y11800
X15590Y12020
X15560Y13040
X19990Y12040
X17310Y10070
X16350Y9940
X15190Y9730
X11480Y10480
X11070Y10300
X9850Y9880
X5940Y11980
X3730Y12370
X2630Y11990
X3560Y11740
X2280Y13950
X20620Y9280
X1380Y17490
X2170Y17560
X5700Y18710
X6930Y18710
X7420Y18710
X9300Y18420
X10100Y18500
X10543Y19025
X10543Y19517
X9710Y19610
X8800Y20140
X9150Y20250
X10483Y20265
X11030Y20630
X12167Y21141
X11650Y21840
X14240Y20560
X13640Y20380
X13043Y19989
X12550Y19989
X13050Y19440
X14820Y18570
X16820Y18460
X16880Y19230
X15590Y19450
X15560Y20470
X19990Y19470
X17310Y17500
X16350Y17370
X15190Y17160
X11480Y17910
X11070Y17730
X9850Y17310
X5940Y19410
X3730Y19800
X2630Y19420
X3560Y19170
X2280Y21380
X20620Y16710
X1380Y24920
X2170Y24990
X5700Y26140
X6930Y26140
X7420Y26140
X9300Y25850
X10100Y25930
X10543Y26455
X10543Y26947
X9710Y27040
X8800Y27570
X9150Y27680
X10483Y27695
X11030Y28060
X12167Y28571
X11650Y29270
X14240Y27990
X13640Y27810
X13043Y27419
X12550Y27419
X13050Y26870
X14820Y26000
X16820Y25890
X16880Y26660
X15590Y26880
X15560Y27900
X19990Y26900
X17310Y24930
X16350Y24800
X15190Y24590
X11480Y25340
X11070Y25160
X9850Y24740
X5940Y26840
X3730Y27230
X2630Y26850
X3560Y26600
X2280Y28810
X20620Y24140
X1380Y32350
X2170Y32420
X5700Y33570
X6930Y33570
X7420Y33570
X9300Y33280
X10100Y33360
X10543Y33885
X10543Y34377
X9710Y34470
X8800Y35000
X9150Y35110
X10483Y35125
X11030Y35490
X12167Y36001
X11650Y36700
X14240Y35420
X13640Y35240
X13043Y34849
X12550Y34849
X13050Y34300
X14820Y33430
X16820Y33320
X16880Y34090
X15590Y34310
X15560Y35330
X19990Y34330
X17310Y32360
X16350Y32230
X15190Y32020
X11480Y32770
X11070Y32590
X9850Y32170
X5940Y34270
X3730Y34660
X2630Y34280
X3560Y34030
X2280Y36240
X20620Y31570
M30
