%
T01C0.040000
X1700Y1700
X2700Y1700
X3700Y1700
X4700Y1700
X5700Y1700
X6700Y1700
X7700Y1700
X8700Y1700
X9700Y1700
X10700Y1700
X11700Y1700
X12700Y1700
X13700Y1700
X14700Y1700
X15700Y1700
X16700Y1700
X17700Y1700
X18700Y1700
X18700Y7700
X17700Y7700
X16700Y7700
X15700Y7700
X14700Y7700
X13700Y7700
X12700Y7700
X11700Y7700
X10700Y7700
X9700Y7700
X8700Y7700
X7700Y7700
X6700Y7700
X5700Y7700
X4700Y7700
X3700Y7700
X2700Y7700
X1700Y7700
X19700Y7700
X20700Y7700
X1700Y9130
X2700Y9130
X3700Y9130
X4700Y9130
X5700Y9130
X6700Y9130
X7700Y9130
X8700Y9130
X9700Y9130
X10700Y9130
X11700Y9130
X12700Y9130
X13700Y9130
X14700Y9130
X15700Y9130
X16700Y9130
X17700Y9130
X18700Y9130
X18700Y15130
X17700Y15130
X16700Y15130
X15700Y15130
X14700Y15130
X13700Y15130
X12700Y15130
X11700Y15130
X10700Y15130
X9700Y15130
X8700Y15130
X7700Y15130
X6700Y15130
X5700Y15130
X4700Y15130
X3700Y15130
X2700Y15130
X1700Y15130
X19700Y15130
X20700Y15130
X1700Y16560
X2700Y16560
X3700Y16560
X4700Y16560
X5700Y16560
X6700Y16560
X7700Y16560
X8700Y16560
X9700Y16560
X10700Y16560
X11700Y16560
X12700Y16560
X13700Y16560
X14700Y16560
X15700Y16560
X16700Y16560
X17700Y16560
X18700Y16560
X18700Y22560
X17700Y22560
X16700Y22560
X15700Y22560
X14700Y22560
X13700Y22560
X12700Y22560
X11700Y22560
X10700Y22560
X9700Y22560
X8700Y22560
X7700Y22560
X6700Y22560
X5700Y22560
X4700Y22560
X3700Y22560
X2700Y22560
X1700Y22560
X19700Y22560
X20700Y22560
X1700Y23990
X2700Y23990
X3700Y23990
X4700Y23990
X5700Y23990
X6700Y23990
X7700Y23990
X8700Y23990
X9700Y23990
X10700Y23990
X11700Y23990
X12700Y23990
X13700Y23990
X14700Y23990
X15700Y23990
X16700Y23990
X17700Y23990
X18700Y23990
X18700Y29990
X17700Y29990
X16700Y29990
X15700Y29990
X14700Y29990
X13700Y29990
X12700Y29990
X11700Y29990
X10700Y29990
X9700Y29990
X8700Y29990
X7700Y29990
X6700Y29990
X5700Y29990
X4700Y29990
X3700Y29990
X2700Y29990
X1700Y29990
X19700Y29990
X20700Y29990
T02C0.035400
X19420Y3834
X19420Y5566
X19420Y11264
X19420Y12996
X19420Y18694
X19420Y20426
X19420Y26124
X19420Y27856
T03C0.012000
X3660Y3890
X2820Y3910
X1600Y4880
X5700Y3850
X6930Y3850
X7420Y3850
X9300Y3560
X10100Y3640
X10542Y4165
X10542Y4657
X9540Y5020
X9180Y5270
X8860Y4970
X10060Y5410
X10483Y5405
X12166Y6281
X11650Y6980
X13640Y5520
X14120Y5520
X13042Y5129
X12550Y5129
X13050Y4010
X14920Y3710
X15710Y4550
X17140Y4020
X17330Y5310
X15560Y5610
X17471Y6428
X19540Y6590
X17010Y2700
X16150Y2710
X13200Y2200
X9850Y2450
X20620Y1850
X20910Y2230
X3660Y11320
X2820Y11340
X1600Y12310
X5700Y11280
X6930Y11280
X7420Y11280
X9300Y10990
X10100Y11070
X10542Y11595
X10542Y12087
X9540Y12450
X9180Y12700
X8860Y12400
X10060Y12840
X10483Y12835
X12166Y13711
X11650Y14410
X13640Y12950
X14120Y12950
X13042Y12559
X12550Y12559
X13050Y11440
X14920Y11140
X15710Y11980
X17140Y11450
X17330Y12740
X15560Y13040
X17471Y13858
X19540Y14020
X17010Y10130
X16150Y10140
X13200Y9630
X9850Y9880
X20620Y9280
X20910Y9660
X3660Y18750
X2820Y18770
X1600Y19740
X5700Y18710
X6930Y18710
X7420Y18710
X9300Y18420
X10100Y18500
X10542Y19025
X10542Y19517
X9540Y19880
X9180Y20130
X8860Y19830
X10060Y20270
X10483Y20265
X12166Y21141
X11650Y21840
X13640Y20380
X14120Y20380
X13042Y19989
X12550Y19989
X13050Y18870
X14920Y18570
X15710Y19410
X17140Y18880
X17330Y20170
X15560Y20470
X17471Y21288
X19540Y21450
X17010Y17560
X16150Y17570
X13200Y17060
X9850Y17310
X20620Y16710
X20910Y17090
X3660Y26180
X2820Y26200
X1600Y27170
X5700Y26140
X6930Y26140
X7420Y26140
X9300Y25850
X10100Y25930
X10542Y26455
X10542Y26947
X9540Y27310
X9180Y27560
X8860Y27260
X10060Y27700
X10483Y27695
X12166Y28571
X11650Y29270
X13640Y27810
X14120Y27810
X13042Y27419
X12550Y27419
X13050Y26300
X14920Y26000
X15710Y26840
X17140Y26310
X17330Y27600
X15560Y27900
X17471Y28718
X19540Y28880
X17010Y24990
X16150Y25000
X13200Y24490
X9850Y24740
X20620Y24140
X20910Y24520
M30
