G75*
G70*
%OFA0B0*%
%FSLAX25Y25*%
%IPPOS*%
%LPD*%
%AMOC8*
5,1,8,0,0,1.08239X$1,22.5*
%
%ADD10R,0.03160X0.03940*%
%ADD13C,0.00750*%
%ADD19R,0.10240X0.08270*%
%ADD20R,0.04730X0.04340*%
%ADD22R,0.03550X0.03550*%
%ADD23R,0.10240X0.02370*%
%ADD26R,0.02570X0.05120*%
%ADD27C,0.03940*%
%ADD28R,0.03940X0.03160*%
%ADD31R,0.03750X0.03160*%
%ADD40R,0.07800X0.07800*%
%ADD41R,0.04340X0.04730*%
%ADD42R,0.06700X0.05910*%
%ADD44C,0.07800*%
X0010000Y0010000D02*
G75*
%LPD*%
D20*
X0022400Y0037950D03*
X0022400Y0044650D03*
X0163450Y0059900D03*
X0170140Y0059900D03*
D42*
X0163410Y0051280D03*
X0163410Y0040250D03*
D28*
X0121230Y0044650D03*
X0121230Y0049770D03*
X0062600Y0038860D03*
X0062600Y0033740D03*
D31*
X0196040Y0021500D03*
X0202340Y0021500D03*
D26*
X0152650Y0040650D03*
X0145170Y0040650D03*
X0145170Y0050880D03*
X0148910Y0050880D03*
X0152650Y0050880D03*
D40*
X0017000Y0017000D03*
X0017000Y0077000D03*
D44*
X0027000Y0077000D03*
X0037000Y0077000D03*
X0047000Y0077000D03*
X0057000Y0077000D03*
X0067000Y0077000D03*
X0077000Y0077000D03*
X0087000Y0077000D03*
X0097000Y0077000D03*
X0107000Y0077000D03*
X0117000Y0077000D03*
X0127000Y0077000D03*
X0137000Y0077000D03*
X0147000Y0077000D03*
X0157000Y0077000D03*
X0167000Y0077000D03*
X0177000Y0077000D03*
X0187000Y0077000D03*
X0197000Y0077000D03*
X0207000Y0077000D03*
X0187000Y0017000D03*
X0177000Y0017000D03*
X0167000Y0017000D03*
X0157000Y0017000D03*
X0147000Y0017000D03*
X0137000Y0017000D03*
X0127000Y0017000D03*
X0117000Y0017000D03*
X0107000Y0017000D03*
X0097000Y0017000D03*
X0087000Y0017000D03*
X0077000Y0017000D03*
X0067000Y0017000D03*
X0057000Y0017000D03*
X0047000Y0017000D03*
X0037000Y0017000D03*
X0027000Y0017000D03*
D41*
X0136410Y0042420D03*
X0136410Y0049110D03*
D22*
X0016000Y0044050D03*
X0016000Y0038150D03*
D13*
X0082000Y0038210D02*
X0084800Y0038210D01*
X0082000Y0038210D02*
X0082000Y0038970D01*
X0084800Y0038970D01*
X0084800Y0038210D01*
X0084800Y0038950D02*
X0082000Y0038950D01*
X0082000Y0040180D02*
X0084800Y0040180D01*
X0082000Y0040180D02*
X0082000Y0040940D01*
X0084800Y0040940D01*
X0084800Y0040180D01*
X0084800Y0040920D02*
X0082000Y0040920D01*
X0082100Y0042120D02*
X0084900Y0042120D01*
X0082100Y0042120D02*
X0082100Y0042880D01*
X0084900Y0042880D01*
X0084900Y0042120D01*
X0084900Y0042860D02*
X0082100Y0042860D01*
X0082100Y0044120D02*
X0084900Y0044120D01*
X0082100Y0044120D02*
X0082100Y0044880D01*
X0084900Y0044880D01*
X0084900Y0044120D01*
X0084900Y0044860D02*
X0082100Y0044860D01*
X0082100Y0046120D02*
X0084900Y0046120D01*
X0082100Y0046120D02*
X0082100Y0046880D01*
X0084900Y0046880D01*
X0084900Y0046120D01*
X0084900Y0046860D02*
X0082100Y0046860D01*
X0082100Y0048120D02*
X0084900Y0048120D01*
X0082100Y0048120D02*
X0082100Y0048880D01*
X0084900Y0048880D01*
X0084900Y0048120D01*
X0084900Y0048860D02*
X0082100Y0048860D01*
X0082100Y0050120D02*
X0084900Y0050120D01*
X0082100Y0050120D02*
X0082100Y0050880D01*
X0084900Y0050880D01*
X0084900Y0050120D01*
X0084900Y0050860D02*
X0082100Y0050860D01*
X0082100Y0052120D02*
X0084900Y0052120D01*
X0082100Y0052120D02*
X0082100Y0052880D01*
X0084900Y0052880D01*
X0084900Y0052120D01*
X0084900Y0052860D02*
X0082100Y0052860D01*
X0082100Y0054120D02*
X0084900Y0054120D01*
X0082100Y0054120D02*
X0082100Y0054880D01*
X0084900Y0054880D01*
X0084900Y0054120D01*
X0084900Y0054860D02*
X0082100Y0054860D01*
X0086770Y0056690D02*
X0087530Y0056690D01*
X0086770Y0056690D02*
X0086770Y0059490D01*
X0087530Y0059490D01*
X0087530Y0056690D01*
X0087530Y0057430D02*
X0086770Y0057430D01*
X0086770Y0058170D02*
X0087530Y0058170D01*
X0087530Y0058910D02*
X0086770Y0058910D01*
X0088740Y0056690D02*
X0089500Y0056690D01*
X0088740Y0056690D02*
X0088740Y0059490D01*
X0089500Y0059490D01*
X0089500Y0056690D01*
X0089500Y0057430D02*
X0088740Y0057430D01*
X0088740Y0058170D02*
X0089500Y0058170D01*
X0089500Y0058910D02*
X0088740Y0058910D01*
X0090710Y0056690D02*
X0091470Y0056690D01*
X0090710Y0056690D02*
X0090710Y0059490D01*
X0091470Y0059490D01*
X0091470Y0056690D01*
X0091470Y0057430D02*
X0090710Y0057430D01*
X0090710Y0058170D02*
X0091470Y0058170D01*
X0091470Y0058910D02*
X0090710Y0058910D01*
X0092680Y0056690D02*
X0093440Y0056690D01*
X0092680Y0056690D02*
X0092680Y0059490D01*
X0093440Y0059490D01*
X0093440Y0056690D01*
X0093440Y0057430D02*
X0092680Y0057430D01*
X0092680Y0058170D02*
X0093440Y0058170D01*
X0093440Y0058910D02*
X0092680Y0058910D01*
X0094650Y0056690D02*
X0095410Y0056690D01*
X0094650Y0056690D02*
X0094650Y0059490D01*
X0095410Y0059490D01*
X0095410Y0056690D01*
X0095410Y0057430D02*
X0094650Y0057430D01*
X0094650Y0058170D02*
X0095410Y0058170D01*
X0095410Y0058910D02*
X0094650Y0058910D01*
X0096620Y0056690D02*
X0097380Y0056690D01*
X0096620Y0056690D02*
X0096620Y0059490D01*
X0097380Y0059490D01*
X0097380Y0056690D01*
X0097380Y0057430D02*
X0096620Y0057430D01*
X0096620Y0058170D02*
X0097380Y0058170D01*
X0097380Y0058910D02*
X0096620Y0058910D01*
X0098580Y0056690D02*
X0099340Y0056690D01*
X0098580Y0056690D02*
X0098580Y0059490D01*
X0099340Y0059490D01*
X0099340Y0056690D01*
X0099340Y0057430D02*
X0098580Y0057430D01*
X0098580Y0058170D02*
X0099340Y0058170D01*
X0099340Y0058910D02*
X0098580Y0058910D01*
X0100550Y0056690D02*
X0101310Y0056690D01*
X0100550Y0056690D02*
X0100550Y0059490D01*
X0101310Y0059490D01*
X0101310Y0056690D01*
X0101310Y0057430D02*
X0100550Y0057430D01*
X0100550Y0058170D02*
X0101310Y0058170D01*
X0101310Y0058910D02*
X0100550Y0058910D01*
X0102520Y0056690D02*
X0103280Y0056690D01*
X0102520Y0056690D02*
X0102520Y0059490D01*
X0103280Y0059490D01*
X0103280Y0056690D01*
X0103280Y0057430D02*
X0102520Y0057430D01*
X0102520Y0058170D02*
X0103280Y0058170D01*
X0103280Y0058910D02*
X0102520Y0058910D01*
X0104490Y0056690D02*
X0105250Y0056690D01*
X0104490Y0056690D02*
X0104490Y0059490D01*
X0105250Y0059490D01*
X0105250Y0056690D01*
X0105250Y0057430D02*
X0104490Y0057430D01*
X0104490Y0058170D02*
X0105250Y0058170D01*
X0105250Y0058910D02*
X0104490Y0058910D01*
X0106460Y0056690D02*
X0107220Y0056690D01*
X0106460Y0056690D02*
X0106460Y0059490D01*
X0107220Y0059490D01*
X0107220Y0056690D01*
X0107220Y0057430D02*
X0106460Y0057430D01*
X0106460Y0058170D02*
X0107220Y0058170D01*
X0107220Y0058910D02*
X0106460Y0058910D01*
X0109190Y0053960D02*
X0111990Y0053960D01*
X0109190Y0053960D02*
X0109190Y0054720D01*
X0111990Y0054720D01*
X0111990Y0053960D01*
X0111990Y0054700D02*
X0109190Y0054700D01*
X0109190Y0051990D02*
X0111990Y0051990D01*
X0109190Y0051990D02*
X0109190Y0052750D01*
X0111990Y0052750D01*
X0111990Y0051990D01*
X0111990Y0052730D02*
X0109190Y0052730D01*
X0109190Y0050030D02*
X0111990Y0050030D01*
X0109190Y0050030D02*
X0109190Y0050790D01*
X0111990Y0050790D01*
X0111990Y0050030D01*
X0111990Y0050770D02*
X0109190Y0050770D01*
X0109190Y0048060D02*
X0111990Y0048060D01*
X0109190Y0048060D02*
X0109190Y0048820D01*
X0111990Y0048820D01*
X0111990Y0048060D01*
X0111990Y0048800D02*
X0109190Y0048800D01*
X0109190Y0046090D02*
X0111990Y0046090D01*
X0109190Y0046090D02*
X0109190Y0046850D01*
X0111990Y0046850D01*
X0111990Y0046090D01*
X0111990Y0046830D02*
X0109190Y0046830D01*
X0109190Y0044120D02*
X0111990Y0044120D01*
X0109190Y0044120D02*
X0109190Y0044880D01*
X0111990Y0044880D01*
X0111990Y0044120D01*
X0111990Y0044860D02*
X0109190Y0044860D01*
X0109190Y0042150D02*
X0111990Y0042150D01*
X0109190Y0042150D02*
X0109190Y0042910D01*
X0111990Y0042910D01*
X0111990Y0042150D01*
X0111990Y0042890D02*
X0109190Y0042890D01*
X0109190Y0040180D02*
X0111990Y0040180D01*
X0109190Y0040180D02*
X0109190Y0040940D01*
X0111990Y0040940D01*
X0111990Y0040180D01*
X0111990Y0040920D02*
X0109190Y0040920D01*
X0109190Y0038210D02*
X0111990Y0038210D01*
X0109190Y0038210D02*
X0109190Y0038970D01*
X0111990Y0038970D01*
X0111990Y0038210D01*
X0111990Y0038950D02*
X0109190Y0038950D01*
X0109190Y0036250D02*
X0111990Y0036250D01*
X0109190Y0036250D02*
X0109190Y0037010D01*
X0111990Y0037010D01*
X0111990Y0036250D01*
X0111990Y0036990D02*
X0109190Y0036990D01*
X0109190Y0034280D02*
X0111990Y0034280D01*
X0109190Y0034280D02*
X0109190Y0035040D01*
X0111990Y0035040D01*
X0111990Y0034280D01*
X0111990Y0035020D02*
X0109190Y0035020D01*
X0107220Y0029510D02*
X0106460Y0029510D01*
X0106460Y0032310D01*
X0107220Y0032310D01*
X0107220Y0029510D01*
X0107220Y0030250D02*
X0106460Y0030250D01*
X0106460Y0030990D02*
X0107220Y0030990D01*
X0107220Y0031730D02*
X0106460Y0031730D01*
X0105250Y0029510D02*
X0104490Y0029510D01*
X0104490Y0032310D01*
X0105250Y0032310D01*
X0105250Y0029510D01*
X0105250Y0030250D02*
X0104490Y0030250D01*
X0104490Y0030990D02*
X0105250Y0030990D01*
X0105250Y0031730D02*
X0104490Y0031730D01*
X0103280Y0029510D02*
X0102520Y0029510D01*
X0102520Y0032310D01*
X0103280Y0032310D01*
X0103280Y0029510D01*
X0103280Y0030250D02*
X0102520Y0030250D01*
X0102520Y0030990D02*
X0103280Y0030990D01*
X0103280Y0031730D02*
X0102520Y0031730D01*
X0101310Y0029510D02*
X0100550Y0029510D01*
X0100550Y0032310D01*
X0101310Y0032310D01*
X0101310Y0029510D01*
X0101310Y0030250D02*
X0100550Y0030250D01*
X0100550Y0030990D02*
X0101310Y0030990D01*
X0101310Y0031730D02*
X0100550Y0031730D01*
X0099340Y0029510D02*
X0098580Y0029510D01*
X0098580Y0032310D01*
X0099340Y0032310D01*
X0099340Y0029510D01*
X0099340Y0030250D02*
X0098580Y0030250D01*
X0098580Y0030990D02*
X0099340Y0030990D01*
X0099340Y0031730D02*
X0098580Y0031730D01*
X0097380Y0029510D02*
X0096620Y0029510D01*
X0096620Y0032310D01*
X0097380Y0032310D01*
X0097380Y0029510D01*
X0097380Y0030250D02*
X0096620Y0030250D01*
X0096620Y0030990D02*
X0097380Y0030990D01*
X0097380Y0031730D02*
X0096620Y0031730D01*
X0095410Y0029510D02*
X0094650Y0029510D01*
X0094650Y0032310D01*
X0095410Y0032310D01*
X0095410Y0029510D01*
X0095410Y0030250D02*
X0094650Y0030250D01*
X0094650Y0030990D02*
X0095410Y0030990D01*
X0095410Y0031730D02*
X0094650Y0031730D01*
X0093440Y0029510D02*
X0092680Y0029510D01*
X0092680Y0032310D01*
X0093440Y0032310D01*
X0093440Y0029510D01*
X0093440Y0030250D02*
X0092680Y0030250D01*
X0092680Y0030990D02*
X0093440Y0030990D01*
X0093440Y0031730D02*
X0092680Y0031730D01*
X0091470Y0029510D02*
X0090710Y0029510D01*
X0090710Y0032310D01*
X0091470Y0032310D01*
X0091470Y0029510D01*
X0091470Y0030250D02*
X0090710Y0030250D01*
X0090710Y0030990D02*
X0091470Y0030990D01*
X0091470Y0031730D02*
X0090710Y0031730D01*
X0089500Y0029510D02*
X0088740Y0029510D01*
X0088740Y0032310D01*
X0089500Y0032310D01*
X0089500Y0029510D01*
X0089500Y0030250D02*
X0088740Y0030250D01*
X0088740Y0030990D02*
X0089500Y0030990D01*
X0089500Y0031730D02*
X0088740Y0031730D01*
X0087530Y0029510D02*
X0086770Y0029510D01*
X0086770Y0032310D01*
X0087530Y0032310D01*
X0087530Y0029510D01*
X0087530Y0030250D02*
X0086770Y0030250D01*
X0086770Y0030990D02*
X0087530Y0030990D01*
X0087530Y0031730D02*
X0086770Y0031730D01*
X0084800Y0034280D02*
X0082000Y0034280D01*
X0082000Y0035040D01*
X0084800Y0035040D01*
X0084800Y0034280D01*
X0084800Y0035020D02*
X0082000Y0035020D01*
X0082000Y0036250D02*
X0084800Y0036250D01*
X0082000Y0036250D02*
X0082000Y0037010D01*
X0084800Y0037010D01*
X0084800Y0036250D01*
X0084800Y0036990D02*
X0082000Y0036990D01*
D10*
X0096850Y0066370D03*
X0101970Y0066370D03*
D23*
X0184350Y0053300D03*
X0184350Y0050150D03*
X0184350Y0047000D03*
X0184350Y0043850D03*
X0184350Y0040700D03*
D19*
X0184350Y0029280D03*
X0206010Y0029280D03*
X0206010Y0064720D03*
X0184350Y0064720D03*
D27*
X0194200Y0055660D03*
X0194200Y0038340D03*
X0010000Y0084300D02*
G75*
%LPD*%
D20*
X0022400Y0112250D03*
X0022400Y0118950D03*
X0163450Y0134200D03*
X0170140Y0134200D03*
D42*
X0163410Y0125580D03*
X0163410Y0114550D03*
D28*
X0121230Y0118950D03*
X0121230Y0124070D03*
X0062600Y0113160D03*
X0062600Y0108040D03*
D31*
X0196040Y0095800D03*
X0202340Y0095800D03*
D26*
X0152650Y0114950D03*
X0145170Y0114950D03*
X0145170Y0125180D03*
X0148910Y0125180D03*
X0152650Y0125180D03*
D40*
X0017000Y0091300D03*
X0017000Y0151300D03*
D44*
X0027000Y0151300D03*
X0037000Y0151300D03*
X0047000Y0151300D03*
X0057000Y0151300D03*
X0067000Y0151300D03*
X0077000Y0151300D03*
X0087000Y0151300D03*
X0097000Y0151300D03*
X0107000Y0151300D03*
X0117000Y0151300D03*
X0127000Y0151300D03*
X0137000Y0151300D03*
X0147000Y0151300D03*
X0157000Y0151300D03*
X0167000Y0151300D03*
X0177000Y0151300D03*
X0187000Y0151300D03*
X0197000Y0151300D03*
X0207000Y0151300D03*
X0187000Y0091300D03*
X0177000Y0091300D03*
X0167000Y0091300D03*
X0157000Y0091300D03*
X0147000Y0091300D03*
X0137000Y0091300D03*
X0127000Y0091300D03*
X0117000Y0091300D03*
X0107000Y0091300D03*
X0097000Y0091300D03*
X0087000Y0091300D03*
X0077000Y0091300D03*
X0067000Y0091300D03*
X0057000Y0091300D03*
X0047000Y0091300D03*
X0037000Y0091300D03*
X0027000Y0091300D03*
D41*
X0136410Y0116720D03*
X0136410Y0123410D03*
D22*
X0016000Y0118350D03*
X0016000Y0112450D03*
D13*
X0082000Y0112510D02*
X0084800Y0112510D01*
X0082000Y0112510D02*
X0082000Y0113270D01*
X0084800Y0113270D01*
X0084800Y0112510D01*
X0084800Y0113250D02*
X0082000Y0113250D01*
X0082000Y0114480D02*
X0084800Y0114480D01*
X0082000Y0114480D02*
X0082000Y0115240D01*
X0084800Y0115240D01*
X0084800Y0114480D01*
X0084800Y0115220D02*
X0082000Y0115220D01*
X0082100Y0116420D02*
X0084900Y0116420D01*
X0082100Y0116420D02*
X0082100Y0117180D01*
X0084900Y0117180D01*
X0084900Y0116420D01*
X0084900Y0117160D02*
X0082100Y0117160D01*
X0082100Y0118420D02*
X0084900Y0118420D01*
X0082100Y0118420D02*
X0082100Y0119180D01*
X0084900Y0119180D01*
X0084900Y0118420D01*
X0084900Y0119160D02*
X0082100Y0119160D01*
X0082100Y0120420D02*
X0084900Y0120420D01*
X0082100Y0120420D02*
X0082100Y0121180D01*
X0084900Y0121180D01*
X0084900Y0120420D01*
X0084900Y0121160D02*
X0082100Y0121160D01*
X0082100Y0122420D02*
X0084900Y0122420D01*
X0082100Y0122420D02*
X0082100Y0123180D01*
X0084900Y0123180D01*
X0084900Y0122420D01*
X0084900Y0123160D02*
X0082100Y0123160D01*
X0082100Y0124420D02*
X0084900Y0124420D01*
X0082100Y0124420D02*
X0082100Y0125180D01*
X0084900Y0125180D01*
X0084900Y0124420D01*
X0084900Y0125160D02*
X0082100Y0125160D01*
X0082100Y0126420D02*
X0084900Y0126420D01*
X0082100Y0126420D02*
X0082100Y0127180D01*
X0084900Y0127180D01*
X0084900Y0126420D01*
X0084900Y0127160D02*
X0082100Y0127160D01*
X0082100Y0128420D02*
X0084900Y0128420D01*
X0082100Y0128420D02*
X0082100Y0129180D01*
X0084900Y0129180D01*
X0084900Y0128420D01*
X0084900Y0129160D02*
X0082100Y0129160D01*
X0086770Y0130990D02*
X0087530Y0130990D01*
X0086770Y0130990D02*
X0086770Y0133790D01*
X0087530Y0133790D01*
X0087530Y0130990D01*
X0087530Y0131730D02*
X0086770Y0131730D01*
X0086770Y0132470D02*
X0087530Y0132470D01*
X0087530Y0133210D02*
X0086770Y0133210D01*
X0088740Y0130990D02*
X0089500Y0130990D01*
X0088740Y0130990D02*
X0088740Y0133790D01*
X0089500Y0133790D01*
X0089500Y0130990D01*
X0089500Y0131730D02*
X0088740Y0131730D01*
X0088740Y0132470D02*
X0089500Y0132470D01*
X0089500Y0133210D02*
X0088740Y0133210D01*
X0090710Y0130990D02*
X0091470Y0130990D01*
X0090710Y0130990D02*
X0090710Y0133790D01*
X0091470Y0133790D01*
X0091470Y0130990D01*
X0091470Y0131730D02*
X0090710Y0131730D01*
X0090710Y0132470D02*
X0091470Y0132470D01*
X0091470Y0133210D02*
X0090710Y0133210D01*
X0092680Y0130990D02*
X0093440Y0130990D01*
X0092680Y0130990D02*
X0092680Y0133790D01*
X0093440Y0133790D01*
X0093440Y0130990D01*
X0093440Y0131730D02*
X0092680Y0131730D01*
X0092680Y0132470D02*
X0093440Y0132470D01*
X0093440Y0133210D02*
X0092680Y0133210D01*
X0094650Y0130990D02*
X0095410Y0130990D01*
X0094650Y0130990D02*
X0094650Y0133790D01*
X0095410Y0133790D01*
X0095410Y0130990D01*
X0095410Y0131730D02*
X0094650Y0131730D01*
X0094650Y0132470D02*
X0095410Y0132470D01*
X0095410Y0133210D02*
X0094650Y0133210D01*
X0096620Y0130990D02*
X0097380Y0130990D01*
X0096620Y0130990D02*
X0096620Y0133790D01*
X0097380Y0133790D01*
X0097380Y0130990D01*
X0097380Y0131730D02*
X0096620Y0131730D01*
X0096620Y0132470D02*
X0097380Y0132470D01*
X0097380Y0133210D02*
X0096620Y0133210D01*
X0098580Y0130990D02*
X0099340Y0130990D01*
X0098580Y0130990D02*
X0098580Y0133790D01*
X0099340Y0133790D01*
X0099340Y0130990D01*
X0099340Y0131730D02*
X0098580Y0131730D01*
X0098580Y0132470D02*
X0099340Y0132470D01*
X0099340Y0133210D02*
X0098580Y0133210D01*
X0100550Y0130990D02*
X0101310Y0130990D01*
X0100550Y0130990D02*
X0100550Y0133790D01*
X0101310Y0133790D01*
X0101310Y0130990D01*
X0101310Y0131730D02*
X0100550Y0131730D01*
X0100550Y0132470D02*
X0101310Y0132470D01*
X0101310Y0133210D02*
X0100550Y0133210D01*
X0102520Y0130990D02*
X0103280Y0130990D01*
X0102520Y0130990D02*
X0102520Y0133790D01*
X0103280Y0133790D01*
X0103280Y0130990D01*
X0103280Y0131730D02*
X0102520Y0131730D01*
X0102520Y0132470D02*
X0103280Y0132470D01*
X0103280Y0133210D02*
X0102520Y0133210D01*
X0104490Y0130990D02*
X0105250Y0130990D01*
X0104490Y0130990D02*
X0104490Y0133790D01*
X0105250Y0133790D01*
X0105250Y0130990D01*
X0105250Y0131730D02*
X0104490Y0131730D01*
X0104490Y0132470D02*
X0105250Y0132470D01*
X0105250Y0133210D02*
X0104490Y0133210D01*
X0106460Y0130990D02*
X0107220Y0130990D01*
X0106460Y0130990D02*
X0106460Y0133790D01*
X0107220Y0133790D01*
X0107220Y0130990D01*
X0107220Y0131730D02*
X0106460Y0131730D01*
X0106460Y0132470D02*
X0107220Y0132470D01*
X0107220Y0133210D02*
X0106460Y0133210D01*
X0109190Y0128260D02*
X0111990Y0128260D01*
X0109190Y0128260D02*
X0109190Y0129020D01*
X0111990Y0129020D01*
X0111990Y0128260D01*
X0111990Y0129000D02*
X0109190Y0129000D01*
X0109190Y0126290D02*
X0111990Y0126290D01*
X0109190Y0126290D02*
X0109190Y0127050D01*
X0111990Y0127050D01*
X0111990Y0126290D01*
X0111990Y0127030D02*
X0109190Y0127030D01*
X0109190Y0124330D02*
X0111990Y0124330D01*
X0109190Y0124330D02*
X0109190Y0125090D01*
X0111990Y0125090D01*
X0111990Y0124330D01*
X0111990Y0125070D02*
X0109190Y0125070D01*
X0109190Y0122360D02*
X0111990Y0122360D01*
X0109190Y0122360D02*
X0109190Y0123120D01*
X0111990Y0123120D01*
X0111990Y0122360D01*
X0111990Y0123100D02*
X0109190Y0123100D01*
X0109190Y0120390D02*
X0111990Y0120390D01*
X0109190Y0120390D02*
X0109190Y0121150D01*
X0111990Y0121150D01*
X0111990Y0120390D01*
X0111990Y0121130D02*
X0109190Y0121130D01*
X0109190Y0118420D02*
X0111990Y0118420D01*
X0109190Y0118420D02*
X0109190Y0119180D01*
X0111990Y0119180D01*
X0111990Y0118420D01*
X0111990Y0119160D02*
X0109190Y0119160D01*
X0109190Y0116450D02*
X0111990Y0116450D01*
X0109190Y0116450D02*
X0109190Y0117210D01*
X0111990Y0117210D01*
X0111990Y0116450D01*
X0111990Y0117190D02*
X0109190Y0117190D01*
X0109190Y0114480D02*
X0111990Y0114480D01*
X0109190Y0114480D02*
X0109190Y0115240D01*
X0111990Y0115240D01*
X0111990Y0114480D01*
X0111990Y0115220D02*
X0109190Y0115220D01*
X0109190Y0112510D02*
X0111990Y0112510D01*
X0109190Y0112510D02*
X0109190Y0113270D01*
X0111990Y0113270D01*
X0111990Y0112510D01*
X0111990Y0113250D02*
X0109190Y0113250D01*
X0109190Y0110550D02*
X0111990Y0110550D01*
X0109190Y0110550D02*
X0109190Y0111310D01*
X0111990Y0111310D01*
X0111990Y0110550D01*
X0111990Y0111290D02*
X0109190Y0111290D01*
X0109190Y0108580D02*
X0111990Y0108580D01*
X0109190Y0108580D02*
X0109190Y0109340D01*
X0111990Y0109340D01*
X0111990Y0108580D01*
X0111990Y0109320D02*
X0109190Y0109320D01*
X0107220Y0103810D02*
X0106460Y0103810D01*
X0106460Y0106610D01*
X0107220Y0106610D01*
X0107220Y0103810D01*
X0107220Y0104550D02*
X0106460Y0104550D01*
X0106460Y0105290D02*
X0107220Y0105290D01*
X0107220Y0106030D02*
X0106460Y0106030D01*
X0105250Y0103810D02*
X0104490Y0103810D01*
X0104490Y0106610D01*
X0105250Y0106610D01*
X0105250Y0103810D01*
X0105250Y0104550D02*
X0104490Y0104550D01*
X0104490Y0105290D02*
X0105250Y0105290D01*
X0105250Y0106030D02*
X0104490Y0106030D01*
X0103280Y0103810D02*
X0102520Y0103810D01*
X0102520Y0106610D01*
X0103280Y0106610D01*
X0103280Y0103810D01*
X0103280Y0104550D02*
X0102520Y0104550D01*
X0102520Y0105290D02*
X0103280Y0105290D01*
X0103280Y0106030D02*
X0102520Y0106030D01*
X0101310Y0103810D02*
X0100550Y0103810D01*
X0100550Y0106610D01*
X0101310Y0106610D01*
X0101310Y0103810D01*
X0101310Y0104550D02*
X0100550Y0104550D01*
X0100550Y0105290D02*
X0101310Y0105290D01*
X0101310Y0106030D02*
X0100550Y0106030D01*
X0099340Y0103810D02*
X0098580Y0103810D01*
X0098580Y0106610D01*
X0099340Y0106610D01*
X0099340Y0103810D01*
X0099340Y0104550D02*
X0098580Y0104550D01*
X0098580Y0105290D02*
X0099340Y0105290D01*
X0099340Y0106030D02*
X0098580Y0106030D01*
X0097380Y0103810D02*
X0096620Y0103810D01*
X0096620Y0106610D01*
X0097380Y0106610D01*
X0097380Y0103810D01*
X0097380Y0104550D02*
X0096620Y0104550D01*
X0096620Y0105290D02*
X0097380Y0105290D01*
X0097380Y0106030D02*
X0096620Y0106030D01*
X0095410Y0103810D02*
X0094650Y0103810D01*
X0094650Y0106610D01*
X0095410Y0106610D01*
X0095410Y0103810D01*
X0095410Y0104550D02*
X0094650Y0104550D01*
X0094650Y0105290D02*
X0095410Y0105290D01*
X0095410Y0106030D02*
X0094650Y0106030D01*
X0093440Y0103810D02*
X0092680Y0103810D01*
X0092680Y0106610D01*
X0093440Y0106610D01*
X0093440Y0103810D01*
X0093440Y0104550D02*
X0092680Y0104550D01*
X0092680Y0105290D02*
X0093440Y0105290D01*
X0093440Y0106030D02*
X0092680Y0106030D01*
X0091470Y0103810D02*
X0090710Y0103810D01*
X0090710Y0106610D01*
X0091470Y0106610D01*
X0091470Y0103810D01*
X0091470Y0104550D02*
X0090710Y0104550D01*
X0090710Y0105290D02*
X0091470Y0105290D01*
X0091470Y0106030D02*
X0090710Y0106030D01*
X0089500Y0103810D02*
X0088740Y0103810D01*
X0088740Y0106610D01*
X0089500Y0106610D01*
X0089500Y0103810D01*
X0089500Y0104550D02*
X0088740Y0104550D01*
X0088740Y0105290D02*
X0089500Y0105290D01*
X0089500Y0106030D02*
X0088740Y0106030D01*
X0087530Y0103810D02*
X0086770Y0103810D01*
X0086770Y0106610D01*
X0087530Y0106610D01*
X0087530Y0103810D01*
X0087530Y0104550D02*
X0086770Y0104550D01*
X0086770Y0105290D02*
X0087530Y0105290D01*
X0087530Y0106030D02*
X0086770Y0106030D01*
X0084800Y0108580D02*
X0082000Y0108580D01*
X0082000Y0109340D01*
X0084800Y0109340D01*
X0084800Y0108580D01*
X0084800Y0109320D02*
X0082000Y0109320D01*
X0082000Y0110550D02*
X0084800Y0110550D01*
X0082000Y0110550D02*
X0082000Y0111310D01*
X0084800Y0111310D01*
X0084800Y0110550D01*
X0084800Y0111290D02*
X0082000Y0111290D01*
D10*
X0096850Y0140670D03*
X0101970Y0140670D03*
D23*
X0184350Y0127600D03*
X0184350Y0124450D03*
X0184350Y0121300D03*
X0184350Y0118150D03*
X0184350Y0115000D03*
D19*
X0184350Y0103580D03*
X0206010Y0103580D03*
X0206010Y0139020D03*
X0184350Y0139020D03*
D27*
X0194200Y0129960D03*
X0194200Y0112640D03*
X0010000Y0158600D02*
G75*
%LPD*%
D20*
X0022400Y0186550D03*
X0022400Y0193250D03*
X0163450Y0208500D03*
X0170140Y0208500D03*
D42*
X0163410Y0199880D03*
X0163410Y0188850D03*
D28*
X0121230Y0193250D03*
X0121230Y0198370D03*
X0062600Y0187460D03*
X0062600Y0182340D03*
D31*
X0196040Y0170100D03*
X0202340Y0170100D03*
D26*
X0152650Y0189250D03*
X0145170Y0189250D03*
X0145170Y0199480D03*
X0148910Y0199480D03*
X0152650Y0199480D03*
D40*
X0017000Y0165600D03*
X0017000Y0225600D03*
D44*
X0027000Y0225600D03*
X0037000Y0225600D03*
X0047000Y0225600D03*
X0057000Y0225600D03*
X0067000Y0225600D03*
X0077000Y0225600D03*
X0087000Y0225600D03*
X0097000Y0225600D03*
X0107000Y0225600D03*
X0117000Y0225600D03*
X0127000Y0225600D03*
X0137000Y0225600D03*
X0147000Y0225600D03*
X0157000Y0225600D03*
X0167000Y0225600D03*
X0177000Y0225600D03*
X0187000Y0225600D03*
X0197000Y0225600D03*
X0207000Y0225600D03*
X0187000Y0165600D03*
X0177000Y0165600D03*
X0167000Y0165600D03*
X0157000Y0165600D03*
X0147000Y0165600D03*
X0137000Y0165600D03*
X0127000Y0165600D03*
X0117000Y0165600D03*
X0107000Y0165600D03*
X0097000Y0165600D03*
X0087000Y0165600D03*
X0077000Y0165600D03*
X0067000Y0165600D03*
X0057000Y0165600D03*
X0047000Y0165600D03*
X0037000Y0165600D03*
X0027000Y0165600D03*
D41*
X0136410Y0191020D03*
X0136410Y0197710D03*
D22*
X0016000Y0192650D03*
X0016000Y0186750D03*
D13*
X0082000Y0186810D02*
X0084800Y0186810D01*
X0082000Y0186810D02*
X0082000Y0187570D01*
X0084800Y0187570D01*
X0084800Y0186810D01*
X0084800Y0187550D02*
X0082000Y0187550D01*
X0082000Y0188780D02*
X0084800Y0188780D01*
X0082000Y0188780D02*
X0082000Y0189540D01*
X0084800Y0189540D01*
X0084800Y0188780D01*
X0084800Y0189520D02*
X0082000Y0189520D01*
X0082100Y0190720D02*
X0084900Y0190720D01*
X0082100Y0190720D02*
X0082100Y0191480D01*
X0084900Y0191480D01*
X0084900Y0190720D01*
X0084900Y0191460D02*
X0082100Y0191460D01*
X0082100Y0192720D02*
X0084900Y0192720D01*
X0082100Y0192720D02*
X0082100Y0193480D01*
X0084900Y0193480D01*
X0084900Y0192720D01*
X0084900Y0193460D02*
X0082100Y0193460D01*
X0082100Y0194720D02*
X0084900Y0194720D01*
X0082100Y0194720D02*
X0082100Y0195480D01*
X0084900Y0195480D01*
X0084900Y0194720D01*
X0084900Y0195460D02*
X0082100Y0195460D01*
X0082100Y0196720D02*
X0084900Y0196720D01*
X0082100Y0196720D02*
X0082100Y0197480D01*
X0084900Y0197480D01*
X0084900Y0196720D01*
X0084900Y0197460D02*
X0082100Y0197460D01*
X0082100Y0198720D02*
X0084900Y0198720D01*
X0082100Y0198720D02*
X0082100Y0199480D01*
X0084900Y0199480D01*
X0084900Y0198720D01*
X0084900Y0199460D02*
X0082100Y0199460D01*
X0082100Y0200720D02*
X0084900Y0200720D01*
X0082100Y0200720D02*
X0082100Y0201480D01*
X0084900Y0201480D01*
X0084900Y0200720D01*
X0084900Y0201460D02*
X0082100Y0201460D01*
X0082100Y0202720D02*
X0084900Y0202720D01*
X0082100Y0202720D02*
X0082100Y0203480D01*
X0084900Y0203480D01*
X0084900Y0202720D01*
X0084900Y0203460D02*
X0082100Y0203460D01*
X0086770Y0205290D02*
X0087530Y0205290D01*
X0086770Y0205290D02*
X0086770Y0208090D01*
X0087530Y0208090D01*
X0087530Y0205290D01*
X0087530Y0206030D02*
X0086770Y0206030D01*
X0086770Y0206770D02*
X0087530Y0206770D01*
X0087530Y0207510D02*
X0086770Y0207510D01*
X0088740Y0205290D02*
X0089500Y0205290D01*
X0088740Y0205290D02*
X0088740Y0208090D01*
X0089500Y0208090D01*
X0089500Y0205290D01*
X0089500Y0206030D02*
X0088740Y0206030D01*
X0088740Y0206770D02*
X0089500Y0206770D01*
X0089500Y0207510D02*
X0088740Y0207510D01*
X0090710Y0205290D02*
X0091470Y0205290D01*
X0090710Y0205290D02*
X0090710Y0208090D01*
X0091470Y0208090D01*
X0091470Y0205290D01*
X0091470Y0206030D02*
X0090710Y0206030D01*
X0090710Y0206770D02*
X0091470Y0206770D01*
X0091470Y0207510D02*
X0090710Y0207510D01*
X0092680Y0205290D02*
X0093440Y0205290D01*
X0092680Y0205290D02*
X0092680Y0208090D01*
X0093440Y0208090D01*
X0093440Y0205290D01*
X0093440Y0206030D02*
X0092680Y0206030D01*
X0092680Y0206770D02*
X0093440Y0206770D01*
X0093440Y0207510D02*
X0092680Y0207510D01*
X0094650Y0205290D02*
X0095410Y0205290D01*
X0094650Y0205290D02*
X0094650Y0208090D01*
X0095410Y0208090D01*
X0095410Y0205290D01*
X0095410Y0206030D02*
X0094650Y0206030D01*
X0094650Y0206770D02*
X0095410Y0206770D01*
X0095410Y0207510D02*
X0094650Y0207510D01*
X0096620Y0205290D02*
X0097380Y0205290D01*
X0096620Y0205290D02*
X0096620Y0208090D01*
X0097380Y0208090D01*
X0097380Y0205290D01*
X0097380Y0206030D02*
X0096620Y0206030D01*
X0096620Y0206770D02*
X0097380Y0206770D01*
X0097380Y0207510D02*
X0096620Y0207510D01*
X0098580Y0205290D02*
X0099340Y0205290D01*
X0098580Y0205290D02*
X0098580Y0208090D01*
X0099340Y0208090D01*
X0099340Y0205290D01*
X0099340Y0206030D02*
X0098580Y0206030D01*
X0098580Y0206770D02*
X0099340Y0206770D01*
X0099340Y0207510D02*
X0098580Y0207510D01*
X0100550Y0205290D02*
X0101310Y0205290D01*
X0100550Y0205290D02*
X0100550Y0208090D01*
X0101310Y0208090D01*
X0101310Y0205290D01*
X0101310Y0206030D02*
X0100550Y0206030D01*
X0100550Y0206770D02*
X0101310Y0206770D01*
X0101310Y0207510D02*
X0100550Y0207510D01*
X0102520Y0205290D02*
X0103280Y0205290D01*
X0102520Y0205290D02*
X0102520Y0208090D01*
X0103280Y0208090D01*
X0103280Y0205290D01*
X0103280Y0206030D02*
X0102520Y0206030D01*
X0102520Y0206770D02*
X0103280Y0206770D01*
X0103280Y0207510D02*
X0102520Y0207510D01*
X0104490Y0205290D02*
X0105250Y0205290D01*
X0104490Y0205290D02*
X0104490Y0208090D01*
X0105250Y0208090D01*
X0105250Y0205290D01*
X0105250Y0206030D02*
X0104490Y0206030D01*
X0104490Y0206770D02*
X0105250Y0206770D01*
X0105250Y0207510D02*
X0104490Y0207510D01*
X0106460Y0205290D02*
X0107220Y0205290D01*
X0106460Y0205290D02*
X0106460Y0208090D01*
X0107220Y0208090D01*
X0107220Y0205290D01*
X0107220Y0206030D02*
X0106460Y0206030D01*
X0106460Y0206770D02*
X0107220Y0206770D01*
X0107220Y0207510D02*
X0106460Y0207510D01*
X0109190Y0202560D02*
X0111990Y0202560D01*
X0109190Y0202560D02*
X0109190Y0203320D01*
X0111990Y0203320D01*
X0111990Y0202560D01*
X0111990Y0203300D02*
X0109190Y0203300D01*
X0109190Y0200590D02*
X0111990Y0200590D01*
X0109190Y0200590D02*
X0109190Y0201350D01*
X0111990Y0201350D01*
X0111990Y0200590D01*
X0111990Y0201330D02*
X0109190Y0201330D01*
X0109190Y0198630D02*
X0111990Y0198630D01*
X0109190Y0198630D02*
X0109190Y0199390D01*
X0111990Y0199390D01*
X0111990Y0198630D01*
X0111990Y0199370D02*
X0109190Y0199370D01*
X0109190Y0196660D02*
X0111990Y0196660D01*
X0109190Y0196660D02*
X0109190Y0197420D01*
X0111990Y0197420D01*
X0111990Y0196660D01*
X0111990Y0197400D02*
X0109190Y0197400D01*
X0109190Y0194690D02*
X0111990Y0194690D01*
X0109190Y0194690D02*
X0109190Y0195450D01*
X0111990Y0195450D01*
X0111990Y0194690D01*
X0111990Y0195430D02*
X0109190Y0195430D01*
X0109190Y0192720D02*
X0111990Y0192720D01*
X0109190Y0192720D02*
X0109190Y0193480D01*
X0111990Y0193480D01*
X0111990Y0192720D01*
X0111990Y0193460D02*
X0109190Y0193460D01*
X0109190Y0190750D02*
X0111990Y0190750D01*
X0109190Y0190750D02*
X0109190Y0191510D01*
X0111990Y0191510D01*
X0111990Y0190750D01*
X0111990Y0191490D02*
X0109190Y0191490D01*
X0109190Y0188780D02*
X0111990Y0188780D01*
X0109190Y0188780D02*
X0109190Y0189540D01*
X0111990Y0189540D01*
X0111990Y0188780D01*
X0111990Y0189520D02*
X0109190Y0189520D01*
X0109190Y0186810D02*
X0111990Y0186810D01*
X0109190Y0186810D02*
X0109190Y0187570D01*
X0111990Y0187570D01*
X0111990Y0186810D01*
X0111990Y0187550D02*
X0109190Y0187550D01*
X0109190Y0184850D02*
X0111990Y0184850D01*
X0109190Y0184850D02*
X0109190Y0185610D01*
X0111990Y0185610D01*
X0111990Y0184850D01*
X0111990Y0185590D02*
X0109190Y0185590D01*
X0109190Y0182880D02*
X0111990Y0182880D01*
X0109190Y0182880D02*
X0109190Y0183640D01*
X0111990Y0183640D01*
X0111990Y0182880D01*
X0111990Y0183620D02*
X0109190Y0183620D01*
X0107220Y0178110D02*
X0106460Y0178110D01*
X0106460Y0180910D01*
X0107220Y0180910D01*
X0107220Y0178110D01*
X0107220Y0178850D02*
X0106460Y0178850D01*
X0106460Y0179590D02*
X0107220Y0179590D01*
X0107220Y0180330D02*
X0106460Y0180330D01*
X0105250Y0178110D02*
X0104490Y0178110D01*
X0104490Y0180910D01*
X0105250Y0180910D01*
X0105250Y0178110D01*
X0105250Y0178850D02*
X0104490Y0178850D01*
X0104490Y0179590D02*
X0105250Y0179590D01*
X0105250Y0180330D02*
X0104490Y0180330D01*
X0103280Y0178110D02*
X0102520Y0178110D01*
X0102520Y0180910D01*
X0103280Y0180910D01*
X0103280Y0178110D01*
X0103280Y0178850D02*
X0102520Y0178850D01*
X0102520Y0179590D02*
X0103280Y0179590D01*
X0103280Y0180330D02*
X0102520Y0180330D01*
X0101310Y0178110D02*
X0100550Y0178110D01*
X0100550Y0180910D01*
X0101310Y0180910D01*
X0101310Y0178110D01*
X0101310Y0178850D02*
X0100550Y0178850D01*
X0100550Y0179590D02*
X0101310Y0179590D01*
X0101310Y0180330D02*
X0100550Y0180330D01*
X0099340Y0178110D02*
X0098580Y0178110D01*
X0098580Y0180910D01*
X0099340Y0180910D01*
X0099340Y0178110D01*
X0099340Y0178850D02*
X0098580Y0178850D01*
X0098580Y0179590D02*
X0099340Y0179590D01*
X0099340Y0180330D02*
X0098580Y0180330D01*
X0097380Y0178110D02*
X0096620Y0178110D01*
X0096620Y0180910D01*
X0097380Y0180910D01*
X0097380Y0178110D01*
X0097380Y0178850D02*
X0096620Y0178850D01*
X0096620Y0179590D02*
X0097380Y0179590D01*
X0097380Y0180330D02*
X0096620Y0180330D01*
X0095410Y0178110D02*
X0094650Y0178110D01*
X0094650Y0180910D01*
X0095410Y0180910D01*
X0095410Y0178110D01*
X0095410Y0178850D02*
X0094650Y0178850D01*
X0094650Y0179590D02*
X0095410Y0179590D01*
X0095410Y0180330D02*
X0094650Y0180330D01*
X0093440Y0178110D02*
X0092680Y0178110D01*
X0092680Y0180910D01*
X0093440Y0180910D01*
X0093440Y0178110D01*
X0093440Y0178850D02*
X0092680Y0178850D01*
X0092680Y0179590D02*
X0093440Y0179590D01*
X0093440Y0180330D02*
X0092680Y0180330D01*
X0091470Y0178110D02*
X0090710Y0178110D01*
X0090710Y0180910D01*
X0091470Y0180910D01*
X0091470Y0178110D01*
X0091470Y0178850D02*
X0090710Y0178850D01*
X0090710Y0179590D02*
X0091470Y0179590D01*
X0091470Y0180330D02*
X0090710Y0180330D01*
X0089500Y0178110D02*
X0088740Y0178110D01*
X0088740Y0180910D01*
X0089500Y0180910D01*
X0089500Y0178110D01*
X0089500Y0178850D02*
X0088740Y0178850D01*
X0088740Y0179590D02*
X0089500Y0179590D01*
X0089500Y0180330D02*
X0088740Y0180330D01*
X0087530Y0178110D02*
X0086770Y0178110D01*
X0086770Y0180910D01*
X0087530Y0180910D01*
X0087530Y0178110D01*
X0087530Y0178850D02*
X0086770Y0178850D01*
X0086770Y0179590D02*
X0087530Y0179590D01*
X0087530Y0180330D02*
X0086770Y0180330D01*
X0084800Y0182880D02*
X0082000Y0182880D01*
X0082000Y0183640D01*
X0084800Y0183640D01*
X0084800Y0182880D01*
X0084800Y0183620D02*
X0082000Y0183620D01*
X0082000Y0184850D02*
X0084800Y0184850D01*
X0082000Y0184850D02*
X0082000Y0185610D01*
X0084800Y0185610D01*
X0084800Y0184850D01*
X0084800Y0185590D02*
X0082000Y0185590D01*
D10*
X0096850Y0214970D03*
X0101970Y0214970D03*
D23*
X0184350Y0201900D03*
X0184350Y0198750D03*
X0184350Y0195600D03*
X0184350Y0192450D03*
X0184350Y0189300D03*
D19*
X0184350Y0177880D03*
X0206010Y0177880D03*
X0206010Y0213320D03*
X0184350Y0213320D03*
D27*
X0194200Y0204260D03*
X0194200Y0186940D03*
X0010000Y0232900D02*
G75*
%LPD*%
D20*
X0022400Y0260850D03*
X0022400Y0267550D03*
X0163450Y0282800D03*
X0170140Y0282800D03*
D42*
X0163410Y0274180D03*
X0163410Y0263150D03*
D28*
X0121230Y0267550D03*
X0121230Y0272670D03*
X0062600Y0261760D03*
X0062600Y0256640D03*
D31*
X0196040Y0244400D03*
X0202340Y0244400D03*
D26*
X0152650Y0263550D03*
X0145170Y0263550D03*
X0145170Y0273780D03*
X0148910Y0273780D03*
X0152650Y0273780D03*
D40*
X0017000Y0239900D03*
X0017000Y0299900D03*
D44*
X0027000Y0299900D03*
X0037000Y0299900D03*
X0047000Y0299900D03*
X0057000Y0299900D03*
X0067000Y0299900D03*
X0077000Y0299900D03*
X0087000Y0299900D03*
X0097000Y0299900D03*
X0107000Y0299900D03*
X0117000Y0299900D03*
X0127000Y0299900D03*
X0137000Y0299900D03*
X0147000Y0299900D03*
X0157000Y0299900D03*
X0167000Y0299900D03*
X0177000Y0299900D03*
X0187000Y0299900D03*
X0197000Y0299900D03*
X0207000Y0299900D03*
X0187000Y0239900D03*
X0177000Y0239900D03*
X0167000Y0239900D03*
X0157000Y0239900D03*
X0147000Y0239900D03*
X0137000Y0239900D03*
X0127000Y0239900D03*
X0117000Y0239900D03*
X0107000Y0239900D03*
X0097000Y0239900D03*
X0087000Y0239900D03*
X0077000Y0239900D03*
X0067000Y0239900D03*
X0057000Y0239900D03*
X0047000Y0239900D03*
X0037000Y0239900D03*
X0027000Y0239900D03*
D41*
X0136410Y0265320D03*
X0136410Y0272010D03*
D22*
X0016000Y0266950D03*
X0016000Y0261050D03*
D13*
X0082000Y0261110D02*
X0084800Y0261110D01*
X0082000Y0261110D02*
X0082000Y0261870D01*
X0084800Y0261870D01*
X0084800Y0261110D01*
X0084800Y0261850D02*
X0082000Y0261850D01*
X0082000Y0263080D02*
X0084800Y0263080D01*
X0082000Y0263080D02*
X0082000Y0263840D01*
X0084800Y0263840D01*
X0084800Y0263080D01*
X0084800Y0263820D02*
X0082000Y0263820D01*
X0082100Y0265020D02*
X0084900Y0265020D01*
X0082100Y0265020D02*
X0082100Y0265780D01*
X0084900Y0265780D01*
X0084900Y0265020D01*
X0084900Y0265760D02*
X0082100Y0265760D01*
X0082100Y0267020D02*
X0084900Y0267020D01*
X0082100Y0267020D02*
X0082100Y0267780D01*
X0084900Y0267780D01*
X0084900Y0267020D01*
X0084900Y0267760D02*
X0082100Y0267760D01*
X0082100Y0269020D02*
X0084900Y0269020D01*
X0082100Y0269020D02*
X0082100Y0269780D01*
X0084900Y0269780D01*
X0084900Y0269020D01*
X0084900Y0269760D02*
X0082100Y0269760D01*
X0082100Y0271020D02*
X0084900Y0271020D01*
X0082100Y0271020D02*
X0082100Y0271780D01*
X0084900Y0271780D01*
X0084900Y0271020D01*
X0084900Y0271760D02*
X0082100Y0271760D01*
X0082100Y0273020D02*
X0084900Y0273020D01*
X0082100Y0273020D02*
X0082100Y0273780D01*
X0084900Y0273780D01*
X0084900Y0273020D01*
X0084900Y0273760D02*
X0082100Y0273760D01*
X0082100Y0275020D02*
X0084900Y0275020D01*
X0082100Y0275020D02*
X0082100Y0275780D01*
X0084900Y0275780D01*
X0084900Y0275020D01*
X0084900Y0275760D02*
X0082100Y0275760D01*
X0082100Y0277020D02*
X0084900Y0277020D01*
X0082100Y0277020D02*
X0082100Y0277780D01*
X0084900Y0277780D01*
X0084900Y0277020D01*
X0084900Y0277760D02*
X0082100Y0277760D01*
X0086770Y0279590D02*
X0087530Y0279590D01*
X0086770Y0279590D02*
X0086770Y0282390D01*
X0087530Y0282390D01*
X0087530Y0279590D01*
X0087530Y0280330D02*
X0086770Y0280330D01*
X0086770Y0281070D02*
X0087530Y0281070D01*
X0087530Y0281810D02*
X0086770Y0281810D01*
X0088740Y0279590D02*
X0089500Y0279590D01*
X0088740Y0279590D02*
X0088740Y0282390D01*
X0089500Y0282390D01*
X0089500Y0279590D01*
X0089500Y0280330D02*
X0088740Y0280330D01*
X0088740Y0281070D02*
X0089500Y0281070D01*
X0089500Y0281810D02*
X0088740Y0281810D01*
X0090710Y0279590D02*
X0091470Y0279590D01*
X0090710Y0279590D02*
X0090710Y0282390D01*
X0091470Y0282390D01*
X0091470Y0279590D01*
X0091470Y0280330D02*
X0090710Y0280330D01*
X0090710Y0281070D02*
X0091470Y0281070D01*
X0091470Y0281810D02*
X0090710Y0281810D01*
X0092680Y0279590D02*
X0093440Y0279590D01*
X0092680Y0279590D02*
X0092680Y0282390D01*
X0093440Y0282390D01*
X0093440Y0279590D01*
X0093440Y0280330D02*
X0092680Y0280330D01*
X0092680Y0281070D02*
X0093440Y0281070D01*
X0093440Y0281810D02*
X0092680Y0281810D01*
X0094650Y0279590D02*
X0095410Y0279590D01*
X0094650Y0279590D02*
X0094650Y0282390D01*
X0095410Y0282390D01*
X0095410Y0279590D01*
X0095410Y0280330D02*
X0094650Y0280330D01*
X0094650Y0281070D02*
X0095410Y0281070D01*
X0095410Y0281810D02*
X0094650Y0281810D01*
X0096620Y0279590D02*
X0097380Y0279590D01*
X0096620Y0279590D02*
X0096620Y0282390D01*
X0097380Y0282390D01*
X0097380Y0279590D01*
X0097380Y0280330D02*
X0096620Y0280330D01*
X0096620Y0281070D02*
X0097380Y0281070D01*
X0097380Y0281810D02*
X0096620Y0281810D01*
X0098580Y0279590D02*
X0099340Y0279590D01*
X0098580Y0279590D02*
X0098580Y0282390D01*
X0099340Y0282390D01*
X0099340Y0279590D01*
X0099340Y0280330D02*
X0098580Y0280330D01*
X0098580Y0281070D02*
X0099340Y0281070D01*
X0099340Y0281810D02*
X0098580Y0281810D01*
X0100550Y0279590D02*
X0101310Y0279590D01*
X0100550Y0279590D02*
X0100550Y0282390D01*
X0101310Y0282390D01*
X0101310Y0279590D01*
X0101310Y0280330D02*
X0100550Y0280330D01*
X0100550Y0281070D02*
X0101310Y0281070D01*
X0101310Y0281810D02*
X0100550Y0281810D01*
X0102520Y0279590D02*
X0103280Y0279590D01*
X0102520Y0279590D02*
X0102520Y0282390D01*
X0103280Y0282390D01*
X0103280Y0279590D01*
X0103280Y0280330D02*
X0102520Y0280330D01*
X0102520Y0281070D02*
X0103280Y0281070D01*
X0103280Y0281810D02*
X0102520Y0281810D01*
X0104490Y0279590D02*
X0105250Y0279590D01*
X0104490Y0279590D02*
X0104490Y0282390D01*
X0105250Y0282390D01*
X0105250Y0279590D01*
X0105250Y0280330D02*
X0104490Y0280330D01*
X0104490Y0281070D02*
X0105250Y0281070D01*
X0105250Y0281810D02*
X0104490Y0281810D01*
X0106460Y0279590D02*
X0107220Y0279590D01*
X0106460Y0279590D02*
X0106460Y0282390D01*
X0107220Y0282390D01*
X0107220Y0279590D01*
X0107220Y0280330D02*
X0106460Y0280330D01*
X0106460Y0281070D02*
X0107220Y0281070D01*
X0107220Y0281810D02*
X0106460Y0281810D01*
X0109190Y0276860D02*
X0111990Y0276860D01*
X0109190Y0276860D02*
X0109190Y0277620D01*
X0111990Y0277620D01*
X0111990Y0276860D01*
X0111990Y0277600D02*
X0109190Y0277600D01*
X0109190Y0274890D02*
X0111990Y0274890D01*
X0109190Y0274890D02*
X0109190Y0275650D01*
X0111990Y0275650D01*
X0111990Y0274890D01*
X0111990Y0275630D02*
X0109190Y0275630D01*
X0109190Y0272930D02*
X0111990Y0272930D01*
X0109190Y0272930D02*
X0109190Y0273690D01*
X0111990Y0273690D01*
X0111990Y0272930D01*
X0111990Y0273670D02*
X0109190Y0273670D01*
X0109190Y0270960D02*
X0111990Y0270960D01*
X0109190Y0270960D02*
X0109190Y0271720D01*
X0111990Y0271720D01*
X0111990Y0270960D01*
X0111990Y0271700D02*
X0109190Y0271700D01*
X0109190Y0268990D02*
X0111990Y0268990D01*
X0109190Y0268990D02*
X0109190Y0269750D01*
X0111990Y0269750D01*
X0111990Y0268990D01*
X0111990Y0269730D02*
X0109190Y0269730D01*
X0109190Y0267020D02*
X0111990Y0267020D01*
X0109190Y0267020D02*
X0109190Y0267780D01*
X0111990Y0267780D01*
X0111990Y0267020D01*
X0111990Y0267760D02*
X0109190Y0267760D01*
X0109190Y0265050D02*
X0111990Y0265050D01*
X0109190Y0265050D02*
X0109190Y0265810D01*
X0111990Y0265810D01*
X0111990Y0265050D01*
X0111990Y0265790D02*
X0109190Y0265790D01*
X0109190Y0263080D02*
X0111990Y0263080D01*
X0109190Y0263080D02*
X0109190Y0263840D01*
X0111990Y0263840D01*
X0111990Y0263080D01*
X0111990Y0263820D02*
X0109190Y0263820D01*
X0109190Y0261110D02*
X0111990Y0261110D01*
X0109190Y0261110D02*
X0109190Y0261870D01*
X0111990Y0261870D01*
X0111990Y0261110D01*
X0111990Y0261850D02*
X0109190Y0261850D01*
X0109190Y0259150D02*
X0111990Y0259150D01*
X0109190Y0259150D02*
X0109190Y0259910D01*
X0111990Y0259910D01*
X0111990Y0259150D01*
X0111990Y0259890D02*
X0109190Y0259890D01*
X0109190Y0257180D02*
X0111990Y0257180D01*
X0109190Y0257180D02*
X0109190Y0257940D01*
X0111990Y0257940D01*
X0111990Y0257180D01*
X0111990Y0257920D02*
X0109190Y0257920D01*
X0107220Y0252410D02*
X0106460Y0252410D01*
X0106460Y0255210D01*
X0107220Y0255210D01*
X0107220Y0252410D01*
X0107220Y0253150D02*
X0106460Y0253150D01*
X0106460Y0253890D02*
X0107220Y0253890D01*
X0107220Y0254630D02*
X0106460Y0254630D01*
X0105250Y0252410D02*
X0104490Y0252410D01*
X0104490Y0255210D01*
X0105250Y0255210D01*
X0105250Y0252410D01*
X0105250Y0253150D02*
X0104490Y0253150D01*
X0104490Y0253890D02*
X0105250Y0253890D01*
X0105250Y0254630D02*
X0104490Y0254630D01*
X0103280Y0252410D02*
X0102520Y0252410D01*
X0102520Y0255210D01*
X0103280Y0255210D01*
X0103280Y0252410D01*
X0103280Y0253150D02*
X0102520Y0253150D01*
X0102520Y0253890D02*
X0103280Y0253890D01*
X0103280Y0254630D02*
X0102520Y0254630D01*
X0101310Y0252410D02*
X0100550Y0252410D01*
X0100550Y0255210D01*
X0101310Y0255210D01*
X0101310Y0252410D01*
X0101310Y0253150D02*
X0100550Y0253150D01*
X0100550Y0253890D02*
X0101310Y0253890D01*
X0101310Y0254630D02*
X0100550Y0254630D01*
X0099340Y0252410D02*
X0098580Y0252410D01*
X0098580Y0255210D01*
X0099340Y0255210D01*
X0099340Y0252410D01*
X0099340Y0253150D02*
X0098580Y0253150D01*
X0098580Y0253890D02*
X0099340Y0253890D01*
X0099340Y0254630D02*
X0098580Y0254630D01*
X0097380Y0252410D02*
X0096620Y0252410D01*
X0096620Y0255210D01*
X0097380Y0255210D01*
X0097380Y0252410D01*
X0097380Y0253150D02*
X0096620Y0253150D01*
X0096620Y0253890D02*
X0097380Y0253890D01*
X0097380Y0254630D02*
X0096620Y0254630D01*
X0095410Y0252410D02*
X0094650Y0252410D01*
X0094650Y0255210D01*
X0095410Y0255210D01*
X0095410Y0252410D01*
X0095410Y0253150D02*
X0094650Y0253150D01*
X0094650Y0253890D02*
X0095410Y0253890D01*
X0095410Y0254630D02*
X0094650Y0254630D01*
X0093440Y0252410D02*
X0092680Y0252410D01*
X0092680Y0255210D01*
X0093440Y0255210D01*
X0093440Y0252410D01*
X0093440Y0253150D02*
X0092680Y0253150D01*
X0092680Y0253890D02*
X0093440Y0253890D01*
X0093440Y0254630D02*
X0092680Y0254630D01*
X0091470Y0252410D02*
X0090710Y0252410D01*
X0090710Y0255210D01*
X0091470Y0255210D01*
X0091470Y0252410D01*
X0091470Y0253150D02*
X0090710Y0253150D01*
X0090710Y0253890D02*
X0091470Y0253890D01*
X0091470Y0254630D02*
X0090710Y0254630D01*
X0089500Y0252410D02*
X0088740Y0252410D01*
X0088740Y0255210D01*
X0089500Y0255210D01*
X0089500Y0252410D01*
X0089500Y0253150D02*
X0088740Y0253150D01*
X0088740Y0253890D02*
X0089500Y0253890D01*
X0089500Y0254630D02*
X0088740Y0254630D01*
X0087530Y0252410D02*
X0086770Y0252410D01*
X0086770Y0255210D01*
X0087530Y0255210D01*
X0087530Y0252410D01*
X0087530Y0253150D02*
X0086770Y0253150D01*
X0086770Y0253890D02*
X0087530Y0253890D01*
X0087530Y0254630D02*
X0086770Y0254630D01*
X0084800Y0257180D02*
X0082000Y0257180D01*
X0082000Y0257940D01*
X0084800Y0257940D01*
X0084800Y0257180D01*
X0084800Y0257920D02*
X0082000Y0257920D01*
X0082000Y0259150D02*
X0084800Y0259150D01*
X0082000Y0259150D02*
X0082000Y0259910D01*
X0084800Y0259910D01*
X0084800Y0259150D01*
X0084800Y0259890D02*
X0082000Y0259890D01*
D10*
X0096850Y0289270D03*
X0101970Y0289270D03*
D23*
X0184350Y0276200D03*
X0184350Y0273050D03*
X0184350Y0269900D03*
X0184350Y0266750D03*
X0184350Y0263600D03*
D19*
X0184350Y0252180D03*
X0206010Y0252180D03*
X0206010Y0287620D03*
X0184350Y0287620D03*
D27*
X0194200Y0278560D03*
X0194200Y0261240D03*
M02*
