G75*
G70*
%OFA0B0*%
%FSLAX25Y25*%
%IPPOS*%
%LPD*%
%AMOC8*
5,1,8,0,0,1.08239X$1,22.5*
%
%ADD16C,0.00600*%
%ADD25C,0.00000*%
X0010000Y0010000D02*
G75*
%LPD*%
D25*
X0010000Y0010000D02*
X0010000Y0084000D01*
X0214000Y0084000D01*
X0214000Y0010000D01*
X0010000Y0010000D01*
X0192430Y0038340D02*
X0192450Y0038600D01*
X0192510Y0038860D01*
X0192610Y0039110D01*
X0192740Y0039340D01*
X0192900Y0039540D01*
X0193100Y0039720D01*
X0193320Y0039870D01*
X0193550Y0039990D01*
X0193810Y0040070D01*
X0194070Y0040110D01*
X0194330Y0040110D01*
X0194590Y0040070D01*
X0194850Y0039990D01*
X0195090Y0039870D01*
X0195300Y0039720D01*
X0195500Y0039540D01*
X0195660Y0039340D01*
X0195790Y0039110D01*
X0195890Y0038860D01*
X0195950Y0038600D01*
X0195970Y0038340D01*
X0195950Y0038080D01*
X0195890Y0037820D01*
X0195790Y0037570D01*
X0195660Y0037340D01*
X0195500Y0037140D01*
X0195300Y0036960D01*
X0195080Y0036810D01*
X0194850Y0036690D01*
X0194590Y0036610D01*
X0194330Y0036570D01*
X0194070Y0036570D01*
X0193810Y0036610D01*
X0193550Y0036690D01*
X0193310Y0036810D01*
X0193100Y0036960D01*
X0192900Y0037140D01*
X0192740Y0037340D01*
X0192610Y0037570D01*
X0192510Y0037820D01*
X0192450Y0038080D01*
X0192430Y0038340D01*
X0192430Y0055660D02*
X0192450Y0055920D01*
X0192510Y0056180D01*
X0192610Y0056430D01*
X0192740Y0056660D01*
X0192900Y0056860D01*
X0193100Y0057040D01*
X0193320Y0057190D01*
X0193550Y0057310D01*
X0193810Y0057390D01*
X0194070Y0057430D01*
X0194330Y0057430D01*
X0194590Y0057390D01*
X0194850Y0057310D01*
X0195090Y0057190D01*
X0195300Y0057040D01*
X0195500Y0056860D01*
X0195660Y0056660D01*
X0195790Y0056430D01*
X0195890Y0056180D01*
X0195950Y0055920D01*
X0195970Y0055660D01*
X0195950Y0055400D01*
X0195890Y0055140D01*
X0195790Y0054890D01*
X0195660Y0054660D01*
X0195500Y0054460D01*
X0195300Y0054280D01*
X0195080Y0054130D01*
X0194850Y0054010D01*
X0194590Y0053930D01*
X0194330Y0053890D01*
X0194070Y0053890D01*
X0193810Y0053930D01*
X0193550Y0054010D01*
X0193310Y0054130D01*
X0193100Y0054280D01*
X0192900Y0054460D01*
X0192740Y0054660D01*
X0192610Y0054890D01*
X0192510Y0055140D01*
X0192450Y0055400D01*
X0192430Y0055660D01*
D16*
X0195300Y0062300D02*
X0198700Y0062300D01*
X0198700Y0064000D01*
X0198130Y0064570D01*
X0197000Y0064570D01*
X0196430Y0064000D01*
X0196430Y0062300D01*
X0197000Y0065980D02*
X0197000Y0067120D01*
X0198700Y0068250D02*
X0198700Y0065980D01*
X0195300Y0065980D01*
X0195300Y0068250D01*
X0195300Y0069670D02*
X0195300Y0071930D01*
X0195300Y0070800D02*
X0198700Y0070800D01*
X0197560Y0069670D01*
X0205300Y0070230D02*
X0205860Y0069670D01*
X0208130Y0071930D01*
X0205860Y0071930D01*
X0205300Y0071370D01*
X0205300Y0070230D01*
X0205860Y0069670D02*
X0208130Y0069670D01*
X0208700Y0070230D01*
X0208700Y0071370D01*
X0208130Y0071930D01*
X0208700Y0068250D02*
X0208700Y0065980D01*
X0205300Y0065980D01*
X0205300Y0068250D01*
X0207000Y0067120D02*
X0207000Y0065980D01*
X0207000Y0064570D02*
X0206430Y0064000D01*
X0206430Y0062300D01*
X0205300Y0062300D02*
X0208700Y0062300D01*
X0208700Y0064000D01*
X0208130Y0064570D01*
X0207000Y0064570D01*
X0188700Y0064000D02*
X0188700Y0062300D01*
X0185300Y0062300D01*
X0186430Y0062300D02*
X0186430Y0064000D01*
X0187000Y0064570D01*
X0188130Y0064570D01*
X0188700Y0064000D01*
X0188700Y0065980D02*
X0185300Y0065980D01*
X0185300Y0068250D01*
X0185300Y0069670D02*
X0187560Y0071930D01*
X0188130Y0071930D01*
X0188700Y0071370D01*
X0188700Y0070230D01*
X0188130Y0069670D01*
X0188700Y0068250D02*
X0188700Y0065980D01*
X0187000Y0065980D02*
X0187000Y0067120D01*
X0185300Y0069670D02*
X0185300Y0071930D01*
X0178700Y0071370D02*
X0178700Y0070230D01*
X0178130Y0069670D01*
X0178700Y0068250D02*
X0178700Y0065980D01*
X0175300Y0065980D01*
X0175300Y0068250D01*
X0175860Y0069670D02*
X0175300Y0070230D01*
X0175300Y0071370D01*
X0175860Y0071930D01*
X0176430Y0071930D01*
X0177000Y0071370D01*
X0177000Y0070800D01*
X0177000Y0071370D02*
X0177560Y0071930D01*
X0178130Y0071930D01*
X0178700Y0071370D01*
X0177000Y0067120D02*
X0177000Y0065980D01*
X0177000Y0064570D02*
X0176430Y0064000D01*
X0176430Y0062300D01*
X0175300Y0062300D02*
X0178700Y0062300D01*
X0178700Y0064000D01*
X0178130Y0064570D01*
X0177000Y0064570D01*
X0080180Y0051300D02*
X0080180Y0047900D01*
X0077920Y0047900D01*
X0076500Y0047900D02*
X0076500Y0050170D01*
X0074800Y0050170D01*
X0074230Y0049600D01*
X0074230Y0047900D01*
X0072820Y0048470D02*
X0072820Y0049600D01*
X0072250Y0050170D01*
X0070550Y0050170D01*
X0070550Y0047330D01*
X0071120Y0046770D01*
X0071680Y0046770D01*
X0072250Y0047900D02*
X0070550Y0047900D01*
X0069130Y0047900D02*
X0068000Y0047900D01*
X0068570Y0047900D02*
X0068570Y0050170D01*
X0069130Y0050170D01*
X0068570Y0051300D02*
X0068570Y0051870D01*
X0066680Y0050170D02*
X0064980Y0050170D01*
X0064410Y0049600D01*
X0064410Y0047900D01*
X0063000Y0048470D02*
X0063000Y0049600D01*
X0062430Y0050170D01*
X0061290Y0050170D01*
X0060730Y0049600D01*
X0060730Y0049030D01*
X0063000Y0049030D01*
X0063000Y0048470D02*
X0062430Y0047900D01*
X0061290Y0047900D01*
X0059310Y0048470D02*
X0059310Y0049600D01*
X0058750Y0050170D01*
X0057610Y0050170D01*
X0057040Y0049600D01*
X0057040Y0049030D01*
X0059310Y0049030D01*
X0059310Y0048470D02*
X0058750Y0047900D01*
X0057610Y0047900D01*
X0055630Y0047900D02*
X0055630Y0050170D01*
X0054500Y0050170D02*
X0053930Y0050170D01*
X0054500Y0050170D02*
X0055630Y0049030D01*
X0052560Y0047900D02*
X0051430Y0047900D01*
X0051990Y0047900D02*
X0051990Y0050170D01*
X0052560Y0050170D01*
X0051990Y0051300D02*
X0051990Y0051870D01*
X0050110Y0050170D02*
X0048400Y0050170D01*
X0047840Y0049600D01*
X0047840Y0047900D01*
X0046420Y0048470D02*
X0045850Y0047900D01*
X0044150Y0047900D01*
X0044150Y0047330D02*
X0044150Y0050170D01*
X0045850Y0050170D01*
X0046420Y0049600D01*
X0046420Y0048470D01*
X0045290Y0046770D02*
X0044720Y0046770D01*
X0044150Y0047330D01*
X0044630Y0045300D02*
X0043490Y0045300D01*
X0042930Y0044740D01*
X0045190Y0042470D01*
X0044630Y0041900D01*
X0043490Y0041900D01*
X0042930Y0042470D01*
X0042930Y0044740D01*
X0041510Y0044170D02*
X0040380Y0045300D01*
X0040380Y0041900D01*
X0041510Y0041900D02*
X0039240Y0041900D01*
X0037830Y0042470D02*
X0037260Y0041900D01*
X0036130Y0041900D01*
X0035560Y0042470D01*
X0035560Y0043030D01*
X0036130Y0043600D01*
X0036690Y0043600D01*
X0036130Y0043600D02*
X0035560Y0044170D01*
X0035560Y0044740D01*
X0036130Y0045300D01*
X0037260Y0045300D01*
X0037830Y0044740D01*
X0036790Y0047900D02*
X0039060Y0047900D01*
X0039060Y0051300D01*
X0039720Y0053900D02*
X0038010Y0053900D01*
X0038010Y0057300D01*
X0038010Y0056170D02*
X0039720Y0056170D01*
X0040280Y0055600D01*
X0040280Y0054470D01*
X0039720Y0053900D01*
X0041700Y0053900D02*
X0041700Y0055600D01*
X0042270Y0056170D01*
X0043970Y0056170D01*
X0043970Y0053900D01*
X0045380Y0053900D02*
X0047080Y0053900D01*
X0047650Y0054470D01*
X0047080Y0055030D01*
X0045380Y0055030D01*
X0045380Y0055600D02*
X0045380Y0053900D01*
X0045380Y0055600D02*
X0045950Y0056170D01*
X0047080Y0056170D01*
X0049540Y0057300D02*
X0049540Y0053900D01*
X0050110Y0053900D02*
X0048970Y0053900D01*
X0051520Y0055030D02*
X0053790Y0055030D01*
X0053790Y0054470D02*
X0053790Y0055600D01*
X0053220Y0056170D01*
X0052090Y0056170D01*
X0051520Y0055600D01*
X0051520Y0055030D01*
X0052090Y0053900D02*
X0053220Y0053900D01*
X0053790Y0054470D01*
X0055160Y0056170D02*
X0055720Y0056170D01*
X0056860Y0055030D01*
X0056860Y0053900D02*
X0056860Y0056170D01*
X0058270Y0055600D02*
X0058840Y0056170D01*
X0059970Y0056170D01*
X0060540Y0055600D01*
X0060540Y0054470D01*
X0059970Y0053900D01*
X0058840Y0053900D01*
X0058270Y0054470D01*
X0058270Y0055600D01*
X0061960Y0057300D02*
X0061960Y0053900D01*
X0064220Y0053900D02*
X0064220Y0057300D01*
X0063090Y0056170D01*
X0061960Y0057300D01*
X0069320Y0057300D02*
X0070460Y0057300D01*
X0069890Y0057300D02*
X0069890Y0054470D01*
X0070460Y0053900D01*
X0071020Y0053900D01*
X0071590Y0054470D01*
X0077920Y0051300D02*
X0080180Y0051300D01*
X0080180Y0049600D02*
X0079050Y0049600D01*
X0072820Y0048470D02*
X0072250Y0047900D01*
X0066680Y0047900D02*
X0066680Y0050170D01*
X0068660Y0045300D02*
X0068090Y0044740D01*
X0068090Y0044170D01*
X0070360Y0041900D01*
X0068090Y0041900D01*
X0071780Y0041900D02*
X0074050Y0041900D01*
X0071780Y0044170D01*
X0071780Y0044740D01*
X0072340Y0045300D01*
X0073480Y0045300D01*
X0074050Y0044740D01*
X0070360Y0044740D02*
X0069800Y0045300D01*
X0068660Y0045300D01*
X0063000Y0044170D02*
X0063000Y0041900D01*
X0060730Y0041900D02*
X0060730Y0044170D01*
X0061860Y0045300D01*
X0063000Y0044170D01*
X0063000Y0043600D02*
X0060730Y0043600D01*
X0059310Y0044170D02*
X0057610Y0044170D01*
X0057040Y0043600D01*
X0057040Y0042470D01*
X0057610Y0041900D01*
X0059310Y0041900D01*
X0059310Y0040770D02*
X0059310Y0044170D01*
X0055630Y0044170D02*
X0055630Y0041900D01*
X0055630Y0043030D02*
X0054500Y0044170D01*
X0053930Y0044170D01*
X0048880Y0044740D02*
X0048310Y0045300D01*
X0047180Y0045300D01*
X0046610Y0044740D01*
X0046610Y0044170D01*
X0048880Y0041900D01*
X0046610Y0041900D01*
X0045190Y0042470D02*
X0045190Y0044740D01*
X0044630Y0045300D01*
X0050110Y0047900D02*
X0050110Y0050170D01*
X0050110Y0057300D02*
X0049540Y0057300D01*
X0035370Y0051300D02*
X0035370Y0047900D01*
X0033100Y0047900D01*
X0031690Y0048470D02*
X0031120Y0047900D01*
X0029990Y0047900D01*
X0029420Y0048470D01*
X0031690Y0048470D02*
X0031690Y0050740D01*
X0031120Y0051300D01*
X0029990Y0051300D01*
X0029420Y0050740D01*
X0010000Y0084300D02*
G75*
%LPD*%
D25*
X0010000Y0084300D02*
X0010000Y0158300D01*
X0214000Y0158300D01*
X0214000Y0084300D01*
X0010000Y0084300D01*
X0192430Y0112640D02*
X0192450Y0112900D01*
X0192510Y0113160D01*
X0192610Y0113410D01*
X0192740Y0113640D01*
X0192900Y0113840D01*
X0193100Y0114020D01*
X0193320Y0114170D01*
X0193550Y0114290D01*
X0193810Y0114370D01*
X0194070Y0114410D01*
X0194330Y0114410D01*
X0194590Y0114370D01*
X0194850Y0114290D01*
X0195090Y0114170D01*
X0195300Y0114020D01*
X0195500Y0113840D01*
X0195660Y0113640D01*
X0195790Y0113410D01*
X0195890Y0113160D01*
X0195950Y0112900D01*
X0195970Y0112640D01*
X0195950Y0112380D01*
X0195890Y0112120D01*
X0195790Y0111870D01*
X0195660Y0111640D01*
X0195500Y0111440D01*
X0195300Y0111260D01*
X0195080Y0111110D01*
X0194850Y0110990D01*
X0194590Y0110910D01*
X0194330Y0110870D01*
X0194070Y0110870D01*
X0193810Y0110910D01*
X0193550Y0110990D01*
X0193310Y0111110D01*
X0193100Y0111260D01*
X0192900Y0111440D01*
X0192740Y0111640D01*
X0192610Y0111870D01*
X0192510Y0112120D01*
X0192450Y0112380D01*
X0192430Y0112640D01*
X0192430Y0129960D02*
X0192450Y0130220D01*
X0192510Y0130480D01*
X0192610Y0130730D01*
X0192740Y0130960D01*
X0192900Y0131160D01*
X0193100Y0131340D01*
X0193320Y0131490D01*
X0193550Y0131610D01*
X0193810Y0131690D01*
X0194070Y0131730D01*
X0194330Y0131730D01*
X0194590Y0131690D01*
X0194850Y0131610D01*
X0195090Y0131490D01*
X0195300Y0131340D01*
X0195500Y0131160D01*
X0195660Y0130960D01*
X0195790Y0130730D01*
X0195890Y0130480D01*
X0195950Y0130220D01*
X0195970Y0129960D01*
X0195950Y0129700D01*
X0195890Y0129440D01*
X0195790Y0129190D01*
X0195660Y0128960D01*
X0195500Y0128760D01*
X0195300Y0128580D01*
X0195080Y0128430D01*
X0194850Y0128310D01*
X0194590Y0128230D01*
X0194330Y0128190D01*
X0194070Y0128190D01*
X0193810Y0128230D01*
X0193550Y0128310D01*
X0193310Y0128430D01*
X0193100Y0128580D01*
X0192900Y0128760D01*
X0192740Y0128960D01*
X0192610Y0129190D01*
X0192510Y0129440D01*
X0192450Y0129700D01*
X0192430Y0129960D01*
D16*
X0195300Y0136600D02*
X0198700Y0136600D01*
X0198700Y0138300D01*
X0198130Y0138870D01*
X0197000Y0138870D01*
X0196430Y0138300D01*
X0196430Y0136600D01*
X0197000Y0140280D02*
X0197000Y0141420D01*
X0198700Y0142550D02*
X0198700Y0140280D01*
X0195300Y0140280D01*
X0195300Y0142550D01*
X0195300Y0143970D02*
X0195300Y0146230D01*
X0195300Y0145100D02*
X0198700Y0145100D01*
X0197560Y0143970D01*
X0205300Y0144530D02*
X0205860Y0143970D01*
X0208130Y0146230D01*
X0205860Y0146230D01*
X0205300Y0145670D01*
X0205300Y0144530D01*
X0205860Y0143970D02*
X0208130Y0143970D01*
X0208700Y0144530D01*
X0208700Y0145670D01*
X0208130Y0146230D01*
X0208700Y0142550D02*
X0208700Y0140280D01*
X0205300Y0140280D01*
X0205300Y0142550D01*
X0207000Y0141420D02*
X0207000Y0140280D01*
X0207000Y0138870D02*
X0206430Y0138300D01*
X0206430Y0136600D01*
X0205300Y0136600D02*
X0208700Y0136600D01*
X0208700Y0138300D01*
X0208130Y0138870D01*
X0207000Y0138870D01*
X0188700Y0138300D02*
X0188700Y0136600D01*
X0185300Y0136600D01*
X0186430Y0136600D02*
X0186430Y0138300D01*
X0187000Y0138870D01*
X0188130Y0138870D01*
X0188700Y0138300D01*
X0188700Y0140280D02*
X0185300Y0140280D01*
X0185300Y0142550D01*
X0185300Y0143970D02*
X0187560Y0146230D01*
X0188130Y0146230D01*
X0188700Y0145670D01*
X0188700Y0144530D01*
X0188130Y0143970D01*
X0188700Y0142550D02*
X0188700Y0140280D01*
X0187000Y0140280D02*
X0187000Y0141420D01*
X0185300Y0143970D02*
X0185300Y0146230D01*
X0178700Y0145670D02*
X0178700Y0144530D01*
X0178130Y0143970D01*
X0178700Y0142550D02*
X0178700Y0140280D01*
X0175300Y0140280D01*
X0175300Y0142550D01*
X0175860Y0143970D02*
X0175300Y0144530D01*
X0175300Y0145670D01*
X0175860Y0146230D01*
X0176430Y0146230D01*
X0177000Y0145670D01*
X0177000Y0145100D01*
X0177000Y0145670D02*
X0177560Y0146230D01*
X0178130Y0146230D01*
X0178700Y0145670D01*
X0177000Y0141420D02*
X0177000Y0140280D01*
X0177000Y0138870D02*
X0176430Y0138300D01*
X0176430Y0136600D01*
X0175300Y0136600D02*
X0178700Y0136600D01*
X0178700Y0138300D01*
X0178130Y0138870D01*
X0177000Y0138870D01*
X0080180Y0125600D02*
X0080180Y0122200D01*
X0077920Y0122200D01*
X0076500Y0122200D02*
X0076500Y0124470D01*
X0074800Y0124470D01*
X0074230Y0123900D01*
X0074230Y0122200D01*
X0072820Y0122770D02*
X0072820Y0123900D01*
X0072250Y0124470D01*
X0070550Y0124470D01*
X0070550Y0121630D01*
X0071120Y0121070D01*
X0071680Y0121070D01*
X0072250Y0122200D02*
X0070550Y0122200D01*
X0069130Y0122200D02*
X0068000Y0122200D01*
X0068570Y0122200D02*
X0068570Y0124470D01*
X0069130Y0124470D01*
X0068570Y0125600D02*
X0068570Y0126170D01*
X0066680Y0124470D02*
X0064980Y0124470D01*
X0064410Y0123900D01*
X0064410Y0122200D01*
X0063000Y0122770D02*
X0063000Y0123900D01*
X0062430Y0124470D01*
X0061290Y0124470D01*
X0060730Y0123900D01*
X0060730Y0123330D01*
X0063000Y0123330D01*
X0063000Y0122770D02*
X0062430Y0122200D01*
X0061290Y0122200D01*
X0059310Y0122770D02*
X0059310Y0123900D01*
X0058750Y0124470D01*
X0057610Y0124470D01*
X0057040Y0123900D01*
X0057040Y0123330D01*
X0059310Y0123330D01*
X0059310Y0122770D02*
X0058750Y0122200D01*
X0057610Y0122200D01*
X0055630Y0122200D02*
X0055630Y0124470D01*
X0054500Y0124470D02*
X0053930Y0124470D01*
X0054500Y0124470D02*
X0055630Y0123330D01*
X0052560Y0122200D02*
X0051430Y0122200D01*
X0051990Y0122200D02*
X0051990Y0124470D01*
X0052560Y0124470D01*
X0051990Y0125600D02*
X0051990Y0126170D01*
X0050110Y0124470D02*
X0048400Y0124470D01*
X0047840Y0123900D01*
X0047840Y0122200D01*
X0046420Y0122770D02*
X0045850Y0122200D01*
X0044150Y0122200D01*
X0044150Y0121630D02*
X0044150Y0124470D01*
X0045850Y0124470D01*
X0046420Y0123900D01*
X0046420Y0122770D01*
X0045290Y0121070D02*
X0044720Y0121070D01*
X0044150Y0121630D01*
X0044630Y0119600D02*
X0043490Y0119600D01*
X0042930Y0119040D01*
X0045190Y0116770D01*
X0044630Y0116200D01*
X0043490Y0116200D01*
X0042930Y0116770D01*
X0042930Y0119040D01*
X0041510Y0118470D02*
X0040380Y0119600D01*
X0040380Y0116200D01*
X0041510Y0116200D02*
X0039240Y0116200D01*
X0037830Y0116770D02*
X0037260Y0116200D01*
X0036130Y0116200D01*
X0035560Y0116770D01*
X0035560Y0117330D01*
X0036130Y0117900D01*
X0036690Y0117900D01*
X0036130Y0117900D02*
X0035560Y0118470D01*
X0035560Y0119040D01*
X0036130Y0119600D01*
X0037260Y0119600D01*
X0037830Y0119040D01*
X0036790Y0122200D02*
X0039060Y0122200D01*
X0039060Y0125600D01*
X0039720Y0128200D02*
X0038010Y0128200D01*
X0038010Y0131600D01*
X0038010Y0130470D02*
X0039720Y0130470D01*
X0040280Y0129900D01*
X0040280Y0128770D01*
X0039720Y0128200D01*
X0041700Y0128200D02*
X0041700Y0129900D01*
X0042270Y0130470D01*
X0043970Y0130470D01*
X0043970Y0128200D01*
X0045380Y0128200D02*
X0047080Y0128200D01*
X0047650Y0128770D01*
X0047080Y0129330D01*
X0045380Y0129330D01*
X0045380Y0129900D02*
X0045380Y0128200D01*
X0045380Y0129900D02*
X0045950Y0130470D01*
X0047080Y0130470D01*
X0049540Y0131600D02*
X0049540Y0128200D01*
X0050110Y0128200D02*
X0048970Y0128200D01*
X0051520Y0129330D02*
X0053790Y0129330D01*
X0053790Y0128770D02*
X0053790Y0129900D01*
X0053220Y0130470D01*
X0052090Y0130470D01*
X0051520Y0129900D01*
X0051520Y0129330D01*
X0052090Y0128200D02*
X0053220Y0128200D01*
X0053790Y0128770D01*
X0055160Y0130470D02*
X0055720Y0130470D01*
X0056860Y0129330D01*
X0056860Y0128200D02*
X0056860Y0130470D01*
X0058270Y0129900D02*
X0058840Y0130470D01*
X0059970Y0130470D01*
X0060540Y0129900D01*
X0060540Y0128770D01*
X0059970Y0128200D01*
X0058840Y0128200D01*
X0058270Y0128770D01*
X0058270Y0129900D01*
X0061960Y0131600D02*
X0061960Y0128200D01*
X0064220Y0128200D02*
X0064220Y0131600D01*
X0063090Y0130470D01*
X0061960Y0131600D01*
X0069320Y0131600D02*
X0070460Y0131600D01*
X0069890Y0131600D02*
X0069890Y0128770D01*
X0070460Y0128200D01*
X0071020Y0128200D01*
X0071590Y0128770D01*
X0077920Y0125600D02*
X0080180Y0125600D01*
X0080180Y0123900D02*
X0079050Y0123900D01*
X0072820Y0122770D02*
X0072250Y0122200D01*
X0066680Y0122200D02*
X0066680Y0124470D01*
X0068660Y0119600D02*
X0068090Y0119040D01*
X0068090Y0118470D01*
X0070360Y0116200D01*
X0068090Y0116200D01*
X0071780Y0116200D02*
X0074050Y0116200D01*
X0071780Y0118470D01*
X0071780Y0119040D01*
X0072340Y0119600D01*
X0073480Y0119600D01*
X0074050Y0119040D01*
X0070360Y0119040D02*
X0069800Y0119600D01*
X0068660Y0119600D01*
X0063000Y0118470D02*
X0063000Y0116200D01*
X0060730Y0116200D02*
X0060730Y0118470D01*
X0061860Y0119600D01*
X0063000Y0118470D01*
X0063000Y0117900D02*
X0060730Y0117900D01*
X0059310Y0118470D02*
X0057610Y0118470D01*
X0057040Y0117900D01*
X0057040Y0116770D01*
X0057610Y0116200D01*
X0059310Y0116200D01*
X0059310Y0115070D02*
X0059310Y0118470D01*
X0055630Y0118470D02*
X0055630Y0116200D01*
X0055630Y0117330D02*
X0054500Y0118470D01*
X0053930Y0118470D01*
X0048880Y0119040D02*
X0048310Y0119600D01*
X0047180Y0119600D01*
X0046610Y0119040D01*
X0046610Y0118470D01*
X0048880Y0116200D01*
X0046610Y0116200D01*
X0045190Y0116770D02*
X0045190Y0119040D01*
X0044630Y0119600D01*
X0050110Y0122200D02*
X0050110Y0124470D01*
X0050110Y0131600D02*
X0049540Y0131600D01*
X0035370Y0125600D02*
X0035370Y0122200D01*
X0033100Y0122200D01*
X0031690Y0122770D02*
X0031120Y0122200D01*
X0029990Y0122200D01*
X0029420Y0122770D01*
X0031690Y0122770D02*
X0031690Y0125040D01*
X0031120Y0125600D01*
X0029990Y0125600D01*
X0029420Y0125040D01*
X0010000Y0158600D02*
G75*
%LPD*%
D25*
X0010000Y0158600D02*
X0010000Y0232600D01*
X0214000Y0232600D01*
X0214000Y0158600D01*
X0010000Y0158600D01*
X0192430Y0186940D02*
X0192450Y0187200D01*
X0192510Y0187460D01*
X0192610Y0187710D01*
X0192740Y0187940D01*
X0192900Y0188140D01*
X0193100Y0188320D01*
X0193320Y0188470D01*
X0193550Y0188590D01*
X0193810Y0188670D01*
X0194070Y0188710D01*
X0194330Y0188710D01*
X0194590Y0188670D01*
X0194850Y0188590D01*
X0195090Y0188470D01*
X0195300Y0188320D01*
X0195500Y0188140D01*
X0195660Y0187940D01*
X0195790Y0187710D01*
X0195890Y0187460D01*
X0195950Y0187200D01*
X0195970Y0186940D01*
X0195950Y0186680D01*
X0195890Y0186420D01*
X0195790Y0186170D01*
X0195660Y0185940D01*
X0195500Y0185740D01*
X0195300Y0185560D01*
X0195080Y0185410D01*
X0194850Y0185290D01*
X0194590Y0185210D01*
X0194330Y0185170D01*
X0194070Y0185170D01*
X0193810Y0185210D01*
X0193550Y0185290D01*
X0193310Y0185410D01*
X0193100Y0185560D01*
X0192900Y0185740D01*
X0192740Y0185940D01*
X0192610Y0186170D01*
X0192510Y0186420D01*
X0192450Y0186680D01*
X0192430Y0186940D01*
X0192430Y0204260D02*
X0192450Y0204520D01*
X0192510Y0204780D01*
X0192610Y0205030D01*
X0192740Y0205260D01*
X0192900Y0205460D01*
X0193100Y0205640D01*
X0193320Y0205790D01*
X0193550Y0205910D01*
X0193810Y0205990D01*
X0194070Y0206030D01*
X0194330Y0206030D01*
X0194590Y0205990D01*
X0194850Y0205910D01*
X0195090Y0205790D01*
X0195300Y0205640D01*
X0195500Y0205460D01*
X0195660Y0205260D01*
X0195790Y0205030D01*
X0195890Y0204780D01*
X0195950Y0204520D01*
X0195970Y0204260D01*
X0195950Y0204000D01*
X0195890Y0203740D01*
X0195790Y0203490D01*
X0195660Y0203260D01*
X0195500Y0203060D01*
X0195300Y0202880D01*
X0195080Y0202730D01*
X0194850Y0202610D01*
X0194590Y0202530D01*
X0194330Y0202490D01*
X0194070Y0202490D01*
X0193810Y0202530D01*
X0193550Y0202610D01*
X0193310Y0202730D01*
X0193100Y0202880D01*
X0192900Y0203060D01*
X0192740Y0203260D01*
X0192610Y0203490D01*
X0192510Y0203740D01*
X0192450Y0204000D01*
X0192430Y0204260D01*
D16*
X0195300Y0210900D02*
X0198700Y0210900D01*
X0198700Y0212600D01*
X0198130Y0213170D01*
X0197000Y0213170D01*
X0196430Y0212600D01*
X0196430Y0210900D01*
X0197000Y0214580D02*
X0197000Y0215720D01*
X0198700Y0216850D02*
X0198700Y0214580D01*
X0195300Y0214580D01*
X0195300Y0216850D01*
X0195300Y0218270D02*
X0195300Y0220530D01*
X0195300Y0219400D02*
X0198700Y0219400D01*
X0197560Y0218270D01*
X0205300Y0218830D02*
X0205860Y0218270D01*
X0208130Y0220530D01*
X0205860Y0220530D01*
X0205300Y0219970D01*
X0205300Y0218830D01*
X0205860Y0218270D02*
X0208130Y0218270D01*
X0208700Y0218830D01*
X0208700Y0219970D01*
X0208130Y0220530D01*
X0208700Y0216850D02*
X0208700Y0214580D01*
X0205300Y0214580D01*
X0205300Y0216850D01*
X0207000Y0215720D02*
X0207000Y0214580D01*
X0207000Y0213170D02*
X0206430Y0212600D01*
X0206430Y0210900D01*
X0205300Y0210900D02*
X0208700Y0210900D01*
X0208700Y0212600D01*
X0208130Y0213170D01*
X0207000Y0213170D01*
X0188700Y0212600D02*
X0188700Y0210900D01*
X0185300Y0210900D01*
X0186430Y0210900D02*
X0186430Y0212600D01*
X0187000Y0213170D01*
X0188130Y0213170D01*
X0188700Y0212600D01*
X0188700Y0214580D02*
X0185300Y0214580D01*
X0185300Y0216850D01*
X0185300Y0218270D02*
X0187560Y0220530D01*
X0188130Y0220530D01*
X0188700Y0219970D01*
X0188700Y0218830D01*
X0188130Y0218270D01*
X0188700Y0216850D02*
X0188700Y0214580D01*
X0187000Y0214580D02*
X0187000Y0215720D01*
X0185300Y0218270D02*
X0185300Y0220530D01*
X0178700Y0219970D02*
X0178700Y0218830D01*
X0178130Y0218270D01*
X0178700Y0216850D02*
X0178700Y0214580D01*
X0175300Y0214580D01*
X0175300Y0216850D01*
X0175860Y0218270D02*
X0175300Y0218830D01*
X0175300Y0219970D01*
X0175860Y0220530D01*
X0176430Y0220530D01*
X0177000Y0219970D01*
X0177000Y0219400D01*
X0177000Y0219970D02*
X0177560Y0220530D01*
X0178130Y0220530D01*
X0178700Y0219970D01*
X0177000Y0215720D02*
X0177000Y0214580D01*
X0177000Y0213170D02*
X0176430Y0212600D01*
X0176430Y0210900D01*
X0175300Y0210900D02*
X0178700Y0210900D01*
X0178700Y0212600D01*
X0178130Y0213170D01*
X0177000Y0213170D01*
X0080180Y0199900D02*
X0080180Y0196500D01*
X0077920Y0196500D01*
X0076500Y0196500D02*
X0076500Y0198770D01*
X0074800Y0198770D01*
X0074230Y0198200D01*
X0074230Y0196500D01*
X0072820Y0197070D02*
X0072820Y0198200D01*
X0072250Y0198770D01*
X0070550Y0198770D01*
X0070550Y0195930D01*
X0071120Y0195370D01*
X0071680Y0195370D01*
X0072250Y0196500D02*
X0070550Y0196500D01*
X0069130Y0196500D02*
X0068000Y0196500D01*
X0068570Y0196500D02*
X0068570Y0198770D01*
X0069130Y0198770D01*
X0068570Y0199900D02*
X0068570Y0200470D01*
X0066680Y0198770D02*
X0064980Y0198770D01*
X0064410Y0198200D01*
X0064410Y0196500D01*
X0063000Y0197070D02*
X0063000Y0198200D01*
X0062430Y0198770D01*
X0061290Y0198770D01*
X0060730Y0198200D01*
X0060730Y0197630D01*
X0063000Y0197630D01*
X0063000Y0197070D02*
X0062430Y0196500D01*
X0061290Y0196500D01*
X0059310Y0197070D02*
X0059310Y0198200D01*
X0058750Y0198770D01*
X0057610Y0198770D01*
X0057040Y0198200D01*
X0057040Y0197630D01*
X0059310Y0197630D01*
X0059310Y0197070D02*
X0058750Y0196500D01*
X0057610Y0196500D01*
X0055630Y0196500D02*
X0055630Y0198770D01*
X0054500Y0198770D02*
X0053930Y0198770D01*
X0054500Y0198770D02*
X0055630Y0197630D01*
X0052560Y0196500D02*
X0051430Y0196500D01*
X0051990Y0196500D02*
X0051990Y0198770D01*
X0052560Y0198770D01*
X0051990Y0199900D02*
X0051990Y0200470D01*
X0050110Y0198770D02*
X0048400Y0198770D01*
X0047840Y0198200D01*
X0047840Y0196500D01*
X0046420Y0197070D02*
X0045850Y0196500D01*
X0044150Y0196500D01*
X0044150Y0195930D02*
X0044150Y0198770D01*
X0045850Y0198770D01*
X0046420Y0198200D01*
X0046420Y0197070D01*
X0045290Y0195370D02*
X0044720Y0195370D01*
X0044150Y0195930D01*
X0044630Y0193900D02*
X0043490Y0193900D01*
X0042930Y0193340D01*
X0045190Y0191070D01*
X0044630Y0190500D01*
X0043490Y0190500D01*
X0042930Y0191070D01*
X0042930Y0193340D01*
X0041510Y0192770D02*
X0040380Y0193900D01*
X0040380Y0190500D01*
X0041510Y0190500D02*
X0039240Y0190500D01*
X0037830Y0191070D02*
X0037260Y0190500D01*
X0036130Y0190500D01*
X0035560Y0191070D01*
X0035560Y0191630D01*
X0036130Y0192200D01*
X0036690Y0192200D01*
X0036130Y0192200D02*
X0035560Y0192770D01*
X0035560Y0193340D01*
X0036130Y0193900D01*
X0037260Y0193900D01*
X0037830Y0193340D01*
X0036790Y0196500D02*
X0039060Y0196500D01*
X0039060Y0199900D01*
X0039720Y0202500D02*
X0038010Y0202500D01*
X0038010Y0205900D01*
X0038010Y0204770D02*
X0039720Y0204770D01*
X0040280Y0204200D01*
X0040280Y0203070D01*
X0039720Y0202500D01*
X0041700Y0202500D02*
X0041700Y0204200D01*
X0042270Y0204770D01*
X0043970Y0204770D01*
X0043970Y0202500D01*
X0045380Y0202500D02*
X0047080Y0202500D01*
X0047650Y0203070D01*
X0047080Y0203630D01*
X0045380Y0203630D01*
X0045380Y0204200D02*
X0045380Y0202500D01*
X0045380Y0204200D02*
X0045950Y0204770D01*
X0047080Y0204770D01*
X0049540Y0205900D02*
X0049540Y0202500D01*
X0050110Y0202500D02*
X0048970Y0202500D01*
X0051520Y0203630D02*
X0053790Y0203630D01*
X0053790Y0203070D02*
X0053790Y0204200D01*
X0053220Y0204770D01*
X0052090Y0204770D01*
X0051520Y0204200D01*
X0051520Y0203630D01*
X0052090Y0202500D02*
X0053220Y0202500D01*
X0053790Y0203070D01*
X0055160Y0204770D02*
X0055720Y0204770D01*
X0056860Y0203630D01*
X0056860Y0202500D02*
X0056860Y0204770D01*
X0058270Y0204200D02*
X0058840Y0204770D01*
X0059970Y0204770D01*
X0060540Y0204200D01*
X0060540Y0203070D01*
X0059970Y0202500D01*
X0058840Y0202500D01*
X0058270Y0203070D01*
X0058270Y0204200D01*
X0061960Y0205900D02*
X0061960Y0202500D01*
X0064220Y0202500D02*
X0064220Y0205900D01*
X0063090Y0204770D01*
X0061960Y0205900D01*
X0069320Y0205900D02*
X0070460Y0205900D01*
X0069890Y0205900D02*
X0069890Y0203070D01*
X0070460Y0202500D01*
X0071020Y0202500D01*
X0071590Y0203070D01*
X0077920Y0199900D02*
X0080180Y0199900D01*
X0080180Y0198200D02*
X0079050Y0198200D01*
X0072820Y0197070D02*
X0072250Y0196500D01*
X0066680Y0196500D02*
X0066680Y0198770D01*
X0068660Y0193900D02*
X0068090Y0193340D01*
X0068090Y0192770D01*
X0070360Y0190500D01*
X0068090Y0190500D01*
X0071780Y0190500D02*
X0074050Y0190500D01*
X0071780Y0192770D01*
X0071780Y0193340D01*
X0072340Y0193900D01*
X0073480Y0193900D01*
X0074050Y0193340D01*
X0070360Y0193340D02*
X0069800Y0193900D01*
X0068660Y0193900D01*
X0063000Y0192770D02*
X0063000Y0190500D01*
X0060730Y0190500D02*
X0060730Y0192770D01*
X0061860Y0193900D01*
X0063000Y0192770D01*
X0063000Y0192200D02*
X0060730Y0192200D01*
X0059310Y0192770D02*
X0057610Y0192770D01*
X0057040Y0192200D01*
X0057040Y0191070D01*
X0057610Y0190500D01*
X0059310Y0190500D01*
X0059310Y0189370D02*
X0059310Y0192770D01*
X0055630Y0192770D02*
X0055630Y0190500D01*
X0055630Y0191630D02*
X0054500Y0192770D01*
X0053930Y0192770D01*
X0048880Y0193340D02*
X0048310Y0193900D01*
X0047180Y0193900D01*
X0046610Y0193340D01*
X0046610Y0192770D01*
X0048880Y0190500D01*
X0046610Y0190500D01*
X0045190Y0191070D02*
X0045190Y0193340D01*
X0044630Y0193900D01*
X0050110Y0196500D02*
X0050110Y0198770D01*
X0050110Y0205900D02*
X0049540Y0205900D01*
X0035370Y0199900D02*
X0035370Y0196500D01*
X0033100Y0196500D01*
X0031690Y0197070D02*
X0031120Y0196500D01*
X0029990Y0196500D01*
X0029420Y0197070D01*
X0031690Y0197070D02*
X0031690Y0199340D01*
X0031120Y0199900D01*
X0029990Y0199900D01*
X0029420Y0199340D01*
X0010000Y0232900D02*
G75*
%LPD*%
D25*
X0010000Y0232900D02*
X0010000Y0306900D01*
X0214000Y0306900D01*
X0214000Y0232900D01*
X0010000Y0232900D01*
X0192430Y0261240D02*
X0192450Y0261500D01*
X0192510Y0261760D01*
X0192610Y0262010D01*
X0192740Y0262240D01*
X0192900Y0262440D01*
X0193100Y0262620D01*
X0193320Y0262770D01*
X0193550Y0262890D01*
X0193810Y0262970D01*
X0194070Y0263010D01*
X0194330Y0263010D01*
X0194590Y0262970D01*
X0194850Y0262890D01*
X0195090Y0262770D01*
X0195300Y0262620D01*
X0195500Y0262440D01*
X0195660Y0262240D01*
X0195790Y0262010D01*
X0195890Y0261760D01*
X0195950Y0261500D01*
X0195970Y0261240D01*
X0195950Y0260980D01*
X0195890Y0260720D01*
X0195790Y0260470D01*
X0195660Y0260240D01*
X0195500Y0260040D01*
X0195300Y0259860D01*
X0195080Y0259710D01*
X0194850Y0259590D01*
X0194590Y0259510D01*
X0194330Y0259470D01*
X0194070Y0259470D01*
X0193810Y0259510D01*
X0193550Y0259590D01*
X0193310Y0259710D01*
X0193100Y0259860D01*
X0192900Y0260040D01*
X0192740Y0260240D01*
X0192610Y0260470D01*
X0192510Y0260720D01*
X0192450Y0260980D01*
X0192430Y0261240D01*
X0192430Y0278560D02*
X0192450Y0278820D01*
X0192510Y0279080D01*
X0192610Y0279330D01*
X0192740Y0279560D01*
X0192900Y0279760D01*
X0193100Y0279940D01*
X0193320Y0280090D01*
X0193550Y0280210D01*
X0193810Y0280290D01*
X0194070Y0280330D01*
X0194330Y0280330D01*
X0194590Y0280290D01*
X0194850Y0280210D01*
X0195090Y0280090D01*
X0195300Y0279940D01*
X0195500Y0279760D01*
X0195660Y0279560D01*
X0195790Y0279330D01*
X0195890Y0279080D01*
X0195950Y0278820D01*
X0195970Y0278560D01*
X0195950Y0278300D01*
X0195890Y0278040D01*
X0195790Y0277790D01*
X0195660Y0277560D01*
X0195500Y0277360D01*
X0195300Y0277180D01*
X0195080Y0277030D01*
X0194850Y0276910D01*
X0194590Y0276830D01*
X0194330Y0276790D01*
X0194070Y0276790D01*
X0193810Y0276830D01*
X0193550Y0276910D01*
X0193310Y0277030D01*
X0193100Y0277180D01*
X0192900Y0277360D01*
X0192740Y0277560D01*
X0192610Y0277790D01*
X0192510Y0278040D01*
X0192450Y0278300D01*
X0192430Y0278560D01*
D16*
X0195300Y0285200D02*
X0198700Y0285200D01*
X0198700Y0286900D01*
X0198130Y0287470D01*
X0197000Y0287470D01*
X0196430Y0286900D01*
X0196430Y0285200D01*
X0197000Y0288880D02*
X0197000Y0290020D01*
X0198700Y0291150D02*
X0198700Y0288880D01*
X0195300Y0288880D01*
X0195300Y0291150D01*
X0195300Y0292570D02*
X0195300Y0294830D01*
X0195300Y0293700D02*
X0198700Y0293700D01*
X0197560Y0292570D01*
X0205300Y0293130D02*
X0205860Y0292570D01*
X0208130Y0294830D01*
X0205860Y0294830D01*
X0205300Y0294270D01*
X0205300Y0293130D01*
X0205860Y0292570D02*
X0208130Y0292570D01*
X0208700Y0293130D01*
X0208700Y0294270D01*
X0208130Y0294830D01*
X0208700Y0291150D02*
X0208700Y0288880D01*
X0205300Y0288880D01*
X0205300Y0291150D01*
X0207000Y0290020D02*
X0207000Y0288880D01*
X0207000Y0287470D02*
X0206430Y0286900D01*
X0206430Y0285200D01*
X0205300Y0285200D02*
X0208700Y0285200D01*
X0208700Y0286900D01*
X0208130Y0287470D01*
X0207000Y0287470D01*
X0188700Y0286900D02*
X0188700Y0285200D01*
X0185300Y0285200D01*
X0186430Y0285200D02*
X0186430Y0286900D01*
X0187000Y0287470D01*
X0188130Y0287470D01*
X0188700Y0286900D01*
X0188700Y0288880D02*
X0185300Y0288880D01*
X0185300Y0291150D01*
X0185300Y0292570D02*
X0187560Y0294830D01*
X0188130Y0294830D01*
X0188700Y0294270D01*
X0188700Y0293130D01*
X0188130Y0292570D01*
X0188700Y0291150D02*
X0188700Y0288880D01*
X0187000Y0288880D02*
X0187000Y0290020D01*
X0185300Y0292570D02*
X0185300Y0294830D01*
X0178700Y0294270D02*
X0178700Y0293130D01*
X0178130Y0292570D01*
X0178700Y0291150D02*
X0178700Y0288880D01*
X0175300Y0288880D01*
X0175300Y0291150D01*
X0175860Y0292570D02*
X0175300Y0293130D01*
X0175300Y0294270D01*
X0175860Y0294830D01*
X0176430Y0294830D01*
X0177000Y0294270D01*
X0177000Y0293700D01*
X0177000Y0294270D02*
X0177560Y0294830D01*
X0178130Y0294830D01*
X0178700Y0294270D01*
X0177000Y0290020D02*
X0177000Y0288880D01*
X0177000Y0287470D02*
X0176430Y0286900D01*
X0176430Y0285200D01*
X0175300Y0285200D02*
X0178700Y0285200D01*
X0178700Y0286900D01*
X0178130Y0287470D01*
X0177000Y0287470D01*
X0080180Y0274200D02*
X0080180Y0270800D01*
X0077920Y0270800D01*
X0076500Y0270800D02*
X0076500Y0273070D01*
X0074800Y0273070D01*
X0074230Y0272500D01*
X0074230Y0270800D01*
X0072820Y0271370D02*
X0072820Y0272500D01*
X0072250Y0273070D01*
X0070550Y0273070D01*
X0070550Y0270230D01*
X0071120Y0269670D01*
X0071680Y0269670D01*
X0072250Y0270800D02*
X0070550Y0270800D01*
X0069130Y0270800D02*
X0068000Y0270800D01*
X0068570Y0270800D02*
X0068570Y0273070D01*
X0069130Y0273070D01*
X0068570Y0274200D02*
X0068570Y0274770D01*
X0066680Y0273070D02*
X0064980Y0273070D01*
X0064410Y0272500D01*
X0064410Y0270800D01*
X0063000Y0271370D02*
X0063000Y0272500D01*
X0062430Y0273070D01*
X0061290Y0273070D01*
X0060730Y0272500D01*
X0060730Y0271930D01*
X0063000Y0271930D01*
X0063000Y0271370D02*
X0062430Y0270800D01*
X0061290Y0270800D01*
X0059310Y0271370D02*
X0059310Y0272500D01*
X0058750Y0273070D01*
X0057610Y0273070D01*
X0057040Y0272500D01*
X0057040Y0271930D01*
X0059310Y0271930D01*
X0059310Y0271370D02*
X0058750Y0270800D01*
X0057610Y0270800D01*
X0055630Y0270800D02*
X0055630Y0273070D01*
X0054500Y0273070D02*
X0053930Y0273070D01*
X0054500Y0273070D02*
X0055630Y0271930D01*
X0052560Y0270800D02*
X0051430Y0270800D01*
X0051990Y0270800D02*
X0051990Y0273070D01*
X0052560Y0273070D01*
X0051990Y0274200D02*
X0051990Y0274770D01*
X0050110Y0273070D02*
X0048400Y0273070D01*
X0047840Y0272500D01*
X0047840Y0270800D01*
X0046420Y0271370D02*
X0045850Y0270800D01*
X0044150Y0270800D01*
X0044150Y0270230D02*
X0044150Y0273070D01*
X0045850Y0273070D01*
X0046420Y0272500D01*
X0046420Y0271370D01*
X0045290Y0269670D02*
X0044720Y0269670D01*
X0044150Y0270230D01*
X0044630Y0268200D02*
X0043490Y0268200D01*
X0042930Y0267640D01*
X0045190Y0265370D01*
X0044630Y0264800D01*
X0043490Y0264800D01*
X0042930Y0265370D01*
X0042930Y0267640D01*
X0041510Y0267070D02*
X0040380Y0268200D01*
X0040380Y0264800D01*
X0041510Y0264800D02*
X0039240Y0264800D01*
X0037830Y0265370D02*
X0037260Y0264800D01*
X0036130Y0264800D01*
X0035560Y0265370D01*
X0035560Y0265930D01*
X0036130Y0266500D01*
X0036690Y0266500D01*
X0036130Y0266500D02*
X0035560Y0267070D01*
X0035560Y0267640D01*
X0036130Y0268200D01*
X0037260Y0268200D01*
X0037830Y0267640D01*
X0036790Y0270800D02*
X0039060Y0270800D01*
X0039060Y0274200D01*
X0039720Y0276800D02*
X0038010Y0276800D01*
X0038010Y0280200D01*
X0038010Y0279070D02*
X0039720Y0279070D01*
X0040280Y0278500D01*
X0040280Y0277370D01*
X0039720Y0276800D01*
X0041700Y0276800D02*
X0041700Y0278500D01*
X0042270Y0279070D01*
X0043970Y0279070D01*
X0043970Y0276800D01*
X0045380Y0276800D02*
X0047080Y0276800D01*
X0047650Y0277370D01*
X0047080Y0277930D01*
X0045380Y0277930D01*
X0045380Y0278500D02*
X0045380Y0276800D01*
X0045380Y0278500D02*
X0045950Y0279070D01*
X0047080Y0279070D01*
X0049540Y0280200D02*
X0049540Y0276800D01*
X0050110Y0276800D02*
X0048970Y0276800D01*
X0051520Y0277930D02*
X0053790Y0277930D01*
X0053790Y0277370D02*
X0053790Y0278500D01*
X0053220Y0279070D01*
X0052090Y0279070D01*
X0051520Y0278500D01*
X0051520Y0277930D01*
X0052090Y0276800D02*
X0053220Y0276800D01*
X0053790Y0277370D01*
X0055160Y0279070D02*
X0055720Y0279070D01*
X0056860Y0277930D01*
X0056860Y0276800D02*
X0056860Y0279070D01*
X0058270Y0278500D02*
X0058840Y0279070D01*
X0059970Y0279070D01*
X0060540Y0278500D01*
X0060540Y0277370D01*
X0059970Y0276800D01*
X0058840Y0276800D01*
X0058270Y0277370D01*
X0058270Y0278500D01*
X0061960Y0280200D02*
X0061960Y0276800D01*
X0064220Y0276800D02*
X0064220Y0280200D01*
X0063090Y0279070D01*
X0061960Y0280200D01*
X0069320Y0280200D02*
X0070460Y0280200D01*
X0069890Y0280200D02*
X0069890Y0277370D01*
X0070460Y0276800D01*
X0071020Y0276800D01*
X0071590Y0277370D01*
X0077920Y0274200D02*
X0080180Y0274200D01*
X0080180Y0272500D02*
X0079050Y0272500D01*
X0072820Y0271370D02*
X0072250Y0270800D01*
X0066680Y0270800D02*
X0066680Y0273070D01*
X0068660Y0268200D02*
X0068090Y0267640D01*
X0068090Y0267070D01*
X0070360Y0264800D01*
X0068090Y0264800D01*
X0071780Y0264800D02*
X0074050Y0264800D01*
X0071780Y0267070D01*
X0071780Y0267640D01*
X0072340Y0268200D01*
X0073480Y0268200D01*
X0074050Y0267640D01*
X0070360Y0267640D02*
X0069800Y0268200D01*
X0068660Y0268200D01*
X0063000Y0267070D02*
X0063000Y0264800D01*
X0060730Y0264800D02*
X0060730Y0267070D01*
X0061860Y0268200D01*
X0063000Y0267070D01*
X0063000Y0266500D02*
X0060730Y0266500D01*
X0059310Y0267070D02*
X0057610Y0267070D01*
X0057040Y0266500D01*
X0057040Y0265370D01*
X0057610Y0264800D01*
X0059310Y0264800D01*
X0059310Y0263670D02*
X0059310Y0267070D01*
X0055630Y0267070D02*
X0055630Y0264800D01*
X0055630Y0265930D02*
X0054500Y0267070D01*
X0053930Y0267070D01*
X0048880Y0267640D02*
X0048310Y0268200D01*
X0047180Y0268200D01*
X0046610Y0267640D01*
X0046610Y0267070D01*
X0048880Y0264800D01*
X0046610Y0264800D01*
X0045190Y0265370D02*
X0045190Y0267640D01*
X0044630Y0268200D01*
X0050110Y0270800D02*
X0050110Y0273070D01*
X0050110Y0280200D02*
X0049540Y0280200D01*
X0035370Y0274200D02*
X0035370Y0270800D01*
X0033100Y0270800D01*
X0031690Y0271370D02*
X0031120Y0270800D01*
X0029990Y0270800D01*
X0029420Y0271370D01*
X0031690Y0271370D02*
X0031690Y0273640D01*
X0031120Y0274200D01*
X0029990Y0274200D01*
X0029420Y0273640D01*
M02*
